<?xml version="1.0" encoding="utf-8"?>
<!-- Generator: Adobe Illustrator 20.1.0, SVG Export Plug-In . SVG Version: 6.00 Build 0)  -->
<svg version="1.1" id="Layer_1" xmlns="http://www.w3.org/2000/svg" xmlns:xlink="http://www.w3.org/1999/xlink" x="0px" y="0px"
	 viewBox="0 0 369.4 99.5" style="enable-background:new 0 0 369.4 99.5;" xml:space="preserve">
<style type="text/css">
	.st0{fill:#004EA8;}
	.st1{fill:#F1C400;}
</style>
<g>
	<g>
		<path class="st0" d="M367.2,59.5c-0.1,0-0.3,0.1-0.5,0.1h-0.5v-1h0.4c0.3,0,0.5,0,0.6,0.1c0.1,0.1,0.2,0.2,0.2,0.4
			C367.4,59.3,367.3,59.5,367.2,59.5 M367.7,60c-0.1-0.2-0.3-0.2-0.5-0.3c0.2,0,0.3-0.1,0.4-0.1c0.2-0.1,0.3-0.3,0.3-0.6
			c0-0.4-0.2-0.6-0.5-0.7c-0.2-0.1-0.4-0.1-0.8-0.1h-1v2.9h0.5V60h0.4c0.3,0,0.5,0,0.6,0.1c0.2,0.1,0.3,0.3,0.3,0.7v0.2l0,0.1
			c0,0,0,0,0,0v0h0.5l0,0c0,0,0-0.1,0-0.2v-0.2v-0.2C367.9,60.3,367.8,60.2,367.7,60 M369,59.7c0,0.6-0.2,1.2-0.7,1.6
			c-0.4,0.4-1,0.7-1.6,0.7c-0.6,0-1.2-0.2-1.6-0.7c-0.4-0.4-0.7-1-0.7-1.6c0-0.6,0.2-1.2,0.7-1.6c0.4-0.4,1-0.7,1.6-0.7
			c0.6,0,1.2,0.2,1.6,0.7C368.8,58.5,369,59,369,59.7 M369.4,59.7c0-0.7-0.3-1.3-0.8-1.9c-0.5-0.5-1.1-0.8-1.9-0.8
			c-0.7,0-1.3,0.3-1.8,0.8c-0.5,0.5-0.8,1.1-0.8,1.9c0,0.7,0.3,1.4,0.8,1.9c0.5,0.5,1.1,0.8,1.9,0.8c0.7,0,1.4-0.3,1.9-0.8
			C369.1,61,369.4,60.4,369.4,59.7"/>
		<g>
			<path class="st0" d="M52.3,99.2h9.4V57h-9.4V99.2z M122.2,99.2H162v-7.1h-30.5V81.7h20.1v-7.1h-20.1V64.1h29.5V57h-38.9V99.2z
				 M202.8,69.5c0,2.1-0.7,3.4-2.1,4.1c-1.4,0.7-3.1,1-5.2,1h-17V64.2h17c2,0,3.8,0.4,5.2,1.2C202.1,66.2,202.8,67.6,202.8,69.5
				 M212.2,69.5c0-4.6-1.4-7.8-4.3-9.7c-2.9-1.9-7.2-2.8-12.9-2.8h-25.8v42h9.4l0-17.4H195c5.7,0,10-0.9,12.9-2.6
				C210.8,77.3,212.2,74.1,212.2,69.5 M217.8,99.2h41.2v-7.1h-32V57l-9.3,0V99.2z M266.1,99.2H306v-7.1h-30.5V81.7h20.1v-7.1h-20.1
				V64.1H305V57h-38.9V99.2z"/>
			<path class="st0" d="M47.1,61.6c-1.3-0.8-3.3-1.9-6.4-2.9c-1.7-0.6-3.6-1.2-5.9-1.5c-2.2-0.4-4.7-0.7-7.4-0.7
				c-3.5,0-6.8,0.5-10.2,1.3c-3.3,0.9-6.2,2.3-8.8,4.1c-2.5,1.8-4.6,4.1-6.2,6.7C0.8,71.3,0,74.4,0,78c0,3.6,0.8,6.7,2.3,9.4
				c1.6,2.7,3.6,5,6.1,6.8c2.5,1.8,5.3,3.1,8.5,4c3.2,0.8,6.4,1.4,9.6,1.4c3.2,0,5.9-0.2,8.5-0.7c2.6-0.5,5.1-1.3,7.1-2
				c0,0,2.4-1,5.3-2.5l-5.6-5.6c-1.1,0.6-2.3,1.2-3.7,1.7c-1.6,0.6-3.4,1.1-5.4,1.6c-2,0.4-4.8,0.7-6.7,0.7c-2.1,0-4.1-0.3-6.1-1
				c-2-0.7-3.8-1.7-5.3-3c-1.6-1.3-2.8-2.9-3.8-4.7c-1-1.8-1.4-3.9-1.4-6.2c0-2.3,0.4-4.3,1.3-6.1c0.8-1.8,2.1-3.3,3.6-4.5
				c1.6-1.2,3.4-2.1,5.5-2.7c2.1-0.6,4.4-0.9,7-0.9c2.1,0,4.9,0.2,6.7,0.5c1,0.2,1.9,0.4,2.7,0.6c0,0,2.4,0.6,5.4,2.5L47.1,61.6z"/>
			<polygon class="st0" points="310.3,57 351.6,99 363.1,99 321.7,57 			"/>
			<polygon class="st0" points="363.1,57 321.7,99 310.3,99 351.7,57 			"/>
			<polygon class="st0" points="115,99.1 115,95.6 115,56.9 106.9,56.9 106.9,87.4 77,56.9 77,56.9 68.9,56.9 68.9,99.1 77,99.1 
				77,68.7 106.9,99.1 106.9,99.1 106.9,99.1 			"/>
		</g>
		<g>
			<path class="st1" d="M263.1,22.1c0-11.7-33.7-21.3-76.3-22.1l-0.4,3.2c35.2,0.8,62.9,9.3,62.9,19.6c0,10.6-29,19.2-65.4,19.7
				l0.3,1.6C228,43.7,263.1,34,263.1,22.1"/>
			<path class="st1" d="M232.5,24.7c0,7.9-21.8,14.4-49.2,14.8l0.3,1.6c31.9-0.4,57.3-8,57.3-17.3c0-9-24.1-16.4-54.9-17.2l-0.4,3.2
				C211.9,10.7,232.5,17,232.5,24.7"/>
			<path class="st1" d="M224.2,25.7c0-6.4-17-11.7-38.9-12.3l-0.4,3.2c17.4,0.6,30.9,4.8,30.9,9.9c0,5.3-14.6,9.6-33.1,9.9l0.3,1.6
				C206,37.8,224.2,32.4,224.2,25.7"/>
			<path class="st1" d="M98.3,22.1C98.3,10.4,132,0.8,174.7,0l0.4,3.2c-35.2,0.8-62.9,9.3-62.9,19.6c0,10.6,29,19.2,65.4,19.7
				l-0.3,1.6C133.4,43.7,98.3,34,98.3,22.1"/>
			<path class="st1" d="M128.9,24.7c0,7.9,21.8,14.4,49.2,14.8l-0.3,1.6c-31.9-0.4-57.3-8-57.3-17.3c0-9,24.1-16.4,54.9-17.2
				l0.4,3.2C149.5,10.7,128.9,17,128.9,24.7"/>
			<path class="st1" d="M137.2,25.7c0-6.4,17-11.7,38.9-12.3l0.4,3.2c-17.4,0.6-30.9,4.8-30.9,9.9c0,5.3,14.6,9.6,33.1,9.9l-0.3,1.6
				C155.4,37.8,137.2,32.4,137.2,25.7"/>
		</g>
	</g>
</g>
</svg>
