<?xml version="1.0" encoding="utf-8"?>
<!-- Generator: Adobe Illustrator 21.0.0, SVG Export Plug-In . SVG Version: 6.00 Build 0)  -->
<svg version="1.1" id="Layer_1" xmlns="http://www.w3.org/2000/svg" xmlns:xlink="http://www.w3.org/1999/xlink" x="0px" y="0px"
	 viewBox="0 0 371.6 99.5" style="enable-background:new 0 0 371.6 99.5;" xml:space="preserve">
<style type="text/css">
	.st0{fill:#FFFFFF;}
	.st1{fill:#FFCA05;}
</style>
<g>
	<g>
		<path class="st0" d="M368.5,58.8c-0.1,0-0.3,0.1-0.5,0.1h-0.5v-1h0.4c0.3,0,0.5,0,0.6,0.1c0.1,0.1,0.2,0.2,0.2,0.4
			C368.8,58.6,368.7,58.7,368.5,58.8 M369,59.3c-0.1-0.2-0.3-0.2-0.5-0.3c0.2,0,0.3-0.1,0.4-0.1c0.2-0.1,0.3-0.3,0.3-0.6
			c0-0.4-0.2-0.6-0.5-0.7c-0.2-0.1-0.4-0.1-0.8-0.1h-1v2.9h0.5v-1.1h0.4c0.3,0,0.5,0,0.6,0.1c0.2,0.1,0.3,0.3,0.3,0.7v0.2l0,0.1
			c0,0,0,0,0,0v0h0.5l0,0c0,0,0-0.1,0-0.2v-0.2v-0.2C369.2,59.6,369.1,59.4,369,59.3 M370.3,58.9c0,0.6-0.2,1.2-0.7,1.6
			c-0.4,0.4-1,0.7-1.6,0.7c-0.6,0-1.2-0.2-1.6-0.7c-0.4-0.4-0.7-1-0.7-1.6c0-0.6,0.2-1.2,0.7-1.6c0.4-0.4,1-0.7,1.6-0.7
			c0.6,0,1.2,0.2,1.6,0.7C370.1,57.8,370.3,58.3,370.3,58.9 M370.7,58.9c0-0.7-0.3-1.3-0.8-1.9c-0.5-0.5-1.1-0.8-1.9-0.8
			c-0.7,0-1.3,0.3-1.8,0.8c-0.5,0.5-0.8,1.1-0.8,1.9c0,0.7,0.3,1.4,0.8,1.9c0.5,0.5,1.1,0.8,1.9,0.8c0.7,0,1.4-0.3,1.9-0.8
			C370.4,60.3,370.7,59.6,370.7,58.9"/>
		<g>
			<path class="st0" d="M53.6,98.4H63V56.2h-9.4V98.4z M123.5,98.4h39.9v-7.1h-30.5V80.9H153v-7.1h-20.1V63.4h29.5v-7.1h-38.9V98.4z
				 M204.1,68.8c0,2.1-0.7,3.4-2.1,4.1c-1.4,0.7-3.1,1-5.2,1h-17V63.4h17c2,0,3.8,0.4,5.2,1.2C203.4,65.4,204.1,66.8,204.1,68.8
				 M213.5,68.8c0-4.6-1.4-7.8-4.3-9.7c-2.9-1.9-7.2-2.8-12.9-2.8h-25.8v42h9.4l0-17.4h16.4c5.7,0,10-0.9,12.9-2.6
				C212.1,76.6,213.5,73.4,213.5,68.8 M219.1,98.5h41.2v-7.1h-32V56.2l-9.3,0V98.5z M267.4,98.4h39.9v-7.1h-30.5V80.9h20.1v-7.1
				h-20.1V63.4h29.5v-7.1h-38.9V98.4z"/>
			<path class="st0" d="M48.4,60.8C47.1,60,45,58.9,42,57.9c-1.7-0.6-3.6-1.2-5.9-1.5c-2.2-0.4-4.7-0.7-7.4-0.7
				c-3.5,0-6.8,0.5-10.2,1.3c-3.3,0.9-6.2,2.3-8.8,4.1c-2.5,1.8-4.6,4.1-6.2,6.7c-1.6,2.7-2.3,5.8-2.3,9.4c0,3.6,0.8,6.7,2.3,9.4
				c1.6,2.7,3.6,5,6.1,6.8c2.5,1.8,5.3,3.1,8.5,4c3.2,0.8,6.4,1.4,9.6,1.4c3.2,0,5.9-0.2,8.5-0.7c2.6-0.5,5.1-1.3,7.1-2
				c0,0,2.4-1,5.3-2.5L43,87.9c-1.1,0.6-2.3,1.2-3.7,1.7c-1.6,0.6-3.4,1.1-5.4,1.6c-2,0.4-4.8,0.7-6.7,0.7c-2.1,0-4.1-0.3-6.1-1
				c-2-0.7-3.8-1.7-5.3-3c-1.6-1.3-2.8-2.9-3.8-4.7c-1-1.8-1.4-3.9-1.4-6.2c0-2.3,0.4-4.3,1.3-6.1c0.8-1.8,2.1-3.3,3.6-4.5
				c1.6-1.2,3.4-2.1,5.5-2.7c2.1-0.6,4.4-0.9,7-0.9c2.1,0,4.9,0.2,6.7,0.5c1,0.2,1.9,0.4,2.7,0.6c0,0,2.4,0.6,5.4,2.5L48.4,60.8z"/>
			<polygon class="st0" points="311.6,56.2 352.9,98.3 364.4,98.3 323,56.2 			"/>
			<polygon class="st0" points="364.4,56.2 323,98.3 311.6,98.3 353,56.2 			"/>
			<polygon class="st0" points="116.3,98.3 116.3,94.9 116.3,56.1 108.2,56.1 108.2,86.6 78.3,56.2 78.3,56.1 70.2,56.1 70.2,98.3 
				78.3,98.3 78.3,67.9 108.2,98.3 108.2,98.3 108.2,98.3 			"/>
		</g>
		<g>
			<path class="st1" d="M264.4,21.3c0-11.7-33.7-21.3-76.3-22.1l-0.4,3.2c35.2,0.8,62.9,9.3,62.9,19.6c0,10.6-29,19.2-65.4,19.7
				l0.3,1.6C229.3,43,264.4,33.3,264.4,21.3"/>
			<path class="st1" d="M233.8,24c0,7.9-21.8,14.4-49.2,14.8l0.3,1.6c31.9-0.4,57.3-8,57.3-17.3c0-9-24.1-16.4-54.9-17.2L187,9.2
				C213.2,9.9,233.8,16.2,233.8,24"/>
			<path class="st1" d="M225.5,25c0-6.4-17-11.7-38.9-12.3l-0.4,3.2c17.4,0.6,30.9,4.8,30.9,9.9c0,5.3-14.6,9.6-33.1,9.9l0.3,1.6
				C207.3,37,225.5,31.6,225.5,25"/>
			<path class="st1" d="M99.6,21.3c0-11.7,33.7-21.3,76.3-22.1l0.4,3.2c-35.2,0.8-62.9,9.3-62.9,19.6c0,10.6,29,19.2,65.4,19.7
				l-0.3,1.6C134.7,43,99.6,33.3,99.6,21.3"/>
			<path class="st1" d="M130.2,24c0,7.9,21.8,14.4,49.2,14.8l-0.3,1.6c-31.9-0.4-57.3-8-57.3-17.3c0-9,24.1-16.4,54.9-17.2l0.4,3.2
				C150.8,9.9,130.2,16.2,130.2,24"/>
			<path class="st1" d="M138.5,25c0-6.4,17-11.7,38.9-12.3l0.4,3.2c-17.4,0.6-30.9,4.8-30.9,9.9c0,5.3,14.6,9.6,33.1,9.9l-0.3,1.6
				C156.7,37,138.5,31.6,138.5,25"/>
		</g>
	</g>
</g>
</svg>
