<?xml version="1.0" encoding="utf-8"?>
<!-- Generator: Adobe Illustrator 20.1.0, SVG Export Plug-In . SVG Version: 6.00 Build 0)  -->
<svg version="1.1" id="Layer_1" xmlns="http://www.w3.org/2000/svg" xmlns:xlink="http://www.w3.org/1999/xlink" x="0px" y="0px"
	 viewBox="0 0 164.8 44.1" style="enable-background:new 0 0 164.8 44.1;" xml:space="preserve">
<style type="text/css">
	.st0{fill:#F1C400;}
</style>
<g>
	<g>
		<g>
			<path class="st0" d="M164.8,22.1c0-11.7-33.7-21.3-76.3-22.1l-0.4,3.2C123.3,4,151,12.5,151,22.8c0,10.6-29,19.2-65.4,19.7
				l0.3,1.6C129.7,43.7,164.8,34,164.8,22.1"/>
			<path class="st0" d="M134.2,24.7c0,7.9-21.8,14.4-49.2,14.8l0.3,1.6c31.9-0.4,57.3-8,57.3-17.3c0-9-24.1-16.4-54.9-17.2l-0.4,3.2
				C113.6,10.7,134.2,17,134.2,24.7"/>
			<path class="st0" d="M125.9,25.7c0-6.4-17-11.7-38.9-12.3l-0.4,3.2c17.4,0.6,30.9,4.8,30.9,9.9c0,5.3-14.6,9.6-33.1,9.9l0.3,1.6
				C107.7,37.8,125.9,32.4,125.9,25.7"/>
			<path class="st0" d="M0,22.1C0,10.4,33.7,0.8,76.4,0l0.4,3.2C41.6,4,13.9,12.5,13.9,22.8c0,10.6,29,19.2,65.4,19.7L79,44.1
				C35.1,43.7,0,34,0,22.1"/>
			<path class="st0" d="M30.6,24.7c0,7.9,21.8,14.4,49.2,14.8l-0.3,1.6c-31.9-0.4-57.3-8-57.3-17.3c0-9,24.1-16.4,54.9-17.2l0.4,3.2
				C51.2,10.7,30.6,17,30.6,24.7"/>
			<path class="st0" d="M38.9,25.7c0-6.4,17-11.7,38.9-12.3l0.4,3.2c-17.4,0.6-30.9,4.8-30.9,9.9c0,5.3,14.6,9.6,33.1,9.9L80.1,38
				C57.1,37.8,38.9,32.4,38.9,25.7"/>
		</g>
	</g>
</g>
</svg>
