<svg id="Layer_1" data-name="Layer 1" xmlns="http://www.w3.org/2000/svg" viewBox="0 0 140 229"><defs><style>.cls-1{fill:#231f20;}</style></defs><title>archerpro</title><path class="cls-1" d="M0,10.16H1.13L4,2.39H2.69V2.33H5.45v.06H4.13L7,10.16H8.07v.06H5.51v-.06h1.4L5.78,7.09H2.33L1.2,10.16H2.6v.06H0ZM5.76,7,4.05,2.39,2.35,7Z"/><path class="cls-1" d="M11.65,5.57c0,.1,0,.16-.13.16a.11.11,0,0,1-.12-.12.16.16,0,0,1,.1-.16.57.57,0,0,0-.34-.08c-.6,0-1.14.46-1.66,1.32v3.48h1v.06H8.44v-.06h1V5.43h-1V5.37H9.5v1.2A2.14,2.14,0,0,1,11.16,5.3C11.47,5.3,11.65,5.42,11.65,5.57Z"/><path class="cls-1" d="M12.34,7.83A2.44,2.44,0,0,1,14.72,5.3a1.67,1.67,0,0,1,1.82,1.33c0,.12,0,.18-.12.18a.14.14,0,0,1-.13-.14.17.17,0,0,1,.17-.17,1.68,1.68,0,0,0-1.74-1.14,2.38,2.38,0,0,0-2.31,2.47,2.31,2.31,0,0,0,2.43,2.4,2.4,2.4,0,0,0,1.62-.54v.07a2.5,2.5,0,0,1-1.62.53A2.37,2.37,0,0,1,12.34,7.83Z"/><path class="cls-1" d="M17.41,1.72V1.66h1.07v5A2.9,2.9,0,0,1,20.6,5.3,1.3,1.3,0,0,1,21.85,6,2.55,2.55,0,0,1,22,7.14v3h1v.06H21v-.06h1v-3A2.58,2.58,0,0,0,21.79,6a1.25,1.25,0,0,0-1.19-.68,2.89,2.89,0,0,0-2.12,1.36v3.44h1v.06H17.41v-.06h1V1.72Z"/><path class="cls-1" d="M23.75,7.67v.1a2.27,2.27,0,0,0,2.35,2.47,2.86,2.86,0,0,0,1.68-.53v.07a2.88,2.88,0,0,1-1.68.52,2.33,2.33,0,0,1-2.42-2.53A2.32,2.32,0,0,1,25.91,5.3,2.11,2.11,0,0,1,28,7.63v0Zm0-.06H28a2,2,0,0,0-2.06-2.24A2.24,2.24,0,0,0,23.75,7.6Z"/><path class="cls-1" d="M32.13,5.57c0,.1,0,.16-.13.16a.11.11,0,0,1-.12-.12.16.16,0,0,1,.1-.16.57.57,0,0,0-.34-.08c-.6,0-1.14.46-1.66,1.32v3.48h1v.06H28.92v-.06h1V5.43h-1V5.37H30v1.2A2.14,2.14,0,0,1,31.64,5.3C32,5.3,32.13,5.42,32.13,5.57Z"/><path class="cls-1" d="M32.82,10.16h1.26V2.39H32.82V2.33h3.09a2.33,2.33,0,0,1,2.61,2.35C38.53,6,37.62,7,35.79,7,35,7,34.48,7,34.15,7v3.17h1.28v.06H32.82Zm5.64-5.48a2.26,2.26,0,0,0-2.54-2.29H34.15V6.93c.32,0,.83,0,1.64,0C37.57,7,38.46,6,38.46,4.68Z"/><path class="cls-1" d="M42.45,5.57c0,.1,0,.16-.13.16a.11.11,0,0,1-.12-.12.16.16,0,0,1,.1-.16A.57.57,0,0,0,42,5.36c-.6,0-1.14.46-1.66,1.32v3.48h1v.06H39.24v-.06h1V5.43h-1V5.37h1.07v1.2A2.14,2.14,0,0,1,42,5.3C42.27,5.3,42.45,5.42,42.45,5.57Z"/><path class="cls-1" d="M43.15,7.8A2.43,2.43,0,0,1,45.56,5.3,2.4,2.4,0,0,1,48,7.8a2.43,2.43,0,0,1-2.41,2.49A2.4,2.4,0,0,1,43.15,7.8Zm4.75,0a2.33,2.33,0,0,0-2.34-2.43A2.36,2.36,0,0,0,43.22,7.8a2.34,2.34,0,0,0,2.34,2.44A2.36,2.36,0,0,0,47.9,7.8Z"/><path class="cls-1" d="M51.66,10.16h1.26V2.39H51.66V2.33h2.61v.06H53V6.13h5.5V2.39H57.21V2.33h2.61v.06H58.57v7.77h1.26v.06H57.21v-.06H58.5v-4H53v4h1.28v.06H51.66Z"/><path class="cls-1" d="M60.49,8.92c0-.8.7-1.43,1.81-1.43A4.61,4.61,0,0,1,64,7.86V6.95a1.6,1.6,0,0,0-.26-1,1.6,1.6,0,0,0-1.32-.54,1.75,1.75,0,0,0-1.54.71.17.17,0,0,1,.13.16.13.13,0,0,1-.13.13c-.08,0-.12-.07-.12-.16,0-.26.62-.9,1.66-.9a1.68,1.68,0,0,1,1.39.58,1.68,1.68,0,0,1,.26,1.06v3.23h1v.06H64v-1a2.6,2.6,0,0,1-2,1.1A1.37,1.37,0,0,1,60.49,8.92ZM64,9.09V7.93a4.52,4.52,0,0,0-1.74-.37c-1.08,0-1.74.61-1.74,1.37a1.31,1.31,0,0,0,1.49,1.31A2.58,2.58,0,0,0,64,9.09Z"/><path class="cls-1" d="M65.7,10.16h1V5.43h-1V5.37h1.07v4.79h1v.06H65.7Zm.83-7a.14.14,0,1,1,.14.14A.14.14,0,0,1,66.53,3.13Z"/><path class="cls-1" d="M71.58,5.57c0,.1,0,.16-.13.16a.11.11,0,0,1-.12-.12.16.16,0,0,1,.1-.16.57.57,0,0,0-.34-.08c-.6,0-1.14.46-1.66,1.32v3.48h1v.06H68.36v-.06h1V5.43h-1V5.37h1.07v1.2A2.14,2.14,0,0,1,71.09,5.3C71.4,5.3,71.58,5.42,71.58,5.57Z"/><path class="cls-1" d="M72.13,10.16h1V1.72h-1V1.66H73.2v8.5h1v.06H72.13Z"/><path class="cls-1" d="M74.84,10.16h1V5.43h-1V5.37h1.07v4.79h1v.06H74.84Zm.83-7a.14.14,0,1,1,.14.14A.14.14,0,0,1,75.67,3.13Z"/><path class="cls-1" d="M78.57,6.62A2.88,2.88,0,0,1,80.7,5.3,1.3,1.3,0,0,1,81.94,6a2.55,2.55,0,0,1,.18,1.13v3h1v.06H81v-.06h1v-3A2.58,2.58,0,0,0,81.88,6a1.25,1.25,0,0,0-1.19-.68,2.89,2.89,0,0,0-2.12,1.36v3.44h1v.06H77.51v-.06h1V5.43h-1V5.37h1.07Z"/><path class="cls-1" d="M83.84,7.67v.1a2.27,2.27,0,0,0,2.35,2.47,2.86,2.86,0,0,0,1.68-.53v.07a2.88,2.88,0,0,1-1.68.52,2.33,2.33,0,0,1-2.42-2.53A2.32,2.32,0,0,1,86,5.3a2.11,2.11,0,0,1,2.13,2.33v0Zm0-.06h4.22A2,2,0,0,0,86,5.36,2.24,2.24,0,0,0,83.84,7.6Z"/><path class="cls-1" d="M-.13,24.56h.7l4.7-7.77H4.1v-.06H6.57v.06H5.42l1.1,7.77h.83v.06h-2v-.06H6.45l-.43-3H2.48l-1.83,3H1.88v.06h-2ZM6,21.47l-.66-4.69L2.52,21.47Z"/><path class="cls-1" d="M9.77,19.83h-1v-.06H9.85l-.48,1.93c.44-1.28,1-2,1.63-2,.25,0,.41.14.41.28a.12.12,0,0,1-.12.13.14.14,0,0,1-.14-.14.21.21,0,0,1,.07-.16.45.45,0,0,0-.22,0c-.7,0-1.4,1.06-1.87,2.93l-.48,1.93H8.58Z"/><path class="cls-1" d="M11.66,22.57a2.76,2.76,0,0,1,2.6-2.87c1,0,1.61.62,1.61,1.19,0,.17-.06.23-.13.23a.12.12,0,0,1-.12-.13.16.16,0,0,1,.18-.16c0-.53-.58-1.07-1.54-1.07a2.71,2.71,0,0,0-2.53,2.81,1.89,1.89,0,0,0,1.93,2.06,2.51,2.51,0,0,0,1.52-.52v.08a2.53,2.53,0,0,1-1.51.49A2,2,0,0,1,11.66,22.57Z"/><path class="cls-1" d="M18.81,15.9h-1v-.06H18.9l-1.44,6.09c.49-1.32,1.44-2.23,2.4-2.23A1,1,0,0,1,21,20.77a4,4,0,0,1-.22,1.1l-.37,1.2a3.07,3.07,0,0,0-.19.94.57.57,0,0,0,.58.62c.37,0,.64-.29.88-1h.06c-.25.7-.52,1-.95,1a.63.63,0,0,1-.64-.68,3,3,0,0,1,.19-.94l.37-1.2a4.11,4.11,0,0,0,.22-1.1.93.93,0,0,0-1.06-1c-1.08,0-2.16,1.25-2.54,2.84l-.48,2h-.07Z"/><path class="cls-1" d="M22.67,22a4,4,0,0,0-.06.66,1.82,1.82,0,0,0,1.86,2A3,3,0,0,0,26,24.21v.07a3,3,0,0,1-1.57.41,1.88,1.88,0,0,1-1.93-2,2.77,2.77,0,0,1,2.55-3,1.48,1.48,0,0,1,1.56,1.66,3.21,3.21,0,0,1-.07.65Zm0-.06h3.84a2.94,2.94,0,0,0,.06-.59,1.42,1.42,0,0,0-1.49-1.6A2.59,2.59,0,0,0,22.68,21.95Z"/><path class="cls-1" d="M29.09,19.83H28v-.06h1.12l-.48,1.93c.44-1.28,1-2,1.63-2,.25,0,.41.14.41.28a.12.12,0,0,1-.12.13.14.14,0,0,1-.14-.14.22.22,0,0,1,.07-.16.44.44,0,0,0-.22,0c-.7,0-1.4,1.06-1.87,2.93L28,24.62H27.9Z"/><path class="cls-1" d="M30.47,24.56h1.2l1.79-7.77H31.9v-.06h2.57a4.71,4.71,0,0,1,1.16.12,1.86,1.86,0,0,1,1.46,1.88c0,1.51-1.19,2.67-3.32,2.67a12.51,12.51,0,0,1-1.28-.08l-.74,3.24H33v.06H30.46ZM37,18.73a1.8,1.8,0,0,0-1.4-1.82,4.65,4.65,0,0,0-1.15-.12h-.94l-1,4.47a12,12,0,0,0,1.27.08C35.85,21.35,37,20.22,37,18.73Z"/><path class="cls-1" d="M38.7,19.83h-1v-.06h1.12l-.48,1.93c.44-1.28,1-2,1.63-2,.25,0,.41.14.41.28a.12.12,0,0,1-.12.13.14.14,0,0,1-.14-.14.21.21,0,0,1,.07-.16.45.45,0,0,0-.22,0c-.7,0-1.4,1.06-1.87,2.93l-.48,1.93h-.07Z"/><path class="cls-1" d="M40.61,22.57a2.73,2.73,0,0,1,2.53-2.87,2,2,0,0,1,2,2.12,2.73,2.73,0,0,1-2.53,2.87A2,2,0,0,1,40.61,22.57Zm4.46-.74a1.89,1.89,0,0,0-1.93-2.06,2.66,2.66,0,0,0-2.46,2.81,1.89,1.89,0,0,0,1.93,2.06A2.66,2.66,0,0,0,45.07,21.83Z"/><path class="cls-1" d="M47.88,24.56h1.2l1.79-7.77H49.56v-.06h2.61v.06H50.94l-.85,3.71h5.1L56,16.79H54.69v-.06h2.61v.06h-1.2l-1.79,7.77h1.31v.06H53.07v-.06h1.16l.92-4h-5.1l-.92,4h1.27v.06H47.87Z"/><path class="cls-1" d="M57,22.81c0-1.55,1-3.11,2.47-3.11a1.7,1.7,0,0,1,1.69,1.87.72.72,0,0,1,0,.17l.49-2h.07l-.91,3.67a2.31,2.31,0,0,0-.07.54c0,.37.19.65.56.65s.62-.3.88-1h.06c-.28.71-.52,1-.95,1a.63.63,0,0,1-.62-.71,2.65,2.65,0,0,1,.07-.54l.11-.43a2.54,2.54,0,0,1-2.21,1.68C57.69,24.69,57,24,57,22.81Zm4.1-1.24a1.66,1.66,0,0,0-1.63-1.81c-1.4,0-2.4,1.52-2.4,3,0,1.18.65,1.82,1.57,1.82C60.14,24.63,61.14,22.93,61.14,21.57Z"/><path class="cls-1" d="M63.48,24a3.47,3.47,0,0,1,.19-.95l1-3.23h-1v-.06h1.12l-1,3.29a3.25,3.25,0,0,0-.19.95.56.56,0,0,0,.58.62c.36,0,.61-.29.85-1H65c-.25.7-.5,1-.92,1A.62.62,0,0,1,63.48,24Zm1.25-5.94a.14.14,0,1,1,.14.14A.14.14,0,0,1,64.73,18.07Z"/><path class="cls-1" d="M67.44,19.83h-1v-.06h1.12L67,21.71c.44-1.28,1-2,1.63-2,.25,0,.41.14.41.28a.12.12,0,0,1-.12.13.14.14,0,0,1-.14-.14.21.21,0,0,1,.07-.16.45.45,0,0,0-.22,0c-.7,0-1.4,1.06-1.87,2.93l-.48,1.93h-.07Z"/><path class="cls-1" d="M69.73,24a2.65,2.65,0,0,1,.07-.54l1.75-7.54h-1v-.06h1.08l-1.76,7.6a2.29,2.29,0,0,0-.07.54.58.58,0,0,0,.58.65c.37,0,.62-.29.86-1h.06c-.25.7-.52,1-.94,1A.64.64,0,0,1,69.73,24Z"/><path class="cls-1" d="M72.6,24a3.47,3.47,0,0,1,.19-.95l1-3.23h-1v-.06h1.12l-1,3.29a3.25,3.25,0,0,0-.19.95.56.56,0,0,0,.58.62c.36,0,.61-.29.85-1h.06c-.25.7-.5,1-.92,1A.62.62,0,0,1,72.6,24Zm1.25-5.94a.14.14,0,1,1,.14.14A.14.14,0,0,1,73.85,18.07Z"/><path class="cls-1" d="M78.69,24a3,3,0,0,1,.19-.94l.37-1.2a4.11,4.11,0,0,0,.22-1.1.93.93,0,0,0-1.06-1c-1.08,0-2.15,1.25-2.54,2.84l-.5,2H75.3l1.2-4.79h-1v-.06h1.12l-.52,2.05c.52-1.25,1.43-2.12,2.36-2.12a1,1,0,0,1,1.12,1.07,4,4,0,0,1-.22,1.1L79,23.07a3.07,3.07,0,0,0-.19.94.57.57,0,0,0,.58.62c.37,0,.64-.29.88-1h.06c-.25.7-.52,1-.95,1A.63.63,0,0,1,78.69,24Z"/><path class="cls-1" d="M81.24,22a4,4,0,0,0-.06.66,1.82,1.82,0,0,0,1.86,2,3,3,0,0,0,1.58-.42v.07a3,3,0,0,1-1.57.41,1.88,1.88,0,0,1-1.93-2,2.77,2.77,0,0,1,2.55-3,1.48,1.48,0,0,1,1.56,1.66,3.21,3.21,0,0,1-.07.65Zm0-.06h3.84a2.94,2.94,0,0,0,.06-.59,1.42,1.42,0,0,0-1.49-1.6A2.59,2.59,0,0,0,81.25,21.95Z"/><path class="cls-1" d="M88,24.56h1.22L91,16.79H89.81v-.06h2.52v.06H91.1l-1.79,7.77h1.22v.06H88Z"/><path class="cls-1" d="M93.3,19.83l-.85,3.43a2.9,2.9,0,0,0-.11.65.63.63,0,0,0,.66.72A1.74,1.74,0,0,0,94.1,24l0,0a1.75,1.75,0,0,1-1.14.6.68.68,0,0,1-.73-.78,2.8,2.8,0,0,1,.11-.65l.85-3.43h-1v-.06h1l.35-1.38h.07l-.35,1.39h1.61v.06Z"/><path class="cls-1" d="M95.16,22.81c0-1.55,1-3.11,2.47-3.11a1.7,1.7,0,0,1,1.69,1.87.72.72,0,0,1,0,.17l.49-2h.07L99,23.44a2.31,2.31,0,0,0-.07.54c0,.37.19.65.56.65s.62-.3.88-1h.06c-.28.71-.52,1-.95,1a.63.63,0,0,1-.62-.71,2.65,2.65,0,0,1,.07-.54L99,23a2.54,2.54,0,0,1-2.21,1.68C95.82,24.69,95.16,24,95.16,22.81Zm4.1-1.24a1.66,1.66,0,0,0-1.63-1.81c-1.4,0-2.4,1.52-2.4,3,0,1.18.65,1.82,1.57,1.82C98.26,24.63,99.26,22.93,99.26,21.57Z"/><path class="cls-1" d="M101.53,24a2.65,2.65,0,0,1,.07-.54l1.75-7.54h-1v-.06h1.08l-1.76,7.6a2.29,2.29,0,0,0-.07.54.58.58,0,0,0,.58.65c.37,0,.62-.29.86-1h.06c-.25.7-.52,1-.94,1A.64.64,0,0,1,101.53,24Z"/><path class="cls-1" d="M104.4,24a3.47,3.47,0,0,1,.19-.95l1-3.23h-1v-.06h1.12l-1,3.29a3.25,3.25,0,0,0-.19.95.56.56,0,0,0,.58.62c.36,0,.61-.29.85-1H106c-.25.7-.5,1-.92,1A.62.62,0,0,1,104.4,24Zm1.25-5.94a.14.14,0,1,1,.14.14A.14.14,0,0,1,105.65,18.07Z"/><path class="cls-1" d="M106.94,22.57a2.76,2.76,0,0,1,2.6-2.87c1,0,1.61.62,1.61,1.19,0,.17-.06.23-.13.23a.12.12,0,0,1-.12-.13.16.16,0,0,1,.18-.16c0-.53-.58-1.07-1.54-1.07A2.71,2.71,0,0,0,107,22.57a1.89,1.89,0,0,0,1.93,2.06,2.51,2.51,0,0,0,1.52-.52v.08a2.53,2.53,0,0,1-1.51.49A2,2,0,0,1,106.94,22.57Z"/><path class="cls-1" d="M.11,38.86h1l2.81-7.58H2.73v-.16H5.51v.16H4.31L7.1,38.86h1V39H5.64v-.16H6.91L5.84,35.94H2.39L1.31,38.86H2.6V39H.11Zm5.67-3.07L4.11,31.26,2.45,35.79Z"/><path class="cls-1" d="M11.79,34.38a.2.2,0,0,1-.2.22.21.21,0,0,1-.2-.22.2.2,0,0,1,.06-.14.37.37,0,0,0-.17,0c-.58,0-1.09.49-1.56,1.27v3.39h1V39H8.6v-.14h.95V34.27H8.6v-.14H9.72v1.15a2.11,2.11,0,0,1,1.58-1.22C11.61,34.05,11.79,34.21,11.79,34.38Z"/><path class="cls-1" d="M12.49,36.62a2.47,2.47,0,0,1,2.41-2.57,1.68,1.68,0,0,1,1.83,1.34c0,.17-.07.28-.22.28a.19.19,0,0,1-.19-.2.25.25,0,0,1,.23-.25,1.62,1.62,0,0,0-1.66-1,2.31,2.31,0,0,0-2.24,2.42A2.25,2.25,0,0,0,15,38.95a2.55,2.55,0,0,0,1.61-.52v.16a2.66,2.66,0,0,1-1.62.5A2.38,2.38,0,0,1,12.49,36.62Z"/><path class="cls-1" d="M17.62,30.52v-.13h1.13v4.88a2.85,2.85,0,0,1,2.06-1.21,1.32,1.32,0,0,1,1.22.66,2.28,2.28,0,0,1,.23,1.13v3h.95V39H21.13v-.14h1v-3a2.23,2.23,0,0,0-.2-1.07,1.19,1.19,0,0,0-1.1-.58,2.79,2.79,0,0,0-2,1.26v3.41h.95V39H17.62v-.14h1V30.52Z"/><path class="cls-1" d="M24.07,36.49v0a2.2,2.2,0,0,0,2.3,2.41,3,3,0,0,0,1.7-.54v.17a3,3,0,0,1-1.7.52,2.53,2.53,0,0,1-.19-5,2.14,2.14,0,0,1,2.16,2.33.34.34,0,0,1,0,.11Zm0-.14h4.09a2,2,0,0,0-2-2.15A2.17,2.17,0,0,0,24.07,36.35Z"/><path class="cls-1" d="M32.45,34.38a.2.2,0,0,1-.2.22.21.21,0,0,1-.2-.22.2.2,0,0,1,.06-.14.37.37,0,0,0-.17,0c-.58,0-1.09.49-1.56,1.27v3.39h1V39H29.26v-.14h.95V34.27h-.95v-.14h1.12v1.15A2.11,2.11,0,0,1,32,34.05C32.27,34.05,32.45,34.21,32.45,34.38Z"/><path class="cls-1" d="M33.2,38.86h1.2V31.28H33.2v-.16h3a2.41,2.41,0,0,1,2.7,2.36c0,1.4-1,2.39-2.76,2.39-.67,0-1.24,0-1.55,0v3h1.24V39H33.2Zm5.51-5.37a2.23,2.23,0,0,0-2.51-2.21H34.58v4.4c.35,0,.88,0,1.55,0C37.85,35.72,38.71,34.8,38.71,33.49Z"/><path class="cls-1" d="M42.89,34.38a.2.2,0,0,1-.2.22.21.21,0,0,1-.2-.22.2.2,0,0,1,.06-.14.37.37,0,0,0-.17,0c-.58,0-1.09.49-1.56,1.27v3.39h1V39H39.7v-.14h.95V34.27H39.7v-.14h1.12v1.15a2.11,2.11,0,0,1,1.58-1.22C42.71,34.05,42.89,34.21,42.89,34.38Z"/><path class="cls-1" d="M43.6,36.57A2.45,2.45,0,0,1,46,34.05a2.42,2.42,0,0,1,2.45,2.52A2.45,2.45,0,0,1,46,39.09,2.42,2.42,0,0,1,43.6,36.57Zm4.71,0A2.27,2.27,0,0,0,46,34.2a2.38,2.38,0,1,0,2.27,2.37Z"/><path class="cls-1" d="M54,38.86h1.28V31.28h-3v1.63h-.17V31.13h6.46v1.79h-.18V31.28h-3v7.58h1.27V39H54Z"/><path class="cls-1" d="M59.35,30.52v-.13h1.13v4.88a2.85,2.85,0,0,1,2.06-1.21,1.32,1.32,0,0,1,1.22.66A2.28,2.28,0,0,1,64,35.84v3h.95V39H62.87v-.14h1v-3a2.23,2.23,0,0,0-.2-1.07,1.19,1.19,0,0,0-1.1-.58,2.79,2.79,0,0,0-2,1.26v3.41h.95V39H59.35v-.14h1V30.52Z"/><path class="cls-1" d="M65.63,38.88h1V34.27h-1v-.14h1.15v4.75h1V39H65.63Zm.77-6.94a.22.22,0,0,1,.22-.23.23.23,0,0,1,0,.46A.22.22,0,0,1,66.4,31.93Z"/><path class="cls-1" d="M69.55,35.28a2.84,2.84,0,0,1,2.07-1.22,1.3,1.3,0,0,1,1.26.71,2.38,2.38,0,0,1,.19,1.08v3H74V39H71.95v-.14h1v-3a2.42,2.42,0,0,0-.17-1,1.18,1.18,0,0,0-1.14-.64,2.83,2.83,0,0,0-2.05,1.26v3.41h1V39H68.44v-.14h.95V34.27h-.95v-.14h1.12Z"/><path class="cls-1" d="M-.13,53.26h.7l4.59-7.58H4l0-.16h2.6l0,.16H5.52l1.09,7.58h.83l0,.16H5.28l0-.16H6.43L6,50.37H2.52L.77,53.26H2l0,.16H-.17Zm6.13-3-.65-4.56L2.6,50.22Z"/><path class="cls-1" d="M9.77,48.67h-1l0-.14H10L9.5,50.39c.49-1.27,1.12-1.93,1.65-1.93a.38.38,0,0,1,.42.32.19.19,0,0,1-.19.2.23.23,0,0,1-.23-.24.18.18,0,0,1,0-.1H11.1c-.64,0-1.43,1.15-1.83,2.79l-.5,2H8.59Z"/><path class="cls-1" d="M11.84,51.38a2.82,2.82,0,0,1,2.63-2.93c1.06,0,1.64.65,1.64,1.22,0,.22-.1.3-.2.3a.17.17,0,0,1-.18-.19.23.23,0,0,1,.22-.23c-.07-.48-.59-1-1.49-1A2.67,2.67,0,0,0,12,51.38a1.81,1.81,0,0,0,1.85,2,2.51,2.51,0,0,0,1.58-.56l0,.18a2.55,2.55,0,0,1-1.57.53A2,2,0,0,1,11.84,51.38Z"/><path class="cls-1" d="M19,44.78H18l0-.14h1.21l-1.34,5.69a2.73,2.73,0,0,1,2.22-1.87,1.07,1.07,0,0,1,1.2,1.13,4.26,4.26,0,0,1-.2,1.09l-.38,1.27a3,3,0,0,0-.18.86.51.51,0,0,0,.53.54c.35,0,.59-.25.83-.91l.13,0c-.26.73-.54,1-1,1a.64.64,0,0,1-.68-.68,3,3,0,0,1,.18-.89l.38-1.27a4.29,4.29,0,0,0,.2-1.07.91.91,0,0,0-1-1c-1.06,0-2.07,1.19-2.45,2.76l-.49,2.06H17Z"/><path class="cls-1" d="M23.14,50.85a3.5,3.5,0,0,0-.06.61,1.76,1.76,0,0,0,1.83,1.88,3,3,0,0,0,1.6-.42l0,.17a3,3,0,0,1-1.57.4,1.92,1.92,0,0,1-2-2,2.85,2.85,0,0,1,2.65-3,1.53,1.53,0,0,1,1.61,1.7,3.36,3.36,0,0,1-.1.7Zm0-.14h3.77a3,3,0,0,0,.06-.56,1.38,1.38,0,0,0-1.45-1.55A2.55,2.55,0,0,0,23.16,50.71Z"/><path class="cls-1" d="M29.54,48.67h-1l0-.14h1.2l-.47,1.86c.49-1.27,1.12-1.93,1.65-1.93a.38.38,0,0,1,.42.32.19.19,0,0,1-.19.2.23.23,0,0,1-.23-.24.18.18,0,0,1,0-.1h-.08c-.64,0-1.43,1.15-1.83,2.79l-.5,2h-.17Z"/><path class="cls-1" d="M31.19,53.26h1.14l1.75-7.58H32.66l0-.16h2.52a4.18,4.18,0,0,1,1.08.12,1.91,1.91,0,0,1,1.5,1.93c0,1.55-1.24,2.67-3.29,2.67a12.55,12.55,0,0,1-1.27-.07l-.72,3.08h1.25l0,.16H31.15Zm6.42-5.67a1.78,1.78,0,0,0-1.35-1.79,4.09,4.09,0,0,0-1.07-.12h-.92l-1,4.35c.34,0,.82.06,1.26.06C36.5,50.1,37.6,49,37.6,47.59Z"/><path class="cls-1" d="M39.38,48.67h-1l0-.14h1.2l-.47,1.86c.49-1.27,1.12-1.93,1.65-1.93a.38.38,0,0,1,.42.32A.19.19,0,0,1,41,49a.23.23,0,0,1-.23-.24.18.18,0,0,1,0-.1h-.08c-.64,0-1.43,1.15-1.83,2.79l-.5,2h-.17Z"/><path class="cls-1" d="M41.47,51.36A2.78,2.78,0,0,1,44,48.45a2,2,0,0,1,2,2.15,2.76,2.76,0,0,1-2.57,2.89A2,2,0,0,1,41.47,51.36Zm4.44-.76a1.83,1.83,0,0,0-1.87-2,2.61,2.61,0,0,0-2.4,2.76,1.83,1.83,0,0,0,1.87,2A2.61,2.61,0,0,0,45.91,50.6Z"/><path class="cls-1" d="M50.63,53.26h1.13l1.74-7.58H50.76l-.36,1.57h-.17l.4-1.73h6l-.4,1.73h-.17l.36-1.57H53.69l-1.75,7.58h1.25l0,.16H50.59Z"/><path class="cls-1" d="M58.41,44.78h-1l0-.14h1.21l-1.34,5.69a2.73,2.73,0,0,1,2.22-1.87,1.07,1.07,0,0,1,1.2,1.13,4.26,4.26,0,0,1-.2,1.09l-.38,1.27a3,3,0,0,0-.18.86.51.51,0,0,0,.53.54c.35,0,.59-.25.83-.91l.13,0c-.26.73-.54,1-1,1a.64.64,0,0,1-.68-.68,3,3,0,0,1,.18-.89l.38-1.27a4.29,4.29,0,0,0,.2-1.07.91.91,0,0,0-1-1c-1.06,0-2.07,1.19-2.45,2.76l-.49,2.06h-.17Z"/><path class="cls-1" d="M62.64,52.8a3.42,3.42,0,0,1,.18-.88l1-3.25H62.71l0-.14H64l-1,3.42a3,3,0,0,0-.18.86.5.5,0,0,0,.53.54c.34,0,.56-.25.82-.91l.13,0c-.28.73-.53,1-1,1A.65.65,0,0,1,62.64,52.8Zm1.23-5.95a.2.2,0,0,1,.41,0,.2.2,0,1,1-.41,0Z"/><path class="cls-1" d="M68.88,52.81a3,3,0,0,1,.18-.89l.4-1.27a3.81,3.81,0,0,0,.2-1.07.9.9,0,0,0-1-1c-1,0-2.06,1.19-2.46,2.75l-.52,2.07h-.17l1.19-4.75h-1l0-.14h1.2l-.47,1.82a2.78,2.78,0,0,1,2.24-1.9,1.05,1.05,0,0,1,1.18,1.12,4.24,4.24,0,0,1-.2,1.1l-.41,1.27a3.33,3.33,0,0,0-.17.86.5.5,0,0,0,.52.54c.35,0,.59-.25.84-.91l.12,0c-.26.73-.53,1-1,1A.63.63,0,0,1,68.88,52.81Z"/><path class="cls-1" d="M73.19,53.26h1.2l1.75-7.58h-1.2l0-.16h2.59l0,.16h-1.2l-1.75,7.58h1.2l0,.16H73.15Z"/><path class="cls-1" d="M78.61,48.67l-.85,3.42a3.19,3.19,0,0,0-.1.61.58.58,0,0,0,.62.65,1.85,1.85,0,0,0,1.1-.56l.08.11a1.94,1.94,0,0,1-1.2.6.72.72,0,0,1-.78-.79,2.52,2.52,0,0,1,.11-.62l.84-3.41h-1l0-.14h1l.34-1.33.18,0-.35,1.37h1.6l0,.14Z"/><path class="cls-1" d="M80.6,51.57c0-1.56,1-3.12,2.51-3.12a1.72,1.72,0,0,1,1.73,1.75l.41-1.68h.17l-.9,3.66a2.64,2.64,0,0,0-.1.6.5.5,0,0,0,.5.56c.36,0,.58-.25.84-.91l.12,0c-.28.73-.53,1-1,1a.64.64,0,0,1-.65-.71,3.18,3.18,0,0,1,.1-.62l0-.13a2.43,2.43,0,0,1-2.1,1.46A1.68,1.68,0,0,1,80.6,51.57Zm4.11-1.2a1.63,1.63,0,0,0-1.61-1.77c-1.37,0-2.34,1.49-2.34,3,0,1.16.62,1.79,1.54,1.79C83.75,53.35,84.72,51.69,84.72,50.37Z"/><path class="cls-1" d="M87,52.78a2.9,2.9,0,0,1,.11-.67l1.69-7.33h-1l0-.14H89l-1.74,7.51a2.63,2.63,0,0,0-.1.64.51.51,0,0,0,.52.56c.35,0,.59-.25.83-.91l.12,0c-.26.73-.53,1-1,1A.66.66,0,0,1,87,52.78Z"/><path class="cls-1" d="M90,52.8a3.42,3.42,0,0,1,.18-.88l1-3.25H90l0-.14h1.22l-1,3.42a3,3,0,0,0-.18.86.5.5,0,0,0,.53.54c.34,0,.56-.25.82-.91l.13,0c-.28.73-.53,1-1,1A.65.65,0,0,1,90,52.8Zm1.24-5.95a.2.2,0,0,1,.41,0,.2.2,0,1,1-.41,0Z"/><path class="cls-1" d="M92.7,51.38a2.82,2.82,0,0,1,2.63-2.93c1.06,0,1.64.65,1.64,1.22,0,.22-.1.3-.2.3a.17.17,0,0,1-.18-.19.23.23,0,0,1,.22-.23c-.07-.48-.59-1-1.49-1a2.67,2.67,0,0,0-2.45,2.78,1.81,1.81,0,0,0,1.85,2,2.51,2.51,0,0,0,1.58-.56l0,.18a2.55,2.55,0,0,1-1.57.53A2,2,0,0,1,92.7,51.38Z"/><path class="cls-1" d="M.19,67.56h.94l2.75-7.36H2.79v-.26H5.59v.26H4.52l2.73,7.36H8.2v.26H5.79v-.26H6.92l-1-2.75H2.47l-1,2.75H2.6v.26H.19Zm5.62-3L4.2,60.16,2.57,64.55Z"/><path class="cls-1" d="M12,63.19a.28.28,0,0,1-.3.29.31.31,0,0,1-.3-.35v0c-.53,0-1,.55-1.38,1.21v3.29h1v.24H8.82v-.24h.9V63.12h-.9v-.24H10V64a2.06,2.06,0,0,1,1.5-1.16C11.81,62.81,12,63,12,63.19Z"/><path class="cls-1" d="M12.7,65.41a2.49,2.49,0,0,1,2.42-2.6c1.08,0,1.86.7,1.86,1.35a.35.35,0,0,1-.34.4.26.26,0,0,1-.26-.28.36.36,0,0,1,.29-.36A1.54,1.54,0,0,0,15.13,63,2.22,2.22,0,0,0,13,65.41a2.17,2.17,0,0,0,2.28,2.24,2.77,2.77,0,0,0,1.61-.5v.28a2.91,2.91,0,0,1-1.61.47A2.4,2.4,0,0,1,12.7,65.41Z"/><path class="cls-1" d="M17.87,59.33v-.24h1.19v4.8a2.74,2.74,0,0,1,2-1.08,1.34,1.34,0,0,1,1.21.58,2,2,0,0,1,.28,1.14v3.06h.9v.24H21.36v-.24h.89v-3a1.87,1.87,0,0,0-.24-1,1.15,1.15,0,0,0-1-.44,2.75,2.75,0,0,0-2,1.14v3.38h.89v.24H17.87v-.24h.9V59.33Z"/><path class="cls-1" d="M24.49,65.31a2.11,2.11,0,0,0,2.22,2.34,3,3,0,0,0,1.74-.58l0,.29a3,3,0,0,1-1.74.53,2.55,2.55,0,0,1-.18-5.08,2.17,2.17,0,0,1,2.19,2.31.82.82,0,0,1,0,.19Zm0-.24h3.92a1.9,1.9,0,0,0-1.92-2A2.08,2.08,0,0,0,24.49,65.07Z"/><path class="cls-1" d="M32.85,63.19a.28.28,0,0,1-.3.29.31.31,0,0,1-.3-.35v0c-.53,0-1,.55-1.38,1.21v3.29h1v.24H29.69v-.24h.9V63.12h-.9v-.24h1.18V64a2.06,2.06,0,0,1,1.5-1.16C32.67,62.81,32.85,63,32.85,63.19Z"/><path class="cls-1" d="M33.68,67.56h1.14V60.19H33.68v-.26h2.87a2.5,2.5,0,0,1,2.78,2.37c0,1.48-1.06,2.41-2.77,2.41l-1.43,0v2.87H36.3v.26H33.68ZM39,62.31a2.2,2.2,0,0,0-2.46-2.12H35.14v4.23l1.43,0C38.18,64.45,39,63.59,39,62.31Z"/><path class="cls-1" d="M43.43,63.19a.28.28,0,0,1-.3.29.31.31,0,0,1-.3-.35v0c-.53,0-1,.55-1.38,1.21v3.29h1v.24H40.26v-.24h.9V63.12h-.9v-.24h1.18V64a2.06,2.06,0,0,1,1.5-1.16C43.25,62.81,43.43,63,43.43,63.19Z"/><path class="cls-1" d="M44.15,65.35a2.47,2.47,0,0,1,2.48-2.54,2.44,2.44,0,0,1,2.48,2.54,2.47,2.47,0,0,1-2.48,2.54A2.44,2.44,0,0,1,44.15,65.35Zm4.67,0a2.19,2.19,0,1,0-2.18,2.3A2.19,2.19,0,0,0,48.81,65.35Z"/><path class="cls-1" d="M52.79,67.56h1.14V60.19H52.79v-.26h5.44v1.73h-.3V60.19H54.24v3.45h2.9v.28h-2.9v3.63h3.69V66.09h.3v1.73H52.79Z"/><path class="cls-1" d="M59.27,67.58H60l1.72-2.29-1.61-2.17h-.72v-.24h1.85v.24h-.8l1.45,2,1.46-2h-.82v-.24h1.83v.24h-.72L62,65.27l1.7,2.31h.7v.24H62.53v-.24h.89l-1.55-2.15-1.58,2.15h.89v.24H59.27Z"/><path class="cls-1" d="M65.82,67.35a1.61,1.61,0,0,1-.11-.62V63.12H64.8v-.24h.91V61.51l.29-.08v1.45h1.63v.24H66V66.7a1.29,1.29,0,0,0,.08.52.64.64,0,0,0,.66.42,1.61,1.61,0,0,0,.89-.3l0,.29a1.5,1.5,0,0,1-.85.26A.89.89,0,0,1,65.82,67.35Z"/><path class="cls-1" d="M71.64,63.19a.28.28,0,0,1-.3.29.31.31,0,0,1-.3-.35v0c-.53,0-1,.55-1.38,1.21v3.29h1v.24H68.47v-.24h.9V63.12h-.9v-.24h1.18V64a2.06,2.06,0,0,1,1.5-1.16C71.46,62.81,71.64,63,71.64,63.19Z"/><path class="cls-1" d="M72.38,66.49c0-.88.74-1.48,1.82-1.48a4.76,4.76,0,0,1,1.64.29v-1a1.26,1.26,0,0,0-.26-.84,1.47,1.47,0,0,0-1.2-.47,1.6,1.6,0,0,0-1.27.48.39.39,0,0,1,.14.32.28.28,0,0,1-.28.28.29.29,0,0,1-.29-.32c0-.4.59-1,1.7-1a1.78,1.78,0,0,1,1.42.53,1.47,1.47,0,0,1,.32,1v3.26H77v.24H75.86V67a2.54,2.54,0,0,1-1.82.89C72.95,67.89,72.38,67.24,72.38,66.49Zm3.47.25V65.52a5.28,5.28,0,0,0-1.63-.26c-1.06,0-1.55.6-1.55,1.22A1.19,1.19,0,0,0,74,67.65,2.48,2.48,0,0,0,75.85,66.74Z"/><path class="cls-1" d="M80.51,67.56h1.14V60.19H80.51v-.26h2.61v.26H82v7.36h3.39V66h.3v1.79H80.51Z"/><path class="cls-1" d="M86.66,67.58h1V63.12h-1v-.24h1.26v4.7h1v.24H86.66Zm.71-6.85a.32.32,0,0,1,.31-.32.32.32,0,0,1,0,.65A.32.32,0,0,1,87.37,60.73Z"/><path class="cls-1" d="M94.36,68.19a1.94,1.94,0,0,1-.42,1.34,2.19,2.19,0,0,1-1.77.68,2.22,2.22,0,0,1-1.68-.59.65.65,0,0,1-.18-.42.32.32,0,0,1,.31-.35.3.3,0,0,1,.3.3.33.33,0,0,1-.22.3,1.86,1.86,0,0,0,1.48.52,1.88,1.88,0,0,0,1.55-.61,1.73,1.73,0,0,0,.35-1.16V66.9a2.54,2.54,0,0,1-1.93.94,2.37,2.37,0,0,1-2.36-2.51,2.42,2.42,0,0,1,2.42-2.52,2.85,2.85,0,0,1,1.88.79v-.72h1.18v.24h-.9Zm-4.29-2.87a2.1,2.1,0,0,0,2.09,2.28,2.46,2.46,0,0,0,1.92-1V63.89A2.68,2.68,0,0,0,92.21,63,2.15,2.15,0,0,0,90.07,65.33Z"/><path class="cls-1" d="M96,59.33v-.24h1.19v4.8a2.74,2.74,0,0,1,2-1.08,1.34,1.34,0,0,1,1.21.58,2,2,0,0,1,.28,1.14v3.06h.9v.24H99.44v-.24h.89v-3a1.87,1.87,0,0,0-.24-1,1.15,1.15,0,0,0-1-.44,2.75,2.75,0,0,0-2,1.14v3.38H98v.24H96v-.24h.9V59.33Z"/><path class="cls-1" d="M103.05,67.35a1.61,1.61,0,0,1-.11-.62V63.12H102v-.24h.91V61.51l.29-.08v1.45h1.63v.24h-1.63V66.7a1.29,1.29,0,0,0,.08.52.64.64,0,0,0,.66.42,1.61,1.61,0,0,0,.89-.3l0,.29a1.5,1.5,0,0,1-.85.26A.89.89,0,0,1,103.05,67.35Z"/><path class="cls-1" d="M-.13,82h.7L5,74.59H3.92L4,74.33H6.75l0,.26H5.65L6.7,82h.83l0,.26H5.22L5.28,82H6.4L6,79.22H2.56L.91,82H2.12l-.06.26H-.19ZM6,79l-.62-4.4L2.71,79Z"/><path class="cls-1" d="M9.79,77.52h-1l0-.24h1.3l-.41,1.64c.54-1.16,1.19-1.71,1.64-1.71a.41.41,0,0,1,.43.38.27.27,0,0,1-.29.28.33.33,0,0,1-.32-.34c-.56.07-1.43,1.31-1.75,2.61l-.52,2.07H8.63Z"/><path class="cls-1" d="M12.08,80.19a2.87,2.87,0,0,1,2.65-3c1.09,0,1.7.66,1.7,1.26,0,.26-.13.4-.29.4a.25.25,0,0,1-.26-.26.36.36,0,0,1,.26-.34c-.11-.42-.6-.82-1.43-.82a2.61,2.61,0,0,0-2.35,2.75,1.72,1.72,0,0,0,1.75,1.86,2.56,2.56,0,0,0,1.64-.62l0,.3a2.66,2.66,0,0,1-1.64.56A2,2,0,0,1,12.08,80.19Z"/><path class="cls-1" d="M19.32,73.68h-1l0-.24h1.32l-1.25,5.29a2.46,2.46,0,0,1,2-1.52,1.17,1.17,0,0,1,1.31,1.19,3.87,3.87,0,0,1-.19,1.07l-.41,1.38a3.11,3.11,0,0,0-.16.76.43.43,0,0,0,.46.46c.31,0,.53-.2.78-.85l.2.06c-.28.77-.55,1-1,1a.66.66,0,0,1-.73-.7,2.82,2.82,0,0,1,.17-.8l.4-1.38a3.74,3.74,0,0,0,.18-1,.9.9,0,0,0-1-1c-1,0-2,1.12-2.33,2.65l-.5,2.12h-.29Z"/><path class="cls-1" d="M23.74,79.7a2.92,2.92,0,0,0,0,.56,1.68,1.68,0,0,0,1.8,1.79,3.13,3.13,0,0,0,1.62-.43l-.07.29a3.08,3.08,0,0,1-1.57.38,2,2,0,0,1-2.08-2.05,2.92,2.92,0,0,1,2.75-3A1.58,1.58,0,0,1,27.8,79a3,3,0,0,1-.12.73Zm0-.24h3.67a3,3,0,0,0,.06-.53,1.33,1.33,0,0,0-1.4-1.49A2.52,2.52,0,0,0,23.78,79.46Z"/><path class="cls-1" d="M30.14,77.52h-1l0-.24h1.3l-.41,1.64c.54-1.16,1.19-1.71,1.64-1.71a.41.41,0,0,1,.43.38.27.27,0,0,1-.29.28.33.33,0,0,1-.32-.34c-.56.07-1.43,1.31-1.75,2.61l-.52,2.07H29Z"/><path class="cls-1" d="M32.1,82h1.08l1.69-7.36H33.64l0-.26h2.47a3.53,3.53,0,0,1,1,.12,2,2,0,0,1,1.55,2c0,1.58-1.28,2.67-3.25,2.67-.37,0-1,0-1.26,0L33.49,82H34.7l-.06.26H32Zm6.26-5.49a1.74,1.74,0,0,0-1.3-1.74,3.37,3.37,0,0,0-1-.13h-.92l-1,4.21c.3,0,.85,0,1.22,0C37.32,78.84,38.36,77.79,38.36,76.46Z"/><path class="cls-1" d="M40.27,77.52h-1l0-.24h1.3l-.41,1.64c.54-1.16,1.19-1.71,1.64-1.71a.41.41,0,0,1,.43.38.27.27,0,0,1-.29.28.33.33,0,0,1-.32-.34c-.56.07-1.43,1.31-1.75,2.61l-.52,2.07h-.29Z"/><path class="cls-1" d="M42.58,80.13a2.81,2.81,0,0,1,2.63-2.93,2,2,0,0,1,2.09,2.16,2.81,2.81,0,0,1-2.63,2.93A2,2,0,0,1,42.58,80.13ZM47,79.37a1.76,1.76,0,0,0-1.81-1.92,2.56,2.56,0,0,0-2.33,2.69,1.77,1.77,0,0,0,1.81,1.92A2.56,2.56,0,0,0,47,79.37Z"/><path class="cls-1" d="M50.24,82h1.08L53,74.59H51.83l.06-.26H57.3L56.9,76h-.3l.32-1.42h-3.6L52.55,78h2.82l-.06.28H52.47L51.64,82h3.6l.32-1.42h.3l-.38,1.68H50.18Z"/><path class="cls-1" d="M56.89,81.91a.27.27,0,0,1,.26-.29c.23,0,.35.19.37.42.32,0,.66-.38,1.21-1.15l.83-1.19-.85-2.18h-.94l0-.24h1.09l.82,2.19c.06-.1.56-.89.62-1,.61-.92,1-1.31,1.48-1.31.29,0,.5.17.5.38a.27.27,0,0,1-.26.29.39.39,0,0,1-.37-.41c-.3,0-.61.41-1.15,1.18,0,.08-.64.95-.68,1l.54,1.4c.31.84.46,1,.68,1s.43-.19.61-.85l.2.06c-.2.78-.44,1-.83,1s-.59-.19-.91-1.06l-.48-1.31c-.06.11-.7,1-.76,1.1-.62.88-1.09,1.26-1.56,1.26A.43.43,0,0,1,56.89,81.91Z"/><path class="cls-1" d="M64.22,77.52l-.85,3.41a2.48,2.48,0,0,0-.08.56.51.51,0,0,0,.56.55A2.09,2.09,0,0,0,65,81.5l.12.18a2.13,2.13,0,0,1-1.26.61.76.76,0,0,1-.84-.8,2.83,2.83,0,0,1,.1-.6l.84-3.37H63l0-.24H64L64.32,76l.3-.07-.34,1.35h1.57l0,.24Z"/><path class="cls-1" d="M67.69,77.52h-1l0-.24H68l-.41,1.64c.54-1.16,1.19-1.71,1.64-1.71a.41.41,0,0,1,.43.38.27.27,0,0,1-.29.28.33.33,0,0,1-.32-.34c-.56.07-1.43,1.31-1.75,2.61l-.52,2.07h-.29Z"/><path class="cls-1" d="M70,80.34c0-1.6,1.06-3.13,2.57-3.13a1.7,1.7,0,0,1,1.73,1.52l.36-1.45h.29L74,80.9a3.5,3.5,0,0,0-.12.7.42.42,0,0,0,.44.46c.31,0,.52-.2.78-.85l.2.06c-.29.77-.55,1-1,1a.65.65,0,0,1-.68-.7,2.13,2.13,0,0,1,.08-.56,2.34,2.34,0,0,1-2,1.26A1.74,1.74,0,0,1,70,80.34Zm4.14-1.16a1.59,1.59,0,0,0-1.57-1.73c-1.33,0-2.28,1.44-2.28,2.87,0,1.13.61,1.74,1.5,1.74C73.19,82.05,74.13,80.46,74.13,79.17Z"/><path class="cls-1" d="M78.22,82h1.08L81,74.59H79.8l.06-.26h2.61l-.06.26H81.3L79.61,82h3.29l.34-1.49h.3l-.4,1.75h-5Z"/><path class="cls-1" d="M84.82,81.58a3.12,3.12,0,0,1,.16-.79l.95-3.27H84.84l0-.24h1.38l-1,3.56a3,3,0,0,0-.14.77.42.42,0,0,0,.46.44c.31,0,.52-.2.78-.85l.2.06c-.29.77-.55,1-1,1A.67.67,0,0,1,84.82,81.58Zm1.21-6a.28.28,0,0,1,.28-.29.29.29,0,0,1,.29.29.3.3,0,0,1-.29.3A.29.29,0,0,1,86,75.62Z"/><path class="cls-1" d="M87.66,84.09a.58.58,0,0,1-.19-.43c0-.22.12-.35.29-.35a.33.33,0,0,1,.14.61,1.64,1.64,0,0,0,1.25.46,1.92,1.92,0,0,0,1.52-.58,3.11,3.11,0,0,0,.67-1.52c0-.1.19-.8.3-1.31a2.38,2.38,0,0,1-2,1.26,1.86,1.86,0,0,1-1.87-2.05,2.81,2.81,0,0,1,2.55-3,1.78,1.78,0,0,1,1.83,1.52c.11-.49.31-1.31.34-1.42h.29l-1.16,5A3.37,3.37,0,0,1,90.86,84a2.21,2.21,0,0,1-1.76.61A2.07,2.07,0,0,1,87.66,84.09ZM92,79.16a1.63,1.63,0,0,0-1.67-1.72,2.59,2.59,0,0,0-2.27,2.72A1.61,1.61,0,0,0,89.67,82C91.05,82,92,80.37,92,79.16Z"/><path class="cls-1" d="M95.7,73.68h-1l0-.24H96L94.8,78.73a2.46,2.46,0,0,1,2-1.52,1.17,1.17,0,0,1,1.31,1.19A3.87,3.87,0,0,1,98,79.46l-.41,1.38a3.11,3.11,0,0,0-.16.76.43.43,0,0,0,.46.46c.31,0,.53-.2.78-.85l.2.06c-.28.77-.55,1-1,1a.66.66,0,0,1-.73-.7,2.82,2.82,0,0,1,.17-.8l.4-1.38a3.74,3.74,0,0,0,.18-1,.9.9,0,0,0-1-1c-1,0-2,1.12-2.33,2.65L94,82.22h-.29Z"/><path class="cls-1" d="M101.15,77.52l-.85,3.41a2.48,2.48,0,0,0-.08.56.51.51,0,0,0,.56.55,2.09,2.09,0,0,0,1.13-.54l.12.18a2.13,2.13,0,0,1-1.26.61.76.76,0,0,1-.84-.8,2.83,2.83,0,0,1,.1-.6l.84-3.37h-.94l0-.24h.95l.32-1.28.3-.07-.34,1.35h1.57l0,.24Z"/><path class="cls-1" d="M105.16,82h1.18L108,74.59h-1.18l.06-.26h2.66l0,.26h-1.19L106.64,82h1.18l-.06.26H105.1Z"/><path class="cls-1" d="M110.76,77.52l-.85,3.41a2.48,2.48,0,0,0-.08.56.51.51,0,0,0,.56.55,2.09,2.09,0,0,0,1.13-.54l.12.18a2.13,2.13,0,0,1-1.26.61.76.76,0,0,1-.84-.8,2.83,2.83,0,0,1,.1-.6l.84-3.37h-.94l0-.24h.95l.32-1.28.3-.07-.34,1.35h1.57l0,.24Z"/><path class="cls-1" d="M112.89,80.34c0-1.6,1.06-3.13,2.57-3.13a1.7,1.7,0,0,1,1.73,1.52l.36-1.45h.29l-.9,3.62a3.5,3.5,0,0,0-.12.7.42.42,0,0,0,.44.46c.31,0,.52-.2.78-.85l.2.06c-.29.77-.55,1-1,1a.65.65,0,0,1-.68-.7,2.13,2.13,0,0,1,.08-.56,2.34,2.34,0,0,1-2,1.26A1.74,1.74,0,0,1,112.89,80.34ZM117,79.17a1.59,1.59,0,0,0-1.57-1.73c-1.33,0-2.28,1.44-2.28,2.87,0,1.13.61,1.74,1.5,1.74C116.08,82.05,117,80.46,117,79.17Z"/><path class="cls-1" d="M119.45,81.57a3.86,3.86,0,0,1,.14-.82l1.63-7.08h-1l0-.24h1.29l-1.7,7.38a3.26,3.26,0,0,0-.13.76.43.43,0,0,0,.44.48c.31,0,.53-.2.78-.85l.19.06c-.26.77-.55,1-1,1A.68.68,0,0,1,119.45,81.57Z"/><path class="cls-1" d="M122.45,81.58a3.12,3.12,0,0,1,.16-.79l.95-3.27h-1.08l0-.24h1.38l-1,3.56a3,3,0,0,0-.14.77.42.42,0,0,0,.46.44c.31,0,.52-.2.78-.85l.2.06c-.29.77-.55,1-1,1A.67.67,0,0,1,122.45,81.58Zm1.21-6a.28.28,0,0,1,.28-.29.29.29,0,0,1,.29.29.3.3,0,0,1-.29.3A.29.29,0,0,1,123.66,75.62Z"/><path class="cls-1" d="M125.39,80.19a2.87,2.87,0,0,1,2.65-3c1.09,0,1.7.66,1.7,1.26,0,.26-.13.4-.29.4a.25.25,0,0,1-.26-.26.36.36,0,0,1,.26-.34c-.11-.42-.6-.82-1.43-.82a2.61,2.61,0,0,0-2.35,2.75,1.72,1.72,0,0,0,1.75,1.86,2.56,2.56,0,0,0,1.64-.62l0,.3a2.66,2.66,0,0,1-1.64.56A2,2,0,0,1,125.39,80.19Z"/><path class="cls-1" d="M.23,96.2h.86l2.64-7.05h-1v-.42h3v.42h-1L7.38,96.2h.88v.42H5.82V96.2h1l-.92-2.51H2.53L1.61,96.2H2.66v.42H.23Zm5.54-2.93L4.23,89.11,2.69,93.27Z"/><path class="cls-1" d="M12.32,92a.38.38,0,0,1-.4.4.43.43,0,0,1-.42-.4,2.14,2.14,0,0,0-1.25,1.16v3h1v.4H8.94v-.4h.88V92H8.94v-.4h1.3v1.12a2.12,2.12,0,0,1,1.5-1.2C12.12,91.55,12.32,91.77,12.32,92Z"/><path class="cls-1" d="M12.95,94.17a2.54,2.54,0,0,1,2.46-2.63c1.06,0,1.91.7,1.91,1.39a.46.46,0,0,1-.44.49.34.34,0,0,1-.35-.36.41.41,0,0,1,.29-.38,1.46,1.46,0,0,0-1.4-.74,2.11,2.11,0,0,0-2,2.24,2.06,2.06,0,0,0,2.18,2.12,2.86,2.86,0,0,0,1.62-.53l0,.44a3,3,0,0,1-1.63.48A2.47,2.47,0,0,1,12.95,94.17Z"/><path class="cls-1" d="M18.22,88.26v-.4h1.31v4.76a2.69,2.69,0,0,1,2-1.08,1.44,1.44,0,0,1,1.26.56,1.92,1.92,0,0,1,.3,1.15v3h.88v.4H21.74v-.4h.86v-2.9a1.62,1.62,0,0,0-.24-1,1.14,1.14,0,0,0-.95-.4A2.63,2.63,0,0,0,19.52,93v3.18h.88v.4H18.22v-.4h.86v-8Z"/><path class="cls-1" d="M25.15,94.17a2,2,0,0,0,2.15,2.13A3,3,0,0,0,29,95.73l0,.46a3.17,3.17,0,0,1-1.75.52,2.58,2.58,0,0,1-.19-5.16,2.2,2.2,0,0,1,2.22,2.34.92.92,0,0,1,0,.29Zm0-.38h3.66A1.75,1.75,0,0,0,27,91.94,1.91,1.91,0,0,0,25.16,93.79Z"/><path class="cls-1" d="M33.68,92a.38.38,0,0,1-.4.4.43.43,0,0,1-.42-.4,2.14,2.14,0,0,0-1.25,1.16v3h1v.4H30.3v-.4h.88V92H30.3v-.4h1.3v1.12a2.12,2.12,0,0,1,1.5-1.2C33.48,91.55,33.68,91.77,33.68,92Z"/><path class="cls-1" d="M34.46,96.2h1.09V89.15H34.46v-.42h2.91a2.54,2.54,0,0,1,2.83,2.41c0,1.5-1.09,2.45-2.81,2.45l-1.36,0V96.2h1.14v.42H34.46Zm5.25-5a2.07,2.07,0,0,0-2.31-2H36v4l1.37,0C38.89,93.17,39.72,92.37,39.72,91.15Z"/><path class="cls-1" d="M44.57,92a.38.38,0,0,1-.4.4.43.43,0,0,1-.42-.4,2.14,2.14,0,0,0-1.25,1.16v3h1v.4h-2.3v-.4h.88V92h-.88v-.4h1.3v1.12a2.12,2.12,0,0,1,1.5-1.2C44.36,91.55,44.57,91.77,44.57,92Z"/><path class="cls-1" d="M45.2,94.13a2.52,2.52,0,1,1,2.52,2.58A2.49,2.49,0,0,1,45.2,94.13Zm4.57,0a2.05,2.05,0,1,0-2.05,2.18A2,2,0,0,0,49.77,94.13Z"/><path class="cls-1" d="M54.06,96.2h1.09V89.15H54.06v-.42h2.72v.42H55.64V96.2h3.2V94.81h.47v1.81H54.06Z"/><path class="cls-1" d="M60.44,96.22h.94V92h-.94v-.4h1.38v4.59h.94v.4H60.44Zm.62-6.72a.43.43,0,1,1,.43.44A.44.44,0,0,1,61.07,89.51Z"/><path class="cls-1" d="M68.41,96.93A2.06,2.06,0,0,1,68,98.32a2.35,2.35,0,0,1-1.86.7,2.22,2.22,0,0,1-1.63-.55.7.7,0,0,1-.22-.48.43.43,0,0,1,.43-.46.35.35,0,0,1,.35.37.46.46,0,0,1-.18.35,2.31,2.31,0,0,0,2.77-.19A1.64,1.64,0,0,0,68,97V95.76a2.49,2.49,0,0,1-1.87.88,2.41,2.41,0,0,1-2.4-2.52,2.49,2.49,0,0,1,2.49-2.57,2.62,2.62,0,0,1,1.79.74v-.66h1.3V92h-.86ZM64.15,94.1a2,2,0,0,0,2,2.15A2.41,2.41,0,0,0,68,95.31V92.69a2.56,2.56,0,0,0-1.79-.74A2,2,0,0,0,64.15,94.1Z"/><path class="cls-1" d="M70,88.26v-.4h1.31v4.76a2.69,2.69,0,0,1,2-1.08,1.44,1.44,0,0,1,1.26.56,1.91,1.91,0,0,1,.3,1.15v3h.88v.4H73.55v-.4h.86v-2.9a1.62,1.62,0,0,0-.24-1,1.13,1.13,0,0,0-.95-.4A2.63,2.63,0,0,0,71.33,93v3.18h.88v.4H70v-.4h.86v-8Z"/><path class="cls-1" d="M77.3,96.15a1.45,1.45,0,0,1-.12-.62V92h-.91v-.4h.91V90.3l.44-.16v1.49h1.61V92H77.63v3.45a1.09,1.09,0,0,0,.08.47.62.62,0,0,0,.64.34,1.79,1.79,0,0,0,.91-.3l-.07.44a1.73,1.73,0,0,1-.94.28A1,1,0,0,1,77.3,96.15Z"/><path class="cls-1" d="M-.13,110.6H.58l4.25-7.05h-1l.11-.42h3l-.1.42h-1l1,7.05h.84l-.1.42H5.22l.1-.42h1L6,108.1H2.59L1.1,110.6H2.23l-.11.42H-.24Zm6.06-2.93-.58-4.16-2.49,4.16Z"/><path class="cls-1" d="M9.84,106.43h-1L9,106h1.42l-.37,1.5c.6-1,1.21-1.57,1.67-1.57a.46.46,0,0,1,.52.44.43.43,0,0,1-.85,0,3.87,3.87,0,0,0-1.64,2.43L9.14,111H8.7Zm1.72,0h0Z"/><path class="cls-1" d="M12.46,109a3,3,0,0,1,2.73-3c1.18,0,1.75.72,1.75,1.27a.46.46,0,0,1-.42.5.32.32,0,0,1-.34-.35.42.42,0,0,1,.26-.37,1.26,1.26,0,0,0-1.27-.66A2.54,2.54,0,0,0,12.9,109a1.62,1.62,0,0,0,1.7,1.73,2.53,2.53,0,0,0,1.66-.67l0,.48a2.77,2.77,0,0,1-1.69.59A2,2,0,0,1,12.46,109Z"/><path class="cls-1" d="M19.69,102.64h-1l.08-.4h1.45L19,107.31a2.33,2.33,0,0,1,1.9-1.35,1.27,1.27,0,0,1,1.39,1.24,3.45,3.45,0,0,1-.16.94l-.44,1.57a2.75,2.75,0,0,0-.12.62.4.4,0,0,0,.42.42c.29,0,.49-.22.73-.82L23,110c-.26.74-.56,1.08-1.07,1.08a.74.74,0,0,1-.82-.77,2.94,2.94,0,0,1,.12-.68l.44-1.58a3,3,0,0,0,.13-.84.86.86,0,0,0-1-.88c-.9,0-1.85.95-2.18,2.42L18.19,111h-.46Z"/><path class="cls-1" d="M24.42,108.58a2.78,2.78,0,0,0,0,.44,1.63,1.63,0,0,0,1.75,1.68,3.14,3.14,0,0,0,1.64-.44l-.11.46a3.11,3.11,0,0,1-1.6.38A2,2,0,0,1,23.93,109a3,3,0,0,1,2.78-3.08,1.64,1.64,0,0,1,1.75,1.77,2.74,2.74,0,0,1-.17.86Zm.08-.38h3.44a2.21,2.21,0,0,0,.08-.55,1.24,1.24,0,0,0-1.36-1.31A2.39,2.39,0,0,0,24.5,108.2Z"/><path class="cls-1" d="M30.71,106.43h-1l.1-.4h1.42l-.37,1.5c.6-1,1.21-1.57,1.67-1.57a.46.46,0,0,1,.52.44.43.43,0,0,1-.85,0,3.87,3.87,0,0,0-1.64,2.43L30,111h-.44Zm1.72,0h0Z"/><path class="cls-1" d="M33.12,110.6h1l1.63-7.05H34.6l.1-.42H37.2a3.47,3.47,0,0,1,1,.12,2,2,0,0,1,1.58,2c0,1.56-1.22,2.75-3.24,2.75-.41,0-1,0-1.25,0l-.62,2.65h1.16l-.1.42H33Zm6.14-5.31A1.6,1.6,0,0,0,38,103.67a3.41,3.41,0,0,0-.9-.12h-.85l-.91,4,1.21,0C38.36,107.55,39.26,106.49,39.26,105.29Z"/><path class="cls-1" d="M41.29,106.43h-1l.1-.4h1.42l-.37,1.5c.6-1,1.21-1.57,1.67-1.57a.46.46,0,0,1,.52.44.43.43,0,0,1-.85,0,3.87,3.87,0,0,0-1.64,2.43L40.6,111h-.44Zm1.72,0h0Z"/><path class="cls-1" d="M43.91,108.94a2.91,2.91,0,0,1,2.73-3,2,2,0,0,1,2.1,2.16,2.9,2.9,0,0,1-2.73,3A2,2,0,0,1,43.91,108.94Zm4.38-.84a1.63,1.63,0,0,0-1.67-1.76,2.48,2.48,0,0,0-2.25,2.6A1.63,1.63,0,0,0,46,110.71,2.47,2.47,0,0,0,48.29,108.1Z"/><path class="cls-1" d="M51.86,110.6h1l1.63-7.05H53.36l.11-.42h2.72l-.1.42H55l-1.63,7.05h3.12l.31-1.38h.48l-.42,1.8H51.76Z"/><path class="cls-1" d="M58.57,110.31a2.84,2.84,0,0,1,.12-.67l.92-3.21h-1l.08-.4h1.51l-1,3.67a2.62,2.62,0,0,0-.12.62.4.4,0,0,0,.42.42c.29,0,.49-.22.73-.82l.29.08c-.26.74-.58,1.08-1.07,1.08A.75.75,0,0,1,58.57,110.31Zm1.15-5.92a.4.4,0,1,1,.4.41A.41.41,0,0,1,59.72,104.39Z"/><path class="cls-1" d="M61.5,112.88a.63.63,0,0,1-.22-.47.4.4,0,1,1,.65.28,2.13,2.13,0,0,0,2.57-.18,2.92,2.92,0,0,0,.66-1.44l.29-1.2A2.28,2.28,0,0,1,63.53,111,1.89,1.89,0,0,1,61.62,109a2.86,2.86,0,0,1,2.63-3A1.68,1.68,0,0,1,66,107.39c.11-.49.3-1.31.32-1.37h.44l-1.19,5.11a3.28,3.28,0,0,1-.78,1.67,2.29,2.29,0,0,1-1.75.62A2.38,2.38,0,0,1,61.5,112.88Zm4.32-4.93a1.49,1.49,0,0,0-1.56-1.61,2.44,2.44,0,0,0-2.17,2.6,1.51,1.51,0,0,0,1.51,1.69C64.93,110.64,65.82,109.15,65.82,107.95Z"/><path class="cls-1" d="M69.61,102.64h-1l.08-.4h1.45L69,107.31a2.33,2.33,0,0,1,1.9-1.35,1.27,1.27,0,0,1,1.39,1.24,3.45,3.45,0,0,1-.16.94l-.44,1.57a2.75,2.75,0,0,0-.12.62.4.4,0,0,0,.42.42c.29,0,.49-.22.73-.82L73,110c-.26.74-.56,1.08-1.07,1.08a.74.74,0,0,1-.82-.77,2.94,2.94,0,0,1,.12-.68l.44-1.58a3,3,0,0,0,.13-.84.86.86,0,0,0-1-.88c-.9,0-1.85.95-2.18,2.42L68.11,111h-.46Z"/><path class="cls-1" d="M75.42,106.43l-.82,3.31a2,2,0,0,0-.07.5.45.45,0,0,0,.49.47,2.21,2.21,0,0,0,1.12-.53l.18.28a2.36,2.36,0,0,1-1.37.65.8.8,0,0,1-.89-.82,2.67,2.67,0,0,1,.08-.58l.82-3.29h-.9l.1-.4h.9l.32-1.26.48-.13L75.51,106h1.57l-.1.4Z"/><path class="cls-1" d="M79.57,110.6h1.14l1.62-7.05H81.18l.11-.42h2.78l-.1.42H82.82L81.2,110.6h1.15l-.11.42H79.46Z"/><path class="cls-1" d="M85.5,106.43l-.82,3.31a2,2,0,0,0-.07.5.45.45,0,0,0,.49.47,2.21,2.21,0,0,0,1.12-.53l.18.28a2.36,2.36,0,0,1-1.37.65.8.8,0,0,1-.89-.82,2.67,2.67,0,0,1,.08-.58l.82-3.29h-.9l.1-.4h.9l.32-1.26.48-.13L85.59,106h1.57l-.1.4Z"/><path class="cls-1" d="M87.63,109.09a3,3,0,0,1,2.63-3.14A1.63,1.63,0,0,1,92,107.36l.34-1.35h.44l-.91,3.72a3.37,3.37,0,0,0-.11.6.39.39,0,0,0,.41.42c.29,0,.49-.22.74-.82l.28.08c-.26.74-.56,1.08-1.07,1.08a.73.73,0,0,1-.78-.74,1.35,1.35,0,0,1,0-.38,2.34,2.34,0,0,1-1.91,1.14A1.8,1.8,0,0,1,87.63,109.09ZM91.76,108a1.47,1.47,0,0,0-1.49-1.62c-1.27,0-2.17,1.35-2.17,2.72,0,1,.54,1.64,1.42,1.64C90.87,110.71,91.76,109.17,91.76,108Z"/><path class="cls-1" d="M94.28,110.31a3.45,3.45,0,0,1,.11-.67l1.63-7h-1l.08-.4h1.43l-1.73,7.44a3.4,3.4,0,0,0-.11.64.4.4,0,0,0,.41.43c.29,0,.5-.22.74-.82l.28.08c-.25.74-.58,1.08-1.07,1.08A.76.76,0,0,1,94.28,110.31Z"/><path class="cls-1" d="M97.44,110.31a2.84,2.84,0,0,1,.12-.67l.92-3.21h-1l.08-.4H99l-1,3.67a2.62,2.62,0,0,0-.12.62.4.4,0,0,0,.42.42c.29,0,.49-.22.73-.82l.29.08c-.26.74-.58,1.08-1.07,1.08A.75.75,0,0,1,97.44,110.31Zm1.15-5.92a.4.4,0,1,1,.4.41A.41.41,0,0,1,98.59,104.39Z"/><path class="cls-1" d="M100.46,109a3,3,0,0,1,2.73-3c1.18,0,1.75.72,1.75,1.27a.46.46,0,0,1-.42.5.32.32,0,0,1-.34-.35.42.42,0,0,1,.26-.37,1.26,1.26,0,0,0-1.27-.66,2.54,2.54,0,0,0-2.28,2.64,1.62,1.62,0,0,0,1.7,1.73,2.53,2.53,0,0,0,1.66-.67l0,.48a2.77,2.77,0,0,1-1.69.59A2,2,0,0,1,100.46,109Z"/><path class="cls-1" d="M.26,124.82h.79l2.53-6.69H2.67v-.6H5.89v.6H5l2.53,6.69H8.3v.6H5.84v-.6h.92l-.83-2.23H2.59l-.83,2.23h1v.6H.26ZM5.72,122l-1.45-3.93L2.81,122Z"/><path class="cls-1" d="M12.69,120.86a.51.51,0,0,1-.49.52.58.58,0,0,1-.54-.41,2.2,2.2,0,0,0-1.13,1.12v2.78h1v.55H9.08v-.55h.84v-3.93H9.08v-.55h1.43v1.14a2.11,2.11,0,0,1,1.5-1.24A.61.61,0,0,1,12.69,120.86Z"/><path class="cls-1" d="M13.24,122.94a2.6,2.6,0,0,1,2.49-2.65c1,0,2,.68,2,1.43a.58.58,0,0,1-.56.6.42.42,0,0,1-.43-.46.45.45,0,0,1,.29-.41,1.35,1.35,0,0,0-1.25-.61,2,2,0,0,0-1.85,2.11,1.94,1.94,0,0,0,2.06,2,2.83,2.83,0,0,0,1.63-.56l-.06.62a3,3,0,0,1-1.66.5A2.56,2.56,0,0,1,13.24,122.94Z"/><path class="cls-1" d="M18.61,117.19v-.55h1.45v4.71A2.63,2.63,0,0,1,22,120.29a1.56,1.56,0,0,1,1.31.54,1.92,1.92,0,0,1,.34,1.18v2.87h.84v.55H22.19v-.55H23v-2.78a1.31,1.31,0,0,0-.25-.88,1.08,1.08,0,0,0-.89-.35,2.46,2.46,0,0,0-1.82,1v3h.84v.55H18.61v-.55h.84v-7.68Z"/><path class="cls-1" d="M25.9,123A1.88,1.88,0,0,0,28,125a3.16,3.16,0,0,0,1.74-.56l-.06.62a3.3,3.3,0,0,1-1.76.5,2.62,2.62,0,0,1-.2-5.23,2.22,2.22,0,0,1,2.24,2.36,1.69,1.69,0,0,1,0,.4Zm0-.54H29.3a1.6,1.6,0,0,0-1.68-1.67A1.75,1.75,0,0,0,25.91,122.51Z"/><path class="cls-1" d="M34.61,120.86a.51.51,0,0,1-.49.52.58.58,0,0,1-.54-.41,2.2,2.2,0,0,0-1.13,1.12v2.78h1v.55H31v-.55h.84v-3.93H31v-.55h1.43v1.14a2.11,2.11,0,0,1,1.5-1.24A.61.61,0,0,1,34.61,120.86Z"/><path class="cls-1" d="M35.34,124.82H36.4v-6.69H35.34v-.6h3c1.64,0,2.89,1,2.89,2.45s-1.13,2.49-2.84,2.49l-1.27,0v2.38h1.12v.6H35.34ZM40.51,120a1.92,1.92,0,0,0-2.16-1.86H37.08v3.72l1.3,0A1.88,1.88,0,0,0,40.51,120Z"/><path class="cls-1" d="M45.84,120.86a.51.51,0,0,1-.49.52.58.58,0,0,1-.54-.41,2.2,2.2,0,0,0-1.13,1.12v2.78h1v.55H42.23v-.55h.84v-3.93h-.84v-.55h1.43v1.14a2.11,2.11,0,0,1,1.5-1.24A.61.61,0,0,1,45.84,120.86Z"/><path class="cls-1" d="M46.4,122.9A2.56,2.56,0,1,1,49,125.52,2.51,2.51,0,0,1,46.4,122.9Zm4.46,0A1.91,1.91,0,1,0,49,125,1.91,1.91,0,0,0,50.87,122.9Z"/><path class="cls-1" d="M55.48,124.82h1.06v-6.69H55.48v-.6h3.17c1.85,0,2.55,1,2.55,2a1.93,1.93,0,0,1-1.49,1.88c1.08.28,1.71.88,1.71,1.91,0,1.21-1,2.13-2.64,2.13H55.48Zm3-3.72c1.39,0,2.05-.64,2.05-1.56s-.66-1.42-1.91-1.42h-1.4v3Zm.34,3.72c1.27,0,1.94-.68,1.94-1.55,0-1.06-.86-1.6-2.28-1.6H57.21v3.14Z"/><path class="cls-1" d="M62.74,122.9a2.56,2.56,0,1,1,2.55,2.61A2.51,2.51,0,0,1,62.74,122.9Zm4.46,0A1.91,1.91,0,1,0,65.29,125,1.91,1.91,0,0,0,67.2,122.9Z"/><path class="cls-1" d="M69,122.9a2.56,2.56,0,1,1,2.55,2.61A2.51,2.51,0,0,1,69,122.9Zm4.46,0A1.91,1.91,0,1,0,71.55,125,1.91,1.91,0,0,0,73.46,122.9Z"/><path class="cls-1" d="M75.08,124.87h.84v-7.68h-.84v-.55h1.45V123l2.4-2.09H77.82v-.53h2.79v.55h-.88l-1.79,1.54,1.69,2.4h1v.55H79.31l-1.8-2.63-1,.83v1.25h.9v.55H75.08Z"/><path class="cls-1" d="M-.14,139.22H.59l4-6.69H3.66l.14-.6H7.06l-.14.6H6l.91,6.69h.85l-.14.6H5.21l.14-.6h.88L5.94,137H2.64l-1.32,2.23h1l-.14.6H-.29Zm6-2.83-.52-3.92L3,136.39Z"/><path class="cls-1" d="M9.89,135.33h-1l.14-.55h1.55l-.34,1.37c.67-.92,1.24-1.46,1.7-1.46s.61.23.61.53a.58.58,0,0,1-.56.59.52.52,0,0,1-.53-.41,3.8,3.8,0,0,0-1.57,2.22l-.55,2.21H8.76Z"/><path class="cls-1" d="M12.84,137.78a3.07,3.07,0,0,1,2.83-3.09c1.27,0,1.8.77,1.8,1.27a.59.59,0,0,1-.56.62.4.4,0,0,1-.41-.44.47.47,0,0,1,.28-.4,1.19,1.19,0,0,0-1.12-.49,2.44,2.44,0,0,0-2.18,2.52,1.51,1.51,0,0,0,1.63,1.58,2.48,2.48,0,0,0,1.67-.72l0,.66a2.78,2.78,0,0,1-1.74.62A2,2,0,0,1,12.84,137.78Z"/><path class="cls-1" d="M20.09,131.59h-1l.13-.55h1.58l-1.15,4.86a2.2,2.2,0,0,1,1.76-1.21A1.37,1.37,0,0,1,22.92,136a3.1,3.1,0,0,1-.12.79l-.48,1.77a2.21,2.21,0,0,0-.07.48.37.37,0,0,0,.37.4c.26,0,.47-.24.68-.79l.37.12c-.23.71-.58,1.13-1.13,1.13a.86.86,0,0,1-.92-.85,2.46,2.46,0,0,1,.08-.54l.48-1.8a2.45,2.45,0,0,0,.1-.68.85.85,0,0,0-.91-.79c-.74,0-1.7.79-2,2.19l-.55,2.4h-.62Z"/><path class="cls-1" d="M25.13,137.47a2.87,2.87,0,0,0,0,.32,1.58,1.58,0,0,0,1.7,1.57,3.14,3.14,0,0,0,1.66-.47l-.14.65a3.26,3.26,0,0,1-1.62.37,2.09,2.09,0,0,1-2.22-2.11,3,3,0,0,1,2.82-3.12,1.69,1.69,0,0,1,1.83,1.79,2.89,2.89,0,0,1-.2,1Zm.12-.53h3.21a1.87,1.87,0,0,0,.1-.58c0-.56-.38-1.12-1.3-1.12A2.27,2.27,0,0,0,25.25,136.94Z"/><path class="cls-1" d="M31.31,135.33h-1l.14-.55H32l-.34,1.37c.67-.92,1.24-1.46,1.7-1.46s.61.23.61.53a.58.58,0,0,1-.56.59.52.52,0,0,1-.53-.41,3.8,3.8,0,0,0-1.57,2.22l-.55,2.21h-.62Z"/><path class="cls-1" d="M34.21,139.22h1l1.55-6.69H35.64l.14-.6h2.54a3.85,3.85,0,0,1,1,.11,2,2,0,0,1,1.63,2c0,1.51-1.16,2.82-3.23,2.82l-1.24,0-.56,2.37H37l-.14.6H34.07Zm6-5.11a1.43,1.43,0,0,0-1.18-1.49,3.41,3.41,0,0,0-.83-.1h-.79l-.85,3.72,1.21,0A2.19,2.19,0,0,0,40.23,134.11Z"/><path class="cls-1" d="M42.38,135.33h-1l.14-.55h1.55l-.34,1.37c.67-.92,1.24-1.46,1.7-1.46s.61.23.61.53a.58.58,0,0,1-.56.59.52.52,0,0,1-.53-.41,3.8,3.8,0,0,0-1.57,2.22l-.55,2.21h-.62Z"/><path class="cls-1" d="M45.34,137.76a3,3,0,0,1,2.85-3.07,2,2,0,0,1,2.11,2.16,3,3,0,0,1-2.85,3.07A2,2,0,0,1,45.34,137.76Zm4.33-.92a1.48,1.48,0,0,0-1.51-1.58A2.39,2.39,0,0,0,46,137.77a1.48,1.48,0,0,0,1.51,1.58A2.39,2.39,0,0,0,49.67,136.83Z"/><path class="cls-1" d="M53.59,139.22h1l1.55-6.69H55l.14-.6H58a3,3,0,0,1,1.48.35,1.66,1.66,0,0,1,.85,1.48,2.16,2.16,0,0,1-2,2.05,1.84,1.84,0,0,1,1.48,1.73,2,2,0,0,1-.67,1.51,2.92,2.92,0,0,1-1.33.67,4.35,4.35,0,0,1-1,.11H53.45Zm3.31,0a3.1,3.1,0,0,0,.84-.11,2,2,0,0,0,1-.54,1.44,1.44,0,0,0,.42-1c0-.78-.71-1.5-2.19-1.5H56l-.74,3.19Zm.34-3.77c1.43,0,2.45-.61,2.45-1.68a1.1,1.1,0,0,0-.62-1,2.58,2.58,0,0,0-1.15-.23H56.82l-.67,2.93Z"/><path class="cls-1" d="M61.13,137.76A3,3,0,0,1,64,134.69a2,2,0,0,1,2.11,2.16,3,3,0,0,1-2.85,3.07A2,2,0,0,1,61.13,137.76Zm4.33-.92a1.48,1.48,0,0,0-1.51-1.58,2.39,2.39,0,0,0-2.18,2.52,1.48,1.48,0,0,0,1.51,1.58A2.39,2.39,0,0,0,65.46,136.83Z"/><path class="cls-1" d="M67.15,137.76A3,3,0,0,1,70,134.69a2,2,0,0,1,2.11,2.16,3,3,0,0,1-2.85,3.07A2,2,0,0,1,67.15,137.76Zm4.33-.92A1.48,1.48,0,0,0,70,135.25a2.39,2.39,0,0,0-2.18,2.52,1.48,1.48,0,0,0,1.51,1.58A2.39,2.39,0,0,0,71.48,136.83Z"/><path class="cls-1" d="M73.07,139.82,75,131.59H74l.13-.55h1.58l-1.48,6.3a7.26,7.26,0,0,0,2.64-1.64.55.55,0,0,1-.28-.44.54.54,0,0,1,.55-.56.53.53,0,0,1,.53.58c0,.7-1.1,1.45-2.19,2l.55,1.39a2.2,2.2,0,0,0,.31.62.36.36,0,0,0,.31.13c.2,0,.41-.19.58-.92l.4.13c-.22,1-.59,1.27-1,1.27a.92.92,0,0,1-.66-.24,1.92,1.92,0,0,1-.43-.7L75,137.5l-.8.37-.46,1.94Z"/><path class="cls-1" d="M80.83,139.22h1.12l1.54-6.69H82.37l.14-.6h2.91l-.14.6H84.17l-1.54,6.69h1.12l-.14.6H80.69Z"/><path class="cls-1" d="M87.12,135.33l-.79,3.23a1.86,1.86,0,0,0-.06.43.39.39,0,0,0,.42.37,2.31,2.31,0,0,0,1.09-.5l.26.37a2.63,2.63,0,0,1-1.49.68.86.86,0,0,1-.95-.84,2.5,2.5,0,0,1,.08-.53l.8-3.21h-.89l.14-.55h.88l.31-1.24.67-.19-.36,1.43h1.56l-.14.55Z"/><path class="cls-1" d="M89.24,137.83a3,3,0,0,1,2.7-3.14A1.55,1.55,0,0,1,93.6,136l.3-1.27h.62l-.94,3.84a2.53,2.53,0,0,0-.08.48.37.37,0,0,0,.37.4c.26,0,.47-.24.7-.79l.37.12c-.24.71-.6,1.13-1.15,1.13a.81.81,0,0,1-.89-.8v-.2a2.32,2.32,0,0,1-1.8,1A1.86,1.86,0,0,1,89.24,137.83Zm4.11-1.07A1.34,1.34,0,0,0,92,135.25a2.37,2.37,0,0,0-2.05,2.57c0,.94.46,1.54,1.32,1.54C92.54,139.35,93.36,137.89,93.36,136.76Z"/><path class="cls-1" d="M96,139a3.11,3.11,0,0,1,.08-.5l1.62-6.94h-.95l.13-.55h1.57l-1.75,7.5a3.92,3.92,0,0,0-.08.5.37.37,0,0,0,.37.4c.26,0,.47-.24.7-.79l.37.12c-.24.71-.6,1.13-1.15,1.13A.85.85,0,0,1,96,139Z"/><path class="cls-1" d="M99.3,139a2.43,2.43,0,0,1,.1-.54l.89-3.17h-1l.14-.55h1.64L100,138.56a2.25,2.25,0,0,0-.08.48.37.37,0,0,0,.37.4c.26,0,.47-.24.7-.79l.37.12c-.24.71-.6,1.13-1.15,1.13A.85.85,0,0,1,99.3,139Zm1.1-5.89a.51.51,0,1,1,.52.53A.52.52,0,0,1,100.4,133.15Z"/><path class="cls-1" d="M102.42,137.78a3.07,3.07,0,0,1,2.83-3.09c1.27,0,1.8.77,1.8,1.27a.59.59,0,0,1-.56.62.4.4,0,0,1-.41-.44.47.47,0,0,1,.28-.4,1.19,1.19,0,0,0-1.12-.49,2.44,2.44,0,0,0-2.18,2.52,1.51,1.51,0,0,0,1.63,1.58,2.48,2.48,0,0,0,1.67-.72l0,.66a2.78,2.78,0,0,1-1.74.62A2,2,0,0,1,102.42,137.78Z"/><path class="cls-1" d="M.24,153.43H1l2.36-6.32h-.9v-.78h3.6v.78h-.9l2.36,6.32h.76v.79H5.64v-.78h.92l-.71-1.94H2.63l-.71,1.94h1v.78H.24Zm5.35-2.69-1.34-3.68-1.36,3.68Z"/><path class="cls-1" d="M12.92,149.69a.6.6,0,0,1-.58.61.65.65,0,0,1-.61-.43,2.12,2.12,0,0,0-1.1,1.08v2.55h1v.72H9v-.72H9.8v-3.66H9v-.73h1.61v1.16A2.16,2.16,0,0,1,12.15,149,.69.69,0,0,1,12.92,149.69Z"/><path class="cls-1" d="M13.42,151.68A2.63,2.63,0,0,1,16,149c1.16,0,2.09.77,2.09,1.54a.66.66,0,0,1-.65.7.54.54,0,0,1-.55-.56.5.5,0,0,1,.25-.42,1.28,1.28,0,0,0-1.15-.54,1.94,1.94,0,0,0,.26,3.86,3.06,3.06,0,0,0,1.7-.56l-.07.8a3.18,3.18,0,0,1-1.73.49A2.61,2.61,0,0,1,13.42,151.68Z"/><path class="cls-1" d="M19,146.16v-.72H20.6V150a2.64,2.64,0,0,1,1.89-1,1.54,1.54,0,0,1,1.3.55,1.92,1.92,0,0,1,.34,1.18v2.76H25v.72H22.5v-.72h.8v-2.59a1.17,1.17,0,0,0-.23-.8,1,1,0,0,0-.79-.32,2.38,2.38,0,0,0-1.68.9v2.82h.8v.72H19v-.72h.82v-7.34Z"/><path class="cls-1" d="M26.51,151.9a1.77,1.77,0,0,0,2,1.68,3.39,3.39,0,0,0,1.8-.56l-.07.8a3.56,3.56,0,0,1-1.83.49,2.55,2.55,0,0,1-2.72-2.64A2.51,2.51,0,0,1,28.15,149a2.27,2.27,0,0,1,2.34,2.41,1.84,1.84,0,0,1,0,.48Zm0-.66h3.13a1.47,1.47,0,0,0-1.55-1.52A1.6,1.6,0,0,0,26.52,151.25Z"/><path class="cls-1" d="M35.4,149.69a.6.6,0,0,1-.58.61.65.65,0,0,1-.61-.43,2.12,2.12,0,0,0-1.1,1.08v2.55h1v.72h-2.6v-.72h.82v-3.66h-.82v-.73h1.61v1.16A2.16,2.16,0,0,1,34.63,149,.69.69,0,0,1,35.4,149.69Z"/><path class="cls-1" d="M36.1,153.43h1v-6.31h-1v-.79h3c1.65,0,2.91,1,2.91,2.48s-1.18,2.57-2.93,2.57l-1.12,0v2.07h1.07v.79h-3Zm5-4.61a1.77,1.77,0,0,0-2-1.7H38v3.45c.24,0,.66,0,1.16,0A1.75,1.75,0,0,0,41.15,148.82Z"/><path class="cls-1" d="M46.93,149.69a.6.6,0,0,1-.58.61.65.65,0,0,1-.61-.43,2.12,2.12,0,0,0-1.1,1.08v2.55h1v.72H43v-.72h.82v-3.66H43v-.73H44.6v1.16A2.16,2.16,0,0,1,46.16,149,.69.69,0,0,1,46.93,149.69Z"/><path class="cls-1" d="M47.45,151.67a2.63,2.63,0,1,1,2.63,2.65A2.57,2.57,0,0,1,47.45,151.67Zm4.39,0a1.77,1.77,0,1,0-1.76,1.93A1.77,1.77,0,0,0,51.84,151.67Z"/><path class="cls-1" d="M56.46,153.43h1l.29-6.31H56.72v-.79h1.92l2.58,5.36,2.59-5.36h1.91v.79H64.66l.29,6.31h1v.79h-2.9v-.79h1l-.2-5.52-2.54,5.19h-.24l-2.54-5.19-.19,5.52h1v.79H56.46Z"/><path class="cls-1" d="M67.68,151.9a1.77,1.77,0,0,0,2,1.68,3.39,3.39,0,0,0,1.8-.56l-.07.8a3.56,3.56,0,0,1-1.83.49,2.55,2.55,0,0,1-2.72-2.64A2.51,2.51,0,0,1,69.32,149a2.27,2.27,0,0,1,2.34,2.41,1.84,1.84,0,0,1,0,.48Zm0-.66h3.13a1.47,1.47,0,0,0-1.55-1.52A1.6,1.6,0,0,0,67.69,151.25Z"/><path class="cls-1" d="M72.67,151.7A2.55,2.55,0,0,1,75.2,149a2.29,2.29,0,0,1,1.58.61v-3.47h-1v-.72h1.79v8.06h.83v.72H76.81v-.72a2.2,2.2,0,0,1-1.72.82A2.44,2.44,0,0,1,72.67,151.7Zm4.11,1.13v-2.51a2.29,2.29,0,0,0-1.54-.59,1.78,1.78,0,0,0-1.72,2,1.72,1.72,0,0,0,1.68,1.91A2.14,2.14,0,0,0,76.79,152.83Z"/><path class="cls-1" d="M79.26,153.5h.86v-3.66h-.86v-.73H81v4.39h.86v.72H79.26Zm.5-6.36a.69.69,0,0,1,.67-.67.67.67,0,0,1,0,1.33A.67.67,0,0,1,79.76,147.14Z"/><path class="cls-1" d="M83.43,153.63a2.13,2.13,0,0,1-.24-1v-2.75h-.82v-.73H84v3.32a1.38,1.38,0,0,0,.14.68.84.84,0,0,0,.84.43,2.48,2.48,0,0,0,1.68-.9v-2.81h-.84v-.73h1.67v4.39h.82v.72H86.71v-.95a2.67,2.67,0,0,1-1.91,1A1.46,1.46,0,0,1,83.43,153.63Z"/><path class="cls-1" d="M89.19,153.5H90v-3.66h-.82v-.73H90.8v.95a2.53,2.53,0,0,1,1.86-1,1.35,1.35,0,0,1,1.27.61,1.42,1.42,0,0,1,.16.4A2.84,2.84,0,0,1,96,149a1.39,1.39,0,0,1,1.39.74,2.48,2.48,0,0,1,.18,1v2.76h.82v.72H95.92v-.72h.79v-2.6a1.89,1.89,0,0,0-.1-.65.76.76,0,0,0-.8-.47,2.34,2.34,0,0,0-1.62.88v2.84H95v.72H92.55v-.72h.82v-2.6a1.89,1.89,0,0,0-.1-.65.77.77,0,0,0-.82-.47,2.35,2.35,0,0,0-1.62.9v2.82h.79v.72H89.19Z"/><path class="cls-1" d="M-.11,167.83H.61l3.77-6.32H3.44l.18-.78H7.24l-.18.78h-.9L7,167.83h.84l-.19.79H5.07l.18-.78h.88l-.24-1.94H2.67l-1.15,1.94h1l-.19.78H-.3Zm5.89-2.7-.47-3.68-2.18,3.68Z"/><path class="cls-1" d="M9.85,164.24h-1l.18-.73h1.7l-.34,1.42c.66-1,1.24-1.5,1.75-1.5a.64.64,0,0,1,.7.64.66.66,0,0,1-.65.66.61.61,0,0,1-.61-.48,3.44,3.44,0,0,0-1.46,2.11l-.58,2.27H8.75Z"/><path class="cls-1" d="M13.06,166.51A3.08,3.08,0,0,1,16,163.41c1.2,0,1.85.73,1.85,1.37a.67.67,0,0,1-.64.72.51.51,0,0,1-.52-.54.56.56,0,0,1,.24-.43,1.13,1.13,0,0,0-1-.38,2.23,2.23,0,0,0-2.05,2.31A1.44,1.44,0,0,0,15.46,168a2.66,2.66,0,0,0,1.7-.67l0,.82a3,3,0,0,1-1.77.59A2.15,2.15,0,0,1,13.06,166.51Z"/><path class="cls-1" d="M20.35,160.56h-1l.18-.72h1.79l-1.1,4.73a2.2,2.2,0,0,1,1.7-1.14,1.38,1.38,0,0,1,1.45,1.39,2.81,2.81,0,0,1-.13.8l-.44,1.66a1.86,1.86,0,0,0-.07.44.34.34,0,0,0,.35.38c.24,0,.44-.2.67-.8l.42.14c-.25.83-.66,1.26-1.26,1.26a.93.93,0,0,1-1-.95,2.58,2.58,0,0,1,.08-.56l.46-1.68a2.26,2.26,0,0,0,.08-.6.79.79,0,0,0-.85-.77c-.7,0-1.48.65-1.76,1.87l-.6,2.6h-.84Z"/><path class="cls-1" d="M25.78,166.32a1.74,1.74,0,0,0,0,.25A1.48,1.48,0,0,0,27.39,168a3.32,3.32,0,0,0,1.69-.47l-.18.82a3.44,3.44,0,0,1-1.68.37,2.14,2.14,0,0,1-2.29-2.16,3,3,0,0,1,2.83-3.14,1.79,1.79,0,0,1,2,1.87,3.1,3.1,0,0,1-.19,1Zm.13-.65h2.94a1.43,1.43,0,0,0,.08-.5c0-.55-.37-1-1.2-1A2.06,2.06,0,0,0,25.91,165.67Z"/><path class="cls-1" d="M31.8,164.24h-1l.18-.73h1.7l-.34,1.42c.66-1,1.24-1.5,1.75-1.5a.64.64,0,0,1,.7.64.66.66,0,0,1-.65.66.61.61,0,0,1-.61-.48,3.44,3.44,0,0,0-1.46,2.11l-.58,2.27H30.7Z"/><path class="cls-1" d="M35,167.83h.95l1.46-6.31H36.32l.18-.79h2.59a3.61,3.61,0,0,1,1,.12,2.05,2.05,0,0,1,1.68,2.08c0,1.54-1.2,2.85-3.29,2.85l-1.18,0-.49,2.07h1.09l-.18.79H34.79ZM40.87,163a1.35,1.35,0,0,0-1.1-1.38,3.07,3.07,0,0,0-.77-.08h-.72L37.49,165c.28,0,.68,0,1.12,0A2,2,0,0,0,40.87,163Z"/><path class="cls-1" d="M43.14,164.24h-1l.18-.73h1.7l-.34,1.42c.66-1,1.24-1.5,1.75-1.5a.64.64,0,0,1,.7.64.66.66,0,0,1-.65.66.61.61,0,0,1-.61-.48,3.44,3.44,0,0,0-1.46,2.11l-.58,2.27H42Z"/><path class="cls-1" d="M46.34,166.48a3,3,0,0,1,2.89-3.07,2.14,2.14,0,0,1,2.22,2.23,3,3,0,0,1-2.89,3.07A2.13,2.13,0,0,1,46.34,166.48Zm4.26-.84a1.38,1.38,0,0,0-1.4-1.5,2.2,2.2,0,0,0-2,2.35A1.38,1.38,0,0,0,48.6,168,2.19,2.19,0,0,0,50.6,165.65Z"/><path class="cls-1" d="M54.65,167.83h.95l1.75-6.31H56.25l.18-.79h1.87l1.32,5.4,3.75-5.4h1.9l-.18.79h-1l-1.18,6.31H64l-.19.79h-2.9l.18-.79h.95l1.08-5.52-3.72,5.28h-.16l-1.34-5.28-1.45,5.52h1.07l-.18.79h-2.9Z"/><path class="cls-1" d="M66.16,166.32a1.74,1.74,0,0,0,0,.25A1.48,1.48,0,0,0,67.77,168a3.32,3.32,0,0,0,1.69-.47l-.18.82a3.44,3.44,0,0,1-1.68.37,2.14,2.14,0,0,1-2.29-2.16,3,3,0,0,1,2.83-3.14,1.79,1.79,0,0,1,2,1.87,3.1,3.1,0,0,1-.19,1Zm.13-.65h2.94a1.43,1.43,0,0,0,.08-.5c0-.55-.37-1-1.2-1A2.06,2.06,0,0,0,66.29,165.67Z"/><path class="cls-1" d="M73.74,163.41a1.63,1.63,0,0,1,1.62,1.24l1-4.09h-1l.18-.72h1.8l-1.73,7.39a2.2,2.2,0,0,0-.1.5c0,.24.12.37.34.37s.46-.2.7-.8l.42.14c-.28.86-.74,1.26-1.29,1.26a.89.89,0,0,1-.94-1,.32.32,0,0,1,0-.11,2.31,2.31,0,0,1-1.82,1.08,1.87,1.87,0,0,1-1.83-2.08A3,3,0,0,1,73.74,163.41Zm1.42,2.15a1.26,1.26,0,0,0-1.32-1.4c-1.1,0-1.88,1.18-1.88,2.41,0,.84.44,1.42,1.24,1.42A2.29,2.29,0,0,0,75.15,165.56Z"/><path class="cls-1" d="M78.07,167.74a2.55,2.55,0,0,1,.1-.55l.8-3H78l.19-.73H80l-1,3.72a2.56,2.56,0,0,0-.08.5.33.33,0,0,0,.35.37c.25,0,.47-.2.7-.8l.42.14c-.28.86-.71,1.26-1.3,1.26A.92.92,0,0,1,78.07,167.74Zm1.06-5.83a.61.61,0,1,1,.61.61A.61.61,0,0,1,79.13,161.92Z"/><path class="cls-1" d="M83.45,163.51l-.83,3.2a2,2,0,0,0-.07.55.71.71,0,0,0,.78.73c.71,0,1.48-.67,1.77-1.87l.65-2.61h.84l-.92,3.72a2.09,2.09,0,0,0-.1.5.33.33,0,0,0,.35.37c.23,0,.44-.2.68-.8l.42.14c-.28.86-.73,1.26-1.3,1.26a.89.89,0,0,1-.94-1,2,2,0,0,1,0-.24A2.22,2.22,0,0,1,83,168.7a1.27,1.27,0,0,1-1.35-1.3,3.2,3.2,0,0,1,.11-.77l.62-2.4h-1l.19-.73Z"/><path class="cls-1" d="M89,164.24H88l.18-.73h1.7l-.3,1.21a2.3,2.3,0,0,1,1.75-1.3,1.25,1.25,0,0,1,1.32,1.28,2.28,2.28,0,0,1,1.77-1.28,1.31,1.31,0,0,1,1.33,1.39,2.81,2.81,0,0,1-.13.8l-.48,1.66a2.56,2.56,0,0,0-.07.44.34.34,0,0,0,.35.38c.23,0,.44-.2.68-.8l.42.14c-.26.83-.68,1.26-1.28,1.26a.92.92,0,0,1-1-.95,2.07,2.07,0,0,1,.1-.58l.47-1.64a2.55,2.55,0,0,0,.1-.62.71.71,0,0,0-.74-.77c-.66,0-1.39.66-1.71,1.91l-.66,2.57H91l.79-3.07a2.82,2.82,0,0,0,.1-.65.72.72,0,0,0-.76-.76c-.65,0-1.43.66-1.73,1.9l-.65,2.58h-.84Z"/><path class="cls-1" d="M99.59,167.83h1.06l1.45-6.31H101l.18-.79h3l-.18.79H103l-1.45,6.31h1.09l-.19.79h-3Z"/><path class="cls-1" d="M106.05,164.24l-.72,2.93a1.61,1.61,0,0,0-.07.44.39.39,0,0,0,.41.41,2.08,2.08,0,0,0,1.07-.48l.31.44a2.63,2.63,0,0,1-1.61.73,1,1,0,0,1-1.06-1,2.21,2.21,0,0,1,.1-.58l.72-2.93h-.91l.18-.73h.91l.3-1.2.92-.3-.37,1.5h1.56l-.18.73Z"/><path class="cls-1" d="M108.16,166.64a3,3,0,0,1,2.71-3.23,1.58,1.58,0,0,1,1.6,1.27l.32-1.21h.8l-.92,3.75a2.7,2.7,0,0,0-.08.5.33.33,0,0,0,.34.37c.23,0,.44-.2.68-.8l.42.14c-.28.86-.73,1.26-1.28,1.26a.89.89,0,0,1-.95-.94v-.12a2.33,2.33,0,0,1-1.82,1.07A1.84,1.84,0,0,1,108.16,166.64Zm4.08-1.09a1.23,1.23,0,0,0-1.28-1.39,2.23,2.23,0,0,0-1.91,2.42c0,.84.41,1.4,1.2,1.4A2.33,2.33,0,0,0,112.23,165.55Z"/><path class="cls-1" d="M115,167.74a2.39,2.39,0,0,1,.08-.53l1.55-6.66h-1l.18-.72h1.79l-1.71,7.38a3.92,3.92,0,0,0-.08.5c0,.25.13.38.34.38s.47-.2.71-.8l.42.14c-.28.86-.72,1.26-1.31,1.26A.92.92,0,0,1,115,167.74Z"/><path class="cls-1" d="M118.49,167.74a2.55,2.55,0,0,1,.1-.55l.8-3h-1l.19-.73h1.83l-1,3.72a2.56,2.56,0,0,0-.08.5.33.33,0,0,0,.35.37c.25,0,.47-.2.7-.8l.42.14c-.28.86-.71,1.26-1.3,1.26A.92.92,0,0,1,118.49,167.74Zm1.06-5.83a.61.61,0,1,1,.61.61A.61.61,0,0,1,119.54,161.92Z"/><path class="cls-1" d="M121.74,166.51a3.08,3.08,0,0,1,2.93-3.09c1.2,0,1.85.73,1.85,1.37a.67.67,0,0,1-.64.72.51.51,0,0,1-.52-.54.56.56,0,0,1,.24-.43,1.13,1.13,0,0,0-1-.38,2.23,2.23,0,0,0-2.05,2.31,1.44,1.44,0,0,0,1.55,1.52,2.66,2.66,0,0,0,1.7-.67l0,.82a3,3,0,0,1-1.77.59A2.15,2.15,0,0,1,121.74,166.51Z"/><path class="cls-1" d="M.22,182H.94l2.19-6H2.26v-1h4v1H5.33l2.19,6h.73v1H5.45v-1h.91l-.59-1.67H2.65l-.59,1.67H3v1H.22Zm5.24-2.57L4.21,176,3,179.48Z"/><path class="cls-1" d="M13.14,178.51a.69.69,0,0,1-.66.7.73.73,0,0,1-.68-.44,2.15,2.15,0,0,0-1.08,1v2.35h.95V183H8.89v-.86h.8v-3.42h-.8v-.89h1.79V179a2.18,2.18,0,0,1,1.61-1.27A.76.76,0,0,1,13.14,178.51Z"/><path class="cls-1" d="M13.6,180.42a2.65,2.65,0,0,1,2.59-2.66,2,2,0,0,1,2.22,1.63.72.72,0,0,1-.73.77.64.64,0,0,1-.65-.65.54.54,0,0,1,.22-.43,1.23,1.23,0,0,0-1.06-.47,1.66,1.66,0,0,0-1.55,1.83,1.74,1.74,0,0,0,1.85,1.79,3.4,3.4,0,0,0,1.78-.55l-.1.95a3.27,3.27,0,0,1-1.77.49A2.65,2.65,0,0,1,13.6,180.42Z"/><path class="cls-1" d="M19.28,175.13v-.89h1.83v4.47a2.58,2.58,0,0,1,1.83-1,1.55,1.55,0,0,1,1.3.55,1.94,1.94,0,0,1,.35,1.19v2.66h.8V183H22.8v-.86h.77v-2.44a1.13,1.13,0,0,0-.2-.73.86.86,0,0,0-.71-.29,2.25,2.25,0,0,0-1.54.78v2.67h.77V183h-2.6v-.86h.8v-7Z"/><path class="cls-1" d="M27.1,180.76A1.68,1.68,0,0,0,29,182.23a3.59,3.59,0,0,0,1.83-.55l-.08.95a3.59,3.59,0,0,1-1.91.49A2.59,2.59,0,0,1,26,180.45a2.56,2.56,0,0,1,2.57-2.7A2.32,2.32,0,0,1,31,180.21a3.79,3.79,0,0,1,0,.55Zm0-.77H30a1.35,1.35,0,0,0-1.43-1.39A1.47,1.47,0,0,0,27.1,180Z"/><path class="cls-1" d="M36.14,178.51a.69.69,0,0,1-.66.7.73.73,0,0,1-.68-.44,2.15,2.15,0,0,0-1.08,1v2.35h.95V183H31.9v-.86h.8v-3.42h-.8v-.89h1.79V179a2.18,2.18,0,0,1,1.61-1.27A.76.76,0,0,1,36.14,178.51Z"/><path class="cls-1" d="M36.8,182h1V176.1h-1v-1H39.9c1.67,0,3,1,3,2.53s-1.22,2.61-3,2.61c-.41,0-.77,0-1,0V182h1v1H36.8Zm4.93-4.39c0-1-.8-1.56-1.86-1.56h-1v3.19c.2,0,.53,0,1,0A1.62,1.62,0,0,0,41.73,177.66Z"/><path class="cls-1" d="M47.95,178.51a.69.69,0,0,1-.66.7.73.73,0,0,1-.68-.44,2.15,2.15,0,0,0-1.08,1v2.35h.95V183H43.7v-.86h.8v-3.42h-.8v-.89h1.79V179a2.18,2.18,0,0,1,1.61-1.27A.76.76,0,0,1,47.95,178.51Z"/><path class="cls-1" d="M48.42,180.44a2.7,2.7,0,1,1,2.7,2.67A2.62,2.62,0,0,1,48.42,180.44Zm4.33,0a1.64,1.64,0,1,0-1.63,1.8A1.66,1.66,0,0,0,52.75,180.44Z"/><path class="cls-1" d="M57.56,181.44a.74.74,0,0,1,.72-.83.69.69,0,0,1,.72.66.88.88,0,0,1-.16.52,2.28,2.28,0,0,0,1.44.42c1,0,1.57-.47,1.57-1.25s-.72-1.09-1.56-1.4c-1.42-.53-2.43-1-2.43-2.41A2.24,2.24,0,0,1,60.37,175c1.38,0,2.46.74,2.46,1.62a.71.71,0,0,1-.7.78.71.71,0,0,1-.6-1.12,1.93,1.93,0,0,0-1.18-.34c-.88,0-1.4.47-1.4,1.13s.71,1.08,1.61,1.43c1.36.5,2.38,1,2.38,2.39s-1.13,2.29-2.67,2.29S57.56,182.29,57.56,181.44Z"/><path class="cls-1" d="M65,180.76a1.68,1.68,0,0,0,1.87,1.46,3.59,3.59,0,0,0,1.83-.55l-.08.95a3.59,3.59,0,0,1-1.91.49A2.59,2.59,0,0,1,64,180.45a2.56,2.56,0,0,1,2.57-2.7A2.32,2.32,0,0,1,69,180.21a3.79,3.79,0,0,1,0,.55Zm0-.77h2.89a1.35,1.35,0,0,0-1.43-1.39A1.47,1.47,0,0,0,65,180Z"/><path class="cls-1" d="M69.84,182.16h.8v-3.42h-.8v-.89h1.79v.9a2.52,2.52,0,0,1,1.82-1,1.44,1.44,0,0,1,1.26.59,1.19,1.19,0,0,1,.16.36,2.75,2.75,0,0,1,1.82-.95,1.46,1.46,0,0,1,1.44.74,2.29,2.29,0,0,1,.2,1v2.67h.8V183h-2.6v-.86h.77v-2.45a1.62,1.62,0,0,0-.1-.59.7.7,0,0,0-.73-.42,2.21,2.21,0,0,0-1.48.76v2.7h.76V183H73.2v-.86H74v-2.45a1.65,1.65,0,0,0-.08-.59.71.71,0,0,0-.73-.42,2.23,2.23,0,0,0-1.49.77v2.69h.76V183H69.84Z"/><path class="cls-1" d="M79.85,182.16h.84v-3.42h-.84v-.89h1.87v4.31h.83V183h-2.7Zm.49-6.15a.75.75,0,0,1,1.5,0,.77.77,0,0,1-.76.76A.75.75,0,0,1,80.34,176Z"/><path class="cls-1" d="M83.46,182h1V176.1h-1v-1h3.15c1.91,0,2.76.92,2.76,2A1.85,1.85,0,0,1,88,179a1.89,1.89,0,0,1,1.63,1.87c0,1.27-1,2.18-2.84,2.18h-3.3Zm3.09-3.48c1.13,0,1.72-.52,1.72-1.29s-.6-1.2-1.68-1.2H85.5v2.49Zm.23,3.5c1.07,0,1.71-.5,1.71-1.31s-.7-1.32-1.87-1.32H85.5v2.63Z"/><path class="cls-1" d="M90.64,180.44a2.7,2.7,0,1,1,2.7,2.67A2.62,2.62,0,0,1,90.64,180.44Zm4.33,0a1.64,1.64,0,1,0-1.63,1.8A1.66,1.66,0,0,0,95,180.44Z"/><path class="cls-1" d="M96.86,182.16h.84v-7h-.84v-.89h1.87v7.92h.83V183h-2.7Z"/><path class="cls-1" d="M100.4,180.46a2.58,2.58,0,0,1,2.52-2.71,2.25,2.25,0,0,1,1.54.56v-3.19h-.89v-.89h1.92v7.92h.8V183h-1.82v-.66a2.18,2.18,0,0,1-1.64.76A2.46,2.46,0,0,1,100.4,180.46Zm4.05,1.09v-2.4a2.22,2.22,0,0,0-1.42-.5,1.64,1.64,0,0,0-1.58,1.8,1.6,1.6,0,0,0,1.56,1.76A2,2,0,0,0,104.46,181.56Z"/><path class="cls-1" d="M-.07,196.45H.65l3.53-6H3.24l.22-1h4l-.23,1H6.31l.77,6H7.9l-.23,1H4.94l.22-1H6l-.2-1.67H2.7l-1,1.67h1l-.23,1H-.3Zm5.79-2.58-.43-3.47-2.05,3.47Z"/><path class="cls-1" d="M9.83,193.14h-1l.23-.89h1.85l-.34,1.45c.64-1,1.24-1.54,1.8-1.54a.73.73,0,1,1,0,1.45.7.7,0,0,1-.7-.53,3.2,3.2,0,0,0-1.38,2l-.58,2.31H8.75Z"/><path class="cls-1" d="M13.28,195.23a3.09,3.09,0,0,1,3-3.07c1.14,0,1.89.7,1.89,1.45a.74.74,0,0,1-.71.82.61.61,0,0,1-.61-.64.63.63,0,0,1,.22-.46,1,1,0,0,0-.82-.29,2,2,0,0,0-1.93,2.12,1.39,1.39,0,0,0,1.48,1.48,2.89,2.89,0,0,0,1.74-.65l0,1a3.09,3.09,0,0,1-1.81.56A2.25,2.25,0,0,1,13.28,195.23Z"/><path class="cls-1" d="M20.62,189.53h-1l.23-.89h2l-1.08,4.62a2.15,2.15,0,0,1,1.67-1.09,1.38,1.38,0,0,1,1.43,1.46,2.77,2.77,0,0,1-.13.84L23.31,196a2.07,2.07,0,0,0-.06.41c0,.24.12.38.31.38s.43-.18.67-.84l.47.17c-.28.94-.76,1.38-1.4,1.38a1,1,0,0,1-1.1-1,2.55,2.55,0,0,1,.08-.58l.43-1.57a1.73,1.73,0,0,0,.07-.53A.73.73,0,0,0,22,193c-.64,0-1.26.53-1.5,1.6l-.65,2.78H18.79Z"/><path class="cls-1" d="M26.41,195.17v.18c0,.78.62,1.29,1.56,1.29a3.39,3.39,0,0,0,1.7-.47l-.2,1a3.49,3.49,0,0,1-1.72.36,2.21,2.21,0,0,1-2.37-2.19,3,3,0,0,1,2.83-3.17,1.87,1.87,0,0,1,2.09,1.93,3.41,3.41,0,0,1-.19,1.08Zm.14-.76h2.69a1.44,1.44,0,0,0,.07-.44c0-.54-.36-.94-1.1-.94A1.84,1.84,0,0,0,26.56,194.41Z"/><path class="cls-1" d="M32.29,193.14h-1l.23-.89h1.85l-.34,1.45c.64-1,1.24-1.54,1.8-1.54a.73.73,0,1,1,0,1.45.7.7,0,0,1-.7-.53,3.2,3.2,0,0,0-1.38,2l-.58,2.31H31.21Z"/><path class="cls-1" d="M35.75,196.45h.9L38,190.5H37l.22-1h2.65a4.28,4.28,0,0,1,1,.12,2.13,2.13,0,0,1,1.73,2.13c0,1.57-1.24,2.89-3.35,2.89l-1.12,0-.42,1.8h1.08l-.23,1H35.52Zm5.76-4.61a1.25,1.25,0,0,0-1-1.26,2.77,2.77,0,0,0-.72-.08h-.65l-.74,3.19,1,0A1.89,1.89,0,0,0,41.5,191.84Z"/><path class="cls-1" d="M43.9,193.14h-1l.23-.89H45l-.34,1.45c.64-1,1.24-1.54,1.8-1.54a.73.73,0,1,1,0,1.45.7.7,0,0,1-.7-.53,3.2,3.2,0,0,0-1.38,2l-.58,2.31H42.82Z"/><path class="cls-1" d="M47.35,195.23a3,3,0,0,1,2.93-3.07,2.22,2.22,0,0,1,2.33,2.3,3,3,0,0,1-2.93,3.06A2.21,2.21,0,0,1,47.35,195.23Zm4.2-.78a1.29,1.29,0,0,0-1.32-1.4,2,2,0,0,0-1.82,2.18,1.29,1.29,0,0,0,1.32,1.42A2,2,0,0,0,51.55,194.45Z"/><path class="cls-1" d="M56,195.69a.84.84,0,0,1,.8-.92.69.69,0,0,1,.7.68.72.72,0,0,1-.3.6,2.16,2.16,0,0,0,1.66.56c.88,0,1.57-.46,1.57-1.21s-.5-1-1.34-1.48-1.87-1.19-1.87-2.37a2.4,2.4,0,0,1,2.67-2.17c1.48,0,2.51.86,2.51,1.67a.83.83,0,0,1-.78.92.69.69,0,0,1-.7-.7.73.73,0,0,1,.26-.55,1.79,1.79,0,0,0-1.3-.4c-.95,0-1.54.52-1.54,1.13s.58,1.08,1.44,1.57,1.79,1.16,1.79,2.28c0,1.27-1.09,2.25-2.78,2.25S56,196.63,56,195.69Z"/><path class="cls-1" d="M63.65,195.17v.18c0,.78.62,1.29,1.56,1.29a3.39,3.39,0,0,0,1.7-.47l-.2,1a3.49,3.49,0,0,1-1.72.36,2.21,2.21,0,0,1-2.37-2.19,3,3,0,0,1,2.83-3.17,1.87,1.87,0,0,1,2.09,1.93,3.41,3.41,0,0,1-.19,1.08Zm.14-.76h2.69a1.44,1.44,0,0,0,.07-.44c0-.54-.36-.94-1.1-.94A1.84,1.84,0,0,0,63.79,194.41Z"/><path class="cls-1" d="M69.53,193.14h-1l.23-.89h1.85l-.29,1.21a2.24,2.24,0,0,1,1.73-1.29,1.27,1.27,0,0,1,1.31,1.28,2.26,2.26,0,0,1,1.75-1.28,1.33,1.33,0,0,1,1.34,1.46,3.19,3.19,0,0,1-.13.84L75.91,196a2.34,2.34,0,0,0-.07.42c0,.24.12.38.32.38s.43-.18.67-.84l.47.17c-.28.94-.77,1.38-1.4,1.38a1,1,0,0,1-1.1-1,2.65,2.65,0,0,1,.08-.59l.43-1.51a1.8,1.8,0,0,0,.1-.58.7.7,0,0,0-.71-.76c-.6,0-1.18.55-1.45,1.64l-.7,2.73H71.49l.78-3a3.19,3.19,0,0,0,.08-.61.69.69,0,0,0-.71-.73c-.6,0-1.2.56-1.46,1.63l-.68,2.75H68.45Z"/><path class="cls-1" d="M78.34,196.46a2.47,2.47,0,0,1,.08-.56l.72-2.76h-1l.23-.89h2l-1,3.66a2.06,2.06,0,0,0-.08.53c0,.23.12.36.31.36s.46-.18.71-.84l.47.17c-.31,1-.82,1.38-1.45,1.38A1,1,0,0,1,78.34,196.46Zm1-5.78a.7.7,0,0,1,.7-.7.7.7,0,1,1,0,1.39A.7.7,0,0,1,79.34,190.68Z"/><path class="cls-1" d="M81.46,196.45h.9l1.38-5.95h-1l.22-1h2.7a3.67,3.67,0,0,1,1.71.32,1.75,1.75,0,0,1,1,1.57,2.08,2.08,0,0,1-1.93,2,1.81,1.81,0,0,1,1.42,1.67,2,2,0,0,1-.71,1.6,3.13,3.13,0,0,1-1.52.66,5.46,5.46,0,0,1-1.12.1H81.23Zm3.15,0a4,4,0,0,0,.8-.08,1.72,1.72,0,0,0,.9-.44,1.27,1.27,0,0,0,.36-.94c0-.71-.66-1.19-1.77-1.19h-.84l-.62,2.65Zm.41-3.53c1.34,0,2.17-.5,2.17-1.4a.94.94,0,0,0-.59-.89,3,3,0,0,0-1.12-.18h-.66l-.58,2.47Z"/><path class="cls-1" d="M88.85,195.23a3,3,0,0,1,2.93-3.07,2.22,2.22,0,0,1,2.33,2.3,3,3,0,0,1-2.93,3.06A2.21,2.21,0,0,1,88.85,195.23Zm4.2-.78a1.29,1.29,0,0,0-1.32-1.4,2,2,0,0,0-1.82,2.18,1.29,1.29,0,0,0,1.32,1.42A2,2,0,0,0,93,194.45Z"/><path class="cls-1" d="M95.15,196.45a3.18,3.18,0,0,1,.07-.54l1.49-6.38h-1l.23-.89h2l-1.68,7.26a2.65,2.65,0,0,0-.08.52c0,.25.11.38.31.38s.46-.18.71-.84l.46.17c-.31,1-.82,1.38-1.44,1.38A1,1,0,0,1,95.15,196.45Z"/><path class="cls-1" d="M101.16,192.15a1.67,1.67,0,0,1,1.56,1.19l.88-3.81h-1l.22-.89h2l-1.7,7.27a3.07,3.07,0,0,0-.08.53c0,.23.1.36.3.36s.43-.18.68-.84l.47.17c-.31,1-.86,1.38-1.43,1.38a1,1,0,0,1-1-1.06v0a2.29,2.29,0,0,1-1.83,1.12,1.85,1.85,0,0,1-1.79-2.06C98.45,193.67,99.68,192.15,101.16,192.15Zm1.34,2.21a1.14,1.14,0,0,0-1.2-1.28,2.08,2.08,0,0,0-1.76,2.25c0,.74.4,1.28,1.12,1.28A2.13,2.13,0,0,0,102.5,194.36Z"/><path class="cls-1" d="M107.55,196.45h1l1.38-5.95h-1.07l.23-1h3.14l-.22,1h-1l-1.38,5.95h1.07l-.23,1h-3.14Z"/><path class="cls-1" d="M114.19,193.14l-.66,2.65a1.94,1.94,0,0,0-.07.46.4.4,0,0,0,.41.44,1.91,1.91,0,0,0,1-.46l.37.5a2.59,2.59,0,0,1-1.74.77,1,1,0,0,1-1.14-1.09,3.29,3.29,0,0,1,.08-.62l.66-2.65h-.94l.2-.89h.95l.3-1.18,1.15-.4-.4,1.57H116l-.23.89Z"/><path class="cls-1" d="M116.28,195.45c0-1.76,1.22-3.3,2.72-3.3a1.62,1.62,0,0,1,1.55,1.22l.34-1.15h1l-.91,3.68a2.24,2.24,0,0,0-.1.53c0,.23.11.36.31.36s.43-.18.67-.84l.47.17c-.31,1-.85,1.38-1.43,1.38a1,1,0,0,1-1-1v-.06a2.36,2.36,0,0,1-1.85,1.12A1.83,1.83,0,0,1,116.28,195.45Zm4-1.1a1.11,1.11,0,0,0-1.18-1.27,2.08,2.08,0,0,0-1.76,2.25c0,.76.37,1.28,1.09,1.28A2.15,2.15,0,0,0,120.31,194.35Z"/><path class="cls-1" d="M123.21,196.45a3.18,3.18,0,0,1,.07-.54l1.49-6.38h-1l.23-.89h2l-1.68,7.26a2.65,2.65,0,0,0-.08.52c0,.25.11.38.31.38s.46-.18.71-.84l.46.17c-.31,1-.82,1.38-1.44,1.38A1,1,0,0,1,123.21,196.45Z"/><path class="cls-1" d="M126.9,196.46a2.45,2.45,0,0,1,.08-.56l.72-2.76h-1l.23-.89h2l-1,3.66a2.06,2.06,0,0,0-.08.53c0,.23.12.36.31.36s.46-.18.71-.84l.47.17c-.31,1-.82,1.38-1.45,1.38A1,1,0,0,1,126.9,196.46Zm1-5.78a.7.7,0,0,1,.7-.7.7.7,0,1,1,0,1.39A.7.7,0,0,1,127.91,190.68Z"/><path class="cls-1" d="M130.26,195.23a3.09,3.09,0,0,1,3-3.07c1.14,0,1.89.7,1.89,1.45a.74.74,0,0,1-.71.82.61.61,0,0,1-.61-.64.63.63,0,0,1,.22-.46,1,1,0,0,0-.82-.29,2,2,0,0,0-1.93,2.12,1.39,1.39,0,0,0,1.48,1.48,2.89,2.89,0,0,0,1.74-.65l0,1a3.09,3.09,0,0,1-1.81.56A2.25,2.25,0,0,1,130.26,195.23Z"/><path class="cls-1" d="M.18,210.61H.86l2-5.48H2v-1.2H6.43v1.2H5.57l2,5.48h.68v1.21h-3v-1.2h.91l-.44-1.3h-3l-.44,1.3h1v1.2h-3Zm5.1-2.41-1.1-3.11-1.1,3.11Z"/><path class="cls-1" d="M13.43,207.33a.8.8,0,0,1-.78.82.82.82,0,0,1-.77-.47,2.18,2.18,0,0,0-1,1v2.06h.91v1.08h-3v-1.08h.78v-3.07H8.75v-1.1h2v1.19c.44-.71,1-1.28,1.67-1.28A.86.86,0,0,1,13.43,207.33Z"/><path class="cls-1" d="M13.82,209.15a2.68,2.68,0,0,1,2.66-2.67,2.17,2.17,0,0,1,2.39,1.76.83.83,0,0,1-.84.89.8.8,0,0,1-.79-.79.73.73,0,0,1,.17-.44,1.2,1.2,0,0,0-.94-.36,1.45,1.45,0,0,0-1.34,1.64,1.62,1.62,0,0,0,1.7,1.64,3.75,3.75,0,0,0,1.87-.55l-.11,1.18a3.48,3.48,0,0,1-1.87.48A2.71,2.71,0,0,1,13.82,209.15Z"/><path class="cls-1" d="M19.72,204.14V203H21.8v4.32a2.6,2.6,0,0,1,1.79-.89,1.55,1.55,0,0,1,1.28.56,1.94,1.94,0,0,1,.35,1.19v2.52H26v1.08H23.19v-1.08h.72v-2.19a1,1,0,0,0-.17-.64.71.71,0,0,0-.59-.25,2.28,2.28,0,0,0-1.36.61v2.47h.72v1.08H19.72v-1.08h.78v-6.6Z"/><path class="cls-1" d="M27.89,209.64a1.56,1.56,0,0,0,1.73,1.18,3.92,3.92,0,0,0,1.91-.55l-.11,1.18a3.89,3.89,0,0,1-2,.48,2.67,2.67,0,0,1-2.9-2.71,2.62,2.62,0,0,1,2.66-2.73A2.38,2.38,0,0,1,31.74,209a3.7,3.7,0,0,1-.06.65Zm0-.91h2.55a1.17,1.17,0,0,0-1.26-1.2A1.28,1.28,0,0,0,27.88,208.73Z"/><path class="cls-1" d="M37.16,207.33a.8.8,0,0,1-.78.82.82.82,0,0,1-.77-.47,2.18,2.18,0,0,0-1,1v2.06h.91v1.08h-3v-1.08h.78v-3.07h-.78v-1.1h2v1.19c.44-.71,1-1.28,1.67-1.28A.86.86,0,0,1,37.16,207.33Z"/><path class="cls-1" d="M37.78,210.61h.9v-5.47h-.9v-1.21H41c1.69,0,3,1,3,2.58,0,1.81-1.28,2.7-3.14,2.7H40v1.42h1v1.21H37.78Zm4.76-4.1c0-.83-.68-1.37-1.65-1.37H40V208c.14,0,.34,0,.89,0A1.44,1.44,0,0,0,42.54,206.51Z"/><path class="cls-1" d="M49.35,207.33a.8.8,0,0,1-.78.82.82.82,0,0,1-.77-.47,2.18,2.18,0,0,0-1,1v2.06h.91v1.08h-3v-1.08h.78v-3.07h-.78v-1.1h2v1.19c.44-.71,1-1.28,1.67-1.28A.86.86,0,0,1,49.35,207.33Z"/><path class="cls-1" d="M49.75,209.19a2.69,2.69,0,0,1,2.79-2.72,2.66,2.66,0,0,1,2.79,2.72,2.69,2.69,0,0,1-2.79,2.72A2.67,2.67,0,0,1,49.75,209.19Zm4.25,0a1.46,1.46,0,1,0-1.45,1.63A1.48,1.48,0,0,0,54,209.19Z"/><path class="cls-1" d="M58.84,210.61h.9v-5.47h-.9v-1.21H62c1.93,0,2.88.89,2.88,2.07a1.81,1.81,0,0,1-1.34,1.76,1.86,1.86,0,0,1,1.57,1.85c0,1.31-1.06,2.21-3,2.21H58.84ZM62,207.27c.95,0,1.48-.43,1.48-1.12s-.55-1-1.51-1h-.89v2.16Zm.14,3.36c.94,0,1.56-.38,1.56-1.14s-.58-1.14-1.6-1.14h-1v2.28Z"/><path class="cls-1" d="M66,209.19a2.69,2.69,0,0,1,2.79-2.72,2.66,2.66,0,0,1,2.79,2.72,2.69,2.69,0,0,1-2.79,2.72A2.67,2.67,0,0,1,66,209.19Zm4.25,0a1.46,1.46,0,1,0-1.45,1.63A1.48,1.48,0,0,0,70.2,209.19Z"/><path class="cls-1" d="M72.26,210.74h.82v-6.6h-.82V203h2.12v7.7h.78v1.08h-2.9Z"/><path class="cls-1" d="M75.9,209.22a2.62,2.62,0,0,1,2.52-2.75,2.25,2.25,0,0,1,1.46.5v-2.83h-.79V203h2.1v7.7H82v1.08H79.88v-.58a2.16,2.16,0,0,1-1.55.67A2.49,2.49,0,0,1,75.9,209.22Zm4,1V208a2.15,2.15,0,0,0-1.25-.41,1.44,1.44,0,0,0-1.39,1.61,1.42,1.42,0,0,0,1.39,1.58A1.87,1.87,0,0,0,79.88,210.26Z"/><path class="cls-1" d="M0,225H.68l3.21-5.48H3l.28-1.2H7.66l-.28,1.2H6.51L7.18,225H8l-.29,1.21H4.76L5,225h.89l-.16-1.3h-3L2,225H3.06l-.28,1.2H-.31Zm5.66-2.41-.37-3.17L3.41,222.6Z"/><path class="cls-1" d="M9.77,222.07h-1L9.1,221h2.05l-.34,1.54c.61-1.12,1.24-1.63,1.86-1.63a.87.87,0,0,1,.88.86.83.83,0,0,1-.83.83.8.8,0,0,1-.79-.6,2.67,2.67,0,0,0-1.26,1.87l-.6,2.39H8.72Z"/><path class="cls-1" d="M13.56,223.93a3.11,3.11,0,0,1,3.13-3.06,1.77,1.77,0,0,1,2,1.56.85.85,0,0,1-.8.95.75.75,0,0,1-.76-.76.83.83,0,0,1,.18-.5,1.12,1.12,0,0,0-.62-.16,1.76,1.76,0,0,0-1.76,1.87,1.31,1.31,0,0,0,1.38,1.39,3.18,3.18,0,0,0,1.78-.59v1.16a3.28,3.28,0,0,1-1.85.52A2.39,2.39,0,0,1,13.56,223.93Z"/><path class="cls-1" d="M21,218.54H20l.29-1.1H22.5l-1,4.49a2.13,2.13,0,0,1,1.61-1.06,1.41,1.41,0,0,1,1.4,1.57,3,3,0,0,1-.13.88L24,224.7a1.6,1.6,0,0,0-.06.37c0,.24.1.36.28.36s.41-.13.67-.86l.53.2c-.31,1.09-.88,1.55-1.58,1.55a1.09,1.09,0,0,1-1.22-1.16,2.12,2.12,0,0,1,.08-.6l.4-1.42a1.44,1.44,0,0,0,.06-.43.67.67,0,0,0-.72-.73c-.56,0-1,.37-1.15,1.2l-.71,3H19.19Z"/><path class="cls-1" d="M27.25,224v.08c0,.59.48,1.1,1.48,1.1a3.61,3.61,0,0,0,1.74-.47l-.25,1.2a3.69,3.69,0,0,1-1.79.36A2.29,2.29,0,0,1,26,224.06a3,3,0,0,1,2.84-3.19,2,2,0,0,1,2.25,2,3.84,3.84,0,0,1-.19,1.14Zm.14-.91h2.35a1.35,1.35,0,0,0,0-.36c0-.52-.34-.82-1-.82A1.55,1.55,0,0,0,27.4,223.13Z"/><path class="cls-1" d="M32.93,222.07H32l.29-1.1h2.05L34,222.5c.61-1.12,1.24-1.63,1.86-1.63a.87.87,0,0,1,.88.86.83.83,0,0,1-.83.83.8.8,0,0,1-.79-.6,2.67,2.67,0,0,0-1.26,1.87l-.6,2.39H31.88Z"/><path class="cls-1" d="M36.74,225h.84l1.27-5.47h-1l.28-1.21h2.71a4,4,0,0,1,1,.13,2.24,2.24,0,0,1,1.79,2.22c0,1.61-1.27,2.94-3.42,2.94l-1,0L38.94,225h1l-.28,1.21H36.47Zm5.59-4.28a1.12,1.12,0,0,0-.91-1.1,2.42,2.42,0,0,0-.66-.08h-.55l-.66,2.84c.26,0,.6,0,.89,0A1.69,1.69,0,0,0,42.33,220.73Z"/><path class="cls-1" d="M44.88,222.07h-1l.29-1.1h2.05l-.34,1.54c.61-1.12,1.24-1.63,1.86-1.63a.87.87,0,0,1,.88.86.83.83,0,0,1-.83.83A.8.8,0,0,1,47,222a2.67,2.67,0,0,0-1.26,1.87l-.6,2.39H43.84Z"/><path class="cls-1" d="M48.67,223.93a3,3,0,0,1,3-3.06,2.33,2.33,0,0,1,2.47,2.39,3,3,0,0,1-3,3.06A2.33,2.33,0,0,1,48.67,223.93Zm4.11-.67A1.17,1.17,0,0,0,51.6,222a1.79,1.79,0,0,0-1.59,2,1.17,1.17,0,0,0,1.19,1.29A1.79,1.79,0,0,0,52.79,223.26Z"/><path class="cls-1" d="M57.2,225H58l1.27-5.47h-1l.28-1.21h2.58a4.22,4.22,0,0,1,1.87.31,1.81,1.81,0,0,1,1.06,1.63,2,2,0,0,1-1.86,1.93,1.78,1.78,0,0,1,1.37,1.62,2.06,2.06,0,0,1-.73,1.67,3.38,3.38,0,0,1-1.66.65,7.32,7.32,0,0,1-1.2.08H56.93Zm3.06,0A4.84,4.84,0,0,0,61,225a1.57,1.57,0,0,0,.86-.38,1.13,1.13,0,0,0,.31-.85c0-.67-.62-1-1.5-1h-.79L59.39,225Zm.46-3.36c1.3,0,2-.43,2-1.22a.83.83,0,0,0-.56-.79,3.15,3.15,0,0,0-1.09-.14h-.38l-.5,2.16Z"/><path class="cls-1" d="M64.51,223.93a3,3,0,0,1,3-3.06A2.33,2.33,0,0,1,70,223.26a3,3,0,0,1-3,3.06A2.33,2.33,0,0,1,64.51,223.93Zm4.11-.67a1.17,1.17,0,0,0-1.19-1.3,1.79,1.79,0,0,0-1.59,2A1.17,1.17,0,0,0,67,225.22,1.79,1.79,0,0,0,68.63,223.26Z"/><path class="cls-1" d="M70.91,225.13a2.5,2.5,0,0,1,.07-.58l1.39-6h-1l.29-1.1H74l-1.64,7.1a2.66,2.66,0,0,0-.08.52c0,.26.08.37.28.37s.44-.13.71-.86l.53.2c-.36,1.24-1,1.55-1.64,1.55A1.07,1.07,0,0,1,70.91,225.13Z"/><path class="cls-1" d="M77.1,220.87A1.66,1.66,0,0,1,78.55,222l.8-3.45h-1l.29-1.1h2.25l-1.65,7.1a2.73,2.73,0,0,0-.1.56c0,.22.08.32.26.32s.41-.13.67-.86l.53.2c-.36,1.24-1,1.55-1.62,1.55a1.05,1.05,0,0,1-1.08-1.19,2.34,2.34,0,0,1-1.88,1.19c-1,0-1.69-.82-1.69-2C74.36,222.47,75.57,220.87,77.1,220.87Zm1.25,2.28c0-.68-.34-1.12-1-1.12-.88,0-1.58,1-1.58,2.05,0,.62.31,1.12.95,1.12A1.92,1.92,0,0,0,78.34,223.15Z"/><path class="cls-1" d="M83.64,225h.91l1.27-5.47h-1l.28-1.21h3.3l-.28,1.21h-.91L85.91,225h1l-.28,1.21h-3.3Z"/><path class="cls-1" d="M90.5,222.07l-.56,2.28a2.49,2.49,0,0,0-.08.48c0,.36.18.48.38.48a1.71,1.71,0,0,0,1-.42l.43.6a2.65,2.65,0,0,1-1.9.83,1.17,1.17,0,0,1-1.28-1.26,3.39,3.39,0,0,1,.11-.71l.56-2.28h-1l.25-1.1h1l.29-1.14,1.48-.53L90.78,221h1.6l-.28,1.1Z"/><path class="cls-1" d="M92.57,224.28c0-1.81,1.21-3.41,2.73-3.41A1.69,1.69,0,0,1,96.78,222l.36-1.08h1.22l-.9,3.57a2.49,2.49,0,0,0-.1.56c0,.22.08.32.26.32s.41-.13.67-.86l.53.2c-.36,1.24-1,1.55-1.61,1.55a1.05,1.05,0,0,1-1.08-1.19,2.34,2.34,0,0,1-1.88,1.19C93.27,226.32,92.57,225.5,92.57,224.28Zm4-1.13c0-.68-.34-1.12-1-1.12-.88,0-1.58,1-1.58,2.05,0,.62.31,1.12.95,1.12A1.92,1.92,0,0,0,96.55,223.15Z"/><path class="cls-1" d="M99.63,225.13a2.5,2.5,0,0,1,.07-.58l1.39-6h-1l.29-1.1h2.28l-1.64,7.1a2.66,2.66,0,0,0-.08.52c0,.26.08.37.28.37s.44-.13.71-.86l.53.2c-.36,1.24-1,1.55-1.64,1.55A1.07,1.07,0,0,1,99.63,225.13Z"/><path class="cls-1" d="M103.56,225.14a2.62,2.62,0,0,1,.07-.59l.61-2.48h-.95l.29-1.1h2.28l-.9,3.57a2.28,2.28,0,0,0-.08.55c0,.23.11.34.29.34s.44-.13.71-.86l.53.2c-.36,1.24-1,1.55-1.64,1.55A1.07,1.07,0,0,1,103.56,225.14Zm.95-5.71a.82.82,0,1,1,.82.8A.81.81,0,0,1,104.51,219.43Z"/><path class="cls-1" d="M107.07,223.93a3.11,3.11,0,0,1,3.13-3.06,1.77,1.77,0,0,1,2,1.56.85.85,0,0,1-.8.95.75.75,0,0,1-.76-.76.83.83,0,0,1,.18-.5,1.12,1.12,0,0,0-.62-.16,1.76,1.76,0,0,0-1.76,1.87,1.31,1.31,0,0,0,1.38,1.39,3.18,3.18,0,0,0,1.78-.59v1.16a3.28,3.28,0,0,1-1.85.52A2.39,2.39,0,0,1,107.07,223.93Z"/></svg>