<svg id="Layer_1" data-name="Layer 1" xmlns="http://www.w3.org/2000/svg" viewBox="0 0 739.01 210.95"><defs><style>.cls-1{fill:#e7a614;}.cls-2{fill:#fff;}</style></defs><title>Artboard 1</title><path class="cls-1" d="M355.67,82.7h-.6C311,81.76,276.47,72.23,276.47,61c0-10.5,31.77-23.32,74.28-24.77l.66,0-.61-3.63-2.56.09c-33.12,1.25-61.56,6.76-76.1,14.76-6.37,3.52-9.6,7.28-9.6,11.17s3.23,7.67,9.6,11.14c15.45,8.53,47.15,14.27,82.72,15l.79,0c.79,0,1.38-.45,1.38-1s-.6-1-1.36-1"/><path class="cls-1" d="M355.1,90.89l-1.21,0C292.44,89.58,244.3,75.33,244.3,58.41c0-15.14,40.53-33,100.86-35.55l4.73-.19-.71-5.78-4.49.08c-46.62,1.71-88.42,10-109.09,21.55-9.29,5.27-14,10.86-14,16.65s4.72,11.41,14,16.65c22.33,12.53,67.6,20.89,118.15,21.8l1.34,0c1.14,0,2-.6,2-1.39s-.87-1.38-2-1.38"/><path class="cls-1" d="M353.74,99.38l-1.26-.05c-84.24-1.52-150.24-21.11-150.24-44.58,0-23.31,64.6-45.21,141-47.82l4.42-.12L346.91,0l-4.65,0c-66.1,2-125,13.24-153.84,29.39-12.31,7-18.56,14.35-18.56,22s6.25,15.08,18.56,22C219,90.6,281.8,101.95,352.27,103h1.47c1.6,0,2.8-.78,2.8-1.83s-1.2-1.83-2.8-1.83"/><path class="cls-1" d="M367.37,82.7H368c44.07-.93,78.6-10.46,78.6-21.73,0-10.5-31.77-23.32-74.28-24.77l-.66,0,.62-3.63,2.54.09c33.12,1.25,61.57,6.76,76.11,14.76,6.37,3.52,9.6,7.28,9.6,11.17s-3.23,7.67-9.6,11.14c-15.45,8.53-47.15,14.27-82.72,15l-.79,0c-.79,0-1.39-.45-1.39-1s.61-1,1.37-1"/><path class="cls-1" d="M367.95,90.89l1.21,0c61.46-1.27,109.6-15.53,109.6-32.44,0-15.14-40.54-33-100.87-35.55l-4.73-.19.7-5.78,4.49.08c46.62,1.71,88.42,10,109.1,21.55,9.29,5.27,14,10.86,14,16.65s-4.72,11.41-14,16.65c-22.33,12.53-67.62,20.89-118.16,21.8l-1.34,0c-1.14,0-2-.6-2-1.39s.88-1.38,2-1.38"/><path class="cls-1" d="M369.3,99.38l1.27-.05c84.25-1.52,150.24-21.11,150.24-44.58,0-23.31-64.6-45.21-141.06-47.82l-4.41-.12L376.14,0l4.65,0c66.09,2,125.05,13.24,153.84,29.39,12.31,7,18.55,14.35,18.55,22s-6.24,15.08-18.55,22C504,90.6,441.24,101.95,370.78,103H369.3c-1.6,0-2.81-.78-2.81-1.83s1.21-1.83,2.81-1.83"/><path class="cls-2" d="M88.93,184.35l9.53,12.19a114.85,114.85,0,0,1-17.42,9.14,88.38,88.38,0,0,1-13.59,3.85A82.52,82.52,0,0,1,51.17,211a73.5,73.5,0,0,1-18.58-2.6,47.75,47.75,0,0,1-16.4-7.65A42,42,0,0,1,4.51,187.61,35.79,35.79,0,0,1,0,169.44a35.26,35.26,0,0,1,4.51-18.08,41.29,41.29,0,0,1,11.89-13,52.77,52.77,0,0,1,16.91-7.84,74.58,74.58,0,0,1,19.57-2.58,85.19,85.19,0,0,1,14.24,1.3,68.43,68.43,0,0,1,11.38,2.95c11,3.76,15.5,8,15.5,8l-9.12,11.92a47.23,47.23,0,0,0-15.35-8.22c-1.59-.46-3.32-.87-5.17-1.24a57.9,57.9,0,0,0-11.27-1,48.29,48.29,0,0,0-13.43,1.75,31.24,31.24,0,0,0-10.55,5.26,23.77,23.77,0,0,0-7,8.67,27.13,27.13,0,0,0-2.46,11.81A25.18,25.18,0,0,0,22.44,181a29.81,29.81,0,0,0,7.28,9A31.48,31.48,0,0,0,40,195.72a36.32,36.32,0,0,0,11.68,1.94,51.07,51.07,0,0,0,11.27-1.29,71.26,71.26,0,0,0,10.45-3c10.15-4,15.56-9,15.56-9"/><path class="cls-2" d="M364.48,210.49H344.75v-81h54.53q16.6,0,24.89,5.35t8.3,18.62q0,13.28-8.3,18.36t-24.89,5.07H364.43l0,33.59m34.39-47.24a22.74,22.74,0,0,0,9.94-1.94q4-1.93,4-7.84,0-5.71-4-8a19.66,19.66,0,0,0-9.94-2.3H364.43v20.1Z"/><path class="cls-2" d="M737.15,139.62a6.34,6.34,0,1,1,1.86-4.5,6.12,6.12,0,0,1-1.86,4.5m-8.34-8.35a5.47,5.47,0,0,0,3.85,9.35,5.22,5.22,0,0,0,3.86-1.61,5.51,5.51,0,0,0,0-7.74,5.43,5.43,0,0,0-7.71,0m3.73.35a5.3,5.3,0,0,1,1.9.25,1.73,1.73,0,0,1,1.08,1.76,1.51,1.51,0,0,1-.68,1.37,2.59,2.59,0,0,1-1,.34,1.7,1.7,0,0,1,1.2.68,1.94,1.94,0,0,1,.38,1.08v.51c0,.16,0,.34,0,.52a1.3,1.3,0,0,0,.06.36l0,.09h-1.15v-.07l0-.08,0-.22v-.55a1.7,1.7,0,0,0-.66-1.6,3,3,0,0,0-1.36-.22h-1v2.74h-1.23v-7Zm1.32,1.09a3.22,3.22,0,0,0-1.49-.26h-1V135h1.1a3.57,3.57,0,0,0,1.17-.15,1.26,1.26,0,0,0,.26-2.11"/><rect class="cls-2" x="107.05" y="129.29" width="19.63" height="81.3"/><polygon class="cls-2" points="140.95 129.29 140.95 210.6 158.17 210.6 158.17 150.56 219.64 210.7 236.66 210.7 236.66 129.39 219.54 129.39 219.54 185.66 161.08 129.39 140.95 129.29"/><polygon class="cls-2" points="332.82 210.6 332.82 196.97 270.94 196.97 270.94 175.16 312.89 175.16 312.89 161.53 270.94 161.53 270.94 143.01 331.02 143.01 331.02 129.29 251.22 129.29 251.22 210.6 332.82 210.6"/><polygon class="cls-2" points="621.4 210.6 621.4 196.97 559.53 196.97 559.53 175.16 601.48 175.16 601.48 161.53 559.53 161.53 559.53 143.01 619.6 143.01 619.6 129.29 539.8 129.29 539.8 210.6 621.4 210.6"/><polygon class="cls-2" points="443.47 129.3 443.47 210.68 527.68 210.68 527.68 197.08 462.9 197.08 462.9 129.25 443.47 129.3"/><polygon class="cls-2" points="628.29 129.35 664.47 169.91 627.62 210.61 650.67 210.61 675.67 182.62 700.71 210.58 726.21 210.58 688.07 168.93 723.6 129.34 701.17 129.34 676.71 156.41 652.05 129.35 628.29 129.35"/></svg>