<svg id="Cineplex_Entertainment" data-name="Cineplex Entertainment" xmlns="http://www.w3.org/2000/svg" viewBox="0 0 540.45 155.09"><defs><style>.cls-1{fill:#fff;}</style></defs><title>Artboard 1</title><path class="cls-1" d="M259.77,60.8h-.44c-32.4-.68-57.79-7.69-57.79-16,0-7.72,23.35-17.14,54.61-18.21l.48,0-.45-2.67-1.87.07c-24.35.91-45.26,5-56,10.85-4.68,2.59-7.05,5.35-7.05,8.21s2.37,5.64,7.05,8.19c11.36,6.27,34.66,10.49,60.82,11l.58,0c.58,0,1-.33,1-.74S260.33,60.8,259.77,60.8Z"/><path class="cls-1" d="M259.35,66.82l-.89,0c-45.18-.94-80.57-11.41-80.57-23.85,0-11.13,29.8-24.29,74.15-26.13l3.48-.14L255,12.42l-3.31.05c-34.27,1.26-65,7.32-80.2,15.85-6.84,3.87-10.3,8-10.3,12.24s3.47,8.39,10.3,12.24c16.42,9.21,49.7,15.36,86.86,16l1,0c.83,0,1.48-.45,1.48-1S260.17,66.82,259.35,66.82Z"/><path class="cls-1" d="M258.35,73.06l-.93,0C195.48,71.91,147,57.5,147,40.25S194.45,7,250.66,5.1L253.91,5l-.58-5h-3.42C201.31,1.46,158,9.75,136.8,21.62c-9.05,5.11-13.65,10.55-13.65,16.17S127.75,48.87,136.8,54c22.5,12.62,68.66,21,120.47,21.77h1.08c1.18,0,2.06-.58,2.06-1.35S259.53,73.06,258.35,73.06Z"/><path class="cls-1" d="M268.37,60.8h.45c32.4-.68,57.79-7.69,57.79-16,0-7.72-23.35-17.14-54.61-18.21l-.48,0,.46-2.67,1.87.07c24.35.91,45.27,5,56,10.85,4.68,2.59,7.06,5.35,7.06,8.21s-2.38,5.64-7.06,8.19c-11.36,6.27-34.67,10.49-60.82,11l-.58,0c-.59,0-1-.33-1-.74S267.81,60.8,268.37,60.8Z"/><path class="cls-1" d="M268.79,66.82l.89,0c45.18-.94,80.58-11.41,80.58-23.85,0-11.13-29.8-24.29-74.16-26.13l-3.48-.14.52-4.25,3.3.05c34.28,1.26,65,7.32,80.22,15.85,6.83,3.87,10.29,8,10.29,12.24s-3.47,8.39-10.29,12.24c-16.42,9.21-49.71,15.36-86.87,16l-1,0c-.84,0-1.49-.45-1.49-1S268,66.82,268.79,66.82Z"/><path class="cls-1" d="M269.79,73.06l.93,0c61.94-1.12,110.46-15.53,110.46-32.78S333.68,7,277.47,5.1L274.23,5l.58-5h3.42c48.59,1.45,91.94,9.74,113.11,21.61C400.39,26.74,405,32.18,405,37.79S400.39,48.87,391.34,54c-22.5,12.62-68.66,21-120.47,21.77h-1.08c-1.18,0-2.06-.58-2.06-1.35S268.61,73.06,269.79,73.06Z"/><path class="cls-1" d="M65.38,135.54l7,9a84.56,84.56,0,0,1-12.8,6.72,65,65,0,0,1-10,2.83,60.71,60.71,0,0,1-12,1A54,54,0,0,1,24,153.18a35,35,0,0,1-12.05-5.63,30.81,30.81,0,0,1-8.59-9.63A26.31,26.31,0,0,1,0,124.57a25.94,25.94,0,0,1,3.32-13.29,30.38,30.38,0,0,1,8.74-9.56A38.64,38.64,0,0,1,24.48,96a54.77,54.77,0,0,1,14.39-1.9,63.07,63.07,0,0,1,10.47,1,50.9,50.9,0,0,1,8.36,2.17C65.79,99.94,69.1,103,69.1,103l-6.71,8.77a34.71,34.71,0,0,0-11.28-6q-1.76-.51-3.8-.91a42.84,42.84,0,0,0-8.29-.75,35.44,35.44,0,0,0-9.87,1.29,22.91,22.91,0,0,0-7.76,3.87,17.51,17.51,0,0,0-5.12,6.37,20,20,0,0,0-1.81,8.68,18.5,18.5,0,0,0,2,8.75,21.86,21.86,0,0,0,5.35,6.64,23.12,23.12,0,0,0,7.53,4.21A26.73,26.73,0,0,0,38,145.32a37.68,37.68,0,0,0,8.29-.95,52.09,52.09,0,0,0,7.68-2.24A40.14,40.14,0,0,0,65.38,135.54Z"/><path class="cls-1" d="M266.24,154.76h-14.5V95.21h40.08q12.21,0,18.3,3.93t6.1,13.69q0,9.76-6.1,13.49t-18.3,3.73H266.21ZM291.52,120a16.71,16.71,0,0,0,7.31-1.42q2.94-1.42,2.94-5.76t-2.94-5.9a14.43,14.43,0,0,0-7.31-1.69H266.21V120Z"/><path class="cls-1" d="M539.08,102.65a4.66,4.66,0,1,1,1.37-3.31A4.48,4.48,0,0,1,539.08,102.65ZM533,96.51a3.87,3.87,0,0,0-1.17,2.84,3.92,3.92,0,0,0,1.16,2.86,4,4,0,0,0,5.67,0,4.05,4.05,0,0,0,0-5.69,4,4,0,0,0-5.67,0Zm2.74.26a3.91,3.91,0,0,1,1.4.18,1.27,1.27,0,0,1,.79,1.3,1.12,1.12,0,0,1-.5,1,2,2,0,0,1-.74.25,1.24,1.24,0,0,1,.88.5,1.4,1.4,0,0,1,.28.79v.37q0,.18,0,.38a.85.85,0,0,0,0,.27l0,.06H537v-.11l0-.16v-.41a1.25,1.25,0,0,0-.48-1.17,2.16,2.16,0,0,0-1-.16h-.71v2h-.9V96.77Zm1,.81a2.34,2.34,0,0,0-1.09-.19h-.77v1.85h.81a2.45,2.45,0,0,0,.86-.11.92.92,0,0,0,.19-1.55Z"/><rect class="cls-1" x="78.71" y="95.06" width="14.43" height="59.77"/><polygon class="cls-1" points="103.05 95.06 103.05 154.83 115.71 154.83 115.71 110.7 160.91 154.91 173.42 154.91 173.42 95.13 160.84 95.13 160.84 136.5 117.85 95.13 103.05 95.06"/><polygon class="cls-1" points="243.25 154.83 243.25 144.82 197.76 144.82 197.76 128.77 228.6 128.77 228.6 118.76 197.76 118.76 197.76 105.14 241.93 105.14 241.93 95.06 183.26 95.06 183.26 154.83 243.25 154.83"/><polygon class="cls-1" points="453.99 154.83 453.99 144.82 408.49 144.82 408.49 128.77 439.34 128.77 439.34 118.76 408.49 118.76 408.49 105.14 452.66 105.14 452.66 95.06 393.99 95.06 393.99 154.83 453.99 154.83"/><polygon class="cls-1" points="323.6 95.06 323.6 154.9 385.51 154.9 385.51 144.9 337.88 144.9 337.88 95.02 323.6 95.06"/><polygon class="cls-1" points="459.05 95.1 485.65 124.92 458.56 154.84 475.5 154.84 493.88 134.26 512.29 154.82 531.04 154.82 503 124.2 529.12 95.09 512.63 95.09 494.65 115 476.52 95.1 459.05 95.1"/></svg>