<svg id="Layer_1" data-name="Layer 1" xmlns="http://www.w3.org/2000/svg" viewBox="0 0 191.38 197.44"><defs><style>.cls-1{font-size:16px;fill:#231f20;font-family:MarkOT-Hairline, Mark OT;}.cls-2{letter-spacing:-0.03em;}.cls-3{letter-spacing:0em;}.cls-4{font-family:MarkOT-HairlineItalic, Mark OT;}.cls-13,.cls-24,.cls-4{font-style:italic;}.cls-5{letter-spacing:-0.07em;}.cls-6{letter-spacing:-0.02em;}.cls-7{letter-spacing:0em;}.cls-8{letter-spacing:-0.01em;}.cls-9{font-family:MarkOT-Thin, Mark OT;}.cls-10{letter-spacing:0em;}.cls-11{letter-spacing:-0.03em;}.cls-12{letter-spacing:0em;}.cls-13{font-family:MarkOT-ThinItalic, Mark OT;}.cls-14{letter-spacing:0em;}.cls-15{letter-spacing:-0.07em;}.cls-16{letter-spacing:-0.02em;}.cls-17{letter-spacing:-0.02em;}.cls-18{letter-spacing:-0.01em;}.cls-19{font-family:MarkOT-ExtraLight, Mark OT;}.cls-20{letter-spacing:0em;}.cls-21{letter-spacing:-0.03em;}.cls-22{letter-spacing:-0.02em;}.cls-23{letter-spacing:-0.01em;}.cls-24{font-family:MarkOT-ExtraLightItalic, Mark OT;}.cls-25{letter-spacing:-0.06em;}.cls-26{letter-spacing:-0.02em;}.cls-27{letter-spacing:0em;}.cls-28{letter-spacing:-0.01em;}.cls-29{letter-spacing:-0.02em;}.cls-30{letter-spacing:-0.01em;}</style></defs><title>Artboard 1</title><text class="cls-1" transform="translate(0 13.6)">Mark <tspan class="cls-2" x="42.8" y="0">OT</tspan><tspan class="cls-3" x="65.02" y="0" xml:space="preserve"> Hairline</tspan><tspan class="cls-4"><tspan x="0" y="30">Mark </tspan><tspan class="cls-5" x="41.76" y="30">O</tspan><tspan class="cls-6" x="53.9" y="30">T</tspan><tspan class="cls-7" x="63.19" y="30" xml:space="preserve"> Hairline I</tspan><tspan class="cls-8" x="130.4" y="30">t</tspan><tspan x="137.29" y="30">alic</tspan></tspan><tspan class="cls-9"><tspan x="0" y="60">Mar</tspan><tspan class="cls-10" x="30.85" y="60">k</tspan><tspan class="cls-3" x="38.88" y="60"> </tspan><tspan class="cls-11" x="43.06" y="60">OT </tspan><tspan class="cls-12" x="69.06" y="60">T</tspan><tspan x="78.75" y="60">hin</tspan></tspan><tspan class="cls-13"><tspan x="0" y="90">Mar</tspan><tspan class="cls-14" x="30.01" y="90">k</tspan><tspan class="cls-3" x="37.82" y="90"> </tspan><tspan class="cls-15" x="42" y="90">O</tspan><tspan class="cls-16" x="54.18" y="90">T</tspan><tspan class="cls-17" x="63.46" y="90"> </tspan><tspan x="67.34" y="90">Thin I</tspan><tspan class="cls-18" x="106.87" y="90">t</tspan><tspan x="113.77" y="90">alic</tspan></tspan><tspan class="cls-19"><tspan x="0" y="120">Mar</tspan><tspan class="cls-20" x="31.06" y="120">k</tspan><tspan x="39.2" y="120"> </tspan><tspan class="cls-21" x="43.41" y="120">OT</tspan><tspan class="cls-7" x="65.78" y="120" xml:space="preserve"> Ext</tspan><tspan class="cls-22" x="95.74" y="120">r</tspan><tspan x="101.77" y="120">a Lig</tspan><tspan class="cls-23" x="138.97" y="120">h</tspan><tspan class="cls-3" x="148.37" y="120">t</tspan></tspan><tspan class="cls-24"><tspan x="0" y="150">Mar</tspan><tspan class="cls-12" x="30.22" y="150">k</tspan><tspan class="cls-3" x="38.1" y="150"> </tspan><tspan class="cls-25" x="42.31" y="150">O</tspan><tspan class="cls-26" x="54.57" y="150">T</tspan><tspan class="cls-7" x="63.82" y="150" xml:space="preserve"> E</tspan><tspan class="cls-27" x="78.32" y="150">x</tspan><tspan x="85.98" y="150">t</tspan><tspan class="cls-28" x="93.06" y="150">r</tspan><tspan x="99.11" y="150">a Lig</tspan><tspan class="cls-29" x="135.45" y="150">h</tspan><tspan class="cls-7" x="144.49" y="150">t I</tspan><tspan class="cls-23" x="159.72" y="150">t</tspan><tspan class="cls-7" x="166.66" y="150">alic</tspan></tspan><tspan class="cls-19"><tspan x="0" y="180">Mar</tspan><tspan class="cls-20" x="31.06" y="180">k</tspan><tspan x="39.2" y="180"> </tspan><tspan class="cls-21" x="43.41" y="180">OT</tspan><tspan class="cls-7" x="65.78" y="180" xml:space="preserve"> Lig</tspan><tspan class="cls-30" x="93.04" y="180">h</tspan><tspan x="102.44" y="180">t</tspan></tspan></text></svg>