<svg id="Layer_1" data-name="Layer 1" xmlns="http://www.w3.org/2000/svg" viewBox="0 0 191.38 197.44"><defs><style>.cls-1{font-size:16px;fill:#231f20;font-family:MarkOT-Bold, Mark OT;}.cls-2,.cls-7{font-weight:700;}.cls-3{letter-spacing:-0.01em;}.cls-4{letter-spacing:-0.02em;}.cls-5{letter-spacing:-0.01em;}.cls-6{letter-spacing:0em;}.cls-7{font-family:MarkOT-BoldItalic, Mark OT;}.cls-17,.cls-29,.cls-7{font-style:italic;}.cls-8{letter-spacing:-0.01em;}.cls-9{letter-spacing:-0.05em;}.cls-10{letter-spacing:-0.02em;}.cls-11{letter-spacing:-0.01em;}.cls-12{font-family:MarkOT-Heavy, Mark OT;}.cls-13{letter-spacing:-0.01em;}.cls-14{letter-spacing:-0.03em;}.cls-15{letter-spacing:-0.01em;}.cls-16{letter-spacing:0.02em;}.cls-17{font-family:MarkOT-HeavyItalic, Mark OT;}.cls-18{letter-spacing:0em;}.cls-19{letter-spacing:-0.01em;}.cls-20{letter-spacing:0.01em;}.cls-21{letter-spacing:-0.02em;}.cls-22{letter-spacing:-0.02em;}.cls-23{letter-spacing:0em;}.cls-24{font-family:MarkOT-Black, Mark OT;}.cls-25{letter-spacing:0em;}.cls-26{letter-spacing:-0.03em;}.cls-27{letter-spacing:-0.01em;}.cls-28{letter-spacing:-0.01em;}.cls-29{font-family:MarkOT-BlackItalic, Mark OT;}.cls-30{letter-spacing:-0.01em;}.cls-31{letter-spacing:-0.02em;}.cls-32{font-family:MarkOT-Ultra, Mark OT;}.cls-33{letter-spacing:-0.02em;}</style></defs><title>Artboard 3</title><text class="cls-1" transform="translate(16.92 13.6)"><tspan class="cls-2">Mar<tspan class="cls-3" x="31.45" y="0">k</tspan><tspan x="40.08" y="0"> </tspan><tspan class="cls-4" x="44.04" y="0">O</tspan><tspan class="cls-5" x="56.95" y="0">T</tspan><tspan x="66.42" y="0"> </tspan><tspan class="cls-6" x="70.38" y="0">B</tspan><tspan x="81.48" y="0">old</tspan></tspan><tspan class="cls-7"><tspan x="0" y="30">Mar</tspan><tspan class="cls-8" x="30.72" y="30">k</tspan><tspan x="39.12" y="30"> </tspan><tspan class="cls-9" x="43.08" y="30">O</tspan><tspan class="cls-10" x="55.34" y="30">T</tspan><tspan x="64.62" y="30" xml:space="preserve"> Bold I</tspan><tspan class="cls-11" x="111.27" y="30">t</tspan><tspan x="118.49" y="30">alic</tspan></tspan><tspan class="cls-12"><tspan x="0" y="60">Mar</tspan><tspan class="cls-13" x="30.93" y="60">k</tspan><tspan x="39.66" y="60"> </tspan><tspan class="cls-14" x="43.26" y="60">O</tspan><tspan class="cls-15" x="55.76" y="60">T</tspan><tspan x="65.28" y="60" xml:space="preserve"> Hea</tspan><tspan class="cls-16" x="99.5" y="60">v</tspan><tspan class="cls-10" x="108.85" y="60">y</tspan></tspan><tspan class="cls-17"><tspan x="0" y="90">Mar</tspan><tspan class="cls-18" x="30.33" y="90">k</tspan><tspan x="38.96" y="90"> </tspan><tspan class="cls-9" x="42.55" y="90">O</tspan><tspan class="cls-19" x="54.54" y="90">T</tspan><tspan x="63.92" y="90" xml:space="preserve"> Hea</tspan><tspan class="cls-20" x="97.52" y="90">v</tspan><tspan class="cls-21" x="106.71" y="90">y</tspan><tspan x="115.72" y="90" xml:space="preserve"> I</tspan><tspan class="cls-22" x="123.99" y="90">t</tspan><tspan class="cls-23" x="131.36" y="90">alic</tspan></tspan><tspan class="cls-24"><tspan x="0" y="120">Mar</tspan><tspan class="cls-25" x="30.5" y="120">k</tspan><tspan class="cls-23" x="39.32" y="120"> </tspan><tspan class="cls-26" x="42.6" y="120">O</tspan><tspan class="cls-27" x="54.76" y="120">T</tspan><tspan x="64.33" y="120" xml:space="preserve"> Blac</tspan><tspan class="cls-28" x="100.52" y="120">k</tspan></tspan><tspan class="cls-29"><tspan x="0" y="150">Mark </tspan><tspan class="cls-9" x="42.11" y="150">O</tspan><tspan class="cls-30" x="53.86" y="150">T</tspan><tspan x="63.34" y="150" xml:space="preserve"> Black I</tspan><tspan class="cls-31" x="115.93" y="150">t</tspan><tspan x="123.43" y="150">alic</tspan></tspan><tspan class="cls-32"><tspan x="0" y="180">Mar</tspan><tspan class="cls-25" x="30.46" y="180">k</tspan><tspan class="cls-23" x="39.52" y="180"> </tspan><tspan class="cls-33" x="43.13" y="180">O</tspan><tspan class="cls-30" x="55.05" y="180">T</tspan><tspan x="64.8" y="180" xml:space="preserve"> Ult</tspan><tspan class="cls-25" x="91.84" y="180">r</tspan><tspan x="98.08" y="180">a</tspan></tspan></text></svg>