<svg id="Layer_1" data-name="Layer 1" xmlns="http://www.w3.org/2000/svg" viewBox="0 0 438.79 612"><defs><style>.cls-1{font-size:8px;}.cls-1,.cls-18{fill:#231f20;}.cls-1,.cls-27{font-family:MarkOT-Thin, Mark OT;}.cls-2{letter-spacing:0em;}.cls-3{letter-spacing:-0.03em;}.cls-4{letter-spacing:0em;}.cls-5{letter-spacing:0em;}.cls-6{letter-spacing:0em;}.cls-7{letter-spacing:-0.02em;}.cls-8{letter-spacing:-0.01em;}.cls-9{letter-spacing:-0.01em;}.cls-10{letter-spacing:-0.01em;}.cls-11{letter-spacing:0em;}.cls-12{letter-spacing:0.03em;}.cls-13{letter-spacing:-0.03em;}.cls-14{letter-spacing:0.03em;}.cls-15{letter-spacing:-0.03em;}.cls-16{letter-spacing:0em;}.cls-17{letter-spacing:-0.02em;}.cls-18{font-size:22px;font-family:MarkOT-Hairline, Mark OT;}.cls-19{letter-spacing:0em;}.cls-20{letter-spacing:-0.02em;}.cls-21{letter-spacing:-0.02em;}.cls-22{letter-spacing:-0.01em;}.cls-23{font-family:MarkOT-HairlineItalic, Mark OT;}.cls-23,.cls-30,.cls-38,.cls-47,.cls-55,.cls-62,.cls-68,.cls-75,.cls-83,.cls-90{font-style:italic;}.cls-24{letter-spacing:-0.03em;}.cls-25{letter-spacing:0em;}.cls-26{letter-spacing:-0.03em;}.cls-28{letter-spacing:0em;}.cls-29{letter-spacing:-0.01em;}.cls-30{font-family:MarkOT-ThinItalic, Mark OT;}.cls-31{letter-spacing:-0.03em;}.cls-32{letter-spacing:0em;}.cls-33{letter-spacing:-0.02em;}.cls-34{letter-spacing:-0.03em;}.cls-35{font-family:MarkOT-ExtraLight, Mark OT;}.cls-36{letter-spacing:0em;}.cls-37{letter-spacing:-0.01em;}.cls-38{font-family:MarkOT-ExtraLightItalic, Mark OT;}.cls-39{letter-spacing:-0.02em;}.cls-40{letter-spacing:0em;}.cls-41{letter-spacing:-0.02em;}.cls-42{letter-spacing:-0.03em;}.cls-43{font-family:MarkOT-Light, Mark OT;}.cls-44{letter-spacing:0em;}.cls-45{letter-spacing:0em;}.cls-46{letter-spacing:-0.01em;}.cls-47{font-family:MarkOT-LightItalic, Mark OT;}.cls-48{letter-spacing:0em;}.cls-49{letter-spacing:-0.02em;}.cls-50{letter-spacing:-0.02em;}.cls-51{font-family:MarkOT, Mark OT;}.cls-52{letter-spacing:0em;}.cls-53{letter-spacing:-0.02em;}.cls-54{letter-spacing:-0.01em;}.cls-55{font-family:MarkOT-Italic, Mark OT;}.cls-56{letter-spacing:-0.02em;}.cls-57{letter-spacing:0em;}.cls-58{letter-spacing:-0.03em;}.cls-59{letter-spacing:-0.02em;}.cls-60{font-family:MarkOT-Book, Mark OT;}.cls-61{letter-spacing:0em;}.cls-62{font-family:MarkOT-BookItalic, Mark OT;}.cls-63{letter-spacing:-0.03em;}.cls-64{letter-spacing:-0.02em;}.cls-65{font-family:MarkOT-Medium, Mark OT;}.cls-66{letter-spacing:-0.01em;}.cls-67{letter-spacing:0em;}.cls-68{font-family:MarkOT-MediumItalic, Mark OT;}.cls-69{letter-spacing:-0.03em;}.cls-70{letter-spacing:-0.02em;}.cls-71{font-family:MarkOT-Bold, Mark OT;}.cls-71,.cls-75{font-weight:700;}.cls-72{letter-spacing:0em;}.cls-73{letter-spacing:-0.02em;}.cls-74{letter-spacing:-0.01em;}.cls-75{font-family:MarkOT-BoldItalic, Mark OT;}.cls-76{letter-spacing:-0.02em;}.cls-77{letter-spacing:-0.02em;}.cls-78{font-family:MarkOT-Heavy, Mark OT;}.cls-79{letter-spacing:0em;}.cls-80{letter-spacing:-0.01em;}.cls-81{letter-spacing:-0.01em;}.cls-82{letter-spacing:0em;}.cls-83{font-family:MarkOT-HeavyItalic, Mark OT;}.cls-84{letter-spacing:-0.01em;}.cls-85{letter-spacing:-0.01em;}.cls-86{letter-spacing:-0.02em;}.cls-87{font-family:MarkOT-Black, Mark OT;}.cls-88{letter-spacing:0em;}.cls-89{letter-spacing:0em;}.cls-90{font-family:MarkOT-BlackItalic, Mark OT;}.cls-91{letter-spacing:-0.01em;}.cls-92{letter-spacing:-0.01em;}.cls-93{letter-spacing:-0.01em;}.cls-94{font-family:MarkOT-Ultra, Mark OT;}</style></defs><title>markot</title><text class="cls-1" transform="translate(40.62 16.2)">Mar<tspan class="cls-2" x="15.42" y="0">k</tspan><tspan x="19.44" y="0"> </tspan><tspan class="cls-3" x="21.53" y="0">OT</tspan><tspan x="32.67" y="0" xml:space="preserve"> Hairline</tspan><tspan x="-20.08" y="29">Mar</tspan><tspan class="cls-2" x="-4.66" y="29">k</tspan><tspan x="-0.64" y="29"> </tspan><tspan class="cls-3" x="1.45" y="29">OT</tspan><tspan x="12.58" y="29" xml:space="preserve"> Hairline I</tspan><tspan class="cls-4" x="47.35" y="29">t</tspan><tspan x="50.93" y="29">alic</tspan><tspan x="12.8" y="58">Mar</tspan><tspan class="cls-2" x="28.22" y="58">k</tspan><tspan x="32.24" y="58"> </tspan><tspan class="cls-3" x="34.33" y="58">OT </tspan><tspan class="cls-4" x="47.33" y="58">T</tspan><tspan class="cls-5" x="52.17" y="58">hin</tspan><tspan x="-7.28" y="87">Mar</tspan><tspan class="cls-2" x="8.14" y="87">k</tspan><tspan x="12.16" y="87"> </tspan><tspan class="cls-3" x="14.25" y="87">OT </tspan><tspan class="cls-6" x="27.25" y="87">T</tspan><tspan x="32.09" y="87">hin I</tspan><tspan class="cls-4" x="47.36" y="87">t</tspan><tspan x="50.93" y="87">alic</tspan><tspan x="-13.84" y="116">Mar</tspan><tspan class="cls-2" x="1.58" y="116">k</tspan><tspan x="5.6" y="116"> </tspan><tspan class="cls-3" x="7.69" y="116">OT</tspan><tspan class="cls-5" x="18.82" y="116" xml:space="preserve"> Ext</tspan><tspan class="cls-7" x="33.69" y="116">r</tspan><tspan x="36.64" y="116">a Lig</tspan><tspan class="cls-8" x="55.11" y="116">h</tspan><tspan x="59.79" y="116">t</tspan><tspan x="-33.93" y="145">Mar</tspan><tspan class="cls-2" x="-18.5" y="145">k</tspan><tspan x="-14.49" y="145"> </tspan><tspan class="cls-3" x="-12.4" y="145">OT</tspan><tspan x="-1.26" y="145" xml:space="preserve"> Ext</tspan><tspan class="cls-7" x="13.6" y="145">r</tspan><tspan x="16.55" y="145">a Lig</tspan><tspan class="cls-8" x="35.03" y="145">h</tspan><tspan x="39.71" y="145">t I</tspan><tspan class="cls-4" x="47.36" y="145">t</tspan><tspan x="50.93" y="145">alic</tspan><tspan x="8.94" y="174">Mar</tspan><tspan class="cls-2" x="24.36" y="174">k</tspan><tspan x="28.38" y="174"> </tspan><tspan class="cls-3" x="30.47" y="174">OT</tspan><tspan x="41.61" y="174" xml:space="preserve"> Lig</tspan><tspan class="cls-8" x="55.11" y="174">h</tspan><tspan x="59.79" y="174">t</tspan><tspan x="-11.14" y="203">Mar</tspan><tspan class="cls-2" x="4.28" y="203">k</tspan><tspan x="8.3" y="203"> </tspan><tspan class="cls-3" x="10.39" y="203">OT</tspan><tspan class="cls-5" x="21.52" y="203" xml:space="preserve"> Lig</tspan><tspan class="cls-8" x="35.03" y="203">h</tspan><tspan x="39.71" y="203">t I</tspan><tspan class="cls-4" x="47.36" y="203">t</tspan><tspan x="50.93" y="203">alic</tspan><tspan x="-0.37" y="232">Mar</tspan><tspan class="cls-2" x="15.05" y="232">k</tspan><tspan x="19.07" y="232"> </tspan><tspan class="cls-3" x="21.16" y="232">OT</tspan><tspan class="cls-5" x="32.29" y="232"> </tspan><tspan class="cls-9" x="34.39" y="232">R</tspan><tspan x="39.56" y="232">egula</tspan><tspan class="cls-10" x="60.41" y="232">r</tspan><tspan x="10.65" y="261">Mar</tspan><tspan class="cls-2" x="26.07" y="261">k</tspan><tspan x="30.09" y="261"> </tspan><tspan class="cls-3" x="32.18" y="261">OT</tspan><tspan x="43.32" y="261" xml:space="preserve"> I</tspan><tspan class="cls-6" x="47.35" y="261">t</tspan><tspan class="cls-11" x="50.93" y="261">alic</tspan><tspan x="9.69" y="290">Mar</tspan><tspan class="cls-2" x="25.12" y="290">k</tspan><tspan x="29.13" y="290"> </tspan><tspan class="cls-3" x="31.22" y="290">OT</tspan><tspan x="42.36" y="290" xml:space="preserve"> Boo</tspan><tspan class="cls-2" x="59.38" y="290">k</tspan><tspan x="-10.39" y="319">Mar</tspan><tspan class="cls-2" x="5.03" y="319">k</tspan><tspan x="9.05" y="319"> </tspan><tspan class="cls-3" x="11.14" y="319">OT</tspan><tspan class="cls-5" x="22.28" y="319" xml:space="preserve"> Boo</tspan><tspan class="cls-2" x="39.3" y="319">k</tspan><tspan x="43.32" y="319" xml:space="preserve"> I</tspan><tspan class="cls-4" x="47.36" y="319">t</tspan><tspan x="50.93" y="319">alic</tspan><tspan x="-2.43" y="348">Mar</tspan><tspan class="cls-2" x="12.99" y="348">k</tspan><tspan x="17.01" y="348"> </tspan><tspan class="cls-3" x="19.1" y="348">OT</tspan><tspan x="30.24" y="348" xml:space="preserve"> Medium</tspan><tspan x="-22.52" y="377">Mar</tspan><tspan class="cls-2" x="-7.09" y="377">k</tspan><tspan x="-3.08" y="377"> </tspan><tspan class="cls-3" x="-0.98" y="377">OT</tspan><tspan class="cls-5" x="10.15" y="377" xml:space="preserve"> Medium I</tspan><tspan class="cls-6" x="47.35" y="377">t</tspan><tspan class="cls-11" x="50.93" y="377">alic</tspan><tspan x="11.7" y="406">Mar</tspan><tspan class="cls-2" x="27.12" y="406">k</tspan><tspan x="31.14" y="406"> </tspan><tspan class="cls-3" x="33.23" y="406">OT</tspan><tspan x="44.36" y="406" xml:space="preserve"> Bold</tspan><tspan x="-8.39" y="435">Mar</tspan><tspan class="cls-2" x="7.04" y="435">k</tspan><tspan x="11.05" y="435"> </tspan><tspan class="cls-3" x="13.14" y="435">OT</tspan><tspan class="cls-5" x="24.28" y="435" xml:space="preserve"> Bold I</tspan><tspan class="cls-6" x="47.35" y="435">t</tspan><tspan class="cls-11" x="50.93" y="435">alic</tspan><tspan x="5.1" y="464">Mar</tspan><tspan class="cls-2" x="20.52" y="464">k</tspan><tspan x="24.54" y="464"> </tspan><tspan class="cls-3" x="26.63" y="464">OT</tspan><tspan x="37.77" y="464" xml:space="preserve"> Hea</tspan><tspan class="cls-12" x="55.5" y="464">v</tspan><tspan class="cls-13" x="59.74" y="464">y</tspan><tspan x="-14.98" y="493">Mar</tspan><tspan class="cls-2" x="0.44" y="493">k</tspan><tspan x="4.46" y="493"> </tspan><tspan class="cls-3" x="6.55" y="493">OT</tspan><tspan class="cls-5" x="17.68" y="493" xml:space="preserve"> Hea</tspan><tspan class="cls-14" x="35.42" y="493">v</tspan><tspan class="cls-15" x="39.66" y="493">y</tspan><tspan x="43.32" y="493" xml:space="preserve"> I</tspan><tspan class="cls-4" x="47.36" y="493">t</tspan><tspan x="50.93" y="493">alic</tspan><tspan x="8.28" y="522">Mar</tspan><tspan class="cls-2" x="23.7" y="522">k</tspan><tspan x="27.72" y="522"> </tspan><tspan class="cls-3" x="29.81" y="522">OT</tspan><tspan x="40.94" y="522" xml:space="preserve"> Blac</tspan><tspan class="cls-16" x="59.38" y="522">k</tspan><tspan x="-11.81" y="551">Mar</tspan><tspan class="cls-2" x="3.62" y="551">k</tspan><tspan x="7.63" y="551"> </tspan><tspan class="cls-3" x="9.72" y="551">OT</tspan><tspan class="cls-5" x="20.86" y="551" xml:space="preserve"> Blac</tspan><tspan class="cls-2" x="39.3" y="551">k</tspan><tspan x="43.32" y="551" xml:space="preserve"> I</tspan><tspan class="cls-6" x="47.35" y="551">t</tspan><tspan class="cls-11" x="50.93" y="551">alic</tspan><tspan x="9.44" y="580">Mar</tspan><tspan class="cls-2" x="24.86" y="580">k</tspan><tspan x="28.88" y="580"> </tspan><tspan class="cls-3" x="30.97" y="580">OT</tspan><tspan x="42.11" y="580" xml:space="preserve"> Ult</tspan><tspan class="cls-17" x="55.48" y="580">r</tspan><tspan class="cls-5" x="58.43" y="580">a</tspan></text><text class="cls-18" transform="translate(122.88 21.1)"><tspan class="cls-19">L</tspan><tspan x="12.84" y="0">o</tspan><tspan class="cls-20" x="25.6" y="0">r</tspan><tspan x="33.57" y="0">em ipsum dolo</tspan><tspan class="cls-21" x="185.82" y="0">r</tspan><tspan x="193.91" y="0" xml:space="preserve"> sit am</tspan><tspan class="cls-22" x="265.43" y="0">e</tspan><tspan x="277.66" y="0">t</tspan><tspan class="cls-23"><tspan class="cls-24" x="0" y="29">L</tspan><tspan x="11.94" y="29">o</tspan><tspan class="cls-19" x="24.46" y="29">r</tspan><tspan class="cls-25" x="32.46" y="29">em ip</tspan><tspan class="cls-19" x="89.23" y="29">s</tspan><tspan class="cls-25" x="99.46" y="29">um dolo</tspan><tspan class="cls-21" x="182.17" y="29">r</tspan><tspan x="189.95" y="29" xml:space="preserve"> sit am</tspan><tspan class="cls-26" x="260.58" y="29">e</tspan><tspan x="271.81" y="29">t</tspan></tspan><tspan class="cls-27"><tspan class="cls-28" x="0" y="58">L</tspan><tspan x="12.93" y="58">o</tspan><tspan class="cls-20" x="25.77" y="58">r</tspan><tspan class="cls-25" x="33.88" y="58">em ipsum dolo</tspan><tspan class="cls-29" x="186.68" y="58">r</tspan><tspan class="cls-25" x="194.91" y="58" xml:space="preserve"> sit am</tspan><tspan class="cls-22" x="266.69" y="58">e</tspan><tspan x="278.93" y="58">t</tspan></tspan><tspan class="cls-30"><tspan class="cls-31" x="0" y="87">L</tspan><tspan x="12.06" y="87">o</tspan><tspan class="cls-32" x="24.65" y="87">r</tspan><tspan x="32.78" y="87">em ip</tspan><tspan class="cls-28" x="89.62" y="87">s</tspan><tspan x="99.88" y="87">um dolo</tspan><tspan class="cls-33" x="182.83" y="87">r</tspan><tspan x="190.69" y="87" xml:space="preserve"> sit am</tspan><tspan class="cls-34" x="261.48" y="87">e</tspan><tspan x="272.73" y="87">t</tspan></tspan><tspan class="cls-35"><tspan class="cls-36" x="0" y="116">L</tspan><tspan x="13.05" y="116">o</tspan><tspan class="cls-20" x="26" y="116">r</tspan><tspan class="cls-25" x="34.29" y="116">em ipsum dolo</tspan><tspan class="cls-37" x="187.76" y="116">r</tspan><tspan x="196.18" y="116" xml:space="preserve"> sit am</tspan><tspan class="cls-32" x="268.3" y="116">e</tspan><tspan x="280.54" y="116">t</tspan></tspan><tspan class="cls-38"><tspan class="cls-39" x="0" y="145">L</tspan><tspan x="12.25" y="145">o</tspan><tspan class="cls-32" x="24.93" y="145">r</tspan><tspan x="33.24" y="145">em ip</tspan><tspan class="cls-40" x="90.17" y="145">s</tspan><tspan x="100.5" y="145">um dolo</tspan><tspan class="cls-41" x="183.69" y="145">r</tspan><tspan x="191.68" y="145" xml:space="preserve"> sit am</tspan><tspan class="cls-42" x="262.65" y="145">e</tspan><tspan x="273.96" y="145">t</tspan></tspan><tspan class="cls-43"><tspan class="cls-44" x="0" y="174">L</tspan><tspan x="13.19" y="174">o</tspan><tspan class="cls-20" x="26.3" y="174">r</tspan><tspan class="cls-45" x="34.81" y="174">em ipsum dolo</tspan><tspan class="cls-46" x="189.12" y="174">r</tspan><tspan x="197.81" y="174" xml:space="preserve"> sit am</tspan><tspan class="cls-22" x="270.29" y="174">e</tspan><tspan x="282.51" y="174">t</tspan></tspan><tspan class="cls-47"><tspan class="cls-41" x="0" y="203">L</tspan><tspan x="12.49" y="203">o</tspan><tspan class="cls-19" x="25.27" y="203">r</tspan><tspan class="cls-25" x="33.83" y="203">em ip</tspan><tspan class="cls-48" x="90.86" y="203">s</tspan><tspan class="cls-25" x="101.25" y="203">um dolo</tspan><tspan class="cls-49" x="184.79" y="203">r</tspan><tspan class="cls-25" x="192.96" y="203" xml:space="preserve"> sit am</tspan><tspan class="cls-50" x="264.16" y="203">e</tspan><tspan x="275.5" y="203">t</tspan></tspan><tspan class="cls-51"><tspan class="cls-52" x="0" y="232">L</tspan><tspan class="cls-25" x="13.31" y="232">o</tspan><tspan class="cls-53" x="26.54" y="232">r</tspan><tspan x="35.23" y="232">em ipsum dolo</tspan><tspan class="cls-54" x="190.22" y="232">r</tspan><tspan x="199.1" y="232" xml:space="preserve"> sit am</tspan><tspan class="cls-22" x="271.93" y="232">e</tspan><tspan x="284.15" y="232">t</tspan></tspan><tspan class="cls-55"><tspan class="cls-56" x="0" y="261">L</tspan><tspan class="cls-45" x="12.67" y="261">o</tspan><tspan class="cls-19" x="25.54" y="261">r</tspan><tspan x="34.28" y="261">em ip</tspan><tspan class="cls-57" x="91.41" y="261">s</tspan><tspan class="cls-45" x="101.86" y="261">um dolo</tspan><tspan class="cls-58" x="185.7" y="261">r</tspan><tspan x="193.98" y="261" xml:space="preserve"> sit am</tspan><tspan class="cls-59" x="265.42" y="261">e</tspan><tspan x="276.82" y="261">t</tspan></tspan><tspan class="cls-60"><tspan class="cls-61" x="0" y="290">L</tspan><tspan x="13.36" y="290">o</tspan><tspan class="cls-53" x="26.64" y="290">r</tspan><tspan x="35.42" y="290">em ipsum dolo</tspan><tspan class="cls-9" x="190.79" y="290">r</tspan><tspan x="199.77" y="290" xml:space="preserve"> sit am</tspan><tspan class="cls-22" x="272.78" y="290">e</tspan><tspan x="285" y="290">t</tspan></tspan><tspan class="cls-62"><tspan class="cls-29" x="0" y="319">L</tspan><tspan class="cls-45" x="12.74" y="319">o</tspan><tspan class="cls-19" x="25.65" y="319">r</tspan><tspan x="34.47" y="319">em ip</tspan><tspan class="cls-61" x="91.63" y="319">s</tspan><tspan x="102.11" y="319">um dolo</tspan><tspan class="cls-63" x="186.08" y="319">r</tspan><tspan x="194.43" y="319" xml:space="preserve"> sit am</tspan><tspan class="cls-64" x="265.9" y="319">e</tspan><tspan x="277.32" y="319">t</tspan></tspan><tspan class="cls-65"><tspan x="0" y="348">Lo</tspan><tspan class="cls-53" x="26.95" y="348">r</tspan><tspan x="35.96" y="348">em ipsum dolo</tspan><tspan class="cls-66" x="192.16" y="348">r</tspan><tspan class="cls-25" x="201.39" y="348" xml:space="preserve"> sit am</tspan><tspan class="cls-32" x="274.81" y="348">e</tspan><tspan class="cls-67" x="287.02" y="348">t</tspan></tspan><tspan class="cls-68"><tspan class="cls-66" x="0" y="377">L</tspan><tspan x="12.98" y="377">o</tspan><tspan class="cls-19" x="26" y="377">r</tspan><tspan x="35.07" y="377">em ipsum dolo</tspan><tspan class="cls-69" x="187.24" y="377">r</tspan><tspan class="cls-25" x="195.75" y="377" xml:space="preserve"> sit am</tspan><tspan class="cls-70" x="267.48" y="377">e</tspan><tspan x="278.97" y="377">t</tspan></tspan><tspan class="cls-71"><tspan class="cls-72" x="0" y="406">L</tspan><tspan x="13.34" y="406">o</tspan><tspan class="cls-73" x="26.55" y="406">r</tspan><tspan x="35.43" y="406">em i</tspan><tspan class="cls-40" x="79.21" y="406">p</tspan><tspan class="cls-57" x="92.63" y="406">s</tspan><tspan x="103.75" y="406">um dolo</tspan><tspan class="cls-74" x="188.13" y="406">r</tspan><tspan x="197.23" y="406" xml:space="preserve"> sit am</tspan><tspan class="cls-22" x="269.12" y="406">e</tspan><tspan x="281.27" y="406">t</tspan></tspan><tspan class="cls-75"><tspan class="cls-54" x="0" y="435">L</tspan><tspan x="12.77" y="435">o</tspan><tspan class="cls-40" x="25.65" y="435">r</tspan><tspan x="34.56" y="435">em i</tspan><tspan class="cls-57" x="77.43" y="435">p</tspan><tspan class="cls-28" x="90.61" y="435">s</tspan><tspan x="101.14" y="435">um dolo</tspan><tspan class="cls-76" x="183.88" y="435">r</tspan><tspan x="192.43" y="435" xml:space="preserve"> sit am</tspan><tspan class="cls-77" x="262.93" y="435">e</tspan><tspan x="274.36" y="435">t</tspan></tspan><tspan class="cls-78"><tspan class="cls-79" x="0" y="464">L</tspan><tspan x="13.17" y="464">o</tspan><tspan class="cls-80" x="26.16" y="464">r</tspan><tspan class="cls-25" x="34.9" y="464">em i</tspan><tspan class="cls-81" x="77.49" y="464">p</tspan><tspan class="cls-36" x="90.63" y="464">s</tspan><tspan class="cls-45" x="101.74" y="464">um dolo</tspan><tspan class="cls-82" x="184.06" y="464">r</tspan><tspan class="cls-25" x="193.03" y="464" xml:space="preserve"> sit am</tspan><tspan class="cls-32" x="263.37" y="464">e</tspan><tspan x="275.47" y="464">t</tspan></tspan><tspan class="cls-83"><tspan class="cls-37" x="0" y="493">L</tspan><tspan x="12.54" y="493">o</tspan><tspan class="cls-52" x="25.28" y="493">r</tspan><tspan x="34.04" y="493">em i</tspan><tspan class="cls-36" x="75.79" y="493">p</tspan><tspan class="cls-84" x="88.79" y="493">s</tspan><tspan x="99.32" y="493">um dolo</tspan><tspan class="cls-85" x="180.37" y="493">r</tspan><tspan class="cls-45" x="188.97" y="493" xml:space="preserve"> sit am</tspan><tspan class="cls-86" x="258.19" y="493">e</tspan><tspan x="269.56" y="493">t</tspan></tspan><tspan class="cls-87"><tspan class="cls-88" x="0" y="522">L</tspan><tspan x="13.02" y="522">o</tspan><tspan class="cls-66" x="25.83" y="522">r</tspan><tspan class="cls-25" x="34.46" y="522">em i</tspan><tspan class="cls-66" x="76.05" y="522">p</tspan><tspan class="cls-19" x="88.93" y="522">s</tspan><tspan x="100.04" y="522">um dolor sit am</tspan><tspan class="cls-22" x="258.57" y="522">e</tspan><tspan class="cls-89" x="270.63" y="522">t</tspan></tspan><tspan class="cls-90"><tspan class="cls-91" x="0" y="551">L</tspan><tspan x="12.35" y="551">orem i</tspan><tspan class="cls-19" x="74.41" y="551">p</tspan><tspan class="cls-92" x="87.28" y="551">s</tspan><tspan x="97.81" y="551">um dolor sit am</tspan><tspan class="cls-93" x="254.26" y="551">e</tspan><tspan x="265.58" y="551">t</tspan></tspan><tspan class="cls-94"><tspan class="cls-88" x="0" y="580">L</tspan><tspan x="12.76" y="580">o</tspan><tspan class="cls-19" x="25.48" y="580">r</tspan><tspan class="cls-25" x="34.06" y="580">em ipsum dolor sit am</tspan><tspan class="cls-32" x="258.4" y="580">e</tspan><tspan x="270.45" y="580">t</tspan></tspan></text></svg>