<svg id="Layer_1" data-name="Layer 1" xmlns="http://www.w3.org/2000/svg" viewBox="0 0 113.2 286.46"><defs><style>.cls-1{fill:#231f20;}</style></defs><title>markotcondensed</title><path class="cls-1" d="M5.73,10.2H5.67V2L3.35,7.22H3.29L1,2V10.2H.91V1.79H1L3.32,7.13,5.67,1.79h.05Z"/><path class="cls-1" d="M10.21,10.2h-.06V8.32c-.18,1.24-.76,1.91-1.58,1.91-1,0-1.64-1-1.64-2.79s.63-2.79,1.64-2.79c.83,0,1.4.68,1.58,1.91V4.67h.06ZM7,7.44c0,1.76.61,2.73,1.58,2.73s1.58-1,1.58-2.73S9.53,4.7,8.57,4.7,7,5.67,7,7.44Z"/><path class="cls-1" d="M13.5,4.8l0,0a1.1,1.1,0,0,0-.59-.15c-.69,0-1.15.65-1.15,1.54v4h-.06V4.67h.06v1a1.22,1.22,0,0,1,1.15-1.07A1.16,1.16,0,0,1,13.5,4.8Z"/><path class="cls-1" d="M14.5,7.26h.61l1.83-2.58H17L15.16,7.29l1.89,2.91H17L15.11,7.32H14.5V10.2h-.06V1.56h.06Z"/><path class="cls-1" d="M24.4,6c0,2.81-.93,4.23-2.37,4.23S19.67,8.81,19.67,6,20.59,1.77,22,1.77,24.4,3.18,24.4,6ZM19.73,6c0,2.78.91,4.17,2.31,4.17S24.34,8.78,24.34,6,23.43,1.83,22,1.83,19.73,3.22,19.73,6Z"/><path class="cls-1" d="M28.75,1.86h-2V10.2h-.06V1.86h-2V1.8h4Z"/><path class="cls-1" d="M35.25,3.8l-.05,0c-.31-1.28-1-2-1.88-2C31.94,1.83,31,3.22,31,6s.9,4.16,2.29,4.16c.88,0,1.56-.7,1.88-2h.05c-.31,1.31-1,2-1.93,2C31.9,10.23,31,8.83,31,6s.92-4.23,2.34-4.23C34.23,1.77,34.94,2.49,35.25,3.8Z"/><path class="cls-1" d="M39.33,7.44c0,1.79-.64,2.79-1.64,2.79s-1.64-1-1.64-2.79.63-2.79,1.64-2.79S39.33,5.64,39.33,7.44Zm-3.22,0c0,1.76.61,2.73,1.58,2.73s1.58-1,1.58-2.73S38.66,4.7,37.69,4.7,36.11,5.67,36.11,7.44Z"/><path class="cls-1" d="M43.31,6.21v4h-.06v-4c0-.94-.49-1.51-1.36-1.51a1.43,1.43,0,0,0-1.37,1.49v4h-.06V4.67h.06V5.78a1.43,1.43,0,0,1,1.37-1.14A1.37,1.37,0,0,1,43.31,6.21Z"/><path class="cls-1" d="M47.62,6.55v-5h.06V10.2h-.06V8.32c-.18,1.24-.76,1.91-1.58,1.91-1,0-1.64-1-1.64-2.79S45,4.64,46,4.64C46.86,4.64,47.44,5.32,47.62,6.55Zm-3.16.88c0,1.76.61,2.73,1.58,2.73s1.58-1,1.58-2.73S47,4.7,46,4.7,44.46,5.67,44.46,7.44Z"/><path class="cls-1" d="M51.09,5.94h3.68V1.8h.06v8.4h-.06V6H51.09v4.2H51V1.8h.06Z"/><path class="cls-1" d="M59.31,10.2h-.06V8.32c-.18,1.24-.76,1.91-1.58,1.91-1,0-1.64-1-1.64-2.79s.63-2.79,1.64-2.79c.83,0,1.4.68,1.58,1.91V4.67h.06ZM56.09,7.44c0,1.76.61,2.73,1.58,2.73s1.58-1,1.58-2.73S58.63,4.7,57.66,4.7,56.09,5.67,56.09,7.44Z"/><path class="cls-1" d="M60.81,10.2h-.06V4.67h.06Zm0-7.23h-.06V2.28h.06Z"/><path class="cls-1" d="M64.11,4.8l0,0a1.1,1.1,0,0,0-.59-.15c-.69,0-1.15.65-1.15,1.54v4h-.06V4.67h.06v1a1.22,1.22,0,0,1,1.15-1.07A1.16,1.16,0,0,1,64.11,4.8Z"/><path class="cls-1" d="M65.1,10.2H65V1.56h.06Z"/><path class="cls-1" d="M66.61,10.2h-.06V4.67h.06Zm0-7.23h-.06V2.28h.06Z"/><path class="cls-1" d="M70.9,6.21v4h-.06v-4c0-.94-.49-1.51-1.36-1.51a1.43,1.43,0,0,0-1.37,1.49v4h-.06V4.67h.06V5.78a1.43,1.43,0,0,1,1.37-1.14A1.37,1.37,0,0,1,70.9,6.21Z"/><path class="cls-1" d="M75.18,7.34v.05H72.06v0c0,1.83.58,2.73,1.58,2.73A1.44,1.44,0,0,0,75,9.38l0,0a1.52,1.52,0,0,1-1.36.82c-1,0-1.64-.93-1.64-2.79s.62-2.79,1.62-2.79S75.16,5.55,75.18,7.34Zm-3.12,0h3.06c0-1.76-.58-2.63-1.5-2.63S72.08,5.59,72.06,7.33Z"/><path class="cls-1" d="M1.9,16.19H2l1.31,5.34,3.2-5.34h.06L5,24.6H5l1.45-8.23L3.28,21.62H3.22l-1.3-5.26L.47,24.6H.41Z"/><path class="cls-1" d="M9.37,24.6H9.31l.32-1.81c-.4,1.19-1,1.83-1.83,1.83S6.61,24,6.61,22.88a5.81,5.81,0,0,1,.1-1.06C7,20,7.81,19,8.78,19c.78,0,1.22.67,1.19,1.87l.32-1.84h.06Zm-2.6-2.76a6.37,6.37,0,0,0-.1,1c0,1.09.41,1.68,1.13,1.68.89,0,1.67-1,2-2.56l0-.16c.33-1.78-.1-2.75-1-2.75S7.08,20.08,6.77,21.84Z"/><path class="cls-1" d="M13.53,19.2l0,0a1,1,0,0,0-.55-.14c-.67,0-1.23.65-1.39,1.54l-.7,4h-.06l1-5.53h.06l-.18,1a1.48,1.48,0,0,1,1.28-1A1,1,0,0,1,13.53,19.2Z"/><path class="cls-1" d="M15,16h.06l-1,5.69h.58l2.21-2.58H17l-2.24,2.61L16,24.6H16l-1.3-2.88h-.58l-.51,2.88h-.06Z"/><path class="cls-1" d="M23.7,20.41c-.4,2.81-1.49,4.22-2.87,4.22-1.12,0-1.79-.93-1.79-2.78a10.16,10.16,0,0,1,.11-1.46c.4-2.81,1.49-4.22,2.87-4.22S24.1,17.59,23.7,20.41Zm-4.49,0a9.93,9.93,0,0,0-.11,1.44c0,1.82.65,2.72,1.73,2.72,1.34,0,2.42-1.39,2.81-4.17s-.28-4.16-1.62-4.16S19.61,17.63,19.22,20.41Z"/><path class="cls-1" d="M28.73,16.26H26.82L25.35,24.6h-.06l1.47-8.34h-1.9V16.2h3.86Z"/><path class="cls-1" d="M34.75,18.2H34.7c-.07-1.29-.61-2-1.45-2-1.33,0-2.44,1.39-2.93,4.17a9.82,9.82,0,0,0-.17,1.7c0,1.64.61,2.46,1.63,2.46.85,0,1.63-.7,2.15-2l.05,0c-.53,1.31-1.34,2-2.21,2-1.06,0-1.67-.83-1.67-2.51a10,10,0,0,1,.17-1.72c.5-2.82,1.63-4.23,3-4.23C34.13,16.17,34.68,16.89,34.75,18.2Z"/><path class="cls-1" d="M38.06,21.84c-.25,1.79-1,2.79-2,2.79-.79,0-1.25-.67-1.25-1.89a6.33,6.33,0,0,1,.07-.91c.26-1.79,1-2.79,2-2.79S38.31,20,38.06,21.84Zm-3.09,0a6.17,6.17,0,0,0-.07.89c0,1.19.44,1.83,1.19,1.83.93,0,1.67-1,1.91-2.74s-.2-2.73-1.13-2.73S35.22,20.08,35,21.84Z"/><path class="cls-1" d="M42.14,20.61l-.7,4h-.06l.71-4c.17-.94-.2-1.5-1-1.5a1.78,1.78,0,0,0-1.59,1.56l-.69,3.94H38.7l1-5.53h.06l-.19,1.09A1.72,1.72,0,0,1,41,19C41.89,19,42.31,19.61,42.14,20.61Z"/><path class="cls-1" d="M46.25,20.91,47.12,16h.06L45.66,24.6H45.6l.32-1.81c-.4,1.19-1,1.83-1.83,1.83s-1.19-.62-1.19-1.74a5.81,5.81,0,0,1,.1-1.06C43.31,20,44.09,19,45.06,19,45.84,19,46.28,19.71,46.25,20.91Zm-3.2.93a6.37,6.37,0,0,0-.1,1c0,1.09.41,1.68,1.13,1.68s1.6-.87,1.94-2.44l.06-.31c.31-1.75-.11-2.73-1-2.73S43.37,20.08,43.06,21.84Z"/><path class="cls-1" d="M49.8,20.34h3.53l.73-4.14h.06l-1.48,8.4h-.06l.74-4.2H49.79L49,24.6H49l1.48-8.4h.06Z"/><path class="cls-1" d="M57,24.6H56.9l.32-1.81c-.4,1.19-1,1.83-1.83,1.83S54.2,24,54.2,22.88a5.81,5.81,0,0,1,.1-1.06C54.62,20,55.4,19,56.37,19c.78,0,1.22.67,1.19,1.87l.32-1.84h.06Zm-2.6-2.76a6.37,6.37,0,0,0-.1,1c0,1.09.41,1.68,1.13,1.68.89,0,1.67-1,2-2.56l0-.16c.33-1.78-.1-2.75-1-2.75S54.67,20.08,54.36,21.84Z"/><path class="cls-1" d="M58.46,24.6H58.4l1-5.53h.06Zm1.25-7.23h-.06l.13-.68h.06Z"/><path class="cls-1" d="M62.62,19.2l0,0A1,1,0,0,0,62,19.1c-.67,0-1.23.65-1.39,1.54l-.7,4h-.06l1-5.53h.06l-.18,1A1.48,1.48,0,0,1,62,19,1,1,0,0,1,62.62,19.2Z"/><path class="cls-1" d="M62.66,24.6H62.6L64.12,16h.06Z"/><path class="cls-1" d="M64.14,24.6h-.06l1-5.53h.06Zm1.25-7.23h-.06l.13-.68h.06Z"/><path class="cls-1" d="M69,20.61l-.7,4h-.06l.71-4c.17-.94-.2-1.5-1-1.5a1.78,1.78,0,0,0-1.59,1.56l-.69,3.94h-.06l1-5.53h.06l-.19,1.09A1.72,1.72,0,0,1,67.92,19C68.77,19,69.19,19.61,69,20.61Z"/><path class="cls-1" d="M73,21.75s0,0,0,0h-3a7.89,7.89,0,0,0-.08,1c0,1.19.43,1.78,1.21,1.78a1.63,1.63,0,0,0,1.37-.79l0,0a1.71,1.71,0,0,1-1.42.82c-.81,0-1.26-.61-1.26-1.83a7.2,7.2,0,0,1,.07-1c.26-1.85,1-2.79,2-2.79S73.2,20,73,21.75Zm-3,0h2.94c.23-1.75-.18-2.63-1.06-2.63S70.22,20,70,21.73Z"/><path class="cls-1" d="M75.53,24.6h-.06l1.48-8.4H77Z"/><path class="cls-1" d="M80.1,19.13H78.47l-.77,4.4c-.12.68.14,1,.7,1a1.26,1.26,0,0,0,.88-.38l0,0a1.32,1.32,0,0,1-.92.4c-.59,0-.88-.39-.76-1.1l.77-4.4h-.94v-.06h.94l.26-1.5h.05l-.26,1.5h1.63Z"/><path class="cls-1" d="M82.95,24.6h-.06l.32-1.81c-.4,1.19-1,1.83-1.83,1.83s-1.19-.62-1.19-1.74a5.81,5.81,0,0,1,.1-1.06C80.6,20,81.38,19,82.35,19c.78,0,1.22.67,1.19,1.87l.32-1.84h.06Zm-2.6-2.76a6.37,6.37,0,0,0-.1,1c0,1.09.41,1.68,1.13,1.68.89,0,1.67-1,2-2.56l0-.16c.33-1.78-.1-2.75-1-2.75S80.66,20.08,80.34,21.84Z"/><path class="cls-1" d="M84.44,24.6h-.06L85.91,16H86Z"/><path class="cls-1" d="M85.93,24.6h-.06l1-5.53h.06Zm1.25-7.23h-.06l.13-.68h.06Z"/><path class="cls-1" d="M90.55,19.87l-.05,0a1,1,0,0,0-1-.79c-.92,0-1.64,1-1.9,2.74a6.31,6.31,0,0,0-.07.9c0,1.19.44,1.83,1.18,1.83a1.46,1.46,0,0,0,1.22-.79l.05,0a1.53,1.53,0,0,1-1.28.82c-.79,0-1.24-.67-1.24-1.89a6.41,6.41,0,0,1,.07-.91c.26-1.79,1-2.79,2-2.79A1.07,1.07,0,0,1,90.55,19.87Z"/><path class="cls-1" d="M5.93,39h-.2V31L3.51,36.11H3.32L1.1,31v8H.9V30.6h.25l2.26,5.23L5.68,30.6h.25Z"/><path class="cls-1" d="M10.5,39h-.19V37.56c-.25.95-.78,1.48-1.52,1.48-1,0-1.7-1-1.7-2.82s.66-2.82,1.7-2.82c.74,0,1.28.53,1.52,1.48V33.44h.19ZM7.29,36.22c0,1.7.59,2.64,1.52,2.64s1.52-.94,1.52-2.64c0-.08,0-.16,0-.31-.07-1.5-.64-2.33-1.51-2.33S7.29,34.52,7.29,36.22Z"/><path class="cls-1" d="M13.88,33.55l-.07.18a1.2,1.2,0,0,0-.58-.14c-.64,0-1.07.55-1.12,1.34V39h-.19V33.44h.19v.85a1.2,1.2,0,0,1,1.14-.89A1.22,1.22,0,0,1,13.88,33.55Z"/><path class="cls-1" d="M15,36h.58l1.76-2.54h.23l-1.83,2.63L17.59,39h-.22l-1.81-2.83H15V39h-.19V30.36H15Z"/><path class="cls-1" d="M25,34.8C25,37.6,24.1,39,22.61,39s-2.43-1.44-2.43-4.24.94-4.24,2.43-4.24S25,32,25,34.8Zm-4.67,0c0,2.69.88,4,2.23,4s2.23-1.34,2.23-4-.88-4-2.23-4S20.38,32.11,20.38,34.8Z"/><path class="cls-1" d="M29.5,30.8h-2V39h-.2V30.8h-2V30.6H29.5Z"/><path class="cls-1" d="M36.15,32.55l-.18.07c-.31-1.21-1-1.86-1.81-1.86-1.34,0-2.2,1.34-2.2,4s.87,4,2.2,4c.85,0,1.5-.65,1.81-1.86l.18.07c-.33,1.29-1,2-2,2-1.47,0-2.41-1.42-2.41-4.23s.94-4.25,2.41-4.25C35.1,30.56,35.82,31.26,36.15,32.55Z"/><path class="cls-1" d="M40.32,36.22c0,1.8-.66,2.82-1.72,2.82s-1.7-1-1.7-2.82.66-2.82,1.7-2.82S40.32,34.42,40.32,36.22Zm-3.22,0c0,1.7.59,2.63,1.51,2.63s1.52-.94,1.52-2.63-.59-2.63-1.52-2.63S37.1,34.53,37.1,36.22Z"/><path class="cls-1" d="M44.42,35v4h-.19V35c0-.91-.47-1.44-1.3-1.44A1.37,1.37,0,0,0,41.62,35v4h-.19V33.44h.19v.92a1.4,1.4,0,0,1,1.33-1A1.42,1.42,0,0,1,44.42,35Z"/><path class="cls-1" d="M48.7,34.88V30.36h.19V39H48.7V37.56c-.25.95-.78,1.48-1.52,1.48-1,0-1.7-1-1.7-2.82s.66-2.82,1.7-2.82C47.92,33.4,48.45,33.93,48.7,34.88Zm-3,1.34c0,1.7.59,2.64,1.52,2.64s1.52-.94,1.52-2.64c0-1.52-.5-2.63-1.52-2.63S45.67,34.52,45.67,36.22Z"/><path class="cls-1" d="M55.4,30.8h-2V39h-.2V30.8h-2V30.6H55.4Z"/><path class="cls-1" d="M56.22,34.33a1.39,1.39,0,0,1,1.31-.93A1.43,1.43,0,0,1,59,35v4h-.19V35c0-.91-.47-1.44-1.3-1.44a1.35,1.35,0,0,0-1.3,1.34V39H56V30.36h.19Z"/><path class="cls-1" d="M60.58,31v.76h-.2V31Zm0,8h-.19V33.44h.19Z"/><path class="cls-1" d="M65,35v4h-.19V35c0-.91-.47-1.44-1.3-1.44A1.37,1.37,0,0,0,62.18,35v4H62V33.44h.19v.92a1.4,1.4,0,0,1,1.33-1A1.42,1.42,0,0,1,65,35Z"/><path class="cls-1" d="M1.88,45h.25l1.25,5.24L6.48,45h.25L5.25,53.4h-.2l1.42-8-3,5.14H3.24L2,45.38.6,53.4H.4Z"/><path class="cls-1" d="M9.68,53.4H9.5L9.74,52c-.4.91-1,1.42-1.68,1.42S6.8,52.8,6.8,51.63a6,6,0,0,1,.1-1C7.21,48.81,8,47.81,9,47.81c.71,0,1.14.52,1.21,1.46l.25-1.43h.19Zm-2.6-2.78c-.29,1.7.11,2.64,1,2.64s1.63-1,1.91-2.63S9.87,48,9,48,7.37,48.93,7.08,50.62Z"/><path class="cls-1" d="M13.95,48l-.09.17a.93.93,0,0,0-.52-.14c-.62,0-1.15.55-1.34,1.34l-.71,4.07h-.19l1-5.56h.19l-.16.84a1.44,1.44,0,0,1,1.26-.88A1,1,0,0,1,13.95,48Z"/><path class="cls-1" d="M15.42,44.76h.19l-1,5.61h.56l2.13-2.54h.23l-2.24,2.63,1.28,2.93h-.21l-1.24-2.83h-.55l-.5,2.83H13.9Z"/><path class="cls-1" d="M24.6,49.23c-.4,2.78-1.49,4.21-2.93,4.21-1.17,0-1.87-1-1.87-2.84a9.85,9.85,0,0,1,.11-1.43c.4-2.78,1.49-4.21,2.93-4.21S25,46.4,24.6,49.23Zm-4.49,0A9.62,9.62,0,0,0,20,50.61c0,1.76.63,2.64,1.69,2.64,1.29,0,2.33-1.36,2.71-4s-.26-4.05-1.58-4.05S20.5,46.52,20.12,49.19Z"/><path class="cls-1" d="M29.62,45.2h-1.9l-1.45,8.2h-.2l1.45-8.2H25.64l0-.19h4Z"/><path class="cls-1" d="M35.78,46.95,35.6,47c-.09-1.19-.61-1.85-1.42-1.85-1.3,0-2.37,1.38-2.84,4.06s.15,4,1.44,4c.81,0,1.56-.67,2.06-1.86l.16.08c-.53,1.28-1.34,2-2.24,2-1.11,0-1.76-.89-1.76-2.61a10,10,0,0,1,.16-1.63c.49-2.81,1.63-4.23,3-4.23C35.09,45,35.68,45.67,35.78,46.95Z"/><path class="cls-1" d="M39.17,50.64c-.25,1.79-1,2.8-2,2.8-.84,0-1.33-.7-1.33-2a5.83,5.83,0,0,1,.07-.88c.26-1.79,1-2.79,2-2.79S39.42,48.83,39.17,50.64Zm-3.1,0a5.87,5.87,0,0,0-.07.88c0,1.15.42,1.76,1.15,1.76.89,0,1.6-.95,1.84-2.63S38.79,48,37.89,48,36.31,48.93,36.07,50.62Z"/><path class="cls-1" d="M43.37,49.42l-.7,4h-.19l.7-4c.16-.91-.2-1.44-1-1.44a1.67,1.67,0,0,0-1.5,1.36L40,53.4h-.19l1-5.56h.19l-.15.86a1.69,1.69,0,0,1,1.44-.89C43.08,47.81,43.55,48.39,43.37,49.42Z"/><path class="cls-1" d="M47.53,49.27l.8-4.51h.19L47,53.4H46.8L47,52c-.4.91-1,1.42-1.69,1.42s-1.25-.64-1.25-1.81a6.07,6.07,0,0,1,.1-1c.31-1.79,1.1-2.79,2.11-2.79C47,47.81,47.46,48.33,47.53,49.27Zm-3.14,1.34a5.66,5.66,0,0,0-.1,1c0,1.07.4,1.64,1.09,1.64s1.5-.8,1.83-2.24l.13-.67c.2-1.52-.22-2.36-1-2.36S44.69,48.93,44.39,50.62Z"/><path class="cls-1" d="M54.79,45.2h-1.9l-1.45,8.2h-.2l1.45-8.2H50.81l0-.19h4Z"/><path class="cls-1" d="M55,48.72a1.69,1.69,0,0,1,1.43-.92c.86,0,1.32.59,1.15,1.6l-.71,4h-.19l.71-4c.16-.9-.2-1.43-1-1.43a1.67,1.67,0,0,0-1.5,1.41l-.71,4H54l1.52-8.64h.19Z"/><path class="cls-1" d="M58.42,53.4h-.19l1-5.56h.19Zm1.25-7.23h-.2l.14-.76h.2Z"/><path class="cls-1" d="M63.4,49.42l-.7,4h-.19l.7-4c.16-.91-.2-1.44-1-1.44a1.67,1.67,0,0,0-1.5,1.36L60,53.4h-.19l1-5.56H61l-.15.86a1.69,1.69,0,0,1,1.44-.89C63.12,47.81,63.58,48.39,63.4,49.42Z"/><path class="cls-1" d="M66.19,53.4H66L67.47,45h.2Z"/><path class="cls-1" d="M70.82,48H69.21l-.74,4.23c-.11.66.14,1,.67,1A1.24,1.24,0,0,0,70,52.9l.08.14a1.42,1.42,0,0,1-1,.4c-.64,0-1-.42-.82-1.19L69,48h-.92l0-.18h.92l.26-1.5h.19l-.26,1.5h1.61Z"/><path class="cls-1" d="M73.79,53.4H73.6L73.85,52c-.4.91-1,1.42-1.68,1.42s-1.25-.64-1.25-1.81a6,6,0,0,1,.1-1c.31-1.79,1.11-2.79,2.11-2.79.71,0,1.14.52,1.21,1.46l.25-1.43h.19Zm-2.6-2.78c-.29,1.7.11,2.64,1,2.64s1.63-1,1.91-2.63S74,48,73.1,48,71.48,48.93,71.19,50.62Z"/><path class="cls-1" d="M75.38,53.4h-.19l1.52-8.64h.19Z"/><path class="cls-1" d="M77,53.4h-.19l1-5.56H78Zm1.25-7.23H78l.14-.76h.2Z"/><path class="cls-1" d="M81.67,48.64l-.15.1a1,1,0,0,0-1-.74c-.88,0-1.58.91-1.82,2.63s.19,2.64,1.07,2.64A1.44,1.44,0,0,0,81,52.51l.12.13a1.59,1.59,0,0,1-1.32.8c-.83,0-1.32-.7-1.32-2a6,6,0,0,1,.07-.89c.26-1.81,1-2.79,2-2.79A1.13,1.13,0,0,1,81.67,48.64Z"/><path class="cls-1" d="M6.23,67.8H5.82V60.09L3.74,65H3.37L1.28,60.1v7.7H.88V59.4h.54l2.14,5.07L5.69,59.4h.54Z"/><path class="cls-1" d="M11,67.8h-.38V66.74a1.55,1.55,0,0,1-1.44,1.12c-1.09,0-1.78-1-1.78-2.86s.7-2.86,1.78-2.86a1.55,1.55,0,0,1,1.44,1.12V62.2H11ZM7.75,65c0,1.61.55,2.49,1.42,2.49s1.42-.88,1.42-2.49S10,62.5,9.17,62.5,7.75,63.39,7.75,65Z"/><path class="cls-1" d="M14.48,62.29l-.14.37a1.31,1.31,0,0,0-.54-.11c-.64,0-1.09.55-1.09,1.39V67.8h-.38V62.2h.37v.7a1.22,1.22,0,0,1,1.13-.75A1.36,1.36,0,0,1,14.48,62.29Z"/><path class="cls-1" d="M15.74,64.66h.55l1.66-2.46h.44l-1.81,2.65,1.84,3H18L16.28,65h-.54V67.8h-.38V59.16h.38Z"/><path class="cls-1" d="M26,63.6c0,2.79-1,4.25-2.54,4.25S21,66.39,21,63.6s1-4.25,2.54-4.25S26,60.81,26,63.6Zm-4.66,0c0,2.55.83,3.85,2.12,3.85s2.12-1.3,2.12-3.85-.83-3.85-2.12-3.85S21.39,61,21.39,63.6Z"/><path class="cls-1" d="M30.66,59.79H28.72v8h-.41v-8H26.36V59.4h4.3Z"/><path class="cls-1" d="M37.53,61.29l-.36.16c-.3-1.1-.92-1.69-1.71-1.69-1.27,0-2.09,1.28-2.09,3.85s.82,3.85,2.09,3.85c.79,0,1.41-.59,1.71-1.69l.35.16c-.34,1.25-1.09,1.94-2.06,1.94-1.54,0-2.51-1.45-2.51-4.25s1-4.25,2.51-4.25C36.43,59.35,37.18,60,37.53,61.29Z"/><path class="cls-1" d="M41.84,65c0,1.82-.71,2.85-1.82,2.85s-1.81-1-1.81-2.85.7-2.85,1.81-2.85S41.84,63.18,41.84,65ZM38.6,65c0,1.61.55,2.48,1.42,2.48s1.43-.88,1.43-2.48S40.9,62.52,40,62.52,38.6,63.39,38.6,65Z"/><path class="cls-1" d="M46.11,63.77v4h-.38V63.85c0-.85-.44-1.34-1.22-1.34a1.26,1.26,0,0,0-1.22,1.34V67.8h-.38V62.2h.37v.71a1.38,1.38,0,0,1,1.27-.77A1.5,1.5,0,0,1,46.11,63.77Z"/><path class="cls-1" d="M50.35,63.24V59.16h.38V67.8h-.38v-1a1.54,1.54,0,0,1-1.44,1.1c-1.09,0-1.78-1-1.78-2.86s.7-2.86,1.78-2.86A1.54,1.54,0,0,1,50.35,63.24ZM47.52,65c0,1.61.55,2.49,1.42,2.49s1.42-.88,1.42-2.49-.55-2.49-1.42-2.49S47.52,63.39,47.52,65Z"/><path class="cls-1" d="M57.57,67.8h-3.5V59.4h3.5v.38H54.49v3.59h3v.38h-3v3.65h3.08Z"/><path class="cls-1" d="M60.3,65l1.48,2.85h-.43L60,65.26,58.74,67.8h-.43l1.48-2.85L58.37,62.2h.43l1.25,2.45,1.25-2.45h.43Z"/><path class="cls-1" d="M65.07,62.56H63.44v4c0,.63.32.95.84.95a1.1,1.1,0,0,0,.78-.31l.16.29a1.42,1.42,0,0,1-1,.4c-.71,0-1.16-.44-1.16-1.3v-4h-.93V62.2h.93V60.7h.38v1.5h1.63Z"/><path class="cls-1" d="M68.2,62.29l-.14.37a1.31,1.31,0,0,0-.54-.11c-.64,0-1.09.55-1.09,1.39V67.8H66V62.2h.37v.7a1.22,1.22,0,0,1,1.13-.75A1.36,1.36,0,0,1,68.2,62.29Z"/><path class="cls-1" d="M72.18,67.8H71.8V66.74a1.55,1.55,0,0,1-1.44,1.12c-1.09,0-1.78-1-1.78-2.86s.7-2.86,1.78-2.86a1.55,1.55,0,0,1,1.44,1.12V62.2h.38ZM69,65c0,1.61.55,2.49,1.42,2.49s1.42-.88,1.42-2.49-.55-2.49-1.42-2.49S69,63.39,69,65Z"/><path class="cls-1" d="M79,67.8H75.53V59.4h.41v8H79Z"/><path class="cls-1" d="M80.31,60.15a.27.27,0,1,1-.54,0,.27.27,0,1,1,.54,0Zm-.08,7.65h-.38V62.2h.38Z"/><path class="cls-1" d="M84.51,63.22v-1h.37v5.68a1.81,1.81,0,0,1-1.82,2.06,1.89,1.89,0,0,1-1.57-.75l.25-.23a1.59,1.59,0,0,0,1.3.62c.82,0,1.46-.56,1.46-1.69V66.78a1.53,1.53,0,0,1-1.43,1.07c-1.09,0-1.78-1-1.78-2.86s.7-2.86,1.78-2.86A1.54,1.54,0,0,1,84.51,63.22ZM81.69,65c0,1.61.55,2.49,1.42,2.49s1.42-.88,1.42-2.49S84,62.5,83.11,62.5,81.69,63.39,81.69,65Z"/><path class="cls-1" d="M86.63,62.89a1.38,1.38,0,0,1,1.25-.74,1.5,1.5,0,0,1,1.56,1.63v4h-.38V63.85c0-.85-.44-1.34-1.22-1.34a1.26,1.26,0,0,0-1.22,1.34V67.8h-.38V59.16h.38Z"/><path class="cls-1" d="M93.14,62.56H91.51v4c0,.63.32.95.84.95a1.1,1.1,0,0,0,.78-.31l.16.29a1.42,1.42,0,0,1-1,.4c-.71,0-1.16-.44-1.16-1.3v-4H90.2V62.2h.93V60.7h.38v1.5h1.63Z"/><path class="cls-1" d="M1.85,73.8h.52l1.16,5.08,3-5.08H7L5.55,82.2h-.4l1.36-7.71-2.89,5H3.27l-1.15-5L.77,82.2H.37Z"/><path class="cls-1" d="M10.14,82.2H9.76l.17-.95a1.75,1.75,0,0,1-1.5,1c-.85,0-1.35-.68-1.35-1.91a6,6,0,0,1,.09-1c.31-1.81,1.13-2.81,2.19-2.81.64,0,1,.4,1.2,1.12l.19-1.07h.37Zm-2.6-2.81a5.36,5.36,0,0,0-.08.92c0,1,.38,1.57,1,1.57.85,0,1.52-.91,1.78-2.46s-.13-2.5-.95-2.5S7.81,77.79,7.54,79.39Z"/><path class="cls-1" d="M14.55,76.7l-.17.36a1,1,0,0,0-.49-.11c-.66,0-1.21.6-1.37,1.49l-.66,3.77h-.38l1-5.6h.37l-.13.69a1.51,1.51,0,0,1,1.22-.74A1.16,1.16,0,0,1,14.55,76.7Z"/><path class="cls-1" d="M16,73.56h.38l-1,5.5h.52l2-2.47h.45l-2.22,2.65,1.26,3H17l-1.16-2.75h-.52l-.49,2.75h-.38Z"/><path class="cls-1" d="M25.62,78.07c-.4,2.72-1.5,4.19-3,4.19-1.24,0-2-1-2-2.91a9.42,9.42,0,0,1,.11-1.41c.4-2.72,1.5-4.18,3-4.18S26,75.23,25.62,78.07ZM21.14,78A9.87,9.87,0,0,0,21,79.34c0,1.67.6,2.52,1.61,2.52,1.22,0,2.2-1.31,2.57-3.82s-.25-3.89-1.5-3.89S21.5,75.46,21.14,78Z"/><path class="cls-1" d="M30.78,74.18H28.91l-1.41,8h-.41l1.42-8H26.63l.07-.38h4.16Z"/><path class="cls-1" d="M37.23,75.67l-.36.13c-.11-1.07-.61-1.67-1.37-1.67-1.25,0-2.26,1.37-2.69,3.9a9.12,9.12,0,0,0-.14,1.46c0,1.56.58,2.39,1.55,2.39.76,0,1.46-.62,1.93-1.7l.3.17c-.52,1.22-1.33,1.91-2.28,1.91-1.19,0-1.9-1-1.9-2.76A9.5,9.5,0,0,1,32.41,78c.46-2.79,1.62-4.23,3.11-4.23C36.45,73.75,37.09,74.44,37.23,75.67Z"/><path class="cls-1" d="M40.77,79.45c-.25,1.79-1.06,2.81-2.13,2.81-.91,0-1.44-.73-1.44-2a6.38,6.38,0,0,1,.07-.86c.26-1.8,1.06-2.81,2.13-2.81S41,77.6,40.77,79.45Zm-3.12-.06a6,6,0,0,0-.07.82c0,1.09.4,1.67,1.09,1.67s1.5-.89,1.73-2.46-.18-2.5-1-2.5S37.88,77.8,37.65,79.39Z"/><path class="cls-1" d="M45.15,78.24l-.7,4h-.38l.7-3.94c.16-.86-.2-1.35-.89-1.35a1.57,1.57,0,0,0-1.44,1.32l-.7,4h-.38l1-5.6h.37l-.13.7A1.66,1.66,0,0,1,44,76.54C44.8,76.54,45.33,77.17,45.15,78.24Z"/><path class="cls-1" d="M49.35,77.67l.73-4.11h.37L48.93,82.2h-.38l.17-1a1.76,1.76,0,0,1-1.51,1c-.84,0-1.34-.68-1.34-1.91a6,6,0,0,1,.09-1c.31-1.81,1.12-2.81,2.18-2.81C48.8,76.54,49.2,77,49.35,77.67Zm-3,1.71a5.42,5.42,0,0,0-.08.93c0,1,.37,1.58,1,1.58.86,0,1.54-.89,1.81-2.47s-.13-2.51-1-2.51S46.6,77.79,46.34,79.38Z"/><path class="cls-1" d="M55.68,82.2H52.29l1.48-8.4h3.38l-.07.38h-3l-.64,3.59h2.89l-.07.38H53.41l-.64,3.67h3Z"/><path class="cls-1" d="M58.34,79.34l-.88-2.74h.41l.77,2.46,1.64-2.46h.43l-1.87,2.76.92,2.84h-.42l-.81-2.54-1.7,2.54H56.4Z"/><path class="cls-1" d="M63.87,77H62.3l-.7,4c-.11.63.13.94.62.94a1.21,1.21,0,0,0,.8-.31l.14.3a1.61,1.61,0,0,1-1,.38c-.71,0-1.07-.46-.92-1.31l.7-4H61l.07-.36H62l.26-1.5h.37l-.26,1.5h1.57Z"/><path class="cls-1" d="M67,76.7l-.17.36a1,1,0,0,0-.49-.11c-.66,0-1.21.6-1.37,1.49l-.66,3.77h-.38l1-5.6h.37l-.13.69a1.51,1.51,0,0,1,1.22-.74A1.16,1.16,0,0,1,67,76.7Z"/><path class="cls-1" d="M69.88,82.2h-.38l.17-.95a1.75,1.75,0,0,1-1.5,1c-.85,0-1.35-.68-1.35-1.91a6,6,0,0,1,.09-1c.31-1.81,1.13-2.81,2.19-2.81.64,0,1,.4,1.2,1.12l.19-1.07h.37Zm-2.6-2.81a5.36,5.36,0,0,0-.08.92c0,1,.38,1.57,1,1.57.85,0,1.52-.91,1.78-2.46s-.13-2.5-.95-2.5S67.56,77.79,67.29,79.39Z"/><path class="cls-1" d="M76.62,82.2H73.24l1.48-8.4h.4l-1.41,8h3Z"/><path class="cls-1" d="M77.82,82.2h-.38l1-5.6h.38Zm1.39-7.65a.27.27,0,1,1-.27-.28A.27.27,0,0,1,79.21,74.55Z"/><path class="cls-1" d="M82.77,77.66,83,76.6h.37l-1,5.69a2.2,2.2,0,0,1-2.13,2,1.52,1.52,0,0,1-1.41-.76l.28-.2a1.25,1.25,0,0,0,1.12.59,1.82,1.82,0,0,0,1.76-1.7l.19-1.07a1.79,1.79,0,0,1-1.55,1c-.8,0-1.3-.67-1.3-1.89a5.91,5.91,0,0,1,.09-1c.3-1.75,1.1-2.75,2.11-2.75A1.27,1.27,0,0,1,82.77,77.66Zm-3,1.67a5.82,5.82,0,0,0-.08.91c0,1,.38,1.56,1,1.56.94,0,1.56-1,1.79-2.4.26-1.58-.1-2.48-1-2.48S80,77.79,79.74,79.33Z"/><path class="cls-1" d="M84.93,77.26a1.65,1.65,0,0,1,1.33-.71c.9,0,1.4.64,1.22,1.63l-.71,4H86.4l.7-3.95c.15-.85-.19-1.34-.91-1.34a1.53,1.53,0,0,0-1.4,1.19l-.72,4.1h-.38l1.52-8.64h.38Z"/><path class="cls-1" d="M91.29,77H89.71l-.7,4c-.11.63.13.94.62.94a1.21,1.21,0,0,0,.8-.31l.14.3a1.61,1.61,0,0,1-1,.38c-.71,0-1.07-.46-.92-1.31l.7-4h-.9l.07-.36h.9l.26-1.5H90l-.26,1.5h1.57Z"/><path class="cls-1" d="M93.78,82.2h-.41l1.48-8.4h.4Z"/><path class="cls-1" d="M98.47,77H96.9l-.7,4c-.11.63.13.94.62.94a1.21,1.21,0,0,0,.8-.31l.14.3a1.61,1.61,0,0,1-1,.38c-.71,0-1.07-.46-.92-1.31l.7-4h-.9l.07-.36h.9l.26-1.5h.37L97,76.6h1.57Z"/><path class="cls-1" d="M101.67,82.2h-.38l.17-.95a1.75,1.75,0,0,1-1.5,1c-.85,0-1.35-.68-1.35-1.91a6,6,0,0,1,.09-1c.31-1.81,1.13-2.81,2.19-2.81.64,0,1,.4,1.2,1.12l.19-1.07h.37Zm-2.6-2.81a5.36,5.36,0,0,0-.08.92c0,1,.38,1.57,1,1.57.85,0,1.52-.91,1.78-2.46s-.13-2.5-.95-2.5S99.34,77.79,99.07,79.39Z"/><path class="cls-1" d="M103.39,82.2H103l1.52-8.64h.38Z"/><path class="cls-1" d="M105.11,82.2h-.38l1-5.6h.38Zm1.39-7.65a.27.27,0,1,1-.27-.28A.27.27,0,0,1,106.5,74.55Z"/><path class="cls-1" d="M110,77.4l-.29.21a.94.94,0,0,0-.91-.69c-.83,0-1.48.83-1.72,2.47a6,6,0,0,0-.07.82c0,1.09.4,1.67,1.07,1.67a1.37,1.37,0,0,0,1.13-.67l.22.27a1.67,1.67,0,0,1-1.38.77c-.89,0-1.42-.73-1.42-2a6.45,6.45,0,0,1,.07-.86c.26-1.82,1.07-2.81,2.12-2.81A1.24,1.24,0,0,1,110,77.4Z"/><path class="cls-1" d="M6.55,96.6H5.93V89.21L4,94H3.42l-2-4.76V96.6H.85V88.2h.83l2,4.91,2-4.91h.83Z"/><path class="cls-1" d="M11.46,96.6h-.57v-.91a1.51,1.51,0,0,1-1.39,1c-1.12,0-1.83-1.06-1.83-2.9s.72-2.9,1.83-2.9a1.51,1.51,0,0,1,1.39,1V91h.57Zm-3.2-2.82c0,1.5.5,2.33,1.33,2.33s1.33-.83,1.33-2.33-.51-2.33-1.33-2.33S8.26,92.27,8.26,93.78Z"/><path class="cls-1" d="M15.11,91l-.14.59a1.34,1.34,0,0,0-.56-.12c-.59,0-1,.47-1.06,1.23V96.6h-.58V91h.56v.65a1.22,1.22,0,0,1,1.13-.73A1.46,1.46,0,0,1,15.11,91Z"/><path class="cls-1" d="M16.55,93.34h.5L18.62,91h.68l-1.79,2.67,1.82,3h-.68L17,93.93h-.49V96.6H16V88h.58Z"/><path class="cls-1" d="M27.15,92.4c0,2.76-1,4.27-2.66,4.27s-2.66-1.5-2.66-4.27,1-4.27,2.66-4.27S27.15,89.64,27.15,92.4Zm-4.67,0c0,2.41.78,3.65,2,3.65s2-1.24,2-3.65-.78-3.65-2-3.65S22.48,90,22.48,92.4Z"/><path class="cls-1" d="M31.94,88.79H30V96.6h-.63V88.79H27.46V88.2h4.48Z"/><path class="cls-1" d="M39,90l-.54.23c-.29-1-.87-1.49-1.6-1.49-1.2,0-2,1.22-2,3.65s.78,3.65,2,3.65c.73,0,1.3-.52,1.6-1.49l.54.24a2.27,2.27,0,0,1-2.14,1.87c-1.62,0-2.63-1.49-2.63-4.27s1-4.27,2.63-4.27A2.26,2.26,0,0,1,39,90Z"/><path class="cls-1" d="M43.53,93.78c0,1.85-.75,2.9-1.92,2.9s-1.92-1-1.92-2.9.74-2.89,1.92-2.89S43.53,91.93,43.53,93.78Zm-3.26,0c0,1.51.51,2.33,1.33,2.33s1.34-.82,1.34-2.33-.52-2.32-1.34-2.32S40.27,92.27,40.27,93.78Z"/><path class="cls-1" d="M48,92.56v4H47.4V92.68c0-.79-.41-1.24-1.12-1.24a1.17,1.17,0,0,0-1.14,1.23V96.6h-.58V91h.56v.65a1.4,1.4,0,0,1,1.27-.73A1.54,1.54,0,0,1,48,92.56Z"/><path class="cls-1" d="M52.2,91.84V88h.58V96.6h-.57v-.91a1.51,1.51,0,0,1-1.39,1c-1.12,0-1.83-1.06-1.83-2.9s.72-2.9,1.83-2.9A1.51,1.51,0,0,1,52.2,91.84Zm-2.63,1.93c0,1.5.5,2.33,1.33,2.33s1.33-.83,1.33-2.33-.51-2.33-1.33-2.33S49.58,92.27,49.58,93.78Z"/><path class="cls-1" d="M59.84,96.6H56.15V88.2h.63V96h3.06Z"/><path class="cls-1" d="M61.34,88.92a.4.4,0,0,1-.8,0,.4.4,0,1,1,.8,0Zm-.11,7.68h-.58V91h.58Z"/><path class="cls-1" d="M65.48,91.86V91H66v5.64a1.91,1.91,0,0,1-1.93,2.15A2,2,0,0,1,62.48,98l.34-.4a1.59,1.59,0,0,0,1.25.58c.79,0,1.39-.53,1.39-1.59v-.95a1.49,1.49,0,0,1-1.37.94c-1.11,0-1.83-1-1.83-2.86s.72-2.86,1.83-2.86A1.51,1.51,0,0,1,65.48,91.86Zm-2.63,1.88c0,1.48.5,2.3,1.32,2.3s1.33-.82,1.33-2.3-.51-2.3-1.33-2.3S62.86,92.26,62.86,93.74Z"/><path class="cls-1" d="M67.94,91.57a1.39,1.39,0,0,1,1.24-.68,1.54,1.54,0,0,1,1.6,1.67v4h-.58V92.68c0-.79-.41-1.24-1.12-1.24a1.15,1.15,0,0,0-1.13,1.15v4h-.58V88h.58Z"/><path class="cls-1" d="M74.6,91.5H73v3.71c0,.6.31.89.79.89a1.11,1.11,0,0,0,.73-.28l.25.46a1.65,1.65,0,0,1-1.08.39c-.79,0-1.27-.48-1.27-1.42V91.5h-.9V91h.9v-1.5H73V91h1.6Z"/><path class="cls-1" d="M1.82,102.6h.81l1.06,4.92,2.81-4.92h.84L5.86,111H5.26l1.31-7.39L3.84,108.4H3.3l-1-4.78L.95,111H.34Z"/><path class="cls-1" d="M10.61,111H10l.14-.82a1.68,1.68,0,0,1-1.41.89c-.87,0-1.41-.71-1.41-2a5.91,5.91,0,0,1,.09-1c.31-1.82,1.14-2.82,2.22-2.82a1.18,1.18,0,0,1,1.2,1l.17-.95h.56ZM8,108.15c-.26,1.52.13,2.36.88,2.36s1.42-.85,1.66-2.3-.13-2.36-.91-2.36S8.27,106.66,8,108.15Z"/><path class="cls-1" d="M15.17,105.44,15,106a1.07,1.07,0,0,0-.5-.11c-.65,0-1.19.53-1.35,1.44L12.48,111H11.9l1-5.64h.56l-.12.67a1.5,1.5,0,0,1,1.21-.74A1.19,1.19,0,0,1,15.17,105.44Z"/><path class="cls-1" d="M16.55,102.36h.57l-.95,5.39h.48l1.93-2.39h.68L17.06,108l1.23,3h-.65l-1.09-2.67h-.47L15.6,111H15Z"/><path class="cls-1" d="M26.66,106.91c-.4,2.66-1.51,4.16-3.11,4.16-1.31,0-2.1-1-2.1-3a9.2,9.2,0,0,1,.11-1.39c.4-2.67,1.5-4.16,3.11-4.16S27.09,104,26.66,106.91Zm-4.47-.17c-.37,2.47.22,3.72,1.42,3.72s2.07-1.26,2.42-3.59-.22-3.72-1.43-3.72S22.54,104.4,22.19,106.74Z"/><path class="cls-1" d="M32,103.18H30.11L28.73,111h-.62l1.38-7.82H27.64l.1-.58h4.34Z"/><path class="cls-1" d="M38.71,104.39l-.55.2c-.13-.92-.61-1.48-1.33-1.48-1.2,0-2.15,1.35-2.54,3.72s.2,3.65,1.38,3.65c.71,0,1.36-.57,1.79-1.52l.45.26a2.61,2.61,0,0,1-2.32,1.83c-1.28,0-2-1-2-2.91a9.12,9.12,0,0,1,.12-1.39c.44-2.76,1.61-4.24,3.17-4.24C37.84,102.53,38.53,103.22,38.71,104.39Z"/><path class="cls-1" d="M42.41,108.25c-.26,1.8-1.1,2.82-2.23,2.82s-1.55-.77-1.55-2.12a6.13,6.13,0,0,1,.07-.84c.26-1.8,1.1-2.82,2.22-2.82S42.68,106.38,42.41,108.25Zm-3.14-.1c-.22,1.53.16,2.36,1,2.36s1.4-.83,1.6-2.3-.16-2.36-1-2.36S39.48,106.68,39.27,108.15Z"/><path class="cls-1" d="M47,107l-.7,4h-.58l.69-3.9c.14-.82-.2-1.26-.83-1.26A1.43,1.43,0,0,0,44.22,107l-.7,4h-.58l1-5.64h.56l-.11.65a1.7,1.7,0,0,1,1.35-.71C46.59,105.29,47.16,105.94,47,107Z"/><path class="cls-1" d="M51.16,106.28l.69-3.92h.57L50.9,111h-.56l.14-.83a1.7,1.7,0,0,1-1.42.9c-.86,0-1.4-.71-1.4-2a5.91,5.91,0,0,1,.09-1c.31-1.82,1.14-2.82,2.21-2.82A1.18,1.18,0,0,1,51.16,106.28Zm-2.85,1.87c-.25,1.52.11,2.36.86,2.36s1.42-.85,1.67-2.31-.13-2.36-.91-2.36S48.56,106.66,48.31,108.15Z"/><path class="cls-1" d="M57.84,111H54.26l1.48-8.4h.62L55,110.42h3Z"/><path class="cls-1" d="M59.21,111h-.58l1-5.64h.58Zm1.42-7.68a.4.4,0,1,1-.8,0,.4.4,0,1,1,.8,0Z"/><path class="cls-1" d="M64.15,106.29l.16-.93h.56l-1,5.66a2.29,2.29,0,0,1-2.23,2.13,1.66,1.66,0,0,1-1.49-.74l.4-.35a1.25,1.25,0,0,0,1.09.55A1.73,1.73,0,0,0,63.31,111l.16-.91a1.71,1.71,0,0,1-1.45.85c-.85,0-1.37-.7-1.37-1.95a5.48,5.48,0,0,1,.08-.95c.3-1.74,1.12-2.74,2.15-2.74A1.24,1.24,0,0,1,64.15,106.29Zm-2.87,1.79c-.25,1.47.13,2.3.89,2.3s1.42-.84,1.66-2.25-.14-2.27-.94-2.27S61.52,106.66,61.28,108.07Z"/><path class="cls-1" d="M66.63,106a1.67,1.67,0,0,1,1.31-.68c.89,0,1.42.67,1.24,1.71l-.7,4h-.58l.69-3.91c.13-.8-.19-1.25-.85-1.25a1.41,1.41,0,0,0-1.3,1.16l-.7,4h-.58l1.52-8.64h.57Z"/><path class="cls-1" d="M73.1,105.9H71.56l-.65,3.73c-.11.6.13.88.57.88a1.16,1.16,0,0,0,.76-.28l.21.46a1.81,1.81,0,0,1-1.09.38c-.78,0-1.18-.5-1-1.44L71,105.9h-.87l.1-.55h.87l.26-1.5h.57l-.26,1.5H73.2Z"/><path class="cls-1" d="M75.87,111h-.62l1.48-8.4h.62Z"/><path class="cls-1" d="M80.66,105.9H79.12l-.65,3.73c-.11.6.13.88.57.88a1.16,1.16,0,0,0,.76-.28l.21.46a1.81,1.81,0,0,1-1.09.38c-.78,0-1.18-.5-1-1.44l.65-3.73h-.87l.1-.55h.87l.26-1.5h.57l-.26,1.5h1.55Z"/><path class="cls-1" d="M84.07,111H83.5l.14-.82a1.68,1.68,0,0,1-1.41.89c-.87,0-1.41-.71-1.41-2a5.91,5.91,0,0,1,.09-1c.31-1.82,1.14-2.82,2.22-2.82a1.18,1.18,0,0,1,1.2,1l.17-.95h.56Zm-2.6-2.85c-.26,1.52.13,2.36.88,2.36s1.42-.85,1.66-2.3-.13-2.36-.91-2.36S81.72,106.66,81.47,108.15Z"/><path class="cls-1" d="M85.94,111h-.58l1.52-8.64h.57Z"/><path class="cls-1" d="M87.8,111h-.58l1-5.64h.58Zm1.42-7.68a.4.4,0,1,1-.8,0,.4.4,0,1,1,.8,0Z"/><path class="cls-1" d="M92.8,106.15l-.43.33a.9.9,0,0,0-.86-.63c-.77,0-1.39.75-1.61,2.31s.19,2.35.94,2.35a1.33,1.33,0,0,0,1.07-.6l.32.41a1.78,1.78,0,0,1-1.44.74c-1,0-1.53-.77-1.53-2.12a6,6,0,0,1,.07-.83c.26-1.84,1.1-2.82,2.22-2.82A1.34,1.34,0,0,1,92.8,106.15Z"/><path class="cls-1" d="M6.9,125.4H6.07v-7L4.23,123H3.5l-1.83-4.58v7H.84V117H2l1.89,4.76L5.76,117H6.9Z"/><path class="cls-1" d="M12,125.4h-.77v-.8a1.49,1.49,0,0,1-1.35.88c-1.13,0-1.88-1.09-1.88-2.93s.75-2.93,1.88-2.93a1.49,1.49,0,0,1,1.35.88v-.8H12Zm-3.2-2.85c0,1.4.46,2.17,1.23,2.17s1.22-.76,1.22-2.17-.47-2.16-1.22-2.16S8.8,121.15,8.8,122.55Z"/><path class="cls-1" d="M15.83,119.76l-.14.83a1.49,1.49,0,0,0-.6-.13c-.57,0-1,.44-1,1.19v3.75h-.79v-5.69H14v.63a1.22,1.22,0,0,1,1.13-.71A1.6,1.6,0,0,1,15.83,119.76Z"/><path class="cls-1" d="M17.45,122h.44l1.49-2.31h.92l-1.78,2.7,1.81,3h-.92l-1.53-2.58h-.43v2.58h-.79v-8.64h.79Z"/><path class="cls-1" d="M28.4,121.2c0,2.73-1,4.29-2.78,4.29s-2.78-1.55-2.78-4.29,1-4.29,2.78-4.29S28.4,118.47,28.4,121.2Zm-4.68,0c0,2.25.73,3.45,1.9,3.45s1.9-1.19,1.9-3.45-.73-3.45-1.9-3.45S23.72,118.95,23.72,121.2Z"/><path class="cls-1" d="M33.39,117.8H31.48v7.6h-.85v-7.6H28.72V117h4.67Z"/><path class="cls-1" d="M40.77,118.71,40,119a1.62,1.62,0,0,0-1.49-1.28c-1.13,0-1.86,1.16-1.86,3.45s.73,3.45,1.86,3.45A1.62,1.62,0,0,0,40,123.38l.73.32a2.31,2.31,0,0,1-2.23,1.79c-1.71,0-2.75-1.53-2.75-4.29s1-4.29,2.75-4.29A2.3,2.3,0,0,1,40.77,118.71Z"/><path class="cls-1" d="M45.44,122.56c0,1.86-.8,2.93-2,2.93s-2-1.06-2-2.93.79-2.93,2-2.93S45.44,120.69,45.44,122.56Zm-3.29,0c0,1.4.48,2.16,1.24,2.16s1.25-.76,1.25-2.16-.48-2.16-1.25-2.16S42.15,121.15,42.15,122.56Z"/><path class="cls-1" d="M50.12,121.36v4h-.79v-3.88c0-.73-.39-1.15-1-1.15a1.06,1.06,0,0,0-1.06,1.12v3.9h-.79v-5.69h.76v.61a1.42,1.42,0,0,1,1.28-.7A1.58,1.58,0,0,1,50.12,121.36Z"/><path class="cls-1" d="M54.31,120.48v-3.72h.78v8.64h-.77v-.8a1.49,1.49,0,0,1-1.35.88c-1.13,0-1.88-1.09-1.88-2.93s.75-2.93,1.88-2.93A1.49,1.49,0,0,1,54.31,120.48Zm-2.42,2.07c0,1.4.46,2.17,1.23,2.17s1.22-.76,1.22-2.17-.47-2.16-1.22-2.16S51.89,121.15,51.89,122.55Z"/><path class="cls-1" d="M60.53,117a2.16,2.16,0,0,1,2.39,2.37,2.13,2.13,0,0,1-2.13,2.33L63,125.4H62l-2.17-3.69h-.46v3.69h-.85V117Zm-1.15.8V121h1.15a1.58,1.58,0,0,0,0-3.16Z"/><path class="cls-1" d="M67.49,122.53c0,.1,0,.2,0,.29H64.4c.05,1.34.56,1.93,1.35,1.93a1.56,1.56,0,0,0,1.19-.55l.4.56a2.12,2.12,0,0,1-1.66.72c-1.31,0-2.09-1-2.09-2.93s.78-2.93,2-2.93S67.48,120.65,67.49,122.53Zm-3.08-.36h2.3c0-1.18-.46-1.8-1.12-1.8S64.48,121,64.41,122.17Z"/><path class="cls-1" d="M71.45,120.48v-.77h.76v5.6a2,2,0,0,1-2.05,2.25,2.17,2.17,0,0,1-1.7-.7l.44-.58a1.58,1.58,0,0,0,1.21.53c.77,0,1.32-.5,1.32-1.48v-.83a1.47,1.47,0,0,1-1.32.82c-1.13,0-1.88-1-1.88-2.85s.74-2.85,1.88-2.85A1.49,1.49,0,0,1,71.45,120.48Zm-2.42,2c0,1.34.46,2.09,1.22,2.09s1.22-.74,1.22-2.09-.47-2.09-1.22-2.09S69,121.14,69,122.47Z"/><path class="cls-1" d="M77.09,123.54a1.82,1.82,0,1,1-3.63,0v-3.82h.79v3.79c0,.83.41,1.22,1,1.22s1-.38,1-1.22v-3.79h.79Z"/><path class="cls-1" d="M79.13,125.4h-.79v-8.64h.79Z"/><path class="cls-1" d="M84.14,125.4h-.77v-.8a1.49,1.49,0,0,1-1.35.88c-1.13,0-1.88-1.09-1.88-2.93s.75-2.93,1.88-2.93a1.49,1.49,0,0,1,1.35.88v-.8h.77Zm-3.2-2.85c0,1.4.46,2.17,1.23,2.17s1.22-.76,1.22-2.17-.47-2.16-1.22-2.16S80.94,121.15,80.94,122.55Z"/><path class="cls-1" d="M88,119.76l-.14.83a1.49,1.49,0,0,0-.6-.13c-.57,0-1,.44-1,1.19v3.75h-.79v-5.69h.76v.63a1.22,1.22,0,0,1,1.13-.71A1.6,1.6,0,0,1,88,119.76Z"/><path class="cls-1" d="M6.19,139.8H5.37l1.25-7.07-2.56,4.62H3.33l-.95-4.59-1.25,7H.31l1.48-8.4H2.9l1,4.77,2.66-4.77H7.67Z"/><path class="cls-1" d="M11.1,139.8h-.76l.13-.71a1.64,1.64,0,0,1-1.34.8c-.89,0-1.47-.73-1.47-2a5.84,5.84,0,0,1,.09-1C8.06,135,8.91,134,10,134a1.18,1.18,0,0,1,1.19.94l.15-.85h.76Zm-2.58-2.88c-.25,1.43.11,2.22.81,2.22s1.31-.8,1.54-2.14-.13-2.21-.87-2.21S8.75,135.53,8.52,136.92Z"/><path class="cls-1" d="M15.81,134.17l-.24.79a1.17,1.17,0,0,0-.52-.11c-.63,0-1.15.47-1.31,1.41l-.62,3.54h-.77l1-5.69h.75l-.12.67a1.48,1.48,0,0,1,1.19-.76A1.28,1.28,0,0,1,15.81,134.17Z"/><path class="cls-1" d="M17,136.44h.41l1.83-2.32h.92L18,136.81l1.2,3h-.88l-1-2.59h-.41l-.46,2.59h-.77l1.52-8.64h.77Z"/><path class="cls-1" d="M27.74,135.75c-.4,2.61-1.52,4.14-3.21,4.14-1.39,0-2.23-1.07-2.23-3.06a8.9,8.9,0,0,1,.11-1.37c.4-2.61,1.51-4.13,3.2-4.13S28.18,132.87,27.74,135.75Zm-4.47-.24c-.36,2.36.2,3.56,1.35,3.56s1.93-1.21,2.26-3.37c.36-2.36-.2-3.55-1.36-3.55S23.6,133.35,23.27,135.51Z"/><path class="cls-1" d="M33.2,132.18H31.36L30,139.8h-.83l1.34-7.62H28.68l.14-.78h4.52Z"/><path class="cls-1" d="M40.24,133.11l-.74.28c-.15-.79-.61-1.28-1.27-1.28-1.15,0-2,1.34-2.39,3.55s.23,3.45,1.34,3.45a2,2,0,0,0,1.65-1.34l.62.35a2.62,2.62,0,0,1-2.37,1.76c-1.37,0-2.17-1.14-2.17-3.06a8.82,8.82,0,0,1,.1-1.27c.41-2.74,1.61-4.24,3.25-4.24A2,2,0,0,1,40.24,133.11Z"/><path class="cls-1" d="M44.09,137c-.26,1.81-1.14,2.84-2.33,2.84s-1.67-.8-1.67-2.21a5.69,5.69,0,0,1,.06-.82c.26-1.8,1.14-2.83,2.33-2.83S44.36,135.15,44.09,137Zm-3.15-.13c-.2,1.45.14,2.21.89,2.21s1.29-.77,1.48-2.13-.14-2.21-.9-2.21S41.13,135.56,40.94,136.92Z"/><path class="cls-1" d="M48.84,135.87l-.7,3.93h-.79l.68-3.87c.13-.77-.2-1.16-.77-1.16A1.31,1.31,0,0,0,46,136l-.67,3.8h-.79l1-5.69h.76l-.11.61a1.72,1.72,0,0,1,1.34-.69C48.44,134,49,134.71,48.84,135.87Z"/><path class="cls-1" d="M53,134.92l.66-3.75h.77l-1.52,8.64h-.76l.13-.71a1.64,1.64,0,0,1-1.34.8c-.89,0-1.46-.74-1.46-2.05a5.72,5.72,0,0,1,.09-1c.32-1.82,1.16-2.84,2.25-2.84A1.17,1.17,0,0,1,53,134.92Zm-2.67,2c-.25,1.43.11,2.22.8,2.22s1.31-.79,1.54-2.14-.13-2.21-.87-2.21S50.59,135.53,50.36,136.92Z"/><path class="cls-1" d="M57.15,139.8h-.83l1.48-8.4h.83Z"/><path class="cls-1" d="M62,134.85H60.53l-.61,3.47c-.1.57.12.81.52.81a1.19,1.19,0,0,0,.71-.23l.28.62a2,2,0,0,1-1.16.37c-.85,0-1.3-.54-1.12-1.57l.61-3.47h-.85l.13-.73h.85l.27-1.5h.77l-.26,1.5h1.51Z"/><path class="cls-1" d="M65.68,139.8h-.76l.13-.71a1.64,1.64,0,0,1-1.34.8c-.89,0-1.47-.73-1.47-2a5.84,5.84,0,0,1,.09-1c.32-1.82,1.16-2.84,2.25-2.84a1.18,1.18,0,0,1,1.19.94l.15-.85h.76Zm-2.58-2.88c-.25,1.43.11,2.22.81,2.22s1.31-.8,1.54-2.14-.13-2.21-.87-2.21S63.33,135.53,63.1,136.92Z"/><path class="cls-1" d="M67.7,139.8h-.77l1.52-8.64h.77Z"/><path class="cls-1" d="M69.72,139.8h-.77l1-5.69h.78Zm1.46-7.71a.53.53,0,0,1-.53.53.52.52,0,0,1-.52-.53.53.53,0,1,1,1.06,0Z"/><path class="cls-1" d="M74.86,134.91l-.58.44a.85.85,0,0,0-.8-.56c-.71,0-1.28.66-1.49,2.13s.18,2.21.87,2.21a1.3,1.3,0,0,0,1-.53l.44.57a1.92,1.92,0,0,1-1.52.71c-1,0-1.64-.82-1.64-2.21a5.53,5.53,0,0,1,.06-.8c.27-1.86,1.15-2.84,2.33-2.84A1.45,1.45,0,0,1,74.86,134.91Z"/><path class="cls-1" d="M7.05,154.2H6.12v-6.9l-1.77,4.53H3.54l-1.77-4.5v6.87H.83v-8.4H2.11l1.83,4.69,1.83-4.69H7.05Z"/><path class="cls-1" d="M12.22,154.2h-.86v-.73a1.47,1.47,0,0,1-1.33.83c-1.15,0-1.91-1.1-1.91-3s.76-2.94,1.91-2.94a1.48,1.48,0,0,1,1.33.82v-.73h.86ZM9,151.35c0,1.36.44,2.1,1.18,2.1s1.18-.74,1.18-2.1-.45-2.1-1.18-2.1S9,150,9,151.35Z"/><path class="cls-1" d="M16.13,148.53l-.15.92a1.52,1.52,0,0,0-.61-.13c-.59,0-1,.47-1,1.3v3.57h-.88v-5.71h.85v.61a1.22,1.22,0,0,1,1.12-.7A1.63,1.63,0,0,1,16.13,148.53Z"/><path class="cls-1" d="M17.84,150.77h.43l1.45-2.28h1L19,151.2l1.8,3h-1l-1.49-2.55h-.41v2.55H17v-8.64h.88Z"/><path class="cls-1" d="M28.92,150c0,2.72-1,4.29-2.84,4.29s-2.83-1.57-2.83-4.29,1-4.29,2.83-4.29S28.92,147.28,28.92,150Zm-4.68,0c0,2.19.71,3.36,1.85,3.36s1.85-1.17,1.85-3.36-.71-3.36-1.85-3.36S24.24,147.81,24.24,150Z"/><path class="cls-1" d="M34,146.69H32.09v7.51h-.95v-7.51h-1.9v-.88H34Z"/><path class="cls-1" d="M41.49,147.47l-.82.36a1.57,1.57,0,0,0-1.45-1.19c-1.11,0-1.81,1.14-1.81,3.36s.7,3.36,1.81,3.36a1.56,1.56,0,0,0,1.44-1.19l.82.37a2.33,2.33,0,0,1-2.26,1.75c-1.75,0-2.79-1.55-2.79-4.29s1-4.29,2.79-4.29A2.33,2.33,0,0,1,41.49,147.47Z"/><path class="cls-1" d="M46.23,151.35c0,1.88-.82,3-2.1,3s-2.09-1.07-2.09-3,.82-2.94,2.09-2.94S46.23,149.47,46.23,151.35Zm-3.3,0c0,1.36.46,2.09,1.2,2.09s1.21-.73,1.21-2.09-.46-2.09-1.21-2.09S42.94,150,42.94,151.35Z"/><path class="cls-1" d="M51,150.16v4h-.88v-3.87c0-.71-.38-1.1-1-1.1a1,1,0,0,0-1,1.14v3.83h-.88v-5.71h.85v.59a1.45,1.45,0,0,1,1.28-.68A1.6,1.6,0,0,1,51,150.16Z"/><path class="cls-1" d="M55.19,149.2v-3.63h.87v8.64H55.2v-.72a1.48,1.48,0,0,1-1.32.82c-1.15,0-1.91-1.1-1.91-3s.76-2.94,1.91-2.94A1.47,1.47,0,0,1,55.19,149.2Zm-2.32,2.15c0,1.36.44,2.1,1.18,2.1s1.18-.74,1.18-2.1-.45-2.1-1.18-2.1S52.87,150,52.87,151.35Z"/><path class="cls-1" d="M61.63,145.8a2.12,2.12,0,0,1,2.4,2.26,1.81,1.81,0,0,1-1.09,1.83,2,2,0,0,1,1.24,2,2.16,2.16,0,0,1-2.46,2.32h-2.2v-8.4Zm-1.17.88v2.82h1.16a1.41,1.41,0,1,0,0-2.82Zm0,3.69v2.94H61.7a1.47,1.47,0,1,0,0-2.94Z"/><path class="cls-1" d="M69.17,151.35c0,1.88-.82,3-2.1,3s-2.09-1.07-2.09-3,.82-2.94,2.09-2.94S69.17,149.47,69.17,151.35Zm-3.3,0c0,1.36.46,2.09,1.2,2.09s1.21-.73,1.21-2.09-.46-2.09-1.21-2.09S65.87,150,65.87,151.35Z"/><path class="cls-1" d="M74.1,151.35c0,1.88-.82,3-2.1,3s-2.09-1.07-2.09-3,.82-2.94,2.09-2.94S74.1,149.47,74.1,151.35Zm-3.3,0c0,1.36.46,2.09,1.2,2.09s1.21-.73,1.21-2.09-.46-2.09-1.21-2.09S70.8,150,70.8,151.35Z"/><path class="cls-1" d="M76,150.77h.43l1.45-2.28h1l-1.77,2.7,1.8,3h-1l-1.49-2.55H76v2.55h-.88v-8.64H76Z"/><path class="cls-1" d="M6.33,168.6H5.42l1.22-6.92-2.49,4.53H3.34l-.91-4.5L1.22,168.6H.3l1.48-8.4H3l.92,4.7,2.6-4.7H7.81Z"/><path class="cls-1" d="M11.32,168.6h-.84l.11-.68a1.6,1.6,0,0,1-1.31.77c-.9,0-1.49-.75-1.49-2.08a5.65,5.65,0,0,1,.09-1c.32-1.82,1.18-2.84,2.27-2.84a1.18,1.18,0,0,1,1.19.91l.14-.83h.84Zm-2.57-2.9c-.24,1.38.11,2.15.78,2.15s1.25-.77,1.48-2.07-.13-2.15-.85-2.15S9,164.37,8.75,165.7Z"/><path class="cls-1" d="M16.09,162.94l-.26.88a1.28,1.28,0,0,0-.53-.11A1.34,1.34,0,0,0,14,165l-.64,3.65h-.86l1-5.71h.83l-.12.66a1.44,1.44,0,0,1,1.19-.75A1.41,1.41,0,0,1,16.09,162.94Z"/><path class="cls-1" d="M17.34,165.18h.41l1.79-2.29h1l-2.19,2.7,1.19,3h-1l-1-2.55h-.4l-.45,2.55h-.86L17.4,160h.86Z"/><path class="cls-1" d="M28.23,164.56c-.4,2.58-1.52,4.13-3.25,4.13-1.42,0-2.29-1.09-2.29-3.1a8.72,8.72,0,0,1,.11-1.36c.4-2.58,1.52-4.13,3.24-4.13S28.68,161.69,28.23,164.56Zm-4.47-.27c-.35,2.3.19,3.48,1.32,3.48s1.87-1.19,2.19-3.27c.35-2.3-.19-3.48-1.32-3.48S24.08,162.21,23.76,164.29Z"/><path class="cls-1" d="M33.75,161.07H31.91l-1.33,7.53h-.93L31,161.07H29.15l.16-.87h4.61Z"/><path class="cls-1" d="M40.93,161.87l-.83.31A1.32,1.32,0,0,0,38.85,161c-1.13,0-2,1.33-2.33,3.47s.24,3.37,1.33,3.37a2,2,0,0,0,1.59-1.25l.68.4a2.63,2.63,0,0,1-2.39,1.73c-1.41,0-2.24-1.18-2.24-3.13a8,8,0,0,1,.1-1.21c.41-2.73,1.61-4.25,3.29-4.25A2.07,2.07,0,0,1,40.93,161.87Z"/><path class="cls-1" d="M44.85,165.85c-.26,1.81-1.16,2.84-2.37,2.84s-1.72-.82-1.72-2.23a5.69,5.69,0,0,1,.06-.82c.26-1.81,1.15-2.84,2.37-2.84S45.12,163.93,44.85,165.85Zm-3.17-.16c-.2,1.41.13,2.15.86,2.15s1.25-.75,1.43-2.06-.14-2.15-.88-2.15S41.87,164.4,41.69,165.7Z"/><path class="cls-1" d="M49.67,164.68,49,168.6h-.88l.68-3.85c.13-.74-.2-1.12-.74-1.12a1.26,1.26,0,0,0-1.18,1.19l-.67,3.78h-.88l1-5.71h.85l-.11.59a1.75,1.75,0,0,1,1.34-.68C49.26,162.8,49.88,163.5,49.67,164.68Z"/><path class="cls-1" d="M53.88,163.66l.65-3.69h.85l-1.52,8.64H53l.12-.68a1.62,1.62,0,0,1-1.32.77c-.89,0-1.49-.75-1.49-2.08a5.65,5.65,0,0,1,.09-1c.32-1.82,1.17-2.84,2.26-2.84A1.18,1.18,0,0,1,53.88,163.66Zm-2.59,2c-.24,1.38.11,2.15.77,2.15s1.25-.77,1.48-2.07-.13-2.15-.85-2.15S51.51,164.36,51.29,165.7Z"/><path class="cls-1" d="M60.73,160.2c1.44,0,2.27.78,2,2.33a2.26,2.26,0,0,1-1.38,1.81,1.71,1.71,0,0,1,.84,2.06,2.49,2.49,0,0,1-2.75,2.21H57.27l1.48-8.4Zm-1.85,4.56-.53,3h1.26a1.57,1.57,0,0,0,1.64-1.5c.18-1-.31-1.46-1.24-1.46Zm.65-3.69-.5,2.84H60.2a1.5,1.5,0,0,0,1.58-1.45c.17-1-.31-1.39-1.2-1.39Z"/><path class="cls-1" d="M67.11,165.85c-.26,1.81-1.16,2.84-2.37,2.84S63,167.87,63,166.46a5.69,5.69,0,0,1,.06-.82c.26-1.81,1.15-2.84,2.37-2.84S67.38,163.93,67.11,165.85Zm-3.17-.16c-.2,1.41.13,2.15.86,2.15s1.25-.75,1.43-2.06-.14-2.15-.88-2.15S64.13,164.4,63.95,165.7Z"/><path class="cls-1" d="M71.88,165.85c-.26,1.81-1.16,2.84-2.37,2.84s-1.72-.82-1.72-2.23a5.69,5.69,0,0,1,.06-.82c.26-1.81,1.15-2.84,2.37-2.84S72.15,163.93,71.88,165.85Zm-3.17-.16c-.2,1.41.13,2.15.86,2.15s1.25-.75,1.43-2.06-.14-2.15-.88-2.15S68.9,164.4,68.72,165.7Z"/><path class="cls-1" d="M73.81,165.18h.41L76,162.89h1l-2.19,2.7,1.19,3H75l-1-2.55h-.4l-.45,2.55h-.86L73.88,160h.86Z"/><path class="cls-1" d="M79.66,168.6h-.93l1.48-8.4h.93Z"/><path class="cls-1" d="M84.58,163.71H83.09l-.59,3.36c-.1.56.12.79.5.79a1.23,1.23,0,0,0,.68-.22l.31.7a2.17,2.17,0,0,1-1.19.36c-.88,0-1.35-.56-1.16-1.62l.59-3.36h-.83l.15-.82h.82l.27-1.5h.86l-.26,1.5h1.5Z"/><path class="cls-1" d="M88.32,168.6h-.84l.11-.68a1.6,1.6,0,0,1-1.31.77c-.9,0-1.49-.75-1.49-2.08a5.65,5.65,0,0,1,.09-1c.32-1.82,1.18-2.84,2.27-2.84a1.18,1.18,0,0,1,1.19.91l.14-.83h.84Zm-2.57-2.9c-.24,1.38.11,2.15.78,2.15s1.25-.77,1.48-2.07-.13-2.15-.85-2.15S86,164.37,85.74,165.7Z"/><path class="cls-1" d="M90.4,168.6h-.86L91.06,160h.86Z"/><path class="cls-1" d="M92.48,168.6h-.86l1-5.71h.86Zm1.47-7.72a.58.58,0,0,1-.59.59.57.57,0,0,1-.58-.59.58.58,0,1,1,1.17,0Z"/><path class="cls-1" d="M97.69,163.69l-.65.5a.83.83,0,0,0-.78-.54c-.68,0-1.24.62-1.44,2.06s.18,2.14.84,2.14a1.28,1.28,0,0,0,1-.49l.48.64a2,2,0,0,1-1.54.7c-1.06,0-1.7-.83-1.7-2.25a5.36,5.36,0,0,1,.06-.79c.27-1.87,1.16-2.84,2.39-2.84A1.49,1.49,0,0,1,97.69,163.69Z"/><path class="cls-1" d="M7.33,183H6.22v-6.61l-1.66,4.37h-1l-1.65-4.33V183H.82v-8.4H2.36l1.72,4.55L5.8,174.6H7.33Z"/><path class="cls-1" d="M12.65,183h-1v-.62a1.47,1.47,0,0,1-1.28.73c-1.17,0-2-1.12-2-3s.79-3,2-3a1.47,1.47,0,0,1,1.28.74v-.63h1Zm-3.18-2.87c0,1.27.41,2,1.1,2s1.1-.68,1.1-2-.41-2-1.1-2S9.46,178.86,9.46,180.13Z"/><path class="cls-1" d="M16.7,177.27l-.16,1.12a1.65,1.65,0,0,0-.62-.13c-.57,0-1,.43-1,1.26V183h-1v-5.74h1v.57a1.23,1.23,0,0,1,1.12-.68A1.83,1.83,0,0,1,16.7,177.27Z"/><path class="cls-1" d="M18.55,179.47h.38l1.37-2.21h1.22L19.77,180l1.78,3H20.33l-1.42-2.48h-.36V183h-1v-8.64h1Z"/><path class="cls-1" d="M29.89,178.8c0,2.7-1.07,4.31-2.94,4.31S24,181.51,24,178.8,25.1,174.5,27,174.5,29.89,176.1,29.89,178.8Zm-4.68,0c0,2.06.67,3.18,1.74,3.18s1.75-1.12,1.75-3.18S28,175.62,27,175.62,25.21,176.74,25.21,178.8Z"/><path class="cls-1" d="M35.11,175.67H33.23V183H32.09v-7.33H30.2V174.6h4.91Z"/><path class="cls-1" d="M42.82,176.2l-1,.43a1.46,1.46,0,0,0-1.35-1c-1,0-1.71,1.09-1.71,3.18s.67,3.18,1.71,3.18a1.46,1.46,0,0,0,1.35-1l1,.44a2.39,2.39,0,0,1-2.33,1.69c-1.82,0-2.9-1.57-2.9-4.31s1.07-4.31,2.9-4.31A2.39,2.39,0,0,1,42.82,176.2Z"/><path class="cls-1" d="M47.72,180.13c0,1.89-.86,3-2.19,3s-2.19-1.09-2.19-3,.85-3,2.19-3S47.72,178.23,47.72,180.13Zm-3.32,0c0,1.27.43,1.95,1.12,1.95s1.12-.68,1.12-1.95-.43-1.95-1.12-1.95S44.4,178.86,44.4,180.13Z"/><path class="cls-1" d="M52.66,179v4H51.6v-3.84c0-.66-.35-1-.91-1a1,1,0,0,0-1,1V183h-1v-5.74h1v.53a1.47,1.47,0,0,1,1.28-.64A1.63,1.63,0,0,1,52.66,179Z"/><path class="cls-1" d="M56.82,177.85v-3.49h1V183h-1v-.62a1.47,1.47,0,0,1-1.28.73c-1.17,0-2-1.12-2-3s.79-3,2-3A1.46,1.46,0,0,1,56.82,177.85Zm-2.14,2.27c0,1.27.41,2,1.1,2s1.1-.68,1.1-2-.41-2-1.1-2S54.68,178.86,54.68,180.13Z"/><path class="cls-1" d="M67.86,183H66.74v-6.61l-1.66,4.37h-1l-1.65-4.33V183H61.34v-8.4h1.54l1.72,4.55,1.72-4.55h1.54Z"/><path class="cls-1" d="M73.06,180.12c0,.13,0,.25,0,.37H70c.08,1.14.55,1.62,1.26,1.62a1.7,1.7,0,0,0,1.17-.47l.5.79a2.47,2.47,0,0,1-1.77.68c-1.4,0-2.25-1.06-2.25-3s.84-3,2.13-3S73.06,178.2,73.06,180.12ZM70,179.65h2c-.05-1-.41-1.51-1-1.51S70.08,178.67,70,179.65Z"/><path class="cls-1" d="M77,177.85v-3.49h1V183H77v-.62a1.47,1.47,0,0,1-1.28.73c-1.17,0-2-1.12-2-3s.79-3,2-3A1.46,1.46,0,0,1,77,177.85Zm-2.14,2.27c0,1.27.41,2,1.1,2s1.1-.68,1.1-2-.41-2-1.1-2S74.86,178.86,74.86,180.13Z"/><path class="cls-1" d="M80.52,175.26a.72.72,0,0,1-1.43,0,.72.72,0,1,1,1.43,0ZM80.33,183H79.28v-5.74h1.06Z"/><path class="cls-1" d="M85.44,181a2,2,0,1,1-3.92,0v-3.75h1V181c0,.79.38,1.11.91,1.11s.91-.32.91-1.11v-3.71h1.06Z"/><path class="cls-1" d="M93.52,179v4H92.47v-3.84c0-.66-.35-1-.91-1a.93.93,0,0,0-.95,1V183H89.55v-3.84c0-.66-.35-1-.91-1a1,1,0,0,0-1,1V183h-1v-5.74h1v.53a1.47,1.47,0,0,1,1.28-.64,1.56,1.56,0,0,1,1.4.74,1.63,1.63,0,0,1,1.46-.74A1.67,1.67,0,0,1,93.52,179Z"/><path class="cls-1" d="M6.61,197.4H5.51l1.17-6.64-2.34,4.38h-1l-.82-4.34-1.17,6.6H.28L1.76,189H3.24l.84,4.56L6.55,189H8.09Z"/><path class="cls-1" d="M11.73,197.4h-1l.1-.59a1.57,1.57,0,0,1-1.25.7c-.92,0-1.54-.77-1.54-2.13a5.72,5.72,0,0,1,.09-1c.32-1.83,1.19-2.85,2.29-2.85a1.19,1.19,0,0,1,1.19.84l.13-.73h1Zm-2.57-2.93c-.23,1.3.11,2,.73,2s1.16-.71,1.37-1.92c.24-1.37-.13-2-.82-2S9.38,193.23,9.16,194.47Z"/><path class="cls-1" d="M16.62,191.69l-.29,1.07a1.31,1.31,0,0,0-.54-.11c-.59,0-1.09.35-1.24,1.24l-.62,3.52h-1l1-5.74h1l-.11.61a1.43,1.43,0,0,1,1.17-.71A1.52,1.52,0,0,1,16.62,191.69Z"/><path class="cls-1" d="M18,193.88h.36l1.7-2.22h1.23l-2.18,2.72,1.17,3H19.13l-.93-2.48h-.35l-.44,2.48h-1l1.52-8.64h1Z"/><path class="cls-1" d="M29.14,193.4c-.4,2.53-1.53,4.11-3.33,4.11-1.48,0-2.39-1.12-2.39-3.17a8.43,8.43,0,0,1,.11-1.34c.4-2.54,1.53-4.1,3.33-4.1S29.6,190.51,29.14,193.4Zm-4.46-.33c-.35,2.2.17,3.33,1.25,3.33s1.75-1.15,2.06-3.08c.35-2.2-.17-3.33-1.25-3.33S25,191.15,24.68,193.07Z"/><path class="cls-1" d="M34.8,190H33l-1.3,7.35H30.56l1.3-7.35H30l.19-1H35Z"/><path class="cls-1" d="M42.22,190.6l-1,.37a1.28,1.28,0,0,0-1.21-1c-1.08,0-1.89,1.33-2.19,3.32s.26,3.2,1.3,3.2a1.83,1.83,0,0,0,1.46-1.1l.82.48A2.63,2.63,0,0,1,39,197.51c-1.48,0-2.35-1.26-2.35-3.24a8.28,8.28,0,0,1,.08-1.12c.38-2.71,1.61-4.25,3.35-4.25A2.18,2.18,0,0,1,42.22,190.6Z"/><path class="cls-1" d="M46.29,194.65c-.26,1.81-1.19,2.85-2.46,2.85S42,196.66,42,195.19a5.37,5.37,0,0,1,.06-.79c.26-1.81,1.19-2.85,2.46-2.85S46.56,192.71,46.29,194.65Zm-3.18-.19c-.19,1.33.11,2,.81,2s1.16-.7,1.33-1.91-.12-2-.82-2S43.28,193.26,43.11,194.47Z"/><path class="cls-1" d="M51.27,193.49l-.69,3.91h-1l.67-3.82c.13-.7-.19-1-.68-1s-.95.32-1.09,1.11l-.65,3.75H46.73l1-5.74h1l-.1.56a1.77,1.77,0,0,1,1.33-.66C50.83,191.55,51.48,192.28,51.27,193.49Z"/><path class="cls-1" d="M55.47,192.34l.62-3.57h1l-1.52,8.64h-1l.1-.59a1.57,1.57,0,0,1-1.25.7c-.92,0-1.54-.77-1.54-2.13a5.72,5.72,0,0,1,.09-1c.32-1.83,1.19-2.85,2.29-2.85A1.18,1.18,0,0,1,55.47,192.34ZM53,194.47c-.23,1.3.11,2,.73,2s1.16-.71,1.37-1.92c.24-1.37-.13-2-.82-2S53.24,193.23,53,194.47Z"/><path class="cls-1" d="M65.34,197.4h-1.1l1.17-6.64-2.34,4.38h-1l-.82-4.34-1.17,6.6H59l1.48-8.4H62l.84,4.56L65.28,189h1.54Z"/><path class="cls-1" d="M70.88,194.55l-.07.32h-3c-.08,1,.27,1.65,1,1.65a2,2,0,0,0,1.18-.48l.44.82a2.58,2.58,0,0,1-1.7.64c-1.22,0-1.95-.9-1.95-2.34a4.84,4.84,0,0,1,.05-.7c.27-1.88,1.19-2.91,2.43-2.91S71.23,192.62,70.88,194.55ZM68,194h1.94c.08-1-.16-1.51-.68-1.51S68.2,193.06,68,194Z"/><path class="cls-1" d="M75.05,192.34l.62-3.57h1l-1.52,8.64h-1l.1-.59a1.57,1.57,0,0,1-1.25.7c-.92,0-1.54-.77-1.54-2.13a5.72,5.72,0,0,1,.09-1c.32-1.83,1.19-2.85,2.29-2.85A1.18,1.18,0,0,1,75.05,192.34Zm-2.45,2.13c-.23,1.3.11,2,.73,2s1.16-.71,1.37-1.92c.24-1.37-.13-2-.82-2S72.82,193.23,72.6,194.47Z"/><path class="cls-1" d="M77.39,197.4h-1l1-5.74h1Zm1.49-7.74a.69.69,0,0,1-.71.71.69.69,0,0,1-.69-.71.7.7,0,1,1,1.4,0Z"/><path class="cls-1" d="M82.66,195.47a2.14,2.14,0,0,1-2.15,2,1.53,1.53,0,0,1-1.66-1.69,3.3,3.3,0,0,1,.06-.62l.63-3.55h1l-.64,3.65c-.15.85.19,1.19.71,1.19s.87-.32,1-1.1l.65-3.74h1Z"/><path class="cls-1" d="M90.81,193.47l-.7,3.93h-1l.67-3.82c.11-.66-.16-1-.67-1a1.11,1.11,0,0,0-1.07,1l-.68,3.9H86.26l.67-3.82c.11-.66-.16-1-.67-1s-1,.28-1.1,1.11l-.65,3.75h-1l1-5.74h1l-.1.56a1.73,1.73,0,0,1,1.31-.67,1.26,1.26,0,0,1,1.21.8,1.9,1.9,0,0,1,1.54-.8C90.44,191.55,91,192.4,90.81,193.47Z"/><path class="cls-1" d="M94.61,197.4H93.49L95,189h1.12Z"/><path class="cls-1" d="M99.58,192.64H98.13l-.55,3.13c-.1.53.11.73.44.73a1.46,1.46,0,0,0,.78-.26l.23.91a2.34,2.34,0,0,1-1.25.36c-.95,0-1.45-.6-1.25-1.75l.55-3.12h-.82l.18-1h.82l.26-1.5h1l-.26,1.5h1.46Z"/><path class="cls-1" d="M103.44,197.4h-1l.1-.59a1.57,1.57,0,0,1-1.25.7c-.92,0-1.54-.77-1.54-2.13a5.72,5.72,0,0,1,.09-1c.32-1.83,1.19-2.85,2.29-2.85a1.19,1.19,0,0,1,1.19.84l.13-.73h1Zm-2.57-2.93c-.23,1.3.11,2,.73,2s1.16-.71,1.37-1.92c.24-1.37-.13-2-.82-2S101.08,193.23,100.86,194.47Z"/><path class="cls-1" d="M105.65,197.4h-1l1.52-8.64h1Z"/><path class="cls-1" d="M107.85,197.4h-1l1-5.74h1Zm1.49-7.74a.69.69,0,0,1-.71.71.69.69,0,0,1-.69-.71.7.7,0,1,1,1.4,0Z"/><path class="cls-1" d="M113.2,192.45l-.77.6a.8.8,0,0,0-.74-.48c-.62,0-1.15.54-1.34,1.91s.17,2,.79,2a1.26,1.26,0,0,0,.92-.43l.58.77a2.1,2.1,0,0,1-1.6.67c-1.11,0-1.8-.86-1.8-2.31a5.15,5.15,0,0,1,.06-.78c.27-1.88,1.2-2.85,2.47-2.85A1.62,1.62,0,0,1,113.2,192.45Z"/><path class="cls-1" d="M7.62,211.8H6.13v-6.12L4.85,209.6H3.45l-1.28-3.9v6.09H.67v-8.4H2.73l1.42,4.25,1.42-4.25H7.62Z"/><path class="cls-1" d="M12.94,211.8H11.58v-.68a1.35,1.35,0,0,1-1.22.8c-1.17,0-1.92-1.18-1.92-3s.76-3,1.92-3a1.35,1.35,0,0,1,1.22.8V206h1.36Zm-3.06-2.93c0,1.15.32,1.7.86,1.7s.87-.54.87-1.7-.32-1.69-.87-1.69S9.88,207.73,9.88,208.87Z"/><path class="cls-1" d="M16.93,205.92l-.14,1.5a2,2,0,0,0-.62-.11c-.51,0-.86.34-.86,1v3.45h-1.4V206h1.34v.69a1.2,1.2,0,0,1,1.17-.81A1.37,1.37,0,0,1,16.93,205.92Z"/><path class="cls-1" d="M19,208.05h.3l1.09-2.1H22l-1.58,2.78L22,211.8H20.38l-1.14-2.37H19v2.37h-1.4v-8.64H19Z"/><path class="cls-1" d="M30.33,207.6c0,2.75-1.13,4.32-3,4.32s-3-1.57-3-4.32,1.12-4.32,3-4.32S30.33,204.86,30.33,207.6Zm-4.49,0c0,1.9.55,2.83,1.46,2.83s1.46-.94,1.46-2.83-.55-2.84-1.46-2.84S25.83,205.71,25.83,207.6Z"/><path class="cls-1" d="M35.64,204.8H33.86v7H32.34v-7H30.56v-1.4h5.08Z"/><path class="cls-1" d="M43.4,205.11l-1.3.59a1.26,1.26,0,0,0-1.18-.94c-.88,0-1.42.92-1.42,2.84s.57,2.83,1.42,2.83a1.26,1.26,0,0,0,1.18-.93l1.28.64a2.52,2.52,0,0,1-2.46,1.78c-1.87,0-3-1.55-3-4.32s1.12-4.32,3-4.32A2.53,2.53,0,0,1,43.4,205.11Z"/><path class="cls-1" d="M48.34,208.87c0,1.92-.9,3-2.31,3s-2.31-1.12-2.31-3,.9-3,2.31-3S48.34,207,48.34,208.87Zm-3.19,0c0,1.15.33,1.69.88,1.69s.88-.54.88-1.69-.33-1.68-.88-1.68S45.15,207.74,45.15,208.87Z"/><path class="cls-1" d="M53.33,207.63v4.17h-1.4V208c0-.56-.28-.83-.7-.83a.72.72,0,0,0-.72.81v3.82H49.1V206h1.34v.67a1.36,1.36,0,0,1,1.31-.79A1.59,1.59,0,0,1,53.33,207.63Z"/><path class="cls-1" d="M57.15,206.55v-3.39h1.4v8.64H57.2v-.68a1.35,1.35,0,0,1-1.22.8c-1.17,0-1.92-1.18-1.92-3s.76-3,1.92-3A1.34,1.34,0,0,1,57.15,206.55Zm-1.66,2.32c0,1.15.32,1.7.86,1.7s.87-.54.87-1.7-.32-1.69-.87-1.69S55.49,207.73,55.49,208.87Z"/><path class="cls-1" d="M64,203.4c1.6,0,2.63.82,2.63,2.35a1.89,1.89,0,0,1-1,1.76,2,2,0,0,1,1.15,1.9c0,1.55-1,2.38-2.65,2.38H61.57v-8.4Zm-.89,1.36v2.13H64a1.07,1.07,0,1,0,0-2.13Zm0,3.47v2.22h1a1.11,1.11,0,1,0,0-2.22Z"/><path class="cls-1" d="M71.94,208.87c0,1.92-.9,3-2.31,3s-2.31-1.12-2.31-3,.9-3,2.31-3S71.94,207,71.94,208.87Zm-3.19,0c0,1.15.33,1.69.88,1.69s.88-.54.88-1.69-.33-1.68-.88-1.68S68.75,207.74,68.75,208.87Z"/><path class="cls-1" d="M74.1,211.8H72.7v-8.64h1.4Z"/><path class="cls-1" d="M78,206.55v-3.39h1.4v8.64H78v-.68a1.35,1.35,0,0,1-1.22.8c-1.17,0-1.92-1.18-1.92-3s.76-3,1.92-3A1.34,1.34,0,0,1,78,206.55Zm-1.66,2.32c0,1.15.32,1.7.86,1.7s.87-.54.87-1.7-.32-1.69-.87-1.69S76.29,207.73,76.29,208.87Z"/><path class="cls-1" d="M6.93,226.2H5.45L6.54,220l-1.92,4H3.24l-.55-3.93L1.61,226.2H.14l1.48-8.4h2l.61,4.26,2.13-4.26H8.41Z"/><path class="cls-1" d="M12.11,226.2H10.77l.11-.65a1.52,1.52,0,0,1-1.25.77c-.88,0-1.46-.87-1.46-2.25a5.77,5.77,0,0,1,.1-1c.31-1.78,1.11-2.81,2.24-2.81a1.12,1.12,0,0,1,1.16.86l.13-.74h1.33Zm-2.46-3c-.19,1.19.08,1.76.56,1.76s.93-.63,1.1-1.69-.1-1.73-.61-1.73S9.81,222.14,9.64,223.23Z"/><path class="cls-1" d="M17,220.35l-.31,1.44a1.58,1.58,0,0,0-.54-.1c-.56,0-1,.35-1.12,1.14l-.58,3.36H13l1-5.84h1.32l-.13.66a1.37,1.37,0,0,1,1.19-.78A1.22,1.22,0,0,1,17,220.35Z"/><path class="cls-1" d="M18.54,222.47h.29l1.43-2.11h1.63l-2,2.77,1,3.07h-1.6l-.69-2.38h-.27l-.42,2.38H16.51L18,217.56h1.38Z"/><path class="cls-1" d="M29.7,222.17c-.41,2.6-1.6,4.15-3.45,4.15-1.5,0-2.49-1.16-2.49-3.24a7.87,7.87,0,0,1,.11-1.25c.41-2.6,1.58-4.14,3.44-4.14S30.15,219.32,29.7,222.17Zm-4.31-.26c-.31,1.94.11,2.94,1,2.94s1.48-1,1.76-2.77-.11-2.94-1-2.94S25.67,220.12,25.39,221.91Z"/><path class="cls-1" d="M35.4,219.18H33.67l-1.23,7H30.95l1.24-7H30.45l.25-1.38h5Z"/><path class="cls-1" d="M42.92,219.56,41.6,220a1.09,1.09,0,0,0-1-.92c-.92,0-1.61,1.2-1.87,3s.2,2.84,1,2.84A1.5,1.5,0,0,0,41,224l1.16.64a2.78,2.78,0,0,1-2.55,1.72c-1.55,0-2.46-1.28-2.46-3.3a7.82,7.82,0,0,1,.08-1.09c.39-2.73,1.65-4.24,3.44-4.24A2.24,2.24,0,0,1,42.92,219.56Z"/><path class="cls-1" d="M47.16,223.38c-.27,1.9-1.25,2.93-2.6,2.93s-1.94-.9-1.94-2.38a5.73,5.73,0,0,1,.05-.76c.26-1.9,1.25-2.93,2.59-2.93S47.43,221.45,47.16,223.38Zm-3.08-.15c-.17,1.19.08,1.75.62,1.75s.91-.59,1.07-1.65-.09-1.75-.63-1.75S44.23,222.17,44.08,223.23Z"/><path class="cls-1" d="M52.23,222.16l-.71,4h-1.4l.66-3.77c.11-.61-.12-.88-.5-.88s-.71.25-.81.82l-.67,3.83H47.38l1-5.84h1.34l-.11.62a1.57,1.57,0,0,1,1.34-.73C51.87,220.25,52.44,221,52.23,222.16Z"/><path class="cls-1" d="M56.11,221l.61-3.47h1.38l-1.52,8.64H55.24l.11-.64a1.51,1.51,0,0,1-1.24.76c-.89,0-1.46-.87-1.46-2.23a6,6,0,0,1,.09-1c.32-1.83,1.14-2.85,2.24-2.85A1.12,1.12,0,0,1,56.11,221Zm-2,2.19c-.19,1.19.08,1.76.57,1.76s.92-.6,1.1-1.66c.2-1.22-.08-1.76-.61-1.76S54.29,222.15,54.11,223.23Z"/><path class="cls-1" d="M65.5,220.26A2.3,2.3,0,0,1,64.22,222a1.78,1.78,0,0,1,.76,2A2.61,2.61,0,0,1,62,226.2H59.54L61,217.8h2.26C64.87,217.8,65.77,218.69,65.5,220.26Zm-3.84,2.36-.4,2.25h1a1.18,1.18,0,0,0,1.21-1.14c.14-.79-.26-1.11-1-1.11Zm.61-3.47-.38,2.16h.91A1.15,1.15,0,0,0,64,220.2c.14-.79-.25-1.06-1-1.06Z"/><path class="cls-1" d="M70.17,223.38c-.27,1.9-1.25,2.93-2.6,2.93s-1.94-.9-1.94-2.38a5.73,5.73,0,0,1,.05-.76c.26-1.9,1.25-2.93,2.59-2.93S70.44,221.45,70.17,223.38Zm-3.08-.15c-.17,1.19.08,1.75.62,1.75s.91-.59,1.07-1.65-.09-1.75-.63-1.75S67.23,222.17,67.08,223.23Z"/><path class="cls-1" d="M71.78,226.2h-1.4l1.52-8.64h1.4Z"/><path class="cls-1" d="M76.41,221l.61-3.47h1.38l-1.52,8.64H75.54l.11-.64a1.51,1.51,0,0,1-1.24.76c-.89,0-1.46-.87-1.46-2.23a6,6,0,0,1,.09-1c.32-1.83,1.14-2.85,2.24-2.85A1.12,1.12,0,0,1,76.41,221Zm-2,2.19c-.19,1.19.08,1.76.57,1.76s.92-.6,1.1-1.66c.2-1.22-.08-1.76-.61-1.76S74.58,222.15,74.4,223.23Z"/><path class="cls-1" d="M81.32,226.2H79.83l1.48-8.4H82.8Z"/><path class="cls-1" d="M86.3,221.65H85l-.47,2.69c-.08.44.08.64.38.64a1.43,1.43,0,0,0,.71-.23l.29,1.21a2.57,2.57,0,0,1-1.36.36c-1.07,0-1.64-.65-1.42-1.91l.49-2.75H82.8l.23-1.29h.77l.26-1.51h1.38l-.26,1.51h1.35Z"/><path class="cls-1" d="M90.35,226.2H89l.11-.65a1.52,1.52,0,0,1-1.25.77c-.88,0-1.46-.87-1.46-2.25a5.77,5.77,0,0,1,.1-1c.31-1.78,1.11-2.81,2.24-2.81a1.12,1.12,0,0,1,1.16.86l.13-.74h1.33Zm-2.46-3c-.19,1.19.08,1.76.56,1.76s.93-.63,1.1-1.69-.1-1.73-.61-1.73S88.06,222.14,87.89,223.23Z"/><path class="cls-1" d="M92.66,226.2h-1.4l1.52-8.64h1.4Z"/><path class="cls-1" d="M95,226.2H93.57l1-5.84H96Zm1.48-7.76a.85.85,0,1,1-1.7,0,.85.85,0,1,1,1.7,0Z"/><path class="cls-1" d="M100.35,221.32l-1.07.71a.67.67,0,0,0-.61-.46c-.47,0-.91.43-1.08,1.68s.14,1.72.61,1.72a.94.94,0,0,0,.72-.39l.88.89a2.12,2.12,0,0,1-1.76.83c-1.16,0-1.9-.9-1.9-2.4a5.55,5.55,0,0,1,.05-.75c.27-1.92,1.25-2.92,2.57-2.92A1.71,1.71,0,0,1,100.35,221.32Z"/><path class="cls-1" d="M7.81,240.6H6.07v-5.79l-1,3.63H3.36l-1-3.62v5.78H.58v-8.4H3l1.23,4,1.22-4H7.81Z"/><path class="cls-1" d="M13.13,240.6H11.56V240a1.27,1.27,0,0,1-1.14.7c-1.19,0-1.94-1.21-1.94-3.09s.75-3.08,1.94-3.08a1.28,1.28,0,0,1,1.14.71v-.58h1.57Zm-3-3c0,1.07.26,1.53.71,1.53s.72-.46.72-1.53-.26-1.52-.72-1.52S10.14,236.57,10.14,237.64Z"/><path class="cls-1" d="M17.07,234.63l-.13,1.74a2.22,2.22,0,0,0-.62-.1c-.47,0-.77.29-.77.88v3.44H13.92v-5.91h1.55v.64a1.18,1.18,0,0,1,1.16-.76A1.29,1.29,0,0,1,17.07,234.63Z"/><path class="cls-1" d="M19.22,236.71h.23l.92-2h1.91l-1.47,2.81,1.5,3.1H20.4l-1-2.3h-.21v2.3H17.59V232h1.63Z"/><path class="cls-1" d="M30.58,236.4c0,2.77-1.16,4.32-3.09,4.32s-3.09-1.55-3.09-4.32,1.15-4.32,3.09-4.32S30.58,233.63,30.58,236.4Zm-4.37,0c0,1.78.47,2.61,1.27,2.61s1.27-.83,1.27-2.61-.47-2.61-1.27-2.61S26.22,234.62,26.22,236.4Z"/><path class="cls-1" d="M36,233.82H34.25v6.78H32.49v-6.78H30.77V232.2H36Z"/><path class="cls-1" d="M43.77,234l-1.52.7c-.23-.59-.58-.88-1.06-.88-.77,0-1.24.82-1.24,2.61s.51,2.61,1.24,2.61c.49,0,.83-.28,1.08-.88l1.47.76a2.61,2.61,0,0,1-2.55,1.83c-1.9,0-3-1.54-3-4.32s1.15-4.32,3-4.32A2.63,2.63,0,0,1,43.77,234Z"/><path class="cls-1" d="M48.75,237.64c0,1.94-.92,3.08-2.38,3.08S44,239.58,44,237.64s.92-3.08,2.38-3.08S48.75,235.71,48.75,237.64Zm-3.11,0c0,1.06.27,1.51.73,1.51s.73-.46.73-1.51-.27-1.5-.73-1.5S45.64,236.59,45.64,237.64Z"/><path class="cls-1" d="M53.76,236.38v4.22H52.13v-3.78c0-.49-.23-.71-.56-.71s-.57.21-.57.7v3.8H49.36v-5.91h1.55v.64a1.33,1.33,0,0,1,1.29-.77C53.13,234.56,53.76,235.24,53.76,236.38Z"/><path class="cls-1" d="M57.36,235.16V232H59v8.64H57.42V240a1.27,1.27,0,0,1-1.14.7c-1.19,0-1.94-1.21-1.94-3.09s.75-3.08,1.94-3.08A1.26,1.26,0,0,1,57.36,235.16ZM56,237.64c0,1.07.26,1.53.71,1.53s.72-.46.72-1.53-.26-1.52-.72-1.52S56,236.57,56,237.64Z"/><path class="cls-1" d="M63.46,235.55h2.09V232.2h1.76v8.4H65.55v-3.43H63.46v3.43H61.7v-8.4h1.76Z"/><path class="cls-1" d="M72.54,237.64a5.23,5.23,0,0,1,0,.55H69.65c.09.77.4,1.06.93,1.06a1.42,1.42,0,0,0,1-.4l.87,1.11a2.73,2.73,0,0,1-2,.76c-1.52,0-2.45-1.11-2.45-3.06s.89-3.1,2.33-3.1S72.54,235.68,72.54,237.64Zm-2.9-.61h1.28c-.08-.71-.27-1-.64-1S69.71,236.33,69.65,237Z"/><path class="cls-1" d="M77.62,240.6H76.05V240a1.27,1.27,0,0,1-1.14.7c-1.19,0-1.94-1.21-1.94-3.09s.75-3.08,1.94-3.08a1.28,1.28,0,0,1,1.14.71v-.58h1.57Zm-3-3c0,1.07.26,1.53.71,1.53s.72-.46.72-1.53-.26-1.52-.72-1.52S74.63,236.57,74.63,237.64Z"/><path class="cls-1" d="M81.48,240.6H79.65L78,234.69h1.7l.83,3.79.84-3.79h1.65Z"/><path class="cls-1" d="M85.47,242.75H83.76L85,239.63l-1.82-4.94h1.77l.87,2.87.91-2.87h1.72Z"/><path class="cls-1" d="M7.14,255H5.42l1-5.83-1.64,3.67H3.16l-.37-3.65-1,5.82H.05l1.48-8.4H3.86l.47,4.07,1.9-4.07H8.62Z"/><path class="cls-1" d="M12.32,255H10.79l.1-.56a1.45,1.45,0,0,1-1.19.69c-.89,0-1.45-.92-1.45-2.29a5.88,5.88,0,0,1,.1-1C8.66,250,9.43,249,10.58,249a1.1,1.1,0,0,1,1.13.79l.11-.67h1.54Zm-2.4-3c-.17,1.12.07,1.6.49,1.6s.75-.53.91-1.51-.07-1.58-.5-1.58S10.08,251,9.92,252Z"/><path class="cls-1" d="M17.15,249.06l-.32,1.68a1.92,1.92,0,0,0-.54-.08,1,1,0,0,0-1,.89L14.68,255H13.07l1-5.91h1.52l-.11.57a1.3,1.3,0,0,1,1.14-.69A1.24,1.24,0,0,1,17.15,249.06Z"/><path class="cls-1" d="M18.88,251.13h.21l1.26-2h1.89l-1.94,2.79.91,3.11H19.35l-.55-2.31h-.2L18.2,255H16.6l1.52-8.64h1.61Z"/><path class="cls-1" d="M30.06,251c-.42,2.65-1.62,4.17-3.52,4.17-1.5,0-2.55-1.19-2.55-3.3a7.63,7.63,0,0,1,.1-1.18c.42-2.64,1.63-4.17,3.52-4.17S30.51,248.12,30.06,251Zm-4.21-.21c-.28,1.77.07,2.69.87,2.69s1.3-.86,1.57-2.57-.08-2.69-.87-2.69S26.12,249,25.85,250.74Z"/><path class="cls-1" d="M35.81,248.2H34.14l-1.2,6.8H31.21l1.2-6.8H30.73l.29-1.6H36.1Z"/><path class="cls-1" d="M43.38,248.46l-1.53.5a1,1,0,0,0-.92-.85c-.8,0-1.42,1.12-1.66,2.79s.16,2.6.86,2.6c.5,0,.82-.32,1.13-.87l1.37.74A2.86,2.86,0,0,1,40,255.13c-1.58,0-2.52-1.3-2.52-3.34a7.58,7.58,0,0,1,.08-1.08c.38-2.74,1.68-4.23,3.48-4.23A2.3,2.3,0,0,1,43.38,248.46Z"/><path class="cls-1" d="M47.73,252.13c-.28,2-1.3,3-2.67,3s-2-.94-2-2.44a5.3,5.3,0,0,1,.05-.73c.28-2,1.3-3,2.68-3S48,250.21,47.73,252.13Zm-3-.13c-.16,1.1.07,1.58.5,1.58s.76-.52.9-1.49-.07-1.57-.51-1.57S44.84,251,44.7,252Z"/><path class="cls-1" d="M52.85,250.87,52.12,255H50.49l.65-3.72c.1-.56-.07-.78-.39-.78s-.54.2-.65.7L49.44,255H47.81l1-5.91H50.4l-.11.58a1.5,1.5,0,0,1,1.3-.7C52.54,249,53.05,249.72,52.85,250.87Z"/><path class="cls-1" d="M56.57,249.67l.57-3.31h1.61L57.22,255H55.68l.1-.56a1.44,1.44,0,0,1-1.17.68c-.91,0-1.46-.91-1.46-2.27a5.78,5.78,0,0,1,.1-1c.32-1.81,1.11-2.85,2.23-2.85A1.1,1.1,0,0,1,56.57,249.67ZM54.82,252c-.18,1.11.07,1.58.49,1.58s.75-.52.91-1.51-.07-1.58-.49-1.58S55,251,54.82,252Z"/><path class="cls-1" d="M62.52,250h2l.59-3.36h1.73L65.39,255H63.66l.61-3.44h-2L61.63,255H59.9l1.48-8.4h1.73Z"/><path class="cls-1" d="M71,252c0,.17-.07.38-.11.53H68.13c0,.82.27,1.1.75,1.1a1.54,1.54,0,0,0,1-.43l.77,1.16a2.9,2.9,0,0,1-1.94.72c-1.35,0-2.15-.94-2.15-2.43a4.6,4.6,0,0,1,.05-.68c.28-2,1.25-3,2.63-3S71.34,250.09,71,252Zm-2.74-.59h1.23c.07-.69-.07-1-.43-1S68.46,250.76,68.29,251.45Z"/><path class="cls-1" d="M75.46,255H73.92l.1-.56a1.45,1.45,0,0,1-1.19.69c-.89,0-1.45-.92-1.45-2.29a5.88,5.88,0,0,1,.1-1c.31-1.79,1.08-2.82,2.24-2.82a1.1,1.1,0,0,1,1.13.79l.11-.67H76.5Zm-2.4-3c-.17,1.12.07,1.6.49,1.6s.75-.53.91-1.51-.07-1.58-.5-1.58S73.22,251,73.06,252Z"/><path class="cls-1" d="M79.23,255H77.43l-.53-5.91h1.66l.14,3.79,1.48-3.79h1.65Z"/><path class="cls-1" d="M82.79,257.15H81.07L82.84,254l-.91-4.89h1.71L84,252l1.38-2.87h1.72Z"/><path class="cls-1" d="M90,255H88.3l1.48-8.4h1.73Z"/><path class="cls-1" d="M95,250.57H93.72L93.3,253c-.07.38.06.59.34.59a1.48,1.48,0,0,0,.65-.22l.34,1.4a2.74,2.74,0,0,1-1.44.37c-1.16,0-1.76-.7-1.52-2l.44-2.52h-.75l.27-1.48h.74l.27-1.51h1.6L94,249.09h1.28Z"/><path class="cls-1" d="M99.17,255H97.64l.1-.56a1.45,1.45,0,0,1-1.19.69c-.89,0-1.45-.92-1.45-2.29a5.88,5.88,0,0,1,.1-1c.31-1.79,1.08-2.82,2.24-2.82a1.1,1.1,0,0,1,1.13.79l.11-.67h1.54Zm-2.4-3c-.17,1.12.07,1.6.49,1.6s.75-.53.91-1.51-.07-1.58-.5-1.58S96.93,251,96.77,252Z"/><path class="cls-1" d="M101.55,255H99.93l1.52-8.64h1.63Z"/><path class="cls-1" d="M103.91,255h-1.6l1-5.91H105Zm1.48-7.77a1,1,0,1,1-.95-1A.94.94,0,0,1,105.38,247.23Z"/><path class="cls-1" d="M109.32,250.17l-1.25.79c-.11-.25-.28-.44-.53-.44s-.75.35-.91,1.53c-.14,1,.11,1.52.49,1.52a.75.75,0,0,0,.59-.36l1.07,1a2.14,2.14,0,0,1-1.86.94c-1.19,0-2-.94-2-2.45a5.29,5.29,0,0,1,.05-.73c.28-1.95,1.28-3,2.63-3A1.79,1.79,0,0,1,109.32,250.17Z"/><path class="cls-1" d="M7.92,269.4H6v-5.61l-.9,3.47H3.3l-.9-3.46v5.6H.53V261H3.11l1.12,3.93L5.34,261H7.92Z"/><path class="cls-1" d="M13.24,269.4H11.55v-.53a1.26,1.26,0,0,1-1.11.65c-1.19,0-1.94-1.22-1.94-3.11s.75-3.09,1.95-3.09a1.24,1.24,0,0,1,1.1.66v-.53h1.69Zm-2.94-3c0,1,.23,1.43.63,1.43s.64-.4.64-1.43-.23-1.43-.64-1.43S10.29,265.4,10.29,266.43Z"/><path class="cls-1" d="M17.16,263.38,17,265.26a2.52,2.52,0,0,0-.62-.1c-.44,0-.72.25-.72.79v3.44H13.93v-5.95H15.6v.61a1.17,1.17,0,0,1,1.15-.73A1.45,1.45,0,0,1,17.16,263.38Z"/><path class="cls-1" d="M19.37,265.44h.18l.83-2h2.06L21,266.29l1.44,3.11H20.42l-.89-2.26h-.16v2.26H17.61v-8.64h1.76Z"/><path class="cls-1" d="M30.74,265.2c0,2.78-1.18,4.32-3.12,4.32S24.5,268,24.5,265.2s1.17-4.32,3.12-4.32S30.74,262.42,30.74,265.2Zm-4.29,0c0,1.72.42,2.48,1.16,2.48s1.16-.76,1.16-2.48-.42-2.48-1.16-2.48S26.45,263.48,26.45,265.2Z"/><path class="cls-1" d="M36.15,262.75H34.49v6.65h-1.9v-6.65H30.91V261h5.25Z"/><path class="cls-1" d="M44,262.82l-1.64.76c-.22-.58-.53-.85-1-.85-.7,0-1.13.76-1.13,2.48s.48,2.48,1.13,2.48c.46,0,.78-.27,1-.84l1.58.82a2.66,2.66,0,0,1-2.6,1.87c-1.91,0-3.08-1.52-3.08-4.32s1.17-4.32,3.08-4.32A2.68,2.68,0,0,1,44,262.82Z"/><path class="cls-1" d="M49,266.43c0,1.95-.94,3.1-2.43,3.1s-2.42-1.15-2.42-3.1.94-3.1,2.42-3.1S49,264.48,49,266.43Zm-3.06,0c0,1,.23,1.41.64,1.41s.64-.4.64-1.41S47,265,46.56,265,45.92,265.42,45.92,266.43Z"/><path class="cls-1" d="M54,265.15v4.25H52.25v-3.77c0-.46-.22-.64-.49-.64s-.44.14-.48.52v3.89H49.52v-5.95h1.67v.61a1.31,1.31,0,0,1,1.27-.74C53.39,263.33,54,264,54,265.15Z"/><path class="cls-1" d="M57.49,263.86v-3.1h1.76v8.64H57.57v-.53a1.26,1.26,0,0,1-1.11.65c-1.19,0-1.94-1.22-1.94-3.11s.75-3.09,1.95-3.09A1.21,1.21,0,0,1,57.49,263.86Zm-1.18,2.56c0,1,.23,1.43.63,1.43s.64-.4.64-1.43-.23-1.43-.64-1.43S56.31,265.4,56.31,266.43Z"/><path class="cls-1" d="M64.39,261c1.7,0,2.73.91,2.73,2.4a2,2,0,0,1-1,1.74A2,2,0,0,1,67.26,267c0,1.51-1,2.42-2.73,2.42H61.79V261Zm-.7,1.66v1.69h.68a.85.85,0,0,0,0-1.69Zm0,3.32v1.76h.79a.88.88,0,0,0,0-1.76Z"/><path class="cls-1" d="M69.61,269.4H67.85v-8.64h1.76Z"/><path class="cls-1" d="M74.87,269.4H73.19v-.53a1.26,1.26,0,0,1-1.11.65c-1.19,0-1.94-1.22-1.94-3.11s.75-3.09,1.95-3.09a1.24,1.24,0,0,1,1.1.66v-.53h1.69Zm-2.94-3c0,1,.23,1.43.63,1.43s.64-.4.64-1.43S73,265,72.56,265,71.93,265.4,71.93,266.43Z"/><path class="cls-1" d="M79.63,264.46l-1.28.94a.69.69,0,0,0-.54-.39c-.33,0-.63.38-.63,1.41s.3,1.4.61,1.4a.72.72,0,0,0,.56-.4l1.28,1a2.05,2.05,0,0,1-1.86,1.13c-1.43,0-2.37-1.15-2.37-3.1s.94-3.1,2.37-3.1A2,2,0,0,1,79.63,264.46Z"/><path class="cls-1" d="M81.77,265.44h.18l.83-2h2.06l-1.4,2.84,1.44,3.11H82.81l-.89-2.26h-.16v2.26H80v-8.64h1.76Z"/><path class="cls-1" d="M7.25,283.8H5.4l1-5.65-1.49,3.5H3.11l-.26-3.49-1,5.64H0l1.48-8.4H4l.38,4,1.78-4H8.73Z"/><path class="cls-1" d="M12.47,283.8H10.82l.08-.51a1.42,1.42,0,0,1-1.15.64c-.9,0-1.45-1-1.45-2.32a5.93,5.93,0,0,1,.1-1c.32-1.79,1.08-2.83,2.25-2.83a1.09,1.09,0,0,1,1.11.73l.1-.6h1.65Zm-2.36-3c-.17,1.08.06,1.5.44,1.5s.65-.48.79-1.41-.06-1.49-.43-1.49S10.26,279.86,10.12,280.78Z"/><path class="cls-1" d="M17.28,277.81l-.34,1.81a2.13,2.13,0,0,0-.53-.08,1,1,0,0,0-1,.92h0l-.57,3.33H13.13l1-5.94h1.64l-.1.5a1.23,1.23,0,0,1,1.1-.64A1.17,1.17,0,0,1,17.28,277.81Z"/><path class="cls-1" d="M19.08,279.85h.17l1.18-2h2l-1.89,2.81.85,3.12h-2l-.47-2.27h-.16l-.4,2.27H16.66l1.52-8.64h1.73Z"/><path class="cls-1" d="M30.28,279.74c-.43,2.68-1.65,4.19-3.56,4.19-1.52,0-2.6-1.21-2.6-3.32a7.21,7.21,0,0,1,.1-1.15c.43-2.67,1.64-4.18,3.56-4.18S30.73,276.92,30.28,279.74Zm-4.16-.18c-.26,1.67.05,2.54.79,2.54s1.19-.79,1.46-2.46-.05-2.54-.79-2.54S26.39,277.89,26.12,279.56Z"/><path class="cls-1" d="M36.06,277.12H34.41l-1.18,6.68H31.37l1.18-6.68H30.91l.31-1.72h5.15Z"/><path class="cls-1" d="M43.65,277.31l-1.66.53c-.14-.56-.45-.81-.86-.81-.74,0-1.31,1.07-1.54,2.67-.25,1.78.14,2.46.76,2.46s.76-.29,1-.82l1.5.81a2.92,2.92,0,0,1-2.67,1.77c-1.61,0-2.57-1.31-2.57-3.36a7.57,7.57,0,0,1,.08-1.07c.39-2.75,1.69-4.22,3.52-4.22A2.34,2.34,0,0,1,43.65,277.31Z"/><path class="cls-1" d="M48.06,280.91c-.28,2-1.32,3-2.73,3s-2.06-.95-2.06-2.45a5.3,5.3,0,0,1,.05-.73c.28-2,1.31-3,2.72-3S48.33,279,48.06,280.91Zm-3-.12c-.15,1,.05,1.47.44,1.47s.67-.48.8-1.39-.06-1.47-.44-1.47S45.21,279.88,45.08,280.79Z"/><path class="cls-1" d="M53.22,279.63l-.74,4.17H50.72l.65-3.71c.09-.52,0-.72-.33-.72s-.49.21-.58.74l-.64,3.69H48.07l1-5.94h1.67l-.11.55a1.45,1.45,0,0,1,1.29-.68C52.94,277.73,53.42,278.48,53.22,279.63Z"/><path class="cls-1" d="M56.83,278.4l.56-3.23h1.73L57.6,283.8H55.94l.09-.53a1.41,1.41,0,0,1-1.14.65c-.92,0-1.46-.93-1.46-2.29a6,6,0,0,1,.1-1c.32-1.8,1.09-2.85,2.22-2.85A1.1,1.1,0,0,1,56.83,278.4Zm-1.6,2.39c-.17,1.07.06,1.49.44,1.49s.65-.48.79-1.41-.06-1.49-.43-1.49S55.38,279.86,55.23,280.79Z"/><path class="cls-1" d="M64.06,275.4c1.69,0,2.59,1,2.31,2.52a2.31,2.31,0,0,1-1.22,1.68,1.8,1.8,0,0,1,.73,1.91c-.25,1.45-1.22,2.28-3,2.28H60.12l1.48-8.4Zm-1.48,5-.32,1.8h.84c.46,0,.79-.28.9-.91s-.19-.89-.77-.89Zm.59-3.33-.31,1.73h.72a.92.92,0,0,0,.87-.88c.11-.64-.19-.85-.74-.85Z"/><path class="cls-1" d="M67.8,283.8H66l1.52-8.64h1.76Z"/><path class="cls-1" d="M72.94,283.8H71.29l.08-.51a1.42,1.42,0,0,1-1.15.64c-.9,0-1.45-1-1.45-2.32a5.93,5.93,0,0,1,.1-1c.32-1.79,1.08-2.83,2.25-2.83a1.09,1.09,0,0,1,1.11.73l.1-.6H74Zm-2.36-3c-.17,1.08.06,1.5.44,1.5s.65-.48.79-1.41-.06-1.49-.43-1.49S70.73,279.86,70.59,280.78Z"/><path class="cls-1" d="M78.39,279l-1.36.83c-.09-.24-.25-.44-.47-.44s-.67.31-.82,1.44c-.13,1,.1,1.41.43,1.41a.64.64,0,0,0,.52-.34l1.19,1a2.17,2.17,0,0,1-1.92,1c-1.21,0-2-1-2-2.49a5.06,5.06,0,0,1,.05-.71c.28-2,1.3-3,2.66-3A1.84,1.84,0,0,1,78.39,279Z"/><path class="cls-1" d="M80.39,279.85h.17l1.18-2h2l-1.89,2.81.85,3.12h-2l-.47-2.27H80.1l-.4,2.27H78l1.52-8.64h1.73Z"/><path class="cls-1" d="M86.76,283.8H84.9l1.48-8.4h1.86Z"/><path class="cls-1" d="M91.74,279.46H90.5l-.39,2.24c-.06.36.05.56.31.56a1.47,1.47,0,0,0,.63-.2l.36,1.51a2.78,2.78,0,0,1-1.48.37c-1.2,0-1.82-.72-1.58-2.09l.42-2.38H88l.29-1.59H89l.27-1.51H91l-.26,1.51H92Z"/><path class="cls-1" d="M96,283.8H94.33l.08-.51a1.42,1.42,0,0,1-1.15.64c-.9,0-1.45-1-1.45-2.32a5.93,5.93,0,0,1,.1-1c.32-1.79,1.08-2.83,2.25-2.83a1.09,1.09,0,0,1,1.11.73l.1-.6H97Zm-2.36-3c-.17,1.08.06,1.5.44,1.5s.65-.48.79-1.41-.06-1.49-.43-1.49S93.77,279.86,93.63,280.78Z"/><path class="cls-1" d="M98.4,283.8H96.65l1.52-8.64h1.76Z"/><path class="cls-1" d="M100.8,283.8H99.06l1-5.94h1.73Zm1.47-7.77a1,1,0,1,1-1-1A1,1,0,0,1,102.27,276Z"/><path class="cls-1" d="M106.24,279l-1.36.83c-.09-.24-.25-.44-.47-.44s-.67.31-.82,1.44c-.13,1,.1,1.41.43,1.41a.64.64,0,0,0,.52-.34l1.19,1a2.17,2.17,0,0,1-1.92,1c-1.21,0-2-1-2-2.49a5.06,5.06,0,0,1,.05-.71c.28-2,1.3-3,2.66-3A1.84,1.84,0,0,1,106.24,279Z"/></svg>