<svg id="Layer_1" data-name="Layer 1" xmlns="http://www.w3.org/2000/svg" viewBox="0 0 191.38 197.44"><defs><style>.cls-1{font-size:16px;fill:#231f20;font-family:MarkOT-LightItalic, Mark OT;}.cls-15,.cls-2,.cls-24,.cls-29{font-style:italic;}.cls-3{letter-spacing:-0.01em;}.cls-4{letter-spacing:-0.06em;}.cls-5{letter-spacing:-0.02em;}.cls-6{letter-spacing:0em;}.cls-7{letter-spacing:-0.02em;}.cls-8{letter-spacing:0em;}.cls-9{letter-spacing:-0.01em;}.cls-10{font-family:MarkOT, Mark OT;}.cls-11{letter-spacing:-0.01em;}.cls-12{letter-spacing:-0.02em;}.cls-13{letter-spacing:-0.02em;}.cls-14{letter-spacing:-0.01em;}.cls-15{font-family:MarkOT-Italic, Mark OT;}.cls-16{letter-spacing:-0.01em;}.cls-17{letter-spacing:-0.06em;}.cls-18{letter-spacing:-0.02em;}.cls-19{letter-spacing:-0.01em;}.cls-20{font-family:MarkOT-Book, Mark OT;}.cls-21{letter-spacing:-0.01em;}.cls-22{letter-spacing:-0.02em;}.cls-23{letter-spacing:-0.01em;}.cls-24{font-family:MarkOT-BookItalic, Mark OT;}.cls-25{letter-spacing:-0.05em;}.cls-26{letter-spacing:-0.02em;}.cls-27{letter-spacing:-0.01em;}.cls-28{letter-spacing:-0.01em;}.cls-29{font-family:MarkOT-MediumItalic, Mark OT;}.cls-30{letter-spacing:-0.01em;}.cls-31{letter-spacing:-0.05em;}.cls-32{letter-spacing:-0.02em;}.cls-33{letter-spacing:-0.01em;}</style></defs><title>Artboard 2</title><text class="cls-1" transform="translate(9.06 13.6)"><tspan class="cls-2">Mar<tspan class="cls-3" x="30.49" y="0">k</tspan><tspan x="38.46" y="0"> </tspan><tspan class="cls-4" x="42.7" y="0">O</tspan><tspan class="cls-5" x="55.05" y="0">T</tspan><tspan class="cls-6" x="64.27" y="0" xml:space="preserve"> Lig</tspan><tspan class="cls-7" x="91.3" y="0">h</tspan><tspan class="cls-8" x="100.38" y="0">t I</tspan><tspan class="cls-9" x="115.92" y="0">t</tspan><tspan class="cls-8" x="122.9" y="0">alic</tspan></tspan><tspan class="cls-10"><tspan x="0" y="30">Mar</tspan><tspan class="cls-11" x="31.57" y="30">k</tspan><tspan class="cls-8" x="39.92" y="30"> </tspan><tspan class="cls-12" x="44.19" y="30">OT</tspan><tspan x="66.78" y="30"> </tspan><tspan class="cls-13" x="71.05" y="30">R</tspan><tspan x="81.63" y="30">egula</tspan><tspan class="cls-14" x="123.95" y="30">r</tspan></tspan><tspan class="cls-15"><tspan x="0" y="60">Mar</tspan><tspan class="cls-16" x="30.73" y="60">k</tspan><tspan class="cls-6" x="38.78" y="60"> </tspan><tspan class="cls-17" x="43.06" y="60">O</tspan><tspan class="cls-18" x="55.46" y="60">T</tspan><tspan class="cls-6" x="64.66" y="60" xml:space="preserve"> I</tspan><tspan class="cls-19" x="73.33" y="60">t</tspan><tspan x="80.34" y="60">alic</tspan></tspan><tspan class="cls-20"><tspan x="0" y="90">Mar</tspan><tspan class="cls-21" x="31.69" y="90">k</tspan><tspan class="cls-8" x="40.08" y="90"> </tspan><tspan class="cls-22" x="44.36" y="90">OT</tspan><tspan x="66.98" y="90" xml:space="preserve"> Boo</tspan><tspan class="cls-23" x="101.78" y="90">k</tspan></tspan><tspan class="cls-24"><tspan x="0" y="120">Mar</tspan><tspan class="cls-14" x="30.81" y="120">k</tspan><tspan class="cls-6" x="38.9" y="120"> </tspan><tspan class="cls-25" x="43.18" y="120">O</tspan><tspan class="cls-26" x="55.62" y="120">T</tspan><tspan x="64.8" y="120" xml:space="preserve"> Boo</tspan><tspan class="cls-27" x="98.86" y="120">k</tspan><tspan class="cls-8" x="106.95" y="120" xml:space="preserve"> I</tspan><tspan class="cls-28" x="115.7" y="120">t</tspan><tspan class="cls-6" x="122.73" y="120">alic</tspan></tspan><tspan class="cls-29"><tspan x="0" y="150">Mar</tspan><tspan class="cls-30" x="31.1" y="150">k</tspan><tspan class="cls-6" x="39.28" y="150"> </tspan><tspan class="cls-31" x="43.6" y="150">O</tspan><tspan class="cls-32" x="56.13" y="150">T</tspan><tspan class="cls-6" x="65.28" y="150" xml:space="preserve"> Medium</tspan><tspan x="0" y="180">Mar</tspan><tspan class="cls-30" x="31.1" y="180">k</tspan><tspan class="cls-6" x="39.28" y="180"> </tspan><tspan class="cls-31" x="43.6" y="180">O</tspan><tspan class="cls-32" x="56.13" y="180">T</tspan><tspan class="cls-6" x="65.28" y="180" xml:space="preserve"> Medium I</tspan><tspan class="cls-33" x="140.09" y="180">t</tspan><tspan x="147.17" y="180">alic</tspan></tspan></text></svg>