<svg xmlns="http://www.w3.org/2000/svg" xmlns:xlink="http://www.w3.org/1999/xlink" viewBox="0 0 1365 1080"><defs><style>.cls-1,.cls-59{fill:none;}.cls-2{fill:#fff;}.cls-3{fill:#d30c55;}.cls-4{clip-path:url(#clip-path);}.cls-5{fill:#67ccf2;}.cls-6{fill:#00aa4e;}.cls-7{fill:#d91a32;}.cls-8{fill:#00b4ae;}.cls-9{fill:#231f20;}.cls-10{fill:#bd0075;}.cls-11{fill:#ffca05;}.cls-12,.cls-16{fill:#00599c;}.cls-13,.cls-19,.cls-26{fill:#6d6e70;}.cls-14{fill:#f26f21;}.cls-15{clip-path:url(#clip-path-4);}.cls-16{font-size:20.34px;font-family:MarkOT-Heavy, Mark OT;}.cls-17{letter-spacing:-0.01em;}.cls-18{letter-spacing:0.01em;}.cls-19{font-size:12.71px;font-family:MarkOT-Medium, Mark OT;}.cls-20{letter-spacing:-0.01em;}.cls-21{letter-spacing:0em;}.cls-22{letter-spacing:-0.02em;}.cls-23{letter-spacing:0em;}.cls-24{letter-spacing:0.02em;}.cls-25{letter-spacing:0em;}.cls-26{font-size:11.87px;font-family:MarkOT-Book, Mark OT;}.cls-27{letter-spacing:-0.01em;}.cls-28{letter-spacing:-0.02em;}.cls-29{letter-spacing:-0.08em;}.cls-30{letter-spacing:0em;}.cls-31{letter-spacing:-0.01em;}.cls-32{letter-spacing:0em;}.cls-33{letter-spacing:-0.02em;}.cls-34{letter-spacing:0em;}.cls-35{letter-spacing:-0.08em;}.cls-36{letter-spacing:-0.02em;}.cls-37{letter-spacing:-0.01em;}.cls-38{letter-spacing:-0.01em;}.cls-39{letter-spacing:-0.02em;}.cls-40{letter-spacing:0em;}.cls-41{letter-spacing:0em;}.cls-42{letter-spacing:-0.01em;}.cls-43{letter-spacing:-0.06em;}.cls-44{letter-spacing:0.01em;}.cls-45{letter-spacing:-0.01em;}.cls-46{letter-spacing:0em;}.cls-47{letter-spacing:0em;}.cls-48{letter-spacing:0.01em;}.cls-49{letter-spacing:-0.02em;}.cls-50{letter-spacing:0em;}.cls-51{letter-spacing:-0.01em;}.cls-52{letter-spacing:-0.02em;}.cls-53{letter-spacing:0.02em;}.cls-54{letter-spacing:-0.01em;}.cls-55{letter-spacing:-0.02em;}.cls-56{letter-spacing:0.01em;}.cls-57{letter-spacing:-0.01em;}.cls-58{letter-spacing:-0.01em;}.cls-59{stroke:#929497;stroke-width:0.5px;}</style><clipPath id="clip-path"><rect class="cls-1" width="1350" height="1068.5"/></clipPath><clipPath id="clip-path-4"><rect class="cls-1" x="274.87" y="152.21" width="172.55" height="101.32"/></clipPath></defs><title>bc-events</title><g id="Layer_3" data-name="Layer 3"><polygon class="cls-2" points="1113.48 128.97 1140.04 158.94 1147.4 158.94 1120.81 128.97 1113.48 128.97"/><polygon class="cls-2" points="1147.4 128.97 1120.83 158.94 1113.48 158.94 1140.06 128.97 1147.4 128.97"/><polygon class="cls-2" points="1113.48 402.17 1140.04 432.13 1147.4 432.13 1120.81 402.17 1113.48 402.17"/><polygon class="cls-2" points="1147.4 402.17 1120.83 432.13 1113.48 432.13 1140.06 402.17 1147.4 402.17"/><polygon class="cls-2" points="1113.48 675.38 1140.04 705.35 1147.4 705.35 1120.81 675.38 1113.48 675.38"/><polygon class="cls-2" points="1147.4 675.38 1120.83 705.35 1113.48 705.35 1140.06 675.38 1147.4 675.38"/><polygon class="cls-2" points="1113.48 948.59 1140.04 978.56 1147.4 978.56 1120.81 948.59 1113.48 948.59"/><polygon class="cls-2" points="1147.4 948.59 1120.83 978.56 1113.48 978.56 1140.06 948.59 1147.4 948.59"/><rect class="cls-3" x="469.04" y="12.29" width="427.18" height="244.1"/><g class="cls-4"><path class="cls-2" d="M813.07,129.69a1.86,1.86,0,0,0-3.71,0,1.81,1.81,0,0,0,.54,1.32,1.85,1.85,0,0,0,2.63,0,1.8,1.8,0,0,0,.55-1.32m-.27,0a1.56,1.56,0,0,1-.46,1.14,1.55,1.55,0,0,1-1.14.47,1.51,1.51,0,0,1-1.13-.47,1.6,1.6,0,1,1,2.72-1.14m-.9.26a.5.5,0,0,0-.35-.2.77.77,0,0,0,.29-.1.43.43,0,0,0,.2-.4.51.51,0,0,0-.32-.52,1.54,1.54,0,0,0-.55-.07h-.72v2h.36v-.8h.28a.91.91,0,0,1,.4.06.5.5,0,0,1,.19.47v.23a0,0,0,0,0,0,0v0h.34v0a.67.67,0,0,1,0-.11v-.3a.58.58,0,0,0-.11-.31m-.41-.35a1.14,1.14,0,0,1-.35,0h-.32v-.74h.31a.92.92,0,0,1,.44.07.31.31,0,0,1,.14.3.32.32,0,0,1-.21.32"/><path class="cls-2" d="M740.11,157.59h28.16v-5H746.76v-7.38H761v-5H746.76v-7.4h20.85v-5h-27.5Zm-34.08,0h29.11v-5H712.57V127.79l-6.53,0Zm-4-21q0-4.86-3-6.82t-9.12-2H671.64v29.67h6.65l0-12.3h11.61q6.07,0,9.12-1.86t3-6.73m-6.63,0a2.86,2.86,0,0,1-1.46,2.87,8.34,8.34,0,0,1-3.64.71h-12v-7.37h12a7.19,7.19,0,0,1,3.64.85,3.1,3.1,0,0,1,1.46,2.94m-56.93,20.93h28.16v-5H645.12v-7.35h14.21v-5H645.12v-7.43H666v-5h-27.5Zm-49.33,0h6.61V127.81h-6.61Z"/><path class="cls-2" d="M585.44,131.05a21.59,21.59,0,0,0-4.5-2.07,24.78,24.78,0,0,0-4.16-1.08,31.3,31.3,0,0,0-5.22-.48,27.45,27.45,0,0,0-7.17.95,19.54,19.54,0,0,0-6.2,2.88,15.11,15.11,0,0,0-4.35,4.76,12.93,12.93,0,0,0-1.65,6.63,13.1,13.1,0,0,0,1.65,6.65,15.4,15.4,0,0,0,4.28,4.8,17.49,17.49,0,0,0,6,2.8,26.92,26.92,0,0,0,6.81,1,30.49,30.49,0,0,0,6-.52,32.6,32.6,0,0,0,5-1.42s1.72-.71,3.73-1.78l-4-4a23.86,23.86,0,0,1-2.6,1.22,25.26,25.26,0,0,1-3.83,1.12,24.37,24.37,0,0,1-4.7.47,13.34,13.34,0,0,1-4.28-.71,11.57,11.57,0,0,1-3.76-2.1,10.81,10.81,0,0,1-2.66-3.31,9.23,9.23,0,0,1-1-4.36,9.87,9.87,0,0,1,.9-4.33,8.67,8.67,0,0,1,2.55-3.17,11.49,11.49,0,0,1,3.87-1.93,17.75,17.75,0,0,1,4.91-.64,27.54,27.54,0,0,1,4.71.37c.68.13,1.31.28,1.9.45a16.06,16.06,0,0,1,3.83,1.77Z"/></g><polygon class="cls-2" points="771.31 127.79 800.54 157.48 808.63 157.48 779.38 127.79 771.31 127.79"/><polygon class="cls-2" points="808.63 127.79 779.41 157.48 771.31 157.48 800.56 127.79 808.63 127.79"/><polygon class="cls-2" points="633.42 157.52 633.42 155.11 633.42 127.74 627.69 127.74 627.69 149.27 606.55 127.76 606.55 127.74 600.82 127.74 600.82 157.52 606.55 157.52 606.55 136.05 627.69 157.51 627.69 157.52 627.7 157.52 633.42 157.52"/><g class="cls-4"><path class="cls-2" d="M738,103.16c0-8.25-23.78-15-53.92-15.6l-.26,2.28c24.85.58,44.39,6.57,44.39,13.87,0,7.48-20.49,13.58-46.2,13.91l.18,1.16c31-.34,55.81-7.2,55.81-15.63"/><path class="cls-2" d="M716.36,105c0,5.61-15.38,10.19-34.72,10.47l.18,1.15c22.53-.3,40.48-5.64,40.48-12.19,0-6.38-17-11.61-38.75-12.16l-.26,2.3c18.55.51,33.06,5,33.06,10.43"/><path class="cls-2" d="M710.51,105.73c0-4.52-12-8.24-27.46-8.7l-.26,2.29c12.3.41,21.84,3.38,21.84,7s-10.33,6.81-23.35,7l.18,1.14c16.19-.24,29.05-4.06,29.05-8.74"/><path class="cls-2" d="M621.61,103.16c0-8.25,23.78-15,53.92-15.6l.26,2.28c-24.85.58-44.39,6.57-44.39,13.87,0,7.48,20.49,13.58,46.2,13.91l-.18,1.16c-31-.34-55.81-7.2-55.81-15.63"/><path class="cls-2" d="M643.24,105c0,5.61,15.38,10.19,34.72,10.47l-.18,1.15c-22.53-.3-40.48-5.64-40.48-12.19,0-6.38,17-11.61,38.75-12.16l.26,2.3c-18.55.51-33.06,5-33.06,10.43"/><path class="cls-2" d="M649.1,105.73c0-4.52,12-8.24,27.46-8.7l.26,2.29c-12.3.41-21.84,3.38-21.84,7s10.33,6.81,23.35,7l-.18,1.14c-16.19-.24-29.05-4.06-29.05-8.74"/></g><polygon class="cls-2" points="648.55 180.84 637.19 180.84 637.19 165.01 648.41 165.01 648.41 167.41 639.71 167.41 639.71 171.67 648.11 171.67 648.11 174.07 639.71 174.07 639.71 178.45 648.55 178.45 648.55 180.84"/><polygon class="cls-2" points="659.22 180.84 656.08 180.84 650.13 165.01 652.82 165.01 657.67 178.25 662.55 165.01 665.16 165.01 659.22 180.84"/><polygon class="cls-2" points="678.53 180.84 667.16 180.84 667.16 165.01 678.38 165.01 678.38 167.41 669.68 167.41 669.68 171.67 678.08 171.67 678.08 174.07 669.68 174.07 669.68 178.45 678.53 178.45 678.53 180.84"/><polygon class="cls-2" points="695.38 180.84 693.1 180.84 684.41 169.39 684.4 180.84 681.88 180.84 681.88 165.01 684.15 165.01 692.86 176.47 692.86 165.01 695.38 165.01 695.38 180.84"/><polygon class="cls-2" points="710.07 167.44 705.02 167.44 705.02 180.84 702.51 180.84 702.51 167.44 697.46 167.44 697.46 165.02 710.07 165.02 710.07 167.44"/><g class="cls-4"><path class="cls-2" d="M722.25,168.52a8,8,0,0,0-4.38-1.36c-2.08,0-3.51.92-3.51,2.36s1.21,1.82,3.24,2.11l1.08.15c2.53.35,5,1.41,5,4.35,0,3.22-2.87,5-6.24,5A10,10,0,0,1,711.2,179l1.37-2a7.78,7.78,0,0,0,4.89,1.74c2,0,3.64-.88,3.64-2.34,0-1.24-1.22-1.82-3.51-2.14l-1.21-.17c-2.32-.33-4.62-1.44-4.62-4.38,0-3.18,2.77-4.94,6.14-4.94a9.67,9.67,0,0,1,5.63,1.71Z"/></g><rect class="cls-5" x="15.26" y="282.98" width="427.18" height="244.1"/><rect class="cls-6" x="15.26" y="553.69" width="427.18" height="244.1"/><rect class="cls-7" x="15.26" y="824.4" width="427.18" height="244.1"/><rect class="cls-8" x="469.04" y="282.98" width="427.18" height="244.1"/><rect class="cls-9" x="469.04" y="553.69" width="427.18" height="244.1"/><rect class="cls-10" x="469.04" y="824.4" width="427.18" height="244.1"/><rect class="cls-11" x="922.82" y="282.98" width="427.18" height="244.1"/><rect class="cls-12" x="922.82" y="553.69" width="427.18" height="244.1"/><rect class="cls-13" x="922.82" y="824.4" width="427.18" height="244.1"/><rect class="cls-14" x="922.82" y="12.29" width="427.18" height="244.1"/><g class="cls-15"><path class="cls-12" d="M410.85,200.28l-.18,0h-.16v-.37h.16a.48.48,0,0,1,.22,0,.15.15,0,0,1,.07.15.16.16,0,0,1-.11.16m.21.17a.26.26,0,0,0-.18-.1.4.4,0,0,0,.15-.05.21.21,0,0,0,.1-.2.25.25,0,0,0-.16-.26.81.81,0,0,0-.28,0h-.37v1h.18v-.4h.14a.47.47,0,0,1,.21,0,.24.24,0,0,1,.1.23v.11h.17v-.2a.29.29,0,0,0-.06-.16m.46-.13a.77.77,0,0,1-.23.57.8.8,0,0,1-.58.24.79.79,0,0,1-.58-.24.79.79,0,0,1,0-1.13.83.83,0,0,1,1.16,0,.76.76,0,0,1,.23.56m.14,0a.87.87,0,0,0-.28-.65,1,1,0,0,0-1.34,0,.92.92,0,0,0,0,1.31,1,1,0,0,0,1.34,0,.89.89,0,0,0,.28-.66"/><path class="cls-12" d="M297.46,214.22h3.37V199.38h-3.37Zm25.16,0H337v-2.48H326v-3.66h7.25v-2.49H326v-3.7h10.63v-2.51h-14Zm29-10.42a1.42,1.42,0,0,1-.74,1.43,4.33,4.33,0,0,1-1.86.35h-6.14v-3.67h6.14a3.74,3.74,0,0,1,1.86.42,1.53,1.53,0,0,1,.74,1.46m3.38,0a3.69,3.69,0,0,0-1.55-3.4,8.86,8.86,0,0,0-4.65-1h-9.3V214.2h3.39v-6.13h5.92a9.25,9.25,0,0,0,4.65-.93A3.57,3.57,0,0,0,355,203.8m2,10.44h14.84v-2.48H360.4V199.38h-3.33Zm17.38,0h14.36v-2.48h-11v-3.68h7.25v-2.48h-7.25v-3.68h10.63v-2.51h-14Z"/><path class="cls-12" d="M295.57,201a11.13,11.13,0,0,0-2.3-1,12.88,12.88,0,0,0-2.12-.54,16.39,16.39,0,0,0-2.66-.24,14.33,14.33,0,0,0-3.66.47,10.08,10.08,0,0,0-3.16,1.43,7.59,7.59,0,0,0-2.22,2.37,6.32,6.32,0,0,0-.84,3.3,6.4,6.4,0,0,0,.84,3.31,7.72,7.72,0,0,0,2.18,2.39,9,9,0,0,0,3.06,1.4,14,14,0,0,0,3.47.47,15.93,15.93,0,0,0,3-.26,16.92,16.92,0,0,0,2.54-.7s.88-.35,1.9-.89l-2-2a12.51,12.51,0,0,1-1.33.61,13.13,13.13,0,0,1-2,.56,12.69,12.69,0,0,1-2.4.24,7,7,0,0,1-2.18-.35,5.92,5.92,0,0,1-1.92-1,5.39,5.39,0,0,1-1.36-1.65,4.5,4.5,0,0,1-.52-2.17,4.82,4.82,0,0,1,.46-2.15,4.33,4.33,0,0,1,1.3-1.58,5.91,5.91,0,0,1,2-1,9.26,9.26,0,0,1,2.5-.32,14.31,14.31,0,0,1,2.4.19c.35.07.67.14,1,.23a8.32,8.32,0,0,1,2,.88Z"/><polygon class="cls-12" points="390.36 199.38 405.26 214.17 409.39 214.17 394.47 199.38 390.36 199.38"/><polygon class="cls-12" points="409.39 199.38 394.49 214.17 390.36 214.17 405.27 199.38 409.39 199.38"/><polygon class="cls-12" points="320.04 214.19 320.04 212.98 320.04 199.35 317.11 199.35 317.11 210.08 306.34 199.36 306.34 199.35 303.41 199.35 303.41 214.19 306.34 214.19 306.34 203.49 317.11 214.18 317.11 214.19 317.12 214.19 320.04 214.19"/><path class="cls-11" d="M373.37,187.11c0-4.11-12.13-7.48-27.5-7.77l-.13,1.14c12.67.29,22.64,3.27,22.64,6.91s-10.45,6.77-23.56,6.93l.09.58c15.83-.17,28.46-3.59,28.46-7.78"/><path class="cls-11" d="M362.34,188c0,2.8-7.85,5.08-17.71,5.21l.09.57c11.49-.15,20.64-2.81,20.64-6.07s-8.69-5.78-19.76-6.05l-.13,1.14c9.46.25,16.86,2.48,16.86,5.2"/><path class="cls-11" d="M359.35,188.39c0-2.25-6.14-4.11-14-4.33l-.13,1.14c6.27.21,11.14,1.68,11.14,3.48s-5.27,3.39-11.91,3.5l.09.57c8.25-.12,14.81-2,14.81-4.35"/><path class="cls-11" d="M314,187.11c0-4.11,12.13-7.48,27.5-7.77l.13,1.14c-12.67.29-22.64,3.27-22.64,6.91s10.45,6.77,23.56,6.93l-.09.58c-15.83-.17-28.46-3.59-28.46-7.78"/><path class="cls-11" d="M325,188c0,2.8,7.85,5.08,17.71,5.21l-.09.57C331.17,193.67,322,191,322,187.75s8.69-5.78,19.76-6.05l.13,1.14c-9.46.25-16.86,2.48-16.86,5.2"/><path class="cls-11" d="M328,188.39c0-2.25,6.14-4.11,14-4.33l.13,1.14c-6.27.21-11.14,1.68-11.14,3.48s5.27,3.39,11.91,3.5l-.09.57c-8.25-.12-14.81-2-14.81-4.35"/><polygon class="cls-12" points="327.76 225.8 321.96 225.8 321.96 217.92 327.68 217.92 327.68 219.11 323.24 219.11 323.24 221.24 327.53 221.24 327.53 222.43 323.24 222.43 323.24 224.61 327.76 224.61 327.76 225.8"/><polygon class="cls-12" points="333.19 225.8 331.59 225.8 328.56 217.92 329.93 217.92 332.4 224.51 334.89 217.92 336.22 217.92 333.19 225.8"/><polygon class="cls-12" points="343.04 225.8 337.24 225.8 337.24 217.92 342.97 217.92 342.97 219.11 338.53 219.11 338.53 221.24 342.81 221.24 342.81 222.43 338.53 222.43 338.53 224.61 343.04 224.61 343.04 225.8"/><polygon class="cls-12" points="351.63 225.8 350.48 225.8 346.04 220.1 346.04 225.8 344.75 225.8 344.75 217.92 345.91 217.92 350.35 223.62 350.35 217.92 351.63 217.92 351.63 225.8"/><polygon class="cls-12" points="359.12 219.12 356.55 219.12 356.55 225.8 355.27 225.8 355.27 219.12 352.7 219.12 352.7 217.92 359.12 217.92 359.12 219.12"/><path class="cls-12" d="M365.34,219.66a4.14,4.14,0,0,0-2.23-.68c-1.06,0-1.79.46-1.79,1.18s.62.91,1.65,1.05l.55.07c1.29.17,2.56.7,2.56,2.17s-1.46,2.48-3.18,2.48a5.19,5.19,0,0,1-3.2-1.06l.7-1a4,4,0,0,0,2.49.87c1,0,1.86-.44,1.86-1.17s-.62-.91-1.79-1.06l-.62-.08c-1.18-.16-2.36-.72-2.36-2.18s1.41-2.46,3.13-2.46a5,5,0,0,1,2.87.85Z"/></g><text class="cls-16" transform="translate(46.27 58.85)">B<tspan class="cls-17" x="13.88" y="0">R</tspan><tspan x="27.4" y="0">AD </tspan><tspan class="cls-18" x="62.67" y="0">L</tspan><tspan x="74.98" y="0">ADOUCEUR</tspan></text><text class="cls-19" transform="translate(46.27 73.43)">Vi<tspan class="cls-20" x="12.38" y="0">c</tspan><tspan class="cls-21" x="18.8" y="0">e P</tspan><tspan class="cls-22" x="37.77" y="0">r</tspan><tspan x="42.98" y="0">eside</tspan><tspan class="cls-23" x="75" y="0">n</tspan><tspan class="cls-24" x="82.64" y="0">t</tspan><tspan x="88.73" y="0">, </tspan><tspan class="cls-25" x="95.37" y="0">Ev</tspan><tspan x="110.68" y="0">e</tspan><tspan class="cls-25" x="117.8" y="0">n</tspan><tspan x="125.44" y="0">t Cinema</tspan></text><text class="cls-26" transform="translate(46.27 125.12)">13<tspan class="cls-27" x="11.64" y="0">0</tspan><tspan x="19.97" y="0">3</tspan><tspan class="cls-28" x="26.62" y="0"> </tspan><tspan class="cls-29" x="29.54" y="0">Y</tspan><tspan x="36.33" y="0">onge</tspan><tspan class="cls-30" x="64.62" y="0"> </tspan><tspan class="cls-31" x="67.81" y="0">S</tspan><tspan class="cls-32" x="75.72" y="0">t</tspan><tspan class="cls-33" x="81.1" y="0">r</tspan><tspan class="cls-32" x="85.85" y="0">e</tspan><tspan class="cls-34" x="92.5" y="0">e</tspan><tspan class="cls-32" x="99.1" y="0">t</tspan></text><text class="cls-26" transform="translate(46.27 139.52)"><tspan class="cls-35">T</tspan><tspan x="6.24" y="0">o</tspan><tspan class="cls-36" x="13.4" y="0">r</tspan><tspan x="18.14" y="0">o</tspan><tspan class="cls-37" x="25.3" y="0">n</tspan><tspan x="32.39" y="0">t</tspan><tspan class="cls-38" x="37.77" y="0">o</tspan><tspan x="44.85" y="0">, ON, M4</tspan><tspan class="cls-39" x="94.47" y="0">T</tspan><tspan class="cls-40" x="101.46" y="0" xml:space="preserve"> 2Y9</tspan></text><text class="cls-26" transform="translate(46.27 168.35)">P:<tspan class="cls-41" x="10.99" y="0"> </tspan><tspan class="cls-42" x="14.17" y="0">4</tspan><tspan x="20.87" y="0">16</tspan><tspan class="cls-43" x="32.74" y="0">.</tspan><tspan x="35.15" y="0">123</tspan><tspan class="cls-44" x="53.33" y="0">.</tspan><tspan class="cls-32" x="56.55" y="0">45</tspan><tspan class="cls-45" x="70.26" y="0">6</tspan><tspan x="76.97" y="0">7</tspan><tspan class="cls-46" x="83.47" y="0"> </tspan><tspan x="86.61" y="0">x</tspan><tspan class="cls-47" x="92.72" y="0">999</tspan><tspan x="113.54" y="0">9 </tspan></text><text class="cls-26" transform="translate(46.27 182.75)">C: 123<tspan class="cls-48" x="33.54" y="0">.</tspan><tspan class="cls-32" x="36.78" y="0">456</tspan><tspan class="cls-49" x="57.37" y="0">.</tspan><tspan class="cls-50" x="60.27" y="0">7</tspan><tspan class="cls-32" x="66.75" y="0">890</tspan></text><text class="cls-26" transform="translate(46.27 197.16)">B<tspan class="cls-33" x="8.32" y="0">r</tspan><tspan x="13.06" y="0">ad.Ladou</tspan><tspan class="cls-51" x="67.26" y="0">c</tspan><tspan class="cls-32" x="73.25" y="0">eur@Cinepl</tspan><tspan class="cls-52" x="139.99" y="0">e</tspan><tspan class="cls-53" x="146.47" y="0">x</tspan><tspan class="cls-38" x="152.75" y="0">.</tspan><tspan class="cls-54" x="155.79" y="0">c</tspan><tspan class="cls-32" x="161.77" y="0">om</tspan></text><text class="cls-26" transform="translate(46.27 211.56)">Cinepl<tspan class="cls-55" x="36.32" y="0">e</tspan><tspan class="cls-56" x="42.78" y="0">x</tspan><tspan class="cls-31" x="49.05" y="0">.</tspan><tspan class="cls-57" x="52.08" y="0">c</tspan><tspan x="58.07" y="0">om</tspan></text><text class="cls-26" transform="translate(46.27 225.97)"><tspan xml:space="preserve">                Cinepl</tspan><tspan class="cls-27" x="87.1" y="0">e</tspan><tspan class="cls-40" x="93.65" y="0">x</tspan><tspan class="cls-37" x="99.77" y="0">E</tspan><tspan class="cls-58" x="107.73" y="0">v</tspan><tspan x="113.87" y="0">e</tspan><tspan class="cls-37" x="120.53" y="0">n</tspan><tspan class="cls-32" x="127.62" y="0">ts</tspan></text><rect class="cls-59" x="15.68" y="12.29" width="426.33" height="243.25"/><g class="cls-4"><path class="cls-13" d="M74.59,222.15a.93.93,0,0,0,.93-.92.91.91,0,0,0-.18-.54.94.94,0,0,0-1.51,0,.91.91,0,0,0-.18.54.93.93,0,0,0,.93.92"/></g><polygon class="cls-13" points="76.51 219.22 75.73 219.22 75.73 220.1 76.62 220.1 76.62 219.22 76.51 219.22"/><g class="cls-4"><path class="cls-13" d="M74.59,216.63a4.6,4.6,0,1,0,4.66,4.6,4.64,4.64,0,0,0-4.66-4.6m2.65,4.06v2.14a1,1,0,0,1-1,1H73a1,1,0,0,1-1-1v-3.21a1,1,0,0,1,1-1h3.25a1,1,0,0,1,1,1Z"/><path class="cls-13" d="M76,221.23a1.45,1.45,0,0,1-2.9,0,1.42,1.42,0,0,1,.11-.54h-.79v2.14a.5.5,0,0,0,.51.5h3.25a.5.5,0,0,0,.51-.5v-2.14h-.79a1.42,1.42,0,0,1,.11.54"/><path class="cls-13" d="M89.09,222.71h0a.36.36,0,0,1-.16.11h0a1.87,1.87,0,0,1-.39.11h0a.15.15,0,0,0-.1,0,.7.7,0,0,0-.09.24h0s0,0,0,0l0,0a.09.09,0,0,1-.06,0h0a3,3,0,0,0-.49,0h0a.93.93,0,0,0-.23,0h0c-.2.09-.38.23-.58.34h0a.69.69,0,0,1-.3.1h0a3.18,3.18,0,0,1-.38,0h0a1,1,0,0,1-.45-.17h0a2.37,2.37,0,0,0-.57-.31,1.48,1.48,0,0,0-.6,0h0a.15.15,0,0,1-.09,0,.07.07,0,0,1-.05,0c0-.08,0-.16-.06-.23l0-.06a1.49,1.49,0,0,0-.24-.06h0a1.44,1.44,0,0,1-.38-.13h0l-.06,0a.13.13,0,0,1,0-.12v0a.23.23,0,0,1,.15-.09h0a1.4,1.4,0,0,0,.41-.19,1.74,1.74,0,0,0,.56-.64.45.45,0,0,0,.06-.28.26.26,0,0,0-.17-.16,1.87,1.87,0,0,1-.37-.16h0l-.06,0a.17.17,0,0,1-.06-.1v0a.19.19,0,0,1,.1-.15h0a.22.22,0,0,1,.18,0h0l.18.05a.66.66,0,0,0,.24,0h0a3.5,3.5,0,0,0,0-.48h0a1.68,1.68,0,0,1,.07-.73h0a1.53,1.53,0,0,1,.46-.6,1.54,1.54,0,0,1,.94-.3h.25a1.42,1.42,0,0,1,.69.24,1.34,1.34,0,0,1,.56.83h0a3.4,3.4,0,0,1,0,.6h0c0,.13,0,.25,0,.37a.25.25,0,0,1,0,0,.41.41,0,0,0,.2,0h0l.18-.05h0a.25.25,0,0,1,.2,0,.27.27,0,0,1,.12.11.13.13,0,0,1,0,.11l0,.06h0a1,1,0,0,1-.33.17h0a.52.52,0,0,0-.25.16h0a.2.2,0,0,0,0,.18h0a1.64,1.64,0,0,0,.24.43,1.49,1.49,0,0,0,.71.52h0a.64.64,0,0,1,.17.06h0a.11.11,0,0,1,0,.16Zm-2.71-6.15a4.65,4.65,0,0,0-4.65,4.65,4.56,4.56,0,0,0,0,.57,4.65,4.65,0,1,0,4.62-5.23"/><path class="cls-13" d="M55.67,221.19A4.65,4.65,0,0,1,52,225.71v-3.85h1.13v-1.29H52v-.29c0-.55.25-1,.83-1a1.93,1.93,0,0,1,.57.08l.07-1.34a3.43,3.43,0,0,0-.94-.12,2.32,2.32,0,0,0-1.57.56,2.55,2.55,0,0,0-.72,1.89v.22h-.75v1.29h.75v3.91a4.64,4.64,0,1,1,5.43-4.58"/><path class="cls-13" d="M62.55,216.55a4.63,4.63,0,1,0,4.69,4.63,4.66,4.66,0,0,0-4.69-4.63m2.7,3.27c0,.06,0,.12,0,.18a3.9,3.9,0,0,1-4,3.91,4,4,0,0,1-2.13-.62l.33,0a2.82,2.82,0,0,0,1.73-.59,1.39,1.39,0,0,1-1.3-1l.26,0a1.39,1.39,0,0,0,.37,0,1.38,1.38,0,0,1-1.12-1.35v0a1.39,1.39,0,0,0,.63.17,1.36,1.36,0,0,1-.43-1.83,4,4,0,0,0,2.87,1.43,1.35,1.35,0,0,1,0-.31,1.38,1.38,0,0,1,1.39-1.37,1.4,1.4,0,0,1,1,.43,2.79,2.79,0,0,0,.88-.33,1.37,1.37,0,0,1-.61.76,2.78,2.78,0,0,0,.8-.22,2.77,2.77,0,0,1-.69.71"/><path class="cls-2" d="M1266.86,129.69a1.86,1.86,0,0,0-3.71,0,1.8,1.8,0,0,0,.54,1.32,1.85,1.85,0,0,0,2.63,0,1.8,1.8,0,0,0,.55-1.32m-.27,0a1.56,1.56,0,0,1-.46,1.14,1.55,1.55,0,0,1-1.14.47,1.51,1.51,0,0,1-1.13-.47,1.6,1.6,0,1,1,2.72-1.14m-.9.26a.5.5,0,0,0-.35-.2.77.77,0,0,0,.29-.1.43.43,0,0,0,.2-.4.51.51,0,0,0-.32-.52,1.54,1.54,0,0,0-.55-.07h-.72v2h.36v-.8h.28a.91.91,0,0,1,.4.06.5.5,0,0,1,.19.47v.23a0,0,0,0,0,0,0v0h.34v0a1.07,1.07,0,0,1,0-.11v-.3a.58.58,0,0,0-.11-.31m-.41-.35a1.15,1.15,0,0,1-.35,0h-.32v-.74h.31a.92.92,0,0,1,.44.07.31.31,0,0,1,.14.3.32.32,0,0,1-.21.32"/><path class="cls-2" d="M1193.9,157.59h28.16v-5h-21.51v-7.38h14.21v-5h-14.21v-7.4h20.85v-5h-27.5Zm-34.08,0h29.11v-5h-22.57V127.79l-6.53,0Zm-4-21q0-4.86-3-6.82t-9.12-2h-18.24v29.67h6.65l0-12.3h11.61q6.07,0,9.12-1.86t3-6.73m-6.63,0a2.86,2.86,0,0,1-1.46,2.87,8.34,8.34,0,0,1-3.64.71h-12v-7.37h12a7.19,7.19,0,0,1,3.64.85,3.1,3.1,0,0,1,1.46,2.94m-56.93,20.93h28.16v-5H1098.9v-7.35h14.21v-5H1098.9v-7.43h20.85v-5h-27.5Zm-49.33,0h6.61V127.81h-6.61Z"/><path class="cls-2" d="M1039.22,131.05a21.59,21.59,0,0,0-4.5-2.07,24.78,24.78,0,0,0-4.16-1.08,31.3,31.3,0,0,0-5.22-.48,27.45,27.45,0,0,0-7.17.95,19.54,19.54,0,0,0-6.2,2.88,15.11,15.11,0,0,0-4.35,4.76,12.93,12.93,0,0,0-1.65,6.63,13.1,13.1,0,0,0,1.65,6.65,15.4,15.4,0,0,0,4.28,4.8,17.49,17.49,0,0,0,6,2.8,26.92,26.92,0,0,0,6.81,1,30.49,30.49,0,0,0,6-.52,32.6,32.6,0,0,0,5-1.42s1.72-.71,3.73-1.78l-4-4a23.87,23.87,0,0,1-2.6,1.22,25.26,25.26,0,0,1-3.83,1.12,24.37,24.37,0,0,1-4.7.47,13.34,13.34,0,0,1-4.28-.71,11.57,11.57,0,0,1-3.76-2.1,10.81,10.81,0,0,1-2.66-3.31,9.23,9.23,0,0,1-1-4.36,9.89,9.89,0,0,1,.9-4.33A8.67,8.67,0,0,1,1016,135a11.49,11.49,0,0,1,3.87-1.93,17.75,17.75,0,0,1,4.91-.64,27.54,27.54,0,0,1,4.71.37c.68.13,1.31.28,1.9.45a16.06,16.06,0,0,1,3.83,1.77Z"/></g><polygon class="cls-2" points="1225.1 127.79 1254.32 157.48 1262.42 157.48 1233.17 127.79 1225.1 127.79"/><polygon class="cls-2" points="1262.42 127.79 1233.19 157.48 1225.1 157.48 1254.35 127.79 1262.42 127.79"/><polygon class="cls-2" points="1087.2 157.52 1087.2 155.11 1087.2 127.74 1081.47 127.74 1081.47 149.27 1060.34 127.76 1060.34 127.74 1054.61 127.74 1054.61 157.52 1060.34 157.52 1060.34 136.05 1081.47 157.51 1081.47 157.52 1081.48 157.52 1087.2 157.52"/><g class="cls-4"><path class="cls-2" d="M1191.78,103.16c0-8.25-23.78-15-53.92-15.6l-.26,2.28c24.85.58,44.39,6.57,44.39,13.87,0,7.48-20.49,13.58-46.2,13.91l.18,1.16c31-.34,55.81-7.2,55.81-15.63"/><path class="cls-2" d="M1170.15,105c0,5.61-15.38,10.19-34.72,10.47l.18,1.15c22.53-.3,40.48-5.64,40.48-12.19,0-6.38-17-11.61-38.75-12.16l-.26,2.3c18.55.51,33.06,5,33.06,10.43"/><path class="cls-2" d="M1164.29,105.73c0-4.52-12-8.24-27.46-8.7l-.26,2.29c12.3.41,21.84,3.38,21.84,7s-10.33,6.81-23.35,7l.18,1.14c16.19-.24,29.05-4.06,29.05-8.74"/><path class="cls-2" d="M1075.4,103.16c0-8.25,23.78-15,53.92-15.6l.26,2.28c-24.85.58-44.39,6.57-44.39,13.87,0,7.48,20.49,13.58,46.2,13.91l-.18,1.16c-31-.34-55.81-7.2-55.81-15.63"/><path class="cls-2" d="M1097,105c0,5.61,15.38,10.19,34.72,10.47l-.18,1.15c-22.53-.3-40.48-5.64-40.48-12.19,0-6.38,17-11.61,38.75-12.16l.26,2.3c-18.55.51-33.06,5-33.06,10.43"/><path class="cls-2" d="M1102.88,105.73c0-4.52,12-8.24,27.46-8.7l.26,2.29c-12.3.41-21.84,3.38-21.84,7s10.33,6.81,23.35,7l-.18,1.14c-16.19-.24-29.05-4.06-29.05-8.74"/></g><polygon class="cls-2" points="1102.34 180.84 1090.97 180.84 1090.97 165.01 1102.19 165.01 1102.19 167.41 1093.49 167.41 1093.49 171.67 1101.89 171.67 1101.89 174.07 1093.49 174.07 1093.49 178.45 1102.34 178.45 1102.34 180.84"/><polygon class="cls-2" points="1113 180.84 1109.86 180.84 1103.91 165.01 1106.6 165.01 1111.45 178.25 1116.34 165.01 1118.94 165.01 1113 180.84"/><polygon class="cls-2" points="1132.31 180.84 1120.94 180.84 1120.94 165.01 1132.16 165.01 1132.16 167.41 1123.46 167.41 1123.46 171.67 1131.86 171.67 1131.86 174.07 1123.46 174.07 1123.46 178.45 1132.31 178.45 1132.31 180.84"/><polygon class="cls-2" points="1149.16 180.84 1146.89 180.84 1138.19 169.39 1138.18 180.84 1135.67 180.84 1135.67 165.01 1137.94 165.01 1146.64 176.47 1146.64 165.01 1149.16 165.01 1149.16 180.84"/><polygon class="cls-2" points="1163.85 167.44 1158.81 167.44 1158.81 180.84 1156.29 180.84 1156.29 167.44 1151.25 167.44 1151.25 165.02 1163.85 165.02 1163.85 167.44"/><g class="cls-4"><path class="cls-2" d="M1176,168.52a8,8,0,0,0-4.38-1.36c-2.08,0-3.51.92-3.51,2.36s1.21,1.82,3.24,2.11l1.08.15c2.53.35,5,1.41,5,4.35,0,3.22-2.87,5-6.24,5A10,10,0,0,1,1165,179l1.37-2a7.78,7.78,0,0,0,4.89,1.74c2,0,3.64-.88,3.64-2.34,0-1.24-1.22-1.82-3.51-2.14l-1.21-.17c-2.32-.33-4.62-1.44-4.62-4.38,0-3.18,2.77-4.94,6.14-4.94a9.67,9.67,0,0,1,5.63,1.71Z"/><path class="cls-2" d="M813.07,400.38a1.86,1.86,0,0,0-3.71,0,1.81,1.81,0,0,0,.54,1.32,1.85,1.85,0,0,0,2.63,0,1.8,1.8,0,0,0,.55-1.32m-.27,0a1.56,1.56,0,0,1-.46,1.14,1.55,1.55,0,0,1-1.14.47,1.51,1.51,0,0,1-1.13-.47,1.6,1.6,0,1,1,2.72-1.14m-.9.26a.5.5,0,0,0-.35-.2.77.77,0,0,0,.29-.1.43.43,0,0,0,.2-.4.51.51,0,0,0-.32-.52,1.54,1.54,0,0,0-.55-.07h-.72v2h.36v-.8h.28a.91.91,0,0,1,.4.06.5.5,0,0,1,.19.47v.23a0,0,0,0,0,0,0v0h.34v0a.67.67,0,0,1,0-.11V401a.58.58,0,0,0-.11-.31m-.41-.35a1.14,1.14,0,0,1-.35,0h-.32v-.74h.31a.92.92,0,0,1,.44.07.31.31,0,0,1,.14.3.32.32,0,0,1-.21.32"/><path class="cls-2" d="M740.11,428.28h28.16v-5H746.76v-7.38H761v-5H746.76v-7.4h20.85v-5h-27.5Zm-34.08,0h29.11v-5H712.57V398.48l-6.53,0Zm-4-21q0-4.86-3-6.82t-9.12-2H671.64v29.67h6.65l0-12.3h11.61q6.07,0,9.12-1.86t3-6.73m-6.63,0a2.86,2.86,0,0,1-1.46,2.87,8.31,8.31,0,0,1-3.64.71h-12v-7.37h12a7.19,7.19,0,0,1,3.64.85,3.1,3.1,0,0,1,1.46,2.94m-56.93,20.93h28.16v-5H645.12v-7.35h14.21v-5H645.12v-7.43H666v-5h-27.5Zm-49.33,0h6.61V398.5h-6.61Z"/><path class="cls-2" d="M585.44,401.74a21.58,21.58,0,0,0-4.5-2.07,24.77,24.77,0,0,0-4.16-1.08,31.3,31.3,0,0,0-5.22-.48,27.45,27.45,0,0,0-7.17.95,19.54,19.54,0,0,0-6.2,2.88,15.11,15.11,0,0,0-4.35,4.76,12.93,12.93,0,0,0-1.65,6.63,13.1,13.1,0,0,0,1.65,6.65,15.4,15.4,0,0,0,4.28,4.8,17.49,17.49,0,0,0,6,2.8,26.92,26.92,0,0,0,6.81,1,30.49,30.49,0,0,0,6-.52,32.62,32.62,0,0,0,5-1.42s1.72-.71,3.73-1.78l-4-4a23.86,23.86,0,0,1-2.6,1.22,25.07,25.07,0,0,1-3.83,1.12,24.37,24.37,0,0,1-4.7.47,13.34,13.34,0,0,1-4.28-.71,11.57,11.57,0,0,1-3.76-2.1,10.81,10.81,0,0,1-2.66-3.31,9.23,9.23,0,0,1-1-4.36,9.87,9.87,0,0,1,.9-4.33,8.67,8.67,0,0,1,2.55-3.17,11.49,11.49,0,0,1,3.87-1.93,17.75,17.75,0,0,1,4.91-.64,27.54,27.54,0,0,1,4.71.37c.68.13,1.31.28,1.9.45a16.06,16.06,0,0,1,3.83,1.77Z"/></g><polygon class="cls-2" points="771.31 398.48 800.54 428.17 808.63 428.17 779.38 398.48 771.31 398.48"/><polygon class="cls-2" points="808.63 398.48 779.41 428.17 771.31 428.17 800.56 398.48 808.63 398.48"/><polygon class="cls-2" points="633.42 428.21 633.42 425.8 633.42 398.43 627.69 398.43 627.69 419.96 606.55 398.45 606.55 398.43 600.82 398.43 600.82 428.21 606.55 428.21 606.55 406.74 627.69 428.2 627.69 428.21 627.7 428.21 633.42 428.21"/><g class="cls-4"><path class="cls-2" d="M738,373.85c0-8.25-23.78-15-53.92-15.6l-.26,2.28c24.85.58,44.39,6.57,44.39,13.87,0,7.48-20.49,13.58-46.2,13.91l.18,1.16c31-.34,55.81-7.2,55.81-15.63"/><path class="cls-2" d="M716.36,375.71c0,5.61-15.38,10.19-34.72,10.47l.18,1.15c22.53-.3,40.48-5.64,40.48-12.19,0-6.38-17-11.61-38.75-12.16l-.26,2.3c18.55.51,33.06,5,33.06,10.43"/><path class="cls-2" d="M710.51,376.42c0-4.52-12-8.24-27.46-8.7l-.26,2.29c12.3.41,21.84,3.38,21.84,7s-10.33,6.81-23.35,7l.18,1.14c16.19-.24,29.05-4.06,29.05-8.74"/><path class="cls-2" d="M621.61,373.85c0-8.25,23.78-15,53.92-15.6l.26,2.28c-24.85.58-44.39,6.57-44.39,13.87,0,7.48,20.49,13.58,46.2,13.91l-.18,1.16c-31-.34-55.81-7.2-55.81-15.63"/><path class="cls-2" d="M643.24,375.71c0,5.61,15.38,10.19,34.72,10.47l-.18,1.15c-22.53-.3-40.48-5.64-40.48-12.19,0-6.38,17-11.61,38.75-12.16l.26,2.3c-18.55.51-33.06,5-33.06,10.43"/><path class="cls-2" d="M649.1,376.42c0-4.52,12-8.24,27.46-8.7l.26,2.29c-12.3.41-21.84,3.38-21.84,7s10.33,6.81,23.35,7l-.18,1.14c-16.19-.24-29.05-4.06-29.05-8.74"/></g><polygon class="cls-2" points="648.55 451.53 637.19 451.53 637.19 435.71 648.41 435.71 648.41 438.1 639.71 438.1 639.71 442.37 648.11 442.37 648.11 444.76 639.71 444.76 639.71 449.14 648.55 449.14 648.55 451.53"/><polygon class="cls-2" points="659.22 451.53 656.08 451.53 650.13 435.71 652.82 435.71 657.67 448.94 662.55 435.71 665.16 435.71 659.22 451.53"/><polygon class="cls-2" points="678.53 451.53 667.16 451.53 667.16 435.71 678.38 435.71 678.38 438.1 669.68 438.1 669.68 442.37 678.08 442.37 678.08 444.76 669.68 444.76 669.68 449.14 678.53 449.14 678.53 451.53"/><polygon class="cls-2" points="695.38 451.53 693.1 451.53 684.41 440.08 684.4 451.53 681.88 451.53 681.88 435.71 684.15 435.71 692.86 447.16 692.86 435.71 695.38 435.71 695.38 451.53"/><polygon class="cls-2" points="710.07 438.13 705.02 438.13 705.02 451.53 702.51 451.53 702.51 438.13 697.46 438.13 697.46 435.71 710.07 435.71 710.07 438.13"/><g class="cls-4"><path class="cls-2" d="M722.25,439.21a8,8,0,0,0-4.38-1.36c-2.08,0-3.51.92-3.51,2.36s1.21,1.82,3.24,2.11l1.08.15c2.53.35,5,1.41,5,4.35,0,3.22-2.87,5-6.24,5a10,10,0,0,1-6.27-2.13l1.37-2a7.78,7.78,0,0,0,4.89,1.74c2,0,3.64-.88,3.64-2.34,0-1.24-1.22-1.82-3.51-2.14l-1.21-.17c-2.32-.33-4.62-1.44-4.62-4.38,0-3.18,2.77-4.94,6.14-4.94a9.67,9.67,0,0,1,5.63,1.71Z"/><path class="cls-2" d="M1266.86,400.38a1.86,1.86,0,0,0-3.71,0,1.8,1.8,0,0,0,.54,1.32,1.85,1.85,0,0,0,2.63,0,1.8,1.8,0,0,0,.55-1.32m-.27,0a1.56,1.56,0,0,1-.46,1.14,1.55,1.55,0,0,1-1.14.47,1.51,1.51,0,0,1-1.13-.47,1.6,1.6,0,1,1,2.72-1.14m-.9.26a.5.5,0,0,0-.35-.2.77.77,0,0,0,.29-.1.43.43,0,0,0,.2-.4.51.51,0,0,0-.32-.52,1.54,1.54,0,0,0-.55-.07h-.72v2h.36v-.8h.28a.91.91,0,0,1,.4.06.5.5,0,0,1,.19.47v.23a0,0,0,0,0,0,0v0h.34v0a1.06,1.06,0,0,1,0-.11V401a.58.58,0,0,0-.11-.31m-.41-.35a1.15,1.15,0,0,1-.35,0h-.32v-.74h.31a.92.92,0,0,1,.44.07.31.31,0,0,1,.14.3.32.32,0,0,1-.21.32"/><path class="cls-2" d="M1193.9,428.28h28.16v-5h-21.51v-7.38h14.21v-5h-14.21v-7.4h20.85v-5h-27.5Zm-34.08,0h29.11v-5h-22.57V398.48l-6.53,0Zm-4-21q0-4.86-3-6.82t-9.12-2h-18.24v29.67h6.65l0-12.3h11.61q6.07,0,9.12-1.86t3-6.73m-6.63,0a2.86,2.86,0,0,1-1.46,2.87,8.31,8.31,0,0,1-3.64.71h-12v-7.37h12a7.19,7.19,0,0,1,3.64.85,3.1,3.1,0,0,1,1.46,2.94m-56.93,20.93h28.16v-5H1098.9v-7.35h14.21v-5H1098.9v-7.43h20.85v-5h-27.5Zm-49.33,0h6.61V398.5h-6.61Z"/><path class="cls-2" d="M1039.22,401.74a21.59,21.59,0,0,0-4.5-2.07,24.77,24.77,0,0,0-4.16-1.08,31.3,31.3,0,0,0-5.22-.48,27.45,27.45,0,0,0-7.17.95,19.54,19.54,0,0,0-6.2,2.88,15.11,15.11,0,0,0-4.35,4.76,12.93,12.93,0,0,0-1.65,6.63,13.1,13.1,0,0,0,1.65,6.65,15.4,15.4,0,0,0,4.28,4.8,17.49,17.49,0,0,0,6,2.8,26.92,26.92,0,0,0,6.81,1,30.49,30.49,0,0,0,6-.52,32.61,32.61,0,0,0,5-1.42s1.72-.71,3.73-1.78l-4-4a23.87,23.87,0,0,1-2.6,1.22,25.07,25.07,0,0,1-3.83,1.12,24.37,24.37,0,0,1-4.7.47,13.34,13.34,0,0,1-4.28-.71,11.57,11.57,0,0,1-3.76-2.1,10.81,10.81,0,0,1-2.66-3.31,9.23,9.23,0,0,1-1-4.36,9.89,9.89,0,0,1,.9-4.33,8.67,8.67,0,0,1,2.55-3.17,11.49,11.49,0,0,1,3.87-1.93,17.75,17.75,0,0,1,4.91-.64,27.54,27.54,0,0,1,4.71.37c.68.13,1.31.28,1.9.45a16.06,16.06,0,0,1,3.83,1.77Z"/></g><polygon class="cls-2" points="1225.1 398.48 1254.32 428.17 1262.42 428.17 1233.17 398.48 1225.1 398.48"/><polygon class="cls-2" points="1262.42 398.48 1233.19 428.17 1225.1 428.17 1254.35 398.48 1262.42 398.48"/><polygon class="cls-2" points="1087.2 428.21 1087.2 425.8 1087.2 398.43 1081.47 398.43 1081.47 419.96 1060.34 398.45 1060.34 398.43 1054.61 398.43 1054.61 428.21 1060.34 428.21 1060.34 406.74 1081.47 428.2 1081.47 428.21 1081.48 428.21 1087.2 428.21"/><g class="cls-4"><path class="cls-2" d="M1191.78,373.85c0-8.25-23.78-15-53.92-15.6l-.26,2.28c24.85.58,44.39,6.57,44.39,13.87,0,7.48-20.49,13.58-46.2,13.91l.18,1.16c31-.34,55.81-7.2,55.81-15.63"/><path class="cls-2" d="M1170.15,375.71c0,5.61-15.38,10.19-34.72,10.47l.18,1.15c22.53-.3,40.48-5.64,40.48-12.19,0-6.38-17-11.61-38.75-12.16l-.26,2.3c18.55.51,33.06,5,33.06,10.43"/><path class="cls-2" d="M1164.29,376.42c0-4.52-12-8.24-27.46-8.7l-.26,2.29c12.3.41,21.84,3.38,21.84,7s-10.33,6.81-23.35,7l.18,1.14c16.19-.24,29.05-4.06,29.05-8.74"/><path class="cls-2" d="M1075.4,373.85c0-8.25,23.78-15,53.92-15.6l.26,2.28c-24.85.58-44.39,6.57-44.39,13.87,0,7.48,20.49,13.58,46.2,13.91l-.18,1.16c-31-.34-55.81-7.2-55.81-15.63"/><path class="cls-2" d="M1097,375.71c0,5.61,15.38,10.19,34.72,10.47l-.18,1.15c-22.53-.3-40.48-5.64-40.48-12.19,0-6.38,17-11.61,38.75-12.16l.26,2.3c-18.55.51-33.06,5-33.06,10.43"/><path class="cls-2" d="M1102.88,376.42c0-4.52,12-8.24,27.46-8.7l.26,2.29c-12.3.41-21.84,3.38-21.84,7s10.33,6.81,23.35,7l-.18,1.14c-16.19-.24-29.05-4.06-29.05-8.74"/></g><polygon class="cls-2" points="1102.34 451.53 1090.97 451.53 1090.97 435.71 1102.19 435.71 1102.19 438.1 1093.49 438.1 1093.49 442.37 1101.89 442.37 1101.89 444.76 1093.49 444.76 1093.49 449.14 1102.34 449.14 1102.34 451.53"/><polygon class="cls-2" points="1113 451.53 1109.86 451.53 1103.91 435.71 1106.6 435.71 1111.45 448.94 1116.34 435.71 1118.94 435.71 1113 451.53"/><polygon class="cls-2" points="1132.31 451.53 1120.94 451.53 1120.94 435.71 1132.16 435.71 1132.16 438.1 1123.46 438.1 1123.46 442.37 1131.86 442.37 1131.86 444.76 1123.46 444.76 1123.46 449.14 1132.31 449.14 1132.31 451.53"/><polygon class="cls-2" points="1149.16 451.53 1146.89 451.53 1138.19 440.08 1138.18 451.53 1135.67 451.53 1135.67 435.71 1137.94 435.71 1146.64 447.16 1146.64 435.71 1149.16 435.71 1149.16 451.53"/><polygon class="cls-2" points="1163.85 438.13 1158.81 438.13 1158.81 451.53 1156.29 451.53 1156.29 438.13 1151.25 438.13 1151.25 435.71 1163.85 435.71 1163.85 438.13"/><g class="cls-4"><path class="cls-2" d="M1176,439.21a8,8,0,0,0-4.38-1.36c-2.08,0-3.51.92-3.51,2.36s1.21,1.82,3.24,2.11l1.08.15c2.53.35,5,1.41,5,4.35,0,3.22-2.87,5-6.24,5a10,10,0,0,1-6.27-2.13l1.37-2a7.78,7.78,0,0,0,4.89,1.74c2,0,3.64-.88,3.64-2.34,0-1.24-1.22-1.82-3.51-2.14l-1.21-.17c-2.32-.33-4.62-1.44-4.62-4.38,0-3.18,2.77-4.94,6.14-4.94a9.67,9.67,0,0,1,5.63,1.71Z"/><path class="cls-2" d="M359.29,400.38a1.86,1.86,0,0,0-3.71,0,1.81,1.81,0,0,0,.54,1.32,1.85,1.85,0,0,0,2.63,0,1.8,1.8,0,0,0,.55-1.32m-.27,0a1.56,1.56,0,0,1-.46,1.14,1.55,1.55,0,0,1-1.14.47,1.51,1.51,0,0,1-1.13-.47,1.6,1.6,0,1,1,2.72-1.14m-.9.26a.5.5,0,0,0-.35-.2.77.77,0,0,0,.29-.1.43.43,0,0,0,.2-.4.51.51,0,0,0-.32-.52,1.54,1.54,0,0,0-.55-.07h-.72v2H357v-.8h.28a.91.91,0,0,1,.4.06.5.5,0,0,1,.19.47v.23a0,0,0,0,0,0,0v0h.34v0a.66.66,0,0,1,0-.11V401a.58.58,0,0,0-.11-.31m-.41-.35a1.14,1.14,0,0,1-.35,0H357v-.74h.31a.92.92,0,0,1,.44.07.31.31,0,0,1,.14.3.32.32,0,0,1-.21.32"/><path class="cls-2" d="M286.33,428.28h28.16v-5H293v-7.38h14.21v-5H293v-7.4h20.85v-5h-27.5Zm-34.08,0h29.11v-5H258.79V398.48l-6.53,0Zm-4-21q0-4.86-3-6.82t-9.12-2H217.86v29.67h6.65l0-12.3H236.1q6.07,0,9.12-1.86t3-6.73m-6.63,0a2.86,2.86,0,0,1-1.46,2.87,8.31,8.31,0,0,1-3.64.71h-12v-7.37h12a7.19,7.19,0,0,1,3.64.85,3.1,3.1,0,0,1,1.46,2.94m-56.93,20.93h28.16v-5H191.34v-7.35h14.21v-5H191.34v-7.43h20.85v-5h-27.5Zm-49.33,0H142V398.5h-6.61Z"/><path class="cls-2" d="M131.66,401.74a21.58,21.58,0,0,0-4.5-2.07,24.77,24.77,0,0,0-4.16-1.08,31.3,31.3,0,0,0-5.22-.48,27.45,27.45,0,0,0-7.17.95,19.54,19.54,0,0,0-6.2,2.88,15.11,15.11,0,0,0-4.35,4.76,12.93,12.93,0,0,0-1.65,6.63,13.1,13.1,0,0,0,1.65,6.65,15.4,15.4,0,0,0,4.28,4.8,17.49,17.49,0,0,0,6,2.8,26.92,26.92,0,0,0,6.81,1,30.49,30.49,0,0,0,6-.52,32.62,32.62,0,0,0,5-1.42s1.72-.71,3.73-1.78l-4-4a23.86,23.86,0,0,1-2.6,1.22,25.07,25.07,0,0,1-3.83,1.12,24.37,24.37,0,0,1-4.7.47,13.34,13.34,0,0,1-4.28-.71,11.57,11.57,0,0,1-3.76-2.1,10.81,10.81,0,0,1-2.66-3.31,9.23,9.23,0,0,1-1-4.36,9.87,9.87,0,0,1,.9-4.33,8.67,8.67,0,0,1,2.55-3.17,11.49,11.49,0,0,1,3.87-1.93,17.75,17.75,0,0,1,4.91-.64,27.54,27.54,0,0,1,4.71.37c.68.13,1.31.28,1.9.45a16.06,16.06,0,0,1,3.83,1.77Z"/></g><polygon class="cls-2" points="317.53 398.48 346.75 428.17 354.85 428.17 325.6 398.48 317.53 398.48"/><polygon class="cls-2" points="354.85 398.48 325.62 428.17 317.53 428.17 346.78 398.48 354.85 398.48"/><polygon class="cls-2" points="179.63 428.21 179.63 425.8 179.63 398.43 173.9 398.43 173.9 419.96 152.77 398.45 152.77 398.43 147.04 398.43 147.04 428.21 152.77 428.21 152.77 406.74 173.9 428.2 173.9 428.21 173.91 428.21 179.63 428.21"/><g class="cls-4"><path class="cls-2" d="M284.21,373.85c0-8.25-23.78-15-53.92-15.6l-.26,2.28c24.85.58,44.39,6.57,44.39,13.87,0,7.48-20.49,13.58-46.2,13.91l.18,1.16c31-.34,55.81-7.2,55.81-15.63"/><path class="cls-2" d="M262.58,375.71c0,5.61-15.38,10.19-34.72,10.47l.18,1.15c22.53-.3,40.48-5.64,40.48-12.19,0-6.38-17-11.61-38.75-12.16l-.26,2.3c18.55.51,33.06,5,33.06,10.43"/><path class="cls-2" d="M256.73,376.42c0-4.52-12-8.24-27.46-8.7L229,370c12.3.41,21.84,3.38,21.84,7s-10.33,6.81-23.35,7l.18,1.14c16.19-.24,29.05-4.06,29.05-8.74"/><path class="cls-2" d="M167.83,373.85c0-8.25,23.78-15,53.92-15.6l.26,2.28c-24.85.58-44.39,6.57-44.39,13.87,0,7.48,20.49,13.58,46.2,13.91l-.18,1.16c-31-.34-55.81-7.2-55.81-15.63"/><path class="cls-2" d="M189.46,375.71c0,5.61,15.38,10.19,34.72,10.47l-.18,1.15c-22.53-.3-40.48-5.64-40.48-12.19,0-6.38,17-11.61,38.75-12.16l.26,2.3c-18.55.51-33.06,5-33.06,10.43"/><path class="cls-2" d="M195.31,376.42c0-4.52,12-8.24,27.46-8.7L223,370c-12.3.41-21.84,3.38-21.84,7s10.33,6.81,23.35,7l-.18,1.14c-16.19-.24-29.05-4.06-29.05-8.74"/></g><polygon class="cls-2" points="194.77 451.53 183.41 451.53 183.41 435.71 194.63 435.71 194.63 438.1 185.92 438.1 185.92 442.37 194.33 442.37 194.33 444.76 185.92 444.76 185.92 449.14 194.77 449.14 194.77 451.53"/><polygon class="cls-2" points="205.43 451.53 202.29 451.53 196.35 435.71 199.03 435.71 203.88 448.94 208.77 435.71 211.38 435.71 205.43 451.53"/><polygon class="cls-2" points="224.74 451.53 213.38 451.53 213.38 435.71 224.6 435.71 224.6 438.1 215.89 438.1 215.89 442.37 224.3 442.37 224.3 444.76 215.89 444.76 215.89 449.14 224.74 449.14 224.74 451.53"/><polygon class="cls-2" points="241.59 451.53 239.32 451.53 230.63 440.08 230.62 451.53 228.1 451.53 228.1 435.71 230.37 435.71 239.08 447.16 239.08 435.71 241.59 435.71 241.59 451.53"/><polygon class="cls-2" points="256.28 438.13 251.24 438.13 251.24 451.53 248.72 451.53 248.72 438.13 243.68 438.13 243.68 435.71 256.28 435.71 256.28 438.13"/><g class="cls-4"><path class="cls-2" d="M268.47,439.21a8,8,0,0,0-4.38-1.36c-2.08,0-3.51.92-3.51,2.36s1.21,1.82,3.24,2.11l1.08.15c2.53.35,5,1.41,5,4.35,0,3.22-2.87,5-6.24,5a10,10,0,0,1-6.27-2.13l1.37-2a7.78,7.78,0,0,0,4.89,1.74c2,0,3.64-.88,3.64-2.34,0-1.24-1.22-1.82-3.51-2.14l-1.21-.17c-2.32-.33-4.62-1.44-4.62-4.38,0-3.18,2.77-4.94,6.14-4.94a9.67,9.67,0,0,1,5.63,1.71Z"/><path class="cls-2" d="M813.07,671.09a1.86,1.86,0,0,0-3.71,0,1.81,1.81,0,0,0,.54,1.32,1.85,1.85,0,0,0,2.63,0,1.8,1.8,0,0,0,.55-1.32m-.27,0a1.56,1.56,0,0,1-.46,1.14,1.55,1.55,0,0,1-1.14.47,1.51,1.51,0,0,1-1.13-.47,1.6,1.6,0,1,1,2.72-1.14m-.9.26a.5.5,0,0,0-.35-.2.77.77,0,0,0,.29-.1.43.43,0,0,0,.2-.4.51.51,0,0,0-.32-.52,1.55,1.55,0,0,0-.55-.07h-.72v2h.36v-.8h.28a.91.91,0,0,1,.4.06.5.5,0,0,1,.19.47v.23a0,0,0,0,0,0,0v0h.34v0a.67.67,0,0,1,0-.11v-.3a.58.58,0,0,0-.11-.31m-.41-.35a1.14,1.14,0,0,1-.35,0h-.32v-.74h.31a.92.92,0,0,1,.44.07.31.31,0,0,1,.14.3.32.32,0,0,1-.21.32"/><path class="cls-2" d="M740.11,699h28.16v-5H746.76v-7.38H761v-5H746.76v-7.4h20.85v-5h-27.5ZM706,699h29.11v-5H712.57V669.19l-6.53,0Zm-4-21q0-4.86-3-6.82t-9.12-2H671.64V699h6.65l0-12.3h11.61q6.07,0,9.12-1.86t3-6.73m-6.63,0a2.86,2.86,0,0,1-1.46,2.87,8.31,8.31,0,0,1-3.64.71h-12v-7.37h12a7.19,7.19,0,0,1,3.64.85,3.1,3.1,0,0,1,1.46,2.94M638.48,699h28.16v-5H645.12v-7.35h14.21v-5H645.12v-7.43H666v-5h-27.5Zm-49.33,0h6.61V669.21h-6.61Z"/><path class="cls-2" d="M585.44,672.45a21.58,21.58,0,0,0-4.5-2.07,24.77,24.77,0,0,0-4.16-1.08,31.3,31.3,0,0,0-5.22-.48,27.45,27.45,0,0,0-7.17.95,19.54,19.54,0,0,0-6.2,2.88,15.11,15.11,0,0,0-4.35,4.76,12.93,12.93,0,0,0-1.65,6.63,13.1,13.1,0,0,0,1.65,6.65,15.4,15.4,0,0,0,4.28,4.8,17.49,17.49,0,0,0,6,2.8,26.92,26.92,0,0,0,6.81,1,30.49,30.49,0,0,0,6-.52,32.62,32.62,0,0,0,5-1.42s1.72-.71,3.73-1.78l-4-4a23.86,23.86,0,0,1-2.6,1.22,25.06,25.06,0,0,1-3.83,1.12,24.37,24.37,0,0,1-4.7.47,13.34,13.34,0,0,1-4.28-.71,11.57,11.57,0,0,1-3.76-2.1,10.81,10.81,0,0,1-2.66-3.31,9.23,9.23,0,0,1-1-4.36,9.87,9.87,0,0,1,.9-4.33,8.67,8.67,0,0,1,2.55-3.17,11.49,11.49,0,0,1,3.87-1.93,17.75,17.75,0,0,1,4.91-.64,27.54,27.54,0,0,1,4.71.37c.68.13,1.31.28,1.9.45a16.06,16.06,0,0,1,3.83,1.77Z"/></g><polygon class="cls-2" points="771.31 669.19 800.54 698.88 808.63 698.88 779.38 669.19 771.31 669.19"/><polygon class="cls-2" points="808.63 669.19 779.41 698.88 771.31 698.88 800.56 669.19 808.63 669.19"/><polygon class="cls-2" points="633.42 698.92 633.42 696.51 633.42 669.14 627.69 669.14 627.69 690.67 606.55 669.15 606.55 669.14 600.82 669.14 600.82 698.92 606.55 698.92 606.55 677.45 627.69 698.91 627.69 698.92 627.7 698.92 633.42 698.92"/><g class="cls-4"><path class="cls-2" d="M738,644.55c0-8.25-23.78-15-53.92-15.6l-.26,2.28c24.85.58,44.39,6.57,44.39,13.87,0,7.48-20.49,13.58-46.2,13.91l.18,1.16c31-.34,55.81-7.2,55.81-15.63"/><path class="cls-2" d="M716.36,646.41c0,5.61-15.38,10.19-34.72,10.47l.18,1.15c22.53-.3,40.48-5.64,40.48-12.19,0-6.38-17-11.61-38.75-12.16l-.26,2.3c18.55.51,33.06,5,33.06,10.43"/><path class="cls-2" d="M710.51,647.13c0-4.52-12-8.24-27.46-8.7l-.26,2.29c12.3.41,21.84,3.38,21.84,7s-10.33,6.81-23.35,7l.18,1.14c16.19-.24,29.05-4.06,29.05-8.74"/><path class="cls-2" d="M621.61,644.55c0-8.25,23.78-15,53.92-15.6l.26,2.28c-24.85.58-44.39,6.57-44.39,13.87,0,7.48,20.49,13.58,46.2,13.91l-.18,1.16c-31-.34-55.81-7.2-55.81-15.63"/><path class="cls-2" d="M643.24,646.41c0,5.61,15.38,10.19,34.72,10.47l-.18,1.15c-22.53-.3-40.48-5.64-40.48-12.19,0-6.38,17-11.61,38.75-12.16l.26,2.3c-18.55.51-33.06,5-33.06,10.43"/><path class="cls-2" d="M649.1,647.13c0-4.52,12-8.24,27.46-8.7l.26,2.29c-12.3.41-21.84,3.38-21.84,7s10.33,6.81,23.35,7l-.18,1.14c-16.19-.24-29.05-4.06-29.05-8.74"/></g><polygon class="cls-2" points="648.55 722.24 637.19 722.24 637.19 706.41 648.41 706.41 648.41 708.81 639.71 708.81 639.71 713.07 648.11 713.07 648.11 715.47 639.71 715.47 639.71 719.85 648.55 719.85 648.55 722.24"/><polygon class="cls-2" points="659.22 722.24 656.08 722.24 650.13 706.41 652.82 706.41 657.67 719.65 662.55 706.41 665.16 706.41 659.22 722.24"/><polygon class="cls-2" points="678.53 722.24 667.16 722.24 667.16 706.41 678.38 706.41 678.38 708.81 669.68 708.81 669.68 713.07 678.08 713.07 678.08 715.47 669.68 715.47 669.68 719.85 678.53 719.85 678.53 722.24"/><polygon class="cls-2" points="695.38 722.24 693.1 722.24 684.41 710.79 684.4 722.24 681.88 722.24 681.88 706.41 684.15 706.41 692.86 717.87 692.86 706.41 695.38 706.41 695.38 722.24"/><polygon class="cls-2" points="710.07 708.83 705.02 708.83 705.02 722.24 702.51 722.24 702.51 708.83 697.46 708.83 697.46 706.41 710.07 706.41 710.07 708.83"/><g class="cls-4"><path class="cls-2" d="M722.25,709.92a8,8,0,0,0-4.38-1.36c-2.08,0-3.51.92-3.51,2.36s1.21,1.82,3.24,2.11l1.08.15c2.53.35,5,1.41,5,4.35,0,3.22-2.87,5-6.24,5a10,10,0,0,1-6.27-2.13l1.37-2a7.78,7.78,0,0,0,4.89,1.74c2,0,3.64-.88,3.64-2.34,0-1.24-1.22-1.82-3.51-2.14l-1.21-.17c-2.32-.33-4.62-1.44-4.62-4.38,0-3.18,2.77-4.94,6.14-4.94a9.67,9.67,0,0,1,5.63,1.71Z"/><path class="cls-2" d="M1266.86,671.09a1.86,1.86,0,0,0-3.71,0,1.8,1.8,0,0,0,.54,1.32,1.85,1.85,0,0,0,2.63,0,1.8,1.8,0,0,0,.55-1.32m-.27,0a1.56,1.56,0,0,1-.46,1.14,1.55,1.55,0,0,1-1.14.47,1.51,1.51,0,0,1-1.13-.47,1.6,1.6,0,1,1,2.72-1.14m-.9.26a.5.5,0,0,0-.35-.2.77.77,0,0,0,.29-.1.43.43,0,0,0,.2-.4.51.51,0,0,0-.32-.52,1.55,1.55,0,0,0-.55-.07h-.72v2h.36v-.8h.28a.91.91,0,0,1,.4.06.5.5,0,0,1,.19.47v.23a0,0,0,0,0,0,0v0h.34v0a1.07,1.07,0,0,1,0-.11v-.3a.58.58,0,0,0-.11-.31m-.41-.35a1.15,1.15,0,0,1-.35,0h-.32v-.74h.31a.92.92,0,0,1,.44.07.31.31,0,0,1,.14.3.32.32,0,0,1-.21.32"/><path class="cls-2" d="M1193.9,699h28.16v-5h-21.51v-7.38h14.21v-5h-14.21v-7.4h20.85v-5h-27.5Zm-34.08,0h29.11v-5h-22.57V669.19l-6.53,0Zm-4-21q0-4.86-3-6.82t-9.12-2h-18.24V699h6.65l0-12.3h11.61q6.07,0,9.12-1.86t3-6.73m-6.63,0a2.86,2.86,0,0,1-1.46,2.87,8.31,8.31,0,0,1-3.64.71h-12v-7.37h12a7.19,7.19,0,0,1,3.64.85,3.1,3.1,0,0,1,1.46,2.94M1092.26,699h28.16v-5H1098.9v-7.35h14.21v-5H1098.9v-7.43h20.85v-5h-27.5Zm-49.33,0h6.61V669.21h-6.61Z"/><path class="cls-2" d="M1039.22,672.45a21.59,21.59,0,0,0-4.5-2.07,24.77,24.77,0,0,0-4.16-1.08,31.3,31.3,0,0,0-5.22-.48,27.45,27.45,0,0,0-7.17.95,19.54,19.54,0,0,0-6.2,2.88,15.11,15.11,0,0,0-4.35,4.76A12.93,12.93,0,0,0,1006,684a13.1,13.1,0,0,0,1.65,6.65,15.4,15.4,0,0,0,4.28,4.8,17.49,17.49,0,0,0,6,2.8,26.92,26.92,0,0,0,6.81,1,30.49,30.49,0,0,0,6-.52,32.62,32.62,0,0,0,5-1.42s1.72-.71,3.73-1.78l-4-4a23.87,23.87,0,0,1-2.6,1.22,25.06,25.06,0,0,1-3.83,1.12,24.37,24.37,0,0,1-4.7.47,13.34,13.34,0,0,1-4.28-.71,11.57,11.57,0,0,1-3.76-2.1,10.81,10.81,0,0,1-2.66-3.31,9.23,9.23,0,0,1-1-4.36,9.89,9.89,0,0,1,.9-4.33,8.67,8.67,0,0,1,2.55-3.17,11.49,11.49,0,0,1,3.87-1.93,17.75,17.75,0,0,1,4.91-.64,27.54,27.54,0,0,1,4.71.37c.68.13,1.31.28,1.9.45a16.06,16.06,0,0,1,3.83,1.77Z"/></g><polygon class="cls-2" points="1225.1 669.19 1254.32 698.88 1262.42 698.88 1233.17 669.19 1225.1 669.19"/><polygon class="cls-2" points="1262.42 669.19 1233.19 698.88 1225.1 698.88 1254.35 669.19 1262.42 669.19"/><polygon class="cls-2" points="1087.2 698.92 1087.2 696.51 1087.2 669.14 1081.47 669.14 1081.47 690.67 1060.34 669.15 1060.34 669.14 1054.61 669.14 1054.61 698.92 1060.34 698.92 1060.34 677.45 1081.47 698.91 1081.47 698.92 1081.48 698.92 1087.2 698.92"/><g class="cls-4"><path class="cls-2" d="M1191.78,644.55c0-8.25-23.78-15-53.92-15.6l-.26,2.28c24.85.58,44.39,6.57,44.39,13.87,0,7.48-20.49,13.58-46.2,13.91l.18,1.16c31-.34,55.81-7.2,55.81-15.63"/><path class="cls-2" d="M1170.15,646.41c0,5.61-15.38,10.19-34.72,10.47l.18,1.15c22.53-.3,40.48-5.64,40.48-12.19,0-6.38-17-11.61-38.75-12.16l-.26,2.3c18.55.51,33.06,5,33.06,10.43"/><path class="cls-2" d="M1164.29,647.13c0-4.52-12-8.24-27.46-8.7l-.26,2.29c12.3.41,21.84,3.38,21.84,7s-10.33,6.81-23.35,7l.18,1.14c16.19-.24,29.05-4.06,29.05-8.74"/><path class="cls-2" d="M1075.4,644.55c0-8.25,23.78-15,53.92-15.6l.26,2.28c-24.85.58-44.39,6.57-44.39,13.87,0,7.48,20.49,13.58,46.2,13.91l-.18,1.16c-31-.34-55.81-7.2-55.81-15.63"/><path class="cls-2" d="M1097,646.41c0,5.61,15.38,10.19,34.72,10.47l-.18,1.15c-22.53-.3-40.48-5.64-40.48-12.19,0-6.38,17-11.61,38.75-12.16l.26,2.3c-18.55.51-33.06,5-33.06,10.43"/><path class="cls-2" d="M1102.88,647.13c0-4.52,12-8.24,27.46-8.7l.26,2.29c-12.3.41-21.84,3.38-21.84,7s10.33,6.81,23.35,7l-.18,1.14c-16.19-.24-29.05-4.06-29.05-8.74"/></g><polygon class="cls-2" points="1102.34 722.24 1090.97 722.24 1090.97 706.41 1102.19 706.41 1102.19 708.81 1093.49 708.81 1093.49 713.07 1101.89 713.07 1101.89 715.47 1093.49 715.47 1093.49 719.85 1102.34 719.85 1102.34 722.24"/><polygon class="cls-2" points="1113 722.24 1109.86 722.24 1103.91 706.41 1106.6 706.41 1111.45 719.65 1116.34 706.41 1118.94 706.41 1113 722.24"/><polygon class="cls-2" points="1132.31 722.24 1120.94 722.24 1120.94 706.41 1132.16 706.41 1132.16 708.81 1123.46 708.81 1123.46 713.07 1131.86 713.07 1131.86 715.47 1123.46 715.47 1123.46 719.85 1132.31 719.85 1132.31 722.24"/><polygon class="cls-2" points="1149.16 722.24 1146.89 722.24 1138.19 710.79 1138.18 722.24 1135.67 722.24 1135.67 706.41 1137.94 706.41 1146.64 717.87 1146.64 706.41 1149.16 706.41 1149.16 722.24"/><polygon class="cls-2" points="1163.85 708.83 1158.81 708.83 1158.81 722.24 1156.29 722.24 1156.29 708.83 1151.25 708.83 1151.25 706.41 1163.85 706.41 1163.85 708.83"/><g class="cls-4"><path class="cls-2" d="M1176,709.92a8,8,0,0,0-4.38-1.36c-2.08,0-3.51.92-3.51,2.36s1.21,1.82,3.24,2.11l1.08.15c2.53.35,5,1.41,5,4.35,0,3.22-2.87,5-6.24,5a10,10,0,0,1-6.27-2.13l1.37-2a7.78,7.78,0,0,0,4.89,1.74c2,0,3.64-.88,3.64-2.34,0-1.24-1.22-1.82-3.51-2.14l-1.21-.17c-2.32-.33-4.62-1.44-4.62-4.38,0-3.18,2.77-4.94,6.14-4.94a9.67,9.67,0,0,1,5.63,1.71Z"/><path class="cls-2" d="M359.29,671.09a1.86,1.86,0,0,0-3.71,0,1.81,1.81,0,0,0,.54,1.32,1.85,1.85,0,0,0,2.63,0,1.8,1.8,0,0,0,.55-1.32m-.27,0a1.56,1.56,0,0,1-.46,1.14,1.55,1.55,0,0,1-1.14.47,1.51,1.51,0,0,1-1.13-.47,1.6,1.6,0,1,1,2.72-1.14m-.9.26a.5.5,0,0,0-.35-.2.77.77,0,0,0,.29-.1.43.43,0,0,0,.2-.4.51.51,0,0,0-.32-.52,1.55,1.55,0,0,0-.55-.07h-.72v2H357v-.8h.28a.91.91,0,0,1,.4.06.5.5,0,0,1,.19.47v.23a0,0,0,0,0,0,0v0h.34v0a.66.66,0,0,1,0-.11v-.3a.58.58,0,0,0-.11-.31m-.41-.35a1.14,1.14,0,0,1-.35,0H357v-.74h.31a.92.92,0,0,1,.44.07.31.31,0,0,1,.14.3.32.32,0,0,1-.21.32"/><path class="cls-2" d="M286.33,699h28.16v-5H293v-7.38h14.21v-5H293v-7.4h20.85v-5h-27.5Zm-34.08,0h29.11v-5H258.79V669.19l-6.53,0Zm-4-21q0-4.86-3-6.82t-9.12-2H217.86V699h6.65l0-12.3H236.1q6.07,0,9.12-1.86t3-6.73m-6.63,0a2.86,2.86,0,0,1-1.46,2.87,8.31,8.31,0,0,1-3.64.71h-12v-7.37h12a7.19,7.19,0,0,1,3.64.85,3.1,3.1,0,0,1,1.46,2.94M184.69,699h28.16v-5H191.34v-7.35h14.21v-5H191.34v-7.43h20.85v-5h-27.5Zm-49.33,0H142V669.21h-6.61Z"/><path class="cls-2" d="M131.66,672.45a21.58,21.58,0,0,0-4.5-2.07A24.77,24.77,0,0,0,123,669.3a31.3,31.3,0,0,0-5.22-.48,27.45,27.45,0,0,0-7.17.95,19.54,19.54,0,0,0-6.2,2.88,15.11,15.11,0,0,0-4.35,4.76A12.93,12.93,0,0,0,98.4,684a13.1,13.1,0,0,0,1.65,6.65,15.4,15.4,0,0,0,4.28,4.8,17.49,17.49,0,0,0,6,2.8,26.92,26.92,0,0,0,6.81,1,30.49,30.49,0,0,0,6-.52,32.62,32.62,0,0,0,5-1.42s1.72-.71,3.73-1.78l-4-4a23.86,23.86,0,0,1-2.6,1.22,25.07,25.07,0,0,1-3.83,1.12,24.37,24.37,0,0,1-4.7.47,13.34,13.34,0,0,1-4.28-.71,11.57,11.57,0,0,1-3.76-2.1,10.81,10.81,0,0,1-2.66-3.31,9.23,9.23,0,0,1-1-4.36,9.87,9.87,0,0,1,.9-4.33,8.67,8.67,0,0,1,2.55-3.17,11.49,11.49,0,0,1,3.87-1.93,17.75,17.75,0,0,1,4.91-.64,27.54,27.54,0,0,1,4.71.37c.68.13,1.31.28,1.9.45a16.06,16.06,0,0,1,3.83,1.77Z"/></g><polygon class="cls-2" points="317.53 669.19 346.75 698.88 354.85 698.88 325.6 669.19 317.53 669.19"/><polygon class="cls-2" points="354.85 669.19 325.62 698.88 317.53 698.88 346.78 669.19 354.85 669.19"/><polygon class="cls-2" points="179.63 698.92 179.63 696.51 179.63 669.14 173.9 669.14 173.9 690.67 152.77 669.15 152.77 669.14 147.04 669.14 147.04 698.92 152.77 698.92 152.77 677.45 173.9 698.91 173.9 698.92 173.91 698.92 179.63 698.92"/><g class="cls-4"><path class="cls-2" d="M284.21,644.55c0-8.25-23.78-15-53.92-15.6l-.26,2.28c24.85.58,44.39,6.57,44.39,13.87,0,7.48-20.49,13.58-46.2,13.91l.18,1.16c31-.34,55.81-7.2,55.81-15.63"/><path class="cls-2" d="M262.58,646.41c0,5.61-15.38,10.19-34.72,10.47L228,658c22.53-.3,40.48-5.64,40.48-12.19,0-6.38-17-11.61-38.75-12.16l-.26,2.3c18.55.51,33.06,5,33.06,10.43"/><path class="cls-2" d="M256.73,647.13c0-4.52-12-8.24-27.46-8.7l-.26,2.29c12.3.41,21.84,3.38,21.84,7s-10.33,6.81-23.35,7l.18,1.14c16.19-.24,29.05-4.06,29.05-8.74"/><path class="cls-2" d="M167.83,644.55c0-8.25,23.78-15,53.92-15.6l.26,2.28c-24.85.58-44.39,6.57-44.39,13.87,0,7.48,20.49,13.58,46.2,13.91l-.18,1.16c-31-.34-55.81-7.2-55.81-15.63"/><path class="cls-2" d="M189.46,646.41c0,5.61,15.38,10.19,34.72,10.47L224,658c-22.53-.3-40.48-5.64-40.48-12.19,0-6.38,17-11.61,38.75-12.16l.26,2.3c-18.55.51-33.06,5-33.06,10.43"/><path class="cls-2" d="M195.31,647.13c0-4.52,12-8.24,27.46-8.7l.26,2.29c-12.3.41-21.84,3.38-21.84,7s10.33,6.81,23.35,7l-.18,1.14c-16.19-.24-29.05-4.06-29.05-8.74"/></g><polygon class="cls-2" points="194.77 722.24 183.41 722.24 183.41 706.41 194.63 706.41 194.63 708.81 185.92 708.81 185.92 713.07 194.33 713.07 194.33 715.47 185.92 715.47 185.92 719.85 194.77 719.85 194.77 722.24"/><polygon class="cls-2" points="205.43 722.24 202.29 722.24 196.35 706.41 199.03 706.41 203.88 719.65 208.77 706.41 211.38 706.41 205.43 722.24"/><polygon class="cls-2" points="224.74 722.24 213.38 722.24 213.38 706.41 224.6 706.41 224.6 708.81 215.89 708.81 215.89 713.07 224.3 713.07 224.3 715.47 215.89 715.47 215.89 719.85 224.74 719.85 224.74 722.24"/><polygon class="cls-2" points="241.59 722.24 239.32 722.24 230.63 710.79 230.62 722.24 228.1 722.24 228.1 706.41 230.37 706.41 239.08 717.87 239.08 706.41 241.59 706.41 241.59 722.24"/><polygon class="cls-2" points="256.28 708.83 251.24 708.83 251.24 722.24 248.72 722.24 248.72 708.83 243.68 708.83 243.68 706.41 256.28 706.41 256.28 708.83"/><g class="cls-4"><path class="cls-2" d="M268.47,709.92a8,8,0,0,0-4.38-1.36c-2.08,0-3.51.92-3.51,2.36s1.21,1.82,3.24,2.11l1.08.15c2.53.35,5,1.41,5,4.35,0,3.22-2.87,5-6.24,5a10,10,0,0,1-6.27-2.13l1.37-2a7.78,7.78,0,0,0,4.89,1.74c2,0,3.64-.88,3.64-2.34,0-1.24-1.22-1.82-3.51-2.14l-1.21-.17c-2.32-.33-4.62-1.44-4.62-4.38,0-3.18,2.77-4.94,6.14-4.94a9.67,9.67,0,0,1,5.63,1.71Z"/><path class="cls-2" d="M813.07,941.8a1.86,1.86,0,0,0-3.71,0,1.81,1.81,0,0,0,.54,1.32,1.85,1.85,0,0,0,2.63,0,1.8,1.8,0,0,0,.55-1.32m-.27,0a1.56,1.56,0,0,1-.46,1.14,1.55,1.55,0,0,1-1.14.47,1.51,1.51,0,0,1-1.13-.47,1.6,1.6,0,1,1,2.72-1.14m-.9.26a.5.5,0,0,0-.35-.2.77.77,0,0,0,.29-.1.43.43,0,0,0,.2-.4.51.51,0,0,0-.32-.52,1.55,1.55,0,0,0-.55-.07h-.72v2h.36V942h.28a.91.91,0,0,1,.4.06.5.5,0,0,1,.19.47v.23a0,0,0,0,0,0,0v0h.34v0a.67.67,0,0,1,0-.11v-.3a.58.58,0,0,0-.11-.31m-.41-.35a1.14,1.14,0,0,1-.35,0h-.32V941h.31a.92.92,0,0,1,.44.07.31.31,0,0,1,.14.3.32.32,0,0,1-.21.32"/><path class="cls-2" d="M740.11,969.7h28.16v-5H746.76v-7.38H761v-5H746.76v-7.4h20.85v-5h-27.5Zm-34.08,0h29.11v-5H712.57V939.9l-6.53,0Zm-4-21q0-4.86-3-6.82t-9.12-2H671.64v29.67h6.65l0-12.3h11.61q6.07,0,9.12-1.86t3-6.73m-6.63,0a2.86,2.86,0,0,1-1.46,2.87,8.31,8.31,0,0,1-3.64.71h-12V945h12a7.19,7.19,0,0,1,3.64.85,3.1,3.1,0,0,1,1.46,2.94M638.48,969.7h28.16v-5H645.12v-7.35h14.21v-5H645.12v-7.43H666v-5h-27.5Zm-49.33,0h6.61V939.91h-6.61Z"/><path class="cls-2" d="M585.44,943.16a21.58,21.58,0,0,0-4.5-2.07,24.77,24.77,0,0,0-4.16-1.08,31.3,31.3,0,0,0-5.22-.48,27.45,27.45,0,0,0-7.17.95,19.54,19.54,0,0,0-6.2,2.88,15.11,15.11,0,0,0-4.35,4.76,12.93,12.93,0,0,0-1.65,6.63,13.1,13.1,0,0,0,1.65,6.65,15.4,15.4,0,0,0,4.28,4.8,17.49,17.49,0,0,0,6,2.8,26.92,26.92,0,0,0,6.81,1,30.48,30.48,0,0,0,6-.52,32.62,32.62,0,0,0,5-1.42s1.72-.71,3.73-1.78l-4-4a23.86,23.86,0,0,1-2.6,1.22,25.06,25.06,0,0,1-3.83,1.12,24.37,24.37,0,0,1-4.7.47,13.34,13.34,0,0,1-4.28-.71,11.57,11.57,0,0,1-3.76-2.1,10.81,10.81,0,0,1-2.66-3.31,9.23,9.23,0,0,1-1-4.36,9.87,9.87,0,0,1,.9-4.33,8.67,8.67,0,0,1,2.55-3.17,11.49,11.49,0,0,1,3.87-1.93,17.75,17.75,0,0,1,4.91-.64,27.54,27.54,0,0,1,4.71.37c.68.13,1.31.28,1.9.45a16.06,16.06,0,0,1,3.83,1.77Z"/></g><polygon class="cls-2" points="771.31 939.9 800.54 969.59 808.63 969.59 779.38 939.9 771.31 939.9"/><polygon class="cls-2" points="808.63 939.9 779.41 969.59 771.31 969.59 800.56 939.9 808.63 939.9"/><polygon class="cls-2" points="633.42 969.63 633.42 967.21 633.42 939.84 627.69 939.84 627.69 961.38 606.55 939.86 606.55 939.84 600.82 939.84 600.82 969.63 606.55 969.63 606.55 948.15 627.69 969.62 627.69 969.63 627.7 969.63 633.42 969.63"/><g class="cls-4"><path class="cls-2" d="M738,915.26c0-8.25-23.78-15-53.92-15.6l-.26,2.28c24.85.58,44.39,6.57,44.39,13.87,0,7.48-20.49,13.58-46.2,13.91l.18,1.16c31-.34,55.81-7.2,55.81-15.63"/><path class="cls-2" d="M716.36,917.12c0,5.61-15.38,10.19-34.72,10.47l.18,1.15c22.53-.3,40.48-5.64,40.48-12.19,0-6.38-17-11.61-38.75-12.16l-.26,2.3c18.55.51,33.06,5,33.06,10.43"/><path class="cls-2" d="M710.51,917.83c0-4.52-12-8.24-27.46-8.7l-.26,2.29c12.3.41,21.84,3.38,21.84,7s-10.33,6.81-23.35,7l.18,1.14c16.19-.24,29.05-4.06,29.05-8.74"/><path class="cls-2" d="M621.61,915.26c0-8.25,23.78-15,53.92-15.6l.26,2.28c-24.85.58-44.39,6.57-44.39,13.87,0,7.48,20.49,13.58,46.2,13.91l-.18,1.16c-31-.34-55.81-7.2-55.81-15.63"/><path class="cls-2" d="M643.24,917.12c0,5.61,15.38,10.19,34.72,10.47l-.18,1.15c-22.53-.3-40.48-5.64-40.48-12.19,0-6.38,17-11.61,38.75-12.16l.26,2.3c-18.55.51-33.06,5-33.06,10.43"/><path class="cls-2" d="M649.1,917.83c0-4.52,12-8.24,27.46-8.7l.26,2.29c-12.3.41-21.84,3.38-21.84,7s10.33,6.81,23.35,7l-.18,1.14c-16.19-.24-29.05-4.06-29.05-8.74"/></g><polygon class="cls-2" points="648.55 992.95 637.19 992.95 637.19 977.12 648.41 977.12 648.41 979.52 639.71 979.52 639.71 983.78 648.11 983.78 648.11 986.18 639.71 986.18 639.71 990.55 648.55 990.55 648.55 992.95"/><polygon class="cls-2" points="659.22 992.95 656.08 992.95 650.13 977.12 652.82 977.12 657.67 990.36 662.55 977.12 665.16 977.12 659.22 992.95"/><polygon class="cls-2" points="678.53 992.95 667.16 992.95 667.16 977.12 678.38 977.12 678.38 979.52 669.68 979.52 669.68 983.78 678.08 983.78 678.08 986.18 669.68 986.18 669.68 990.55 678.53 990.55 678.53 992.95"/><polygon class="cls-2" points="695.38 992.95 693.1 992.95 684.41 981.5 684.4 992.95 681.88 992.95 681.88 977.12 684.15 977.12 692.86 988.57 692.86 977.12 695.38 977.12 695.38 992.95"/><polygon class="cls-2" points="710.07 979.54 705.02 979.54 705.02 992.95 702.51 992.95 702.51 979.54 697.46 979.54 697.46 977.12 710.07 977.12 710.07 979.54"/><g class="cls-4"><path class="cls-2" d="M722.25,980.63a8,8,0,0,0-4.38-1.36c-2.08,0-3.51.92-3.51,2.36s1.21,1.82,3.24,2.11l1.08.15c2.53.35,5,1.41,5,4.35,0,3.22-2.87,5-6.24,5a10,10,0,0,1-6.27-2.13l1.37-2a7.78,7.78,0,0,0,4.89,1.74c2,0,3.64-.88,3.64-2.34,0-1.24-1.22-1.82-3.51-2.14l-1.21-.17c-2.32-.33-4.62-1.44-4.62-4.38,0-3.18,2.77-4.94,6.14-4.94a9.67,9.67,0,0,1,5.63,1.71Z"/><path class="cls-2" d="M1266.86,941.8a1.86,1.86,0,0,0-3.71,0,1.8,1.8,0,0,0,.54,1.32,1.85,1.85,0,0,0,2.63,0,1.8,1.8,0,0,0,.55-1.32m-.27,0a1.56,1.56,0,0,1-.46,1.14,1.55,1.55,0,0,1-1.14.47,1.51,1.51,0,0,1-1.13-.47,1.6,1.6,0,1,1,2.72-1.14m-.9.26a.5.5,0,0,0-.35-.2.77.77,0,0,0,.29-.1.43.43,0,0,0,.2-.4.51.51,0,0,0-.32-.52,1.55,1.55,0,0,0-.55-.07h-.72v2h.36V942h.28a.91.91,0,0,1,.4.06.5.5,0,0,1,.19.47v.23a0,0,0,0,0,0,0v0h.34v0a1.07,1.07,0,0,1,0-.11v-.3a.58.58,0,0,0-.11-.31m-.41-.35a1.15,1.15,0,0,1-.35,0h-.32V941h.31a.92.92,0,0,1,.44.07.31.31,0,0,1,.14.3.32.32,0,0,1-.21.32"/><path class="cls-2" d="M1193.9,969.7h28.16v-5h-21.51v-7.38h14.21v-5h-14.21v-7.4h20.85v-5h-27.5Zm-34.08,0h29.11v-5h-22.57V939.9l-6.53,0Zm-4-21q0-4.86-3-6.82t-9.12-2h-18.24v29.67h6.65l0-12.3h11.61q6.07,0,9.12-1.86t3-6.73m-6.63,0a2.86,2.86,0,0,1-1.46,2.87,8.31,8.31,0,0,1-3.64.71h-12V945h12a7.19,7.19,0,0,1,3.64.85,3.1,3.1,0,0,1,1.46,2.94m-56.93,20.93h28.16v-5H1098.9v-7.35h14.21v-5H1098.9v-7.43h20.85v-5h-27.5Zm-49.33,0h6.61V939.91h-6.61Z"/><path class="cls-2" d="M1039.22,943.16a21.58,21.58,0,0,0-4.5-2.07,24.77,24.77,0,0,0-4.16-1.08,31.3,31.3,0,0,0-5.22-.48,27.45,27.45,0,0,0-7.17.95,19.54,19.54,0,0,0-6.2,2.88,15.11,15.11,0,0,0-4.35,4.76,12.93,12.93,0,0,0-1.65,6.63,13.1,13.1,0,0,0,1.65,6.65,15.4,15.4,0,0,0,4.28,4.8,17.49,17.49,0,0,0,6,2.8,26.92,26.92,0,0,0,6.81,1,30.49,30.49,0,0,0,6-.52,32.62,32.62,0,0,0,5-1.42s1.72-.71,3.73-1.78l-4-4a23.87,23.87,0,0,1-2.6,1.22,25.06,25.06,0,0,1-3.83,1.12,24.37,24.37,0,0,1-4.7.47,13.34,13.34,0,0,1-4.28-.71,11.57,11.57,0,0,1-3.76-2.1,10.81,10.81,0,0,1-2.66-3.31,9.23,9.23,0,0,1-1-4.36,9.89,9.89,0,0,1,.9-4.33,8.67,8.67,0,0,1,2.55-3.17,11.49,11.49,0,0,1,3.87-1.93,17.75,17.75,0,0,1,4.91-.64,27.54,27.54,0,0,1,4.71.37c.68.13,1.31.28,1.9.45a16.06,16.06,0,0,1,3.83,1.77Z"/></g><polygon class="cls-2" points="1225.1 939.9 1254.32 969.59 1262.42 969.59 1233.17 939.9 1225.1 939.9"/><polygon class="cls-2" points="1262.42 939.9 1233.19 969.59 1225.1 969.59 1254.35 939.9 1262.42 939.9"/><polygon class="cls-2" points="1087.2 969.63 1087.2 967.21 1087.2 939.84 1081.47 939.84 1081.47 961.38 1060.34 939.86 1060.34 939.84 1054.61 939.84 1054.61 969.63 1060.34 969.63 1060.34 948.15 1081.47 969.62 1081.47 969.63 1081.48 969.63 1087.2 969.63"/><g class="cls-4"><path class="cls-2" d="M1191.78,915.26c0-8.25-23.78-15-53.92-15.6l-.26,2.28c24.85.58,44.39,6.57,44.39,13.87,0,7.48-20.49,13.58-46.2,13.91l.18,1.16c31-.34,55.81-7.2,55.81-15.63"/><path class="cls-2" d="M1170.15,917.12c0,5.61-15.38,10.19-34.72,10.47l.18,1.15c22.53-.3,40.48-5.64,40.48-12.19,0-6.38-17-11.61-38.75-12.16l-.26,2.3c18.55.51,33.06,5,33.06,10.43"/><path class="cls-2" d="M1164.29,917.83c0-4.52-12-8.24-27.46-8.7l-.26,2.29c12.3.41,21.84,3.38,21.84,7s-10.33,6.81-23.35,7l.18,1.14c16.19-.24,29.05-4.06,29.05-8.74"/><path class="cls-2" d="M1075.4,915.26c0-8.25,23.78-15,53.92-15.6l.26,2.28c-24.85.58-44.39,6.57-44.39,13.87,0,7.48,20.49,13.58,46.2,13.91l-.18,1.16c-31-.34-55.81-7.2-55.81-15.63"/><path class="cls-2" d="M1097,917.12c0,5.61,15.38,10.19,34.72,10.47l-.18,1.15c-22.53-.3-40.48-5.64-40.48-12.19,0-6.38,17-11.61,38.75-12.16l.26,2.3c-18.55.51-33.06,5-33.06,10.43"/><path class="cls-2" d="M1102.88,917.83c0-4.52,12-8.24,27.46-8.7l.26,2.29c-12.3.41-21.84,3.38-21.84,7s10.33,6.81,23.35,7l-.18,1.14c-16.19-.24-29.05-4.06-29.05-8.74"/></g><polygon class="cls-2" points="1102.34 992.95 1090.97 992.95 1090.97 977.12 1102.19 977.12 1102.19 979.52 1093.49 979.52 1093.49 983.78 1101.89 983.78 1101.89 986.18 1093.49 986.18 1093.49 990.55 1102.34 990.55 1102.34 992.95"/><polygon class="cls-2" points="1113 992.95 1109.86 992.95 1103.91 977.12 1106.6 977.12 1111.45 990.36 1116.34 977.12 1118.94 977.12 1113 992.95"/><polygon class="cls-2" points="1132.31 992.95 1120.94 992.95 1120.94 977.12 1132.16 977.12 1132.16 979.52 1123.46 979.52 1123.46 983.78 1131.86 983.78 1131.86 986.18 1123.46 986.18 1123.46 990.55 1132.31 990.55 1132.31 992.95"/><polygon class="cls-2" points="1149.16 992.95 1146.89 992.95 1138.19 981.5 1138.18 992.95 1135.67 992.95 1135.67 977.12 1137.94 977.12 1146.64 988.57 1146.64 977.12 1149.16 977.12 1149.16 992.95"/><polygon class="cls-2" points="1163.85 979.54 1158.81 979.54 1158.81 992.95 1156.29 992.95 1156.29 979.54 1151.25 979.54 1151.25 977.12 1163.85 977.12 1163.85 979.54"/><g class="cls-4"><path class="cls-2" d="M1176,980.63a8,8,0,0,0-4.38-1.36c-2.08,0-3.51.92-3.51,2.36s1.21,1.82,3.24,2.11l1.08.15c2.53.35,5,1.41,5,4.35,0,3.22-2.87,5-6.24,5a10,10,0,0,1-6.27-2.13l1.37-2a7.78,7.78,0,0,0,4.89,1.74c2,0,3.64-.88,3.64-2.34,0-1.24-1.22-1.82-3.51-2.14l-1.21-.17c-2.32-.33-4.62-1.44-4.62-4.38,0-3.18,2.77-4.94,6.14-4.94a9.67,9.67,0,0,1,5.63,1.71Z"/><path class="cls-2" d="M359.29,941.8a1.86,1.86,0,0,0-3.71,0,1.81,1.81,0,0,0,.54,1.32,1.85,1.85,0,0,0,2.63,0,1.8,1.8,0,0,0,.55-1.32m-.27,0a1.56,1.56,0,0,1-.46,1.14,1.55,1.55,0,0,1-1.14.47,1.51,1.51,0,0,1-1.13-.47A1.6,1.6,0,1,1,359,941.8m-.9.26a.5.5,0,0,0-.35-.2.77.77,0,0,0,.29-.1.43.43,0,0,0,.2-.4.51.51,0,0,0-.32-.52,1.55,1.55,0,0,0-.55-.07h-.72v2H357V942h.28a.91.91,0,0,1,.4.06.5.5,0,0,1,.19.47v.23a0,0,0,0,0,0,0v0h.34v0a.67.67,0,0,1,0-.11v-.3a.58.58,0,0,0-.11-.31m-.41-.35a1.14,1.14,0,0,1-.35,0H357V941h.31a.92.92,0,0,1,.44.07.31.31,0,0,1,.14.3.32.32,0,0,1-.21.32"/><path class="cls-2" d="M286.33,969.7h28.16v-5H293v-7.38h14.21v-5H293v-7.4h20.85v-5h-27.5Zm-34.08,0h29.11v-5H258.79V939.9l-6.53,0Zm-4-21q0-4.86-3-6.82t-9.12-2H217.86v29.67h6.65l0-12.3H236.1q6.07,0,9.12-1.86t3-6.73m-6.63,0a2.86,2.86,0,0,1-1.46,2.87,8.31,8.31,0,0,1-3.64.71h-12V945h12a7.19,7.19,0,0,1,3.64.85,3.1,3.1,0,0,1,1.46,2.94M184.69,969.7h28.16v-5H191.34v-7.35h14.21v-5H191.34v-7.43h20.85v-5h-27.5Zm-49.33,0H142V939.91h-6.61Z"/><path class="cls-2" d="M131.66,943.16a21.58,21.58,0,0,0-4.5-2.07A24.77,24.77,0,0,0,123,940a31.3,31.3,0,0,0-5.22-.48,27.45,27.45,0,0,0-7.17.95,19.54,19.54,0,0,0-6.2,2.88,15.11,15.11,0,0,0-4.35,4.76,12.93,12.93,0,0,0-1.65,6.63,13.1,13.1,0,0,0,1.65,6.65,15.4,15.4,0,0,0,4.28,4.8,17.49,17.49,0,0,0,6,2.8,26.92,26.92,0,0,0,6.81,1,30.49,30.49,0,0,0,6-.52,32.62,32.62,0,0,0,5-1.42s1.72-.71,3.73-1.78l-4-4a23.86,23.86,0,0,1-2.6,1.22,25.06,25.06,0,0,1-3.83,1.12,24.37,24.37,0,0,1-4.7.47,13.34,13.34,0,0,1-4.28-.71,11.57,11.57,0,0,1-3.76-2.1A10.81,10.81,0,0,1,106,959a9.23,9.23,0,0,1-1-4.36,9.87,9.87,0,0,1,.9-4.33,8.67,8.67,0,0,1,2.55-3.17,11.49,11.49,0,0,1,3.87-1.93,17.75,17.75,0,0,1,4.91-.64,27.54,27.54,0,0,1,4.71.37c.68.13,1.31.28,1.9.45a16.06,16.06,0,0,1,3.83,1.77Z"/></g><polygon class="cls-2" points="317.53 939.9 346.75 969.59 354.85 969.59 325.6 939.9 317.53 939.9"/><polygon class="cls-2" points="354.85 939.9 325.62 969.59 317.53 969.59 346.78 939.9 354.85 939.9"/><polygon class="cls-2" points="179.63 969.63 179.63 967.21 179.63 939.84 173.9 939.84 173.9 961.38 152.77 939.86 152.77 939.84 147.04 939.84 147.04 969.63 152.77 969.63 152.77 948.15 173.9 969.62 173.9 969.63 173.91 969.63 179.63 969.63"/><g class="cls-4"><path class="cls-2" d="M284.21,915.26c0-8.25-23.78-15-53.92-15.6l-.26,2.28c24.85.58,44.39,6.57,44.39,13.87,0,7.48-20.49,13.58-46.2,13.91l.18,1.16c31-.34,55.81-7.2,55.81-15.63"/><path class="cls-2" d="M262.58,917.12c0,5.61-15.38,10.19-34.72,10.47l.18,1.15c22.53-.3,40.48-5.64,40.48-12.19,0-6.38-17-11.61-38.75-12.16l-.26,2.3c18.55.51,33.06,5,33.06,10.43"/><path class="cls-2" d="M256.73,917.83c0-4.52-12-8.24-27.46-8.7l-.26,2.29c12.3.41,21.84,3.38,21.84,7s-10.33,6.81-23.35,7l.18,1.14c16.19-.24,29.05-4.06,29.05-8.74"/><path class="cls-2" d="M167.83,915.26c0-8.25,23.78-15,53.92-15.6l.26,2.28c-24.85.58-44.39,6.57-44.39,13.87,0,7.48,20.49,13.58,46.2,13.91l-.18,1.16c-31-.34-55.81-7.2-55.81-15.63"/><path class="cls-2" d="M189.46,917.12c0,5.61,15.38,10.19,34.72,10.47l-.18,1.15c-22.53-.3-40.48-5.64-40.48-12.19,0-6.38,17-11.61,38.75-12.16l.26,2.3c-18.55.51-33.06,5-33.06,10.43"/><path class="cls-2" d="M195.31,917.83c0-4.52,12-8.24,27.46-8.7l.26,2.29c-12.3.41-21.84,3.38-21.84,7s10.33,6.81,23.35,7l-.18,1.14c-16.19-.24-29.05-4.06-29.05-8.74"/></g><polygon class="cls-2" points="194.77 992.95 183.41 992.95 183.41 977.12 194.63 977.12 194.63 979.52 185.92 979.52 185.92 983.78 194.33 983.78 194.33 986.18 185.92 986.18 185.92 990.55 194.77 990.55 194.77 992.95"/><polygon class="cls-2" points="205.43 992.95 202.29 992.95 196.35 977.12 199.03 977.12 203.88 990.36 208.77 977.12 211.38 977.12 205.43 992.95"/><polygon class="cls-2" points="224.74 992.95 213.38 992.95 213.38 977.12 224.6 977.12 224.6 979.52 215.89 979.52 215.89 983.78 224.3 983.78 224.3 986.18 215.89 986.18 215.89 990.55 224.74 990.55 224.74 992.95"/><polygon class="cls-2" points="241.59 992.95 239.32 992.95 230.63 981.5 230.62 992.95 228.1 992.95 228.1 977.12 230.37 977.12 239.08 988.57 239.08 977.12 241.59 977.12 241.59 992.95"/><polygon class="cls-2" points="256.28 979.54 251.24 979.54 251.24 992.95 248.72 992.95 248.72 979.54 243.68 979.54 243.68 977.12 256.28 977.12 256.28 979.54"/><g class="cls-4"><path class="cls-2" d="M268.47,980.63a8,8,0,0,0-4.38-1.36c-2.08,0-3.51.92-3.51,2.36s1.21,1.82,3.24,2.11l1.08.15c2.53.35,5,1.41,5,4.35,0,3.22-2.87,5-6.24,5a10,10,0,0,1-6.27-2.13l1.37-2a7.78,7.78,0,0,0,4.89,1.74c2,0,3.64-.88,3.64-2.34,0-1.24-1.22-1.82-3.51-2.14l-1.21-.17c-2.32-.33-4.62-1.44-4.62-4.38,0-3.18,2.77-4.94,6.14-4.94a9.67,9.67,0,0,1,5.63,1.71Z"/></g></g></svg>