<svg id="Layer_1" data-name="Layer 1" xmlns="http://www.w3.org/2000/svg" xmlns:xlink="http://www.w3.org/1999/xlink" viewBox="0 0 1365 1080"><defs><style>.cls-1,.cls-6{fill:none;}.cls-2,.cls-7{fill:#00599c;}.cls-3{clip-path:url(#clip-path);}.cls-4{fill:#fff;}.cls-5{fill:#67ccf2;}.cls-6{stroke:#929497;stroke-width:0.5px;}.cls-7{font-size:20.34px;font-family:MarkOT-Heavy, Mark OT;}.cls-8{letter-spacing:-0.08em;}.cls-9{letter-spacing:-0.07em;}.cls-10{letter-spacing:-0.01em;}.cls-11{letter-spacing:-0.01em;}.cls-12{letter-spacing:-0.01em;}.cls-13{font-size:12.71px;font-family:MarkOT-Medium, Mark OT;}.cls-13,.cls-23,.cls-60{fill:#6d6e70;}.cls-14{letter-spacing:-0.01em;}.cls-15{letter-spacing:0em;}.cls-16{letter-spacing:-0.02em;}.cls-17{letter-spacing:0em;}.cls-18{letter-spacing:0.02em;}.cls-19{letter-spacing:-0.01em;}.cls-20{letter-spacing:0em;}.cls-21{letter-spacing:0em;}.cls-22{letter-spacing:-0.02em;}.cls-23{font-size:11.87px;font-family:MarkOT-Book, Mark OT;}.cls-24{letter-spacing:-0.01em;}.cls-25{letter-spacing:-0.02em;}.cls-26{letter-spacing:-0.08em;}.cls-27{letter-spacing:0em;}.cls-28{letter-spacing:-0.01em;}.cls-29{letter-spacing:0em;}.cls-30{letter-spacing:-0.02em;}.cls-31{letter-spacing:0em;}.cls-32{letter-spacing:-0.08em;}.cls-33{letter-spacing:-0.02em;}.cls-34{letter-spacing:-0.01em;}.cls-35{letter-spacing:-0.01em;}.cls-36{letter-spacing:-0.02em;}.cls-37{letter-spacing:0em;}.cls-38{letter-spacing:-0.04em;}.cls-39{letter-spacing:0em;}.cls-40{letter-spacing:-0.01em;}.cls-41{letter-spacing:-0.06em;}.cls-42{letter-spacing:0.01em;}.cls-43{letter-spacing:-0.01em;}.cls-44{letter-spacing:0em;}.cls-45{letter-spacing:0.01em;}.cls-46{letter-spacing:-0.02em;}.cls-47{letter-spacing:0em;}.cls-48{letter-spacing:0.02em;}.cls-49{letter-spacing:-0.01em;}.cls-50{letter-spacing:-0.02em;}.cls-51{letter-spacing:0.02em;}.cls-52{letter-spacing:0.01em;}.cls-53{fill:#d30c55;}.cls-54{fill:#00aa4e;}.cls-55{fill:#00b4ae;}.cls-56{fill:#231f20;}.cls-57{fill:#ffca05;}.cls-58{fill:#f26f21;}.cls-59{clip-path:url(#clip-path-5);}.cls-61{fill:#d91a32;}.cls-62{fill:#bd0075;}</style><clipPath id="clip-path"><rect class="cls-1" y="2.75" width="1350" height="1060.75"/></clipPath><clipPath id="clip-path-5"><rect class="cls-1" x="244.64" y="159.59" width="168.63" height="81.61"/></clipPath></defs><title>bc-homeoffice</title><rect class="cls-2" x="922.82" y="556.43" width="427.18" height="244.1"/><g class="cls-3"><path class="cls-4" d="M1267.81,685.44a1.84,1.84,0,0,0-3.69,0,1.8,1.8,0,0,0,.53,1.31,1.84,1.84,0,0,0,2.61,0,1.8,1.8,0,0,0,.54-1.31m-.26,0A1.58,1.58,0,0,1,1266,687a1.51,1.51,0,0,1-1.12-.47,1.59,1.59,0,1,1,2.71-1.13m-.89.26a.49.49,0,0,0-.35-.2.73.73,0,0,0,.29-.1.43.43,0,0,0,.2-.4.51.51,0,0,0-.32-.52,1.58,1.58,0,0,0-.55-.07h-.72v2h.36v-.8h.28a.9.9,0,0,1,.4.06c.13.08.19.23.19.46v.23a0,0,0,0,0,0,0v0h.34v0a.66.66,0,0,1,0-.11V686a.58.58,0,0,0-.11-.31m-.41-.35a1.13,1.13,0,0,1-.35,0h-.32v-.73h.3a.89.89,0,0,1,.44.08.31.31,0,0,1,.13.3.32.32,0,0,1-.21.32"/><path class="cls-4" d="M1195.3,713.16h28v-5h-21.38v-7.34H1216v-5h-14.12v-7.35h20.72v-5H1195.3Zm-33.87,0h28.93v-5h-22.44v-24.7l-6.5,0Zm-4-20.83q0-4.83-3-6.78t-9.06-1.95h-18.13v29.49h6.61l0-12.22h11.54q6,0,9.06-1.85c2-1.23,3-3.46,3-6.69m-6.59,0a2.84,2.84,0,0,1-1.45,2.86,8.27,8.27,0,0,1-3.62.71h-12v-7.32h12a7.14,7.14,0,0,1,3.62.84,3.08,3.08,0,0,1,1.45,2.92m-56.58,20.8h28v-5h-21.38V700.9H1115v-5h-14.12v-7.38h20.72v-5h-27.33Zm-49,0h6.57v-29.6h-6.57Z"/><path class="cls-4" d="M1041.58,686.79a21.41,21.41,0,0,0-4.48-2.06,24.5,24.5,0,0,0-4.14-1.08,31.28,31.28,0,0,0-5.19-.47,27.33,27.33,0,0,0-7.12.94,19.48,19.48,0,0,0-6.16,2.86,15,15,0,0,0-4.32,4.73,12.85,12.85,0,0,0-1.64,6.59,13,13,0,0,0,1.64,6.61,15.25,15.25,0,0,0,4.25,4.77,17.34,17.34,0,0,0,6,2.79,26.73,26.73,0,0,0,6.77.95,30.25,30.25,0,0,0,5.93-.51,32.34,32.34,0,0,0,4.95-1.41s1.71-.7,3.71-1.77l-3.93-3.94a23.9,23.9,0,0,1-2.58,1.21,25.2,25.2,0,0,1-3.81,1.11,24.19,24.19,0,0,1-4.68.47,13.27,13.27,0,0,1-4.25-.7,11.49,11.49,0,0,1-3.73-2.08,10.72,10.72,0,0,1-2.65-3.29,9.16,9.16,0,0,1-1-4.33,9.8,9.8,0,0,1,.9-4.3,8.59,8.59,0,0,1,2.53-3.15,11.41,11.41,0,0,1,3.85-1.92,17.62,17.62,0,0,1,4.88-.64,27.23,27.23,0,0,1,4.68.37c.68.13,1.3.28,1.89.45a16,16,0,0,1,3.81,1.76Z"/></g><polygon class="cls-4" points="1226.31 683.55 1255.35 713.05 1263.4 713.05 1234.33 683.55 1226.31 683.55"/><polygon class="cls-4" points="1263.4 683.55 1234.35 713.05 1226.3 713.05 1255.38 683.55 1263.4 683.55"/><polygon class="cls-4" points="1089.26 713.1 1089.26 710.7 1089.26 683.49 1083.56 683.49 1083.56 704.9 1062.56 683.51 1062.56 683.49 1056.87 683.49 1056.87 713.1 1062.56 713.1 1062.56 691.75 1083.56 713.09 1083.56 713.1 1083.57 713.1 1089.26 713.1"/><g class="cls-3"><path class="cls-4" d="M1193.89,659.06c0-8.2-23.63-14.92-53.59-15.5l-.25,2.27c24.7.58,44.12,6.53,44.12,13.79,0,7.43-20.37,13.5-45.92,13.82l.18,1.16c30.84-.33,55.47-7.16,55.47-15.53"/><path class="cls-4" d="M1172.4,660.91c0,5.58-15.29,10.13-34.51,10.4l.18,1.15c22.4-.3,40.23-5.61,40.23-12.12,0-6.34-16.93-11.54-38.51-12.08l-.26,2.28c18.44.5,32.86,5,32.86,10.37"/><path class="cls-4" d="M1166.58,661.62c0-4.49-12-8.19-27.3-8.65l-.26,2.28c12.22.41,21.7,3.36,21.7,6.93s-10.26,6.76-23.2,7l.18,1.14c16.09-.24,28.87-4,28.87-8.68"/><path class="cls-4" d="M1078.23,659.06c0-8.2,23.63-14.92,53.59-15.5l.25,2.27c-24.7.58-44.12,6.53-44.12,13.79,0,7.43,20.37,13.5,45.92,13.82l-.18,1.16c-30.84-.33-55.47-7.16-55.47-15.53"/><path class="cls-4" d="M1099.73,660.91c0,5.58,15.29,10.13,34.51,10.4l-.18,1.15c-22.39-.3-40.23-5.61-40.23-12.12,0-6.34,16.93-11.54,38.51-12.08l.26,2.28c-18.44.5-32.86,5-32.86,10.37"/><path class="cls-4" d="M1105.54,661.62c0-4.49,12-8.19,27.3-8.65l.26,2.28c-12.22.41-21.7,3.36-21.7,6.93s10.26,6.76,23.2,7l-.18,1.14c-16.09-.24-28.87-4-28.87-8.68"/></g><rect class="cls-5" x="15.26" y="285.73" width="427.18" height="244.1"/><g class="cls-3"><path class="cls-4" d="M358.49,414.73a1.84,1.84,0,0,0-3.69,0,1.8,1.8,0,0,0,.53,1.31,1.84,1.84,0,0,0,2.61,0,1.8,1.8,0,0,0,.54-1.31m-.26,0a1.58,1.58,0,0,1-1.59,1.6,1.51,1.51,0,0,1-1.12-.47,1.59,1.59,0,1,1,2.71-1.13m-.89.26a.49.49,0,0,0-.35-.2.73.73,0,0,0,.29-.1.43.43,0,0,0,.2-.4.51.51,0,0,0-.32-.52,1.58,1.58,0,0,0-.55-.07h-.72v2h.36v-.8h.28a.9.9,0,0,1,.4.06c.13.08.19.23.19.46v.23a0,0,0,0,0,0,0v0h.34v0a.67.67,0,0,1,0-.11v-.3a.58.58,0,0,0-.11-.31m-.41-.35a1.13,1.13,0,0,1-.35,0h-.32V414h.31a.88.88,0,0,1,.44.08.31.31,0,0,1,.13.3.32.32,0,0,1-.21.32"/><path class="cls-4" d="M286,442.46h28v-5H292.58v-7.34h14.12v-5H292.58v-7.35h20.72v-5H286Zm-33.87,0H281v-5H258.6v-24.7l-6.49,0Zm-4-20.83q0-4.83-3-6.78t-9.06-1.95H217.93v29.49h6.61l0-12.22h11.54q6,0,9.06-1.85c2-1.23,3-3.46,3-6.69m-6.59,0a2.84,2.84,0,0,1-1.45,2.86,8.28,8.28,0,0,1-3.62.71h-12V417.9h12a7.15,7.15,0,0,1,3.62.84,3.08,3.08,0,0,1,1.45,2.92M185,442.46h28v-5H191.57v-7.31h14.12v-5H191.57v-7.38h20.72v-5H185Zm-49,0h6.57v-29.6h-6.57Z"/><path class="cls-4" d="M132.25,416.08a21.41,21.41,0,0,0-4.48-2.06,24.51,24.51,0,0,0-4.14-1.08,31.28,31.28,0,0,0-5.19-.47,27.33,27.33,0,0,0-7.12.94,19.48,19.48,0,0,0-6.16,2.86,15,15,0,0,0-4.32,4.73,12.85,12.85,0,0,0-1.64,6.59,13,13,0,0,0,1.64,6.61A15.25,15.25,0,0,0,105.1,439a17.34,17.34,0,0,0,6,2.79,26.73,26.73,0,0,0,6.77.95,30.25,30.25,0,0,0,5.93-.51,32.34,32.34,0,0,0,4.95-1.41s1.71-.7,3.71-1.77l-3.93-3.94a23.91,23.91,0,0,1-2.58,1.21,25.2,25.2,0,0,1-3.81,1.11,24.19,24.19,0,0,1-4.68.47,13.27,13.27,0,0,1-4.25-.7,11.49,11.49,0,0,1-3.73-2.08,10.72,10.72,0,0,1-2.65-3.29,9.16,9.16,0,0,1-1-4.33,9.8,9.8,0,0,1,.9-4.3,8.59,8.59,0,0,1,2.53-3.15,11.41,11.41,0,0,1,3.85-1.92,17.62,17.62,0,0,1,4.88-.64,27.23,27.23,0,0,1,4.68.37c.68.13,1.3.28,1.89.45a16,16,0,0,1,3.81,1.76Z"/></g><polygon class="cls-4" points="316.98 412.84 346.03 442.35 354.07 442.35 325 412.84 316.98 412.84"/><polygon class="cls-4" points="354.07 412.84 325.03 442.35 316.98 442.35 346.05 412.84 354.07 412.84"/><polygon class="cls-4" points="179.94 442.39 179.94 439.99 179.94 412.79 174.24 412.79 174.24 434.19 153.24 412.8 153.24 412.79 147.54 412.79 147.54 442.39 153.24 442.39 153.24 421.04 174.24 442.38 174.24 442.39 174.25 442.39 179.94 442.39"/><g class="cls-3"><path class="cls-4" d="M284.57,388.35c0-8.2-23.63-14.92-53.59-15.5l-.25,2.27c24.7.58,44.12,6.53,44.12,13.79,0,7.43-20.37,13.5-45.92,13.82l.18,1.16c30.84-.33,55.47-7.16,55.47-15.53"/><path class="cls-4" d="M263.07,390.2c0,5.58-15.29,10.13-34.51,10.4l.18,1.15c22.4-.3,40.23-5.61,40.23-12.12,0-6.34-16.93-11.54-38.51-12.08l-.26,2.28c18.44.5,32.86,5,32.86,10.37"/><path class="cls-4" d="M257.26,390.91c0-4.49-12-8.19-27.3-8.65l-.26,2.28c12.22.41,21.7,3.36,21.7,6.93s-10.26,6.76-23.2,7l.18,1.14c16.09-.24,28.87-4,28.87-8.68"/><path class="cls-4" d="M168.91,388.35c0-8.2,23.63-14.92,53.59-15.5l.25,2.27c-24.7.58-44.12,6.53-44.12,13.79,0,7.43,20.37,13.5,45.92,13.82l-.18,1.16c-30.84-.33-55.47-7.16-55.47-15.53"/><path class="cls-4" d="M190.4,390.2c0,5.58,15.29,10.13,34.51,10.4l-.18,1.15c-22.4-.3-40.23-5.61-40.23-12.12,0-6.34,16.93-11.54,38.51-12.08l.26,2.28c-18.44.5-32.86,5-32.86,10.37"/><path class="cls-4" d="M196.22,390.91c0-4.49,12-8.19,27.3-8.65l.26,2.28c-12.22.41-21.7,3.36-21.7,6.93s10.26,6.76,23.2,7l-.18,1.14c-16.09-.24-28.87-4-28.87-8.68"/></g><rect class="cls-6" x="15.68" y="15.44" width="426.33" height="243.25"/><rect class="cls-6" x="15.68" y="15.44" width="426.33" height="243.25"/><text class="cls-7" transform="translate(46.27 61.6)"><tspan class="cls-8">P</tspan><tspan class="cls-9" x="11.85" y="0">A</tspan><tspan class="cls-10" x="25.57" y="0">T</tspan><tspan x="37.68" y="0" xml:space="preserve"> MA</tspan><tspan class="cls-11" x="76.16" y="0">R</tspan><tspan x="89.76" y="0">SHAL</tspan><tspan class="cls-12" x="146.23" y="0">L</tspan><tspan x="158.15" y="0"> </tspan></text><text class="cls-13" transform="translate(46.27 76.18)">Vi<tspan class="cls-14" x="12.38" y="0">c</tspan><tspan class="cls-15" x="18.8" y="0">e P</tspan><tspan class="cls-16" x="37.77" y="0">r</tspan><tspan x="42.98" y="0">eside</tspan><tspan class="cls-17" x="75" y="0">n</tspan><tspan class="cls-18" x="82.64" y="0">t</tspan><tspan x="88.73" y="0">, </tspan><tspan class="cls-14" x="95.37" y="0">C</tspan><tspan x="104.99" y="0">ommuni</tspan><tspan class="cls-19" x="155.49" y="0">c</tspan><tspan class="cls-20" x="161.9" y="0">ations </tspan></text><text class="cls-13" transform="translate(46.27 89.74)">&amp; I<tspan class="cls-14" x="16.53" y="0">n</tspan><tspan class="cls-21" x="24.1" y="0">v</tspan><tspan x="30.8" y="0">esto</tspan><tspan class="cls-14" x="57.88" y="0">r</tspan><tspan x="63.22" y="0"> </tspan><tspan class="cls-22" x="66.66" y="0">R</tspan><tspan x="75.16" y="0">elations</tspan></text><text class="cls-23" transform="translate(46.27 142.58)">13<tspan class="cls-24" x="11.64" y="0">0</tspan><tspan x="19.97" y="0">3</tspan><tspan class="cls-25" x="26.62" y="0"> </tspan><tspan class="cls-26" x="29.54" y="0">Y</tspan><tspan x="36.33" y="0">onge</tspan><tspan class="cls-27" x="64.62" y="0"> </tspan><tspan class="cls-28" x="67.81" y="0">S</tspan><tspan class="cls-29" x="75.72" y="0">t</tspan><tspan class="cls-30" x="81.1" y="0">r</tspan><tspan class="cls-29" x="85.85" y="0">e</tspan><tspan class="cls-31" x="92.5" y="0">e</tspan><tspan class="cls-29" x="99.1" y="0">t</tspan></text><text class="cls-23" transform="translate(46.27 156.98)"><tspan class="cls-32">T</tspan><tspan x="6.24" y="0">o</tspan><tspan class="cls-33" x="13.4" y="0">r</tspan><tspan x="18.14" y="0">o</tspan><tspan class="cls-34" x="25.3" y="0">n</tspan><tspan x="32.39" y="0">t</tspan><tspan class="cls-35" x="37.77" y="0">o</tspan><tspan x="44.85" y="0">, ON, M4</tspan><tspan class="cls-36" x="94.47" y="0">T</tspan><tspan class="cls-37" x="101.46" y="0" xml:space="preserve"> 2Y</tspan><tspan class="cls-38" x="118.88" y="0">9</tspan><tspan x="125.26" y="0">, </tspan><tspan class="cls-28" x="131.38" y="0">C</tspan><tspan x="140.38" y="0">anada</tspan></text><text class="cls-23" transform="translate(46.27 185.81)">P:<tspan class="cls-39" x="10.99" y="0"> </tspan><tspan class="cls-40" x="14.17" y="0">4</tspan><tspan x="20.87" y="0">16</tspan><tspan class="cls-41" x="32.74" y="0">.</tspan><tspan x="35.15" y="0">123</tspan><tspan class="cls-42" x="53.33" y="0">.</tspan><tspan class="cls-29" x="56.55" y="0">45</tspan><tspan class="cls-43" x="70.26" y="0">6</tspan><tspan x="76.97" y="0">7</tspan><tspan class="cls-44" x="83.47" y="0"> </tspan><tspan x="86.61" y="0">x0000</tspan></text><text class="cls-23" transform="translate(46.27 200.21)">C: 123<tspan class="cls-45" x="33.54" y="0">.</tspan><tspan class="cls-29" x="36.78" y="0">456</tspan><tspan class="cls-46" x="57.37" y="0">.</tspan><tspan class="cls-47" x="60.27" y="0">7</tspan><tspan class="cls-29" x="66.75" y="0">890</tspan></text><text class="cls-23" transform="translate(46.27 214.62)"><tspan class="cls-36">P</tspan><tspan x="7.68" y="0">a</tspan><tspan class="cls-48" x="15.09" y="0">t</tspan><tspan x="20.73" y="0">.Ma</tspan><tspan class="cls-49" x="42.37" y="0">r</tspan><tspan x="47.25" y="0">shall@Cinepl</tspan><tspan class="cls-50" x="121.78" y="0">e</tspan><tspan class="cls-51" x="128.25" y="0">x</tspan><tspan class="cls-28" x="134.54" y="0">.</tspan><tspan class="cls-49" x="137.57" y="0">c</tspan><tspan x="143.56" y="0">om</tspan></text><text class="cls-23" transform="translate(46.27 229.02)">Cinepl<tspan class="cls-36" x="36.31" y="0">e</tspan><tspan class="cls-52" x="42.78" y="0">x</tspan><tspan class="cls-28" x="49.05" y="0">.</tspan><tspan class="cls-49" x="52.08" y="0">c</tspan><tspan x="58.07" y="0">om</tspan></text><rect class="cls-6" x="15.68" y="15.04" width="426.33" height="243.25"/><rect class="cls-53" x="469.04" y="15.04" width="427.18" height="244.1"/><rect class="cls-54" x="15.26" y="556.43" width="427.18" height="244.1"/><rect class="cls-55" x="469.04" y="285.73" width="427.18" height="244.1"/><rect class="cls-56" x="469.04" y="556.43" width="427.18" height="244.1"/><rect class="cls-57" x="922.82" y="285.73" width="427.18" height="244.1"/><rect class="cls-58" x="922.82" y="15.04" width="427.18" height="244.1"/><g class="cls-59"><path class="cls-2" d="M410.88,214.25l-.18,0h-.16v-.37h.16a.47.47,0,0,1,.22,0,.16.16,0,0,1,.07.15.16.16,0,0,1-.11.16m.21.18a.25.25,0,0,0-.18-.1.39.39,0,0,0,.15-.05.22.22,0,0,0,.1-.21.26.26,0,0,0-.16-.26.8.8,0,0,0-.28,0h-.37v1h.18v-.41h.14a.47.47,0,0,1,.21,0c.07,0,.1.12.1.24v.12h.17a.22.22,0,0,1,0-.05v-.15a.31.31,0,0,0-.06-.16m.46-.13a.81.81,0,0,1-.81.82.82.82,0,0,1-.81-.82.79.79,0,0,1,.24-.58.78.78,0,0,1,.57-.24.81.81,0,0,1,.81.82m.14,0a.95.95,0,0,0-1.89,0,.95.95,0,1,0,1.89,0"/><path class="cls-2" d="M297.5,228.51h3.37V213.33H297.5Zm25.15,0H337V226H326v-3.75h7.25v-2.54H326v-3.79h10.63v-2.56h-14Zm29-10.67a1.46,1.46,0,0,1-.74,1.47,4.24,4.24,0,0,1-1.85.36H343v-3.76h6.14a3.67,3.67,0,0,1,1.85.43,1.58,1.58,0,0,1,.74,1.5m3.38,0a3.81,3.81,0,0,0-1.55-3.48,8.68,8.68,0,0,0-4.65-1h-9.3v15.13H343v-6.27h5.92a9.08,9.08,0,0,0,4.65-.95,3.69,3.69,0,0,0,1.55-3.43m2,10.69h14.84V226H360.44V213.32h-3.33Zm17.38,0h14.36V226h-11v-3.76h7.25v-2.54h-7.25v-3.77H388.5v-2.56h-14Z"/><path class="cls-2" d="M295.61,215a11,11,0,0,0-2.3-1.06,12.83,12.83,0,0,0-2.12-.55,16,16,0,0,0-2.66-.24,14.06,14.06,0,0,0-3.66.48,10,10,0,0,0-3.16,1.47,7.67,7.67,0,0,0-2.22,2.43,6.58,6.58,0,0,0-.84,3.38,6.67,6.67,0,0,0,.84,3.39,7.81,7.81,0,0,0,2.18,2.45,8.86,8.86,0,0,0,3.06,1.43,13.67,13.67,0,0,0,3.47.49,15.49,15.49,0,0,0,3-.26,16.66,16.66,0,0,0,2.54-.72s.88-.36,1.9-.91l-2-2a12.19,12.19,0,0,1-1.33.62,12.75,12.75,0,0,1-2,.57,12.34,12.34,0,0,1-2.4.24,6.79,6.79,0,0,1-2.18-.36,5.89,5.89,0,0,1-1.92-1.07,5.49,5.49,0,0,1-1.36-1.69,4.69,4.69,0,0,1-.52-2.22,5,5,0,0,1,.46-2.21,4.41,4.41,0,0,1,1.3-1.62,5.81,5.81,0,0,1,2-1,9,9,0,0,1,2.5-.33,14.11,14.11,0,0,1,2.4.19c.35.07.67.15,1,.23a8.23,8.23,0,0,1,2,.9Z"/><polygon class="cls-2" points="390.39 213.32 405.29 228.46 409.42 228.46 394.51 213.32 390.39 213.32"/><polygon class="cls-2" points="409.42 213.32 394.52 228.46 390.39 228.46 405.31 213.32 409.42 213.32"/><polygon class="cls-2" points="320.08 228.48 320.08 227.25 320.08 213.29 317.15 213.29 317.15 224.27 306.38 213.3 306.38 213.29 303.46 213.29 303.46 228.48 306.38 228.48 306.38 217.53 317.15 228.47 317.15 228.48 317.16 228.48 320.08 228.48"/><path class="cls-57" d="M373.4,200.76c0-4.21-12.12-7.66-27.5-8l-.13,1.16c12.67.3,22.64,3.35,22.64,7.07S358,208,344.85,208.13l.09.59c15.82-.17,28.46-3.67,28.46-8"/><path class="cls-57" d="M362.37,201.7c0,2.86-7.85,5.2-17.7,5.34l.09.59c11.49-.15,20.64-2.88,20.64-6.22s-8.69-5.92-19.76-6.2l-.13,1.17c9.46.26,16.86,2.54,16.86,5.32"/><path class="cls-57" d="M359.39,202.07c0-2.31-6.14-4.2-14-4.44l-.13,1.17c6.27.21,11.14,1.72,11.14,3.56s-5.27,3.47-11.91,3.58l.09.58c8.25-.12,14.81-2.07,14.81-4.45"/><path class="cls-57" d="M314.06,200.76c0-4.21,12.12-7.66,27.5-8l.13,1.16C329,194.26,319,197.31,319,201s10.45,6.92,23.56,7.09l-.09.59c-15.82-.17-28.46-3.67-28.46-8"/><path class="cls-57" d="M325.09,201.7c0,2.86,7.85,5.2,17.7,5.34l-.09.59c-11.49-.15-20.64-2.88-20.64-6.22s8.69-5.92,19.76-6.2l.13,1.17c-9.46.26-16.86,2.54-16.86,5.32"/><path class="cls-57" d="M328.07,202.07c0-2.31,6.13-4.2,14-4.44l.13,1.17c-6.27.21-11.14,1.72-11.14,3.56s5.27,3.47,11.91,3.58l-.09.58c-8.25-.12-14.81-2.07-14.81-4.45"/></g><g class="cls-3"><path class="cls-4" d="M812.27,144a1.84,1.84,0,0,0-3.69,0,1.8,1.8,0,0,0,.53,1.31,1.84,1.84,0,0,0,2.61,0,1.8,1.8,0,0,0,.54-1.31m-.26,0a1.58,1.58,0,0,1-1.59,1.6,1.51,1.51,0,0,1-1.12-.47A1.59,1.59,0,1,1,812,144m-.89.26a.49.49,0,0,0-.35-.2.73.73,0,0,0,.29-.1.43.43,0,0,0,.2-.4.51.51,0,0,0-.32-.52,1.58,1.58,0,0,0-.55-.07h-.72v2H810v-.8h.28a.9.9,0,0,1,.4.06c.13.08.19.23.19.46V145a0,0,0,0,0,0,0v0h.34v0a.67.67,0,0,1,0-.11v-.3a.58.58,0,0,0-.11-.31m-.41-.35a1.13,1.13,0,0,1-.35,0H810v-.73h.31a.89.89,0,0,1,.44.08.31.31,0,0,1,.13.3.32.32,0,0,1-.21.32"/><path class="cls-4" d="M739.76,171.76h28v-5H746.37v-7.34h14.12v-5H746.37v-7.35h20.72v-5H739.76Zm-33.87,0h28.93v-5H712.39v-24.7l-6.49,0Zm-4-20.83q0-4.83-3-6.78t-9.06-1.94H671.71v29.48h6.61l0-12.22h11.54q6,0,9.06-1.85c2-1.23,3-3.46,3-6.69m-6.59,0a2.84,2.84,0,0,1-1.45,2.86,8.28,8.28,0,0,1-3.62.71h-12v-7.32h12a7.15,7.15,0,0,1,3.62.84,3.08,3.08,0,0,1,1.45,2.92m-56.59,20.8h28v-5H645.35V159.5h14.13v-5H645.35v-7.38h20.72v-5H638.75Zm-49,0h6.57v-29.6h-6.57Z"/><path class="cls-4" d="M586,145.39a21.42,21.42,0,0,0-4.48-2.06,24.51,24.51,0,0,0-4.14-1.08,31.28,31.28,0,0,0-5.19-.47,27.33,27.33,0,0,0-7.12.94,19.48,19.48,0,0,0-6.16,2.86,15,15,0,0,0-4.32,4.73A12.85,12.85,0,0,0,553,156.9a13,13,0,0,0,1.64,6.61,15.25,15.25,0,0,0,4.25,4.77,17.31,17.31,0,0,0,6,2.79,26.73,26.73,0,0,0,6.77.95,30.24,30.24,0,0,0,5.93-.51,32.35,32.35,0,0,0,4.95-1.41s1.71-.7,3.71-1.77l-3.93-3.94a23.89,23.89,0,0,1-2.58,1.21,25.2,25.2,0,0,1-3.81,1.11,24.19,24.19,0,0,1-4.68.47,13.27,13.27,0,0,1-4.25-.7,11.49,11.49,0,0,1-3.73-2.08,10.72,10.72,0,0,1-2.65-3.29,9.16,9.16,0,0,1-1-4.33,9.8,9.8,0,0,1,.9-4.3,8.59,8.59,0,0,1,2.53-3.15,11.41,11.41,0,0,1,3.85-1.92,17.62,17.62,0,0,1,4.88-.64,27.24,27.24,0,0,1,4.68.37c.68.13,1.3.28,1.89.45a16,16,0,0,1,3.81,1.76Z"/></g><polygon class="cls-4" points="770.77 142.15 799.81 171.66 807.86 171.66 778.79 142.15 770.77 142.15"/><polygon class="cls-4" points="807.86 142.15 778.81 171.66 770.77 171.66 799.84 142.15 807.86 142.15"/><polygon class="cls-4" points="633.72 171.7 633.72 169.3 633.72 142.09 628.02 142.09 628.02 163.5 607.02 142.11 607.02 142.09 601.33 142.09 601.33 171.7 607.02 171.7 607.02 150.35 628.02 171.69 628.02 171.7 628.03 171.7 633.72 171.7"/><g class="cls-3"><path class="cls-4" d="M738.35,117.66c0-8.2-23.63-14.92-53.59-15.5l-.25,2.27c24.7.58,44.12,6.53,44.12,13.79,0,7.43-20.37,13.5-45.92,13.82l.18,1.16c30.84-.33,55.47-7.16,55.47-15.53"/><path class="cls-4" d="M716.86,119.51c0,5.58-15.29,10.13-34.51,10.4l.18,1.15c22.4-.3,40.23-5.61,40.23-12.12,0-6.34-16.93-11.54-38.51-12.08l-.26,2.28c18.44.5,32.86,5,32.86,10.37"/><path class="cls-4" d="M711,120.22c0-4.49-12-8.19-27.3-8.65l-.26,2.28c12.22.41,21.7,3.36,21.7,6.93s-10.26,6.76-23.2,7l.18,1.14c16.09-.24,28.87-4,28.87-8.68"/><path class="cls-4" d="M622.69,117.66c0-8.2,23.63-14.92,53.59-15.5l.25,2.27c-24.7.58-44.12,6.53-44.12,13.79,0,7.43,20.37,13.5,45.92,13.82l-.18,1.16c-30.84-.33-55.47-7.16-55.47-15.53"/><path class="cls-4" d="M644.19,119.51c0,5.58,15.29,10.13,34.51,10.4l-.18,1.15c-22.4-.3-40.23-5.61-40.23-12.12,0-6.34,16.93-11.54,38.51-12.08l.26,2.28c-18.44.5-32.86,5-32.86,10.37"/><path class="cls-4" d="M650,120.22c0-4.49,12-8.19,27.3-8.65l.26,2.28c-12.22.41-21.7,3.36-21.7,6.93s10.26,6.76,23.2,7l-.18,1.14c-16.09-.24-28.87-4-28.87-8.68"/><path class="cls-4" d="M1266.05,144a1.84,1.84,0,0,0-3.69,0,1.8,1.8,0,0,0,.53,1.31,1.84,1.84,0,0,0,2.61,0,1.8,1.8,0,0,0,.54-1.31m-.26,0a1.58,1.58,0,0,1-1.59,1.6,1.51,1.51,0,0,1-1.12-.47,1.59,1.59,0,1,1,2.71-1.13m-.89.26a.49.49,0,0,0-.35-.2.73.73,0,0,0,.29-.1.43.43,0,0,0,.2-.4.51.51,0,0,0-.32-.52,1.58,1.58,0,0,0-.55-.07h-.72v2h.36v-.8h.28a.9.9,0,0,1,.4.06c.13.08.19.23.19.46V145a0,0,0,0,0,0,0v0h.34v0a.66.66,0,0,1,0-.11v-.3a.58.58,0,0,0-.11-.31m-.41-.35a1.13,1.13,0,0,1-.35,0h-.32v-.73h.3a.89.89,0,0,1,.44.08.31.31,0,0,1,.13.3.32.32,0,0,1-.21.32"/><path class="cls-4" d="M1193.54,171.76h28v-5h-21.38v-7.34h14.12v-5h-14.12v-7.35h20.72v-5h-27.33Zm-33.87,0h28.93v-5h-22.44v-24.7l-6.49,0Zm-4-20.83q0-4.83-3-6.78t-9.06-1.94h-18.13v29.48h6.61l0-12.22h11.54q6,0,9.06-1.85c2-1.23,3-3.46,3-6.69m-6.59,0a2.84,2.84,0,0,1-1.45,2.86,8.28,8.28,0,0,1-3.62.71h-12v-7.32h12a7.15,7.15,0,0,1,3.62.84,3.08,3.08,0,0,1,1.45,2.92m-56.59,20.8h28v-5h-21.38V159.5h14.12v-5h-14.12v-7.38h20.72v-5h-27.33Zm-49,0h6.57v-29.6h-6.57Z"/><path class="cls-4" d="M1039.82,145.39a21.42,21.42,0,0,0-4.48-2.06,24.51,24.51,0,0,0-4.14-1.08,31.28,31.28,0,0,0-5.19-.47,27.33,27.33,0,0,0-7.12.94,19.48,19.48,0,0,0-6.16,2.86,15,15,0,0,0-4.32,4.73,12.85,12.85,0,0,0-1.64,6.59,13,13,0,0,0,1.64,6.61,15.25,15.25,0,0,0,4.25,4.77,17.31,17.31,0,0,0,6,2.79,26.74,26.74,0,0,0,6.77.95,30.25,30.25,0,0,0,5.93-.51,32.35,32.35,0,0,0,4.95-1.41s1.71-.7,3.71-1.77l-3.93-3.94a23.89,23.89,0,0,1-2.58,1.21,25.21,25.21,0,0,1-3.81,1.11,24.19,24.19,0,0,1-4.68.47,13.27,13.27,0,0,1-4.25-.7,11.49,11.49,0,0,1-3.73-2.08,10.72,10.72,0,0,1-2.65-3.29,9.16,9.16,0,0,1-1-4.33,9.8,9.8,0,0,1,.9-4.3,8.59,8.59,0,0,1,2.53-3.15,11.41,11.41,0,0,1,3.85-1.92,17.62,17.62,0,0,1,4.88-.64,27.24,27.24,0,0,1,4.68.37c.68.13,1.3.28,1.89.45a16,16,0,0,1,3.81,1.76Z"/></g><polygon class="cls-4" points="1224.55 142.15 1253.6 171.66 1261.64 171.66 1232.57 142.15 1224.55 142.15"/><polygon class="cls-4" points="1261.64 142.15 1232.59 171.66 1224.55 171.66 1253.62 142.15 1261.64 142.15"/><polygon class="cls-4" points="1087.51 171.7 1087.51 169.3 1087.51 142.09 1081.81 142.09 1081.81 163.5 1060.81 142.11 1060.81 142.09 1055.11 142.09 1055.11 171.7 1060.81 171.7 1060.81 150.35 1081.81 171.69 1081.81 171.7 1081.82 171.7 1087.51 171.7"/><g class="cls-3"><path class="cls-4" d="M1192.14,117.66c0-8.2-23.63-14.92-53.59-15.5l-.25,2.27c24.7.58,44.12,6.53,44.12,13.79,0,7.43-20.37,13.5-45.92,13.82l.18,1.16c30.84-.33,55.47-7.16,55.47-15.53"/><path class="cls-4" d="M1170.64,119.51c0,5.58-15.29,10.13-34.51,10.4l.18,1.15c22.4-.3,40.23-5.61,40.23-12.12,0-6.34-16.93-11.54-38.51-12.08l-.26,2.28c18.44.5,32.86,5,32.86,10.37"/><path class="cls-4" d="M1164.82,120.22c0-4.49-12-8.19-27.3-8.65l-.26,2.28c12.22.41,21.7,3.36,21.7,6.93s-10.26,6.76-23.2,7l.18,1.14c16.09-.24,28.87-4,28.87-8.68"/><path class="cls-4" d="M1076.47,117.66c0-8.2,23.63-14.92,53.59-15.5l.25,2.27c-24.7.58-44.12,6.53-44.12,13.79,0,7.43,20.37,13.5,45.92,13.82l-.18,1.16c-30.84-.33-55.47-7.16-55.47-15.53"/><path class="cls-4" d="M1098,119.51c0,5.58,15.29,10.13,34.51,10.4l-.18,1.15c-22.39-.3-40.23-5.61-40.23-12.12,0-6.34,16.93-11.54,38.51-12.08l.26,2.28c-18.44.5-32.86,5-32.86,10.37"/><path class="cls-4" d="M1103.79,120.22c0-4.49,12-8.19,27.3-8.65l.26,2.28c-12.22.41-21.7,3.36-21.7,6.93s10.26,6.76,23.2,7l-.18,1.14c-16.09-.24-28.87-4-28.87-8.68"/><path class="cls-4" d="M812.27,414.73a1.84,1.84,0,0,0-3.69,0,1.8,1.8,0,0,0,.53,1.31,1.84,1.84,0,0,0,2.61,0,1.8,1.8,0,0,0,.54-1.31m-.26,0a1.58,1.58,0,0,1-1.59,1.6,1.51,1.51,0,0,1-1.12-.47,1.59,1.59,0,1,1,2.71-1.13m-.89.26a.49.49,0,0,0-.35-.2.73.73,0,0,0,.29-.1.43.43,0,0,0,.2-.4.51.51,0,0,0-.32-.52,1.58,1.58,0,0,0-.55-.07h-.72v2H810v-.8h.28a.9.9,0,0,1,.4.06c.13.08.19.23.19.46v.23a0,0,0,0,0,0,0v0h.34v0a.67.67,0,0,1,0-.11v-.3a.58.58,0,0,0-.11-.31m-.41-.35a1.13,1.13,0,0,1-.35,0H810V414h.31a.88.88,0,0,1,.44.08.31.31,0,0,1,.13.3.32.32,0,0,1-.21.32"/><path class="cls-4" d="M739.76,442.46h28v-5H746.37v-7.34h14.12v-5H746.37v-7.35h20.72v-5H739.76Zm-33.87,0h28.93v-5H712.39v-24.7l-6.49,0Zm-4-20.83q0-4.83-3-6.78t-9.06-1.95H671.71v29.49h6.61l0-12.22h11.54q6,0,9.06-1.85c2-1.23,3-3.46,3-6.69m-6.59,0a2.84,2.84,0,0,1-1.45,2.86,8.28,8.28,0,0,1-3.62.71h-12V417.9h12a7.15,7.15,0,0,1,3.62.84,3.08,3.08,0,0,1,1.45,2.92m-56.59,20.8h28v-5H645.35v-7.31h14.13v-5H645.35v-7.38h20.72v-5H638.75Zm-49,0h6.57v-29.6h-6.57Z"/><path class="cls-4" d="M586,416.08a21.41,21.41,0,0,0-4.48-2.06,24.51,24.51,0,0,0-4.14-1.08,31.28,31.28,0,0,0-5.19-.47,27.33,27.33,0,0,0-7.12.94,19.48,19.48,0,0,0-6.16,2.86,15,15,0,0,0-4.32,4.73,12.85,12.85,0,0,0-1.64,6.59,13,13,0,0,0,1.64,6.61,15.25,15.25,0,0,0,4.25,4.77,17.34,17.34,0,0,0,6,2.79,26.73,26.73,0,0,0,6.77.95,30.25,30.25,0,0,0,5.93-.51,32.34,32.34,0,0,0,4.95-1.41s1.71-.7,3.71-1.77l-3.93-3.94a23.91,23.91,0,0,1-2.58,1.21,25.2,25.2,0,0,1-3.81,1.11,24.19,24.19,0,0,1-4.68.47,13.27,13.27,0,0,1-4.25-.7,11.49,11.49,0,0,1-3.73-2.08,10.72,10.72,0,0,1-2.65-3.29,9.16,9.16,0,0,1-1-4.33,9.8,9.8,0,0,1,.9-4.3A8.59,8.59,0,0,1,563,420a11.41,11.41,0,0,1,3.85-1.92,17.62,17.62,0,0,1,4.88-.64,27.23,27.23,0,0,1,4.68.37c.68.13,1.3.28,1.89.45a16,16,0,0,1,3.81,1.76Z"/></g><polygon class="cls-4" points="770.77 412.84 799.81 442.35 807.86 442.35 778.79 412.84 770.77 412.84"/><polygon class="cls-4" points="807.86 412.84 778.81 442.35 770.77 442.35 799.84 412.84 807.86 412.84"/><polygon class="cls-4" points="633.72 442.39 633.72 439.99 633.72 412.79 628.02 412.79 628.02 434.19 607.02 412.8 607.02 412.79 601.33 412.79 601.33 442.39 607.02 442.39 607.02 421.04 628.02 442.38 628.02 442.39 628.03 442.39 633.72 442.39"/><g class="cls-3"><path class="cls-4" d="M738.35,388.35c0-8.2-23.63-14.92-53.59-15.5l-.25,2.27c24.7.58,44.12,6.53,44.12,13.79,0,7.43-20.37,13.5-45.92,13.82l.18,1.16c30.84-.33,55.47-7.16,55.47-15.53"/><path class="cls-4" d="M716.86,390.2c0,5.58-15.29,10.13-34.51,10.4l.18,1.15c22.4-.3,40.23-5.61,40.23-12.12,0-6.34-16.93-11.54-38.51-12.08l-.26,2.28c18.44.5,32.86,5,32.86,10.37"/><path class="cls-4" d="M711,390.91c0-4.49-12-8.19-27.3-8.65l-.26,2.28c12.22.41,21.7,3.36,21.7,6.93s-10.26,6.76-23.2,7l.18,1.14c16.09-.24,28.87-4,28.87-8.68"/><path class="cls-4" d="M622.69,388.35c0-8.2,23.63-14.92,53.59-15.5l.25,2.27c-24.7.58-44.12,6.53-44.12,13.79,0,7.43,20.37,13.5,45.92,13.82l-.18,1.16c-30.84-.33-55.47-7.16-55.47-15.53"/><path class="cls-4" d="M644.19,390.2c0,5.58,15.29,10.13,34.51,10.4l-.18,1.15c-22.4-.3-40.23-5.61-40.23-12.12,0-6.34,16.93-11.54,38.51-12.08l.26,2.28c-18.44.5-32.86,5-32.86,10.37"/><path class="cls-4" d="M650,390.91c0-4.49,12-8.19,27.3-8.65l.26,2.28c-12.22.41-21.7,3.36-21.7,6.93s10.26,6.76,23.2,7l-.18,1.14c-16.09-.24-28.87-4-28.87-8.68"/><path class="cls-4" d="M1266.05,414.73a1.84,1.84,0,0,0-3.69,0,1.8,1.8,0,0,0,.53,1.31,1.84,1.84,0,0,0,2.61,0,1.8,1.8,0,0,0,.54-1.31m-.26,0a1.58,1.58,0,0,1-1.59,1.6,1.51,1.51,0,0,1-1.12-.47,1.59,1.59,0,1,1,2.71-1.13m-.89.26a.49.49,0,0,0-.35-.2.73.73,0,0,0,.29-.1.43.43,0,0,0,.2-.4.51.51,0,0,0-.32-.52,1.58,1.58,0,0,0-.55-.07h-.72v2h.36v-.8h.28a.9.9,0,0,1,.4.06c.13.08.19.23.19.46v.23a0,0,0,0,0,0,0v0h.34v0a.66.66,0,0,1,0-.11v-.3a.58.58,0,0,0-.11-.31m-.41-.35a1.13,1.13,0,0,1-.35,0h-.32V414h.3a.88.88,0,0,1,.44.08.31.31,0,0,1,.13.3.32.32,0,0,1-.21.32"/><path class="cls-4" d="M1193.54,442.46h28v-5h-21.38v-7.34h14.12v-5h-14.12v-7.35h20.72v-5h-27.33Zm-33.87,0h28.93v-5h-22.44v-24.7l-6.49,0Zm-4-20.83q0-4.83-3-6.78t-9.06-1.95h-18.13v29.49h6.61l0-12.22h11.54q6,0,9.06-1.85c2-1.23,3-3.46,3-6.69m-6.59,0a2.84,2.84,0,0,1-1.45,2.86,8.28,8.28,0,0,1-3.62.71h-12V417.9h12a7.15,7.15,0,0,1,3.62.84,3.08,3.08,0,0,1,1.45,2.92m-56.59,20.8h28v-5h-21.38v-7.31h14.12v-5h-14.12v-7.38h20.72v-5h-27.33Zm-49,0h6.57v-29.6h-6.57Z"/><path class="cls-4" d="M1039.82,416.08a21.41,21.41,0,0,0-4.48-2.06,24.51,24.51,0,0,0-4.14-1.08,31.28,31.28,0,0,0-5.19-.47,27.33,27.33,0,0,0-7.12.94,19.48,19.48,0,0,0-6.16,2.86,15,15,0,0,0-4.32,4.73,12.85,12.85,0,0,0-1.64,6.59,13,13,0,0,0,1.64,6.61,15.25,15.25,0,0,0,4.25,4.77,17.34,17.34,0,0,0,6,2.79,26.73,26.73,0,0,0,6.77.95,30.25,30.25,0,0,0,5.93-.51,32.34,32.34,0,0,0,4.95-1.41s1.71-.7,3.71-1.77l-3.93-3.94a23.91,23.91,0,0,1-2.58,1.21,25.21,25.21,0,0,1-3.81,1.11,24.19,24.19,0,0,1-4.68.47,13.27,13.27,0,0,1-4.25-.7,11.49,11.49,0,0,1-3.73-2.08,10.72,10.72,0,0,1-2.65-3.29,9.16,9.16,0,0,1-1-4.33,9.8,9.8,0,0,1,.9-4.3,8.59,8.59,0,0,1,2.53-3.15,11.41,11.41,0,0,1,3.85-1.92,17.62,17.62,0,0,1,4.88-.64,27.23,27.23,0,0,1,4.68.37c.68.13,1.3.28,1.89.45a16,16,0,0,1,3.81,1.76Z"/></g><polygon class="cls-4" points="1224.55 412.84 1253.6 442.35 1261.64 442.35 1232.57 412.84 1224.55 412.84"/><polygon class="cls-4" points="1261.64 412.84 1232.59 442.35 1224.55 442.35 1253.62 412.84 1261.64 412.84"/><polygon class="cls-4" points="1087.51 442.39 1087.51 439.99 1087.51 412.79 1081.81 412.79 1081.81 434.19 1060.81 412.8 1060.81 412.79 1055.11 412.79 1055.11 442.39 1060.81 442.39 1060.81 421.04 1081.81 442.38 1081.81 442.39 1081.82 442.39 1087.51 442.39"/><g class="cls-3"><path class="cls-4" d="M1192.14,388.35c0-8.2-23.63-14.92-53.59-15.5l-.25,2.27c24.7.58,44.12,6.53,44.12,13.79,0,7.43-20.37,13.5-45.92,13.82l.18,1.16c30.84-.33,55.47-7.16,55.47-15.53"/><path class="cls-4" d="M1170.64,390.2c0,5.58-15.29,10.13-34.51,10.4l.18,1.15c22.4-.3,40.23-5.61,40.23-12.12,0-6.34-16.93-11.54-38.51-12.08l-.26,2.28c18.44.5,32.86,5,32.86,10.37"/><path class="cls-4" d="M1164.82,390.91c0-4.49-12-8.19-27.3-8.65l-.26,2.28c12.22.41,21.7,3.36,21.7,6.93s-10.26,6.76-23.2,7l.18,1.14c16.09-.24,28.87-4,28.87-8.68"/><path class="cls-4" d="M1076.47,388.35c0-8.2,23.63-14.92,53.59-15.5l.25,2.27c-24.7.58-44.12,6.53-44.12,13.79,0,7.43,20.37,13.5,45.92,13.82l-.18,1.16c-30.84-.33-55.47-7.16-55.47-15.53"/><path class="cls-4" d="M1098,390.2c0,5.58,15.29,10.13,34.51,10.4l-.18,1.15c-22.39-.3-40.23-5.61-40.23-12.12,0-6.34,16.93-11.54,38.51-12.08l.26,2.28c-18.44.5-32.86,5-32.86,10.37"/><path class="cls-4" d="M1103.79,390.91c0-4.49,12-8.19,27.3-8.65l.26,2.28c-12.22.41-21.7,3.36-21.7,6.93s10.26,6.76,23.2,7l-.18,1.14c-16.09-.24-28.87-4-28.87-8.68"/><path class="cls-4" d="M358.49,685.44a1.84,1.84,0,0,0-3.69,0,1.8,1.8,0,0,0,.53,1.31,1.84,1.84,0,0,0,2.61,0,1.8,1.8,0,0,0,.54-1.31m-.26,0a1.58,1.58,0,0,1-1.59,1.6,1.51,1.51,0,0,1-1.12-.47,1.59,1.59,0,1,1,2.71-1.13m-.89.26a.49.49,0,0,0-.35-.2.73.73,0,0,0,.29-.1.43.43,0,0,0,.2-.4.51.51,0,0,0-.32-.52,1.58,1.58,0,0,0-.55-.07h-.72v2h.36v-.8h.28a.9.9,0,0,1,.4.06c.13.08.19.23.19.46v.23a0,0,0,0,0,0,0v0h.34v0a.67.67,0,0,1,0-.11V686a.58.58,0,0,0-.11-.31m-.41-.35a1.13,1.13,0,0,1-.35,0h-.32v-.73h.31a.88.88,0,0,1,.44.08.31.31,0,0,1,.13.3.32.32,0,0,1-.21.32"/><path class="cls-4" d="M286,713.16h28v-5H292.58v-7.34h14.12v-5H292.58v-7.35h20.72v-5H286Zm-33.87,0H281v-5H258.6v-24.7l-6.49,0Zm-4-20.83q0-4.83-3-6.78t-9.06-1.95H217.93v29.49h6.61l0-12.22h11.54q6,0,9.06-1.85c2-1.23,3-3.46,3-6.69m-6.59,0a2.84,2.84,0,0,1-1.45,2.86,8.28,8.28,0,0,1-3.62.71h-12v-7.32h12a7.15,7.15,0,0,1,3.62.84,3.08,3.08,0,0,1,1.45,2.92M185,713.16h28v-5H191.57V700.9h14.12v-5H191.57v-7.38h20.72v-5H185Zm-49,0h6.57v-29.6h-6.57Z"/><path class="cls-4" d="M132.25,686.79a21.41,21.41,0,0,0-4.48-2.06,24.5,24.5,0,0,0-4.14-1.08,31.28,31.28,0,0,0-5.19-.47,27.33,27.33,0,0,0-7.12.94,19.48,19.48,0,0,0-6.16,2.86,15,15,0,0,0-4.32,4.73,12.85,12.85,0,0,0-1.64,6.59,13,13,0,0,0,1.64,6.61,15.25,15.25,0,0,0,4.25,4.77,17.34,17.34,0,0,0,6,2.79,26.73,26.73,0,0,0,6.77.95,30.25,30.25,0,0,0,5.93-.51,32.34,32.34,0,0,0,4.95-1.41s1.71-.7,3.71-1.77l-3.93-3.94a23.9,23.9,0,0,1-2.58,1.21,25.2,25.2,0,0,1-3.81,1.11,24.19,24.19,0,0,1-4.68.47,13.27,13.27,0,0,1-4.25-.7,11.49,11.49,0,0,1-3.73-2.08,10.72,10.72,0,0,1-2.65-3.29,9.16,9.16,0,0,1-1-4.33,9.8,9.8,0,0,1,.9-4.3,8.59,8.59,0,0,1,2.53-3.15,11.41,11.41,0,0,1,3.85-1.92,17.62,17.62,0,0,1,4.88-.64,27.23,27.23,0,0,1,4.68.37c.68.13,1.3.28,1.89.45a16,16,0,0,1,3.81,1.76Z"/></g><polygon class="cls-4" points="316.98 683.55 346.03 713.05 354.07 713.05 325 683.55 316.98 683.55"/><polygon class="cls-4" points="354.07 683.55 325.03 713.05 316.98 713.05 346.05 683.55 354.07 683.55"/><polygon class="cls-4" points="179.94 713.1 179.94 710.7 179.94 683.49 174.24 683.49 174.24 704.9 153.24 683.51 153.24 683.49 147.54 683.49 147.54 713.1 153.24 713.1 153.24 691.75 174.24 713.09 174.24 713.1 174.25 713.1 179.94 713.1"/><g class="cls-3"><path class="cls-4" d="M284.57,659.06c0-8.2-23.63-14.92-53.59-15.5l-.25,2.27c24.7.58,44.12,6.53,44.12,13.79,0,7.43-20.37,13.5-45.92,13.82l.18,1.16c30.84-.33,55.47-7.16,55.47-15.53"/><path class="cls-4" d="M263.07,660.91c0,5.58-15.29,10.13-34.51,10.4l.18,1.15c22.4-.3,40.23-5.61,40.23-12.12,0-6.34-16.93-11.54-38.51-12.08l-.26,2.28c18.44.5,32.86,5,32.86,10.37"/><path class="cls-4" d="M257.26,661.62c0-4.49-12-8.19-27.3-8.65l-.26,2.28c12.22.41,21.7,3.36,21.7,6.93s-10.26,6.76-23.2,7l.18,1.14c16.09-.24,28.87-4,28.87-8.68"/><path class="cls-4" d="M168.91,659.06c0-8.2,23.63-14.92,53.59-15.5l.25,2.27c-24.7.58-44.12,6.53-44.12,13.79,0,7.43,20.37,13.5,45.92,13.82l-.18,1.16c-30.84-.33-55.47-7.16-55.47-15.53"/><path class="cls-4" d="M190.4,660.91c0,5.58,15.29,10.13,34.51,10.4l-.18,1.15c-22.4-.3-40.23-5.61-40.23-12.12,0-6.34,16.93-11.54,38.51-12.08l.26,2.28c-18.44.5-32.86,5-32.86,10.37"/><path class="cls-4" d="M196.22,661.62c0-4.49,12-8.19,27.3-8.65l.26,2.28c-12.22.41-21.7,3.36-21.7,6.93s10.26,6.76,23.2,7l-.18,1.14c-16.09-.24-28.87-4-28.87-8.68"/><path class="cls-4" d="M814.19,685.44a1.84,1.84,0,0,0-3.69,0,1.8,1.8,0,0,0,.53,1.31,1.84,1.84,0,0,0,2.61,0,1.8,1.8,0,0,0,.54-1.31m-.26,0a1.58,1.58,0,0,1-1.59,1.6,1.51,1.51,0,0,1-1.12-.47,1.59,1.59,0,1,1,2.71-1.13m-.89.26a.49.49,0,0,0-.35-.2.73.73,0,0,0,.29-.1.43.43,0,0,0,.2-.4.51.51,0,0,0-.32-.52,1.58,1.58,0,0,0-.55-.07h-.72v2h.36v-.8h.28a.9.9,0,0,1,.4.06c.13.08.19.23.19.46v.23a0,0,0,0,0,0,0v0h.34v0a.67.67,0,0,1,0-.11V686a.58.58,0,0,0-.11-.31m-.41-.35a1.13,1.13,0,0,1-.35,0h-.32v-.73h.31a.88.88,0,0,1,.44.08.31.31,0,0,1,.13.3.32.32,0,0,1-.21.32"/><path class="cls-4" d="M741.68,713.16h28v-5H748.29v-7.34h14.12v-5H748.29v-7.35H769v-5H741.68Zm-33.87,0h28.93v-5H714.31v-24.7l-6.5,0Zm-4-20.83q0-4.83-3-6.78t-9.06-1.95H673.63v29.49h6.61l0-12.22h11.54q6,0,9.06-1.85c2-1.23,3-3.46,3-6.69m-6.59,0a2.84,2.84,0,0,1-1.45,2.86,8.27,8.27,0,0,1-3.62.71h-12v-7.32h12a7.14,7.14,0,0,1,3.62.84,3.08,3.08,0,0,1,1.45,2.92m-56.58,20.8h28v-5H647.27V700.9h14.12v-5H647.27v-7.38H668v-5H640.67Zm-49,0h6.57v-29.6h-6.57Z"/><path class="cls-4" d="M588,686.79a21.41,21.41,0,0,0-4.48-2.06,24.5,24.5,0,0,0-4.14-1.08,31.28,31.28,0,0,0-5.19-.47,27.33,27.33,0,0,0-7.12.94,19.48,19.48,0,0,0-6.16,2.86,15,15,0,0,0-4.32,4.73,12.85,12.85,0,0,0-1.64,6.59,13,13,0,0,0,1.64,6.61,15.25,15.25,0,0,0,4.25,4.77,17.34,17.34,0,0,0,6,2.79,26.73,26.73,0,0,0,6.77.95,30.25,30.25,0,0,0,5.93-.51,32.34,32.34,0,0,0,4.95-1.41s1.71-.7,3.71-1.77l-3.93-3.94a23.9,23.9,0,0,1-2.58,1.21,25.2,25.2,0,0,1-3.81,1.11,24.19,24.19,0,0,1-4.68.47,13.27,13.27,0,0,1-4.25-.7,11.49,11.49,0,0,1-3.73-2.08,10.72,10.72,0,0,1-2.65-3.29,9.16,9.16,0,0,1-1-4.33,9.8,9.8,0,0,1,.9-4.3,8.59,8.59,0,0,1,2.53-3.15,11.41,11.41,0,0,1,3.85-1.92,17.62,17.62,0,0,1,4.88-.64,27.23,27.23,0,0,1,4.68.37c.68.13,1.3.28,1.89.45a16,16,0,0,1,3.81,1.76Z"/></g><polygon class="cls-4" points="772.68 683.55 801.73 713.05 809.78 713.05 780.71 683.55 772.68 683.55"/><polygon class="cls-4" points="809.77 683.55 780.73 713.05 772.68 713.05 801.75 683.55 809.77 683.55"/><polygon class="cls-4" points="635.64 713.1 635.64 710.7 635.64 683.49 629.94 683.49 629.94 704.9 608.94 683.51 608.94 683.49 603.25 683.49 603.25 713.1 608.94 713.1 608.94 691.75 629.94 713.09 629.94 713.1 629.95 713.1 635.64 713.1"/><g class="cls-3"><path class="cls-4" d="M740.27,659.06c0-8.2-23.63-14.92-53.59-15.5l-.25,2.27c24.7.58,44.12,6.53,44.12,13.79,0,7.43-20.37,13.5-45.92,13.82l.18,1.16c30.84-.33,55.47-7.16,55.47-15.53"/><path class="cls-4" d="M718.78,660.91c0,5.58-15.29,10.13-34.51,10.4l.18,1.15c22.4-.3,40.23-5.61,40.23-12.12,0-6.34-16.93-11.54-38.51-12.08l-.26,2.28c18.44.5,32.86,5,32.86,10.37"/><path class="cls-4" d="M713,661.62c0-4.49-12-8.19-27.3-8.65l-.26,2.28c12.22.41,21.7,3.36,21.7,6.93s-10.26,6.76-23.2,7l.18,1.14c16.09-.24,28.87-4,28.87-8.68"/><path class="cls-4" d="M624.61,659.06c0-8.2,23.63-14.92,53.59-15.5l.25,2.27c-24.7.58-44.12,6.53-44.12,13.79,0,7.43,20.37,13.5,45.92,13.82l-.18,1.16c-30.84-.33-55.47-7.16-55.47-15.53"/><path class="cls-4" d="M646.11,660.91c0,5.58,15.29,10.13,34.51,10.4l-.18,1.15c-22.4-.3-40.23-5.61-40.23-12.12,0-6.34,16.93-11.54,38.51-12.08l.26,2.28c-18.44.5-32.86,5-32.86,10.37"/><path class="cls-4" d="M651.92,661.62c0-4.49,12-8.19,27.3-8.65l.26,2.28c-12.22.41-21.7,3.36-21.7,6.93s10.26,6.76,23.2,7l-.18,1.14c-16.09-.24-28.87-4-28.87-8.68"/></g><rect class="cls-60" x="922.82" y="819.4" width="427.18" height="244.1"/><g class="cls-3"><path class="cls-4" d="M1267.81,948.4a1.84,1.84,0,0,0-3.69,0,1.8,1.8,0,0,0,.53,1.31,1.84,1.84,0,0,0,2.61,0,1.8,1.8,0,0,0,.54-1.31m-.26,0A1.58,1.58,0,0,1,1266,950a1.51,1.51,0,0,1-1.12-.47,1.59,1.59,0,1,1,2.71-1.13m-.89.26a.49.49,0,0,0-.35-.2.73.73,0,0,0,.29-.1.43.43,0,0,0,.2-.4.51.51,0,0,0-.32-.52,1.58,1.58,0,0,0-.55-.07h-.72v2h.36v-.8h.28a.9.9,0,0,1,.4.06c.13.08.19.23.19.46v.23a0,0,0,0,0,0,0v0h.34v0a.66.66,0,0,1,0-.11V949a.58.58,0,0,0-.11-.31m-.41-.35a1.13,1.13,0,0,1-.35,0h-.32v-.73h.3a.89.89,0,0,1,.44.08.31.31,0,0,1,.13.3.32.32,0,0,1-.21.32"/><path class="cls-4" d="M1195.3,976.13h28v-5h-21.38v-7.34H1216v-5h-14.12v-7.35h20.72v-5H1195.3Zm-33.87,0h28.93v-5h-22.44v-24.7l-6.5,0Zm-4-20.83q0-4.83-3-6.78t-9.06-1.95h-18.13v29.49h6.61l0-12.22h11.54q6,0,9.06-1.85c2-1.23,3-3.46,3-6.69m-6.59,0a2.84,2.84,0,0,1-1.45,2.86,8.27,8.27,0,0,1-3.62.71h-12v-7.32h12a7.14,7.14,0,0,1,3.62.84,3.08,3.08,0,0,1,1.45,2.92m-56.58,20.8h28v-5h-21.38v-7.31H1115v-5h-14.12v-7.38h20.72v-5h-27.33Zm-49,0h6.57v-29.6h-6.57Z"/><path class="cls-4" d="M1041.58,949.75a21.41,21.41,0,0,0-4.48-2.06,24.5,24.5,0,0,0-4.14-1.08,31.28,31.28,0,0,0-5.19-.47,27.33,27.33,0,0,0-7.12.94,19.48,19.48,0,0,0-6.16,2.86,15,15,0,0,0-4.32,4.73,12.85,12.85,0,0,0-1.64,6.59,13,13,0,0,0,1.64,6.61,15.25,15.25,0,0,0,4.25,4.77,17.34,17.34,0,0,0,6,2.79,26.73,26.73,0,0,0,6.77.95,30.25,30.25,0,0,0,5.93-.51,32.34,32.34,0,0,0,4.95-1.41s1.71-.7,3.71-1.77l-3.93-3.94a23.9,23.9,0,0,1-2.58,1.21,25.2,25.2,0,0,1-3.81,1.11,24.19,24.19,0,0,1-4.68.47,13.27,13.27,0,0,1-4.25-.7,11.49,11.49,0,0,1-3.73-2.08,10.72,10.72,0,0,1-2.65-3.29,9.16,9.16,0,0,1-1-4.33,9.8,9.8,0,0,1,.9-4.3,8.59,8.59,0,0,1,2.53-3.15,11.41,11.41,0,0,1,3.85-1.92,17.62,17.62,0,0,1,4.88-.64,27.23,27.23,0,0,1,4.68.37c.68.13,1.3.28,1.89.45a16,16,0,0,1,3.81,1.76Z"/></g><polygon class="cls-4" points="1226.31 946.51 1255.35 976.02 1263.4 976.02 1234.33 946.51 1226.31 946.51"/><polygon class="cls-4" points="1263.4 946.51 1234.35 976.02 1226.3 976.02 1255.38 946.51 1263.4 946.51"/><polygon class="cls-4" points="1089.26 976.06 1089.26 973.66 1089.26 946.46 1083.56 946.46 1083.56 967.86 1062.56 946.48 1062.56 946.46 1056.87 946.46 1056.87 976.06 1062.56 976.06 1062.56 954.72 1083.56 976.05 1083.56 976.06 1083.57 976.06 1089.26 976.06"/><g class="cls-3"><path class="cls-4" d="M1193.89,922c0-8.2-23.63-14.92-53.59-15.5l-.25,2.27c24.7.58,44.12,6.53,44.12,13.79,0,7.43-20.37,13.5-45.92,13.82l.18,1.16c30.84-.33,55.47-7.16,55.47-15.53"/><path class="cls-4" d="M1172.4,923.88c0,5.58-15.29,10.13-34.51,10.4l.18,1.15c22.4-.3,40.23-5.61,40.23-12.12,0-6.34-16.93-11.54-38.51-12.08l-.26,2.28c18.44.5,32.86,5,32.86,10.37"/><path class="cls-4" d="M1166.58,924.58c0-4.49-12-8.19-27.3-8.65l-.26,2.28c12.22.41,21.7,3.36,21.7,6.93s-10.26,6.76-23.2,7l.18,1.14c16.09-.24,28.87-4,28.87-8.68"/><path class="cls-4" d="M1078.23,922c0-8.2,23.63-14.92,53.59-15.5l.25,2.27c-24.7.58-44.12,6.53-44.12,13.79,0,7.43,20.37,13.5,45.92,13.82l-.18,1.16c-30.84-.33-55.47-7.16-55.47-15.53"/><path class="cls-4" d="M1099.73,923.88c0,5.58,15.29,10.13,34.51,10.4l-.18,1.15c-22.39-.3-40.23-5.61-40.23-12.12,0-6.34,16.93-11.54,38.51-12.08l.26,2.28c-18.44.5-32.86,5-32.86,10.37"/><path class="cls-4" d="M1105.54,924.58c0-4.49,12-8.19,27.3-8.65l.26,2.28c-12.22.41-21.7,3.36-21.7,6.93s10.26,6.76,23.2,7l-.18,1.14c-16.09-.24-28.87-4-28.87-8.68"/></g><rect class="cls-61" x="15.26" y="819.4" width="427.18" height="244.1"/><rect class="cls-62" x="469.04" y="819.4" width="427.18" height="244.1"/><g class="cls-3"><path class="cls-4" d="M358.49,948.4a1.84,1.84,0,0,0-3.69,0,1.8,1.8,0,0,0,.53,1.31,1.84,1.84,0,0,0,2.61,0,1.8,1.8,0,0,0,.54-1.31m-.26,0a1.58,1.58,0,0,1-1.59,1.6,1.51,1.51,0,0,1-1.12-.47,1.59,1.59,0,1,1,2.71-1.13m-.89.26a.49.49,0,0,0-.35-.2.73.73,0,0,0,.29-.1.43.43,0,0,0,.2-.4.51.51,0,0,0-.32-.52,1.58,1.58,0,0,0-.55-.07h-.72v2h.36v-.8h.28a.9.9,0,0,1,.4.06c.13.08.19.23.19.46v.23a0,0,0,0,0,0,0v0h.34v0a.67.67,0,0,1,0-.11V949a.58.58,0,0,0-.11-.31m-.41-.35a1.13,1.13,0,0,1-.35,0h-.32v-.73h.31a.88.88,0,0,1,.44.08.31.31,0,0,1,.13.3.32.32,0,0,1-.21.32"/><path class="cls-4" d="M286,976.13h28v-5H292.58v-7.34h14.12v-5H292.58v-7.35h20.72v-5H286Zm-33.87,0H281v-5H258.6v-24.7l-6.49,0Zm-4-20.83q0-4.83-3-6.78t-9.06-1.95H217.93v29.49h6.61l0-12.22h11.54q6,0,9.06-1.85c2-1.23,3-3.46,3-6.69m-6.59,0a2.84,2.84,0,0,1-1.45,2.86,8.28,8.28,0,0,1-3.62.71h-12v-7.32h12a7.15,7.15,0,0,1,3.62.84,3.08,3.08,0,0,1,1.45,2.92M185,976.13h28v-5H191.57v-7.31h14.12v-5H191.57v-7.38h20.72v-5H185Zm-49,0h6.57v-29.6h-6.57Z"/><path class="cls-4" d="M132.25,949.75a21.41,21.41,0,0,0-4.48-2.06,24.5,24.5,0,0,0-4.14-1.08,31.28,31.28,0,0,0-5.19-.47,27.33,27.33,0,0,0-7.12.94,19.48,19.48,0,0,0-6.16,2.86,15,15,0,0,0-4.32,4.73,12.85,12.85,0,0,0-1.64,6.59,13,13,0,0,0,1.64,6.61,15.25,15.25,0,0,0,4.25,4.77,17.34,17.34,0,0,0,6,2.79,26.73,26.73,0,0,0,6.77.95,30.25,30.25,0,0,0,5.93-.51,32.34,32.34,0,0,0,4.95-1.41s1.71-.7,3.71-1.77l-3.93-3.94a23.9,23.9,0,0,1-2.58,1.21,25.2,25.2,0,0,1-3.81,1.11,24.19,24.19,0,0,1-4.68.47,13.27,13.27,0,0,1-4.25-.7,11.49,11.49,0,0,1-3.73-2.08,10.72,10.72,0,0,1-2.65-3.29,9.16,9.16,0,0,1-1-4.33,9.8,9.8,0,0,1,.9-4.3,8.59,8.59,0,0,1,2.53-3.15,11.41,11.41,0,0,1,3.85-1.92,17.62,17.62,0,0,1,4.88-.64,27.23,27.23,0,0,1,4.68.37c.68.13,1.3.28,1.89.45a16,16,0,0,1,3.81,1.76Z"/></g><polygon class="cls-4" points="316.98 946.51 346.03 976.02 354.07 976.02 325 946.51 316.98 946.51"/><polygon class="cls-4" points="354.07 946.51 325.03 976.02 316.98 976.02 346.05 946.51 354.07 946.51"/><polygon class="cls-4" points="179.94 976.06 179.94 973.66 179.94 946.46 174.24 946.46 174.24 967.86 153.24 946.48 153.24 946.46 147.54 946.46 147.54 976.06 153.24 976.06 153.24 954.72 174.24 976.05 174.24 976.06 174.25 976.06 179.94 976.06"/><g class="cls-3"><path class="cls-4" d="M284.57,922c0-8.2-23.63-14.92-53.59-15.5l-.25,2.27c24.7.58,44.12,6.53,44.12,13.79,0,7.43-20.37,13.5-45.92,13.82l.18,1.16c30.84-.33,55.47-7.16,55.47-15.53"/><path class="cls-4" d="M263.07,923.88c0,5.58-15.29,10.13-34.51,10.4l.18,1.15c22.4-.3,40.23-5.61,40.23-12.12,0-6.34-16.93-11.54-38.51-12.08l-.26,2.28c18.44.5,32.86,5,32.86,10.37"/><path class="cls-4" d="M257.26,924.58c0-4.49-12-8.19-27.3-8.65l-.26,2.28c12.22.41,21.7,3.36,21.7,6.93s-10.26,6.76-23.2,7l.18,1.14c16.09-.24,28.87-4,28.87-8.68"/><path class="cls-4" d="M168.91,922c0-8.2,23.63-14.92,53.59-15.5l.25,2.27c-24.7.58-44.12,6.53-44.12,13.79,0,7.43,20.37,13.5,45.92,13.82l-.18,1.16c-30.84-.33-55.47-7.16-55.47-15.53"/><path class="cls-4" d="M190.4,923.88c0,5.58,15.29,10.13,34.51,10.4l-.18,1.15c-22.4-.3-40.23-5.61-40.23-12.12,0-6.34,16.93-11.54,38.51-12.08l.26,2.28c-18.44.5-32.86,5-32.86,10.37"/><path class="cls-4" d="M196.22,924.58c0-4.49,12-8.19,27.3-8.65l.26,2.28c-12.22.41-21.7,3.36-21.7,6.93s10.26,6.76,23.2,7l-.18,1.14c-16.09-.24-28.87-4-28.87-8.68"/><path class="cls-4" d="M814.19,948.4a1.84,1.84,0,0,0-3.69,0,1.8,1.8,0,0,0,.53,1.31,1.84,1.84,0,0,0,2.61,0,1.8,1.8,0,0,0,.54-1.31m-.26,0a1.58,1.58,0,0,1-1.59,1.6,1.51,1.51,0,0,1-1.12-.47,1.59,1.59,0,1,1,2.71-1.13m-.89.26a.49.49,0,0,0-.35-.2.73.73,0,0,0,.29-.1.43.43,0,0,0,.2-.4.51.51,0,0,0-.32-.52,1.58,1.58,0,0,0-.55-.07h-.72v2h.36v-.8h.28a.9.9,0,0,1,.4.06c.13.08.19.23.19.46v.23a0,0,0,0,0,0,0v0h.34v0a.67.67,0,0,1,0-.11V949a.58.58,0,0,0-.11-.31m-.41-.35a1.13,1.13,0,0,1-.35,0h-.32v-.73h.31a.88.88,0,0,1,.44.08.31.31,0,0,1,.13.3.32.32,0,0,1-.21.32"/><path class="cls-4" d="M741.68,976.13h28v-5H748.29v-7.34h14.12v-5H748.29v-7.35H769v-5H741.68Zm-33.87,0h28.93v-5H714.31v-24.7l-6.5,0Zm-4-20.83q0-4.83-3-6.78t-9.06-1.95H673.63v29.49h6.61l0-12.22h11.54q6,0,9.06-1.85c2-1.23,3-3.46,3-6.69m-6.59,0a2.84,2.84,0,0,1-1.45,2.86,8.27,8.27,0,0,1-3.62.71h-12v-7.32h12a7.14,7.14,0,0,1,3.62.84,3.08,3.08,0,0,1,1.45,2.92m-56.58,20.8h28v-5H647.27v-7.31h14.12v-5H647.27v-7.38H668v-5H640.67Zm-49,0h6.57v-29.6h-6.57Z"/><path class="cls-4" d="M588,949.75a21.41,21.41,0,0,0-4.48-2.06,24.5,24.5,0,0,0-4.14-1.08,31.28,31.28,0,0,0-5.19-.47,27.33,27.33,0,0,0-7.12.94,19.48,19.48,0,0,0-6.16,2.86,15,15,0,0,0-4.32,4.73,12.85,12.85,0,0,0-1.64,6.59,13,13,0,0,0,1.64,6.61,15.25,15.25,0,0,0,4.25,4.77,17.34,17.34,0,0,0,6,2.79,26.73,26.73,0,0,0,6.77.95,30.25,30.25,0,0,0,5.93-.51,32.34,32.34,0,0,0,4.95-1.41s1.71-.7,3.71-1.77l-3.93-3.94a23.9,23.9,0,0,1-2.58,1.21,25.2,25.2,0,0,1-3.81,1.11,24.19,24.19,0,0,1-4.68.47,13.27,13.27,0,0,1-4.25-.7,11.49,11.49,0,0,1-3.73-2.08,10.72,10.72,0,0,1-2.65-3.29,9.16,9.16,0,0,1-1-4.33,9.8,9.8,0,0,1,.9-4.3,8.59,8.59,0,0,1,2.53-3.15,11.41,11.41,0,0,1,3.85-1.92,17.62,17.62,0,0,1,4.88-.64,27.23,27.23,0,0,1,4.68.37c.68.13,1.3.28,1.89.45A16,16,0,0,1,584,953.7Z"/></g><polygon class="cls-4" points="772.68 946.51 801.73 976.02 809.78 976.02 780.71 946.51 772.68 946.51"/><polygon class="cls-4" points="809.77 946.51 780.73 976.02 772.68 976.02 801.75 946.51 809.77 946.51"/><polygon class="cls-4" points="635.64 976.06 635.64 973.66 635.64 946.46 629.94 946.46 629.94 967.86 608.94 946.48 608.94 946.46 603.25 946.46 603.25 976.06 608.94 976.06 608.94 954.72 629.94 976.05 629.94 976.06 629.95 976.06 635.64 976.06"/><g class="cls-3"><path class="cls-4" d="M740.27,922c0-8.2-23.63-14.92-53.59-15.5l-.25,2.27c24.7.58,44.12,6.53,44.12,13.79,0,7.43-20.37,13.5-45.92,13.82l.18,1.16c30.84-.33,55.47-7.16,55.47-15.53"/><path class="cls-4" d="M718.78,923.88c0,5.58-15.29,10.13-34.51,10.4l.18,1.15c22.4-.3,40.23-5.61,40.23-12.12,0-6.34-16.93-11.54-38.51-12.08l-.26,2.28c18.44.5,32.86,5,32.86,10.37"/><path class="cls-4" d="M713,924.58c0-4.49-12-8.19-27.3-8.65l-.26,2.28c12.22.41,21.7,3.36,21.7,6.93s-10.26,6.76-23.2,7l.18,1.14c16.09-.24,28.87-4,28.87-8.68"/><path class="cls-4" d="M624.61,922c0-8.2,23.63-14.92,53.59-15.5l.25,2.27c-24.7.58-44.12,6.53-44.12,13.79,0,7.43,20.37,13.5,45.92,13.82l-.18,1.16c-30.84-.33-55.47-7.16-55.47-15.53"/><path class="cls-4" d="M646.11,923.88c0,5.58,15.29,10.13,34.51,10.4l-.18,1.15c-22.4-.3-40.23-5.61-40.23-12.12,0-6.34,16.93-11.54,38.51-12.08l.26,2.28c-18.44.5-32.86,5-32.86,10.37"/><path class="cls-4" d="M651.92,924.58c0-4.49,12-8.19,27.3-8.65l.26,2.28c-12.22.41-21.7,3.36-21.7,6.93s10.26,6.76,23.2,7l-.18,1.14c-16.09-.24-28.87-4-28.87-8.68"/></g></svg>