<svg id="Layer_1" data-name="Layer 1" xmlns="http://www.w3.org/2000/svg" xmlns:xlink="http://www.w3.org/1999/xlink" viewBox="0 0 785 301"><defs><style>.cls-1,.cls-3{fill:none;}.cls-2{fill:#231f20;}.cls-3{stroke:#929497;stroke-width:0.5px;}.cls-4{font-size:12px;font-family:MarkOT-Heavy, Mark OT;}.cls-4,.cls-53{fill:#003e6b;}.cls-5{letter-spacing:-0.01em;}.cls-6{letter-spacing:0em;}.cls-7{letter-spacing:0em;}.cls-8{font-size:7.5px;font-family:MarkOT-Medium, Mark OT;}.cls-11,.cls-41,.cls-55,.cls-72,.cls-8{fill:#6d6e70;}.cls-9{letter-spacing:-0.02em;}.cls-10{letter-spacing:0em;}.cls-11{font-size:7px;}.cls-11,.cls-41{font-family:MarkOT-Book, Mark OT;}.cls-12{letter-spacing:0em;}.cls-13{letter-spacing:-0.02em;}.cls-14{letter-spacing:-0.08em;}.cls-15{letter-spacing:0em;}.cls-16{letter-spacing:-0.01em;}.cls-17{letter-spacing:-0.01em;}.cls-18{letter-spacing:-0.02em;}.cls-19{letter-spacing:0em;}.cls-20{letter-spacing:0.02em;}.cls-21{letter-spacing:0em;}.cls-22{letter-spacing:0em;}.cls-23{letter-spacing:0em;}.cls-24{letter-spacing:-0.04em;}.cls-25{letter-spacing:0.01em;}.cls-26{letter-spacing:-0.01em;}.cls-27{letter-spacing:0em;}.cls-28{letter-spacing:0.01em;}.cls-29{letter-spacing:-0.04em;}.cls-30{letter-spacing:-0.04em;}.cls-31{letter-spacing:-0.02em;}.cls-32{letter-spacing:0.01em;}.cls-33{letter-spacing:-0.02em;}.cls-34{letter-spacing:-0.02em;}.cls-35{letter-spacing:0.01em;}.cls-36{letter-spacing:-0.01em;}.cls-37{letter-spacing:-0.01em;}.cls-38{letter-spacing:-0.01em;}.cls-39{letter-spacing:0.01em;}.cls-40{letter-spacing:0.02em;}.cls-41{font-size:4.08px;}.cls-42{letter-spacing:-0.08em;}.cls-43{letter-spacing:-0.02em;}.cls-44{letter-spacing:0em;}.cls-45{letter-spacing:-0.01em;}.cls-46{letter-spacing:0.02em;}.cls-47{letter-spacing:0em;}.cls-48{letter-spacing:0.02em;}.cls-49{letter-spacing:-0.01em;}.cls-50{letter-spacing:-0.01em;}.cls-51{letter-spacing:-0.04em;}.cls-52{clip-path:url(#clip-path);}.cls-54{fill:#a3a6a8;}.cls-55{font-size:6px;font-family:MarkOT-Light, Mark OT;letter-spacing:-0.03em;}.cls-56{letter-spacing:-0.03em;}.cls-57{letter-spacing:-0.05em;}.cls-58{letter-spacing:-0.07em;}.cls-59{letter-spacing:-0.05em;}.cls-60{letter-spacing:-0.03em;}.cls-61{letter-spacing:-0.03em;}.cls-62{letter-spacing:-0.04em;}.cls-63{letter-spacing:-0.07em;}.cls-64{letter-spacing:-0.09em;}.cls-65{letter-spacing:-0.07em;}.cls-66{letter-spacing:0em;}.cls-67{letter-spacing:-0.02em;}.cls-68{letter-spacing:0.01em;}.cls-69{letter-spacing:0.03em;}.cls-70{clip-path:url(#clip-path-9);}.cls-71{fill:#fff;}.cls-73{clip-path:url(#clip-path-10);}.cls-74{clip-path:url(#clip-path-11);}</style><clipPath id="clip-path"><rect class="cls-1" x="-9" y="-4.62" width="793.52" height="311.62"/></clipPath><clipPath id="clip-path-9"><rect class="cls-1" x="277.71" y="15.8" width="234.13" height="112.92"/></clipPath><clipPath id="clip-path-10"><rect class="cls-1" x="541.36" y="15.8" width="234.13" height="112.92"/></clipPath><clipPath id="clip-path-11"><rect class="cls-1" x="541.45" y="171.2" width="234.13" height="112.92"/></clipPath></defs><title>digitalmedia</title><rect class="cls-2" x="269.18" y="0.26" width="252" height="144"/><rect class="cls-3" x="0.25" y="156.25" width="251.5" height="143.5"/><text class="cls-4" transform="translate(18.29 29.86)">NIC<tspan class="cls-5" x="21.74" y="0">K</tspan><tspan x="30.16" y="0" xml:space="preserve"> PRIGIONIE</tspan><tspan class="cls-6" x="95.54" y="0">R</tspan><tspan class="cls-7" x="103.61" y="0" xml:space="preserve">O  </tspan></text><text class="cls-8" transform="translate(18.29 38.46)">P<tspan class="cls-9" x="4.96" y="0">r</tspan><tspan x="8.04" y="0">eside</tspan><tspan class="cls-10" x="26.93" y="0">n</tspan><tspan x="31.44" y="0">t</tspan></text><text class="cls-4" transform="translate(18.29 189.48)">NIC<tspan class="cls-5" x="21.74" y="0">K</tspan><tspan x="30.16" y="0" xml:space="preserve"> PRIGIONIE</tspan><tspan class="cls-6" x="95.54" y="0">R</tspan><tspan class="cls-7" x="103.61" y="0" xml:space="preserve">O  </tspan></text><text class="cls-8" transform="translate(18.29 198.08)">P<tspan class="cls-9" x="4.96" y="0">r</tspan><tspan x="8.04" y="0">eside</tspan><tspan class="cls-10" x="26.93" y="0">n</tspan><tspan x="31.44" y="0">t</tspan></text><text class="cls-11" transform="translate(18.29 57.84)">3<tspan class="cls-12" x="3.92" y="0">6</tspan><tspan x="7.95" y="0">9</tspan><tspan class="cls-13" x="12.01" y="0"> </tspan><tspan class="cls-14" x="13.73" y="0">Y</tspan><tspan class="cls-15" x="17.74" y="0">or</tspan><tspan class="cls-16" x="24.9" y="0">k</tspan><tspan x="28.57" y="0"> </tspan><tspan class="cls-17" x="30.44" y="0">S</tspan><tspan x="35.11" y="0">t</tspan><tspan class="cls-18" x="38.29" y="0">r</tspan><tspan x="41.09" y="0">e</tspan><tspan class="cls-19" x="45.01" y="0">e</tspan><tspan class="cls-20" x="48.91" y="0">t</tspan><tspan class="cls-21" x="52.24" y="0">, Sui</tspan><tspan class="cls-22" x="66.52" y="0">t</tspan><tspan x="69.7" y="0">e 2C</tspan></text><text class="cls-11" transform="translate(18.29 66.33)">London, ON, N6B 3R4</text><text class="cls-11" transform="translate(18.29 83.34)">P:<tspan class="cls-23" x="6.48" y="0"> </tspan><tspan x="8.36" y="0">51</tspan><tspan class="cls-24" x="15.36" y="0">9</tspan><tspan class="cls-25" x="19.13" y="0">.</tspan><tspan class="cls-15" x="21.03" y="0">438</tspan><tspan class="cls-26" x="33.41" y="0">.</tspan><tspan class="cls-21" x="35.17" y="0">0111</tspan><tspan class="cls-27" x="48.99" y="0"> </tspan><tspan class="cls-21" x="50.84" y="0">x1</tspan><tspan class="cls-28" x="57.39" y="0">0</tspan><tspan x="62.39" y="0">4</tspan></text><text class="cls-11" transform="translate(18.29 91.84)">C: 51<tspan class="cls-29" x="16.07" y="0">9</tspan><tspan x="19.84" y="0">.63</tspan><tspan class="cls-30" x="29.66" y="0">9</tspan><tspan class="cls-31" x="33.42" y="0">.</tspan><tspan x="35.12" y="0">7556</tspan></text><text class="cls-11" transform="translate(18.29 100.33)">Nic<tspan class="cls-32" x="10.9" y="0">k</tspan><tspan class="cls-21" x="14.7" y="0">.Prigionie</tspan><tspan class="cls-33" x="46.15" y="0">r</tspan><tspan x="48.98" y="0">o@Cinepl</tspan><tspan class="cls-34" x="81.54" y="0">e</tspan><tspan class="cls-35" x="85.35" y="0">x</tspan><tspan class="cls-36" x="89.06" y="0">.</tspan><tspan class="cls-37" x="90.85" y="0">c</tspan><tspan x="94.38" y="0">om</tspan></text><text class="cls-11" transform="translate(18.29 108.83)">Cinepl<tspan class="cls-34" x="21.42" y="0">e</tspan><tspan x="25.23" y="0">xDigi</tspan><tspan class="cls-22" x="42.31" y="0">t</tspan><tspan class="cls-15" x="45.49" y="0">alMedia</tspan><tspan class="cls-17" x="72.64" y="0">.</tspan><tspan class="cls-38" x="74.44" y="0">c</tspan><tspan class="cls-15" x="77.97" y="0">om</tspan></text><rect class="cls-3" x="0.25" y="0.63" width="251.5" height="143.5"/><text class="cls-11" transform="translate(18.29 217.46)"><tspan class="cls-39">4</tspan><tspan x="4.11" y="0">89 Queen </tspan><tspan class="cls-19" x="38.49" y="0">S</tspan><tspan class="cls-40" x="43.18" y="0">t</tspan><tspan x="46.51" y="0">. </tspan><tspan class="cls-19" x="50.22" y="0">E</tspan><tspan x="54.92" y="0">ast 1</tspan></text><text class="cls-41" transform="translate(89.03 215.12)">st</text><text class="cls-11" transform="translate(92.91 217.46)"> <tspan class="cls-16" x="1.87" y="0">F</tspan><tspan x="6.36" y="0">loor</tspan></text><text class="cls-11" transform="translate(18.3 225.95)"><tspan class="cls-42">T</tspan><tspan class="cls-15" x="3.68" y="0">o</tspan><tspan class="cls-43" x="7.9" y="0">r</tspan><tspan x="10.7" y="0">o</tspan><tspan class="cls-44" x="14.93" y="0">n</tspan><tspan x="19.11" y="0">t</tspan><tspan class="cls-16" x="22.28" y="0">o</tspan><tspan x="26.46" y="0">, ON, M5</tspan><tspan class="cls-45" x="55.75" y="0">A</tspan><tspan x="60.66" y="0" xml:space="preserve"> 1V1, </tspan><tspan class="cls-36" x="76.94" y="0">C</tspan><tspan class="cls-15" x="82.24" y="0">anada</tspan></text><text class="cls-11" transform="translate(18.3 245.95)">P: 1.888.3<tspan class="cls-37" x="32.18" y="0">6</tspan><tspan x="36.18" y="0">1.</tspan><tspan class="cls-46" x="40.96" y="0">6</tspan><tspan class="cls-47" x="45.17" y="0">4</tspan><tspan class="cls-48" x="49.22" y="0">6</tspan><tspan x="53.43" y="0">4 (toll</tspan><tspan class="cls-49" x="73.19" y="0"> </tspan><tspan class="cls-50" x="75.02" y="0">f</tspan><tspan class="cls-43" x="77.95" y="0">r</tspan><tspan x="80.75" y="0">e</tspan><tspan class="cls-51" x="84.67" y="0">e</tspan><tspan x="88.32" y="0">)</tspan></text><text class="cls-11" transform="translate(18.3 253.95)">C: 51<tspan class="cls-29" x="16.07" y="0">9</tspan><tspan x="19.84" y="0">.63</tspan><tspan class="cls-30" x="29.66" y="0">9</tspan><tspan class="cls-31" x="33.42" y="0">.</tspan><tspan x="35.12" y="0">7556</tspan></text><text class="cls-11" transform="translate(18.3 262.45)">Nic<tspan class="cls-32" x="10.9" y="0">k</tspan><tspan class="cls-21" x="14.7" y="0">.Prigionie</tspan><tspan class="cls-33" x="46.15" y="0">r</tspan><tspan x="48.98" y="0">o@Cinepl</tspan><tspan class="cls-34" x="81.54" y="0">e</tspan><tspan class="cls-35" x="85.35" y="0">x</tspan><tspan class="cls-36" x="89.06" y="0">.</tspan><tspan class="cls-37" x="90.85" y="0">c</tspan><tspan x="94.38" y="0">om</tspan></text><text class="cls-11" transform="translate(18.3 270.95)">Cinepl<tspan class="cls-34" x="21.42" y="0">e</tspan><tspan x="25.23" y="0">xDigi</tspan><tspan class="cls-22" x="42.31" y="0">t</tspan><tspan class="cls-15" x="45.49" y="0">alMedia</tspan><tspan class="cls-17" x="72.64" y="0">.</tspan><tspan class="cls-38" x="74.44" y="0">c</tspan><tspan class="cls-15" x="77.97" y="0">om</tspan></text><g class="cls-52"><path class="cls-53" d="M233.88,115.57a.44.44,0,0,0-.14-.33.46.46,0,0,0-.79.33.45.45,0,0,0,.13.33.46.46,0,0,0,.79-.33m-.07,0a.39.39,0,0,1-.12.28.38.38,0,0,1-.28.12.38.38,0,0,1-.28-.12.4.4,0,1,1,.68-.28m-.22.07a.13.13,0,0,0-.09-.05l.07,0a.11.11,0,0,0,0-.1.13.13,0,0,0-.08-.13l-.14,0h-.18v.51h.09v-.2h.07l.1,0s0,.06,0,.12v.06h.08v-.1a.14.14,0,0,0,0-.08m-.1-.09h-.17v-.18h.08a.22.22,0,0,1,.11,0,.08.08,0,0,1,0,.07.08.08,0,0,1-.05.08"/><path class="cls-53" d="M215.71,122.52h7v-1.24h-5.36v-1.84h3.54V118.2h-3.54v-1.84h5.19V115.1h-6.85Zm-8.49,0h7.25v-1.24h-5.62V115.1h-1.63Zm-1-5.22a1.86,1.86,0,0,0-.76-1.7,4.24,4.24,0,0,0-2.27-.49h-4.54v7.39h1.65v-3.06h2.89a4.43,4.43,0,0,0,2.27-.46,1.8,1.8,0,0,0,.76-1.67m-1.65,0a.71.71,0,0,1-.36.72,2.08,2.08,0,0,1-.91.18h-3v-1.83h3a1.78,1.78,0,0,1,.91.21.77.77,0,0,1,.36.73m-14.18,5.21h7v-1.24h-5.36v-1.83h3.54v-1.24h-3.54v-1.85h5.19V115.1H190.4Zm-12.28,0h1.65v-7.42h-1.65Z"/><path class="cls-53" d="M177.2,115.91a5.35,5.35,0,0,0-1.12-.52,6.13,6.13,0,0,0-1-.27,7.77,7.77,0,0,0-1.3-.12,6.84,6.84,0,0,0-1.79.24,4.86,4.86,0,0,0-1.54.72,3.76,3.76,0,0,0-1.08,1.19,3.21,3.21,0,0,0-.41,1.65,3.25,3.25,0,0,0,.41,1.65,3.82,3.82,0,0,0,1.07,1.19,4.34,4.34,0,0,0,1.5.7,6.65,6.65,0,0,0,1.7.24,7.6,7.6,0,0,0,1.49-.13,8.07,8.07,0,0,0,1.24-.35s.43-.18.93-.44l-1-1a6.14,6.14,0,0,1-.65.3,6.41,6.41,0,0,1-1,.28,6.08,6.08,0,0,1-1.17.12,3.33,3.33,0,0,1-1.07-.18,2.9,2.9,0,0,1-.94-.52,2.69,2.69,0,0,1-.66-.82,2.29,2.29,0,0,1-.25-1.09,2.47,2.47,0,0,1,.23-1.08,2.16,2.16,0,0,1,.63-.79,2.87,2.87,0,0,1,1-.48,4.41,4.41,0,0,1,1.22-.16,6.81,6.81,0,0,1,1.17.09l.47.11a4,4,0,0,1,1,.44Z"/></g><polygon class="cls-53" points="223.48 115.1 230.76 122.49 232.78 122.49 225.49 115.1 223.48 115.1"/><polygon class="cls-53" points="232.78 115.1 225.5 122.49 223.48 122.49 230.77 115.1 232.78 115.1"/><polygon class="cls-53" points="189.15 122.5 189.15 121.9 189.15 115.09 187.72 115.09 187.72 120.45 182.46 115.09 182.46 115.09 181.03 115.09 181.03 122.5 182.46 122.5 182.46 117.16 187.72 122.5 187.72 122.5 187.72 122.5 189.15 122.5"/><g class="cls-52"><path class="cls-54" d="M215.19,109c0-2.05-5.92-3.74-13.43-3.88l-.06.57c6.19.15,11.05,1.63,11.05,3.45s-5.1,3.38-11.51,3.46l0,.29c7.73-.08,13.9-1.79,13.9-3.89"/><path class="cls-54" d="M209.8,109.43c0,1.4-3.83,2.54-8.65,2.61l0,.29c5.61-.08,10.08-1.4,10.08-3s-4.24-2.89-9.65-3l-.06.57c4.62.13,8.23,1.24,8.23,2.6"/><path class="cls-54" d="M208.34,109.61c0-1.13-3-2.05-6.84-2.17l-.06.57c3.06.1,5.44.84,5.44,1.74s-2.57,1.69-5.81,1.75l0,.28c4-.06,7.23-1,7.23-2.18"/><path class="cls-54" d="M186.21,109c0-2.05,5.92-3.74,13.43-3.88l.06.57c-6.19.15-11.05,1.63-11.05,3.45s5.1,3.38,11.51,3.46l0,.29c-7.73-.08-13.9-1.79-13.9-3.89"/><path class="cls-54" d="M191.59,109.43c0,1.4,3.83,2.54,8.65,2.61l0,.29c-5.61-.08-10.08-1.4-10.08-3s4.24-2.89,9.65-3l.06.57c-4.62.13-8.23,1.24-8.23,2.6"/><path class="cls-54" d="M193,109.61c0-1.13,3-2.05,6.84-2.17l.06.57c-3.06.1-5.44.84-5.44,1.74s2.57,1.69,5.81,1.75l0,.28c-4-.06-7.23-1-7.23-2.18"/><path class="cls-53" d="M180.93,125v2.74h.92a1.37,1.37,0,0,0,0-2.74Zm.92-.6a2,2,0,1,1,0,3.94h-1.54v-3.94Z"/></g><rect class="cls-53" x="184.59" y="124.37" width="0.63" height="3.94"/><g class="cls-52"><path class="cls-53" d="M189.49,124.93l-.46.45a1.33,1.33,0,0,0-1-.48,1.43,1.43,0,0,0,0,2.87,1.12,1.12,0,0,0,1.22-1h-1v-.59h1.71c0,.05,0,.1,0,.15a1.91,1.91,0,0,1-1.91,2.07,2,2,0,1,1,1.53-3.45"/></g><rect class="cls-53" x="190.59" y="124.37" width="0.63" height="3.94"/><polygon class="cls-53" points="194.88 124.97 193.62 124.97 193.62 128.31 193 128.31 193 124.97 191.74 124.97 191.74 124.37 194.88 124.37 194.88 124.97"/><path class="cls-53" d="M195.94,126.7h1.3l-.65-1.7Zm2.58,1.61h-.67l-.38-1h-1.76l-.38,1h-.65l1.53-3.94H197Z"/><polygon class="cls-53" points="201.8 128.31 199.02 128.31 199.02 124.37 199.65 124.37 199.65 127.71 201.8 127.71 201.8 128.31"/><polygon class="cls-53" points="207.75 128.31 207.12 128.31 207.12 125.07 205.99 127.92 205.32 127.92 204.19 125.1 204.19 128.31 203.56 128.31 203.56 124.37 204.53 124.37 205.66 127.19 206.78 124.37 207.75 124.37 207.75 128.31"/><polygon class="cls-53" points="211.52 128.31 208.69 128.31 208.69 124.37 211.48 124.37 211.48 124.97 209.31 124.97 209.31 126.03 211.41 126.03 211.41 126.63 209.31 126.63 209.31 127.71 211.52 127.71 211.52 128.31"/><g class="cls-52"><path class="cls-53" d="M213,125v2.74h.92a1.37,1.37,0,0,0,0-2.74Zm.92-.6a2,2,0,1,1,0,3.94h-1.54v-3.94Z"/></g><rect class="cls-53" x="216.64" y="124.37" width="0.63" height="3.94"/><path class="cls-53" d="M219,126.7h1.3l-.65-1.7Zm2.58,1.61h-.67l-.38-1H218.8l-.38,1h-.65l1.53-3.94h.78Z"/><g class="cls-52"><path class="cls-53" d="M233.88,275.19a.44.44,0,0,0-.14-.33.46.46,0,0,0-.79.33.45.45,0,0,0,.13.33.46.46,0,0,0,.79-.33m-.07,0a.39.39,0,0,1-.12.28.38.38,0,0,1-.28.12.38.38,0,0,1-.28-.12.4.4,0,1,1,.68-.28m-.22.07a.13.13,0,0,0-.09-.05l.07,0a.11.11,0,0,0,0-.1.13.13,0,0,0-.08-.13l-.14,0h-.18v.51h.09v-.2h.07l.1,0s0,.06,0,.12v.06h.08v-.1a.14.14,0,0,0,0-.08m-.1-.09h-.17V275h.08a.22.22,0,0,1,.11,0,.08.08,0,0,1,0,.07.08.08,0,0,1-.05.08"/><path class="cls-53" d="M215.71,282.14h7V280.9h-5.36v-1.84h3.54v-1.24h-3.54V276h5.19v-1.25h-6.85Zm-8.49,0h7.25v-1.24h-5.62v-6.19h-1.63Zm-1-5.22a1.86,1.86,0,0,0-.76-1.7,4.24,4.24,0,0,0-2.27-.49h-4.54v7.39h1.65v-3.06h2.89a4.43,4.43,0,0,0,2.27-.46,1.8,1.8,0,0,0,.76-1.67m-1.65,0a.71.71,0,0,1-.36.72,2.08,2.08,0,0,1-.91.18h-3V276h3a1.79,1.79,0,0,1,.91.21.77.77,0,0,1,.36.73m-14.18,5.21h7V280.9h-5.36v-1.83h3.54v-1.24h-3.54V276h5.19v-1.25H190.4Zm-12.28,0h1.65v-7.42h-1.65Z"/><path class="cls-53" d="M177.2,275.53a5.35,5.35,0,0,0-1.12-.52,6.13,6.13,0,0,0-1-.27,7.77,7.77,0,0,0-1.3-.12,6.84,6.84,0,0,0-1.79.24,4.86,4.86,0,0,0-1.54.72,3.76,3.76,0,0,0-1.08,1.19,3.21,3.21,0,0,0-.41,1.65,3.25,3.25,0,0,0,.41,1.66,3.82,3.82,0,0,0,1.07,1.19,4.34,4.34,0,0,0,1.5.7,6.65,6.65,0,0,0,1.7.24,7.6,7.6,0,0,0,1.49-.13,8.07,8.07,0,0,0,1.24-.35s.43-.18.93-.44l-1-1a6.14,6.14,0,0,1-.65.3,6.41,6.41,0,0,1-1,.28,6.08,6.08,0,0,1-1.17.12,3.33,3.33,0,0,1-1.07-.18,2.9,2.9,0,0,1-.94-.52,2.69,2.69,0,0,1-.66-.82,2.29,2.29,0,0,1-.25-1.09,2.47,2.47,0,0,1,.23-1.08,2.16,2.16,0,0,1,.63-.79,2.87,2.87,0,0,1,1-.48,4.41,4.41,0,0,1,1.22-.16,6.81,6.81,0,0,1,1.17.09l.47.11a4,4,0,0,1,1,.44Z"/></g><polygon class="cls-53" points="223.48 274.72 230.76 282.11 232.78 282.11 225.49 274.72 223.48 274.72"/><polygon class="cls-53" points="232.78 274.72 225.5 282.11 223.48 282.11 230.77 274.72 232.78 274.72"/><polygon class="cls-53" points="189.15 282.12 189.15 281.52 189.15 274.71 187.72 274.71 187.72 280.07 182.46 274.71 182.46 274.71 181.03 274.71 181.03 282.12 182.46 282.12 182.46 276.77 187.72 282.12 187.72 282.12 187.72 282.12 189.15 282.12"/><g class="cls-52"><path class="cls-54" d="M215.19,268.58c0-2.05-5.92-3.74-13.43-3.88l-.06.57c6.19.15,11.05,1.63,11.05,3.45s-5.1,3.38-11.51,3.46l0,.29c7.73-.08,13.9-1.79,13.9-3.89"/><path class="cls-54" d="M209.8,269c0,1.4-3.83,2.54-8.65,2.61l0,.29c5.61-.08,10.08-1.4,10.08-3s-4.24-2.89-9.65-3l-.06.57c4.62.13,8.23,1.24,8.23,2.6"/><path class="cls-54" d="M208.34,269.22c0-1.13-3-2.05-6.84-2.17l-.06.57c3.06.1,5.44.84,5.44,1.74s-2.57,1.69-5.81,1.75l0,.28c4-.06,7.23-1,7.23-2.18"/><path class="cls-54" d="M186.21,268.58c0-2.05,5.92-3.74,13.43-3.88l.06.57c-6.19.15-11.05,1.63-11.05,3.45s5.1,3.38,11.51,3.46l0,.29c-7.73-.08-13.9-1.79-13.9-3.89"/><path class="cls-54" d="M191.59,269c0,1.4,3.83,2.54,8.65,2.61l0,.29c-5.61-.08-10.08-1.4-10.08-3s4.24-2.89,9.65-3l.06.57c-4.62.13-8.23,1.24-8.23,2.6"/><path class="cls-54" d="M193,269.22c0-1.13,3-2.05,6.84-2.17l.06.57c-3.06.1-5.44.84-5.44,1.74s2.57,1.69,5.81,1.75l0,.28c-4-.06-7.23-1-7.23-2.18"/><path class="cls-53" d="M180.93,284.59v2.74h.92a1.37,1.37,0,0,0,0-2.74Zm.92-.6a2,2,0,1,1,0,3.94h-1.54V284Z"/></g><rect class="cls-53" x="184.59" y="283.99" width="0.63" height="3.94"/><g class="cls-52"><path class="cls-53" d="M189.49,284.55,189,285a1.33,1.33,0,0,0-1-.48,1.43,1.43,0,0,0,0,2.86,1.12,1.12,0,0,0,1.22-1h-1v-.59h1.71c0,.05,0,.1,0,.15A1.91,1.91,0,0,1,188,288a2,2,0,1,1,1.53-3.45"/></g><rect class="cls-53" x="190.59" y="283.99" width="0.63" height="3.94"/><polygon class="cls-53" points="194.88 284.59 193.62 284.59 193.62 287.93 193 287.93 193 284.59 191.74 284.59 191.74 283.99 194.88 283.99 194.88 284.59"/><path class="cls-53" d="M195.94,286.32h1.3l-.65-1.7Zm2.58,1.61h-.67l-.38-1h-1.76l-.38,1h-.65l1.53-3.94H197Z"/><polygon class="cls-53" points="201.8 287.93 199.02 287.93 199.02 283.99 199.65 283.99 199.65 287.33 201.8 287.33 201.8 287.93"/><polygon class="cls-53" points="207.75 287.93 207.12 287.93 207.12 284.69 205.99 287.54 205.32 287.54 204.19 284.72 204.19 287.93 203.56 287.93 203.56 283.99 204.53 283.99 205.66 286.8 206.78 283.99 207.75 283.99 207.75 287.93"/><polygon class="cls-53" points="211.52 287.93 208.69 287.93 208.69 283.99 211.48 283.99 211.48 284.59 209.31 284.59 209.31 285.65 211.41 285.65 211.41 286.24 209.31 286.24 209.31 287.33 211.52 287.33 211.52 287.93"/><g class="cls-52"><path class="cls-53" d="M213,284.59v2.74h.92a1.37,1.37,0,0,0,0-2.74Zm.92-.6a2,2,0,1,1,0,3.94h-1.54V284Z"/></g><rect class="cls-53" x="216.64" y="283.99" width="0.63" height="3.94"/><path class="cls-53" d="M219,286.32h1.3l-.65-1.7Zm2.58,1.61h-.67l-.38-1H218.8l-.38,1h-.65L219.3,284h.78Z"/><text class="cls-55" transform="translate(18.29 127.63)">C<tspan class="cls-56" x="4.41" y="0">HI</tspan><tspan x="10.37" y="0">C</tspan><tspan class="cls-57" x="14.78" y="0">A</tspan><tspan class="cls-56" x="18.7" y="0" xml:space="preserve">GO  |  </tspan><tspan class="cls-58" x="35.87" y="0">L</tspan><tspan class="cls-56" x="39.07" y="0">ONDON</tspan><tspan x="62.5" y="0"> </tspan><tspan class="cls-56" x="63.91" y="0" xml:space="preserve"> | </tspan><tspan class="cls-59" x="68.66" y="0" xml:space="preserve"> T</tspan><tspan class="cls-56" x="73.27" y="0">ORON</tspan><tspan class="cls-59" x="91.39" y="0">T</tspan><tspan class="cls-60" x="94.72" y="0">O</tspan><tspan class="cls-61" x="99.6" y="0" xml:space="preserve">  | </tspan><tspan class="cls-62" x="105.75" y="0"> </tspan><tspan class="cls-63" x="107.09" y="0">W</tspan><tspan class="cls-64" x="113.27" y="0">A</tspan><tspan class="cls-61" x="116.97" y="0">TER</tspan><tspan class="cls-65" x="128.12" y="0">L</tspan><tspan class="cls-56" x="131.32" y="0">O</tspan><tspan class="cls-66" x="136.19" y="0">O</tspan></text><text class="cls-55" transform="translate(18.29 287.25)">C<tspan class="cls-56" x="4.41" y="0">HI</tspan><tspan x="10.37" y="0">C</tspan><tspan class="cls-57" x="14.78" y="0">A</tspan><tspan class="cls-56" x="18.7" y="0" xml:space="preserve">GO  |  </tspan><tspan class="cls-58" x="35.87" y="0">L</tspan><tspan class="cls-56" x="39.07" y="0">ONDON</tspan><tspan x="62.5" y="0"> </tspan><tspan class="cls-56" x="63.91" y="0" xml:space="preserve"> | </tspan><tspan class="cls-59" x="68.66" y="0" xml:space="preserve"> T</tspan><tspan class="cls-56" x="73.27" y="0">ORON</tspan><tspan class="cls-59" x="91.39" y="0">T</tspan><tspan class="cls-60" x="94.72" y="0">O</tspan><tspan class="cls-61" x="99.6" y="0" xml:space="preserve">  | </tspan><tspan class="cls-62" x="105.75" y="0"> </tspan><tspan class="cls-63" x="107.09" y="0">W</tspan><tspan class="cls-64" x="113.27" y="0">A</tspan><tspan class="cls-61" x="116.97" y="0">TER</tspan><tspan class="cls-65" x="128.12" y="0">L</tspan><tspan class="cls-56" x="131.32" y="0">O</tspan><tspan class="cls-66" x="136.19" y="0">O</tspan></text><text class="cls-11" transform="translate(128.85 217.46)"><tspan class="cls-67">7</tspan><tspan x="3.69" y="0">00 </tspan><tspan class="cls-16" x="15.5" y="0">C</tspan><tspan x="20.81" y="0">omme</tspan><tspan class="cls-18" x="42.33" y="0">r</tspan><tspan class="cls-37" x="45.13" y="0">c</tspan><tspan x="48.66" y="0">e Dri</tspan><tspan class="cls-12" x="64.75" y="0">v</tspan><tspan class="cls-36" x="68.39" y="0">e</tspan><tspan x="72.26" y="0">, Sui</tspan><tspan class="cls-23" x="86.55" y="0">t</tspan><tspan class="cls-21" x="89.73" y="0">e 500</tspan></text><text class="cls-11" transform="translate(128.85 225.95)"><tspan class="cls-23">O</tspan><tspan x="5.92" y="0">a</tspan><tspan class="cls-16" x="10.29" y="0">k</tspan><tspan x="13.96" y="0" xml:space="preserve"> B</tspan><tspan class="cls-43" x="20.74" y="0">r</tspan><tspan x="23.54" y="0">oo</tspan><tspan class="cls-68" x="31.99" y="0">k</tspan><tspan x="35.79" y="0">, I</tspan><tspan class="cls-69" x="41.41" y="0">L</tspan><tspan x="45.89" y="0">, 60523, U</tspan><tspan class="cls-19" x="79.29" y="0">S</tspan><tspan x="83.98" y="0">A</tspan></text><g class="cls-70"><path class="cls-71" d="M470.57,69.38a.7.7,0,0,1-.2,0h-.19V69h.18a.55.55,0,0,1,.25,0,.17.17,0,0,1,.08.17.18.18,0,0,1-.12.18m.24.19a.29.29,0,0,0-.2-.11.45.45,0,0,0,.17-.06.24.24,0,0,0,.12-.22.28.28,0,0,0-.18-.29.93.93,0,0,0-.32,0H470V70h.21v-.45h.16a.53.53,0,0,1,.23,0,.27.27,0,0,1,.11.26V70h.19v-.23a.32.32,0,0,0-.06-.17m.52-.15a.85.85,0,0,1-.26.63.91.91,0,0,1-.65.26.89.89,0,0,1-.65-.26.87.87,0,0,1,0-1.26.94.94,0,0,1,1.3,0,.84.84,0,0,1,.26.63m.15,0a1,1,0,0,0-.31-.73,1.1,1.1,0,0,0-1.51,0,1,1,0,0,0,0,1.46,1.09,1.09,0,0,0,1.51,0,1,1,0,0,0,.31-.73"/><path class="cls-71" d="M342.6,84.91h3.8V68.38h-3.8Zm28.39,0H387.2V82.15H374.82V78.06H383V75.29h-8.18V71.17h12V68.38H371ZM403.76,73.3a1.58,1.58,0,0,1-.84,1.6,4.94,4.94,0,0,1-2.1.39H393.9V71.2h6.93a4.26,4.26,0,0,1,2.1.47,1.71,1.71,0,0,1,.84,1.63m3.82,0a4.1,4.1,0,0,0-1.75-3.79,10.1,10.1,0,0,0-5.25-1.09h-10.5V84.89h3.83V78.06h6.68a10.55,10.55,0,0,0,5.25-1,4,4,0,0,0,1.75-3.73m2.3,11.64h16.75V82.17h-13V68.37h-3.76Zm19.61,0h16.21V82.15H433.32V78h8.18V75.28h-8.18V71.17h12V68.38H429.49Z"/><path class="cls-71" d="M340.47,70.18A12.63,12.63,0,0,0,337.88,69a14.68,14.68,0,0,0-2.4-.6,18.72,18.72,0,0,0-3-.26,16.36,16.36,0,0,0-4.13.52,11.44,11.44,0,0,0-3.57,1.6,8.5,8.5,0,0,0-2.5,2.64,7,7,0,0,0-1,3.68,7.07,7.07,0,0,0,1,3.69A8.64,8.64,0,0,0,324.74,83a10.23,10.23,0,0,0,3.46,1.56,16,16,0,0,0,3.92.53,18.2,18.2,0,0,0,3.44-.29,19.29,19.29,0,0,0,2.87-.79s1-.39,2.15-1l-2.27-2.2a14.2,14.2,0,0,1-1.5.67,15,15,0,0,1-2.2.62,14.49,14.49,0,0,1-2.71.26,7.93,7.93,0,0,1-2.46-.39,6.71,6.71,0,0,1-2.16-1.16A6,6,0,0,1,325.73,79a5,5,0,0,1-.58-2.42,5.32,5.32,0,0,1,.52-2.4,4.84,4.84,0,0,1,1.47-1.76,6.7,6.7,0,0,1,2.23-1.07,10.58,10.58,0,0,1,2.83-.36,16.35,16.35,0,0,1,2.71.21c.39.07.75.16,1.09.25a9.45,9.45,0,0,1,2.21,1Z"/><polygon class="cls-71" points="447.44 68.37 464.26 84.85 468.92 84.85 452.09 68.37 447.44 68.37"/><polygon class="cls-71" points="468.92 68.37 452.1 84.85 447.44 84.85 464.28 68.37 468.92 68.37"/><polygon class="cls-71" points="368.08 84.87 368.08 83.53 368.08 68.34 364.78 68.34 364.78 80.3 352.62 68.35 352.62 68.34 349.32 68.34 349.32 84.87 352.62 84.87 352.62 72.95 364.78 84.87 364.78 84.87 364.79 84.87 368.08 84.87"/><path class="cls-71" d="M428.27,54.69c0-4.58-13.69-8.33-31-8.66l-.15,1.27c14.3.32,25.55,3.65,25.55,7.7S410.84,62.54,396,62.72l.1.65c17.86-.19,32.12-4,32.12-8.68"/><path class="cls-71" d="M415.82,55.73c0,3.12-8.85,5.66-20,5.81l.1.64c13-.17,23.3-3.13,23.3-6.77s-9.8-6.45-22.3-6.75l-.15,1.27c10.68.28,19,2.77,19,5.79"/><path class="cls-71" d="M412.45,56.12c0-2.51-6.92-4.58-15.81-4.83l-.15,1.27c7.08.23,12.57,1.88,12.57,3.87s-5.94,3.78-13.44,3.9l.1.64c9.32-.13,16.72-2.25,16.72-4.85"/><path class="cls-71" d="M361.29,54.69c0-4.58,13.69-8.33,31-8.66l.15,1.27c-14.3.32-25.55,3.65-25.55,7.7s11.8,7.54,26.59,7.72l-.1.65c-17.86-.19-32.12-4-32.12-8.68"/><path class="cls-71" d="M373.74,55.73c0,3.12,8.85,5.66,20,5.81l-.1.64c-13-.17-23.3-3.13-23.3-6.77s9.8-6.45,22.3-6.75l.15,1.27c-10.68.28-19,2.77-19,5.79"/><path class="cls-71" d="M377.11,56.12c0-2.51,6.92-4.58,15.81-4.83l.15,1.27c-7.08.23-12.57,1.88-12.57,3.87s5.94,3.78,13.44,3.9l-.1.64c-9.32-.13-16.72-2.25-16.72-4.85"/><path class="cls-71" d="M351.21,89c2.81,0,4.66,1.74,4.66,4.39s-1.85,4.39-4.66,4.39h-3.56V89Zm-2.11,1.34v6.1h2.11a3.05,3.05,0,1,0,0-6.1Z"/><rect class="cls-71" x="357.56" y="89.03" width="1.45" height="8.79"/><path class="cls-71" d="M368.87,90.29l-1.06,1a3.11,3.11,0,0,0-2.41-1.07,3.19,3.19,0,0,0-.06,6.39,2.56,2.56,0,0,0,2.83-2.28h-2.38V93h3.95c0,.11,0,.23,0,.34A4.32,4.32,0,0,1,365.33,98a4.55,4.55,0,1,1,.06-9.11,4.63,4.63,0,0,1,3.47,1.42"/><rect class="cls-71" x="371.43" y="89.03" width="1.45" height="8.79"/><polygon class="cls-71" points="381.33 90.38 378.43 90.38 378.43 97.82 376.98 97.82 376.98 90.38 374.08 90.38 374.08 89.03 381.33 89.03 381.33 90.38"/><path class="cls-71" d="M389.76,97.82H388.2l-.88-2.24h-4.06l-.88,2.24h-1.51L384.41,89h1.81Zm-6-3.58h3l-1.5-3.79Z"/><polygon class="cls-71" points="397.32 97.82 390.91 97.82 390.91 89.03 392.36 89.03 392.36 96.48 397.32 96.48 397.32 97.82"/><polygon class="cls-71" points="411.07 97.82 409.62 97.82 409.62 90.59 407 96.96 405.48 96.96 402.86 90.66 402.86 97.82 401.41 97.82 401.41 89.03 403.63 89.03 406.24 95.31 408.85 89.03 411.07 89.03 411.07 97.82"/><polygon class="cls-71" points="419.79 97.82 413.25 97.82 413.25 89.03 419.7 89.03 419.7 90.36 414.69 90.36 414.69 92.73 419.53 92.73 419.53 94.06 414.69 94.06 414.69 96.49 419.79 96.49 419.79 97.82"/><path class="cls-71" d="M425.28,89c2.81,0,4.66,1.74,4.66,4.39s-1.85,4.39-4.66,4.39h-3.56V89Zm-2.11,1.34v6.1h2.11a3.05,3.05,0,1,0,0-6.1Z"/><rect class="cls-71" x="431.63" y="89.03" width="1.45" height="8.79"/><path class="cls-71" d="M443.12,97.82h-1.56l-.88-2.24h-4.06l-.88,2.24h-1.51L437.77,89h1.81Zm-6-3.58h3l-1.5-3.79Z"/></g><rect class="cls-53" x="532.42" y="0.26" width="252" height="144"/><rect class="cls-72" x="532.52" y="155.66" width="252" height="144"/><g class="cls-73"><path class="cls-71" d="M734.22,69.38a.7.7,0,0,1-.2,0h-.19V69H734a.55.55,0,0,1,.25,0,.17.17,0,0,1,.08.17.18.18,0,0,1-.12.18m.24.19a.29.29,0,0,0-.2-.11.45.45,0,0,0,.17-.06.24.24,0,0,0,.12-.22.28.28,0,0,0-.18-.29.93.93,0,0,0-.32,0h-.41V70h.21v-.45H734a.53.53,0,0,1,.23,0,.27.27,0,0,1,.11.26V70h.19v-.23a.32.32,0,0,0-.06-.17m.52-.15a.85.85,0,0,1-.26.63.91.91,0,0,1-.65.26.89.89,0,0,1-.65-.26.87.87,0,0,1,0-1.26.94.94,0,0,1,1.3,0,.84.84,0,0,1,.26.63m.15,0a1,1,0,0,0-.31-.73,1.1,1.1,0,0,0-1.51,0,1,1,0,0,0,0,1.46,1.09,1.09,0,0,0,1.51,0,1,1,0,0,0,.31-.73"/><path class="cls-71" d="M606.25,84.91h3.8V68.38h-3.8Zm28.39,0h16.21V82.15H638.46V78.06h8.18V75.29h-8.18V71.17h12V68.38H634.64ZM667.41,73.3a1.58,1.58,0,0,1-.84,1.6,4.94,4.94,0,0,1-2.09.39h-6.93V71.2h6.93a4.26,4.26,0,0,1,2.09.47,1.71,1.71,0,0,1,.84,1.63m3.82,0a4.1,4.1,0,0,0-1.75-3.79,10.1,10.1,0,0,0-5.25-1.09h-10.5V84.89h3.83V78.06h6.68a10.55,10.55,0,0,0,5.25-1,4,4,0,0,0,1.75-3.73m2.3,11.64h16.75V82.17h-13V68.37h-3.76Zm19.61,0h16.21V82.15H697V78h8.18V75.28H697V71.17h12V68.38H693.13Z"/><path class="cls-71" d="M604.11,70.18A12.63,12.63,0,0,0,601.52,69a14.68,14.68,0,0,0-2.4-.6,18.72,18.72,0,0,0-3-.26,16.36,16.36,0,0,0-4.13.52,11.44,11.44,0,0,0-3.57,1.6,8.5,8.5,0,0,0-2.5,2.64,7,7,0,0,0-1,3.68,7.07,7.07,0,0,0,1,3.69A8.64,8.64,0,0,0,588.39,83a10.23,10.23,0,0,0,3.46,1.56,16,16,0,0,0,3.92.53,18.2,18.2,0,0,0,3.44-.29,19.29,19.29,0,0,0,2.87-.79s1-.39,2.15-1l-2.27-2.2a14.2,14.2,0,0,1-1.5.67,15,15,0,0,1-2.2.62,14.49,14.49,0,0,1-2.71.26,7.93,7.93,0,0,1-2.46-.39,6.71,6.71,0,0,1-2.16-1.16A6,6,0,0,1,589.37,79a5,5,0,0,1-.58-2.42,5.32,5.32,0,0,1,.52-2.4,4.84,4.84,0,0,1,1.47-1.76A6.7,6.7,0,0,1,593,71.3a10.58,10.58,0,0,1,2.83-.36,16.35,16.35,0,0,1,2.71.21c.39.07.75.16,1.09.25a9.45,9.45,0,0,1,2.21,1Z"/><polygon class="cls-71" points="711.09 68.37 727.91 84.85 732.57 84.85 715.74 68.37 711.09 68.37"/><polygon class="cls-71" points="732.57 68.37 715.75 84.85 711.09 84.85 727.92 68.37 732.57 68.37"/><polygon class="cls-71" points="631.73 84.87 631.73 83.53 631.73 68.34 628.43 68.34 628.43 80.3 616.27 68.35 616.27 68.34 612.97 68.34 612.97 84.87 616.27 84.87 616.27 72.95 628.43 84.87 628.43 84.87 628.43 84.87 631.73 84.87"/><path class="cls-71" d="M691.91,54.69c0-4.58-13.69-8.33-31-8.66l-.15,1.27c14.3.32,25.55,3.65,25.55,7.7s-11.79,7.54-26.59,7.72l.1.65c17.86-.19,32.12-4,32.12-8.68"/><path class="cls-71" d="M679.47,55.73c0,3.12-8.85,5.66-20,5.81l.1.64c13-.17,23.3-3.13,23.3-6.77s-9.8-6.45-22.3-6.75l-.15,1.27c10.68.28,19,2.77,19,5.79"/><path class="cls-71" d="M676.1,56.12c0-2.51-6.92-4.58-15.81-4.83l-.15,1.27c7.08.23,12.57,1.88,12.57,3.87s-5.94,3.78-13.44,3.9l.1.64c9.32-.13,16.72-2.25,16.72-4.85"/><path class="cls-71" d="M624.93,54.69c0-4.58,13.68-8.33,31-8.66l.15,1.27c-14.3.32-25.55,3.65-25.55,7.7s11.8,7.54,26.59,7.72l-.1.65c-17.86-.19-32.12-4-32.12-8.68"/><path class="cls-71" d="M637.38,55.73c0,3.12,8.85,5.66,20,5.81l-.1.64C644.29,62,634,59,634,55.41s9.8-6.45,22.3-6.75l.15,1.27c-10.68.28-19,2.77-19,5.79"/><path class="cls-71" d="M640.75,56.12c0-2.51,6.92-4.58,15.81-4.83l.15,1.27c-7.08.23-12.57,1.88-12.57,3.87s5.94,3.78,13.44,3.9l-.1.64c-9.32-.13-16.72-2.25-16.72-4.85"/><path class="cls-71" d="M614.86,89c2.81,0,4.66,1.74,4.66,4.39s-1.85,4.39-4.66,4.39H611.3V89Zm-2.11,1.34v6.1h2.11a3.05,3.05,0,1,0,0-6.1Z"/><rect class="cls-71" x="621.21" y="89.03" width="1.45" height="8.79"/><path class="cls-71" d="M632.51,90.29l-1.06,1A3.11,3.11,0,0,0,629,90.23a3.19,3.19,0,0,0-.06,6.39,2.56,2.56,0,0,0,2.83-2.28h-2.38V93h3.95c0,.11,0,.23,0,.34A4.32,4.32,0,0,1,629,98a4.55,4.55,0,1,1,.06-9.11,4.63,4.63,0,0,1,3.47,1.42"/><rect class="cls-71" x="635.07" y="89.03" width="1.45" height="8.79"/><polygon class="cls-71" points="644.98 90.38 642.07 90.38 642.07 97.82 640.63 97.82 640.63 90.38 637.72 90.38 637.72 89.03 644.98 89.03 644.98 90.38"/><path class="cls-71" d="M653.41,97.82h-1.56L651,95.58H646.9L646,97.82h-1.51L648.06,89h1.81Zm-6-3.58h3l-1.5-3.79Z"/><polygon class="cls-71" points="660.97 97.82 654.56 97.82 654.56 89.03 656 89.03 656 96.48 660.97 96.48 660.97 97.82"/><polygon class="cls-71" points="674.72 97.82 673.27 97.82 673.27 90.59 670.65 96.96 669.12 96.96 666.5 90.66 666.5 97.82 665.05 97.82 665.05 89.03 667.28 89.03 669.89 95.31 672.49 89.03 674.72 89.03 674.72 97.82"/><polygon class="cls-71" points="683.43 97.82 676.89 97.82 676.89 89.03 683.35 89.03 683.35 90.36 678.34 90.36 678.34 92.73 683.18 92.73 683.18 94.06 678.34 94.06 678.34 96.49 683.43 96.49 683.43 97.82"/><path class="cls-71" d="M688.93,89c2.81,0,4.66,1.74,4.66,4.39s-1.85,4.39-4.66,4.39h-3.56V89Zm-2.11,1.34v6.1h2.11a3.05,3.05,0,1,0,0-6.1Z"/><rect class="cls-71" x="695.28" y="89.03" width="1.45" height="8.79"/><path class="cls-71" d="M706.77,97.82h-1.56l-.88-2.24h-4.06l-.88,2.24h-1.51L701.42,89h1.81Zm-6-3.58h3l-1.5-3.79Z"/></g><g class="cls-74"><path class="cls-71" d="M734.31,224.78a.7.7,0,0,1-.2,0h-.19v-.41h.18a.55.55,0,0,1,.25,0,.17.17,0,0,1,.08.17.18.18,0,0,1-.12.18m.24.19a.29.29,0,0,0-.2-.11.45.45,0,0,0,.17-.06.24.24,0,0,0,.12-.22.28.28,0,0,0-.18-.29.93.93,0,0,0-.32,0h-.41v1.13h.21v-.45h.16a.53.53,0,0,1,.23,0,.27.27,0,0,1,.11.26v.13h.19v-.23a.32.32,0,0,0-.06-.17m.52-.15a.85.85,0,0,1-.26.63.91.91,0,0,1-.65.26.89.89,0,0,1-.65-.26.87.87,0,0,1,0-1.26.94.94,0,0,1,1.3,0,.84.84,0,0,1,.26.63m.15,0a1,1,0,0,0-.31-.73,1.1,1.1,0,0,0-1.51,0,1,1,0,0,0,0,1.46,1.09,1.09,0,0,0,1.51,0,1,1,0,0,0,.31-.73"/><path class="cls-71" d="M606.35,240.31h3.8V223.78h-3.8Zm28.39,0h16.21v-2.77H638.56v-4.08h8.18v-2.77h-8.18v-4.12h12v-2.79H634.74ZM667.5,228.7a1.58,1.58,0,0,1-.84,1.6,4.94,4.94,0,0,1-2.09.39h-6.93V226.6h6.93a4.26,4.26,0,0,1,2.09.47,1.71,1.71,0,0,1,.84,1.63m3.82,0a4.1,4.1,0,0,0-1.75-3.79,10.1,10.1,0,0,0-5.25-1.09h-10.5v16.47h3.83v-6.83h6.68a10.55,10.55,0,0,0,5.25-1,4,4,0,0,0,1.75-3.73m2.3,11.64h16.75v-2.76h-13v-13.8h-3.76Zm19.61,0h16.21v-2.77H697.06v-4.1h8.18v-2.77h-8.18v-4.11h12v-2.79H693.23Z"/><path class="cls-71" d="M604.21,225.58a12.63,12.63,0,0,0-2.59-1.15,14.68,14.68,0,0,0-2.4-.6,18.72,18.72,0,0,0-3-.26,16.36,16.36,0,0,0-4.13.52,11.44,11.44,0,0,0-3.57,1.6,8.5,8.5,0,0,0-2.5,2.64,7,7,0,0,0-1,3.68,7.07,7.07,0,0,0,1,3.69,8.64,8.64,0,0,0,2.46,2.66,10.23,10.23,0,0,0,3.46,1.56,16,16,0,0,0,3.92.53,18.2,18.2,0,0,0,3.44-.29,19.29,19.29,0,0,0,2.87-.79s1-.39,2.15-1l-2.27-2.2a14.2,14.2,0,0,1-1.5.67,15,15,0,0,1-2.2.62,14.49,14.49,0,0,1-2.71.26,7.93,7.93,0,0,1-2.46-.39,6.71,6.71,0,0,1-2.16-1.16,6,6,0,0,1-1.53-1.84,5,5,0,0,1-.58-2.42,5.32,5.32,0,0,1,.52-2.4,4.84,4.84,0,0,1,1.47-1.76,6.7,6.7,0,0,1,2.23-1.07,10.58,10.58,0,0,1,2.83-.36,16.35,16.35,0,0,1,2.71.21c.39.07.75.16,1.09.25a9.45,9.45,0,0,1,2.21,1Z"/><polygon class="cls-71" points="711.19 223.77 728.01 240.25 732.67 240.25 715.83 223.77 711.19 223.77"/><polygon class="cls-71" points="732.67 223.77 715.85 240.25 711.19 240.25 728.02 223.77 732.67 223.77"/><polygon class="cls-71" points="631.83 240.27 631.83 238.93 631.83 223.74 628.53 223.74 628.53 235.69 616.36 223.75 616.36 223.74 613.07 223.74 613.07 240.27 616.36 240.27 616.36 228.35 628.53 240.27 628.53 240.27 628.53 240.27 631.83 240.27"/><path class="cls-71" d="M692,210.09c0-4.58-13.69-8.33-31-8.66l-.15,1.27c14.3.32,25.55,3.65,25.55,7.7s-11.79,7.54-26.59,7.72l.1.65c17.86-.19,32.12-4,32.12-8.68"/><path class="cls-71" d="M679.56,211.13c0,3.12-8.85,5.66-20,5.81l.1.64c13-.17,23.3-3.13,23.3-6.77s-9.8-6.45-22.3-6.75l-.15,1.27c10.68.28,19,2.77,19,5.79"/><path class="cls-71" d="M676.19,211.52c0-2.51-6.92-4.58-15.81-4.83l-.15,1.27c7.08.23,12.57,1.88,12.57,3.87s-5.94,3.78-13.44,3.9l.1.64c9.32-.13,16.72-2.25,16.72-4.85"/><path class="cls-71" d="M625,210.09c0-4.58,13.68-8.33,31-8.66l.15,1.27c-14.3.32-25.55,3.65-25.55,7.7s11.8,7.54,26.59,7.72l-.1.65c-17.86-.19-32.12-4-32.12-8.68"/><path class="cls-71" d="M637.48,211.13c0,3.12,8.85,5.66,20,5.81l-.1.64c-13-.17-23.3-3.13-23.3-6.77s9.8-6.45,22.3-6.75l.15,1.27c-10.68.28-19,2.77-19,5.79"/><path class="cls-71" d="M640.85,211.52c0-2.51,6.92-4.58,15.81-4.83l.15,1.27c-7.08.23-12.57,1.88-12.57,3.87s5.94,3.78,13.44,3.9l-.1.64c-9.32-.13-16.72-2.25-16.72-4.85"/><path class="cls-71" d="M615,244.43c2.81,0,4.66,1.74,4.66,4.39s-1.85,4.39-4.66,4.39h-3.56v-8.79Zm-2.11,1.34v6.1H615a3.05,3.05,0,1,0,0-6.1Z"/><rect class="cls-71" x="621.3" y="244.43" width="1.45" height="8.79"/><path class="cls-71" d="M632.61,245.69l-1.06,1a3.11,3.11,0,0,0-2.41-1.07,3.19,3.19,0,0,0-.06,6.39,2.56,2.56,0,0,0,2.83-2.28h-2.38v-1.32h3.95c0,.11,0,.23,0,.34a4.32,4.32,0,0,1-4.41,4.61,4.55,4.55,0,1,1,.06-9.11,4.63,4.63,0,0,1,3.47,1.42"/><rect class="cls-71" x="635.17" y="244.43" width="1.45" height="8.79"/><polygon class="cls-71" points="645.08 245.78 642.17 245.78 642.17 253.22 640.73 253.22 640.73 245.78 637.82 245.78 637.82 244.44 645.08 244.44 645.08 245.78"/><path class="cls-71" d="M653.51,253.22h-1.56l-.88-2.24H647l-.88,2.24h-1.51l3.54-8.79H650Zm-6-3.58h3l-1.5-3.79Z"/><polygon class="cls-71" points="661.07 253.22 654.66 253.22 654.66 244.44 656.1 244.44 656.1 251.88 661.07 251.88 661.07 253.22"/><polygon class="cls-71" points="674.82 253.22 673.37 253.22 673.37 245.99 670.75 252.36 669.22 252.36 666.6 246.06 666.6 253.22 665.15 253.22 665.15 244.44 667.38 244.44 669.99 250.71 672.59 244.44 674.82 244.44 674.82 253.22"/><polygon class="cls-71" points="683.53 253.22 676.99 253.22 676.99 244.44 683.45 244.44 683.45 245.76 678.44 245.76 678.44 248.13 683.28 248.13 683.28 249.46 678.44 249.46 678.44 251.89 683.53 251.89 683.53 253.22"/><path class="cls-71" d="M689,244.43c2.81,0,4.66,1.74,4.66,4.39s-1.85,4.39-4.66,4.39h-3.56v-8.79Zm-2.11,1.34v6.1H689a3.05,3.05,0,1,0,0-6.1Z"/><rect class="cls-71" x="695.37" y="244.43" width="1.45" height="8.79"/><path class="cls-71" d="M706.87,253.22h-1.56l-.88-2.24h-4.06l-.88,2.24H698l3.54-8.79h1.81Zm-6-3.58h3l-1.5-3.79Z"/></g></svg>