<svg id="Layer_3" data-name="Layer 3" xmlns="http://www.w3.org/2000/svg" xmlns:xlink="http://www.w3.org/1999/xlink" viewBox="0 0 1365 1080"><defs><style>.cls-1,.cls-59{fill:none;}.cls-2{fill:#d30c55;}.cls-3{clip-path:url(#clip-path);}.cls-4{fill:#fff;}.cls-5{fill:#67ccf2;}.cls-6{fill:#00aa4e;}.cls-7{fill:#d91a32;}.cls-8{fill:#00b4ae;}.cls-9{fill:#231f20;}.cls-10{fill:#bd0075;}.cls-11{fill:#ffca05;}.cls-12,.cls-16{fill:#00599c;}.cls-13,.cls-19,.cls-27{fill:#6d6e70;}.cls-14{fill:#f26f21;}.cls-15{clip-path:url(#clip-path-4);}.cls-16{font-size:20.13px;font-family:MarkOT-Heavy, Mark OT;}.cls-17{letter-spacing:-0.01em;}.cls-18{letter-spacing:0.01em;}.cls-19{font-size:12.58px;font-family:MarkOT-Medium, Mark OT;}.cls-20{letter-spacing:-0.01em;}.cls-21{letter-spacing:-0.02em;}.cls-22{letter-spacing:0em;}.cls-23{letter-spacing:0.03em;}.cls-24{letter-spacing:0em;}.cls-25{letter-spacing:0em;}.cls-26{letter-spacing:0em;}.cls-27{font-size:11.74px;font-family:MarkOT-Book, Mark OT;}.cls-28{letter-spacing:-0.01em;}.cls-29{letter-spacing:0em;}.cls-30{letter-spacing:-0.02em;}.cls-31{letter-spacing:-0.08em;}.cls-32{letter-spacing:0em;}.cls-33{letter-spacing:0em;}.cls-34{letter-spacing:-0.01em;}.cls-35{letter-spacing:-0.02em;}.cls-36{letter-spacing:0em;}.cls-37{letter-spacing:-0.08em;}.cls-38{letter-spacing:-0.02em;}.cls-39{letter-spacing:0em;}.cls-40{letter-spacing:-0.01em;}.cls-41{letter-spacing:-0.02em;}.cls-42{letter-spacing:0em;}.cls-43{letter-spacing:-0.01em;}.cls-44{letter-spacing:-0.06em;}.cls-45{letter-spacing:0.01em;}.cls-46{letter-spacing:-0.01em;}.cls-47{letter-spacing:0em;}.cls-48{letter-spacing:0em;}.cls-49{letter-spacing:0.01em;}.cls-50{letter-spacing:-0.02em;}.cls-51{letter-spacing:0em;}.cls-52{letter-spacing:-0.01em;}.cls-53{letter-spacing:0.01em;}.cls-54{letter-spacing:-0.02em;}.cls-55{letter-spacing:0.01em;}.cls-56{letter-spacing:-0.01em;}.cls-57{letter-spacing:-0.01em;}.cls-58{letter-spacing:0em;}.cls-59{stroke:#929497;stroke-width:0.5px;}</style><clipPath id="clip-path"><rect class="cls-1" x="3.43" y="6.16" width="1335.8" height="1057.25"/></clipPath><clipPath id="clip-path-4"><rect class="cls-1" x="275.41" y="156.77" width="170.74" height="100.25"/></clipPath></defs><title>events</title><rect class="cls-2" x="467.53" y="18.32" width="422.68" height="241.53"/><g class="cls-3"><path class="cls-4" d="M807.95,134.49a1.84,1.84,0,0,0-3.67,0,1.79,1.79,0,0,0,.53,1.3,1.83,1.83,0,0,0,2.6,0,1.79,1.79,0,0,0,.54-1.3m-.26,0a1.55,1.55,0,0,1-.45,1.13,1.53,1.53,0,0,1-1.13.47,1.5,1.5,0,0,1-1.12-.47,1.58,1.58,0,1,1,2.7-1.13m-.89.26a.5.5,0,0,0-.35-.2.76.76,0,0,0,.29-.1.43.43,0,0,0,.2-.4.5.5,0,0,0-.32-.51,1.53,1.53,0,0,0-.54-.07h-.71v2h.36v-.8H806a.9.9,0,0,1,.4.06.49.49,0,0,1,.19.46v.22a0,0,0,0,0,0,0v0h.34v0a.66.66,0,0,1,0-.11v-.3a.57.57,0,0,0-.11-.31m-.41-.35a1.13,1.13,0,0,1-.35,0h-.32v-.73h.3a.91.91,0,0,1,.43.07.31.31,0,0,1,.13.3.32.32,0,0,1-.2.32"/><path class="cls-4" d="M735.76,162.1h27.86v-4.93H742.33v-7.31H756.4v-4.94H742.33V137.6H763v-5H735.76Zm-33.72,0h28.8V157.2H708.5V132.61l-6.47,0Zm-4-20.74q0-4.81-3-6.75t-9-1.94H668v29.35h6.58l0-12.17h11.49q6,0,9-1.84t3-6.66m-6.56,0a2.83,2.83,0,0,1-1.44,2.84,8.25,8.25,0,0,1-3.6.7H674.57v-7.29h11.91a7.11,7.11,0,0,1,3.6.84,3.06,3.06,0,0,1,1.44,2.91M635.19,162.1H663v-4.93H641.76v-7.28h14.06V145H641.76V137.6H662.4v-5H635.19Zm-48.81,0h6.54V132.62h-6.54Z"/><path class="cls-4" d="M582.71,135.83a21.36,21.36,0,0,0-4.46-2,24.52,24.52,0,0,0-4.12-1.07,31,31,0,0,0-5.16-.47,27.16,27.16,0,0,0-7.09.94,19.33,19.33,0,0,0-6.13,2.85,15,15,0,0,0-4.31,4.71,12.8,12.8,0,0,0-1.64,6.56,13,13,0,0,0,1.64,6.58,15.24,15.24,0,0,0,4.23,4.75,17.31,17.31,0,0,0,5.94,2.77,26.63,26.63,0,0,0,6.74.94,30.16,30.16,0,0,0,5.91-.51,32.26,32.26,0,0,0,4.93-1.4s1.7-.7,3.69-1.76L579,154.74a23.61,23.61,0,0,1-2.57,1.2,25,25,0,0,1-3.79,1.11,24.11,24.11,0,0,1-4.65.47,13.2,13.2,0,0,1-4.24-.7,11.45,11.45,0,0,1-3.72-2.07,10.69,10.69,0,0,1-2.64-3.27,9.13,9.13,0,0,1-1-4.32,9.76,9.76,0,0,1,.89-4.28,8.58,8.58,0,0,1,2.52-3.14,11.37,11.37,0,0,1,3.83-1.91,17.57,17.57,0,0,1,4.86-.63,27.25,27.25,0,0,1,4.66.37c.67.13,1.3.28,1.88.45a15.89,15.89,0,0,1,3.79,1.75Z"/></g><polygon class="cls-4" points="766.63 132.61 795.54 161.99 803.55 161.99 774.61 132.61 766.63 132.61"/><polygon class="cls-4" points="803.55 132.61 774.63 161.99 766.63 161.99 795.57 132.61 803.55 132.61"/><polygon class="cls-4" points="630.18 162.03 630.18 159.64 630.18 132.56 624.51 132.56 624.51 153.86 603.6 132.57 603.6 132.56 597.93 132.56 597.93 162.03 603.6 162.03 603.6 140.78 624.51 162.02 624.51 162.03 624.52 162.03 630.18 162.03"/><g class="cls-3"><path class="cls-4" d="M733.66,108.23c0-8.17-23.53-14.85-53.36-15.44L680,95.05c24.59.58,43.92,6.5,43.92,13.73,0,7.4-20.28,13.44-45.72,13.76l.18,1.15c30.71-.33,55.22-7.13,55.22-15.46"/><path class="cls-4" d="M712.26,110.07c0,5.55-15.22,10.09-34.36,10.36l.18,1.14c22.3-.3,40.06-5.58,40.06-12.06,0-6.31-16.86-11.49-38.34-12l-.25,2.27c18.35.5,32.71,4.93,32.71,10.32"/><path class="cls-4" d="M706.46,110.78c0-4.47-11.91-8.16-27.17-8.61l-.25,2.27c12.17.41,21.61,3.34,21.61,6.9s-10.22,6.73-23.1,6.94l.18,1.13c16-.24,28.75-4,28.75-8.64"/><path class="cls-4" d="M618.5,108.23c0-8.17,23.53-14.85,53.36-15.44l.25,2.26c-24.59.58-43.92,6.5-43.92,13.73,0,7.4,20.28,13.44,45.72,13.76l-.18,1.15c-30.71-.33-55.22-7.13-55.22-15.46"/><path class="cls-4" d="M639.9,110.07c0,5.55,15.22,10.09,34.36,10.36l-.18,1.14c-22.3-.3-40.06-5.58-40.06-12.06,0-6.31,16.86-11.49,38.34-12l.25,2.27c-18.35.5-32.71,4.93-32.71,10.32"/><path class="cls-4" d="M645.7,110.78c0-4.47,11.91-8.16,27.17-8.61l.25,2.27c-12.17.41-21.61,3.34-21.61,6.9s10.22,6.73,23.1,6.94l-.18,1.13c-16-.24-28.75-4-28.75-8.64"/></g><polygon class="cls-4" points="645.16 185.1 633.91 185.1 633.91 169.44 645.02 169.44 645.02 171.81 636.4 171.81 636.4 176.03 644.72 176.03 644.72 178.4 636.4 178.4 636.4 182.73 645.16 182.73 645.16 185.1"/><polygon class="cls-4" points="655.71 185.1 652.6 185.1 646.72 169.44 649.38 169.44 654.18 182.54 659.01 169.44 661.59 169.44 655.71 185.1"/><polygon class="cls-4" points="674.82 185.1 663.57 185.1 663.57 169.44 674.67 169.44 674.67 171.81 666.06 171.81 666.06 176.03 674.38 176.03 674.38 178.4 666.06 178.4 666.06 182.73 674.82 182.73 674.82 185.1"/><polygon class="cls-4" points="691.49 185.1 689.24 185.1 680.64 173.77 680.63 185.1 678.14 185.1 678.14 169.44 680.38 169.44 689 180.77 689 169.44 691.49 169.44 691.49 185.1"/><polygon class="cls-4" points="706.02 171.84 701.03 171.84 701.03 185.1 698.54 185.1 698.54 171.84 693.55 171.84 693.55 169.44 706.02 169.44 706.02 171.84"/><g class="cls-3"><path class="cls-4" d="M718.08,172.91a7.89,7.89,0,0,0-4.33-1.34c-2.06,0-3.47.91-3.47,2.34s1.2,1.8,3.21,2.09l1.07.14c2.5.35,5,1.4,5,4.31,0,3.19-2.84,4.93-6.18,4.93a9.91,9.91,0,0,1-6.2-2.1l1.35-2a7.7,7.7,0,0,0,4.84,1.72c2,0,3.6-.87,3.6-2.32,0-1.23-1.21-1.8-3.47-2.11l-1.2-.17c-2.29-.33-4.57-1.42-4.57-4.33,0-3.14,2.74-4.89,6.08-4.89a9.57,9.57,0,0,1,5.57,1.69Z"/></g><rect class="cls-5" x="18.53" y="286.17" width="422.68" height="241.53"/><rect class="cls-6" x="18.53" y="554.02" width="422.68" height="241.53"/><rect class="cls-7" x="18.53" y="821.88" width="422.68" height="241.53"/><rect class="cls-8" x="467.53" y="286.17" width="422.68" height="241.53"/><rect class="cls-9" x="467.53" y="554.02" width="422.68" height="241.53"/><rect class="cls-10" x="467.53" y="821.88" width="422.68" height="241.53"/><rect class="cls-11" x="916.54" y="286.17" width="422.68" height="241.53"/><rect class="cls-12" x="916.54" y="554.02" width="422.68" height="241.53"/><rect class="cls-13" x="916.54" y="821.88" width="422.68" height="241.53"/><rect class="cls-14" x="916.54" y="18.32" width="422.68" height="241.53"/><g class="cls-15"><path class="cls-12" d="M410,204.34l-.18,0h-.16V204h.15a.47.47,0,0,1,.22,0,.15.15,0,0,1,.07.15.16.16,0,0,1-.1.16m.21.17a.25.25,0,0,0-.18-.1.4.4,0,0,0,.15,0,.21.21,0,0,0,.1-.2.25.25,0,0,0-.16-.26.8.8,0,0,0-.28,0h-.36v1h.18v-.4h.14a.46.46,0,0,1,.2,0,.24.24,0,0,1,.09.23v.11h.17v-.2a.29.29,0,0,0-.06-.16m.45-.13a.76.76,0,0,1-.23.56.79.79,0,0,1-.57.23.78.78,0,0,1-.57-.23.78.78,0,0,1,0-1.12.82.82,0,0,1,1.14,0,.75.75,0,0,1,.23.56m.13,0a.86.86,0,0,0-.27-.65,1,1,0,0,0-1.32,0,.91.91,0,0,0,0,1.3,1,1,0,0,0,1.33,0,.88.88,0,0,0,.27-.65"/><path class="cls-12" d="M297.76,218.13h3.34V203.45h-3.34Zm24.89,0h14.21v-2.46H326V212h7.17v-2.46H326v-3.66h10.52v-2.48H322.65Zm28.73-10.31a1.4,1.4,0,0,1-.74,1.42,4.29,4.29,0,0,1-1.84.35h-6.07v-3.63h6.07a3.7,3.7,0,0,1,1.84.42,1.52,1.52,0,0,1,.74,1.45m3.35,0a3.66,3.66,0,0,0-1.53-3.36,8.76,8.76,0,0,0-4.6-1h-9.21v14.62h3.35V212h5.86a9.16,9.16,0,0,0,4.6-.92,3.54,3.54,0,0,0,1.53-3.32m2,10.33h14.69v-2.45H360V203.44h-3.3Zm17.2,0h14.21v-2.46H377.29V212h7.17v-2.46h-7.17v-3.65h10.52v-2.48H373.94Z"/><path class="cls-12" d="M295.89,205a11,11,0,0,0-2.27-1,12.74,12.74,0,0,0-2.1-.53,16.21,16.21,0,0,0-2.63-.23,14.18,14.18,0,0,0-3.62.47,10,10,0,0,0-3.13,1.42,7.51,7.51,0,0,0-2.2,2.35,6.25,6.25,0,0,0-.83,3.27,6.34,6.34,0,0,0,.83,3.28,7.64,7.64,0,0,0,2.16,2.37,8.92,8.92,0,0,0,3,1.38,13.86,13.86,0,0,0,3.44.47,15.76,15.76,0,0,0,3-.25,16.74,16.74,0,0,0,2.51-.7s.87-.35,1.88-.88l-2-2a12.38,12.38,0,0,1-1.31.6,13,13,0,0,1-1.93.55,12.55,12.55,0,0,1-2.37.23,6.88,6.88,0,0,1-2.16-.35,5.86,5.86,0,0,1-1.9-1,5.34,5.34,0,0,1-1.34-1.63,4.45,4.45,0,0,1-.51-2.15,4.77,4.77,0,0,1,.46-2.13,4.28,4.28,0,0,1,1.29-1.56,5.84,5.84,0,0,1,2-1,9.16,9.16,0,0,1,2.48-.32,14.16,14.16,0,0,1,2.38.18c.34.07.66.14,1,.22a8.23,8.23,0,0,1,1.93.87Z"/><polygon class="cls-12" points="389.68 203.44 404.43 218.07 408.51 218.07 393.75 203.44 389.68 203.44"/><polygon class="cls-12" points="408.51 203.44 393.76 218.07 389.68 218.07 404.44 203.44 408.51 203.44"/><polygon class="cls-12" points="320.1 218.09 320.1 216.9 320.1 203.41 317.21 203.41 317.21 214.03 306.54 203.42 306.54 203.41 303.65 203.41 303.65 218.09 306.54 218.09 306.54 207.51 317.21 218.09 317.21 218.09 317.21 218.09 320.1 218.09"/><path class="cls-11" d="M372.87,191.3c0-4.07-12-7.4-27.21-7.69l-.13,1.12c12.54.29,22.4,3.24,22.4,6.84s-10.34,6.69-23.31,6.86l.09.57c15.66-.17,28.16-3.55,28.16-7.7"/><path class="cls-11" d="M362,192.22c0,2.77-7.76,5-17.52,5.16l.09.57c11.37-.15,20.43-2.78,20.43-6s-8.6-5.72-19.55-6l-.13,1.13c9.36.25,16.68,2.46,16.68,5.14"/><path class="cls-11" d="M359,192.57c0-2.23-6.07-4.06-13.86-4.29l-.13,1.13c6.21.2,11,1.66,11,3.44s-5.21,3.35-11.78,3.46l.09.56c8.17-.12,14.66-2,14.66-4.31"/><path class="cls-11" d="M314.14,191.3c0-4.07,12-7.4,27.21-7.69l.13,1.12c-12.54.29-22.4,3.24-22.4,6.84s10.34,6.69,23.31,6.86l-.09.57c-15.66-.17-28.16-3.55-28.16-7.7"/><path class="cls-11" d="M325.06,192.22c0,2.77,7.76,5,17.52,5.16l-.09.57c-11.37-.15-20.43-2.78-20.43-6s8.6-5.72,19.55-6l.13,1.13c-9.36.25-16.68,2.46-16.68,5.14"/><path class="cls-11" d="M328,192.57c0-2.23,6.07-4.06,13.86-4.29l.13,1.13c-6.21.2-11,1.66-11,3.44s5.21,3.35,11.78,3.46l-.09.56c-8.17-.12-14.66-2-14.66-4.31"/><polygon class="cls-12" points="327.74 229.59 322 229.59 322 221.79 327.66 221.79 327.66 222.97 323.27 222.97 323.27 225.07 327.51 225.07 327.51 226.25 323.27 226.25 323.27 228.41 327.74 228.41 327.74 229.59"/><polygon class="cls-12" points="333.12 229.59 331.53 229.59 328.53 221.79 329.89 221.79 332.33 228.31 334.8 221.79 336.12 221.79 333.12 229.59"/><polygon class="cls-12" points="342.86 229.59 337.12 229.59 337.12 221.79 342.79 221.79 342.79 222.97 338.39 222.97 338.39 225.07 342.63 225.07 342.63 226.25 338.39 226.25 338.39 228.41 342.86 228.41 342.86 229.59"/><polygon class="cls-12" points="351.36 229.59 350.22 229.59 345.83 223.94 345.82 229.59 344.55 229.59 344.55 221.79 345.7 221.79 350.09 227.43 350.09 221.79 351.36 221.79 351.36 229.59"/><polygon class="cls-12" points="358.77 222.98 356.23 222.98 356.23 229.59 354.96 229.59 354.96 222.98 352.42 222.98 352.42 221.79 358.77 221.79 358.77 222.98"/><path class="cls-12" d="M364.92,223.51a4.09,4.09,0,0,0-2.21-.67c-1.05,0-1.77.45-1.77,1.16s.61.9,1.63,1l.54.07c1.28.17,2.53.7,2.53,2.14s-1.45,2.46-3.15,2.46a5.13,5.13,0,0,1-3.16-1l.69-1a4,4,0,0,0,2.47.86c1,0,1.84-.43,1.84-1.15s-.62-.9-1.77-1.05l-.61-.08c-1.17-.16-2.33-.71-2.33-2.16s1.4-2.43,3.1-2.43a5,5,0,0,1,2.84.84Z"/></g><text class="cls-16" transform="translate(49.21 64.4)">B<tspan class="cls-17" x="13.74" y="0">R</tspan><tspan x="27.11" y="0">AD </tspan><tspan class="cls-18" x="62.01" y="0">L</tspan><tspan x="74.19" y="0">ADOUCEUR</tspan></text><text class="cls-19" transform="translate(49.21 78.82)">Vi<tspan class="cls-20" x="12.25" y="0">c</tspan><tspan x="18.6" y="0">e P</tspan><tspan class="cls-21" x="37.37" y="0">r</tspan><tspan x="42.53" y="0">eside</tspan><tspan class="cls-22" x="74.21" y="0">n</tspan><tspan class="cls-23" x="81.77" y="0">t</tspan><tspan class="cls-24" x="87.79" y="0">, </tspan><tspan class="cls-25" x="94.37" y="0">Ev</tspan><tspan x="109.52" y="0">e</tspan><tspan class="cls-22" x="116.56" y="0">n</tspan><tspan class="cls-26" x="124.12" y="0">t Cinema</tspan></text><text class="cls-27" transform="translate(49.21 129.96)">13<tspan class="cls-28" x="11.52" y="0">0</tspan><tspan class="cls-29" x="19.76" y="0">3</tspan><tspan class="cls-30" x="26.33" y="0"> </tspan><tspan class="cls-31" x="29.23" y="0">Y</tspan><tspan class="cls-32" x="35.94" y="0">onge</tspan><tspan class="cls-33" x="63.94" y="0"> </tspan><tspan class="cls-34" x="67.1" y="0">S</tspan><tspan x="74.92" y="0">t</tspan><tspan class="cls-35" x="80.25" y="0">r</tspan><tspan x="84.95" y="0">e</tspan><tspan class="cls-36" x="91.53" y="0">e</tspan><tspan x="98.06" y="0">t</tspan></text><text class="cls-27" transform="translate(49.21 144.22)"><tspan class="cls-37">T</tspan><tspan x="6.17" y="0">o</tspan><tspan class="cls-38" x="13.26" y="0">r</tspan><tspan x="17.95" y="0">o</tspan><tspan class="cls-39" x="25.04" y="0">n</tspan><tspan x="32.05" y="0">t</tspan><tspan class="cls-40" x="37.38" y="0">o</tspan><tspan x="44.38" y="0">, ON, M4</tspan><tspan class="cls-41" x="93.48" y="0">T</tspan><tspan x="100.4" y="0" xml:space="preserve"> 2Y9</tspan></text><text class="cls-27" transform="translate(49.21 172.74)">P:<tspan class="cls-42" x="10.87" y="0"> </tspan><tspan class="cls-43" x="14.02" y="0">4</tspan><tspan x="20.65" y="0">16</tspan><tspan class="cls-44" x="32.4" y="0">.</tspan><tspan x="34.78" y="0">123</tspan><tspan class="cls-45" x="52.76" y="0">.</tspan><tspan x="55.95" y="0">45</tspan><tspan class="cls-46" x="69.52" y="0">6</tspan><tspan x="76.16" y="0">7</tspan><tspan class="cls-47" x="82.59" y="0"> </tspan><tspan x="85.7" y="0">x</tspan><tspan class="cls-48" x="91.74" y="0">999</tspan><tspan x="112.35" y="0">9 </tspan></text><text class="cls-27" transform="translate(49.21 186.99)">C: 123<tspan class="cls-49" x="33.19" y="0">.</tspan><tspan class="cls-32" x="36.39" y="0">456</tspan><tspan class="cls-50" x="56.77" y="0">.</tspan><tspan class="cls-51" x="59.64" y="0">7</tspan><tspan x="66.04" y="0">890</tspan></text><text class="cls-27" transform="translate(49.21 201.24)">B<tspan class="cls-35" x="8.23" y="0">r</tspan><tspan class="cls-32" x="12.93" y="0">ad.Ladou</tspan><tspan class="cls-40" x="66.55" y="0">c</tspan><tspan class="cls-32" x="72.48" y="0">eur@Cinepl</tspan><tspan class="cls-52" x="138.52" y="0">e</tspan><tspan class="cls-53" x="144.92" y="0">x</tspan><tspan class="cls-40" x="151.15" y="0">.</tspan><tspan class="cls-28" x="154.15" y="0">c</tspan><tspan x="160.07" y="0">om</tspan></text><text class="cls-27" transform="translate(49.21 215.5)">Cinepl<tspan class="cls-54" x="35.93" y="0">e</tspan><tspan class="cls-55" x="42.33" y="0">x</tspan><tspan class="cls-40" x="48.54" y="0">.</tspan><tspan class="cls-28" x="51.54" y="0">c</tspan><tspan x="57.46" y="0">om</tspan></text><text class="cls-27" transform="translate(49.21 229.75)"><tspan xml:space="preserve">                Cinepl</tspan><tspan class="cls-28" x="86.18" y="0">e</tspan><tspan x="92.67" y="0">x</tspan><tspan class="cls-56" x="98.72" y="0">E</tspan><tspan class="cls-57" x="106.6" y="0">v</tspan><tspan x="112.68" y="0">e</tspan><tspan class="cls-58" x="119.26" y="0">n</tspan><tspan class="cls-29" x="126.27" y="0">ts</tspan></text><rect class="cls-59" x="18.94" y="18.32" width="421.84" height="240.69"/><g class="cls-3"><path class="cls-13" d="M77.23,226a.92.92,0,0,0,.92-.91.9.9,0,0,0-.17-.53.93.93,0,0,0-1.5,0,.9.9,0,0,0-.17.53.92.92,0,0,0,.92.91"/></g><polygon class="cls-13" points="79.13 223.07 78.36 223.07 78.36 223.95 79.25 223.95 79.25 223.07 79.13 223.07"/><g class="cls-3"><path class="cls-13" d="M77.23,220.51a4.55,4.55,0,1,0,4.61,4.55,4.59,4.59,0,0,0-4.61-4.55m2.62,4v2.12a1,1,0,0,1-1,1H75.62a1,1,0,0,1-1-1v-3.18a1,1,0,0,1,1-1h3.22a1,1,0,0,1,1,1Z"/><path class="cls-13" d="M78.67,225.06a1.43,1.43,0,0,1-2.87,0,1.4,1.4,0,0,1,.11-.53h-.78v2.12a.5.5,0,0,0,.5.49h3.22a.5.5,0,0,0,.5-.49v-2.12h-.78a1.4,1.4,0,0,1,.11.53"/><path class="cls-13" d="M91.59,226.53h0a.35.35,0,0,1-.16.11h0a1.85,1.85,0,0,1-.39.11h0a.15.15,0,0,0-.1,0,.69.69,0,0,0-.09.24h0s0,0,0,0l0,0a.09.09,0,0,1-.06,0h0a3,3,0,0,0-.49,0h0a.92.92,0,0,0-.23,0h0c-.2.09-.38.22-.58.34h0a.68.68,0,0,1-.3.1h0a3.15,3.15,0,0,1-.38,0h0a.94.94,0,0,1-.45-.16h0a2.35,2.35,0,0,0-.56-.3,1.47,1.47,0,0,0-.6,0h0a.15.15,0,0,1-.09,0,.07.07,0,0,1-.05,0c0-.08,0-.16-.06-.23l0-.06a1.47,1.47,0,0,0-.24-.06h0a1.42,1.42,0,0,1-.38-.13h0l-.06,0a.13.13,0,0,1,0-.11v0a.23.23,0,0,1,.14-.09h0a1.38,1.38,0,0,0,.41-.19,1.73,1.73,0,0,0,.56-.64.45.45,0,0,0,.06-.28.26.26,0,0,0-.16-.16,1.85,1.85,0,0,1-.37-.16h0l-.06,0a.16.16,0,0,1-.06-.1v0a.19.19,0,0,1,.1-.14h0a.21.21,0,0,1,.17,0h0l.18.05a.65.65,0,0,0,.23,0h0a3.46,3.46,0,0,0,0-.47h0a1.66,1.66,0,0,1,.07-.72h0a1.51,1.51,0,0,1,.45-.59,1.53,1.53,0,0,1,.93-.3h.24a1.41,1.41,0,0,1,.68.24,1.33,1.33,0,0,1,.56.83h0a3.37,3.37,0,0,1,0,.59h0c0,.13,0,.25,0,.37a.25.25,0,0,1,0,0,.41.41,0,0,0,.2,0h0l.17-.05h0a.24.24,0,0,1,.2,0,.26.26,0,0,1,.11.11.13.13,0,0,1,0,.11l0,.06h0a1,1,0,0,1-.33.17h0a.51.51,0,0,0-.24.15h0a.2.2,0,0,0,0,.18h0a1.62,1.62,0,0,0,.24.42,1.48,1.48,0,0,0,.7.51h0a.63.63,0,0,1,.17.06h0a.11.11,0,0,1,0,.16Zm-2.68-6.09a4.6,4.6,0,0,0-4.6,4.6,4.51,4.51,0,0,0,0,.57,4.6,4.6,0,1,0,4.57-5.17"/><path class="cls-13" d="M58.51,225a4.6,4.6,0,0,1-3.61,4.47v-3.81H56v-1.27H54.88v-.28c0-.55.24-1,.82-1a1.91,1.91,0,0,1,.56.08l.07-1.33a3.39,3.39,0,0,0-.93-.11,2.3,2.3,0,0,0-1.55.56,2.52,2.52,0,0,0-.71,1.87v.21H52.4v1.27h.74v3.87A4.59,4.59,0,1,1,58.51,225"/><path class="cls-13" d="M65.33,220.44A4.58,4.58,0,1,0,70,225a4.61,4.61,0,0,0-4.64-4.58M68,223.67c0,.06,0,.12,0,.18a3.86,3.86,0,0,1-3.92,3.87A4,4,0,0,1,62,227.1l.33,0a2.79,2.79,0,0,0,1.71-.58,1.37,1.37,0,0,1-1.28-.94l.26,0a1.37,1.37,0,0,0,.36,0,1.36,1.36,0,0,1-1.11-1.33v0a1.37,1.37,0,0,0,.62.17,1.35,1.35,0,0,1-.43-1.81A3.93,3.93,0,0,0,65.27,224a1.34,1.34,0,0,1,0-.31,1.37,1.37,0,0,1,1.38-1.36,1.39,1.39,0,0,1,1,.43,2.76,2.76,0,0,0,.87-.33,1.36,1.36,0,0,1-.61.75,2.75,2.75,0,0,0,.79-.21,2.74,2.74,0,0,1-.69.7"/><path class="cls-4" d="M1257,134.49a1.84,1.84,0,0,0-3.67,0,1.79,1.79,0,0,0,.53,1.3,1.83,1.83,0,0,0,2.6,0,1.79,1.79,0,0,0,.54-1.3m-.26,0a1.55,1.55,0,0,1-.45,1.13,1.53,1.53,0,0,1-1.13.47,1.5,1.5,0,0,1-1.12-.47,1.58,1.58,0,1,1,2.7-1.13m-.89.26a.5.5,0,0,0-.35-.2.76.76,0,0,0,.29-.1.43.43,0,0,0,.2-.4.5.5,0,0,0-.32-.51,1.53,1.53,0,0,0-.54-.07h-.71v2h.36v-.8h.28a.9.9,0,0,1,.4.06.49.49,0,0,1,.19.46v.22a0,0,0,0,0,0,0v0h.34v0a1.05,1.05,0,0,1,0-.11v-.3a.57.57,0,0,0-.11-.31m-.41-.35a1.13,1.13,0,0,1-.35,0h-.32v-.73h.3a.91.91,0,0,1,.43.07.31.31,0,0,1,.13.3.32.32,0,0,1-.2.32"/><path class="cls-4" d="M1184.77,162.1h27.86v-4.93h-21.28v-7.31h14.06v-4.94h-14.06V137.6H1212v-5h-27.21Zm-33.72,0h28.8V157.2h-22.34V132.61l-6.47,0Zm-4-20.74q0-4.81-3-6.75t-9-1.94H1117v29.35h6.58l0-12.17h11.49q6,0,9-1.84t3-6.66m-6.56,0a2.83,2.83,0,0,1-1.44,2.84,8.25,8.25,0,0,1-3.6.7h-11.91v-7.29h11.91a7.11,7.11,0,0,1,3.6.84,3.06,3.06,0,0,1,1.44,2.91M1084.2,162.1h27.86v-4.93h-21.29v-7.28h14.06V145h-14.06V137.6h20.63v-5H1084.2Zm-48.81,0h6.54V132.62h-6.54Z"/><path class="cls-4" d="M1031.72,135.83a21.36,21.36,0,0,0-4.46-2,24.52,24.52,0,0,0-4.12-1.07,31,31,0,0,0-5.16-.47,27.16,27.16,0,0,0-7.09.94,19.33,19.33,0,0,0-6.13,2.85,15,15,0,0,0-4.31,4.71,12.8,12.8,0,0,0-1.64,6.56,13,13,0,0,0,1.64,6.58,15.24,15.24,0,0,0,4.23,4.75,17.31,17.31,0,0,0,5.94,2.77,26.63,26.63,0,0,0,6.74.94,30.17,30.17,0,0,0,5.91-.51,32.26,32.26,0,0,0,4.93-1.4s1.7-.7,3.69-1.76l-3.91-3.92a23.62,23.62,0,0,1-2.57,1.2,25,25,0,0,1-3.79,1.11,24.11,24.11,0,0,1-4.65.47,13.2,13.2,0,0,1-4.24-.7,11.45,11.45,0,0,1-3.72-2.07,10.69,10.69,0,0,1-2.64-3.27,9.13,9.13,0,0,1-1-4.32,9.79,9.79,0,0,1,.89-4.28,8.58,8.58,0,0,1,2.52-3.14,11.37,11.37,0,0,1,3.83-1.91,17.56,17.56,0,0,1,4.86-.63,27.25,27.25,0,0,1,4.66.37c.67.13,1.3.28,1.88.45a15.89,15.89,0,0,1,3.79,1.75Z"/></g><polygon class="cls-4" points="1215.63 132.61 1244.55 161.99 1252.56 161.99 1223.62 132.61 1215.63 132.61"/><polygon class="cls-4" points="1252.56 132.61 1223.64 161.99 1215.63 161.99 1244.58 132.61 1252.56 132.61"/><polygon class="cls-4" points="1079.19 162.03 1079.19 159.64 1079.19 132.56 1073.52 132.56 1073.52 153.86 1052.61 132.57 1052.61 132.56 1046.94 132.56 1046.94 162.03 1052.61 162.03 1052.61 140.78 1073.52 162.02 1073.52 162.03 1073.53 162.03 1079.19 162.03"/><g class="cls-3"><path class="cls-4" d="M1182.67,108.23c0-8.17-23.53-14.85-53.36-15.44l-.25,2.26c24.59.58,43.92,6.5,43.92,13.73,0,7.4-20.28,13.44-45.72,13.76l.18,1.15c30.71-.33,55.22-7.13,55.22-15.46"/><path class="cls-4" d="M1161.26,110.07c0,5.55-15.22,10.09-34.36,10.36l.18,1.14c22.3-.3,40.06-5.58,40.06-12.06,0-6.31-16.86-11.49-38.34-12l-.25,2.27c18.35.5,32.71,4.93,32.71,10.32"/><path class="cls-4" d="M1155.47,110.78c0-4.47-11.91-8.16-27.17-8.61l-.25,2.27c12.17.41,21.61,3.34,21.61,6.9s-10.22,6.73-23.1,6.94l.18,1.13c16-.24,28.75-4,28.75-8.64"/><path class="cls-4" d="M1067.51,108.23c0-8.17,23.53-14.85,53.36-15.44l.25,2.26c-24.59.58-43.92,6.5-43.92,13.73,0,7.4,20.28,13.44,45.72,13.76l-.18,1.15c-30.71-.33-55.22-7.13-55.22-15.46"/><path class="cls-4" d="M1088.91,110.07c0,5.55,15.22,10.09,34.36,10.36l-.18,1.14c-22.3-.3-40.06-5.58-40.06-12.06,0-6.31,16.86-11.49,38.34-12l.25,2.27c-18.35.5-32.71,4.93-32.71,10.32"/><path class="cls-4" d="M1094.71,110.78c0-4.47,11.91-8.16,27.17-8.61l.25,2.27c-12.17.41-21.61,3.34-21.61,6.9s10.22,6.73,23.1,6.94l-.18,1.13c-16-.24-28.75-4-28.75-8.64"/></g><polygon class="cls-4" points="1094.17 185.1 1082.92 185.1 1082.92 169.44 1094.03 169.44 1094.03 171.81 1085.41 171.81 1085.41 176.03 1093.73 176.03 1093.73 178.4 1085.41 178.4 1085.41 182.73 1094.17 182.73 1094.17 185.1"/><polygon class="cls-4" points="1104.72 185.1 1101.61 185.1 1095.73 169.44 1098.38 169.44 1103.19 182.54 1108.02 169.44 1110.6 169.44 1104.72 185.1"/><polygon class="cls-4" points="1123.83 185.1 1112.58 185.1 1112.58 169.44 1123.68 169.44 1123.68 171.81 1115.07 171.81 1115.07 176.03 1123.38 176.03 1123.38 178.4 1115.07 178.4 1115.07 182.73 1123.83 182.73 1123.83 185.1"/><polygon class="cls-4" points="1140.5 185.1 1138.25 185.1 1129.65 173.77 1129.64 185.1 1127.15 185.1 1127.15 169.44 1129.39 169.44 1138.01 180.77 1138.01 169.44 1140.5 169.44 1140.5 185.1"/><polygon class="cls-4" points="1155.03 171.84 1150.04 171.84 1150.04 185.1 1147.55 185.1 1147.55 171.84 1142.56 171.84 1142.56 169.44 1155.03 169.44 1155.03 171.84"/><g class="cls-3"><path class="cls-4" d="M1167.09,172.91a7.89,7.89,0,0,0-4.33-1.34c-2.06,0-3.47.91-3.47,2.34s1.2,1.8,3.21,2.09l1.07.14c2.5.35,5,1.4,5,4.31,0,3.19-2.84,4.93-6.18,4.93a9.91,9.91,0,0,1-6.2-2.1l1.35-2a7.7,7.7,0,0,0,4.84,1.72c2,0,3.6-.87,3.6-2.32,0-1.23-1.21-1.8-3.47-2.11l-1.2-.17c-2.29-.33-4.57-1.42-4.57-4.33,0-3.14,2.74-4.89,6.08-4.89a9.57,9.57,0,0,1,5.57,1.69Z"/><path class="cls-4" d="M807.95,402.33a1.84,1.84,0,0,0-3.67,0,1.79,1.79,0,0,0,.53,1.3,1.83,1.83,0,0,0,2.6,0,1.79,1.79,0,0,0,.54-1.3m-.26,0a1.55,1.55,0,0,1-.45,1.13,1.53,1.53,0,0,1-1.13.47,1.5,1.5,0,0,1-1.12-.47,1.58,1.58,0,1,1,2.7-1.13m-.89.26a.5.5,0,0,0-.35-.2.76.76,0,0,0,.29-.1.43.43,0,0,0,.2-.4.5.5,0,0,0-.32-.51,1.53,1.53,0,0,0-.54-.07h-.71v2h.36v-.8H806a.9.9,0,0,1,.4.06.49.49,0,0,1,.19.46v.22a0,0,0,0,0,0,0v0h.34v0a.66.66,0,0,1,0-.11v-.3a.57.57,0,0,0-.11-.31m-.41-.35a1.13,1.13,0,0,1-.35,0h-.32v-.73h.3a.91.91,0,0,1,.43.07.31.31,0,0,1,.13.3.32.32,0,0,1-.2.32"/><path class="cls-4" d="M735.76,429.94h27.86V425H742.33V417.7H756.4v-4.94H742.33v-7.32H763v-5H735.76ZM702,430h28.8V425H708.5V400.45l-6.47,0Zm-4-20.74q0-4.81-3-6.75t-9-1.94H668V429.9h6.58l0-12.17h11.49q6,0,9-1.84t3-6.66m-6.56,0a2.83,2.83,0,0,1-1.44,2.84,8.23,8.23,0,0,1-3.6.7H674.57v-7.29h11.91a7.11,7.11,0,0,1,3.6.84,3.06,3.06,0,0,1,1.44,2.91m-56.34,20.71H663V425H641.76v-7.28h14.06v-4.94H641.76v-7.35H662.4v-5H635.19Zm-48.81,0h6.54V400.47h-6.54Z"/><path class="cls-4" d="M582.71,403.68a21.36,21.36,0,0,0-4.46-2,24.51,24.51,0,0,0-4.12-1.07,31,31,0,0,0-5.16-.47,27.16,27.16,0,0,0-7.09.94,19.33,19.33,0,0,0-6.13,2.85,15,15,0,0,0-4.31,4.71,12.8,12.8,0,0,0-1.64,6.56,13,13,0,0,0,1.64,6.58,15.24,15.24,0,0,0,4.23,4.75,17.31,17.31,0,0,0,5.94,2.77,26.63,26.63,0,0,0,6.74.94,30.16,30.16,0,0,0,5.91-.51,32.27,32.27,0,0,0,4.93-1.4s1.7-.7,3.69-1.76L579,422.59a23.61,23.61,0,0,1-2.57,1.2,24.81,24.81,0,0,1-3.79,1.11,24.11,24.11,0,0,1-4.65.47,13.2,13.2,0,0,1-4.24-.7,11.45,11.45,0,0,1-3.72-2.07,10.69,10.69,0,0,1-2.64-3.27,9.13,9.13,0,0,1-1-4.32,9.76,9.76,0,0,1,.89-4.28,8.58,8.58,0,0,1,2.52-3.14,11.37,11.37,0,0,1,3.83-1.91,17.57,17.57,0,0,1,4.86-.63,27.25,27.25,0,0,1,4.66.37c.67.13,1.3.28,1.88.45a15.89,15.89,0,0,1,3.79,1.75Z"/></g><polygon class="cls-4" points="766.63 400.45 795.54 429.83 803.55 429.83 774.61 400.45 766.63 400.45"/><polygon class="cls-4" points="803.55 400.45 774.63 429.83 766.63 429.83 795.57 400.45 803.55 400.45"/><polygon class="cls-4" points="630.18 429.87 630.18 427.48 630.18 400.4 624.51 400.4 624.51 421.71 603.6 400.42 603.6 400.4 597.93 400.4 597.93 429.87 603.6 429.87 603.6 408.62 624.51 429.86 624.51 429.87 624.52 429.87 630.18 429.87"/><g class="cls-3"><path class="cls-4" d="M733.66,376.07c0-8.17-23.53-14.85-53.36-15.44L680,362.9c24.59.58,43.92,6.5,43.92,13.73,0,7.4-20.28,13.44-45.72,13.76l.18,1.15c30.71-.33,55.22-7.13,55.22-15.46"/><path class="cls-4" d="M712.26,377.92c0,5.55-15.22,10.09-34.36,10.36l.18,1.14c22.3-.3,40.06-5.58,40.06-12.06,0-6.31-16.86-11.49-38.34-12l-.25,2.27c18.35.5,32.71,4.93,32.71,10.32"/><path class="cls-4" d="M706.46,378.62c0-4.47-11.91-8.16-27.17-8.61l-.25,2.27c12.17.41,21.61,3.34,21.61,6.9s-10.22,6.73-23.1,6.94l.18,1.13c16-.24,28.75-4,28.75-8.64"/><path class="cls-4" d="M618.5,376.07c0-8.17,23.53-14.85,53.36-15.44l.25,2.26c-24.59.58-43.92,6.5-43.92,13.73,0,7.4,20.28,13.44,45.72,13.76l-.18,1.15c-30.71-.33-55.22-7.13-55.22-15.46"/><path class="cls-4" d="M639.9,377.92c0,5.55,15.22,10.09,34.36,10.36l-.18,1.14c-22.3-.3-40.06-5.58-40.06-12.06,0-6.31,16.86-11.49,38.34-12l.25,2.27c-18.35.5-32.71,4.93-32.71,10.32"/><path class="cls-4" d="M645.7,378.62c0-4.47,11.91-8.16,27.17-8.61l.25,2.27c-12.17.41-21.61,3.34-21.61,6.9s10.22,6.73,23.1,6.94l-.18,1.13c-16-.24-28.75-4-28.75-8.64"/></g><polygon class="cls-4" points="645.16 452.94 633.91 452.94 633.91 437.28 645.02 437.28 645.02 439.65 636.4 439.65 636.4 443.87 644.72 443.87 644.72 446.24 636.4 446.24 636.4 450.57 645.16 450.57 645.16 452.94"/><polygon class="cls-4" points="655.71 452.94 652.6 452.94 646.72 437.28 649.38 437.28 654.18 450.38 659.01 437.28 661.59 437.28 655.71 452.94"/><polygon class="cls-4" points="674.82 452.94 663.57 452.94 663.57 437.28 674.67 437.28 674.67 439.65 666.06 439.65 666.06 443.87 674.38 443.87 674.38 446.24 666.06 446.24 666.06 450.57 674.82 450.57 674.82 452.94"/><polygon class="cls-4" points="691.49 452.94 689.24 452.94 680.64 441.61 680.63 452.94 678.14 452.94 678.14 437.28 680.38 437.28 689 448.62 689 437.28 691.49 437.28 691.49 452.94"/><polygon class="cls-4" points="706.02 439.68 701.03 439.68 701.03 452.94 698.54 452.94 698.54 439.68 693.55 439.68 693.55 437.29 706.02 437.29 706.02 439.68"/><g class="cls-3"><path class="cls-4" d="M718.08,440.75a7.89,7.89,0,0,0-4.33-1.34c-2.06,0-3.47.91-3.47,2.34s1.2,1.8,3.21,2.09l1.07.14c2.5.35,5,1.4,5,4.31,0,3.19-2.84,4.93-6.18,4.93a9.91,9.91,0,0,1-6.2-2.1l1.35-2a7.7,7.7,0,0,0,4.84,1.72c2,0,3.6-.87,3.6-2.32,0-1.23-1.21-1.8-3.47-2.11l-1.2-.17c-2.29-.33-4.57-1.42-4.57-4.33,0-3.14,2.74-4.89,6.08-4.89a9.57,9.57,0,0,1,5.57,1.69Z"/><path class="cls-4" d="M1257,402.33a1.84,1.84,0,0,0-3.67,0,1.79,1.79,0,0,0,.53,1.3,1.83,1.83,0,0,0,2.6,0,1.79,1.79,0,0,0,.54-1.3m-.26,0a1.55,1.55,0,0,1-.45,1.13,1.53,1.53,0,0,1-1.13.47,1.5,1.5,0,0,1-1.12-.47,1.58,1.58,0,1,1,2.7-1.13m-.89.26a.5.5,0,0,0-.35-.2.76.76,0,0,0,.29-.1.43.43,0,0,0,.2-.4.5.5,0,0,0-.32-.51,1.53,1.53,0,0,0-.54-.07h-.71v2h.36v-.8h.28a.9.9,0,0,1,.4.06.49.49,0,0,1,.19.46v.22a0,0,0,0,0,0,0v0h.34v0a1.05,1.05,0,0,1,0-.11v-.3a.57.57,0,0,0-.11-.31m-.41-.35a1.14,1.14,0,0,1-.35,0h-.32v-.73h.3a.91.91,0,0,1,.43.07.31.31,0,0,1,.13.3.32.32,0,0,1-.2.32"/><path class="cls-4" d="M1184.77,429.94h27.86V425h-21.28V417.7h14.06v-4.94h-14.06v-7.32H1212v-5h-27.21ZM1151,430h28.8V425h-22.34V400.45l-6.47,0Zm-4-20.74q0-4.81-3-6.75t-9-1.94H1117V429.9h6.58l0-12.17h11.49q6,0,9-1.84t3-6.66m-6.56,0a2.83,2.83,0,0,1-1.44,2.84,8.23,8.23,0,0,1-3.6.7h-11.91v-7.29h11.91a7.11,7.11,0,0,1,3.6.84,3.06,3.06,0,0,1,1.44,2.91m-56.34,20.71h27.86V425h-21.29v-7.28h14.06v-4.94h-14.06v-7.35h20.63v-5H1084.2Zm-48.81,0h6.54V400.47h-6.54Z"/><path class="cls-4" d="M1031.72,403.68a21.36,21.36,0,0,0-4.46-2,24.51,24.51,0,0,0-4.12-1.07,31,31,0,0,0-5.16-.47,27.16,27.16,0,0,0-7.09.94,19.33,19.33,0,0,0-6.13,2.85,15,15,0,0,0-4.31,4.71,12.8,12.8,0,0,0-1.64,6.56,13,13,0,0,0,1.64,6.58,15.23,15.23,0,0,0,4.23,4.75,17.31,17.31,0,0,0,5.94,2.77,26.63,26.63,0,0,0,6.74.94,30.17,30.17,0,0,0,5.91-.51,32.27,32.27,0,0,0,4.93-1.4s1.7-.7,3.69-1.76l-3.91-3.92a23.62,23.62,0,0,1-2.57,1.2,24.8,24.8,0,0,1-3.79,1.11,24.11,24.11,0,0,1-4.65.47,13.2,13.2,0,0,1-4.24-.7,11.45,11.45,0,0,1-3.72-2.07,10.69,10.69,0,0,1-2.64-3.27,9.13,9.13,0,0,1-1-4.32,9.79,9.79,0,0,1,.89-4.28,8.58,8.58,0,0,1,2.52-3.14,11.37,11.37,0,0,1,3.83-1.91,17.56,17.56,0,0,1,4.86-.63,27.25,27.25,0,0,1,4.66.37c.67.13,1.3.28,1.88.45a15.89,15.89,0,0,1,3.79,1.75Z"/></g><polygon class="cls-4" points="1215.63 400.45 1244.55 429.83 1252.56 429.83 1223.62 400.45 1215.63 400.45"/><polygon class="cls-4" points="1252.56 400.45 1223.64 429.83 1215.63 429.83 1244.58 400.45 1252.56 400.45"/><polygon class="cls-4" points="1079.19 429.87 1079.19 427.48 1079.19 400.4 1073.52 400.4 1073.52 421.71 1052.61 400.42 1052.61 400.4 1046.94 400.4 1046.94 429.87 1052.61 429.87 1052.61 408.62 1073.52 429.86 1073.52 429.87 1073.53 429.87 1079.19 429.87"/><g class="cls-3"><path class="cls-4" d="M1182.67,376.07c0-8.17-23.53-14.85-53.36-15.44l-.25,2.26c24.59.58,43.92,6.5,43.92,13.73,0,7.4-20.28,13.44-45.72,13.76l.18,1.15c30.71-.33,55.22-7.13,55.22-15.46"/><path class="cls-4" d="M1161.26,377.92c0,5.55-15.22,10.09-34.36,10.36l.18,1.14c22.3-.3,40.06-5.58,40.06-12.06,0-6.31-16.86-11.49-38.34-12l-.25,2.27c18.35.5,32.71,4.93,32.71,10.32"/><path class="cls-4" d="M1155.47,378.62c0-4.47-11.91-8.16-27.17-8.61l-.25,2.27c12.17.41,21.61,3.34,21.61,6.9s-10.22,6.73-23.1,6.94l.18,1.13c16-.24,28.75-4,28.75-8.64"/><path class="cls-4" d="M1067.51,376.07c0-8.17,23.53-14.85,53.36-15.44l.25,2.26c-24.59.58-43.92,6.5-43.92,13.73,0,7.4,20.28,13.44,45.72,13.76l-.18,1.15c-30.71-.33-55.22-7.13-55.22-15.46"/><path class="cls-4" d="M1088.91,377.92c0,5.55,15.22,10.09,34.36,10.36l-.18,1.14c-22.3-.3-40.06-5.58-40.06-12.06,0-6.31,16.86-11.49,38.34-12l.25,2.27c-18.35.5-32.71,4.93-32.71,10.32"/><path class="cls-4" d="M1094.71,378.62c0-4.47,11.91-8.16,27.17-8.61l.25,2.27c-12.17.41-21.61,3.34-21.61,6.9s10.22,6.73,23.1,6.94l-.18,1.13c-16-.24-28.75-4-28.75-8.64"/></g><polygon class="cls-4" points="1094.17 452.94 1082.92 452.94 1082.92 437.28 1094.03 437.28 1094.03 439.65 1085.41 439.65 1085.41 443.87 1093.73 443.87 1093.73 446.24 1085.41 446.24 1085.41 450.57 1094.17 450.57 1094.17 452.94"/><polygon class="cls-4" points="1104.72 452.94 1101.61 452.94 1095.73 437.28 1098.38 437.28 1103.19 450.38 1108.02 437.28 1110.6 437.28 1104.72 452.94"/><polygon class="cls-4" points="1123.83 452.94 1112.58 452.94 1112.58 437.28 1123.68 437.28 1123.68 439.65 1115.07 439.65 1115.07 443.87 1123.38 443.87 1123.38 446.24 1115.07 446.24 1115.07 450.57 1123.83 450.57 1123.83 452.94"/><polygon class="cls-4" points="1140.5 452.94 1138.25 452.94 1129.65 441.61 1129.64 452.94 1127.15 452.94 1127.15 437.28 1129.39 437.28 1138.01 448.62 1138.01 437.28 1140.5 437.28 1140.5 452.94"/><polygon class="cls-4" points="1155.03 439.68 1150.04 439.68 1150.04 452.94 1147.55 452.94 1147.55 439.68 1142.56 439.68 1142.56 437.29 1155.03 437.29 1155.03 439.68"/><g class="cls-3"><path class="cls-4" d="M1167.09,440.75a7.89,7.89,0,0,0-4.33-1.34c-2.06,0-3.47.91-3.47,2.34s1.2,1.8,3.21,2.09l1.07.14c2.5.35,5,1.4,5,4.31,0,3.19-2.84,4.93-6.18,4.93a9.91,9.91,0,0,1-6.2-2.1l1.35-2a7.7,7.7,0,0,0,4.84,1.72c2,0,3.6-.87,3.6-2.32,0-1.23-1.21-1.8-3.47-2.11l-1.2-.17c-2.29-.33-4.57-1.42-4.57-4.33,0-3.14,2.74-4.89,6.08-4.89a9.57,9.57,0,0,1,5.57,1.69Z"/><path class="cls-4" d="M358.94,402.33a1.84,1.84,0,0,0-3.67,0,1.79,1.79,0,0,0,.53,1.3,1.83,1.83,0,0,0,2.6,0,1.79,1.79,0,0,0,.54-1.3m-.26,0a1.55,1.55,0,0,1-.45,1.13,1.53,1.53,0,0,1-1.13.47,1.5,1.5,0,0,1-1.12-.47,1.58,1.58,0,1,1,2.7-1.13m-.89.26a.5.5,0,0,0-.35-.2.76.76,0,0,0,.29-.1.43.43,0,0,0,.2-.4.5.5,0,0,0-.32-.51,1.53,1.53,0,0,0-.54-.07h-.71v2h.36v-.8H357a.9.9,0,0,1,.4.06.49.49,0,0,1,.19.46v.22a0,0,0,0,0,0,0v0h.34v0a.66.66,0,0,1,0-.11v-.3a.57.57,0,0,0-.11-.31m-.41-.35a1.13,1.13,0,0,1-.35,0h-.32v-.73h.3a.91.91,0,0,1,.43.07.31.31,0,0,1,.13.3.32.32,0,0,1-.2.32"/><path class="cls-4" d="M286.75,429.94h27.86V425H293.33V417.7h14.06v-4.94H293.33v-7.32H314v-5H286.75ZM253,430h28.8V425H259.49V400.45l-6.47,0Zm-4-20.74q0-4.81-3-6.75t-9-1.94H219V429.9h6.58l0-12.17h11.49q6,0,9-1.84t3-6.66m-6.56,0a2.83,2.83,0,0,1-1.44,2.84,8.23,8.23,0,0,1-3.6.7H225.56v-7.29h11.91a7.11,7.11,0,0,1,3.6.84,3.06,3.06,0,0,1,1.44,2.91m-56.34,20.71H214V425H192.75v-7.28h14.06v-4.94H192.75v-7.35h20.63v-5H186.18Zm-48.81,0h6.54V400.47h-6.54Z"/><path class="cls-4" d="M133.7,403.68a21.36,21.36,0,0,0-4.46-2,24.51,24.51,0,0,0-4.12-1.07,31,31,0,0,0-5.16-.47,27.16,27.16,0,0,0-7.09.94,19.33,19.33,0,0,0-6.13,2.85,15,15,0,0,0-4.31,4.71,12.8,12.8,0,0,0-1.64,6.56,13,13,0,0,0,1.64,6.58,15.24,15.24,0,0,0,4.23,4.75,17.31,17.31,0,0,0,5.94,2.77,26.63,26.63,0,0,0,6.74.94,30.17,30.17,0,0,0,5.91-.51,32.27,32.27,0,0,0,4.93-1.4s1.7-.7,3.69-1.76L130,422.59a23.61,23.61,0,0,1-2.57,1.2,24.81,24.81,0,0,1-3.79,1.11,24.11,24.11,0,0,1-4.65.47,13.2,13.2,0,0,1-4.24-.7,11.45,11.45,0,0,1-3.72-2.07,10.69,10.69,0,0,1-2.64-3.27,9.13,9.13,0,0,1-1-4.32,9.76,9.76,0,0,1,.89-4.28,8.58,8.58,0,0,1,2.52-3.14,11.37,11.37,0,0,1,3.83-1.91,17.56,17.56,0,0,1,4.86-.63,27.25,27.25,0,0,1,4.66.37c.67.13,1.3.28,1.88.45a15.89,15.89,0,0,1,3.79,1.75Z"/></g><polygon class="cls-4" points="317.62 400.45 346.54 429.83 354.55 429.83 325.6 400.45 317.62 400.45"/><polygon class="cls-4" points="354.55 400.45 325.63 429.83 317.62 429.83 346.56 400.45 354.55 400.45"/><polygon class="cls-4" points="181.17 429.87 181.17 427.48 181.17 400.4 175.5 400.4 175.5 421.71 154.59 400.42 154.59 400.4 148.92 400.4 148.92 429.87 154.59 429.87 154.59 408.62 175.5 429.86 175.5 429.87 175.51 429.87 181.17 429.87"/><g class="cls-3"><path class="cls-4" d="M284.65,376.07c0-8.17-23.53-14.85-53.36-15.44L231,362.9c24.59.58,43.92,6.5,43.92,13.73,0,7.4-20.28,13.44-45.72,13.76l.18,1.15c30.71-.33,55.22-7.13,55.22-15.46"/><path class="cls-4" d="M263.25,377.92c0,5.55-15.22,10.09-34.36,10.36l.18,1.14c22.3-.3,40.06-5.58,40.06-12.06,0-6.31-16.86-11.49-38.34-12l-.25,2.27c18.35.5,32.71,4.93,32.71,10.32"/><path class="cls-4" d="M257.45,378.62c0-4.47-11.91-8.16-27.17-8.61l-.25,2.27c12.17.41,21.61,3.34,21.61,6.9s-10.22,6.73-23.1,6.94l.18,1.13c16-.24,28.75-4,28.75-8.64"/><path class="cls-4" d="M169.49,376.07c0-8.17,23.53-14.85,53.36-15.44l.25,2.26c-24.59.58-43.92,6.5-43.92,13.73,0,7.4,20.28,13.44,45.72,13.76l-.18,1.15c-30.71-.33-55.22-7.13-55.22-15.46"/><path class="cls-4" d="M190.89,377.92c0,5.55,15.22,10.09,34.36,10.36l-.18,1.14c-22.3-.3-40.06-5.58-40.06-12.06,0-6.31,16.86-11.49,38.34-12l.25,2.27c-18.35.5-32.71,4.93-32.71,10.32"/><path class="cls-4" d="M196.69,378.62c0-4.47,11.91-8.16,27.17-8.61l.25,2.27c-12.17.41-21.61,3.34-21.61,6.9s10.22,6.73,23.1,6.94l-.18,1.13c-16-.24-28.75-4-28.75-8.64"/></g><polygon class="cls-4" points="196.15 452.94 184.91 452.94 184.91 437.28 196.01 437.28 196.01 439.65 187.4 439.65 187.4 443.87 195.71 443.87 195.71 446.24 187.4 446.24 187.4 450.57 196.15 450.57 196.15 452.94"/><polygon class="cls-4" points="206.7 452.94 203.59 452.94 197.71 437.28 200.37 437.28 205.17 450.38 210 437.28 212.58 437.28 206.7 452.94"/><polygon class="cls-4" points="225.81 452.94 214.56 452.94 214.56 437.28 225.66 437.28 225.66 439.65 217.05 439.65 217.05 443.87 225.37 443.87 225.37 446.24 217.05 446.24 217.05 450.57 225.81 450.57 225.81 452.94"/><polygon class="cls-4" points="242.48 452.94 240.23 452.94 231.63 441.61 231.62 452.94 229.13 452.94 229.13 437.28 231.38 437.28 239.99 448.62 239.99 437.28 242.48 437.28 242.48 452.94"/><polygon class="cls-4" points="257.01 439.68 252.02 439.68 252.02 452.94 249.53 452.94 249.53 439.68 244.54 439.68 244.54 437.29 257.01 437.29 257.01 439.68"/><g class="cls-3"><path class="cls-4" d="M269.07,440.75a7.89,7.89,0,0,0-4.33-1.34c-2.06,0-3.47.91-3.47,2.34s1.2,1.8,3.21,2.09l1.07.14c2.5.35,5,1.4,5,4.31,0,3.19-2.84,4.93-6.18,4.93a9.91,9.91,0,0,1-6.2-2.1l1.35-2a7.7,7.7,0,0,0,4.84,1.72c2,0,3.6-.87,3.6-2.32,0-1.23-1.21-1.8-3.47-2.11l-1.2-.17c-2.29-.33-4.57-1.42-4.57-4.33,0-3.14,2.74-4.89,6.08-4.89a9.57,9.57,0,0,1,5.57,1.69Z"/><path class="cls-4" d="M807.95,670.19a1.84,1.84,0,0,0-3.67,0,1.79,1.79,0,0,0,.53,1.3,1.83,1.83,0,0,0,2.6,0,1.79,1.79,0,0,0,.54-1.3m-.26,0a1.55,1.55,0,0,1-.45,1.13,1.53,1.53,0,0,1-1.13.47,1.5,1.5,0,0,1-1.12-.47,1.58,1.58,0,1,1,2.7-1.13m-.89.26a.5.5,0,0,0-.35-.2.76.76,0,0,0,.29-.1.43.43,0,0,0,.2-.4.5.5,0,0,0-.32-.51,1.53,1.53,0,0,0-.54-.07h-.71v2h.36v-.8H806a.9.9,0,0,1,.4.06.49.49,0,0,1,.19.46v.22a0,0,0,0,0,0,0v0h.34v0a.66.66,0,0,1,0-.11v-.3a.57.57,0,0,0-.11-.31m-.41-.35a1.13,1.13,0,0,1-.35,0h-.32v-.73h.3a.91.91,0,0,1,.43.07.31.31,0,0,1,.13.3.32.32,0,0,1-.2.32"/><path class="cls-4" d="M735.76,697.8h27.86v-4.93H742.33v-7.31H756.4v-4.94H742.33V673.3H763v-5H735.76Zm-33.72,0h28.8V692.9H708.5V668.31l-6.47,0Zm-4-20.74q0-4.81-3-6.75t-9-1.94H668v29.35h6.58l0-12.17h11.49q6,0,9-1.84t3-6.66m-6.56,0a2.83,2.83,0,0,1-1.44,2.84,8.23,8.23,0,0,1-3.6.7H674.57v-7.29h11.91a7.11,7.11,0,0,1,3.6.84,3.06,3.06,0,0,1,1.44,2.91M635.19,697.8H663v-4.93H641.76v-7.28h14.06v-4.94H641.76V673.3H662.4v-5H635.19Zm-48.81,0h6.54V668.33h-6.54Z"/><path class="cls-4" d="M582.71,671.54a21.36,21.36,0,0,0-4.46-2,24.51,24.51,0,0,0-4.12-1.07,31,31,0,0,0-5.16-.47,27.16,27.16,0,0,0-7.09.94,19.33,19.33,0,0,0-6.13,2.85,15,15,0,0,0-4.31,4.71A12.8,12.8,0,0,0,549.8,683a13,13,0,0,0,1.64,6.58,15.24,15.24,0,0,0,4.23,4.75,17.31,17.31,0,0,0,5.94,2.77,26.63,26.63,0,0,0,6.74.94,30.16,30.16,0,0,0,5.91-.51,32.28,32.28,0,0,0,4.93-1.4s1.7-.7,3.69-1.76L579,690.45a23.61,23.61,0,0,1-2.57,1.2,24.8,24.8,0,0,1-3.79,1.11,24.11,24.11,0,0,1-4.65.47,13.2,13.2,0,0,1-4.24-.7,11.45,11.45,0,0,1-3.72-2.07,10.69,10.69,0,0,1-2.64-3.27,9.13,9.13,0,0,1-1-4.32,9.76,9.76,0,0,1,.89-4.28,8.58,8.58,0,0,1,2.52-3.14,11.37,11.37,0,0,1,3.83-1.91,17.57,17.57,0,0,1,4.86-.63,27.25,27.25,0,0,1,4.66.37c.67.13,1.3.28,1.88.45a15.89,15.89,0,0,1,3.79,1.75Z"/></g><polygon class="cls-4" points="766.63 668.31 795.54 697.69 803.55 697.69 774.61 668.31 766.63 668.31"/><polygon class="cls-4" points="803.55 668.31 774.63 697.69 766.63 697.69 795.57 668.31 803.55 668.31"/><polygon class="cls-4" points="630.18 697.73 630.18 695.34 630.18 668.26 624.51 668.26 624.51 689.57 603.6 668.27 603.6 668.26 597.93 668.26 597.93 697.73 603.6 697.73 603.6 676.48 624.51 697.72 624.51 697.73 624.52 697.73 630.18 697.73"/><g class="cls-3"><path class="cls-4" d="M733.66,643.93c0-8.17-23.53-14.85-53.36-15.44l-.25,2.26c24.59.58,43.92,6.5,43.92,13.73,0,7.4-20.28,13.44-45.72,13.76l.18,1.15c30.71-.33,55.22-7.13,55.22-15.46"/><path class="cls-4" d="M712.26,645.77c0,5.55-15.22,10.09-34.36,10.36l.18,1.14c22.3-.3,40.06-5.58,40.06-12.06,0-6.31-16.86-11.49-38.34-12l-.25,2.27c18.35.5,32.71,4.93,32.71,10.32"/><path class="cls-4" d="M706.46,646.48c0-4.47-11.91-8.16-27.17-8.61l-.25,2.27c12.17.41,21.61,3.34,21.61,6.9s-10.22,6.73-23.1,6.94l.18,1.13c16-.24,28.75-4,28.75-8.64"/><path class="cls-4" d="M618.5,643.93c0-8.17,23.53-14.85,53.36-15.44l.25,2.26c-24.59.58-43.92,6.5-43.92,13.73,0,7.4,20.28,13.44,45.72,13.76l-.18,1.15c-30.71-.33-55.22-7.13-55.22-15.46"/><path class="cls-4" d="M639.9,645.77c0,5.55,15.22,10.09,34.36,10.36l-.18,1.14c-22.3-.3-40.06-5.58-40.06-12.06,0-6.31,16.86-11.49,38.34-12l.25,2.27c-18.35.5-32.71,4.93-32.71,10.32"/><path class="cls-4" d="M645.7,646.48c0-4.47,11.91-8.16,27.17-8.61l.25,2.27c-12.17.41-21.61,3.34-21.61,6.9s10.22,6.73,23.1,6.94l-.18,1.13c-16-.24-28.75-4-28.75-8.64"/></g><polygon class="cls-4" points="645.16 720.8 633.91 720.8 633.91 705.14 645.02 705.14 645.02 707.51 636.4 707.51 636.4 711.73 644.72 711.73 644.72 714.1 636.4 714.1 636.4 718.43 645.16 718.43 645.16 720.8"/><polygon class="cls-4" points="655.71 720.8 652.6 720.8 646.72 705.14 649.38 705.14 654.18 718.24 659.01 705.14 661.59 705.14 655.71 720.8"/><polygon class="cls-4" points="674.82 720.8 663.57 720.8 663.57 705.14 674.67 705.14 674.67 707.51 666.06 707.51 666.06 711.73 674.38 711.73 674.38 714.1 666.06 714.1 666.06 718.43 674.82 718.43 674.82 720.8"/><polygon class="cls-4" points="691.49 720.8 689.24 720.8 680.64 709.47 680.63 720.8 678.14 720.8 678.14 705.14 680.38 705.14 689 716.48 689 705.14 691.49 705.14 691.49 720.8"/><polygon class="cls-4" points="706.02 707.54 701.03 707.54 701.03 720.8 698.54 720.8 698.54 707.54 693.55 707.54 693.55 705.14 706.02 705.14 706.02 707.54"/><g class="cls-3"><path class="cls-4" d="M718.08,708.61a7.89,7.89,0,0,0-4.33-1.34c-2.06,0-3.47.91-3.47,2.34s1.2,1.8,3.21,2.09l1.07.14c2.5.35,5,1.4,5,4.31,0,3.19-2.84,4.93-6.18,4.93a9.91,9.91,0,0,1-6.2-2.1l1.35-2a7.7,7.7,0,0,0,4.84,1.72c2,0,3.6-.87,3.6-2.32,0-1.23-1.21-1.8-3.47-2.11l-1.2-.17c-2.29-.33-4.57-1.42-4.57-4.33,0-3.14,2.74-4.89,6.08-4.89a9.57,9.57,0,0,1,5.57,1.69Z"/><path class="cls-4" d="M1257,670.19a1.84,1.84,0,0,0-3.67,0,1.79,1.79,0,0,0,.53,1.3,1.83,1.83,0,0,0,2.6,0,1.79,1.79,0,0,0,.54-1.3m-.26,0a1.55,1.55,0,0,1-.45,1.13,1.53,1.53,0,0,1-1.13.47,1.5,1.5,0,0,1-1.12-.47,1.58,1.58,0,1,1,2.7-1.13m-.89.26a.5.5,0,0,0-.35-.2.76.76,0,0,0,.29-.1.43.43,0,0,0,.2-.4.5.5,0,0,0-.32-.51,1.53,1.53,0,0,0-.54-.07h-.71v2h.36v-.8h.28a.9.9,0,0,1,.4.06.49.49,0,0,1,.19.46v.22a0,0,0,0,0,0,0v0h.34v0a1.05,1.05,0,0,1,0-.11v-.3a.57.57,0,0,0-.11-.31m-.41-.35a1.14,1.14,0,0,1-.35,0h-.32v-.73h.3a.91.91,0,0,1,.43.07.31.31,0,0,1,.13.3.32.32,0,0,1-.2.32"/><path class="cls-4" d="M1184.77,697.8h27.86v-4.93h-21.28v-7.31h14.06v-4.94h-14.06V673.3H1212v-5h-27.21Zm-33.72,0h28.8V692.9h-22.34V668.31l-6.47,0Zm-4-20.74q0-4.81-3-6.75t-9-1.94H1117v29.35h6.58l0-12.17h11.49q6,0,9-1.84t3-6.66m-6.56,0a2.83,2.83,0,0,1-1.44,2.84,8.23,8.23,0,0,1-3.6.7h-11.91v-7.29h11.91a7.11,7.11,0,0,1,3.6.84,3.06,3.06,0,0,1,1.44,2.91M1084.2,697.8h27.86v-4.93h-21.29v-7.28h14.06v-4.94h-14.06V673.3h20.63v-5H1084.2Zm-48.81,0h6.54V668.33h-6.54Z"/><path class="cls-4" d="M1031.72,671.54a21.36,21.36,0,0,0-4.46-2,24.51,24.51,0,0,0-4.12-1.07,31,31,0,0,0-5.16-.47,27.16,27.16,0,0,0-7.09.94,19.33,19.33,0,0,0-6.13,2.85,15,15,0,0,0-4.31,4.71,12.8,12.8,0,0,0-1.64,6.56,13,13,0,0,0,1.64,6.58,15.23,15.23,0,0,0,4.23,4.75,17.31,17.31,0,0,0,5.94,2.77,26.63,26.63,0,0,0,6.74.94,30.17,30.17,0,0,0,5.91-.51,32.27,32.27,0,0,0,4.93-1.4s1.7-.7,3.69-1.76l-3.91-3.92a23.62,23.62,0,0,1-2.57,1.2,24.8,24.8,0,0,1-3.79,1.11,24.11,24.11,0,0,1-4.65.47,13.2,13.2,0,0,1-4.24-.7,11.45,11.45,0,0,1-3.72-2.07,10.69,10.69,0,0,1-2.64-3.27,9.13,9.13,0,0,1-1-4.32,9.79,9.79,0,0,1,.89-4.28,8.58,8.58,0,0,1,2.52-3.14,11.37,11.37,0,0,1,3.83-1.91,17.56,17.56,0,0,1,4.86-.63,27.25,27.25,0,0,1,4.66.37c.67.13,1.3.28,1.88.45a15.89,15.89,0,0,1,3.79,1.75Z"/></g><polygon class="cls-4" points="1215.63 668.31 1244.55 697.69 1252.56 697.69 1223.62 668.31 1215.63 668.31"/><polygon class="cls-4" points="1252.56 668.31 1223.64 697.69 1215.63 697.69 1244.58 668.31 1252.56 668.31"/><polygon class="cls-4" points="1079.19 697.73 1079.19 695.34 1079.19 668.26 1073.52 668.26 1073.52 689.57 1052.61 668.27 1052.61 668.26 1046.94 668.26 1046.94 697.73 1052.61 697.73 1052.61 676.48 1073.52 697.72 1073.52 697.73 1073.53 697.73 1079.19 697.73"/><g class="cls-3"><path class="cls-4" d="M1182.67,643.93c0-8.17-23.53-14.85-53.36-15.44l-.25,2.26c24.59.58,43.92,6.5,43.92,13.73,0,7.4-20.28,13.44-45.72,13.76l.18,1.15c30.71-.33,55.22-7.13,55.22-15.46"/><path class="cls-4" d="M1161.26,645.77c0,5.55-15.22,10.09-34.36,10.36l.18,1.14c22.3-.3,40.06-5.58,40.06-12.06,0-6.31-16.86-11.49-38.34-12l-.25,2.27c18.35.5,32.71,4.93,32.71,10.32"/><path class="cls-4" d="M1155.47,646.48c0-4.47-11.91-8.16-27.17-8.61l-.25,2.27c12.17.41,21.61,3.34,21.61,6.9s-10.22,6.73-23.1,6.94l.18,1.13c16-.24,28.75-4,28.75-8.64"/><path class="cls-4" d="M1067.51,643.93c0-8.17,23.53-14.85,53.36-15.44l.25,2.26c-24.59.58-43.92,6.5-43.92,13.73,0,7.4,20.28,13.44,45.72,13.76l-.18,1.15c-30.71-.33-55.22-7.13-55.22-15.46"/><path class="cls-4" d="M1088.91,645.77c0,5.55,15.22,10.09,34.36,10.36l-.18,1.14c-22.3-.3-40.06-5.58-40.06-12.06,0-6.31,16.86-11.49,38.34-12l.25,2.27c-18.35.5-32.71,4.93-32.71,10.32"/><path class="cls-4" d="M1094.71,646.48c0-4.47,11.91-8.16,27.17-8.61l.25,2.27c-12.17.41-21.61,3.34-21.61,6.9s10.22,6.73,23.1,6.94l-.18,1.13c-16-.24-28.75-4-28.75-8.64"/></g><polygon class="cls-4" points="1094.17 720.8 1082.92 720.8 1082.92 705.14 1094.03 705.14 1094.03 707.51 1085.41 707.51 1085.41 711.73 1093.73 711.73 1093.73 714.1 1085.41 714.1 1085.41 718.43 1094.17 718.43 1094.17 720.8"/><polygon class="cls-4" points="1104.72 720.8 1101.61 720.8 1095.73 705.14 1098.38 705.14 1103.19 718.24 1108.02 705.14 1110.6 705.14 1104.72 720.8"/><polygon class="cls-4" points="1123.83 720.8 1112.58 720.8 1112.58 705.14 1123.68 705.14 1123.68 707.51 1115.07 707.51 1115.07 711.73 1123.38 711.73 1123.38 714.1 1115.07 714.1 1115.07 718.43 1123.83 718.43 1123.83 720.8"/><polygon class="cls-4" points="1140.5 720.8 1138.25 720.8 1129.65 709.47 1129.64 720.8 1127.15 720.8 1127.15 705.14 1129.39 705.14 1138.01 716.48 1138.01 705.14 1140.5 705.14 1140.5 720.8"/><polygon class="cls-4" points="1155.03 707.54 1150.04 707.54 1150.04 720.8 1147.55 720.8 1147.55 707.54 1142.56 707.54 1142.56 705.14 1155.03 705.14 1155.03 707.54"/><g class="cls-3"><path class="cls-4" d="M1167.09,708.61a7.89,7.89,0,0,0-4.33-1.34c-2.06,0-3.47.91-3.47,2.34s1.2,1.8,3.21,2.09l1.07.14c2.5.35,5,1.4,5,4.31,0,3.19-2.84,4.93-6.18,4.93a9.91,9.91,0,0,1-6.2-2.1l1.35-2a7.7,7.7,0,0,0,4.84,1.72c2,0,3.6-.87,3.6-2.32,0-1.23-1.21-1.8-3.47-2.11l-1.2-.17c-2.29-.33-4.57-1.42-4.57-4.33,0-3.14,2.74-4.89,6.08-4.89a9.57,9.57,0,0,1,5.57,1.69Z"/><path class="cls-4" d="M358.94,670.19a1.84,1.84,0,0,0-3.67,0,1.79,1.79,0,0,0,.53,1.3,1.83,1.83,0,0,0,2.6,0,1.79,1.79,0,0,0,.54-1.3m-.26,0a1.55,1.55,0,0,1-.45,1.13,1.53,1.53,0,0,1-1.13.47,1.5,1.5,0,0,1-1.12-.47,1.58,1.58,0,1,1,2.7-1.13m-.89.26a.5.5,0,0,0-.35-.2.76.76,0,0,0,.29-.1.43.43,0,0,0,.2-.4.5.5,0,0,0-.32-.51,1.53,1.53,0,0,0-.54-.07h-.71v2h.36v-.8H357a.9.9,0,0,1,.4.06.49.49,0,0,1,.19.46v.22a0,0,0,0,0,0,0v0h.34v0a.66.66,0,0,1,0-.11v-.3a.57.57,0,0,0-.11-.31m-.41-.35a1.13,1.13,0,0,1-.35,0h-.32v-.73h.3a.91.91,0,0,1,.43.07.31.31,0,0,1,.13.3.32.32,0,0,1-.2.32"/><path class="cls-4" d="M286.75,697.8h27.86v-4.93H293.33v-7.31h14.06v-4.94H293.33V673.3H314v-5H286.75Zm-33.72,0h28.8V692.9H259.49V668.31l-6.47,0Zm-4-20.74q0-4.81-3-6.75t-9-1.94H219v29.35h6.58l0-12.17h11.49q6,0,9-1.84t3-6.66m-6.56,0a2.83,2.83,0,0,1-1.44,2.84,8.23,8.23,0,0,1-3.6.7H225.56v-7.29h11.91a7.11,7.11,0,0,1,3.6.84,3.06,3.06,0,0,1,1.44,2.91M186.18,697.8H214v-4.93H192.75v-7.28h14.06v-4.94H192.75V673.3h20.63v-5H186.18Zm-48.81,0h6.54V668.33h-6.54Z"/><path class="cls-4" d="M133.7,671.54a21.36,21.36,0,0,0-4.46-2,24.51,24.51,0,0,0-4.12-1.07,31,31,0,0,0-5.16-.47,27.16,27.16,0,0,0-7.09.94,19.33,19.33,0,0,0-6.13,2.85,15,15,0,0,0-4.31,4.71,12.8,12.8,0,0,0-1.64,6.56,13,13,0,0,0,1.64,6.58,15.24,15.24,0,0,0,4.23,4.75,17.31,17.31,0,0,0,5.94,2.77,26.63,26.63,0,0,0,6.74.94,30.17,30.17,0,0,0,5.91-.51,32.27,32.27,0,0,0,4.93-1.4s1.7-.7,3.69-1.76L130,690.45a23.61,23.61,0,0,1-2.57,1.2,24.8,24.8,0,0,1-3.79,1.11,24.11,24.11,0,0,1-4.65.47,13.2,13.2,0,0,1-4.24-.7,11.45,11.45,0,0,1-3.72-2.07,10.69,10.69,0,0,1-2.64-3.27,9.13,9.13,0,0,1-1-4.32,9.76,9.76,0,0,1,.89-4.28,8.58,8.58,0,0,1,2.52-3.14,11.37,11.37,0,0,1,3.83-1.91,17.56,17.56,0,0,1,4.86-.63,27.25,27.25,0,0,1,4.66.37c.67.13,1.3.28,1.88.45a15.89,15.89,0,0,1,3.79,1.75Z"/></g><polygon class="cls-4" points="317.62 668.31 346.54 697.69 354.55 697.69 325.6 668.31 317.62 668.31"/><polygon class="cls-4" points="354.55 668.31 325.63 697.69 317.62 697.69 346.56 668.31 354.55 668.31"/><polygon class="cls-4" points="181.17 697.73 181.17 695.34 181.17 668.26 175.5 668.26 175.5 689.57 154.59 668.27 154.59 668.26 148.92 668.26 148.92 697.73 154.59 697.73 154.59 676.48 175.5 697.72 175.5 697.73 175.51 697.73 181.17 697.73"/><g class="cls-3"><path class="cls-4" d="M284.65,643.93c0-8.17-23.53-14.85-53.36-15.44l-.25,2.26c24.59.58,43.92,6.5,43.92,13.73,0,7.4-20.28,13.44-45.72,13.76l.18,1.15c30.71-.33,55.22-7.13,55.22-15.46"/><path class="cls-4" d="M263.25,645.77c0,5.55-15.22,10.09-34.36,10.36l.18,1.14c22.3-.3,40.06-5.58,40.06-12.06,0-6.31-16.86-11.49-38.34-12l-.25,2.27c18.35.5,32.71,4.93,32.71,10.32"/><path class="cls-4" d="M257.45,646.48c0-4.47-11.91-8.16-27.17-8.61l-.25,2.27c12.17.41,21.61,3.34,21.61,6.9s-10.22,6.73-23.1,6.94l.18,1.13c16-.24,28.75-4,28.75-8.64"/><path class="cls-4" d="M169.49,643.93c0-8.17,23.53-14.85,53.36-15.44l.25,2.26c-24.59.58-43.92,6.5-43.92,13.73,0,7.4,20.28,13.44,45.72,13.76l-.18,1.15c-30.71-.33-55.22-7.13-55.22-15.46"/><path class="cls-4" d="M190.89,645.77c0,5.55,15.22,10.09,34.36,10.36l-.18,1.14c-22.3-.3-40.06-5.58-40.06-12.06,0-6.31,16.86-11.49,38.34-12l.25,2.27c-18.35.5-32.71,4.93-32.71,10.32"/><path class="cls-4" d="M196.69,646.48c0-4.47,11.91-8.16,27.17-8.61l.25,2.27c-12.17.41-21.61,3.34-21.61,6.9s10.22,6.73,23.1,6.94l-.18,1.13c-16-.24-28.75-4-28.75-8.64"/></g><polygon class="cls-4" points="196.15 720.8 184.91 720.8 184.91 705.14 196.01 705.14 196.01 707.51 187.4 707.51 187.4 711.73 195.71 711.73 195.71 714.1 187.4 714.1 187.4 718.43 196.15 718.43 196.15 720.8"/><polygon class="cls-4" points="206.7 720.8 203.59 720.8 197.71 705.14 200.37 705.14 205.17 718.24 210 705.14 212.58 705.14 206.7 720.8"/><polygon class="cls-4" points="225.81 720.8 214.56 720.8 214.56 705.14 225.66 705.14 225.66 707.51 217.05 707.51 217.05 711.73 225.37 711.73 225.37 714.1 217.05 714.1 217.05 718.43 225.81 718.43 225.81 720.8"/><polygon class="cls-4" points="242.48 720.8 240.23 720.8 231.63 709.47 231.62 720.8 229.13 720.8 229.13 705.14 231.38 705.14 239.99 716.48 239.99 705.14 242.48 705.14 242.48 720.8"/><polygon class="cls-4" points="257.01 707.54 252.02 707.54 252.02 720.8 249.53 720.8 249.53 707.54 244.54 707.54 244.54 705.14 257.01 705.14 257.01 707.54"/><g class="cls-3"><path class="cls-4" d="M269.07,708.61a7.89,7.89,0,0,0-4.33-1.34c-2.06,0-3.47.91-3.47,2.34s1.2,1.8,3.21,2.09l1.07.14c2.5.35,5,1.4,5,4.31,0,3.19-2.84,4.93-6.18,4.93a9.91,9.91,0,0,1-6.2-2.1l1.35-2a7.7,7.7,0,0,0,4.84,1.72c2,0,3.6-.87,3.6-2.32,0-1.23-1.21-1.8-3.47-2.11l-1.2-.17c-2.29-.33-4.57-1.42-4.57-4.33,0-3.14,2.74-4.89,6.08-4.89a9.57,9.57,0,0,1,5.57,1.69Z"/><path class="cls-4" d="M807.95,938.05a1.84,1.84,0,0,0-3.67,0,1.79,1.79,0,0,0,.53,1.3,1.83,1.83,0,0,0,2.6,0,1.79,1.79,0,0,0,.54-1.3m-.26,0a1.55,1.55,0,0,1-.45,1.13,1.53,1.53,0,0,1-1.13.47,1.5,1.5,0,0,1-1.12-.47,1.58,1.58,0,1,1,2.7-1.13m-.89.26a.5.5,0,0,0-.35-.2.76.76,0,0,0,.29-.1.43.43,0,0,0,.2-.4.5.5,0,0,0-.32-.51,1.53,1.53,0,0,0-.54-.07h-.71v2h.36v-.8H806a.9.9,0,0,1,.4.06.49.49,0,0,1,.19.46V939a0,0,0,0,0,0,0v0h.34v0a.66.66,0,0,1,0-.11v-.3a.57.57,0,0,0-.11-.31m-.41-.35a1.13,1.13,0,0,1-.35,0h-.32v-.73h.3a.91.91,0,0,1,.43.07.31.31,0,0,1,.13.3.32.32,0,0,1-.2.32"/><path class="cls-4" d="M735.76,965.66h27.86v-4.93H742.33v-7.31H756.4v-4.94H742.33v-7.32H763v-5H735.76Zm-33.72,0h28.8v-4.93H708.5V936.17l-6.47,0Zm-4-20.74q0-4.81-3-6.75t-9-1.94H668v29.35h6.58l0-12.17h11.49q6,0,9-1.84t3-6.66m-6.56,0a2.83,2.83,0,0,1-1.44,2.84,8.23,8.23,0,0,1-3.6.7H674.57v-7.29h11.91a7.11,7.11,0,0,1,3.6.84,3.06,3.06,0,0,1,1.44,2.91m-56.34,20.71H663v-4.93H641.76v-7.28h14.06v-4.94H641.76v-7.35H662.4v-5H635.19Zm-48.81,0h6.54V936.19h-6.54Z"/><path class="cls-4" d="M582.71,939.39a21.36,21.36,0,0,0-4.46-2,24.51,24.51,0,0,0-4.12-1.07,31,31,0,0,0-5.16-.47,27.16,27.16,0,0,0-7.09.94,19.33,19.33,0,0,0-6.13,2.85,15,15,0,0,0-4.31,4.71,12.8,12.8,0,0,0-1.64,6.56,13,13,0,0,0,1.64,6.58,15.24,15.24,0,0,0,4.23,4.75,17.31,17.31,0,0,0,5.94,2.77,26.63,26.63,0,0,0,6.74.94,30.16,30.16,0,0,0,5.91-.51,32.28,32.28,0,0,0,4.93-1.4s1.7-.7,3.69-1.76L579,958.3a23.61,23.61,0,0,1-2.57,1.2,24.8,24.8,0,0,1-3.79,1.11,24.11,24.11,0,0,1-4.65.47,13.2,13.2,0,0,1-4.24-.7,11.45,11.45,0,0,1-3.72-2.07,10.69,10.69,0,0,1-2.64-3.27,9.13,9.13,0,0,1-1-4.32,9.76,9.76,0,0,1,.89-4.28,8.58,8.58,0,0,1,2.52-3.14,11.37,11.37,0,0,1,3.83-1.91,17.57,17.57,0,0,1,4.86-.63,27.25,27.25,0,0,1,4.66.37c.67.13,1.3.28,1.88.45a15.89,15.89,0,0,1,3.79,1.75Z"/></g><polygon class="cls-4" points="766.63 936.17 795.54 965.55 803.55 965.55 774.61 936.17 766.63 936.17"/><polygon class="cls-4" points="803.55 936.17 774.63 965.55 766.63 965.55 795.57 936.17 803.55 936.17"/><polygon class="cls-4" points="630.18 965.59 630.18 963.2 630.18 936.12 624.51 936.12 624.51 957.42 603.6 936.13 603.6 936.12 597.93 936.12 597.93 965.59 603.6 965.59 603.6 944.34 624.51 965.58 624.51 965.59 624.52 965.59 630.18 965.59"/><g class="cls-3"><path class="cls-4" d="M733.66,911.79c0-8.17-23.53-14.85-53.36-15.44l-.25,2.26c24.59.58,43.92,6.5,43.92,13.73,0,7.4-20.28,13.44-45.72,13.76l.18,1.15c30.71-.33,55.22-7.13,55.22-15.46"/><path class="cls-4" d="M712.26,913.63c0,5.55-15.22,10.09-34.36,10.36l.18,1.14c22.3-.3,40.06-5.58,40.06-12.06,0-6.31-16.86-11.49-38.34-12l-.25,2.27c18.35.5,32.71,4.93,32.71,10.32"/><path class="cls-4" d="M706.46,914.34c0-4.47-11.91-8.16-27.17-8.61L679,908c12.17.41,21.61,3.34,21.61,6.9s-10.22,6.73-23.1,6.94l.18,1.13c16-.24,28.75-4,28.75-8.64"/><path class="cls-4" d="M618.5,911.79c0-8.17,23.53-14.85,53.36-15.44l.25,2.26c-24.59.58-43.92,6.5-43.92,13.73,0,7.4,20.28,13.44,45.72,13.76l-.18,1.15c-30.71-.33-55.22-7.13-55.22-15.46"/><path class="cls-4" d="M639.9,913.63c0,5.55,15.22,10.09,34.36,10.36l-.18,1.14c-22.3-.3-40.06-5.58-40.06-12.06,0-6.31,16.86-11.49,38.34-12l.25,2.27c-18.35.5-32.71,4.93-32.71,10.32"/><path class="cls-4" d="M645.7,914.34c0-4.47,11.91-8.16,27.17-8.61l.25,2.27c-12.17.41-21.61,3.34-21.61,6.9s10.22,6.73,23.1,6.94l-.18,1.13c-16-.24-28.75-4-28.75-8.64"/></g><polygon class="cls-4" points="645.16 988.66 633.91 988.66 633.91 973 645.02 973 645.02 975.37 636.4 975.37 636.4 979.59 644.72 979.59 644.72 981.96 636.4 981.96 636.4 986.29 645.16 986.29 645.16 988.66"/><polygon class="cls-4" points="655.71 988.66 652.6 988.66 646.72 973 649.38 973 654.18 986.1 659.01 973 661.59 973 655.71 988.66"/><polygon class="cls-4" points="674.82 988.66 663.57 988.66 663.57 973 674.67 973 674.67 975.37 666.06 975.37 666.06 979.59 674.38 979.59 674.38 981.96 666.06 981.96 666.06 986.29 674.82 986.29 674.82 988.66"/><polygon class="cls-4" points="691.49 988.66 689.24 988.66 680.64 977.33 680.63 988.66 678.14 988.66 678.14 973 680.38 973 689 984.33 689 973 691.49 973 691.49 988.66"/><polygon class="cls-4" points="706.02 975.4 701.03 975.4 701.03 988.66 698.54 988.66 698.54 975.4 693.55 975.4 693.55 973 706.02 973 706.02 975.4"/><g class="cls-3"><path class="cls-4" d="M718.08,976.47a7.89,7.89,0,0,0-4.33-1.34c-2.06,0-3.47.91-3.47,2.34s1.2,1.8,3.21,2.09l1.07.14c2.5.35,5,1.4,5,4.31,0,3.19-2.84,4.93-6.18,4.93a9.91,9.91,0,0,1-6.2-2.1l1.35-2a7.7,7.7,0,0,0,4.84,1.72c2,0,3.6-.87,3.6-2.32,0-1.23-1.21-1.8-3.47-2.11l-1.2-.17c-2.29-.33-4.57-1.42-4.57-4.33,0-3.14,2.74-4.89,6.08-4.89a9.57,9.57,0,0,1,5.57,1.69Z"/><path class="cls-4" d="M1257,938.05a1.84,1.84,0,0,0-3.67,0,1.79,1.79,0,0,0,.53,1.3,1.83,1.83,0,0,0,2.6,0,1.79,1.79,0,0,0,.54-1.3m-.26,0a1.55,1.55,0,0,1-.45,1.13,1.53,1.53,0,0,1-1.13.47,1.5,1.5,0,0,1-1.12-.47,1.58,1.58,0,1,1,2.7-1.13m-.89.26a.5.5,0,0,0-.35-.2.76.76,0,0,0,.29-.1.43.43,0,0,0,.2-.4.5.5,0,0,0-.32-.51,1.53,1.53,0,0,0-.54-.07h-.71v2h.36v-.8h.28a.9.9,0,0,1,.4.06.49.49,0,0,1,.19.46V939a0,0,0,0,0,0,0v0h.34v0a1.05,1.05,0,0,1,0-.11v-.3a.57.57,0,0,0-.11-.31m-.41-.35a1.14,1.14,0,0,1-.35,0h-.32v-.73h.3a.91.91,0,0,1,.43.07.31.31,0,0,1,.13.3.32.32,0,0,1-.2.32"/><path class="cls-4" d="M1184.77,965.66h27.86v-4.93h-21.28v-7.31h14.06v-4.94h-14.06v-7.32H1212v-5h-27.21Zm-33.72,0h28.8v-4.93h-22.34V936.17l-6.47,0Zm-4-20.74q0-4.81-3-6.75t-9-1.94H1117v29.35h6.58l0-12.17h11.49q6,0,9-1.84t3-6.66m-6.56,0a2.83,2.83,0,0,1-1.44,2.84,8.23,8.23,0,0,1-3.6.7h-11.91v-7.29h11.91a7.11,7.11,0,0,1,3.6.84,3.06,3.06,0,0,1,1.44,2.91m-56.34,20.71h27.86v-4.93h-21.29v-7.28h14.06v-4.94h-14.06v-7.35h20.63v-5H1084.2Zm-48.81,0h6.54V936.19h-6.54Z"/><path class="cls-4" d="M1031.72,939.39a21.36,21.36,0,0,0-4.46-2,24.51,24.51,0,0,0-4.12-1.07,31,31,0,0,0-5.16-.47,27.16,27.16,0,0,0-7.09.94,19.33,19.33,0,0,0-6.13,2.85,15,15,0,0,0-4.31,4.71,12.8,12.8,0,0,0-1.64,6.56,13,13,0,0,0,1.64,6.58,15.23,15.23,0,0,0,4.23,4.75,17.31,17.31,0,0,0,5.94,2.77,26.63,26.63,0,0,0,6.74.94,30.16,30.16,0,0,0,5.91-.51,32.28,32.28,0,0,0,4.93-1.4s1.7-.7,3.69-1.76L1028,958.3a23.62,23.62,0,0,1-2.57,1.2,24.8,24.8,0,0,1-3.79,1.11,24.11,24.11,0,0,1-4.65.47,13.2,13.2,0,0,1-4.24-.7,11.45,11.45,0,0,1-3.72-2.07,10.69,10.69,0,0,1-2.64-3.27,9.13,9.13,0,0,1-1-4.32,9.79,9.79,0,0,1,.89-4.28,8.58,8.58,0,0,1,2.52-3.14,11.37,11.37,0,0,1,3.83-1.91,17.56,17.56,0,0,1,4.86-.63,27.25,27.25,0,0,1,4.66.37c.67.13,1.3.28,1.88.45a15.89,15.89,0,0,1,3.79,1.75Z"/></g><polygon class="cls-4" points="1215.63 936.17 1244.55 965.55 1252.56 965.55 1223.62 936.17 1215.63 936.17"/><polygon class="cls-4" points="1252.56 936.17 1223.64 965.55 1215.63 965.55 1244.58 936.17 1252.56 936.17"/><polygon class="cls-4" points="1079.19 965.59 1079.19 963.2 1079.19 936.12 1073.52 936.12 1073.52 957.42 1052.61 936.13 1052.61 936.12 1046.94 936.12 1046.94 965.59 1052.61 965.59 1052.61 944.34 1073.52 965.58 1073.52 965.59 1073.53 965.59 1079.19 965.59"/><g class="cls-3"><path class="cls-4" d="M1182.67,911.79c0-8.17-23.53-14.85-53.36-15.44l-.25,2.26c24.59.58,43.92,6.5,43.92,13.73,0,7.4-20.28,13.44-45.72,13.76l.18,1.15c30.71-.33,55.22-7.13,55.22-15.46"/><path class="cls-4" d="M1161.26,913.63c0,5.55-15.22,10.09-34.36,10.36l.18,1.14c22.3-.3,40.06-5.58,40.06-12.06,0-6.31-16.86-11.49-38.34-12l-.25,2.27c18.35.5,32.71,4.93,32.71,10.32"/><path class="cls-4" d="M1155.47,914.34c0-4.47-11.91-8.16-27.17-8.61L1128,908c12.17.41,21.61,3.34,21.61,6.9s-10.22,6.73-23.1,6.94l.18,1.13c16-.24,28.75-4,28.75-8.64"/><path class="cls-4" d="M1067.51,911.79c0-8.17,23.53-14.85,53.36-15.44l.25,2.26c-24.59.58-43.92,6.5-43.92,13.73,0,7.4,20.28,13.44,45.72,13.76l-.18,1.15c-30.71-.33-55.22-7.13-55.22-15.46"/><path class="cls-4" d="M1088.91,913.63c0,5.55,15.22,10.09,34.36,10.36l-.18,1.14c-22.3-.3-40.06-5.58-40.06-12.06,0-6.31,16.86-11.49,38.34-12l.25,2.27c-18.35.5-32.71,4.93-32.71,10.32"/><path class="cls-4" d="M1094.71,914.34c0-4.47,11.91-8.16,27.17-8.61l.25,2.27c-12.17.41-21.61,3.34-21.61,6.9s10.22,6.73,23.1,6.94l-.18,1.13c-16-.24-28.75-4-28.75-8.64"/></g><polygon class="cls-4" points="1094.17 988.66 1082.92 988.66 1082.92 973 1094.03 973 1094.03 975.37 1085.41 975.37 1085.41 979.59 1093.73 979.59 1093.73 981.96 1085.41 981.96 1085.41 986.29 1094.17 986.29 1094.17 988.66"/><polygon class="cls-4" points="1104.72 988.66 1101.61 988.66 1095.73 973 1098.38 973 1103.19 986.1 1108.02 973 1110.6 973 1104.72 988.66"/><polygon class="cls-4" points="1123.83 988.66 1112.58 988.66 1112.58 973 1123.68 973 1123.68 975.37 1115.07 975.37 1115.07 979.59 1123.38 979.59 1123.38 981.96 1115.07 981.96 1115.07 986.29 1123.83 986.29 1123.83 988.66"/><polygon class="cls-4" points="1140.5 988.66 1138.25 988.66 1129.65 977.33 1129.64 988.66 1127.15 988.66 1127.15 973 1129.39 973 1138.01 984.33 1138.01 973 1140.5 973 1140.5 988.66"/><polygon class="cls-4" points="1155.03 975.4 1150.04 975.4 1150.04 988.66 1147.55 988.66 1147.55 975.4 1142.56 975.4 1142.56 973 1155.03 973 1155.03 975.4"/><g class="cls-3"><path class="cls-4" d="M1167.09,976.47a7.89,7.89,0,0,0-4.33-1.34c-2.06,0-3.47.91-3.47,2.34s1.2,1.8,3.21,2.09l1.07.14c2.5.35,5,1.4,5,4.31,0,3.19-2.84,4.93-6.18,4.93a9.91,9.91,0,0,1-6.2-2.1l1.35-2a7.7,7.7,0,0,0,4.84,1.72c2,0,3.6-.87,3.6-2.32,0-1.23-1.21-1.8-3.47-2.11l-1.2-.17c-2.29-.33-4.57-1.42-4.57-4.33,0-3.14,2.74-4.89,6.08-4.89a9.57,9.57,0,0,1,5.57,1.69Z"/><path class="cls-4" d="M358.94,938.05a1.84,1.84,0,0,0-3.67,0,1.79,1.79,0,0,0,.53,1.3,1.83,1.83,0,0,0,2.6,0,1.79,1.79,0,0,0,.54-1.3m-.26,0a1.55,1.55,0,0,1-.45,1.13,1.53,1.53,0,0,1-1.13.47,1.5,1.5,0,0,1-1.12-.47,1.58,1.58,0,1,1,2.7-1.13m-.89.26a.5.5,0,0,0-.35-.2.76.76,0,0,0,.29-.1.43.43,0,0,0,.2-.4.5.5,0,0,0-.32-.51,1.53,1.53,0,0,0-.54-.07h-.71v2h.36v-.8H357a.9.9,0,0,1,.4.06.49.49,0,0,1,.19.46V939a0,0,0,0,0,0,0v0h.34v0a.66.66,0,0,1,0-.11v-.3a.57.57,0,0,0-.11-.31m-.41-.35a1.13,1.13,0,0,1-.35,0h-.32v-.73h.3a.91.91,0,0,1,.43.07.31.31,0,0,1,.13.3.32.32,0,0,1-.2.32"/><path class="cls-4" d="M286.75,965.66h27.86v-4.93H293.33v-7.31h14.06v-4.94H293.33v-7.32H314v-5H286.75Zm-33.72,0h28.8v-4.93H259.49V936.17l-6.47,0Zm-4-20.74q0-4.81-3-6.75t-9-1.94H219v29.35h6.58l0-12.17h11.49q6,0,9-1.84t3-6.66m-6.56,0a2.83,2.83,0,0,1-1.44,2.84,8.23,8.23,0,0,1-3.6.7H225.56v-7.29h11.91a7.11,7.11,0,0,1,3.6.84,3.06,3.06,0,0,1,1.44,2.91m-56.34,20.71H214v-4.93H192.75v-7.28h14.06v-4.94H192.75v-7.35h20.63v-5H186.18Zm-48.81,0h6.54V936.19h-6.54Z"/><path class="cls-4" d="M133.7,939.39a21.36,21.36,0,0,0-4.46-2,24.51,24.51,0,0,0-4.12-1.07,31,31,0,0,0-5.16-.47,27.16,27.16,0,0,0-7.09.94,19.33,19.33,0,0,0-6.13,2.85,15,15,0,0,0-4.31,4.71,12.8,12.8,0,0,0-1.64,6.56,13,13,0,0,0,1.64,6.58,15.24,15.24,0,0,0,4.23,4.75,17.31,17.31,0,0,0,5.94,2.77,26.63,26.63,0,0,0,6.74.94,30.16,30.16,0,0,0,5.91-.51,32.28,32.28,0,0,0,4.93-1.4s1.7-.7,3.69-1.76L130,958.3a23.61,23.61,0,0,1-2.57,1.2,24.8,24.8,0,0,1-3.79,1.11,24.11,24.11,0,0,1-4.65.47,13.2,13.2,0,0,1-4.24-.7,11.45,11.45,0,0,1-3.72-2.07,10.69,10.69,0,0,1-2.64-3.27,9.13,9.13,0,0,1-1-4.32,9.76,9.76,0,0,1,.89-4.28,8.58,8.58,0,0,1,2.52-3.14,11.37,11.37,0,0,1,3.83-1.91,17.56,17.56,0,0,1,4.86-.63,27.25,27.25,0,0,1,4.66.37c.67.13,1.3.28,1.88.45a15.89,15.89,0,0,1,3.79,1.75Z"/></g><polygon class="cls-4" points="317.62 936.17 346.54 965.55 354.55 965.55 325.6 936.17 317.62 936.17"/><polygon class="cls-4" points="354.55 936.17 325.63 965.55 317.62 965.55 346.56 936.17 354.55 936.17"/><polygon class="cls-4" points="181.17 965.59 181.17 963.2 181.17 936.12 175.5 936.12 175.5 957.42 154.59 936.13 154.59 936.12 148.92 936.12 148.92 965.59 154.59 965.59 154.59 944.34 175.5 965.58 175.5 965.59 175.51 965.59 181.17 965.59"/><g class="cls-3"><path class="cls-4" d="M284.65,911.79c0-8.17-23.53-14.85-53.36-15.44l-.25,2.26c24.59.58,43.92,6.5,43.92,13.73,0,7.4-20.28,13.44-45.72,13.76l.18,1.15c30.71-.33,55.22-7.13,55.22-15.46"/><path class="cls-4" d="M263.25,913.63c0,5.55-15.22,10.09-34.36,10.36l.18,1.14c22.3-.3,40.06-5.58,40.06-12.06,0-6.31-16.86-11.49-38.34-12l-.25,2.27c18.35.5,32.71,4.93,32.71,10.32"/><path class="cls-4" d="M257.45,914.34c0-4.47-11.91-8.16-27.17-8.61L230,908c12.17.41,21.61,3.34,21.61,6.9s-10.22,6.73-23.1,6.94l.18,1.13c16-.24,28.75-4,28.75-8.64"/><path class="cls-4" d="M169.49,911.79c0-8.17,23.53-14.85,53.36-15.44l.25,2.26c-24.59.58-43.92,6.5-43.92,13.73,0,7.4,20.28,13.44,45.72,13.76l-.18,1.15c-30.71-.33-55.22-7.13-55.22-15.46"/><path class="cls-4" d="M190.89,913.63c0,5.55,15.22,10.09,34.36,10.36l-.18,1.14c-22.3-.3-40.06-5.58-40.06-12.06,0-6.31,16.86-11.49,38.34-12l.25,2.27c-18.35.5-32.71,4.93-32.71,10.32"/><path class="cls-4" d="M196.69,914.34c0-4.47,11.91-8.16,27.17-8.61l.25,2.27c-12.17.41-21.61,3.34-21.61,6.9s10.22,6.73,23.1,6.94l-.18,1.13c-16-.24-28.75-4-28.75-8.64"/></g><polygon class="cls-4" points="196.15 988.66 184.91 988.66 184.91 973 196.01 973 196.01 975.37 187.4 975.37 187.4 979.59 195.71 979.59 195.71 981.96 187.4 981.96 187.4 986.29 196.15 986.29 196.15 988.66"/><polygon class="cls-4" points="206.7 988.66 203.59 988.66 197.71 973 200.37 973 205.17 986.1 210 973 212.58 973 206.7 988.66"/><polygon class="cls-4" points="225.81 988.66 214.56 988.66 214.56 973 225.66 973 225.66 975.37 217.05 975.37 217.05 979.59 225.37 979.59 225.37 981.96 217.05 981.96 217.05 986.29 225.81 986.29 225.81 988.66"/><polygon class="cls-4" points="242.48 988.66 240.23 988.66 231.63 977.33 231.62 988.66 229.13 988.66 229.13 973 231.38 973 239.99 984.33 239.99 973 242.48 973 242.48 988.66"/><polygon class="cls-4" points="257.01 975.4 252.02 975.4 252.02 988.66 249.53 988.66 249.53 975.4 244.54 975.4 244.54 973 257.01 973 257.01 975.4"/><g class="cls-3"><path class="cls-4" d="M269.07,976.47a7.89,7.89,0,0,0-4.33-1.34c-2.06,0-3.47.91-3.47,2.34s1.2,1.8,3.21,2.09l1.07.14c2.5.35,5,1.4,5,4.31,0,3.19-2.84,4.93-6.18,4.93a9.91,9.91,0,0,1-6.2-2.1l1.35-2a7.7,7.7,0,0,0,4.84,1.72c2,0,3.6-.87,3.6-2.32,0-1.23-1.21-1.8-3.47-2.11l-1.2-.17c-2.29-.33-4.57-1.42-4.57-4.33,0-3.14,2.74-4.89,6.08-4.89a9.57,9.57,0,0,1,5.57,1.69Z"/></g></svg>