<svg id="Layer_1" data-name="Layer 1" xmlns="http://www.w3.org/2000/svg" xmlns:xlink="http://www.w3.org/1999/xlink" viewBox="0 0 788 304"><defs><style>.cls-1,.cls-6{fill:none;}.cls-2{clip-path:url(#clip-path);}.cls-3{fill:#6d6e70;}.cls-4{fill:#003e6b;}.cls-5{fill:#a3a6a8;}.cls-6{stroke:#929497;stroke-width:0.5px;}.cls-7{fill:#231f20;}.cls-8{clip-path:url(#clip-path-5);}.cls-10,.cls-15,.cls-9{fill:#fff;}.cls-10,.cls-15{font-size:12.91px;font-family:MarkOT-Medium, Mark OT;}.cls-11,.cls-15{letter-spacing:-0.02em;}.cls-12{letter-spacing:-0.02em;}.cls-13{clip-path:url(#clip-path-6);}.cls-14{clip-path:url(#clip-path-7);}.cls-16{letter-spacing:0em;}</style><clipPath id="clip-path"><rect class="cls-1" y="-5.16" width="787.39" height="317.16"/></clipPath><clipPath id="clip-path-5"><rect class="cls-1" x="285.58" y="152.98" width="216.22" height="158.02"/></clipPath><clipPath id="clip-path-6"><rect class="cls-1" x="285.58" y="-5.11" width="216.22" height="158.02"/></clipPath><clipPath id="clip-path-7"><rect class="cls-1" x="553.28" y="-6.16" width="216.22" height="158.02"/></clipPath></defs><title>media</title><g class="cls-2"><path class="cls-3" d="M52.78,32.66H51.4V31.57h-.79v1.09H49.9v.71h.72V35c0,1,.48,1.39,1.29,1.39A1.94,1.94,0,0,0,53,36l-.31-.63a1.44,1.44,0,0,1-.72.24c-.32,0-.57-.19-.57-.67V33.37h1.38Zm-5.06-.09a1.27,1.27,0,0,0-1.1.53v-.44h-.78v3.59h.79v-2a.89.89,0,0,1,.93-1c.53,0,.84.34.84.94v2h.79V34a1.38,1.38,0,0,0-1.46-1.43m-4.57.7a.91.91,0,0,1,.91.89H42.2a.93.93,0,0,1,1-.89m0-.7a1.75,1.75,0,0,0-1.79,1.89,1.77,1.77,0,0,0,1.84,1.89,2.16,2.16,0,0,0,1.48-.51l-.39-.56a1.71,1.71,0,0,1-1,.38,1,1,0,0,1-1.07-.91h2.66c0-.09,0-.19,0-.29a1.71,1.71,0,0,0-1.7-1.89m-4.58.74a1.15,1.15,0,1,1-1.08,1.15,1.08,1.08,0,0,1,1.08-1.15m-.09-.74a1.89,1.89,0,0,0,0,3.78,1.37,1.37,0,0,0,1.13-.52v.43h.78v-5.4h-.78v2.24a1.37,1.37,0,0,0-1.13-.53m-3.16-1.7a.54.54,0,0,0-.55.55.55.55,0,0,0,1.1,0,.55.55,0,0,0-.55-.55m.4,1.8h-.79v3.59h.79Zm-1.8.29a2.73,2.73,0,0,0-1.45-.38c-.92,0-1.49.44-1.49,1.15s.42.95,1.22,1.05l.38,0c.43.06.62.2.62.4s-.28.44-.82.44a1.8,1.8,0,0,1-1.18-.37l-.36.59a2.65,2.65,0,0,0,1.54.46c1,0,1.63-.48,1.63-1.17s-.47-.95-1.25-1.06L32.39,34c-.33,0-.59-.12-.59-.37s.25-.43.68-.43a2.31,2.31,0,0,1,1.11.31Zm-5.47.32a.91.91,0,0,1,.91.89H27.51a.93.93,0,0,1,1-.89m0-.7a1.75,1.75,0,0,0-1.79,1.89,1.77,1.77,0,0,0,1.84,1.89A2.17,2.17,0,0,0,30,35.84l-.39-.56a1.72,1.72,0,0,1-1,.38,1,1,0,0,1-1.07-.91h2.66c0-.09,0-.19,0-.29a1.71,1.71,0,0,0-1.7-1.89m-2.78,0a1.2,1.2,0,0,0-1,.5v-.4h-.78v3.59h.78v-2a.85.85,0,0,1,.85-1,1.4,1.4,0,0,1,.6.13l.19-.78a1.57,1.57,0,0,0-.6-.1M21,31.8c.69,0,1,.26,1,.79s-.31.8-1,.8H19.85V31.8Zm0,2.39c1.21,0,1.86-.61,1.86-1.59S22.25,31,21,31H19v5.25h.85V34.19Z"/><path class="cls-4" d="M105.42,21.07c.71,0,1.17.28,1.17.87s-.44.88-1.17.88H103.8V21.07Zm-3.63-1.82v8.4h2V24.51h.29l2.21,3.14h2.39l-2.41-3.2a2.47,2.47,0,0,0,2.35-2.51c0-1.66-1.1-2.69-3.18-2.69Zm-1.52,0h-2v8.4h2Zm-9.07,0h-2v8.4h2V24.34h3.54v3.31h2v-8.4h-2v3.23H91.2Zm-6.86-.16a4.22,4.22,0,0,0-4.42,4.36A4.45,4.45,0,0,0,88,25.95l-1.64-1.16a2.36,2.36,0,0,1-2,1.1A2.27,2.27,0,0,1,82,23.45,2.29,2.29,0,0,1,84.32,21a2.24,2.24,0,0,1,2,1.11l1.76-1a4.18,4.18,0,0,0-3.73-2m-8.81,2.15,1,2.83h-2Zm1.22-2H74.36l-3.22,8.4h2.09l.64-1.76H77.2l.64,1.76H80Zm-9.32,1.69c.72,0,1.19.21,1.19.82s-.47.83-1.19.83H65.87V20.94Zm.16,3.33c.77,0,1.22.23,1.22.85s-.45.86-1.22.86H65.87v-1.7Zm-3.72-5v8.4h3.82c2.13,0,3.19-.86,3.19-2.41a2,2,0,0,0-1.33-1.84,1.92,1.92,0,0,0,1.16-1.78c0-1.54-1.1-2.38-3.23-2.38Zm-9.76,0h-2v8.4h2V24.34h3.53v3.31h2v-8.4h-2v3.23H54.11Zm-7.28,2,1,2.83h-2Zm1.22-2H45.65l-3.22,8.4h2.09l.64-1.76H48.5l.64,1.76h2.14Zm-6,6.54H37.87V19.25h-2v8.4H42.1Zm-11.5-4.55,1,2.83h-2Zm1.22-2H29.42l-3.22,8.4h2.09l.64-1.76h3.34l.64,1.76H35Zm-6,.74a6.45,6.45,0,0,0-3.39-.89c-2,0-3.35,1-3.38,2.66s.91,2.29,2.63,2.56l.42.07c1.1.17,1.66.31,1.66.82s-.58.78-1.33.78a4.71,4.71,0,0,1-2.71-.88l-1,1.63a6.27,6.27,0,0,0,3.69,1.07C24.25,27.81,26,27,26,25c0-1.37-1-2.14-2.66-2.42L23,22.5c-.93-.16-1.73-.29-1.73-.82s.56-.76,1.32-.76a4.67,4.67,0,0,1,2.41.71Z"/><path class="cls-3" d="M82.38,122.67a1.35,1.35,0,0,0-1.24.67,1.45,1.45,0,0,0-2.32-.17v-.43h-.57v3.32h.57V124.2a.94.94,0,0,1,1-1,.86.86,0,0,1,.91,1v1.88h.57V124.2a.94.94,0,0,1,1-1,.86.86,0,0,1,.91,1v1.88h.57V124a1.29,1.29,0,0,0-1.39-1.33m-6.84.54a1.2,1.2,0,1,1-1.17,1.19,1.15,1.15,0,0,1,1.17-1.19m0-.54a1.73,1.73,0,1,0,1.76,1.73,1.7,1.7,0,0,0-1.76-1.73m-3.56,0a1.73,1.73,0,0,0,0,3.46,1.62,1.62,0,0,0,1.24-.52l-.35-.4a1.29,1.29,0,0,1-.9.38,1.2,1.2,0,0,1,0-2.39,1.22,1.22,0,0,1,.88.38l.37-.39a1.6,1.6,0,0,0-1.24-.52M69,125.18a.48.48,0,1,0,.48.48.49.49,0,0,0-.48-.48m-3.21-2a1.2,1.2,0,1,1-1.15,1.19,1.13,1.13,0,0,1,1.15-1.19m1.68-.47h-.57v.45a1.46,1.46,0,0,0-1.17-.52,1.73,1.73,0,0,0,0,3.46,1.47,1.47,0,0,0,1.17-.51v.44h.57Zm-4.66-1.58a.4.4,0,0,0-.4.41.39.39,0,0,0,.4.4.4.4,0,0,0,.41-.4.41.41,0,0,0-.41-.41m.29,1.58h-.57v3.32h.57Zm-3.46.47a1.2,1.2,0,1,1-1.15,1.19,1.13,1.13,0,0,1,1.15-1.19m-.07-.54a1.73,1.73,0,0,0,0,3.46,1.47,1.47,0,0,0,1.17-.51v.44h.57v-5h-.57v2.16a1.46,1.46,0,0,0-1.17-.52m-3.94.51a1,1,0,0,1,1,1h-2a1,1,0,0,1,1-1m0-.51a1.73,1.73,0,0,0,0,3.46,1.89,1.89,0,0,0,1.36-.5l-.3-.39a1.56,1.56,0,0,1-1,.4,1.08,1.08,0,0,1-1.13-1h2.62c0-.06,0-.14,0-.21a1.59,1.59,0,0,0-1.56-1.72M53,121.16H52l-1.64,3.66-1.64-3.66h-.94v4.9h.62v-4.19l1.64,3.66h.65l1.64-3.69v4.22H53Zm-6,1.58h-.68l-1,1.23-1-1.23h-.7l1.28,1.63-1.31,1.7h.67l1-1.28,1,1.28H47l-1.32-1.7Zm-5.24.44a1,1,0,0,1,1,1h-2a1,1,0,0,1,1-1m0-.51a1.73,1.73,0,0,0,0,3.46,1.89,1.89,0,0,0,1.36-.5l-.3-.39a1.56,1.56,0,0,1-1,.4,1.08,1.08,0,0,1-1.13-1h2.61c0-.06,0-.14,0-.21a1.59,1.59,0,0,0-1.56-1.72M39.11,121h-.57v5h.57Zm-3.26,2.18a1.2,1.2,0,1,1-1.14,1.19,1.14,1.14,0,0,1,1.14-1.19m.07-.54a1.46,1.46,0,0,0-1.17.51v-.44h-.57v4.72h.57v-1.84a1.46,1.46,0,0,0,1.17.51,1.73,1.73,0,0,0,0-3.46m-4.28.51a1,1,0,0,1,1,1h-2a1,1,0,0,1,1-1m0-.51a1.73,1.73,0,0,0,0,3.46,1.89,1.89,0,0,0,1.36-.5l-.3-.39a1.56,1.56,0,0,1-1,.4,1.08,1.08,0,0,1-1.13-1h2.61c0-.06,0-.14,0-.21a1.59,1.59,0,0,0-1.56-1.72m-4,0a1.31,1.31,0,0,0-1.09.5v-.43H26v3.32h.57V124.2a.94.94,0,0,1,1-1,.86.86,0,0,1,.91,1v1.88h.57V124a1.29,1.29,0,0,0-1.39-1.33m-3.16-1.51a.4.4,0,0,0-.4.41.39.39,0,0,0,.4.4.4.4,0,0,0,.41-.4.41.41,0,0,0-.41-.41m.29,1.58h-.57v3.32h.57Zm-3.57-1.65a2.52,2.52,0,1,0,0,5,2.36,2.36,0,0,0,2-1l-.5-.37a1.75,1.75,0,0,1-1.49.77,1.93,1.93,0,0,1,0-3.87,1.77,1.77,0,0,1,1.49.77l.51-.35a2.31,2.31,0,0,0-2-1"/><path class="cls-3" d="M111.52,114.17a1.35,1.35,0,0,0-1.24.67,1.33,1.33,0,0,0-1.23-.67,1.31,1.31,0,0,0-1.09.5v-.43h-.57v3.32H108V115.7a.94.94,0,0,1,1-1,.86.86,0,0,1,.91,1v1.88h.57V115.7a.94.94,0,0,1,1-1,.86.86,0,0,1,.91,1v1.88h.57V115.5a1.29,1.29,0,0,0-1.39-1.33m-6.84.54a1.2,1.2,0,1,1-1.17,1.19,1.15,1.15,0,0,1,1.17-1.19m0-.54a1.73,1.73,0,1,0,1.76,1.73,1.7,1.7,0,0,0-1.76-1.73m-3.56,0a1.73,1.73,0,0,0,0,3.46,1.62,1.62,0,0,0,1.24-.52l-.35-.39a1.29,1.29,0,0,1-.9.38,1.2,1.2,0,0,1,0-2.39,1.22,1.22,0,0,1,.88.38l.37-.39a1.61,1.61,0,0,0-1.24-.52m-2.94,2.51a.48.48,0,1,0,.48.48.49.49,0,0,0-.48-.48M97,114.24h-.68l-1,1.23-1-1.23h-.7L95,115.87l-1.31,1.7h.67l1-1.28,1,1.28H97l-1.32-1.7Zm-5.24.44a1,1,0,0,1,1,1h-2a1,1,0,0,1,1-1m0-.51a1.73,1.73,0,0,0,0,3.46,1.89,1.89,0,0,0,1.36-.5l-.3-.39a1.56,1.56,0,0,1-1,.4,1.08,1.08,0,0,1-1.13-1h2.61c0-.06,0-.14,0-.21a1.59,1.59,0,0,0-1.56-1.72m-2.61-1.65h-.57v5h.57Zm-3.26,2.18a1.2,1.2,0,1,1-1.14,1.19,1.14,1.14,0,0,1,1.14-1.19m.07-.54a1.46,1.46,0,0,0-1.17.51v-.44h-.57V119h.57v-1.84a1.46,1.46,0,0,0,1.17.51,1.73,1.73,0,0,0,0-3.46m-4.28.51a1,1,0,0,1,1,1h-2a1,1,0,0,1,1-1m0-.51a1.73,1.73,0,0,0,0,3.46,1.89,1.89,0,0,0,1.36-.5l-.31-.39a1.56,1.56,0,0,1-1,.4,1.08,1.08,0,0,1-1.13-1h2.61c0-.06,0-.14,0-.21a1.59,1.59,0,0,0-1.56-1.72m-4,0a1.31,1.31,0,0,0-1.09.5v-.43h-.57v3.32h.57V115.7a.94.94,0,0,1,1-1,.86.86,0,0,1,.91,1v1.88h.57V115.5a1.29,1.29,0,0,0-1.39-1.33m-3.16-1.51a.4.4,0,0,0-.4.41.39.39,0,0,0,.4.4.4.4,0,0,0,.41-.4.41.41,0,0,0-.41-.41m.29,1.58h-.57v3.33h.57Zm-3.57-1.65a2.52,2.52,0,1,0,0,5,2.36,2.36,0,0,0,2-1l-.5-.37a1.75,1.75,0,0,1-1.49.77,1.93,1.93,0,0,1,0-3.87,1.77,1.77,0,0,1,1.49.77l.51-.35a2.31,2.31,0,0,0-2-1m-6.46,2.28a.94.94,0,1,1-.9.94.89.89,0,0,1,.9-.94m1.37-.4H65.7v.37a1.18,1.18,0,0,0-.95-.43,1.4,1.4,0,0,0,0,2.8,1.2,1.2,0,0,0,1-.48.79.79,0,0,0,.8.5c.74,0,1.17-.66,1.17-1.54A2.71,2.71,0,0,0,64.87,113a2.84,2.84,0,1,0,0,5.68,3,3,0,0,0,1.76-.56l-.27-.37a2.6,2.6,0,0,1-1.5.47,2.38,2.38,0,0,1,0-4.76,2.22,2.22,0,0,1,2.35,2.24c0,.74-.27,1.08-.63,1.08s-.4-.22-.4-.72Zm-5.57-.3a1.17,1.17,0,0,0-1,.51v-.44h-.56v3.32h.57v-1.85a.89.89,0,0,1,.87-1,1.3,1.3,0,0,1,.57.13l.14-.56a1.49,1.49,0,0,0-.61-.11m-3-1.51a.4.4,0,0,0-.4.41.39.39,0,0,0,.4.4.4.4,0,0,0,.41-.4.41.41,0,0,0-.41-.41m.29,1.58H57.3v3.33h.57Zm-4.22-1.71h-.57v5h.57V115.7a1,1,0,0,1,1-1,.86.86,0,0,1,.91,1v1.88h.57V115.5a1.29,1.29,0,0,0-1.38-1.33,1.3,1.3,0,0,0-1.09.5ZM51,114.17a1.73,1.73,0,0,0,0,3.46,1.62,1.62,0,0,0,1.24-.52l-.35-.39a1.29,1.29,0,0,1-.9.38,1.2,1.2,0,0,1,0-2.39,1.22,1.22,0,0,1,.88.38l.37-.39a1.61,1.61,0,0,0-1.24-.52m-4.36.54a1.2,1.2,0,1,1-1.15,1.19,1.13,1.13,0,0,1,1.15-1.19m1.68-.47h-.57v.45a1.46,1.46,0,0,0-1.17-.52,1.73,1.73,0,0,0,0,3.46,1.47,1.47,0,0,0,1.17-.51v.44h.57Zm-6.1-1c.65,0,1.17.15,1.17.77s-.51.78-1.16.78H40.93v-1.55Zm.09,2.13c.71,0,1.18.18,1.18.8s-.47.82-1.18.82H40.93v-1.62Zm-2-2.71v4.9h2c1.09,0,1.8-.41,1.8-1.37a1.17,1.17,0,0,0-.81-1.15A1.09,1.09,0,0,0,44,114c0-.94-.75-1.3-1.78-1.3Zm-1.61,4a.48.48,0,1,0,.48.48.49.49,0,0,0-.48-.48m-4-4.15h-.57v5h.57V115.7a.94.94,0,0,1,1-1,.86.86,0,0,1,.91,1v1.88h.57V115.5a1.4,1.4,0,0,0-2.47-.83Zm-3.46,2.18a1.2,1.2,0,1,1-1.15,1.19,1.13,1.13,0,0,1,1.15-1.19m1.68-.47h-.57v.45a1.46,1.46,0,0,0-1.17-.52,1.73,1.73,0,0,0,0,3.46,1.47,1.47,0,0,0,1.17-.51v.44H33Zm-4.37-1.71H28v5h.57Zm-3.46,2.18A1.2,1.2,0,1,1,24,115.9a1.13,1.13,0,0,1,1.15-1.19m1.68-.47h-.57v.45a1.46,1.46,0,0,0-1.17-.52,1.73,1.73,0,0,0,0,3.46,1.47,1.47,0,0,0,1.17-.51v.44h.57Zm-4.3-1.11a3,3,0,0,0-1.76-.53c-1,0-1.87.53-1.87,1.47s.64,1.21,1.45,1.31l.45.06c.76.1,1.17.31,1.17.77s-.57.85-1.31.85a2.62,2.62,0,0,1-1.6-.54l-.34.49a3.18,3.18,0,0,0,1.93.64c1.06,0,1.95-.51,1.95-1.49s-.71-1.2-1.54-1.3l-.43-.05c-.73-.09-1.11-.32-1.11-.76s.51-.85,1.23-.85a2.56,2.56,0,0,1,1.45.45Z"/><path class="cls-3" d="M66.66,104.67c.78,0,1.41.69,1.41,1.95s-.63,1.95-1.41,1.95-1.41-.69-1.41-1.95.64-1.95,1.41-1.95m0-.57c-1.12,0-2,.95-2,2.52s.91,2.52,2,2.52,2-.95,2-2.52-.91-2.52-2-2.52m-4.36,2.66a1.06,1.06,0,1,1,1.14-1.05,1.06,1.06,0,0,1-1.14,1.05m-.81,2.31h.72l1.45-2.25A2,2,0,0,0,64,105.7a1.75,1.75,0,0,0-3.5,0,1.6,1.6,0,0,0,1.64,1.6,1.31,1.31,0,0,0,.56-.11Zm-3.31-4.42c.6,0,1.09.29,1.09.83s-.49.86-1.09.86-1.08-.29-1.08-.86S57.59,104.65,58.18,104.65Zm0,2.21c.66,0,1.2.3,1.2.86s-.54.86-1.2.86-1.2-.3-1.2-.86S57.53,106.86,58.18,106.86Zm0-2.76c-.94,0-1.71.5-1.71,1.36a1.19,1.19,0,0,0,.83,1.14,1.22,1.22,0,0,0-.94,1.16c0,.88.82,1.38,1.83,1.38s1.83-.5,1.83-1.38a1.23,1.23,0,0,0-.94-1.16,1.19,1.19,0,0,0,.83-1.14C59.9,104.6,59.13,104.09,58.18,104.09Zm-2.28.07H52.57v.56h2.63L53,109.06h.69l2.19-4.43Zm-4.24,4a.48.48,0,1,0,.48.48.49.49,0,0,0-.48-.48m-2.82-1.7a1.06,1.06,0,1,1-1.14,1.05,1.06,1.06,0,0,1,1.14-1.05m.81-2.31h-.72l-1.44,2.25a2,2,0,0,0-.38,1.12,1.75,1.75,0,0,0,3.49,0,1.6,1.6,0,0,0-1.65-1.6,1.26,1.26,0,0,0-.56.11Zm-3.32,0H43.64l-.06,2.51h1.08c.94,0,1.27.43,1.27.94a1,1,0,0,1-1.07,1,1.68,1.68,0,0,1-1.27-.59l-.39.38a2,2,0,0,0,1.67.77,1.55,1.55,0,0,0,1.69-1.58c0-.78-.55-1.45-1.7-1.45h-.7l0-1.39h2.13Zm-4.27,2h-.59v1.35H39.9l1.79-3.32H41l-1.83,3.43v.46h2.26v1H42v-1h.81v-.56H42Zm-3.89,2a.48.48,0,1,0,.48.48.49.49,0,0,0-.48-.48m-2.9-4.08a1.75,1.75,0,0,0-1.52.74l.43.36a1.29,1.29,0,0,1,1.06-.55c.59,0,1,.32,1,.83s-.46.84-1,.84h-.63v.54h.63c.64,0,1.15.31,1.15.86s-.5.86-1.09.86a1.71,1.71,0,0,1-1.22-.5l-.38.4a2.07,2.07,0,0,0,1.61.66c.87,0,1.69-.45,1.69-1.39a1.21,1.21,0,0,0-.85-1.15,1.17,1.17,0,0,0,.74-1.14c0-.81-.65-1.36-1.63-1.36m-4.79,1.16a1.25,1.25,0,0,1,1.07-.6.91.91,0,0,1,1,1,1.49,1.49,0,0,1-.49,1l-1.83,1.94v.46h3.1v-.56H31.07L32.48,107a2,2,0,0,0,.66-1.38,1.47,1.47,0,0,0-1.58-1.53,1.73,1.73,0,0,0-1.51.82Zm-1.31-1.15-2,.85v.62l1.4-.6v4.1h.59Zm-4.73,4.07a.49.49,0,0,0-.48.48.48.48,0,1,0,1,0,.49.49,0,0,0-.48-.48m0-2.5a.48.48,0,1,0,.48.47.49.49,0,0,0-.48-.47m-3.18-1.58a2.52,2.52,0,1,0,0,5,2.36,2.36,0,0,0,2-1l-.5-.37a1.75,1.75,0,0,1-1.49.77,1.93,1.93,0,0,1,0-3.87,1.77,1.77,0,0,1,1.49.77l.51-.35a2.31,2.31,0,0,0-2-1"/><path class="cls-3" d="M86.94,96.26a1.25,1.25,0,0,1,1.07-.6.92.92,0,0,1,1,1,1.49,1.49,0,0,1-.49,1L86.67,99.6v.46h3.1V99.5H87.54L89,98a2,2,0,0,0,.66-1.38A1.47,1.47,0,0,0,88,95.09a1.73,1.73,0,0,0-1.51.82Zm-3.72,0a1.25,1.25,0,0,1,1.07-.6.92.92,0,0,1,1,1,1.49,1.49,0,0,1-.49,1L82.95,99.6v.46H86V99.5H83.83L85.23,98a2,2,0,0,0,.66-1.38,1.47,1.47,0,0,0-1.58-1.53,1.73,1.73,0,0,0-1.51.82Zm-3.72,0a1.25,1.25,0,0,1,1.07-.6.92.92,0,0,1,1,1,1.49,1.49,0,0,1-.49,1L79.23,99.6v.46h3.1V99.5H80.11L81.52,98a2,2,0,0,0,.66-1.38,1.47,1.47,0,0,0-1.58-1.53,1.73,1.73,0,0,0-1.51.82Zm-1.22-1.09H75.61l-.06,2.51h1.08c.94,0,1.27.43,1.27.94a1,1,0,0,1-1.07,1A1.68,1.68,0,0,1,75.56,99l-.39.38a2,2,0,0,0,1.67.77,1.55,1.55,0,0,0,1.69-1.58c0-.78-.55-1.45-1.7-1.45h-.7l0-1.39h2.13Zm-3.43,1.57h-.68l-1,1.23-1-1.23h-.7l1.28,1.63-1.31,1.7h.67l1-1.28,1,1.28h.7l-1.32-1.7Zm-7.5-1.07c.78,0,1.41.69,1.41,1.95s-.63,1.95-1.41,1.95-1.42-.69-1.42-1.95.64-1.95,1.42-1.95m0-.57c-1.12,0-2,.95-2,2.52s.91,2.52,2,2.52,2-.95,2-2.52-.91-2.52-2-2.52m-4.83.57c.78,0,1.41.69,1.41,1.95s-.63,1.95-1.41,1.95-1.42-.69-1.42-1.95.64-1.95,1.42-1.95m0-.57c-1.12,0-2,.95-2,2.52s.91,2.52,2,2.52,2-.95,2-2.52-.91-2.52-2-2.52M58,95.65c.6,0,1.09.29,1.09.83s-.49.86-1.09.86-1.08-.29-1.08-.86S57.37,95.65,58,95.65Zm0,2.21c.66,0,1.2.3,1.2.87s-.54.86-1.2.86-1.2-.3-1.2-.86S57.3,97.86,58,97.86Zm0-2.76c-.94,0-1.71.5-1.71,1.36a1.19,1.19,0,0,0,.83,1.14,1.22,1.22,0,0,0-.94,1.16c0,.88.82,1.38,1.83,1.38s1.83-.5,1.83-1.38a1.23,1.23,0,0,0-.94-1.16,1.19,1.19,0,0,0,.83-1.14C59.68,95.6,58.91,95.09,58,95.09Zm-4.29.55c.6,0,1.09.29,1.09.83s-.49.86-1.09.86-1.09-.29-1.09-.86S53.08,95.65,53.68,95.65Zm0,2.21c.66,0,1.2.3,1.2.87s-.54.86-1.2.86-1.2-.3-1.2-.86S53,97.86,53.68,97.86Zm0-2.76c-.94,0-1.71.5-1.71,1.36a1.19,1.19,0,0,0,.83,1.14,1.22,1.22,0,0,0-.94,1.16c0,.88.82,1.38,1.83,1.38s1.83-.5,1.83-1.38a1.23,1.23,0,0,0-.94-1.16,1.19,1.19,0,0,0,.83-1.14C55.39,95.6,54.62,95.09,53.68,95.09Zm-3,4.08a.48.48,0,1,0,.48.48.49.49,0,0,0-.48-.48m-2.5-1.42a1.06,1.06,0,1,1,1.14-1.05,1.06,1.06,0,0,1-1.14,1.05m-.8,2.31h.72l1.44-2.25a2,2,0,0,0,.38-1.12,1.75,1.75,0,0,0-3.5,0,1.6,1.6,0,0,0,1.65,1.6,1.32,1.32,0,0,0,.56-.11Zm-3.22-5a1.75,1.75,0,0,0-1.52.74l.43.36a1.29,1.29,0,0,1,1.06-.55c.59,0,1.05.32,1.05.83s-.46.84-1,.84H43.5v.54h.63c.64,0,1.15.31,1.15.86s-.5.86-1.09.86a1.7,1.7,0,0,1-1.22-.5l-.38.4a2.07,2.07,0,0,0,1.61.66c.87,0,1.69-.45,1.69-1.39a1.21,1.21,0,0,0-.85-1.15,1.17,1.17,0,0,0,.74-1.14c0-.81-.65-1.36-1.63-1.36m-2.3.07H39.19l-.06,2.51h1.08c.94,0,1.27.43,1.27.94a1,1,0,0,1-1.07,1A1.68,1.68,0,0,1,39.14,99l-.39.38a2,2,0,0,0,1.67.77,1.55,1.55,0,0,0,1.69-1.58c0-.78-.55-1.45-1.7-1.45h-.7l0-1.39h2.13Zm-4.19,4a.48.48,0,1,0,.48.48.49.49,0,0,0-.48-.48m-2.82-1.7a1.06,1.06,0,1,1-1.14,1.05,1.06,1.06,0,0,1,1.14-1.05m.81-2.31h-.72l-1.45,2.25a2,2,0,0,0-.38,1.12,1.75,1.75,0,0,0,3.49,0A1.6,1.6,0,0,0,35,96.93a1.25,1.25,0,0,0-.56.12Zm-3.41-.06-2,.85v.62l1.4-.6v4.1h.59Zm-3,2h-.59v1.35H27.12l1.79-3.32h-.67L26.41,98.6v.46h2.27v1h.59v-1h.82v-.56h-.82Zm-5.55,2a.49.49,0,0,0-.48.48.48.48,0,1,0,1,0,.49.49,0,0,0-.48-.48m0-2.5a.48.48,0,1,0,.48.48.49.49,0,0,0-.48-.48m-2.88-.92c.73,0,1.11.29,1.11.89s-.38.89-1.11.89H19.61V95.75Zm0,2.36c1.11,0,1.73-.55,1.73-1.47s-.63-1.47-1.73-1.47H19v4.9h.62v-2Z"/><path class="cls-3" d="M90.43,79.75a1.06,1.06,0,1,1,1.14-1.05,1.06,1.06,0,0,1-1.14,1.05m-.81,2.31h.72l1.44-2.25a2,2,0,0,0,.39-1.12,1.75,1.75,0,0,0-3.5,0,1.6,1.6,0,0,0,1.65,1.6,1.32,1.32,0,0,0,.56-.11Zm-1.51-4.9h-.73L86,79.09l-1.37-1.92H83.9l1.73,2.4-1.81,2.5h.72L86,80l1.45,2h.75l-1.81-2.5Zm-5.23-.06-2,.85v.62l1.4-.6v4.1h.59Zm-4.9,5h.84l-2.43-2.5,2.28-2.4h-.8l-2,2.15h-.57V77.17h-.61v4.9h.61V79.89h.56Zm-6-2.59a1.06,1.06,0,1,1-1.14,1.05A1.06,1.06,0,0,1,72,79.48m.81-2.31h-.72l-1.44,2.25a2,2,0,0,0-.38,1.12,1.75,1.75,0,0,0,3.49,0,1.6,1.6,0,0,0-1.65-1.6,1.27,1.27,0,0,0-.56.12Zm-3.52,0h-.94l-1.64,3.66L65,77.16h-.94v4.9h.61V77.88l1.64,3.66H67l1.64-3.69v4.22h.61Zm-8.85,4-.2,1.8h.49l.38-1.8Zm-1.33-4h-.61V81l-3-3.85h-.56v4.9h.61V78.22l3,3.85h.56Zm-7.79.52a1.93,1.93,0,1,1-1.89,1.93,1.84,1.84,0,0,1,1.89-1.93m0-.59a2.52,2.52,0,1,0,2.54,2.52,2.44,2.44,0,0,0-2.54-2.52m-5.94,4.09-.2,1.8h.49l.38-1.8Zm-2.69-2a1.2,1.2,0,1,1-1.17,1.19,1.15,1.15,0,0,1,1.17-1.19m0-.54a1.73,1.73,0,1,0,1.76,1.73,1.7,1.7,0,0,0-1.76-1.73m-2.42.07h-1.4v-1h-.57v1h-.71v.52h.71v1.63c0,.85.43,1.24,1.15,1.24a1.68,1.68,0,0,0,1-.33l-.27-.43a1.23,1.23,0,0,1-.68.22c-.36,0-.63-.22-.63-.72V79.26h1.4Zm-4.77-.07a1.31,1.31,0,0,0-1.09.5v-.43h-.57v3.32h.57V80.2a1,1,0,0,1,1-1,.86.86,0,0,1,.91,1v1.88h.57V80a1.29,1.29,0,0,0-1.39-1.33m-4.37.54a1.2,1.2,0,1,1-1.17,1.19,1.15,1.15,0,0,1,1.17-1.19m0-.54a1.73,1.73,0,1,0,1.76,1.73,1.7,1.7,0,0,0-1.76-1.73m-2.76,0a1.17,1.17,0,0,0-1,.51v-.44H26.8v3.32h.57V80.21a.89.89,0,0,1,.86-1,1.3,1.3,0,0,1,.57.13l.14-.56a1.49,1.49,0,0,0-.61-.11m-4.26.54a1.2,1.2,0,1,1-1.17,1.19,1.15,1.15,0,0,1,1.17-1.19m0-.54a1.73,1.73,0,1,0,1.76,1.73,1.7,1.7,0,0,0-1.76-1.73m-1.69-1.51h-4v.58h1.67v4.32h.62V77.75h1.67Z"/><path class="cls-3" d="M118.92,69.17c.78,0,1.41.69,1.41,1.95s-.63,2-1.41,2-1.41-.69-1.41-2,.64-1.95,1.41-1.95m0-.57c-1.12,0-2,.94-2,2.52s.91,2.52,2,2.52,2-.95,2-2.52-.91-2.52-2-2.52m-5,.57c.78,0,1.42.69,1.42,1.95s-.63,2-1.42,2-1.41-.69-1.41-2,.64-1.95,1.41-1.95m0-.57c-1.12,0-2,.94-2,2.52s.91,2.52,2,2.52,2-.95,2-2.52-.91-2.52-2-2.52m-3.21,0-2,.85v.62l1.4-.6v4.1h.59Zm-6,2.08a1,1,0,0,1,1,1h-2a1,1,0,0,1,1-1m0-.51a1.73,1.73,0,0,0,0,3.46,1.89,1.89,0,0,0,1.36-.5l-.3-.39a1.56,1.56,0,0,1-1,.4,1.08,1.08,0,0,1-1.13-1h2.61c0-.06,0-.14,0-.21a1.59,1.59,0,0,0-1.56-1.72m-2.31.07H101v-1h-.57v1h-.71v.52h.71v1.63c0,.85.43,1.24,1.15,1.24a1.68,1.68,0,0,0,1-.33l-.27-.43a1.23,1.23,0,0,1-.68.22c-.36,0-.63-.22-.63-.72V70.76h1.4Zm-3.76-1.58a.4.4,0,0,0-.4.41.39.39,0,0,0,.4.4.4.4,0,0,0,.41-.4.4.4,0,0,0-.41-.41m.29,1.58h-.57v3.33h.57Zm-1.75,0h-.57v1.88a.94.94,0,1,1-1.89,0V70.24h-.57v1.93a1.52,1.52,0,0,0,3,0Zm-4.11-1.11a3,3,0,0,0-1.76-.54c-1,0-1.87.53-1.87,1.47s.64,1.21,1.45,1.31l.46.06c.76.1,1.17.31,1.17.77s-.57.85-1.31.85a2.62,2.62,0,0,1-1.6-.54L89.3,73a3.18,3.18,0,0,0,1.93.64c1.06,0,1.95-.51,1.95-1.49s-.71-1.2-1.54-1.3l-.43-.05c-.74-.09-1.11-.32-1.11-.76s.51-.85,1.23-.85a2.56,2.56,0,0,1,1.45.45Zm-7.2,3.55-.2,1.8h.49l.38-1.8Zm-2.5-2a1,1,0,0,1,1,1h-2a1,1,0,0,1,1-1m0-.51a1.73,1.73,0,0,0,0,3.46,1.89,1.89,0,0,0,1.36-.5l-.3-.39a1.56,1.56,0,0,1-1,.4,1.08,1.08,0,0,1-1.13-1H85c0-.06,0-.14,0-.21a1.59,1.59,0,0,0-1.57-1.72m-2.58.07h-.57v1.88a.94.94,0,1,1-1.89,0V70.24h-.57v1.93a1.52,1.52,0,0,0,3,0Zm-5.56-.07a1.31,1.31,0,0,0-1.09.5v-.43h-.57v3.33h.57V71.7a1,1,0,0,1,1-1,.86.86,0,0,1,.91,1v1.88h.57V71.5a1.29,1.29,0,0,0-1.39-1.33m-4.19.51a1,1,0,0,1,1,1H70a1,1,0,0,1,1-1m0-.51a1.73,1.73,0,0,0,0,3.46,1.89,1.89,0,0,0,1.36-.5l-.3-.39a1.56,1.56,0,0,1-1,.4,1.08,1.08,0,0,1-1.13-1h2.61c0-.06,0-.14,0-.21a1.59,1.59,0,0,0-1.56-1.72M69,70.24h-.61L67.3,73l-1.12-2.75h-.62L67,73.57h.67Zm-6-1,1,2.37H62.07Zm.39-.61h-.77l-2,4.9h.64l.53-1.34h2.38l.54,1.34h.66Zm-6.16,1.51a1.73,1.73,0,0,0,0,3.46,1.62,1.62,0,0,0,1.24-.52l-.35-.39a1.29,1.29,0,0,1-.9.38,1.2,1.2,0,0,1,0-2.39,1.22,1.22,0,0,1,.88.37l.37-.39a1.6,1.6,0,0,0-1.24-.52m-3-1.51a.4.4,0,0,0-.4.41.39.39,0,0,0,.4.4.4.4,0,0,0,.41-.4.41.41,0,0,0-.41-.41m.29,1.58H54v3.33h.57Zm-1.49,0h-1.4v-1h-.57v1h-.71v.52h.71v1.63c0,.85.43,1.24,1.15,1.24a1.68,1.68,0,0,0,1-.33L53,72.88a1.23,1.23,0,0,1-.68.22c-.36,0-.63-.22-.63-.72V70.76h1.4Zm-4.77-.07a1.31,1.31,0,0,0-1.09.5v-.43h-.57v3.33h.57V71.7a1,1,0,0,1,1-1,.86.86,0,0,1,.91,1v1.88h.57V71.5a1.29,1.29,0,0,0-1.39-1.33m-4.55.54a1.2,1.2,0,1,1-1.14,1.19,1.13,1.13,0,0,1,1.14-1.19m1.68-.47h-.57v.45a1.47,1.47,0,0,0-1.17-.52,1.73,1.73,0,0,0,0,3.46,1.47,1.47,0,0,0,1.17-.51v.45h.57Zm-4.37-1.71h-.57v5h.57Zm-1.49,1.71h-1.4v-1h-.57v1h-.71v.52h.71v1.63c0,.85.43,1.24,1.15,1.24a1.68,1.68,0,0,0,1-.33l-.27-.43a1.23,1.23,0,0,1-.68.22c-.36,0-.63-.22-.63-.72V70.76h1.4Zm-5.3-1,1,2.37H33.33Zm.39-.61h-.77l-2,4.9h.64l.54-1.34h2.38L36,73.57h.66ZM26.9,69.76a1.25,1.25,0,0,1,1.07-.6.91.91,0,0,1,1,1,1.49,1.49,0,0,1-.49,1L26.62,73.1v.47h3.1V73H27.5l1.41-1.49a2,2,0,0,0,.66-1.38A1.47,1.47,0,0,0,28,68.6a1.74,1.74,0,0,0-1.51.82Zm-3.17-.59c.78,0,1.41.69,1.41,1.95s-.63,2-1.41,2-1.42-.69-1.42-2,.64-1.95,1.42-1.95m0-.57c-1.12,0-2,.94-2,2.52s.91,2.52,2,2.52,2-.95,2-2.52-.91-2.52-2-2.52m-3.21,0-2,.85v.62l1.4-.6v4.1h.59Z"/><path class="cls-4" d="M212,119.07h8.48v-1.5H214v-2.23h4.28v-1.5H214v-2.23h6.28v-1.52H212Zm-10.27,0h8.77v-1.5h-6.8v-7.49h-2Zm-1.2-6.32a2.25,2.25,0,0,0-.91-2.05,5.13,5.13,0,0,0-2.75-.59h-5.5v8.94h2v-3.71h3.5a5.36,5.36,0,0,0,2.75-.56,2.18,2.18,0,0,0,.91-2m-2,0a.86.86,0,0,1-.44.87,2.52,2.52,0,0,1-1.1.21h-3.63v-2.22H197a2.17,2.17,0,0,1,1.1.26.93.93,0,0,1,.44.88m-17.16,6.31h8.48v-1.5H183.4v-2.22h4.28v-1.5H183.4v-2.24h6.28v-1.52H181.4Zm-14.86,0h2v-9h-2Z"/><path class="cls-4" d="M165.41,111.07a6.49,6.49,0,0,0-1.36-.62,7.4,7.4,0,0,0-1.26-.33,9.4,9.4,0,0,0-1.57-.14,8.27,8.27,0,0,0-2.16.29,5.89,5.89,0,0,0-1.87.87,4.55,4.55,0,0,0-1.31,1.43,3.89,3.89,0,0,0-.5,2,3.94,3.94,0,0,0,.5,2,4.63,4.63,0,0,0,1.29,1.45,5.28,5.28,0,0,0,1.81.85,8.09,8.09,0,0,0,2.05.29,9.17,9.17,0,0,0,1.8-.16,9.77,9.77,0,0,0,1.5-.43s.52-.21,1.13-.54l-1.19-1.2a7.33,7.33,0,0,1-.78.37,7.5,7.5,0,0,1-1.15.34,7.31,7.31,0,0,1-1.42.14,4,4,0,0,1-1.29-.21,3.48,3.48,0,0,1-1.13-.63,3.27,3.27,0,0,1-.8-1,2.78,2.78,0,0,1-.31-1.31,3,3,0,0,1,.27-1.3,2.6,2.6,0,0,1,.77-1,3.45,3.45,0,0,1,1.17-.58,5.34,5.34,0,0,1,1.48-.19,8.25,8.25,0,0,1,1.42.11l.57.14a4.85,4.85,0,0,1,1.15.53Z"/><path class="cls-4" d="M234,110.78a.7.7,0,0,0-1.19-.49.7.7,0,1,0,1.19.49m-.1,0a.59.59,0,0,1-.17.43.58.58,0,0,1-.43.18.57.57,0,0,1-.43-.18.61.61,0,0,1,0-.85.6.6,0,0,1,.85,0,.59.59,0,0,1,.17.43m-.34.1a.19.19,0,0,0-.13-.07l.11,0a.16.16,0,0,0,.08-.15.19.19,0,0,0-.12-.2.58.58,0,0,0-.21,0H233v.77h.14v-.3h.11a.34.34,0,0,1,.15,0s.07.09.07.18v.08h.13V111a.23.23,0,0,0,0-.12m-.16-.13-.13,0h-.12v-.28h.12a.34.34,0,0,1,.16,0,.12.12,0,0,1,.05.11.12.12,0,0,1-.08.12"/></g><polygon class="cls-4" points="221.42 110.09 230.23 119.03 232.67 119.03 223.85 110.09 221.42 110.09"/><polygon class="cls-4" points="232.67 110.09 223.86 119.03 221.42 119.03 230.24 110.09 232.67 110.09"/><polygon class="cls-4" points="179.87 119.04 179.87 118.32 179.87 110.07 178.14 110.07 178.14 116.56 171.78 110.08 171.78 110.07 170.05 110.07 170.05 119.04 171.78 119.04 171.78 112.57 178.14 119.04 178.14 119.04 178.15 119.04 179.87 119.04"/><g class="cls-2"><path class="cls-5" d="M212.23,102.66c0-2.49-7.17-4.52-16.25-4.7l-.08.69c7.49.18,13.38,2,13.38,4.18s-6.18,4.09-13.92,4.19l.05.35c9.35-.1,16.82-2.17,16.82-4.71"/><path class="cls-5" d="M205.71,103.22c0,1.69-4.64,3.07-10.46,3.16l.05.35c6.79-.09,12.2-1.7,12.2-3.67s-5.13-3.5-11.68-3.66l-.08.69c5.59.15,10,1.5,10,3.14"/><path class="cls-5" d="M203.95,103.44c0-1.36-3.63-2.48-8.28-2.62l-.08.69c3.71.13,6.58,1,6.58,2.1s-3.11,2.05-7,2.11l.05.35c4.88-.07,8.75-1.22,8.75-2.63"/><path class="cls-5" d="M177.16,102.66c0-2.49,7.16-4.52,16.25-4.7l.08.69c-7.49.18-13.38,2-13.38,4.18s6.18,4.09,13.92,4.19l-.05.35c-9.35-.1-16.82-2.17-16.82-4.71"/><path class="cls-5" d="M183.68,103.22c0,1.69,4.63,3.07,10.46,3.16l-.05.35c-6.79-.09-12.2-1.7-12.2-3.67s5.13-3.5,11.68-3.66l.08.69c-5.59.15-10,1.5-10,3.14"/><path class="cls-5" d="M185.44,103.44c0-1.36,3.63-2.48,8.27-2.62l.08.69c-3.71.13-6.58,1-6.58,2.1s3.11,2.05,7,2.11l-.05.35c-4.88-.07-8.75-1.22-8.75-2.63"/></g><polygon class="cls-4" points="189.13 126.17 188.37 126.17 188.37 122.23 186.99 125.7 186.19 125.7 184.81 122.27 184.81 126.17 184.05 126.17 184.05 121.38 185.22 121.38 186.59 124.8 187.96 121.38 189.13 121.38 189.13 126.17"/><polygon class="cls-4" points="193.71 126.17 190.27 126.17 190.27 121.38 193.67 121.38 193.67 122.11 191.03 122.11 191.03 123.4 193.58 123.4 193.58 124.12 191.03 124.12 191.03 125.45 193.71 125.45 193.71 126.17"/><g class="cls-2"><path class="cls-4" d="M195.49,122.11v3.32h1.11a1.66,1.66,0,0,0,0-3.32Zm1.11-.73a2.4,2.4,0,1,1,0,4.79h-1.87v-4.79Z"/></g><rect class="cls-4" x="199.94" y="121.38" width="0.76" height="4.79"/><path class="cls-4" d="M202.85,124.22h1.58l-.79-2.07Zm3.14,2h-.82L204.7,125h-2.14l-.46,1.22h-.79l1.86-4.79h1Z"/><g class="cls-2"><rect class="cls-6" x="0.25" y="0.42" width="251.5" height="143.5"/></g><rect class="cls-4" x="535.39" y="0.85" width="252" height="144"/><rect class="cls-3" x="267.7" y="159.99" width="252" height="144"/><rect class="cls-7" x="267.7" y="-0.1" width="252" height="144"/><g class="cls-8"><path class="cls-9" d="M339.76,244h3.82v-17.2h-3.82Zm28.48,0H384.5V241.1H372.08v-4.24h8.2V234h-8.2v-4.29h12v-2.9H368.24Zm32.87-12.08a1.65,1.65,0,0,1-.84,1.66,4.8,4.8,0,0,1-2.1.41h-7v-4.25h7a4.15,4.15,0,0,1,2.1.49,1.79,1.79,0,0,1,.84,1.7m3.83,0a4.32,4.32,0,0,0-1.75-3.94,9.84,9.84,0,0,0-5.26-1.13H387.39V244h3.84v-7.1h6.7a10.28,10.28,0,0,0,5.26-1.08c1.17-.71,1.75-2,1.75-3.88m2.31,12.1h16.8v-2.88H411V226.78h-3.77Zm19.67,0h16.26V241.1H430.76v-4.26H439V234h-8.2v-4.27h12v-2.9H426.92Z"/><path class="cls-9" d="M337.62,228.66a12.47,12.47,0,0,0-2.6-1.2,14.34,14.34,0,0,0-2.4-.62,18.14,18.14,0,0,0-3-.27,15.89,15.89,0,0,0-4.14.54,11.3,11.3,0,0,0-3.58,1.66,8.72,8.72,0,0,0-2.51,2.75,7.47,7.47,0,0,0-1,3.83,7.57,7.57,0,0,0,1,3.84,8.87,8.87,0,0,0,2.47,2.77,10.08,10.08,0,0,0,3.47,1.62,15.49,15.49,0,0,0,3.93.55,17.65,17.65,0,0,0,3.45-.3,18.88,18.88,0,0,0,2.88-.82s1-.41,2.15-1l-2.28-2.29a14,14,0,0,1-1.5.7,14.58,14.58,0,0,1-2.21.65,14.07,14.07,0,0,1-2.72.27,7.73,7.73,0,0,1-2.47-.41,6.68,6.68,0,0,1-2.17-1.21,6.24,6.24,0,0,1-1.54-1.91,5.31,5.31,0,0,1-.59-2.52,5.7,5.7,0,0,1,.52-2.5,5,5,0,0,1,1.47-1.83,6.61,6.61,0,0,1,2.24-1.11,10.24,10.24,0,0,1,2.83-.37,15.79,15.79,0,0,1,2.72.22c.39.08.76.16,1.1.26a9.3,9.3,0,0,1,2.21,1Z"/><path class="cls-9" d="M467.89,228.05a.85.85,0,0,1-.25,0h-.23v-.53h.22a.65.65,0,0,1,.32.06.22.22,0,0,1,.1.22.23.23,0,0,1-.15.23m.3.25a.36.36,0,0,0-.25-.14.57.57,0,0,0,.21-.07.31.31,0,0,0,.15-.29.37.37,0,0,0-.23-.37,1.12,1.12,0,0,0-.4-.05h-.52v1.47h.26v-.58h.2a.65.65,0,0,1,.29,0c.09.06.14.17.14.34v.16s0,0,0,0h.24v0a.42.42,0,0,1,0-.08v-.22a.42.42,0,0,0-.08-.23m.65-.19a1.13,1.13,0,0,1-.33.82,1.12,1.12,0,0,1-.82.34,1.1,1.1,0,0,1-.81-.34,1.16,1.16,0,0,1,0-1.64,1.15,1.15,0,0,1,1.64,0,1.12,1.12,0,0,1,.33.81m.19,0a1.34,1.34,0,0,0-2.29-.94,1.29,1.29,0,0,0-.39.94,1.31,1.31,0,0,0,.39,1,1.34,1.34,0,0,0,1.9,0,1.3,1.3,0,0,0,.39-1"/><polygon class="cls-9" points="444.93 226.78 461.8 243.92 466.48 243.92 449.59 226.78 444.93 226.78"/><polygon class="cls-9" points="466.48 226.78 449.61 243.92 444.93 243.92 461.82 226.78 466.48 226.78"/><polygon class="cls-9" points="365.32 243.94 365.32 242.55 365.32 226.74 362.01 226.74 362.01 239.18 349.81 226.75 349.81 226.74 346.5 226.74 346.5 243.94 349.81 243.94 349.81 231.54 362.01 243.94 362.01 243.94 362.02 243.94 365.32 243.94"/><path class="cls-9" d="M427.32,212.55c0-4.76-13.73-8.67-31.13-9l-.15,1.32c14.35.34,25.63,3.79,25.63,8s-11.83,7.84-26.68,8l.11.67c17.91-.19,32.22-4.16,32.22-9"/><path class="cls-9" d="M414.84,213.63c0,3.24-8.88,5.89-20,6l.1.67c13-.17,23.37-3.26,23.37-7s-9.84-6.7-22.37-7l-.15,1.32c10.71.29,19.09,2.88,19.09,6"/><path class="cls-9" d="M411.46,214c0-2.61-6.95-4.76-15.86-5l-.15,1.32c7.1.24,12.61,2,12.61,4s-6,3.93-13.48,4.05l.1.66c9.35-.14,16.77-2.34,16.77-5"/><path class="cls-9" d="M360.13,212.55c0-4.76,13.73-8.67,31.13-9l.15,1.32c-14.35.34-25.63,3.79-25.63,8s11.83,7.84,26.68,8l-.11.67c-17.92-.19-32.22-4.16-32.22-9"/><path class="cls-9" d="M372.62,213.63c0,3.24,8.88,5.89,20,6l-.1.67c-13-.17-23.37-3.26-23.37-7s9.84-6.7,22.37-7l.15,1.32c-10.71.29-19.09,2.88-19.09,6"/><path class="cls-9" d="M376,214c0-2.61,6.95-4.76,15.86-5l.15,1.32c-7.1.24-12.61,2-12.61,4s6,3.93,13.48,4.05l-.1.66c-9.35-.14-16.77-2.34-16.77-5"/></g><text class="cls-10" transform="translate(372.1 257.6) scale(1 1.02)"><tspan class="cls-11">M</tspan><tspan class="cls-12" x="11.94" y="0">EDI</tspan><tspan x="34.12" y="0">A</tspan></text><g class="cls-13"><path class="cls-9" d="M339.76,85.89h3.82V68.69h-3.82Zm28.48,0H384.5V83H372.08V78.77h8.2V75.89h-8.2V71.6h12v-2.9H368.24Zm32.87-12.08a1.65,1.65,0,0,1-.84,1.66,4.8,4.8,0,0,1-2.1.41h-7V71.62h7a4.15,4.15,0,0,1,2.1.49,1.79,1.79,0,0,1,.84,1.7m3.83,0a4.32,4.32,0,0,0-1.75-3.94,9.84,9.84,0,0,0-5.26-1.13H387.39V85.87h3.84v-7.1h6.7a10.27,10.27,0,0,0,5.26-1.08c1.17-.71,1.75-2,1.75-3.88m2.31,12.1h16.8V83H411V68.69h-3.77Zm19.67,0h16.26V83H430.76V78.75H439V75.87h-8.2V71.6h12v-2.9H426.92Z"/><path class="cls-9" d="M337.62,70.57a12.47,12.47,0,0,0-2.6-1.2,14.34,14.34,0,0,0-2.4-.62,18.14,18.14,0,0,0-3-.27,15.89,15.89,0,0,0-4.14.54,11.3,11.3,0,0,0-3.58,1.66,8.72,8.72,0,0,0-2.51,2.75,7.47,7.47,0,0,0-1,3.83,7.57,7.57,0,0,0,1,3.84,8.87,8.87,0,0,0,2.47,2.77,10.08,10.08,0,0,0,3.47,1.62,15.49,15.49,0,0,0,3.93.55,17.65,17.65,0,0,0,3.45-.3,18.88,18.88,0,0,0,2.88-.82s1-.41,2.15-1l-2.28-2.29a14,14,0,0,1-1.5.7,14.58,14.58,0,0,1-2.21.65,14.07,14.07,0,0,1-2.72.27,7.73,7.73,0,0,1-2.47-.41,6.68,6.68,0,0,1-2.17-1.21,6.24,6.24,0,0,1-1.54-1.91,5.31,5.31,0,0,1-.59-2.52,5.7,5.7,0,0,1,.52-2.5,5,5,0,0,1,1.47-1.83,6.61,6.61,0,0,1,2.24-1.11,10.24,10.24,0,0,1,2.83-.37,15.79,15.79,0,0,1,2.72.22c.39.08.76.16,1.1.26a9.3,9.3,0,0,1,2.21,1Z"/><path class="cls-9" d="M467.89,70a.85.85,0,0,1-.25,0h-.23v-.53h.22a.65.65,0,0,1,.32.06.22.22,0,0,1,.1.22.23.23,0,0,1-.15.23m.3.25a.36.36,0,0,0-.25-.14.55.55,0,0,0,.21-.07.31.31,0,0,0,.15-.29.37.37,0,0,0-.23-.37,1.12,1.12,0,0,0-.4-.05h-.52v1.47h.26v-.58h.2a.65.65,0,0,1,.29,0c.09.05.14.17.14.34v.16s0,0,0,0h.24v0a.42.42,0,0,1,0-.08v-.22a.42.42,0,0,0-.08-.23m.65-.19a1.15,1.15,0,0,1-1.15,1.16,1.1,1.1,0,0,1-.81-.34,1.16,1.16,0,1,1,2-.82m.19,0a1.34,1.34,0,0,0-2.29-.94,1.29,1.29,0,0,0-.39.94,1.31,1.31,0,0,0,.39,1,1.34,1.34,0,0,0,1.9,0,1.3,1.3,0,0,0,.39-1"/><polygon class="cls-9" points="444.93 68.69 461.8 85.83 466.48 85.83 449.59 68.69 444.93 68.69"/><polygon class="cls-9" points="466.48 68.69 449.61 85.83 444.93 85.83 461.82 68.69 466.48 68.69"/><polygon class="cls-9" points="365.32 85.85 365.32 84.46 365.32 68.66 362.01 68.66 362.01 81.09 349.81 68.67 349.81 68.66 346.5 68.66 346.5 85.85 349.81 85.85 349.81 73.45 362.01 85.85 362.01 85.85 362.02 85.85 365.32 85.85"/><path class="cls-9" d="M427.32,54.46c0-4.76-13.73-8.67-31.13-9L396,46.77c14.35.34,25.63,3.79,25.63,8s-11.83,7.84-26.68,8l.11.67c17.91-.19,32.22-4.16,32.22-9"/><path class="cls-9" d="M414.84,55.54c0,3.24-8.88,5.89-20,6l.1.67c13-.17,23.37-3.26,23.37-7s-9.84-6.7-22.37-7l-.15,1.32c10.71.29,19.09,2.88,19.09,6"/><path class="cls-9" d="M411.46,55.95c0-2.61-6.95-4.76-15.86-5l-.15,1.32c7.1.24,12.61,1.95,12.61,4s-6,3.93-13.48,4.05l.1.66c9.35-.14,16.77-2.34,16.77-5"/><path class="cls-9" d="M360.13,54.46c0-4.76,13.73-8.67,31.13-9l.15,1.32c-14.35.34-25.63,3.79-25.63,8s11.83,7.84,26.68,8l-.11.67c-17.92-.19-32.22-4.16-32.22-9"/><path class="cls-9" d="M372.62,55.54c0,3.24,8.88,5.89,20,6l-.1.67c-13-.17-23.37-3.26-23.37-7s9.84-6.7,22.37-7l.15,1.32c-10.71.29-19.09,2.88-19.09,6"/><path class="cls-9" d="M376,55.95c0-2.61,6.95-4.76,15.86-5l.15,1.32c-7.1.24-12.61,1.95-12.61,4s6,3.93,13.48,4.05l-.1.66c-9.35-.14-16.77-2.34-16.77-5"/></g><text class="cls-10" transform="translate(372.1 99.51) scale(1 1.02)"><tspan class="cls-11">M</tspan><tspan class="cls-12" x="11.94" y="0">EDI</tspan><tspan x="34.12" y="0">A</tspan></text><g class="cls-14"><path class="cls-9" d="M607.46,84.84h3.82V67.64h-3.82Zm28.48,0h16.26V82H639.77V77.72H648V74.84h-8.21V70.55h12v-2.9H635.94Zm32.87-12.08a1.65,1.65,0,0,1-.84,1.66,4.8,4.8,0,0,1-2.1.41h-7V70.57h7a4.15,4.15,0,0,1,2.1.49,1.79,1.79,0,0,1,.84,1.7m3.83,0a4.32,4.32,0,0,0-1.75-3.94,9.84,9.84,0,0,0-5.26-1.13H655.09V84.82h3.84v-7.1h6.7a10.27,10.27,0,0,0,5.26-1.08c1.17-.71,1.75-2,1.75-3.88m2.31,12.1h16.8V82h-13V67.63h-3.77Zm19.67,0h16.26V82H698.45V77.7h8.2V74.82h-8.2V70.55h12v-2.9H694.62Z"/><path class="cls-9" d="M605.32,69.51a12.47,12.47,0,0,0-2.6-1.2,14.34,14.34,0,0,0-2.4-.62,18.14,18.14,0,0,0-3-.27,15.89,15.89,0,0,0-4.14.54,11.3,11.3,0,0,0-3.58,1.66,8.72,8.72,0,0,0-2.51,2.75,7.47,7.47,0,0,0-1,3.83,7.57,7.57,0,0,0,1,3.84,8.87,8.87,0,0,0,2.47,2.77A10.08,10.08,0,0,0,593,84.43a15.49,15.49,0,0,0,3.93.55,17.65,17.65,0,0,0,3.45-.3,18.88,18.88,0,0,0,2.88-.82s1-.41,2.15-1l-2.28-2.29a14,14,0,0,1-1.5.7,14.59,14.59,0,0,1-2.21.65,14.07,14.07,0,0,1-2.72.27,7.73,7.73,0,0,1-2.47-.41,6.68,6.68,0,0,1-2.17-1.21,6.24,6.24,0,0,1-1.54-1.91,5.31,5.31,0,0,1-.59-2.52,5.7,5.7,0,0,1,.52-2.5,5,5,0,0,1,1.47-1.83,6.6,6.6,0,0,1,2.24-1.11,10.24,10.24,0,0,1,2.84-.37,15.79,15.79,0,0,1,2.72.22c.39.08.76.16,1.09.26a9.3,9.3,0,0,1,2.21,1Z"/><path class="cls-9" d="M735.59,68.91a.85.85,0,0,1-.25,0h-.23v-.53h.22a.65.65,0,0,1,.32.06.22.22,0,0,1,.1.22.23.23,0,0,1-.15.23m.3.25a.36.36,0,0,0-.26-.14.55.55,0,0,0,.21-.07.31.31,0,0,0,.15-.29.37.37,0,0,0-.23-.37,1.12,1.12,0,0,0-.4-.05h-.52V69.7h.26v-.58h.2a.65.65,0,0,1,.29,0c.09.05.14.17.14.34v.16s0,0,0,0H736v0a.42.42,0,0,1,0-.08v-.22a.42.42,0,0,0-.08-.23m.65-.19a1.15,1.15,0,0,1-1.15,1.16,1.1,1.1,0,0,1-.81-.34,1.16,1.16,0,1,1,2-.82m.19,0a1.34,1.34,0,0,0-2.29-.94,1.29,1.29,0,0,0-.39.94,1.31,1.31,0,0,0,.39,1,1.34,1.34,0,0,0,1.9,0,1.3,1.3,0,0,0,.39-1"/><polygon class="cls-9" points="712.63 67.63 729.5 84.78 734.17 84.78 717.29 67.63 712.63 67.63"/><polygon class="cls-9" points="734.17 67.63 717.3 84.78 712.63 84.78 729.51 67.63 734.17 67.63"/><polygon class="cls-9" points="633.02 84.8 633.02 83.4 633.02 67.6 629.71 67.6 629.71 80.03 617.51 67.61 617.51 67.6 614.2 67.6 614.2 84.8 617.51 84.8 617.51 72.4 629.71 84.79 629.71 84.8 629.71 84.8 633.02 84.8"/><path class="cls-9" d="M695,53.41c0-4.76-13.73-8.67-31.13-9l-.15,1.32c14.35.34,25.63,3.79,25.63,8s-11.83,7.84-26.68,8l.11.67c17.91-.19,32.22-4.16,32.22-9"/><path class="cls-9" d="M682.53,54.48c0,3.24-8.88,5.89-20,6l.1.67c13-.17,23.37-3.26,23.37-7s-9.84-6.7-22.37-7l-.15,1.32c10.71.29,19.09,2.88,19.09,6"/><path class="cls-9" d="M679.15,54.9c0-2.61-6.95-4.76-15.86-5l-.15,1.32c7.1.24,12.61,2,12.61,4s-6,3.93-13.48,4.05l.1.66c9.35-.14,16.77-2.34,16.77-5"/><path class="cls-9" d="M627.83,53.41c0-4.76,13.73-8.67,31.13-9l.15,1.32c-14.35.34-25.63,3.79-25.63,8s11.83,7.84,26.68,8l-.11.67c-17.92-.19-32.22-4.16-32.22-9"/><path class="cls-9" d="M640.32,54.48c0,3.24,8.88,5.89,20,6l-.1.67c-13-.17-23.37-3.26-23.37-7s9.84-6.7,22.37-7l.15,1.32c-10.71.29-19.09,2.88-19.09,6"/><path class="cls-9" d="M643.7,54.9c0-2.61,6.95-4.76,15.86-5l.15,1.32c-7.1.24-12.61,2-12.61,4s6,3.93,13.48,4.05l-.1.66c-9.35-.14-16.77-2.34-16.77-5"/></g><text class="cls-15" transform="translate(639.79 98.45) scale(1 1.02)">M<tspan class="cls-12" x="11.94" y="0">EDI</tspan><tspan class="cls-16" x="34.12" y="0">A</tspan></text></svg>