<svg id="Layer_1" data-name="Layer 1" xmlns="http://www.w3.org/2000/svg" xmlns:xlink="http://www.w3.org/1999/xlink" viewBox="0 0 788 305"><defs><style>.cls-1,.cls-27,.cls-29,.cls-34,.cls-37{fill:none;}.cls-2{clip-path:url(#clip-path);}.cls-3,.cls-33{font-size:12px;}.cls-28,.cls-3,.cls-32,.cls-40{fill:#231f20;}.cls-3{font-family:BrandonText-Black, Brandon Text;}.cls-4{font-size:7.5px;letter-spacing:-0.01em;}.cls-26,.cls-4,.cls-6{fill:#6d6e70;}.cls-30,.cls-32,.cls-4{font-family:BrandonText-Medium, Brandon Text;}.cls-5{letter-spacing:0em;}.cls-32,.cls-6{font-size:7px;}.cls-6{font-family:BrandonText-Regular, Brandon Text;}.cls-7{letter-spacing:-0.1em;}.cls-8{letter-spacing:0em;}.cls-9{letter-spacing:-0.01em;}.cls-10{letter-spacing:-0.08em;}.cls-11{letter-spacing:-0.01em;}.cls-12{letter-spacing:0em;}.cls-13{letter-spacing:-0.01em;}.cls-14{letter-spacing:-0.01em;}.cls-15{letter-spacing:-0.02em;}.cls-16{letter-spacing:-0.01em;}.cls-17{letter-spacing:-0.02em;}.cls-18{letter-spacing:-0.01em;}.cls-19{letter-spacing:-0.01em;}.cls-20{letter-spacing:-0.01em;}.cls-21{letter-spacing:-0.02em;}.cls-22{letter-spacing:0em;}.cls-23{letter-spacing:-0.03em;}.cls-24{letter-spacing:-0.01em;}.cls-25{letter-spacing:-0.01em;}.cls-27{stroke:#929497;stroke-width:0.5px;}.cls-29,.cls-37{stroke:#fff;stroke-width:1.5px;}.cls-30{font-size:36.75px;}.cls-30,.cls-33,.cls-36{fill:#ff4338;}.cls-31{fill:#fff;}.cls-33{font-family:BrandonText-Bold, Brandon Text;font-weight:700;}.cls-34{stroke:#ff4338;stroke-linecap:round;stroke-linejoin:round;}.cls-35{fill:#ede813;}.cls-37{stroke-linecap:square;stroke-miterlimit:10;}.cls-38{opacity:0.7;}.cls-39{clip-path:url(#clip-path-26);}.cls-40{font-size:6px;font-family:BrandonText-Light, Brandon Text;}.cls-41{letter-spacing:0.02em;}.cls-42{letter-spacing:0.02em;}.cls-43{letter-spacing:0.02em;}.cls-44{letter-spacing:0.02em;}</style><clipPath id="clip-path"><rect class="cls-1" y="0.3" width="787.47" height="303.7"/></clipPath><clipPath id="clip-path-26"><rect class="cls-1" x="161.95" y="113.73" width="79.78" height="24.68"/></clipPath></defs><title>recroom</title><g class="cls-2"><text class="cls-3" transform="translate(18.29 26.7)">JOHN SMITH</text><text class="cls-4" transform="translate(18.29 35.3)">M<tspan class="cls-5" x="6.48" y="0">anager</tspan></text><text class="cls-6" transform="translate(18.29 74.78)">1303 <tspan class="cls-7" x="16.41" y="0">Y</tspan><tspan class="cls-8" x="19.73" y="0">onge </tspan><tspan class="cls-9" x="36.61" y="0">S</tspan><tspan x="40.24" y="0">t</tspan><tspan class="cls-9" x="42.89" y="0">r</tspan><tspan x="45.49" y="0">eet</tspan></text><text class="cls-6" transform="translate(18.29 83.27)"><tspan class="cls-10">T</tspan><tspan x="3.06" y="0">o</tspan><tspan class="cls-11" x="6.98" y="0">r</tspan><tspan x="9.58" y="0">o</tspan><tspan class="cls-12" x="13.5" y="0">n</tspan><tspan class="cls-8" x="17.25" y="0">to, ON, M4T 2Y9</tspan></text><text class="cls-6" transform="translate(18.29 100.28)">P: 416.323.6600 | C: 123.456.7890</text><text class="cls-6" transform="translate(18.29 108.77)"><tspan class="cls-13">J</tspan><tspan x="3.14" y="0">ohn.</tspan><tspan class="cls-14" x="16.31" y="0">S</tspan><tspan x="20" y="0">mith</tspan><tspan class="cls-15" x="33.82" y="0">@</tspan><tspan class="cls-14" x="40.59" y="0">T</tspan><tspan x="44.15" y="0">h</tspan><tspan class="cls-16" x="47.92" y="0">e</tspan><tspan class="cls-17" x="51.52" y="0">R</tspan><tspan x="55.9" y="0">e</tspan><tspan class="cls-18" x="59.58" y="0">c</tspan><tspan class="cls-17" x="63.03" y="0">R</tspan><tspan x="67.41" y="0">oom.</tspan><tspan class="cls-14" x="82.74" y="0">c</tspan><tspan x="86.2" y="0">om</tspan></text><text class="cls-6" transform="translate(18.29 117.27)"><tspan class="cls-14">T</tspan><tspan x="3.56" y="0">h</tspan><tspan class="cls-19" x="7.34" y="0">e</tspan><tspan class="cls-17" x="10.93" y="0">R</tspan><tspan class="cls-8" x="15.31" y="0">e</tspan><tspan class="cls-20" x="18.98" y="0">c</tspan><tspan class="cls-21" x="22.44" y="0">R</tspan><tspan x="26.82" y="0">oom.</tspan><tspan class="cls-22" x="42.15" y="0">c</tspan><tspan x="45.62" y="0">om</tspan></text><text class="cls-6" transform="translate(18.29 125.77)"><tspan xml:space="preserve">                  </tspan><tspan class="cls-23" x="30.24" y="0"> </tspan><tspan class="cls-14" x="31.71" y="0">T</tspan><tspan x="35.27" y="0">h</tspan><tspan class="cls-24" x="39.04" y="0">e</tspan><tspan class="cls-17" x="42.64" y="0">R</tspan><tspan x="47.02" y="0">e</tspan><tspan class="cls-18" x="50.69" y="0">c</tspan><tspan class="cls-17" x="54.14" y="0">R</tspan><tspan x="58.53" y="0">oo</tspan><tspan class="cls-25" x="66.37" y="0">m</tspan><tspan x="72.08" y="0">CA</tspan></text><g class="cls-2"><path class="cls-26" d="M25,123.31a3.19,3.19,0,0,1-2.51,3.1v-2.64h.77v-.88h-.78v-.2c0-.38.17-.69.57-.69a1.34,1.34,0,0,1,.39.06l0-.92a2.38,2.38,0,0,0-.65-.08,1.59,1.59,0,0,0-1.08.39,1.75,1.75,0,0,0-.49,1.29v.15h-.51v.88h.51v2.68A3.19,3.19,0,1,1,25,123.31"/><path class="cls-26" d="M29.75,120.12A3.18,3.18,0,1,0,33,123.3a3.2,3.2,0,0,0-3.22-3.18m1.85,2.24s0,.08,0,.12a2.68,2.68,0,0,1-2.72,2.68,2.73,2.73,0,0,1-1.46-.42h.23a1.94,1.94,0,0,0,1.19-.4,1,1,0,0,1-.89-.65l.18,0a.94.94,0,0,0,.25,0,1,1,0,0,1-.77-.92h0a1,1,0,0,0,.43.12.94.94,0,0,1-.3-1.26,2.72,2.72,0,0,0,2,1,.9.9,0,0,1,0-.21,1,1,0,0,1,1-.94,1,1,0,0,1,.7.3,2,2,0,0,0,.61-.23,1,1,0,0,1-.42.52,1.92,1.92,0,0,0,.55-.15,1.92,1.92,0,0,1-.48.49"/><path class="cls-26" d="M37.64,123.91a.64.64,0,0,0,.64-.63.63.63,0,0,0-.12-.37.64.64,0,0,0-1,0,.63.63,0,0,0-.12.37.64.64,0,0,0,.64.63"/></g><polygon class="cls-26" points="38.96 121.9 38.42 121.9 38.42 122.51 39.04 122.51 39.04 121.9 38.96 121.9"/><g class="cls-2"><path class="cls-26" d="M37.64,120.12a3.16,3.16,0,1,0,3.2,3.16,3.18,3.18,0,0,0-3.2-3.16m1.82,2.79v1.47a.7.7,0,0,1-.7.69H36.52a.7.7,0,0,1-.7-.69v-2.2a.7.7,0,0,1,.7-.69h2.23a.7.7,0,0,1,.7.69Z"/><path class="cls-26" d="M38.63,123.28a1,1,0,0,1-2,0,1,1,0,0,1,.07-.37h-.54v1.47a.35.35,0,0,0,.35.34h2.23a.35.35,0,0,0,.35-.34v-1.47h-.54a1,1,0,0,1,.07.37"/><path class="cls-26" d="M47.17,124.29h0a.24.24,0,0,1-.11.07h0a1.3,1.3,0,0,1-.27.08h0l-.07,0a.46.46,0,0,0-.06.17h0s0,0,0,0v0l0,0h0l-.34,0h0a.64.64,0,0,0-.16,0h0c-.14.06-.26.16-.4.24h0a.47.47,0,0,1-.21.07H45.2a.63.63,0,0,1-.31-.11h0a1.57,1.57,0,0,0-.39-.21h0a1,1,0,0,0-.41,0h0a.1.1,0,0,1-.06,0,.05.05,0,0,1,0,0c0-.06,0-.11,0-.16l0,0-.16,0h0a1,1,0,0,1-.26-.09h0l0,0a.08.08,0,0,1,0-.08h0a.17.17,0,0,1,.1-.06h0a.93.93,0,0,0,.28-.13,1.18,1.18,0,0,0,.38-.44.3.3,0,0,0,0-.19.18.18,0,0,0-.11-.11h0a1.22,1.22,0,0,1-.25-.11h0l0,0a.12.12,0,0,1,0-.07h0a.13.13,0,0,1,.07-.1h0a.15.15,0,0,1,.12,0h0l.12,0h0a.47.47,0,0,0,.16,0h0a2.27,2.27,0,0,0,0-.33h0a1.19,1.19,0,0,1,0-.5h0a1,1,0,0,1,.31-.41,1.05,1.05,0,0,1,.65-.2h.17a1,1,0,0,1,.47.17.92.92,0,0,1,.39.57h0a2.37,2.37,0,0,1,0,.41h0c0,.09,0,.17,0,.26v0a.27.27,0,0,0,.14,0h0l.12,0h0a.17.17,0,0,1,.14,0h0a.18.18,0,0,1,.08.08.09.09,0,0,1,0,.08l0,0h0a.64.64,0,0,1-.23.12h0a.34.34,0,0,0-.17.11h0a.14.14,0,0,0,0,.12h0a1.14,1.14,0,0,0,.17.29,1,1,0,0,0,.49.36h0a.52.52,0,0,1,.12,0h0A.08.08,0,0,1,47.17,124.29Zm-1.86-4.22a3.19,3.19,0,1,0,3.16,3.62,3.31,3.31,0,0,0,0-.43,3.19,3.19,0,0,0-3.19-3.19"/><rect class="cls-27" x="0.25" y="0.55" width="251.5" height="143.5"/></g><rect class="cls-28" x="267.7" y="0.3" width="252" height="144"/><line class="cls-29" x1="321.36" y1="20.78" x2="321.36" y2="128.78"/><line class="cls-29" x1="357.36" y1="20.78" x2="357.36" y2="128.78"/><line class="cls-29" x1="285.36" y1="92.78" x2="393.36" y2="92.78"/><line class="cls-29" x1="285.36" y1="56.78" x2="393.36" y2="56.78"/><text class="cls-30" transform="translate(293.35 45.06)">x</text><g class="cls-2"><path class="cls-31" d="M459,90.11h-1.16a.05.05,0,0,0-.05.05V92a.05.05,0,0,0,.05.05H459A.05.05,0,0,0,459,92v-.31a.05.05,0,0,0-.05-.05h-.78v-.38h.64a.05.05,0,0,0,.05-.05v-.3a.06.06,0,0,0-.05-.05h-.64v-.35H459a.05.05,0,0,0,.05-.05v-.31a.05.05,0,0,0-.05-.05"/><path class="cls-31" d="M460.16,91.4l.21-.46h0l.21.46Zm.28-1.29a.06.06,0,0,0,0,0h0a.06.06,0,0,0,0,0L459.43,92a0,0,0,0,0,0,.07h.31a.11.11,0,0,0,.1-.07l.1-.23h.76l.1.22c0,.05,0,.07.1.07h.31a0,0,0,0,0,0-.07Z"/><path class="cls-31" d="M462.74,90.11h-1.25a.05.05,0,0,0-.05.05v.31a.05.05,0,0,0,.05.05h.4V92a.05.05,0,0,0,.05.05h.34a.06.06,0,0,0,.05-.05v-1.5h.4a.05.05,0,0,0,.05-.05v-.31a.05.05,0,0,0-.05-.05"/><path class="cls-31" d="M464,90.88c-.2-.09-.31-.17-.31-.26a.15.15,0,0,1,.17-.15.76.76,0,0,1,.38.15.09.09,0,0,0,.12,0l.14-.22s0-.07,0-.09a1,1,0,0,0-.6-.21.58.58,0,0,0-.65.56c0,.34.27.49.54.62s.29.16.29.28a.18.18,0,0,1-.19.17.72.72,0,0,1-.4-.15.07.07,0,0,0-.1,0l-.13.23a.06.06,0,0,0,0,.08.89.89,0,0,0,.63.22.62.62,0,0,0,.66-.58c0-.38-.32-.52-.57-.64"/><path class="cls-31" d="M466.09,91.75a.25.25,0,0,1-.26-.24.31.31,0,0,1,.2-.29l.37.39a.35.35,0,0,1-.3.14m0-1.36a.18.18,0,0,1,.19.18c0,.16-.18.24-.18.24L466,90.7a.2.2,0,0,1-.08-.15.16.16,0,0,1,.18-.15m1,1.39-.24-.22a1.66,1.66,0,0,0,.18-.35s0-.11,0-.13l-.2-.07c-.08,0-.09,0-.11.08a1,1,0,0,1-.09.22l-.25-.26s.3-.19.3-.5a.5.5,0,0,0-.55-.47.51.51,0,0,0-.56.46.56.56,0,0,0,.18.4l.06.06h0a.65.65,0,0,0-.38.56.57.57,0,0,0,.62.53.82.82,0,0,0,.61-.22l.18.18a.09.09,0,0,0,.13,0l.16-.16c.07-.07,0-.1,0-.13"/><path class="cls-31" d="M469.29,90.11h-1.16a.05.05,0,0,0-.05.05V92a.05.05,0,0,0,.05.05h1.16a.05.05,0,0,0,.05-.05v-.31a.05.05,0,0,0-.05-.05h-.78v-.38h.64a.05.05,0,0,0,.05-.05v-.3a.06.06,0,0,0-.05-.05h-.64v-.35h.78a.05.05,0,0,0,.05-.05v-.31a.05.05,0,0,0-.05-.05"/><path class="cls-31" d="M471.57,90.11h-.34a.05.05,0,0,0-.05.05v1h0l-1.08-1s0,0-.07,0h0a.05.05,0,0,0-.05.05V92a.05.05,0,0,0,.05.05h.33a.05.05,0,0,0,.05-.05V91h0l1.09,1.1a.09.09,0,0,0,.07,0h0a0,0,0,0,0,.05-.05V90.16a.05.05,0,0,0-.05-.05"/><path class="cls-31" d="M473.38,90.11h-1.25a.05.05,0,0,0-.05.05v.31a.05.05,0,0,0,.05.05h.4V92a.05.05,0,0,0,.05.05h.34A.06.06,0,0,0,473,92v-1.5h.4a.05.05,0,0,0,.05-.05v-.31a.05.05,0,0,0-.05-.05"/><path class="cls-31" d="M475.11,90.11H474a.05.05,0,0,0-.05.05V92a.05.05,0,0,0,.05.05h1.16a.05.05,0,0,0,.05-.05v-.31a.05.05,0,0,0-.05-.05h-.78v-.38H475a.05.05,0,0,0,.05-.05v-.3a.06.06,0,0,0-.05-.05h-.64v-.35h.78a.05.05,0,0,0,.05-.05v-.31a.05.05,0,0,0-.05-.05"/><path class="cls-31" d="M476.61,90.95h-.42v-.44h.42a.21.21,0,0,1,.21.21.22.22,0,0,1-.21.22m.65-.23a.6.6,0,0,0-.61-.61h-.84a.05.05,0,0,0-.05.05V92a.05.05,0,0,0,.05.05h.33a.06.06,0,0,0,.05-.05V91.3h.19l.37.74a.05.05,0,0,0,0,0h.37a.05.05,0,0,0,0-.08l-.38-.71a.59.59,0,0,0,.42-.56"/><path class="cls-31" d="M479,90.11h-1.25a.05.05,0,0,0-.05.05v.31a.05.05,0,0,0,.05.05h.4V92a.05.05,0,0,0,.05.05h.34a.06.06,0,0,0,.05-.05v-1.5h.4a.05.05,0,0,0,.05-.05v-.31a.05.05,0,0,0-.05-.05"/><path class="cls-31" d="M479.87,91.4l.21-.46h0l.21.46Zm.28-1.29a.06.06,0,0,0,0,0h0a.06.06,0,0,0,0,0L479.14,92a0,0,0,0,0,0,.07h.31a.11.11,0,0,0,.1-.07l.1-.23h.76l.1.22c0,.05,0,.07.1.07H481a0,0,0,0,0,0-.07Z"/><path class="cls-31" d="M481.85,90.11h-.34a.05.05,0,0,0-.05.05V92a.05.05,0,0,0,.05.05h.34a.05.05,0,0,0,.05-.05V90.16a.05.05,0,0,0-.05-.05"/><path class="cls-31" d="M484.19,90.11h-.34a.05.05,0,0,0-.05.05v1h0l-1.08-1s0,0-.07,0h0a.05.05,0,0,0-.05.05V92a.05.05,0,0,0,.05.05h.33A.05.05,0,0,0,483,92V91h0l1.09,1.1a.09.09,0,0,0,.07,0h0a0,0,0,0,0,.05-.05V90.16a.05.05,0,0,0-.05-.05"/><path class="cls-31" d="M486.64,90.08h0a.06.06,0,0,0,0,0l-.65,1.21h0l-.65-1.21a.06.06,0,0,0,0,0h0a.05.05,0,0,0-.05,0L484.78,92a.05.05,0,0,0,.05.06h.33a.06.06,0,0,0,.05,0l.12-.87h0l.47.91a.06.06,0,0,0,0,0h.05a.06.06,0,0,0,0,0l.47-.91h0l.13.87a.06.06,0,0,0,.05,0H487A.05.05,0,0,0,487,92l-.32-1.88a.05.05,0,0,0,0,0"/><path class="cls-31" d="M488.76,90.11H487.6a.05.05,0,0,0-.05.05V92a.05.05,0,0,0,.05.05h1.16a.05.05,0,0,0,.05-.05v-.31a.05.05,0,0,0-.05-.05H488v-.38h.64a.05.05,0,0,0,.05-.05v-.3a.06.06,0,0,0-.05-.05H488v-.35h.78a.05.05,0,0,0,.05-.05v-.31a.05.05,0,0,0-.05-.05"/><path class="cls-31" d="M491,90.11h-.34a.05.05,0,0,0-.05.05v1h0l-1.08-1s0,0-.07,0h0a.05.05,0,0,0-.05.05V92a.05.05,0,0,0,.05.05h.33a.05.05,0,0,0,.05-.05V91h0l1.09,1.1a.09.09,0,0,0,.07,0h0a0,0,0,0,0,.05-.05V90.16a.05.05,0,0,0-.05-.05"/><path class="cls-31" d="M492.85,90.11h-1.25a.05.05,0,0,0-.05.05v.31a.05.05,0,0,0,.05.05h.4V92a.05.05,0,0,0,.05.05h.34a.06.06,0,0,0,.05-.05v-1.5h.4a.05.05,0,0,0,.05-.05v-.31a.05.05,0,0,0-.05-.05"/><path class="cls-31" d="M452.64,70.61a.8.8,0,0,0,.78-.8.78.78,0,0,0-.78-.76h-1.28v1.56Zm-2.31-2.35a.15.15,0,0,1,.15-.15h2.24a1.7,1.7,0,0,1,1.71,1.69,1.73,1.73,0,0,1-1.16,1.58l1.08,2a.15.15,0,0,1-.13.23h-.82a.13.13,0,0,1-.12-.07l-1-2.08h-.87v2a.15.15,0,0,1-.15.15h-.72a.15.15,0,0,1-.15-.15Z"/><path class="cls-31" d="M462.19,68.26a.15.15,0,0,1,.15-.15h3.19a.15.15,0,0,1,.15.15v.64a.15.15,0,0,1-.15.15h-2.32v1.29h1.94a.15.15,0,0,1,.15.15v.65a.15.15,0,0,1-.15.15h-1.94v1.37h2.32a.15.15,0,0,1,.15.15v.64a.15.15,0,0,1-.15.15h-3.19a.15.15,0,0,1-.15-.15Z"/><path class="cls-31" d="M475.79,68a2.66,2.66,0,0,1,1.9.73.15.15,0,0,1,0,.22l-.48.49a.13.13,0,0,1-.2,0,1.86,1.86,0,0,0-1.21-.46,1.82,1.82,0,0,0,0,3.64,1.88,1.88,0,0,0,1.2-.45.14.14,0,0,1,.2,0l.49.5a.15.15,0,0,1,0,.21,2.69,2.69,0,0,1-1.91.76,2.82,2.82,0,1,1,0-5.65"/><path class="cls-31" d="M452.64,82.14a.8.8,0,0,0,.78-.8.78.78,0,0,0-.78-.76h-1.28v1.56Zm-2.31-2.35a.15.15,0,0,1,.15-.15h2.24a1.7,1.7,0,0,1,1.71,1.69,1.73,1.73,0,0,1-1.16,1.58l1.08,2a.15.15,0,0,1-.13.23h-.82a.13.13,0,0,1-.12-.07l-1-2.08h-.87v2a.15.15,0,0,1-.15.15h-.72a.15.15,0,0,1-.15-.15Z"/><path class="cls-31" d="M463.78,84.18a1.8,1.8,0,1,0-1.8-1.8,1.81,1.81,0,0,0,1.8,1.8m0-4.63A2.82,2.82,0,1,1,461,82.39a2.82,2.82,0,0,1,2.82-2.83"/><path class="cls-31" d="M475.31,84.18a1.8,1.8,0,1,0-1.8-1.8,1.81,1.81,0,0,0,1.8,1.8m0-4.63a2.82,2.82,0,1,1-2.82,2.83,2.82,2.82,0,0,1,2.82-2.83"/></g><path class="cls-31" d="M446.73,76.19h11v-11h-11Zm11.53.48h-12v-12h12Z"/><path class="cls-31" d="M469.79,64.66h11v-11h-11Zm11.53.48h-12v-12h12Z"/><path class="cls-31" d="M458.26,76.19h11v-11h-11Zm11.53.48h-12v-12h12Z"/><path class="cls-31" d="M469.79,76.19h11v-11h-11Zm11.53.48h-12v-12h12Z"/><path class="cls-31" d="M446.73,87.72h11v-11h-11Zm11.53.48h-12v-12h12Z"/><path class="cls-31" d="M458.26,87.72h11v-11h-11Zm11.53.48h-12v-12h12Z"/><path class="cls-31" d="M469.79,87.72h11v-11h-11Zm11.53.48h-12v-12h12Z"/><path class="cls-31" d="M481.31,87.72h11v-11h-11Zm11.53.48h-12v-12h12Z"/><g class="cls-2"><path class="cls-31" d="M484.7,79.67a.13.13,0,0,1,.14-.12H485a.14.14,0,0,1,.13.08l1.73,3.7h0l1.73-3.7a.14.14,0,0,1,.13-.08h.13a.13.13,0,0,1,.14.12l.93,5.27a.14.14,0,0,1-.14.18H489a.17.17,0,0,1-.15-.12l-.46-3h0L487,85.12a.13.13,0,0,1-.13.09h-.14a.14.14,0,0,1-.13-.09L485.24,82h0l-.45,3a.15.15,0,0,1-.14.12h-.71a.14.14,0,0,1-.15-.18Z"/><path class="cls-31" d="M473.42,58.77h-.37a0,0,0,0,1,0,0v-.28a0,0,0,0,1,0,0h1.14a0,0,0,0,1,0,0v.28a0,0,0,0,1,0,0h-.37v1.37a.05.05,0,0,1,0,0h-.31a.05.05,0,0,1,0,0Z"/><path class="cls-31" d="M474.47,58.44a.05.05,0,0,1,0,0h.3a0,0,0,0,1,0,0v.65h.73v-.65a0,0,0,0,1,0,0h.3a.05.05,0,0,1,0,0v1.7a.05.05,0,0,1,0,0h-.3a0,0,0,0,1,0,0v-.68h-.73v.68a0,0,0,0,1,0,0h-.3a.05.05,0,0,1,0,0Z"/><path class="cls-31" d="M476.41,58.44a0,0,0,0,1,0,0h1.06a0,0,0,0,1,0,0v.28a0,0,0,0,1,0,0h-.71v.32h.58a.05.05,0,0,1,0,0v.28a0,0,0,0,1,0,0h-.58v.35h.71a0,0,0,0,1,0,0v.28a0,0,0,0,1,0,0h-1.06a0,0,0,0,1,0,0Z"/><path class="cls-31" d="M494.28,76.71a.51.51,0,0,0-1,0,.5.5,0,0,0,.15.37.51.51,0,0,0,.73,0,.5.5,0,0,0,.15-.37m-.07,0a.43.43,0,0,1-.13.31.43.43,0,0,1-.31.13.42.42,0,0,1-.31-.13.42.42,0,0,1-.13-.31.43.43,0,0,1,.13-.31.44.44,0,0,1,.63,0,.43.43,0,0,1,.13.31"/><path class="cls-31" d="M493.79,76.7a.1.1,0,0,0,.1-.1.1.1,0,0,0-.1-.1h-.14v.2Zm-.23-.26h.23a.17.17,0,0,1,.18.17.18.18,0,0,1-.12.16L494,77a0,0,0,0,1,0,0h-.08l-.11-.21h-.12V77h-.08Z"/></g><rect class="cls-28" x="267.7" y="160" width="252" height="144"/><text class="cls-32" transform="translate(289.9 187.94)">T</text><text class="cls-32" transform="translate(302.96 187.94)">R</text><text class="cls-32" transform="translate(316.78 187.94)">E</text><text class="cls-32" transform="translate(329.81 187.94)">C</text><text class="cls-32" transform="translate(343.05 187.94)">N</text><text class="cls-32" transform="translate(356.4 187.94)">O</text><text class="cls-32" transform="translate(370.35 187.94)">C</text><text class="cls-32" transform="translate(384.44 187.94)">S</text><text class="cls-32" transform="translate(289.38 201.48)">A</text><text class="cls-32" transform="translate(302.59 201.48)">N</text><text class="cls-32" transform="translate(316.91 201.48)">S</text><text class="cls-32" transform="translate(330.09 201.48)">B</text><text class="cls-32" transform="translate(343.18 201.48)">G</text><text class="cls-32" transform="translate(357.24 201.48)">E</text><text class="cls-32" transform="translate(370.46 201.48)">A</text><text class="cls-32" transform="translate(384.51 201.48)">T</text><text class="cls-32" transform="translate(289.43 215.01)">R</text><text class="cls-32" transform="translate(303.24 215.01)">E</text><text class="cls-32" transform="translate(317.79 215.01)">I</text><text class="cls-32" transform="translate(330.08 215.01)">K</text><text class="cls-32" transform="translate(343.71 215.01)">E</text><text class="cls-32" transform="translate(356.58 215.01)">N</text><text class="cls-32" transform="translate(371.04 215.01)">L</text><text class="cls-32" transform="translate(384.04 215.01)">R</text><text class="cls-32" transform="translate(289.82 228.55)">Y</text><text class="cls-32" transform="translate(303.09 228.55)">B</text><text class="cls-32" transform="translate(316.36 228.55)">C</text><text class="cls-32" transform="translate(329.16 228.55)">W</text><text class="cls-32" transform="translate(343.05 228.55)">N</text><text class="cls-32" transform="translate(357.24 228.55)">E</text><text class="cls-32" transform="translate(371.8 228.55)">I</text><text class="cls-32" transform="translate(383.48 228.55)">O</text><text class="cls-32" transform="translate(289.14 242.09)">D</text><text class="cls-32" transform="translate(302.41 242.09)">O</text><text class="cls-32" transform="translate(315.95 242.09)">O</text><text class="cls-32" transform="translate(330.31 242.09)">F</text><text class="cls-32" transform="translate(343.29 242.09)">C</text><text class="cls-32" transform="translate(358.27 242.09)">I</text><text class="cls-32" transform="translate(370.51 242.09)">R</text><text class="cls-32" transform="translate(384.27 242.09)">P</text><text class="cls-32" transform="translate(289.44 255.63)">R</text><text class="cls-32" transform="translate(302.17 255.63)">W</text><text class="cls-32" transform="translate(316.27 255.63)">G</text><text class="cls-32" transform="translate(329.6 255.63)">N</text><text class="cls-32" transform="translate(342.88 255.63)">O</text><text class="cls-32" transform="translate(357.2 255.63)">P</text><text class="cls-32" transform="translate(370.52 255.63)">R</text><text class="cls-32" transform="translate(384.46 255.63)">S</text><text class="cls-32" transform="translate(289.67 269.17)">P</text><text class="cls-32" transform="translate(303.52 269.17)">L</text><text class="cls-32" transform="translate(316.48 269.17)">A</text><text class="cls-32" transform="translate(330.38 269.17)">Y</text><text class="cls-32" transform="translate(343.2 269.17)">G</text><text class="cls-32" transform="translate(356.23 269.17)">M</text><text class="cls-32" transform="translate(369.96 269.17)">O</text><text class="cls-32" transform="translate(383.77 269.17)">D</text><text class="cls-32" transform="translate(289.92 282.7)">T</text><text class="cls-32" transform="translate(302.69 282.7)">D</text><text class="cls-32" transform="translate(315.71 282.7)">W</text><text class="cls-32" transform="translate(329.94 282.7)">A</text><text class="cls-32" transform="translate(343.87 282.7)">Z</text><text class="cls-32" transform="translate(357.41 282.7)">Z</text><text class="cls-32" transform="translate(371.81 282.7)">I</text><text class="cls-32" transform="translate(384.28 282.7)">P</text><g class="cls-2"><path class="cls-31" d="M385.63,278.64a2.56,2.56,0,0,1,.57,0c.67,0,1.11.3,1.11.92s-.45,1-1.18,1a2,2,0,0,1-.5,0Zm-.61,4.22h.61V281a2.1,2.1,0,0,0,.49,0,2,2,0,0,0,1.44-.52,1.39,1.39,0,0,0,.36-1,1.27,1.27,0,0,0-.41-1,1.94,1.94,0,0,0-1.32-.39,7,7,0,0,0-1.17.09Z"/></g><rect class="cls-31" x="372.51" y="278.15" width="0.61" height="4.72"/><polygon class="cls-31" points="357.56 282.87 361 282.87 361 282.36 358.36 282.36 358.36 282.33 360.96 278.52 360.96 278.15 357.78 278.15 357.78 278.66 360.17 278.66 360.17 278.68 357.56 282.51 357.56 282.87"/><polygon class="cls-31" points="344.02 282.87 347.46 282.87 347.46 282.36 344.82 282.36 344.82 282.33 347.43 278.52 347.43 278.15 344.24 278.15 344.24 278.66 346.64 278.66 346.64 278.68 344.02 282.51 344.02 282.87"/><g class="cls-2"><path class="cls-31" d="M331.56,280.91l.46-1.36c.09-.29.17-.58.24-.86h0c.07.27.14.55.24.86l.46,1.36Zm1.55.47.5,1.48h.65l-1.61-4.72h-.73l-1.6,4.72h.63l.49-1.48Z"/><path class="cls-31" d="M317.79,282.86l.67-2.46a14.74,14.74,0,0,0,.36-1.54h0a14.21,14.21,0,0,0,.31,1.54l.6,2.46h.64l1.34-4.72h-.62l-.62,2.38c-.15.59-.28,1.11-.38,1.63h0c-.07-.5-.2-1.06-.33-1.62l-.57-2.39h-.64l-.63,2.38c-.16.61-.31,1.17-.39,1.64h0c-.08-.45-.21-1-.35-1.63l-.56-2.39H316l1.2,4.72Z"/><path class="cls-31" d="M304.09,278.66a3.46,3.46,0,0,1,.71-.06,1.68,1.68,0,0,1,1.91,1.82,1.81,1.81,0,0,1-2,2,3.85,3.85,0,0,1-.62,0Zm-.61,4.19a9.81,9.81,0,0,0,1.1.06,2.91,2.91,0,0,0,2.09-.68,2.5,2.5,0,0,0,.68-1.83,2.18,2.18,0,0,0-.66-1.69,2.7,2.7,0,0,0-1.91-.59,8.7,8.7,0,0,0-1.29.1Z"/></g><polygon class="cls-31" points="291.43 282.87 292.05 282.87 292.05 278.67 293.49 278.67 293.49 278.15 290 278.15 290 278.67 291.43 278.67 291.43 282.87"/><g class="cls-2"><path class="cls-31" d="M385.16,265.12a3.46,3.46,0,0,1,.71-.06,1.68,1.68,0,0,1,1.91,1.82,1.81,1.81,0,0,1-2,2,3.85,3.85,0,0,1-.62,0Zm-.61,4.19a9.81,9.81,0,0,0,1.1.06,2.91,2.91,0,0,0,2.09-.68,2.5,2.5,0,0,0,.68-1.83,2.18,2.18,0,0,0-.66-1.69,2.7,2.7,0,0,0-1.91-.59,8.7,8.7,0,0,0-1.29.1Z"/><path class="cls-31" d="M372.82,265c1,0,1.51,1,1.51,1.92s-.55,2-1.51,2-1.51-.9-1.51-1.91.5-2,1.51-2m0-.5a2.24,2.24,0,0,0-2.19,2.48,2.16,2.16,0,0,0,2.12,2.39,2.21,2.21,0,0,0,2.19-2.48,2.15,2.15,0,0,0-2.12-2.39"/><path class="cls-31" d="M361.09,269.33h.59l-.29-4.72h-.78l-.84,2.28c-.21.6-.38,1.11-.5,1.59h0c-.12-.49-.28-1-.48-1.59l-.8-2.28h-.78l-.33,4.72h.58l.13-2c0-.71.08-1.5.09-2.09h0c.13.56.32,1.17.55,1.83l.76,2.25h.46l.83-2.29c.24-.65.43-1.24.6-1.79h0c0,.59,0,1.38.07,2Z"/><path class="cls-31" d="M347.61,266.85h-1.55v.49h1v1.41a2,2,0,0,1-.81.13,1.73,1.73,0,0,1-1.82-1.9,1.77,1.77,0,0,1,1.9-1.9,2.44,2.44,0,0,1,1,.2l.15-.5a2.91,2.91,0,0,0-1.17-.22,2.37,2.37,0,0,0-2.56,2.44,2.21,2.21,0,0,0,2.42,2.38,4.42,4.42,0,0,0,1.45-.26Z"/><path class="cls-31" d="M332.58,269.33v-2l1.58-2.71h-.69l-.68,1.3c-.18.36-.34.66-.48,1h0c-.15-.33-.29-.62-.47-1l-.67-1.3h-.69l1.49,2.72v2Z"/><path class="cls-31" d="M318.09,267.37l.46-1.36c.09-.29.17-.58.24-.86h0c.07.27.14.55.24.86l.46,1.36Zm1.55.47.5,1.48h.65l-1.61-4.72h-.73l-1.6,4.72h.63l.49-1.48Z"/></g><polygon class="cls-31" points="304.16 269.33 306.78 269.33 306.78 268.82 304.77 268.82 304.77 264.61 304.16 264.61 304.16 269.33"/><g class="cls-2"><path class="cls-31" d="M291,265.11a2.56,2.56,0,0,1,.57,0c.67,0,1.11.3,1.11.92s-.45,1-1.18,1a2,2,0,0,1-.5,0Zm-.61,4.22H291v-1.89a2.1,2.1,0,0,0,.49,0A2,2,0,0,0,293,267a1.39,1.39,0,0,0,.36-1,1.27,1.27,0,0,0-.41-1,1.94,1.94,0,0,0-1.32-.39,7,7,0,0,0-1.17.09Z"/><path class="cls-31" d="M384.92,255.56a2.43,2.43,0,0,0,1.2.3c1.11,0,1.65-.63,1.65-1.36s-.4-1.08-1.2-1.39-.94-.47-.94-.91.24-.71.89-.71a1.87,1.87,0,0,1,.9.22l.17-.5a2.14,2.14,0,0,0-1-.23,1.36,1.36,0,0,0-1.53,1.28c0,.66.48,1.06,1.25,1.34s.89.5.89.94-.36.81-1,.81a2.15,2.15,0,0,1-1.09-.31Z"/><path class="cls-31" d="M372.07,251.56a2.51,2.51,0,0,1,.6-.06c.64,0,1.09.27,1.09.88s-.41.9-1.07.9h-.62Zm-.61,4.23h.61v-2h.57c.55,0,.81.27.95.92a6.11,6.11,0,0,0,.32,1.13h.63a7.51,7.51,0,0,1-.36-1.29,1.17,1.17,0,0,0-.69-1v0a1.24,1.24,0,0,0,.89-1.2,1.18,1.18,0,0,0-.37-.9,1.94,1.94,0,0,0-1.37-.38,6.33,6.33,0,0,0-1.17.1Z"/><path class="cls-31" d="M358.56,251.57a2.56,2.56,0,0,1,.57,0c.67,0,1.11.3,1.11.92s-.45,1-1.18,1a2,2,0,0,1-.5,0Zm-.61,4.22h.61V253.9a2.1,2.1,0,0,0,.49,0,2,2,0,0,0,1.44-.52,1.39,1.39,0,0,0,.36-1,1.27,1.27,0,0,0-.41-1,1.94,1.94,0,0,0-1.32-.39,7,7,0,0,0-1.17.09Z"/><path class="cls-31" d="M345.75,251.49c1,0,1.51,1,1.51,1.92s-.55,2-1.51,2-1.51-.9-1.51-1.91.5-2,1.51-2m0-.5a2.24,2.24,0,0,0-2.19,2.48,2.16,2.16,0,0,0,2.12,2.39,2.21,2.21,0,0,0,2.19-2.48,2.15,2.15,0,0,0-2.12-2.39"/><path class="cls-31" d="M331.08,255.79v-2c0-.78,0-1.35,0-1.95h0a15,15,0,0,0,.88,1.58l1.5,2.39h.61v-4.72h-.57v2c0,.74,0,1.31.07,1.94h0a13.35,13.35,0,0,0-.85-1.53l-1.51-2.39h-.66v4.72Z"/><path class="cls-31" d="M320.68,253.32h-1.55v.49h1v1.41a2,2,0,0,1-.81.13,1.73,1.73,0,0,1-1.82-1.9,1.77,1.77,0,0,1,1.9-1.9,2.44,2.44,0,0,1,1,.2l.15-.5a2.91,2.91,0,0,0-1.17-.22,2.37,2.37,0,0,0-2.56,2.44,2.21,2.21,0,0,0,2.42,2.38,4.42,4.42,0,0,0,1.45-.26Z"/><path class="cls-31" d="M304.26,255.79l.67-2.46a14.74,14.74,0,0,0,.36-1.54h0a14.21,14.21,0,0,0,.31,1.54l.6,2.46h.64l1.34-4.72h-.62l-.62,2.38c-.15.59-.28,1.11-.38,1.63h0c-.07-.5-.2-1.06-.33-1.62l-.57-2.39H305l-.63,2.38c-.16.61-.31,1.17-.39,1.64h0c-.08-.46-.21-1-.35-1.63l-.56-2.39h-.64l1.2,4.72Z"/><path class="cls-31" d="M291,251.56a2.51,2.51,0,0,1,.6-.06c.64,0,1.09.27,1.09.88s-.41.9-1.07.9H291Zm-.61,4.23H291v-2h.57c.55,0,.81.27.95.92a6.11,6.11,0,0,0,.32,1.13h.63a7.51,7.51,0,0,1-.36-1.29,1.17,1.17,0,0,0-.69-1v0a1.24,1.24,0,0,0,.89-1.2,1.18,1.18,0,0,0-.37-.9,1.94,1.94,0,0,0-1.37-.38,6.33,6.33,0,0,0-1.17.1Z"/><path class="cls-31" d="M385.63,238a2.56,2.56,0,0,1,.57,0c.67,0,1.11.3,1.11.92s-.45,1-1.18,1a2,2,0,0,1-.5,0Zm-.61,4.22h.61v-1.89a2.1,2.1,0,0,0,.49,0,2,2,0,0,0,1.44-.52,1.39,1.39,0,0,0,.36-1,1.27,1.27,0,0,0-.41-1,1.94,1.94,0,0,0-1.32-.39,7,7,0,0,0-1.17.09Z"/><path class="cls-31" d="M372.07,238a2.51,2.51,0,0,1,.6-.06c.64,0,1.09.27,1.09.88s-.41.9-1.07.9h-.62Zm-.61,4.23h.61v-2h.57c.55,0,.81.27.95.92a6.11,6.11,0,0,0,.32,1.13h.63a7.51,7.51,0,0,1-.36-1.29,1.17,1.17,0,0,0-.69-1v0a1.24,1.24,0,0,0,.89-1.2,1.18,1.18,0,0,0-.37-.9,1.94,1.94,0,0,0-1.37-.38,6.33,6.33,0,0,0-1.17.1Z"/></g><rect class="cls-31" x="358.98" y="237.54" width="0.61" height="4.72"/><g class="cls-2"><path class="cls-31" d="M347.42,241.62a2.44,2.44,0,0,1-1,.2,1.71,1.71,0,0,1-1.81-1.9,1.75,1.75,0,0,1,1.84-1.95,2.22,2.22,0,0,1,1,.2l.15-.5a2.53,2.53,0,0,0-1.12-.21,2.35,2.35,0,0,0-2.46,2.48,2.2,2.2,0,0,0,2.33,2.39,3,3,0,0,0,1.25-.22Z"/></g><polygon class="cls-31" points="331.11 242.26 331.72 242.26 331.72 240.12 333.5 240.12 333.5 239.62 331.72 239.62 331.72 238.05 333.65 238.05 333.65 237.54 331.11 237.54 331.11 242.26"/><g class="cls-2"><path class="cls-31" d="M318.82,238c1,0,1.51,1,1.51,1.92s-.55,2-1.51,2-1.51-.9-1.51-1.91.5-2,1.51-2m0-.5a2.24,2.24,0,0,0-2.19,2.48,2.16,2.16,0,0,0,2.12,2.39,2.21,2.21,0,0,0,2.19-2.48,2.15,2.15,0,0,0-2.12-2.39"/><path class="cls-31" d="M305.28,238c1,0,1.51,1,1.51,1.92s-.55,2-1.51,2-1.51-.9-1.51-1.91.5-2,1.51-2m0-.5a2.24,2.24,0,0,0-2.19,2.48,2.16,2.16,0,0,0,2.12,2.39,2.21,2.21,0,0,0,2.19-2.48,2.15,2.15,0,0,0-2.12-2.39"/><path class="cls-31" d="M290.55,238a3.46,3.46,0,0,1,.71-.06,1.68,1.68,0,0,1,1.91,1.82,1.81,1.81,0,0,1-2,2,3.85,3.85,0,0,1-.62,0Zm-.61,4.19a9.81,9.81,0,0,0,1.1.06,2.91,2.91,0,0,0,2.09-.68,2.5,2.5,0,0,0,.68-1.83,2.18,2.18,0,0,0-.66-1.69,2.7,2.7,0,0,0-1.91-.59,8.7,8.7,0,0,0-1.29.1Z"/><path class="cls-31" d="M386.36,224.42c1,0,1.51,1,1.51,1.92s-.55,2-1.51,2-1.51-.9-1.51-1.91.5-2,1.51-2m0-.5a2.24,2.24,0,0,0-2.19,2.48,2.16,2.16,0,0,0,2.12,2.39,2.21,2.21,0,0,0,2.19-2.48,2.15,2.15,0,0,0-2.12-2.39"/></g><rect class="cls-31" x="372.51" y="224" width="0.61" height="4.72"/><polygon class="cls-31" points="360.53 226 358.7 226 358.7 224.51 360.64 224.51 360.64 224 358.09 224 358.09 228.72 360.74 228.72 360.74 228.21 358.7 228.21 358.7 226.51 360.53 226.51 360.53 226"/><g class="cls-2"><path class="cls-31" d="M344.55,228.72v-2c0-.78,0-1.35,0-1.95h0a15,15,0,0,0,.88,1.57l1.5,2.39h.61V224h-.57v2c0,.74,0,1.31.07,1.94h0a13.35,13.35,0,0,0-.85-1.53L344.64,224H344v4.72Z"/><path class="cls-31" d="M331.26,228.72l.67-2.46a14.74,14.74,0,0,0,.36-1.54h0a14.21,14.21,0,0,0,.31,1.54l.6,2.46h.64l1.34-4.72h-.62l-.62,2.38c-.15.59-.28,1.11-.38,1.63h0c-.07-.5-.2-1.06-.33-1.62l-.57-2.39H332l-.63,2.38c-.16.61-.31,1.17-.39,1.64h0c-.08-.46-.21-1-.35-1.63l-.56-2.39h-.64l1.2,4.72Z"/><path class="cls-31" d="M320.49,228.08a2.44,2.44,0,0,1-1,.2,1.71,1.71,0,0,1-1.81-1.9,1.75,1.75,0,0,1,1.84-1.95,2.22,2.22,0,0,1,1,.2l.15-.5a2.53,2.53,0,0,0-1.12-.21A2.35,2.35,0,0,0,317,226.4a2.2,2.2,0,0,0,2.33,2.39,3,3,0,0,0,1.25-.22Z"/><path class="cls-31" d="M304.52,226.46h.5c.67,0,1.22.27,1.22.91s-.58.92-1.21.92a3.25,3.25,0,0,1-.51,0Zm0-2a2.61,2.61,0,0,1,.54,0c.62,0,1,.22,1,.77s-.38.79-1,.79h-.55Zm-.61,4.23a7.1,7.1,0,0,0,.94.06,2.38,2.38,0,0,0,1.63-.44,1.28,1.28,0,0,0,.4-.95,1.22,1.22,0,0,0-1-1.18h0a1.12,1.12,0,0,0,.8-1,1,1,0,0,0-.39-.83A2,2,0,0,0,305,224a5.89,5.89,0,0,0-1.11.1Z"/><path class="cls-31" d="M292,228.72v-2l1.58-2.71h-.69l-.68,1.3c-.18.36-.34.66-.48,1h0c-.15-.33-.29-.62-.47-1l-.67-1.3h-.69l1.49,2.71v2Z"/><path class="cls-31" d="M385.61,211a2.51,2.51,0,0,1,.6-.06c.64,0,1.09.27,1.09.88s-.41.9-1.07.9h-.62Zm-.61,4.23h.61v-2h.57c.55,0,.81.27.95.92a6.11,6.11,0,0,0,.32,1.13h.63a7.51,7.51,0,0,1-.36-1.29,1.17,1.17,0,0,0-.69-1v0a1.24,1.24,0,0,0,.89-1.2,1.18,1.18,0,0,0-.37-.9,1.94,1.94,0,0,0-1.37-.38,6.33,6.33,0,0,0-1.17.1Z"/></g><polygon class="cls-31" points="371.7 215.19 374.32 215.19 374.32 214.68 372.3 214.68 372.3 210.47 371.7 210.47 371.7 215.19"/><g class="cls-2"><path class="cls-31" d="M358.08,215.18v-2c0-.78,0-1.35,0-1.95h0a15,15,0,0,0,.88,1.57l1.5,2.39h.61v-4.72h-.57v2c0,.74,0,1.31.07,1.94h0a13.35,13.35,0,0,0-.85-1.53l-1.51-2.39h-.66v4.72Z"/></g><polygon class="cls-31" points="347 212.47 345.16 212.47 345.16 210.98 347.1 210.98 347.1 210.47 344.56 210.47 344.56 215.19 347.21 215.19 347.21 214.67 345.16 214.67 345.16 212.97 347 212.97 347 212.47"/><g class="cls-2"><path class="cls-31" d="M330.92,215.18h.61v-1.8l.45-.52,1.55,2.32h.72l-1.84-2.71,1.71-2h-.76l-1.44,1.77c-.12.15-.25.32-.37.5h0v-2.27h-.61Z"/></g><rect class="cls-31" x="318.51" y="210.47" width="0.61" height="4.72"/><polygon class="cls-31" points="306.53 212.47 304.7 212.47 304.7 210.98 306.64 210.98 306.64 210.47 304.09 210.47 304.09 215.19 306.74 215.19 306.74 214.67 304.7 214.67 304.7 212.97 306.53 212.97 306.53 212.47"/><g class="cls-2"><path class="cls-31" d="M291,211a2.51,2.51,0,0,1,.6-.06c.64,0,1.09.27,1.09.88s-.41.9-1.07.9H291Zm-.61,4.23H291v-2h.57c.55,0,.81.27.95.92a6.11,6.11,0,0,0,.32,1.13h.63a7.51,7.51,0,0,1-.36-1.29,1.17,1.17,0,0,0-.69-1v0a1.24,1.24,0,0,0,.89-1.2,1.18,1.18,0,0,0-.37-.9,1.94,1.94,0,0,0-1.37-.38,6.33,6.33,0,0,0-1.17.1Z"/></g><polygon class="cls-31" points="386.04 201.65 386.66 201.65 386.66 197.45 388.1 197.45 388.1 196.93 384.61 196.93 384.61 197.45 386.04 197.45 386.04 201.65"/><g class="cls-2"><path class="cls-31" d="M372.09,199.69l.46-1.36c.09-.29.17-.57.24-.86h0c.07.27.14.55.24.86l.46,1.36Zm1.55.47.5,1.48h.65l-1.61-4.72h-.73l-1.6,4.72h.63l.49-1.48Z"/></g><polygon class="cls-31" points="360.53 198.93 358.7 198.93 358.7 197.44 360.64 197.44 360.64 196.93 358.09 196.93 358.09 201.65 360.74 201.65 360.74 201.14 358.7 201.14 358.7 199.44 360.53 199.44 360.53 198.93"/><g class="cls-2"><path class="cls-31" d="M347.61,199.17h-1.55v.49h1v1.41a2,2,0,0,1-.81.13,1.73,1.73,0,0,1-1.82-1.9,1.77,1.77,0,0,1,1.9-1.9,2.44,2.44,0,0,1,1,.2l.15-.5a2.91,2.91,0,0,0-1.17-.22,2.37,2.37,0,0,0-2.56,2.44,2.21,2.21,0,0,0,2.42,2.38,4.42,4.42,0,0,0,1.45-.26Z"/><path class="cls-31" d="M331.52,199.39h.5c.67,0,1.22.27,1.22.91s-.58.92-1.21.92a3.25,3.25,0,0,1-.51,0Zm0-2a2.61,2.61,0,0,1,.54,0c.62,0,1,.22,1,.77s-.38.79-1,.79h-.55Zm-.61,4.23a7.1,7.1,0,0,0,.94.06,2.38,2.38,0,0,0,1.63-.44,1.28,1.28,0,0,0,.4-.95,1.22,1.22,0,0,0-1-1.18h0a1.12,1.12,0,0,0,.8-1,1,1,0,0,0-.39-.83,2,2,0,0,0-1.3-.34,5.89,5.89,0,0,0-1.11.1Z"/><path class="cls-31" d="M317.39,201.42a2.43,2.43,0,0,0,1.2.3c1.11,0,1.65-.63,1.65-1.36s-.4-1.08-1.2-1.39-.94-.47-.94-.91.24-.71.89-.71a1.87,1.87,0,0,1,.9.22l.17-.5a2.14,2.14,0,0,0-1-.23,1.36,1.36,0,0,0-1.53,1.28c0,.67.48,1.06,1.24,1.34s.89.5.89.94-.36.81-1,.81a2.15,2.15,0,0,1-1.09-.31Z"/><path class="cls-31" d="M304.08,201.65v-2c0-.78,0-1.35,0-1.95h0a15,15,0,0,0,.88,1.57l1.5,2.39h.61v-4.72h-.57v2c0,.74,0,1.31.07,1.94h0a13.35,13.35,0,0,0-.85-1.53l-1.51-2.39h-.66v4.72Z"/><path class="cls-31" d="M291,199.69l.46-1.36c.09-.29.17-.57.24-.86h0c.07.27.14.55.24.86l.46,1.36Zm1.55.47.5,1.48h.65l-1.61-4.72h-.73l-1.6,4.72h.63l.49-1.48Z"/><path class="cls-31" d="M384.92,187.88a2.43,2.43,0,0,0,1.2.3c1.11,0,1.65-.63,1.65-1.36s-.4-1.08-1.2-1.39-.94-.47-.94-.91.24-.71.89-.71a1.87,1.87,0,0,1,.9.22l.17-.5a2.14,2.14,0,0,0-1-.23A1.36,1.36,0,0,0,385,184.6c0,.67.48,1.06,1.25,1.34s.89.5.89.94-.36.81-1,.81a2.15,2.15,0,0,1-1.09-.31Z"/><path class="cls-31" d="M374.49,187.48a2.44,2.44,0,0,1-1,.2,1.71,1.71,0,0,1-1.81-1.9,1.75,1.75,0,0,1,1.84-1.95,2.22,2.22,0,0,1,1,.2l.15-.5a2.53,2.53,0,0,0-1.12-.21A2.35,2.35,0,0,0,371,185.8a2.2,2.2,0,0,0,2.33,2.39,3,3,0,0,0,1.25-.22Z"/><path class="cls-31" d="M359.28,183.81c1,0,1.51,1,1.51,1.92s-.55,2-1.51,2-1.51-.9-1.51-1.91.5-2,1.51-2m0-.5a2.24,2.24,0,0,0-2.19,2.48,2.16,2.16,0,0,0,2.12,2.39,2.21,2.21,0,0,0,2.19-2.48,2.15,2.15,0,0,0-2.12-2.39"/><path class="cls-31" d="M344.55,188.11v-2c0-.78,0-1.35,0-1.95h0a15,15,0,0,0,.88,1.57l1.5,2.39h.61V183.4h-.57v2c0,.74,0,1.31.07,1.94h0a13.35,13.35,0,0,0-.85-1.53l-1.51-2.39H344v4.72Z"/><path class="cls-31" d="M334,187.48a2.44,2.44,0,0,1-1,.2,1.71,1.71,0,0,1-1.81-1.9,1.75,1.75,0,0,1,1.84-1.95,2.22,2.22,0,0,1,1,.2l.15-.5a2.53,2.53,0,0,0-1.12-.21,2.35,2.35,0,0,0-2.46,2.48,2.2,2.2,0,0,0,2.33,2.39,3,3,0,0,0,1.25-.22Z"/></g><polygon class="cls-31" points="320.07 185.4 318.24 185.4 318.24 183.91 320.17 183.91 320.17 183.4 317.63 183.4 317.63 188.11 320.28 188.11 320.28 187.6 318.24 187.6 318.24 185.9 320.07 185.9 320.07 185.4"/><g class="cls-2"><path class="cls-31" d="M304.54,183.88a2.51,2.51,0,0,1,.6-.06c.64,0,1.09.27,1.09.88s-.41.9-1.07.9h-.62Zm-.61,4.23h.61v-2h.57c.55,0,.81.27.95.92a6.11,6.11,0,0,0,.32,1.13H307a7.51,7.51,0,0,1-.36-1.29,1.17,1.17,0,0,0-.69-1v0a1.24,1.24,0,0,0,.89-1.2,1.18,1.18,0,0,0-.37-.9,1.94,1.94,0,0,0-1.37-.38,6.33,6.33,0,0,0-1.17.1Z"/></g><polygon class="cls-31" points="291.43 188.11 292.05 188.11 292.05 183.91 293.49 183.91 293.49 183.4 290 183.4 290 183.91 291.43 183.91 291.43 188.11"/><rect class="cls-28" x="535.39" y="0.3" width="252" height="144"/><g class="cls-2"><path class="cls-31" d="M556.29,24.06a.86.86,0,1,0-.86-.86.86.86,0,0,0,.86.86"/><path class="cls-31" d="M573.48,24.06a.86.86,0,1,0-.86-.86.86.86,0,0,0,.86.86"/><path class="cls-31" d="M590.67,24.06a.86.86,0,1,0-.86-.86.86.86,0,0,0,.86.86"/><path class="cls-31" d="M607.86,24.06a.86.86,0,1,0-.86-.86.86.86,0,0,0,.86.86"/><path class="cls-31" d="M625.05,24.06a.86.86,0,1,0-.86-.86.86.86,0,0,0,.86.86"/><path class="cls-31" d="M642.24,24.06a.86.86,0,1,0-.86-.86.86.86,0,0,0,.86.86"/><path class="cls-31" d="M659.43,24.06a.86.86,0,1,0-.86-.86.86.86,0,0,0,.86.86"/><path class="cls-31" d="M556.29,41.25a.86.86,0,1,0-.86-.86.86.86,0,0,0,.86.86"/><path class="cls-31" d="M573.48,41.25a.86.86,0,1,0-.86-.86.86.86,0,0,0,.86.86"/><path class="cls-31" d="M590.67,41.25a.86.86,0,1,0-.86-.86.86.86,0,0,0,.86.86"/><path class="cls-31" d="M607.86,41.25a.86.86,0,1,0-.86-.86.86.86,0,0,0,.86.86"/><path class="cls-31" d="M625.05,41.25a.86.86,0,1,0-.86-.86.86.86,0,0,0,.86.86"/><path class="cls-31" d="M642.24,41.25a.86.86,0,1,0-.86-.86.86.86,0,0,0,.86.86"/><path class="cls-31" d="M659.43,41.25a.86.86,0,1,0-.86-.86.86.86,0,0,0,.86.86"/><path class="cls-31" d="M556.29,58.44a.86.86,0,1,0-.86-.86.86.86,0,0,0,.86.86"/><path class="cls-31" d="M573.48,58.44a.86.86,0,1,0-.86-.86.86.86,0,0,0,.86.86"/><path class="cls-31" d="M590.67,58.44a.86.86,0,1,0-.86-.86.86.86,0,0,0,.86.86"/><path class="cls-31" d="M607.86,58.44a.86.86,0,1,0-.86-.86.86.86,0,0,0,.86.86"/><path class="cls-31" d="M625.05,58.44a.86.86,0,1,0-.86-.86.86.86,0,0,0,.86.86"/><path class="cls-31" d="M642.24,58.44a.86.86,0,1,0-.86-.86.86.86,0,0,0,.86.86"/><path class="cls-31" d="M659.43,58.44a.86.86,0,1,0-.86-.86.86.86,0,0,0,.86.86"/><path class="cls-31" d="M556.29,75.63a.86.86,0,1,0-.86-.86.86.86,0,0,0,.86.86"/><path class="cls-31" d="M573.48,75.63a.86.86,0,1,0-.86-.86.86.86,0,0,0,.86.86"/><path class="cls-31" d="M590.67,75.63a.86.86,0,1,0-.86-.86.86.86,0,0,0,.86.86"/><path class="cls-31" d="M607.86,75.63a.86.86,0,1,0-.86-.86.86.86,0,0,0,.86.86"/><path class="cls-31" d="M625.05,75.63a.86.86,0,1,0-.86-.86.86.86,0,0,0,.86.86"/><path class="cls-31" d="M642.24,75.63a.86.86,0,1,0-.86-.86.86.86,0,0,0,.86.86"/><path class="cls-31" d="M659.43,75.63a.86.86,0,1,0-.86-.86.86.86,0,0,0,.86.86"/><path class="cls-31" d="M556.29,92.82a.86.86,0,1,0-.86-.86.86.86,0,0,0,.86.86"/><path class="cls-31" d="M573.48,92.82a.86.86,0,1,0-.86-.86.86.86,0,0,0,.86.86"/><path class="cls-31" d="M590.67,92.82a.86.86,0,1,0-.86-.86.86.86,0,0,0,.86.86"/><path class="cls-31" d="M607.86,92.82A.86.86,0,1,0,607,92a.86.86,0,0,0,.86.86"/><path class="cls-31" d="M625.05,92.82a.86.86,0,1,0-.86-.86.86.86,0,0,0,.86.86"/><path class="cls-31" d="M642.24,92.82a.86.86,0,1,0-.86-.86.86.86,0,0,0,.86.86"/><path class="cls-31" d="M659.43,92.82a.86.86,0,1,0-.86-.86.86.86,0,0,0,.86.86"/><path class="cls-31" d="M556.29,110a.86.86,0,1,0-.86-.86.86.86,0,0,0,.86.86"/><path class="cls-31" d="M573.48,110a.86.86,0,1,0-.86-.86.86.86,0,0,0,.86.86"/><path class="cls-31" d="M590.67,110a.86.86,0,1,0-.86-.86.86.86,0,0,0,.86.86"/><path class="cls-31" d="M607.86,110a.86.86,0,1,0-.86-.86.86.86,0,0,0,.86.86"/><path class="cls-31" d="M625.05,110a.86.86,0,1,0-.86-.86.86.86,0,0,0,.86.86"/><path class="cls-31" d="M642.24,110a.86.86,0,1,0-.86-.86.86.86,0,0,0,.86.86"/><path class="cls-31" d="M659.43,110a.86.86,0,1,0-.86-.86.86.86,0,0,0,.86.86"/><path class="cls-31" d="M556.29,127.2a.86.86,0,1,0-.86-.86.86.86,0,0,0,.86.86"/><path class="cls-31" d="M573.48,127.2a.86.86,0,1,0-.86-.86.86.86,0,0,0,.86.86"/><path class="cls-31" d="M590.67,127.2a.86.86,0,1,0-.86-.86.86.86,0,0,0,.86.86"/><path class="cls-31" d="M607.86,127.2a.86.86,0,1,0-.86-.86.86.86,0,0,0,.86.86"/><path class="cls-31" d="M625.05,127.2a.86.86,0,1,0-.86-.86.86.86,0,0,0,.86.86"/><path class="cls-31" d="M642.24,127.2a.86.86,0,1,0-.86-.86.86.86,0,0,0,.86.86"/><path class="cls-31" d="M659.43,127.2a.86.86,0,1,0-.86-.86.86.86,0,0,0,.86.86"/></g><text class="cls-33" transform="translate(578.22 87.62)">R</text><line class="cls-34" x1="590.78" y1="109.27" x2="607.92" y2="109.27"/><rect class="cls-34" x="573.61" y="74.85" width="17.15" height="17.15"/><rect class="cls-34" x="573.61" y="92.13" width="17.15" height="17.15"/><text class="cls-33" transform="translate(578.22 104.9)">R</text><rect class="cls-28" y="160" width="252" height="144"/><rect class="cls-35" x="37.63" y="215.4" width="36" height="34.92"/><polygon class="cls-29" points="73.63 286.32 127.63 286.32 127.63 233.07 19.63 233.07 19.63 179.07 73.63 179.07 73.63 269.07 73.63 286.32"/><polyline class="cls-29" points="19.63 197.07 109.63 197.07 109.63 269.07 19.63 269.07 19.63 233.07"/><polyline class="cls-29" points="37.63 179.07 37.63 286.32 73.63 286.32"/><line class="cls-29" x1="55.63" y1="197.07" x2="55.63" y2="233.07"/><line class="cls-29" x1="73.63" y1="215.07" x2="37.63" y2="215.07"/><polyline class="cls-29" points="73.63 179.07 127.63 179.07 127.63 232.32"/><polyline class="cls-29" points="91.63 197.07 91.63 251.07 37.63 251.07"/><polyline class="cls-29" points="37.63 286.32 19.63 286.32 19.63 268.32"/><g class="cls-2"><path class="cls-31" d="M191.29,251.8h-1.16a.05.05,0,0,0-.05.05v1.86a.05.05,0,0,0,.05.05h1.16a.05.05,0,0,0,.05-.05v-.31a.05.05,0,0,0-.05-.05h-.78V253h.64a.05.05,0,0,0,.05-.05v-.31a.06.06,0,0,0-.05-.05h-.64v-.35h.78a.05.05,0,0,0,.05-.05v-.31a.05.05,0,0,0-.05-.05"/><path class="cls-31" d="M192.46,253.09l.21-.46h0l.21.46Zm.28-1.29a.06.06,0,0,0,0,0h0a.06.06,0,0,0,0,0l-.88,1.89a0,0,0,0,0,0,.07h.31a.11.11,0,0,0,.1-.07l.1-.22h.76l.1.22c0,.05,0,.07.1.07h.31a0,0,0,0,0,0-.07Z"/><path class="cls-31" d="M195,251.8h-1.25a.05.05,0,0,0-.05.05v.31a.05.05,0,0,0,.05.05h.4v1.5a.05.05,0,0,0,.05.05h.34a.06.06,0,0,0,.05-.05v-1.5h.4a.05.05,0,0,0,.05-.05v-.31a.05.05,0,0,0-.05-.05"/><path class="cls-31" d="M196.26,252.57c-.2-.09-.31-.17-.31-.26a.15.15,0,0,1,.17-.15.76.76,0,0,1,.38.15.09.09,0,0,0,.12,0l.14-.22s0-.07,0-.09a1,1,0,0,0-.6-.21.58.58,0,0,0-.65.56c0,.34.27.49.54.62s.29.17.29.28a.18.18,0,0,1-.19.17.72.72,0,0,1-.4-.15.07.07,0,0,0-.1,0l-.13.23a.06.06,0,0,0,0,.08.89.89,0,0,0,.63.22.62.62,0,0,0,.66-.58c0-.38-.32-.52-.57-.64"/><path class="cls-31" d="M198.39,253.44a.25.25,0,0,1-.26-.24.31.31,0,0,1,.2-.3l.37.39a.35.35,0,0,1-.3.14m0-1.36a.18.18,0,0,1,.19.18c0,.16-.18.24-.18.24l-.11-.11a.2.2,0,0,1-.08-.15.16.16,0,0,1,.18-.15m1,1.39-.24-.22a1.66,1.66,0,0,0,.18-.35s0-.11,0-.13l-.21-.07c-.08,0-.09,0-.11.08a1,1,0,0,1-.09.22l-.25-.26s.3-.19.3-.5a.5.5,0,0,0-.55-.47.51.51,0,0,0-.56.45.56.56,0,0,0,.18.4l.06.06h0a.65.65,0,0,0-.38.56.57.57,0,0,0,.62.53.82.82,0,0,0,.61-.22l.18.18a.09.09,0,0,0,.13,0l.16-.16c.07-.07,0-.1,0-.13"/><path class="cls-31" d="M201.6,251.8h-1.16a.05.05,0,0,0-.05.05v1.86a.05.05,0,0,0,.05.05h1.16a.05.05,0,0,0,.05-.05v-.31a.05.05,0,0,0-.05-.05h-.78V253h.64a.05.05,0,0,0,.05-.05v-.31a.06.06,0,0,0-.05-.05h-.64v-.35h.78a.05.05,0,0,0,.05-.05v-.31a.05.05,0,0,0-.05-.05"/><path class="cls-31" d="M203.87,251.8h-.34a.05.05,0,0,0-.05.05v1h0l-1.08-1s0,0-.07,0h0a.05.05,0,0,0-.05.05v1.89a.05.05,0,0,0,.05.05h.33a.05.05,0,0,0,.05-.05v-1h0l1.09,1.1a.09.09,0,0,0,.07,0h0a0,0,0,0,0,.05,0v-1.89a.05.05,0,0,0-.05-.05"/><path class="cls-31" d="M205.69,251.8h-1.25a.05.05,0,0,0-.05.05v.31a.05.05,0,0,0,.05.05h.4v1.5a.05.05,0,0,0,.05.05h.34a.06.06,0,0,0,.05-.05v-1.5h.4a.05.05,0,0,0,.05-.05v-.31a.05.05,0,0,0-.05-.05"/><path class="cls-31" d="M207.42,251.8h-1.16a.05.05,0,0,0-.05.05v1.86a.05.05,0,0,0,.05.05h1.16a.05.05,0,0,0,.05-.05v-.31a.05.05,0,0,0-.05-.05h-.78V253h.64a.05.05,0,0,0,.05-.05v-.31a.06.06,0,0,0-.05-.05h-.64v-.35h.78a.05.05,0,0,0,.05-.05v-.31a.05.05,0,0,0-.05-.05"/><path class="cls-31" d="M208.91,252.64h-.41v-.44h.41a.21.21,0,0,1,.21.21.22.22,0,0,1-.21.22m.65-.23a.6.6,0,0,0-.61-.61h-.84a.05.05,0,0,0-.05.05v1.86a.05.05,0,0,0,.05.05h.33a.06.06,0,0,0,.05-.05V253h.19l.37.74a.05.05,0,0,0,0,0h.37a.05.05,0,0,0,0-.08l-.38-.71a.59.59,0,0,0,.42-.56"/><path class="cls-31" d="M211.27,251.8H210a.05.05,0,0,0-.05.05v.31a.05.05,0,0,0,.05.05h.4v1.5a.05.05,0,0,0,.05.05h.34a.06.06,0,0,0,.05-.05v-1.5h.4a.05.05,0,0,0,.05-.05v-.31a.05.05,0,0,0-.05-.05"/><path class="cls-31" d="M212.17,253.09l.21-.46h0l.21.46Zm.28-1.29a.06.06,0,0,0,0,0h0a.06.06,0,0,0,0,0l-.88,1.89a0,0,0,0,0,0,.07h.31a.11.11,0,0,0,.1-.07l.1-.22h.76l.1.22c0,.05,0,.07.1.07h.31a0,0,0,0,0,0-.07Z"/><path class="cls-31" d="M214.15,251.8h-.34a.05.05,0,0,0-.05.05v1.86a.05.05,0,0,0,.05.05h.34a.05.05,0,0,0,.05-.05v-1.86a.05.05,0,0,0-.05-.05"/><path class="cls-31" d="M216.49,251.8h-.34a.05.05,0,0,0-.05.05v1h0l-1.08-1s0,0-.07,0h0a.05.05,0,0,0-.05.05v1.89a.05.05,0,0,0,.05.05h.33a.05.05,0,0,0,.05-.05v-1h0l1.09,1.1a.09.09,0,0,0,.07,0h0a0,0,0,0,0,.05,0v-1.89a.05.05,0,0,0-.05-.05"/><path class="cls-31" d="M218.94,251.77h0a.06.06,0,0,0,0,0L218.2,253h0l-.65-1.21a.06.06,0,0,0,0,0h0a.05.05,0,0,0-.05,0l-.32,1.88a.05.05,0,0,0,.05.06h.33a.06.06,0,0,0,.05,0l.12-.87h0l.47.91a.06.06,0,0,0,0,0h.05a.06.06,0,0,0,0,0l.47-.91h0l.13.87a.06.06,0,0,0,.05,0h.33a.05.05,0,0,0,.05-.06l-.32-1.88a.05.05,0,0,0,0,0"/><path class="cls-31" d="M221.07,251.8h-1.16a.05.05,0,0,0-.05.05v1.86a.05.05,0,0,0,.05.05h1.16a.05.05,0,0,0,.05-.05v-.31a.05.05,0,0,0-.05-.05h-.78V253h.64a.05.05,0,0,0,.05-.05v-.31a.06.06,0,0,0-.05-.05h-.64v-.35h.78a.05.05,0,0,0,.05-.05v-.31a.05.05,0,0,0-.05-.05"/><path class="cls-31" d="M223.34,251.8H223a.05.05,0,0,0-.05.05v1h0l-1.08-1s0,0-.07,0h0a.05.05,0,0,0-.05.05v1.89a.05.05,0,0,0,.05.05h.33a.05.05,0,0,0,.05-.05v-1h0l1.09,1.1a.09.09,0,0,0,.07,0h0a0,0,0,0,0,.05,0v-1.89a.05.05,0,0,0-.05-.05"/><path class="cls-31" d="M225.16,251.8h-1.25a.05.05,0,0,0-.05.05v.31a.05.05,0,0,0,.05.05h.4v1.5a.05.05,0,0,0,.05.05h.34a.06.06,0,0,0,.05-.05v-1.5h.4a.05.05,0,0,0,.05-.05v-.31a.05.05,0,0,0-.05-.05"/><path class="cls-31" d="M184.94,232.31a.8.8,0,0,0,.78-.8.78.78,0,0,0-.78-.76h-1.28v1.56ZM182.64,230a.15.15,0,0,1,.15-.15H185a1.7,1.7,0,0,1,1.71,1.69,1.73,1.73,0,0,1-1.16,1.58l1.07,2a.15.15,0,0,1-.13.23h-.82a.13.13,0,0,1-.12-.07l-1-2.08h-.87v2a.15.15,0,0,1-.15.15h-.72a.15.15,0,0,1-.15-.15Z"/><path class="cls-31" d="M194.5,230a.15.15,0,0,1,.15-.15h3.19a.15.15,0,0,1,.15.15v.64a.15.15,0,0,1-.15.15h-2.32V232h1.94a.15.15,0,0,1,.15.15v.65a.15.15,0,0,1-.15.15h-1.94v1.37h2.32a.15.15,0,0,1,.15.15v.64a.15.15,0,0,1-.15.15h-3.19a.15.15,0,0,1-.15-.15Z"/><path class="cls-31" d="M208.09,229.73a2.65,2.65,0,0,1,1.9.73.14.14,0,0,1,0,.22l-.48.49a.13.13,0,0,1-.2,0,1.86,1.86,0,0,0-1.21-.46,1.82,1.82,0,0,0,0,3.64,1.88,1.88,0,0,0,1.2-.45.14.14,0,0,1,.2,0l.49.5a.15.15,0,0,1,0,.21,2.69,2.69,0,0,1-1.91.76,2.82,2.82,0,1,1,0-5.65"/><path class="cls-31" d="M184.94,243.83a.8.8,0,0,0,.78-.8.78.78,0,0,0-.78-.76h-1.28v1.56Zm-2.31-2.35a.15.15,0,0,1,.15-.15H185a1.7,1.7,0,0,1,1.71,1.69,1.73,1.73,0,0,1-1.16,1.58l1.07,2a.15.15,0,0,1-.13.23h-.82a.13.13,0,0,1-.12-.07l-1-2.08h-.87v2a.15.15,0,0,1-.15.15h-.72a.15.15,0,0,1-.15-.15Z"/><path class="cls-31" d="M196.08,245.88a1.8,1.8,0,1,0-1.8-1.8,1.81,1.81,0,0,0,1.8,1.8m0-4.63a2.82,2.82,0,1,1-2.82,2.83,2.82,2.82,0,0,1,2.82-2.83"/><path class="cls-31" d="M207.61,245.88a1.8,1.8,0,1,0-1.8-1.8,1.81,1.81,0,0,0,1.8,1.8m0-4.63a2.82,2.82,0,1,1-2.82,2.83,2.82,2.82,0,0,1,2.82-2.83"/></g><path class="cls-31" d="M179,237.89h11v-11H179Zm11.53.48h-12v-12h12Z"/><path class="cls-31" d="M202.09,226.36h11v-11h-11Zm11.53.48h-12v-12h12Z"/><path class="cls-31" d="M190.56,237.89h11v-11h-11Zm11.53.48h-12v-12h12Z"/><path class="cls-31" d="M202.09,237.89h11v-11h-11Zm11.53.48h-12v-12h12Z"/><path class="cls-31" d="M179,249.41h11v-11H179Zm11.53.48h-12v-12h12Z"/><path class="cls-31" d="M190.56,249.41h11v-11h-11Zm11.53.48h-12v-12h12Z"/><path class="cls-31" d="M202.09,249.41h11v-11h-11Zm11.53.48h-12v-12h12Z"/><path class="cls-31" d="M213.62,249.41h11v-11h-11Zm11.53.48h-12v-12h12Z"/><g class="cls-2"><path class="cls-31" d="M217,241.37a.13.13,0,0,1,.14-.12h.13a.14.14,0,0,1,.13.08l1.73,3.7h0l1.73-3.7a.14.14,0,0,1,.13-.08h.13a.13.13,0,0,1,.14.12l.93,5.27a.14.14,0,0,1-.14.18h-.71a.17.17,0,0,1-.15-.12l-.46-3h0l-1.37,3.08a.13.13,0,0,1-.13.09h-.14a.14.14,0,0,1-.13-.09l-1.39-3.08h0l-.46,3a.15.15,0,0,1-.14.12h-.71a.14.14,0,0,1-.15-.18Z"/><path class="cls-31" d="M205.72,220.46h-.37a0,0,0,0,1,0,0v-.28a0,0,0,0,1,0,0h1.14a0,0,0,0,1,0,0v.28a0,0,0,0,1,0,0h-.37v1.37a.05.05,0,0,1,0,0h-.31a.05.05,0,0,1,0,0Z"/><path class="cls-31" d="M206.77,220.14a.05.05,0,0,1,0,0h.3a0,0,0,0,1,0,0v.65h.73v-.65a0,0,0,0,1,0,0h.31a0,0,0,0,1,0,0v1.7a0,0,0,0,1,0,0H208a0,0,0,0,1,0,0v-.67h-.73v.67a0,0,0,0,1,0,0h-.3a.05.05,0,0,1,0,0Z"/><path class="cls-31" d="M208.71,220.14a0,0,0,0,1,0,0h1.06a0,0,0,0,1,0,0v.28a0,0,0,0,1,0,0h-.71v.32h.58a.05.05,0,0,1,0,0v.28a0,0,0,0,1,0,0h-.58v.35h.71a0,0,0,0,1,0,0v.28a0,0,0,0,1,0,0h-1.06a0,0,0,0,1,0,0Z"/><path class="cls-31" d="M226.58,238.4a.51.51,0,0,0-1,0,.5.5,0,0,0,.15.37.51.51,0,0,0,.73,0,.5.5,0,0,0,.15-.37m-.07,0a.43.43,0,0,1-.13.31.43.43,0,0,1-.31.13.42.42,0,0,1-.31-.13.42.42,0,0,1-.13-.31.43.43,0,0,1,.13-.31.44.44,0,0,1,.63,0,.43.43,0,0,1,.13.31"/><path class="cls-31" d="M226.09,238.4a.1.1,0,0,0,.1-.1.1.1,0,0,0-.1-.1H226v.19Zm-.23-.26h.23a.17.17,0,0,1,.18.17.18.18,0,0,1-.12.16l.11.2a0,0,0,0,1,0,0h-.07l-.11-.21h-.12v.21h-.08Z"/></g><rect class="cls-28" x="535.47" y="160" width="252" height="144"/><polygon class="cls-35" points="604.26 174.4 606.41 178.13 608.57 174.4 604.26 174.4"/><polygon class="cls-36" points="609.32 289.61 611.48 293.35 613.63 289.61 609.32 289.61"/><g class="cls-2"><path class="cls-37" d="M571.7,185.29v5.15m48.05,74.83H614.6M651.51,223v5.15m-16.29-16.13h-5.16m5.16-26.6h-5.16m-64,47.89h-5.15m.33-5.32h-5.16m10.48,26.6h-5.16M582.51,228h-5.15m53-10.64h-5.15m-64.18-15.63v5.16m5,15.8h-5.15m26.77-10.31v5.15m-26.44,63.68h-5.16m5.16-42.57h-5.16m74.16-48.06v5.15m0,26.77v5.15m16-41.9v5.15m.17,5.15H641.2m-53.54,5.15v5.16m-21.62-21h-5.15m80,95.61v5.49m-74.49-5.49v5.49m53.38-53.21h-11m16.13-5v10m10.64-4.66v10m-32.09-21H598.3v10.81m-26.6-11V228h-5m31.76-31.93h-15.8m-11,80.15v5h5.49m63.68-36.91v15.8m-79.81-42.57v-5.49h-5m106.09-16H651.85M593,180.47v21.12m31.92,74.66v10.31m-37.25-95.61v-5.49H576.85m26.77,74.83v15.63h-5.49M598,212.06H572m10.31-26.27v15.8m5.32,47.89V238.67H572M598,228H587.5m-15.8,42.73V249.31h-5.49m16.13-5.49V254.3m37.41,26.94H609.28m-21.78,0h16.29m10.48-47.56v5h-5.32v10.81m-47.89,15.63v5.49h5.32v5m5.32-42.4V244H577v5.49M662.15,244h-5.32v5.32H646m.33-10.64h-5.49v-5.32H630.06m5.49-26.77v21.12m0-47.22V196.1H624.91v5.49M603.62,254.3v-5H592.82m42.9,0h-5.49v10.31m26.6-74.33v5.49h-5.32v10.64H646m-21.12,58.86v10.31h-5.49m5.49-90.12v10.31h-5.49M582.34,212.4v10.31h5.49m42.57,16H619.59v10.81m5-37.41H608.95v5.49m47.89,36.91V281.4m-53.54-10.81H593V280.9m58.53-31.26v15.63h5m-42.57-74.49H593.32M608.61,244H588m52.71,21.28h5.4V254.63H635.38m-47.72,15.8v5.49h-5.32v10.64m31.92-42.73v32.09h16V265.11M572,254.63h41.9m26.6-53.21H630.23v5.32h-5.32v16.13m-5.15-37.41h-5.49V196.1h5.32v15.63M608.78,228h37.41v5.32H656.5m-58,31.92H582.34v5.32h-5M577,233.51V217.39H571.7V206.83h-5.32V244h-5.24v16h5.24v5.32h5m48.22-37.58V217.47h-5.32v5.24H603.79m-42.73-32.09v5.49h10.56v5.32H556.07m10.31-21v10.31H577v16h16.13m58.53-21.28H640.87v37.25h15.88v-5.32H646m10.81,10.48v10.81h-5.32V244h-26.6v10.64h-5.24V260h15.88v5.49m21.28-64.18v5.49H646.27v5.32h15.88m-58.36-31.93h-48V286.72h53.13V260H577v15.88H560.89m69.17,5.32h5.49V276h10.64v5.16h5.24V270.59H630.56m-32.42-85.13h10.81v-5.24h53.38v106.5H614.4m-32.06-48.38v-4.9H593v5.15h10.64V206.74h10.56v-5.32h-5.24v-5.24h-5.32v5.24H598.3v16H593v5.49"/><path class="cls-31" d="M728.62,251.24h-1.16a.05.05,0,0,0-.05.05v1.86a.05.05,0,0,0,.05.05h1.16a.05.05,0,0,0,.05-.05v-.31a.05.05,0,0,0-.05-.05h-.78v-.38h.64a.05.05,0,0,0,.05-.05v-.31a.06.06,0,0,0-.05-.05h-.64v-.35h.78a.05.05,0,0,0,.05-.05v-.31a.05.05,0,0,0-.05-.05"/><path class="cls-31" d="M729.79,252.53l.21-.46h0l.21.46Zm.28-1.29a.06.06,0,0,0,0,0h0a.06.06,0,0,0,0,0l-.88,1.89a0,0,0,0,0,0,.07h.31a.11.11,0,0,0,.1-.07l.1-.22h.76l.1.22c0,.05,0,.07.1.07h.31a0,0,0,0,0,0-.07Z"/><path class="cls-31" d="M732.37,251.24h-1.25a.05.05,0,0,0-.05.05v.31a.05.05,0,0,0,.05.05h.4v1.5a.05.05,0,0,0,.05.05h.34a.06.06,0,0,0,.05-.05v-1.5h.4a.05.05,0,0,0,.05-.05v-.31a.05.05,0,0,0-.05-.05"/><path class="cls-31" d="M733.59,252c-.2-.09-.31-.17-.31-.26a.15.15,0,0,1,.17-.15.76.76,0,0,1,.38.15.09.09,0,0,0,.12,0l.14-.22s0-.07,0-.09a1,1,0,0,0-.6-.21.58.58,0,0,0-.65.56c0,.34.27.49.54.62s.29.17.29.28a.18.18,0,0,1-.19.17.72.72,0,0,1-.4-.15.07.07,0,0,0-.1,0l-.13.23a.06.06,0,0,0,0,.08.89.89,0,0,0,.63.22.62.62,0,0,0,.66-.58c0-.38-.32-.52-.57-.64"/><path class="cls-31" d="M735.72,252.88a.25.25,0,0,1-.26-.24.31.31,0,0,1,.2-.3l.37.39a.35.35,0,0,1-.3.14m0-1.36a.18.18,0,0,1,.19.18c0,.16-.18.24-.18.24l-.11-.11a.2.2,0,0,1-.08-.15.16.16,0,0,1,.18-.15m1,1.39-.24-.22a1.66,1.66,0,0,0,.18-.35s0-.11,0-.13l-.21-.07c-.08,0-.09,0-.11.08a1,1,0,0,1-.09.22l-.25-.26s.3-.19.3-.5a.5.5,0,0,0-.55-.47.51.51,0,0,0-.56.45.56.56,0,0,0,.18.4l.06.06h0a.65.65,0,0,0-.38.56.57.57,0,0,0,.62.53.83.83,0,0,0,.61-.22l.18.18a.09.09,0,0,0,.13,0l.16-.16c.07-.07,0-.1,0-.13"/><path class="cls-31" d="M738.93,251.24h-1.16a.05.05,0,0,0-.05.05v1.86a.05.05,0,0,0,.05.05h1.16a.05.05,0,0,0,.05-.05v-.31a.05.05,0,0,0-.05-.05h-.78v-.38h.64a.05.05,0,0,0,.05-.05v-.31a.06.06,0,0,0-.05-.05h-.64v-.35h.78a.05.05,0,0,0,.05-.05v-.31a.05.05,0,0,0-.05-.05"/><path class="cls-31" d="M741.2,251.24h-.34a.05.05,0,0,0-.05.05v1h0l-1.08-1s0,0-.07,0h0a.05.05,0,0,0-.05.05v1.89a.05.05,0,0,0,.05.05H740a.05.05,0,0,0,.05-.05v-1h0l1.09,1.1a.09.09,0,0,0,.07,0h0a0,0,0,0,0,.05,0V251.3a.05.05,0,0,0-.05-.05"/><path class="cls-31" d="M743,251.24h-1.25a.05.05,0,0,0-.05.05v.31a.05.05,0,0,0,.05.05h.4v1.5a.05.05,0,0,0,.05.05h.34a.06.06,0,0,0,.05-.05v-1.5h.4a.05.05,0,0,0,.05-.05v-.31a.05.05,0,0,0-.05-.05"/><path class="cls-31" d="M744.75,251.24h-1.16a.05.05,0,0,0-.05.05v1.86a.05.05,0,0,0,.05.05h1.16a.05.05,0,0,0,.05-.05v-.31a.05.05,0,0,0-.05-.05H744v-.38h.64a.05.05,0,0,0,.05-.05v-.31a.06.06,0,0,0-.05-.05H744v-.35h.78a.05.05,0,0,0,.05-.05v-.31a.05.05,0,0,0-.05-.05"/><path class="cls-31" d="M746.24,252.08h-.42v-.44h.42a.21.21,0,0,1,.21.21.22.22,0,0,1-.21.22m.65-.23a.6.6,0,0,0-.61-.61h-.84a.05.05,0,0,0-.05.05v1.86a.05.05,0,0,0,.05.05h.33a.06.06,0,0,0,.05-.05v-.72H746l.37.74a.05.05,0,0,0,0,0h.37a.05.05,0,0,0,0-.08l-.38-.71a.59.59,0,0,0,.42-.56"/><path class="cls-31" d="M748.6,251.24h-1.25a.05.05,0,0,0-.05.05v.31a.05.05,0,0,0,.05.05h.4v1.5a.05.05,0,0,0,.05.05h.34a.06.06,0,0,0,.05-.05v-1.5h.4a.05.05,0,0,0,.05-.05v-.31a.05.05,0,0,0-.05-.05"/><path class="cls-31" d="M749.5,252.53l.21-.46h0l.21.46Zm.28-1.29a.06.06,0,0,0,0,0h0a.06.06,0,0,0,0,0l-.88,1.89a0,0,0,0,0,0,.07h.31a.11.11,0,0,0,.1-.07l.1-.22h.76l.1.22c0,.05,0,.07.1.07h.31a0,0,0,0,0,0-.07Z"/><path class="cls-31" d="M751.48,251.24h-.34a.05.05,0,0,0-.05.05v1.86a.05.05,0,0,0,.05.05h.34a.05.05,0,0,0,.05-.05V251.3a.05.05,0,0,0-.05-.05"/><path class="cls-31" d="M753.82,251.24h-.34a.05.05,0,0,0-.05.05v1h0l-1.08-1s0,0-.07,0h0a.05.05,0,0,0-.05.05v1.89a.05.05,0,0,0,.05.05h.33a.05.05,0,0,0,.05-.05v-1h0l1.09,1.1a.09.09,0,0,0,.07,0h0a0,0,0,0,0,.05,0V251.3a.05.05,0,0,0-.05-.05"/><path class="cls-31" d="M756.27,251.21h0a.06.06,0,0,0,0,0l-.65,1.21h0l-.65-1.21a.06.06,0,0,0,0,0h0a.05.05,0,0,0,0,0l-.32,1.88a.05.05,0,0,0,.05.06h.33a.06.06,0,0,0,.05,0l.12-.87h0l.47.91a.06.06,0,0,0,0,0h.05a.06.06,0,0,0,0,0l.47-.91h0l.13.87a.06.06,0,0,0,.05,0h.33a.05.05,0,0,0,.05-.06l-.32-1.88a.05.05,0,0,0,0,0"/><path class="cls-31" d="M758.4,251.24h-1.16a.05.05,0,0,0-.05.05v1.86a.05.05,0,0,0,.05.05h1.16a.05.05,0,0,0,.05-.05v-.31a.05.05,0,0,0-.05-.05h-.78v-.38h.64a.05.05,0,0,0,.05-.05v-.31a.06.06,0,0,0-.05-.05h-.64v-.35h.78a.05.05,0,0,0,.05-.05v-.31a.05.05,0,0,0-.05-.05"/><path class="cls-31" d="M760.67,251.24h-.34a.05.05,0,0,0-.05.05v1h0l-1.08-1s0,0-.07,0h0a.05.05,0,0,0-.05.05v1.89a.05.05,0,0,0,.05.05h.33a.05.05,0,0,0,.05-.05v-1h0l1.09,1.1a.09.09,0,0,0,.07,0h0a0,0,0,0,0,.05,0V251.3a.05.05,0,0,0-.05-.05"/><path class="cls-31" d="M762.49,251.24h-1.25a.05.05,0,0,0-.05.05v.31a.05.05,0,0,0,.05.05h.4v1.5a.05.05,0,0,0,.05.05H762a.06.06,0,0,0,.05-.05v-1.5h.4a.05.05,0,0,0,.05-.05v-.31a.05.05,0,0,0-.05-.05"/><path class="cls-31" d="M722.27,231.75a.8.8,0,0,0,.78-.8.78.78,0,0,0-.78-.76H721v1.56ZM720,229.39a.15.15,0,0,1,.15-.15h2.24a1.7,1.7,0,0,1,1.71,1.69,1.73,1.73,0,0,1-1.16,1.58l1.08,2a.15.15,0,0,1-.13.23H723a.13.13,0,0,1-.12-.07l-1-2.08H721v2a.15.15,0,0,1-.15.15h-.72a.15.15,0,0,1-.15-.15Z"/><path class="cls-31" d="M731.83,229.39a.15.15,0,0,1,.15-.15h3.19a.15.15,0,0,1,.15.15V230a.15.15,0,0,1-.15.15h-2.32v1.29h1.94a.15.15,0,0,1,.15.15v.65a.15.15,0,0,1-.15.15h-1.94v1.37h2.32a.15.15,0,0,1,.15.15v.64a.15.15,0,0,1-.15.15H732a.15.15,0,0,1-.15-.15Z"/><path class="cls-31" d="M745.42,229.17a2.65,2.65,0,0,1,1.9.73.14.14,0,0,1,0,.22l-.48.49a.13.13,0,0,1-.2,0,1.86,1.86,0,0,0-1.21-.46,1.82,1.82,0,0,0,0,3.64,1.88,1.88,0,0,0,1.2-.45.14.14,0,0,1,.2,0l.49.5a.15.15,0,0,1,0,.21,2.69,2.69,0,0,1-1.91.76,2.82,2.82,0,1,1,0-5.65"/><path class="cls-31" d="M722.27,243.27a.8.8,0,0,0,.78-.8.78.78,0,0,0-.78-.76H721v1.56ZM720,240.92a.15.15,0,0,1,.15-.15h2.24a1.7,1.7,0,0,1,1.71,1.69,1.73,1.73,0,0,1-1.16,1.58l1.08,2a.15.15,0,0,1-.13.23H723a.13.13,0,0,1-.12-.07l-1-2.08H721v2a.15.15,0,0,1-.15.15h-.72a.15.15,0,0,1-.15-.15Z"/><path class="cls-31" d="M733.41,245.32a1.8,1.8,0,1,0-1.8-1.8,1.81,1.81,0,0,0,1.8,1.8m0-4.63a2.82,2.82,0,1,1-2.82,2.83,2.82,2.82,0,0,1,2.82-2.83"/><path class="cls-31" d="M744.94,245.32a1.8,1.8,0,1,0-1.8-1.8,1.81,1.81,0,0,0,1.8,1.8m0-4.63a2.82,2.82,0,1,1-2.82,2.83,2.82,2.82,0,0,1,2.82-2.83"/></g><path class="cls-31" d="M716.37,237.33h11v-11h-11Zm11.53.48h-12v-12h12Z"/><path class="cls-31" d="M739.42,225.8h11v-11h-11Zm11.53.48h-12v-12h12Z"/><path class="cls-31" d="M727.89,237.33h11v-11h-11Zm11.53.48h-12v-12h12Z"/><path class="cls-31" d="M739.42,237.33h11v-11h-11Zm11.53.48h-12v-12h12Z"/><path class="cls-31" d="M716.37,248.85h11v-11h-11Zm11.53.48h-12v-12h12Z"/><path class="cls-31" d="M727.89,248.85h11v-11h-11Zm11.53.48h-12v-12h12Z"/><path class="cls-31" d="M739.42,248.85h11v-11h-11Zm11.53.48h-12v-12h12Z"/><path class="cls-31" d="M750.95,248.85h11v-11h-11Zm11.53.48h-12v-12h12Z"/><g class="cls-2"><path class="cls-31" d="M754.34,240.81a.13.13,0,0,1,.14-.12h.13a.14.14,0,0,1,.13.08l1.73,3.7h0l1.73-3.7a.14.14,0,0,1,.13-.08h.13a.13.13,0,0,1,.14.12l.93,5.27a.14.14,0,0,1-.14.18h-.71a.17.17,0,0,1-.15-.12l-.46-3h0l-1.37,3.08a.13.13,0,0,1-.13.09h-.14a.14.14,0,0,1-.13-.09l-1.39-3.08h0l-.45,3a.15.15,0,0,1-.14.12h-.71a.14.14,0,0,1-.15-.18Z"/><path class="cls-31" d="M743.05,219.9h-.37a0,0,0,0,1,0,0v-.28a0,0,0,0,1,0,0h1.14a0,0,0,0,1,0,0v.28a0,0,0,0,1,0,0h-.37v1.37a.05.05,0,0,1,0,0h-.31a.05.05,0,0,1,0,0Z"/><path class="cls-31" d="M744.1,219.58a.05.05,0,0,1,0,0h.3a0,0,0,0,1,0,0v.65h.73v-.65a0,0,0,0,1,0,0h.3a.05.05,0,0,1,0,0v1.7a.05.05,0,0,1,0,0h-.3a0,0,0,0,1,0,0v-.67h-.73v.67a0,0,0,0,1,0,0h-.3a.05.05,0,0,1,0,0Z"/><path class="cls-31" d="M746,219.58a0,0,0,0,1,0,0h1.06a0,0,0,0,1,0,0v.28a0,0,0,0,1,0,0h-.71v.32H747a.05.05,0,0,1,0,0v.28a0,0,0,0,1,0,0h-.58v.35h.71a0,0,0,0,1,0,0v.28a0,0,0,0,1,0,0h-1.06a0,0,0,0,1,0,0Z"/><path class="cls-31" d="M763.91,237.84a.51.51,0,0,0-1,0,.5.5,0,0,0,.15.37.51.51,0,0,0,.73,0,.5.5,0,0,0,.15-.37m-.07,0a.43.43,0,0,1-.13.31.43.43,0,0,1-.31.13.42.42,0,0,1-.31-.13.42.42,0,0,1-.13-.31.43.43,0,0,1,.13-.31.44.44,0,0,1,.63,0,.43.43,0,0,1,.13.31"/><path class="cls-31" d="M763.42,237.84a.1.1,0,0,0,.1-.1.1.1,0,0,0-.1-.1h-.14v.19Zm-.23-.26h.23a.17.17,0,0,1,.18.17.18.18,0,0,1-.12.16l.11.2a0,0,0,0,1,0,0h-.08l-.11-.21h-.12v.21h-.08Z"/><path class="cls-31" d="M461.69,251.36h-1.16a.05.05,0,0,0-.05.05v1.86a.05.05,0,0,0,.05.05h1.16a.05.05,0,0,0,.05-.05V253a.05.05,0,0,0-.05-.05h-.78v-.38h.64a.05.05,0,0,0,.05-.05v-.31a.06.06,0,0,0-.05-.05h-.64v-.35h.78a.05.05,0,0,0,.05-.05v-.31a.05.05,0,0,0-.05-.05"/><path class="cls-31" d="M462.86,252.65l.21-.46h0l.21.46Zm.28-1.29a.06.06,0,0,0,0,0h0a.06.06,0,0,0,0,0l-.88,1.89a0,0,0,0,0,0,.07h.31a.11.11,0,0,0,.1-.07l.1-.22h.76l.1.22c0,.05,0,.07.1.07H464a0,0,0,0,0,0-.07Z"/><path class="cls-31" d="M465.44,251.36h-1.25a.05.05,0,0,0-.05.05v.31a.05.05,0,0,0,.05.05h.4v1.5a.05.05,0,0,0,.05.05H465a.06.06,0,0,0,.05-.05v-1.5h.4a.05.05,0,0,0,.05-.05v-.31a.05.05,0,0,0-.05-.05"/><path class="cls-31" d="M466.65,252.13c-.2-.09-.31-.17-.31-.26a.15.15,0,0,1,.17-.15.76.76,0,0,1,.38.15.09.09,0,0,0,.12,0l.14-.22s0-.07,0-.09a1,1,0,0,0-.6-.21.58.58,0,0,0-.65.56c0,.34.27.49.54.62s.29.17.29.28a.18.18,0,0,1-.19.17.72.72,0,0,1-.4-.15.07.07,0,0,0-.1,0l-.13.23a.06.06,0,0,0,0,.08.89.89,0,0,0,.63.22.62.62,0,0,0,.66-.58c0-.38-.32-.52-.57-.64"/><path class="cls-31" d="M468.79,253a.25.25,0,0,1-.26-.24.31.31,0,0,1,.2-.3l.37.39a.35.35,0,0,1-.3.14m0-1.36a.18.18,0,0,1,.19.18c0,.16-.18.24-.18.24l-.11-.11a.2.2,0,0,1-.08-.15.16.16,0,0,1,.18-.15m1,1.39-.24-.22a1.66,1.66,0,0,0,.18-.35s0-.11,0-.13l-.2-.07c-.08,0-.09,0-.11.08a1,1,0,0,1-.09.22l-.25-.26s.3-.19.3-.5a.5.5,0,0,0-.55-.47.51.51,0,0,0-.56.45.56.56,0,0,0,.18.4l.06.06h0a.65.65,0,0,0-.38.56.57.57,0,0,0,.62.53.82.82,0,0,0,.61-.22l.18.18a.09.09,0,0,0,.13,0l.16-.16c.07-.07,0-.1,0-.13"/><path class="cls-31" d="M472,251.36h-1.16a.05.05,0,0,0-.05.05v1.86a.05.05,0,0,0,.05.05H472a.05.05,0,0,0,.05-.05V253a.05.05,0,0,0-.05-.05h-.78v-.38h.64a.05.05,0,0,0,.05-.05v-.31a.06.06,0,0,0-.05-.05h-.64v-.35H472a.05.05,0,0,0,.05-.05v-.31a.05.05,0,0,0-.05-.05"/><path class="cls-31" d="M474.27,251.36h-.34a.05.05,0,0,0-.05.05v1h0l-1.08-1s0,0-.07,0h0a.05.05,0,0,0-.05.05v1.89a.05.05,0,0,0,.05.05H473a.05.05,0,0,0,.05-.05v-1h0l1.09,1.1a.09.09,0,0,0,.07,0h0a0,0,0,0,0,.05,0v-1.89a.05.05,0,0,0-.05-.05"/><path class="cls-31" d="M476.08,251.36h-1.25a.05.05,0,0,0-.05.05v.31a.05.05,0,0,0,.05.05h.4v1.5a.05.05,0,0,0,.05.05h.34a.06.06,0,0,0,.05-.05v-1.5h.4a.05.05,0,0,0,.05-.05v-.31a.05.05,0,0,0-.05-.05"/><path class="cls-31" d="M477.81,251.36h-1.16a.05.05,0,0,0-.05.05v1.86a.05.05,0,0,0,.05.05h1.16a.05.05,0,0,0,.05-.05V253a.05.05,0,0,0-.05-.05H477v-.38h.64a.05.05,0,0,0,.05-.05v-.31a.06.06,0,0,0-.05-.05H477v-.35h.78a.05.05,0,0,0,.05-.05v-.31a.05.05,0,0,0-.05-.05"/><path class="cls-31" d="M479.31,252.2h-.42v-.44h.42a.21.21,0,0,1,.21.21.22.22,0,0,1-.21.22M480,252a.6.6,0,0,0-.61-.61h-.84a.05.05,0,0,0-.05.05v1.86a.05.05,0,0,0,.05.05h.33a.06.06,0,0,0,.05-.05v-.72h.19l.37.74a.05.05,0,0,0,0,0h.37a.05.05,0,0,0,0-.08l-.38-.71A.59.59,0,0,0,480,252"/><path class="cls-31" d="M481.66,251.36h-1.25a.05.05,0,0,0-.05.05v.31a.05.05,0,0,0,.05.05h.4v1.5a.05.05,0,0,0,.05.05h.34a.06.06,0,0,0,.05-.05v-1.5h.4a.05.05,0,0,0,.05-.05v-.31a.05.05,0,0,0-.05-.05"/><path class="cls-31" d="M482.57,252.65l.21-.46h0l.21.46Zm.28-1.29a.06.06,0,0,0,0,0h0a.06.06,0,0,0,0,0l-.88,1.89a0,0,0,0,0,0,.07h.31a.11.11,0,0,0,.1-.07l.1-.22h.76l.1.22c0,.05,0,.07.1.07h.31a0,0,0,0,0,0-.07Z"/><path class="cls-31" d="M484.55,251.36h-.34a.05.05,0,0,0-.05.05v1.86a.05.05,0,0,0,.05.05h.34a.05.05,0,0,0,.05-.05v-1.86a.05.05,0,0,0-.05-.05"/><path class="cls-31" d="M486.89,251.36h-.34a.05.05,0,0,0-.05.05v1h0l-1.08-1s0,0-.07,0h0a.05.05,0,0,0-.05.05v1.89a.05.05,0,0,0,.05.05h.33a.05.05,0,0,0,.05-.05v-1h0l1.09,1.1a.09.09,0,0,0,.07,0h0a0,0,0,0,0,.05,0v-1.89a.05.05,0,0,0-.05-.05"/><path class="cls-31" d="M489.34,251.33h0a.06.06,0,0,0,0,0l-.65,1.21h0l-.65-1.21a.06.06,0,0,0,0,0h0a.05.05,0,0,0-.05,0l-.32,1.88a.05.05,0,0,0,.05.06h.33a.06.06,0,0,0,.05,0l.12-.87h0l.47.91a.06.06,0,0,0,0,0h.05a.06.06,0,0,0,0,0l.47-.91h0l.13.87a.06.06,0,0,0,.05,0h.33a.05.05,0,0,0,.05-.06l-.32-1.88a.05.05,0,0,0,0,0"/><path class="cls-31" d="M491.46,251.36H490.3a.05.05,0,0,0-.05.05v1.86a.05.05,0,0,0,.05.05h1.16a.05.05,0,0,0,.05-.05V253a.05.05,0,0,0-.05-.05h-.78v-.38h.64a.05.05,0,0,0,.05-.05v-.31a.06.06,0,0,0-.05-.05h-.64v-.35h.78a.05.05,0,0,0,.05-.05v-.31a.05.05,0,0,0-.05-.05"/><path class="cls-31" d="M493.73,251.36h-.34a.05.05,0,0,0-.05.05v1h0l-1.08-1s0,0-.07,0h0a.05.05,0,0,0-.05.05v1.89a.05.05,0,0,0,.05.05h.33a.05.05,0,0,0,.05-.05v-1h0l1.09,1.1a.09.09,0,0,0,.07,0h0a0,0,0,0,0,.05,0v-1.89a.05.05,0,0,0-.05-.05"/><path class="cls-31" d="M495.55,251.36h-1.25a.05.05,0,0,0-.05.05v.31a.05.05,0,0,0,.05.05h.4v1.5a.05.05,0,0,0,.05.05h.34a.06.06,0,0,0,.05-.05v-1.5h.4a.05.05,0,0,0,.05-.05v-.31a.05.05,0,0,0-.05-.05"/><path class="cls-31" d="M455.34,231.87a.8.8,0,0,0,.78-.8.78.78,0,0,0-.78-.76h-1.28v1.56ZM453,229.51a.15.15,0,0,1,.15-.15h2.24a1.7,1.7,0,0,1,1.71,1.69,1.73,1.73,0,0,1-1.16,1.58l1.08,2a.15.15,0,0,1-.13.23h-.82a.13.13,0,0,1-.12-.07l-1-2.08h-.87v2a.15.15,0,0,1-.15.15h-.72a.15.15,0,0,1-.15-.15Z"/><path class="cls-31" d="M464.89,229.51a.15.15,0,0,1,.15-.15h3.19a.15.15,0,0,1,.15.15v.64a.15.15,0,0,1-.15.15h-2.32v1.29h1.94a.15.15,0,0,1,.15.15v.65a.15.15,0,0,1-.15.15h-1.94v1.37h2.32a.15.15,0,0,1,.15.15v.64a.15.15,0,0,1-.15.15H465a.15.15,0,0,1-.15-.15Z"/><path class="cls-31" d="M478.49,229.29a2.65,2.65,0,0,1,1.9.73.14.14,0,0,1,0,.22l-.48.49a.13.13,0,0,1-.2,0,1.86,1.86,0,0,0-1.21-.46,1.82,1.82,0,0,0,0,3.64,1.88,1.88,0,0,0,1.2-.45.14.14,0,0,1,.2,0l.49.5a.15.15,0,0,1,0,.21,2.69,2.69,0,0,1-1.91.76,2.82,2.82,0,1,1,0-5.65"/><path class="cls-31" d="M455.34,243.39a.8.8,0,0,0,.78-.8.78.78,0,0,0-.78-.76h-1.28v1.56ZM453,241a.15.15,0,0,1,.15-.15h2.24a1.7,1.7,0,0,1,1.71,1.69,1.73,1.73,0,0,1-1.16,1.58l1.08,2a.15.15,0,0,1-.13.23h-.82a.13.13,0,0,1-.12-.07l-1-2.08h-.87v2a.15.15,0,0,1-.15.15h-.72a.15.15,0,0,1-.15-.15Z"/><path class="cls-31" d="M466.48,245.44a1.8,1.8,0,1,0-1.8-1.8,1.81,1.81,0,0,0,1.8,1.8m0-4.63a2.82,2.82,0,1,1-2.82,2.83,2.82,2.82,0,0,1,2.82-2.83"/><path class="cls-31" d="M478,245.44a1.8,1.8,0,1,0-1.8-1.8,1.81,1.81,0,0,0,1.8,1.8m0-4.63a2.82,2.82,0,1,1-2.82,2.83,2.82,2.82,0,0,1,2.82-2.83"/></g><path class="cls-31" d="M449.43,237.45h11v-11h-11Zm11.53.48H449v-12h12Z"/><path class="cls-31" d="M472.49,225.92h11v-11h-11Zm11.53.48H472v-12h12Z"/><path class="cls-31" d="M461,237.45h11v-11H461Zm11.53.48h-12v-12h12Z"/><path class="cls-31" d="M472.49,237.45h11v-11h-11Zm11.53.48H472v-12h12Z"/><path class="cls-31" d="M449.43,249h11v-11h-11Zm11.53.48H449v-12h12Z"/><path class="cls-31" d="M461,249h11v-11H461Zm11.53.48h-12v-12h12Z"/><path class="cls-31" d="M472.49,249h11v-11h-11Zm11.53.48H472v-12h12Z"/><path class="cls-31" d="M484,249h11v-11H484Zm11.53.48h-12v-12h12Z"/><g class="cls-2"><path class="cls-31" d="M487.4,240.93a.13.13,0,0,1,.14-.12h.13a.14.14,0,0,1,.13.08l1.73,3.7h0l1.73-3.7a.14.14,0,0,1,.13-.08h.13a.13.13,0,0,1,.14.12l.93,5.27a.14.14,0,0,1-.14.18h-.71a.17.17,0,0,1-.15-.12l-.46-3h0l-1.37,3.08a.13.13,0,0,1-.13.09h-.14a.14.14,0,0,1-.13-.09l-1.39-3.08h0l-.45,3a.15.15,0,0,1-.14.12h-.71a.14.14,0,0,1-.15-.18Z"/><path class="cls-31" d="M476.12,220h-.37a0,0,0,0,1,0,0v-.28a0,0,0,0,1,0,0h1.14a0,0,0,0,1,0,0V220a0,0,0,0,1,0,0h-.37v1.37a.05.05,0,0,1,0,0h-.31a.05.05,0,0,1,0,0Z"/><path class="cls-31" d="M477.17,219.7a.05.05,0,0,1,0,0h.3a0,0,0,0,1,0,0v.65h.73v-.65a0,0,0,0,1,0,0h.3a.05.05,0,0,1,0,0v1.7a.05.05,0,0,1,0,0h-.3a0,0,0,0,1,0,0v-.67h-.73v.67a0,0,0,0,1,0,0h-.3a.05.05,0,0,1,0,0Z"/><path class="cls-31" d="M479.11,219.7a0,0,0,0,1,0,0h1.06a0,0,0,0,1,0,0V220a0,0,0,0,1,0,0h-.71v.32h.58a.05.05,0,0,1,0,0v.28a0,0,0,0,1,0,0h-.58v.35h.71a0,0,0,0,1,0,0v.28a0,0,0,0,1,0,0h-1.06a0,0,0,0,1,0,0Z"/><path class="cls-31" d="M497,238a.51.51,0,0,0-1,0,.5.5,0,0,0,.15.37.51.51,0,0,0,.73,0A.5.5,0,0,0,497,238m-.07,0a.43.43,0,0,1-.13.31.43.43,0,0,1-.31.13.42.42,0,0,1-.31-.13A.42.42,0,0,1,496,238a.43.43,0,0,1,.13-.31.44.44,0,0,1,.63,0,.43.43,0,0,1,.13.31"/><path class="cls-31" d="M496.49,238a.1.1,0,0,0,.1-.1.1.1,0,0,0-.1-.1h-.14V238Zm-.23-.26h.23a.17.17,0,0,1,.18.17.18.18,0,0,1-.12.16l.11.2a0,0,0,0,1,0,0h-.08l-.11-.21h-.12v.21h-.08Z"/><path class="cls-28" d="M186.84,111.38h-1.55a.07.07,0,0,0-.07.07v2.47a.07.07,0,0,0,.07.07h1.55a.07.07,0,0,0,.07-.07v-.41a.07.07,0,0,0-.07-.07h-1v-.5h.85a.07.07,0,0,0,.07-.07v-.41a.07.07,0,0,0-.07-.07h-.85v-.46h1a.07.07,0,0,0,.07-.07v-.41a.07.07,0,0,0-.07-.07"/><path class="cls-28" d="M188.39,113.1l.28-.62h0l.28.62Zm.37-1.71a.08.08,0,0,0-.06,0h0a.08.08,0,0,0-.06,0l-1.17,2.51a.07.07,0,0,0,.06.1h.41a.14.14,0,0,0,.13-.09l.13-.3h1l.14.3c0,.07.06.09.13.09h.41a.07.07,0,0,0,.06-.1Z"/><path class="cls-28" d="M191.82,111.38h-1.66a.07.07,0,0,0-.07.07v.41a.07.07,0,0,0,.07.07h.53v2a.07.07,0,0,0,.07.07h.45a.07.07,0,0,0,.07-.07v-2h.53a.07.07,0,0,0,.07-.07v-.41a.07.07,0,0,0-.07-.07"/><path class="cls-28" d="M193.44,112.41c-.26-.13-.41-.22-.41-.35a.2.2,0,0,1,.23-.21,1,1,0,0,1,.5.2.12.12,0,0,0,.16,0l.19-.29a.09.09,0,0,0,0-.12,1.39,1.39,0,0,0-.8-.28.78.78,0,0,0-.86.74c0,.45.36.65.72.83s.38.22.38.38a.23.23,0,0,1-.26.22,1,1,0,0,1-.53-.21.09.09,0,0,0-.13,0l-.17.3a.08.08,0,0,0,0,.11,1.18,1.18,0,0,0,.84.29.82.82,0,0,0,.88-.77c0-.51-.43-.69-.75-.85"/><path class="cls-28" d="M196.28,113.57a.33.33,0,0,1-.35-.32.41.41,0,0,1,.26-.39l.49.52a.46.46,0,0,1-.4.19m0-1.8a.24.24,0,0,1,.26.24c0,.21-.24.32-.24.32l-.15-.15a.27.27,0,0,1-.1-.2.22.22,0,0,1,.24-.2m1.34,1.85-.32-.29a2.28,2.28,0,0,0,.24-.47s0-.14,0-.17l-.27-.1c-.1,0-.12,0-.14.1a1.33,1.33,0,0,1-.12.29l-.33-.34s.41-.25.41-.66a.66.66,0,0,0-.73-.62.67.67,0,0,0-.74.61.75.75,0,0,0,.25.53l.08.08h0a.86.86,0,0,0-.51.75.76.76,0,0,0,.82.71,1.1,1.1,0,0,0,.81-.29l.24.24a.11.11,0,0,0,.17,0l.21-.21c.09-.09.06-.13,0-.17"/><path class="cls-28" d="M200.54,111.38H199a.07.07,0,0,0-.07.07v2.47a.07.07,0,0,0,.07.07h1.55a.07.07,0,0,0,.07-.07v-.41a.07.07,0,0,0-.07-.07h-1v-.5h.85a.07.07,0,0,0,.07-.07v-.41a.07.07,0,0,0-.07-.07h-.85v-.46h1a.07.07,0,0,0,.07-.07v-.41a.07.07,0,0,0-.07-.07"/><path class="cls-28" d="M203.56,111.38h-.45a.07.07,0,0,0-.07.07v1.32h0l-1.43-1.38s-.06-.06-.09-.06h-.06a.07.07,0,0,0-.07.07v2.51a.07.07,0,0,0,.07.07h.44a.07.07,0,0,0,.07-.07v-1.39h0l1.45,1.46a.12.12,0,0,0,.09,0h0a.07.07,0,0,0,.07-.07v-2.51a.07.07,0,0,0-.07-.07"/><path class="cls-28" d="M206,111.38h-1.66a.07.07,0,0,0-.07.07v.41a.07.07,0,0,0,.07.07h.53v2a.07.07,0,0,0,.07.07h.45a.07.07,0,0,0,.07-.07v-2H206a.07.07,0,0,0,.07-.07v-.41a.07.07,0,0,0-.07-.07"/><path class="cls-28" d="M208.28,111.38h-1.55a.07.07,0,0,0-.07.07v2.47a.07.07,0,0,0,.07.07h1.55a.07.07,0,0,0,.07-.07v-.41a.07.07,0,0,0-.07-.07h-1v-.5h.85a.07.07,0,0,0,.07-.07v-.41a.07.07,0,0,0-.07-.07h-.85v-.46h1a.07.07,0,0,0,.07-.07v-.41a.07.07,0,0,0-.07-.07"/><path class="cls-28" d="M210.27,112.5h-.55v-.58h.55a.27.27,0,0,1,.28.28.29.29,0,0,1-.28.3m.86-.31a.8.8,0,0,0-.81-.81H209.2a.07.07,0,0,0-.07.07v2.47a.07.07,0,0,0,.07.07h.44a.07.07,0,0,0,.07-.07v-1H210l.5,1a.07.07,0,0,0,.06,0h.5a.07.07,0,0,0,.06-.11l-.51-.95a.79.79,0,0,0,.55-.75"/><path class="cls-28" d="M213.4,111.38h-1.66a.07.07,0,0,0-.07.07v.41a.07.07,0,0,0,.07.07h.53v2a.07.07,0,0,0,.07.07h.45a.07.07,0,0,0,.07-.07v-2h.53a.07.07,0,0,0,.07-.07v-.41a.07.07,0,0,0-.07-.07"/><path class="cls-28" d="M214.61,113.1l.28-.62h0l.28.62Zm.37-1.71a.08.08,0,0,0-.06,0h0a.08.08,0,0,0-.06,0l-1.17,2.51a.07.07,0,0,0,.06.1h.41a.14.14,0,0,0,.13-.09l.13-.3h1l.14.3c0,.07.06.09.13.09h.41a.07.07,0,0,0,.06-.1Z"/><path class="cls-28" d="M217.23,111.38h-.45a.07.07,0,0,0-.07.07v2.47a.07.07,0,0,0,.07.07h.45a.07.07,0,0,0,.07-.07v-2.47a.07.07,0,0,0-.07-.07"/><path class="cls-28" d="M220.35,111.38h-.45a.07.07,0,0,0-.07.07v1.32h0l-1.43-1.38s-.06-.06-.09-.06h-.06a.07.07,0,0,0-.07.07v2.51a.07.07,0,0,0,.07.07h.44a.07.07,0,0,0,.07-.07v-1.39h0l1.45,1.46a.12.12,0,0,0,.09,0h0a.07.07,0,0,0,.07-.07v-2.51a.07.07,0,0,0-.07-.07"/><path class="cls-28" d="M223.61,111.35h-.06a.08.08,0,0,0-.06,0l-.87,1.61h0l-.87-1.61a.08.08,0,0,0-.06,0h-.06a.07.07,0,0,0-.07.06l-.42,2.51a.07.07,0,0,0,.07.08h.44a.07.07,0,0,0,.07-.06l.16-1.15h0l.63,1.21a.08.08,0,0,0,.06,0h.07a.09.09,0,0,0,.06,0l.63-1.21h0l.17,1.15a.08.08,0,0,0,.07.06H224a.07.07,0,0,0,.07-.08l-.42-2.51a.07.07,0,0,0-.07-.06"/><path class="cls-28" d="M226.43,111.38h-1.55a.07.07,0,0,0-.07.07v2.47a.07.07,0,0,0,.07.07h1.55a.07.07,0,0,0,.07-.07v-.41a.07.07,0,0,0-.07-.07h-1v-.5h.85a.07.07,0,0,0,.07-.07v-.41a.07.07,0,0,0-.07-.07h-.85v-.46h1a.07.07,0,0,0,.07-.07v-.41a.07.07,0,0,0-.07-.07"/><path class="cls-28" d="M229.46,111.38H229a.07.07,0,0,0-.07.07v1.32h0l-1.43-1.38s-.06-.06-.09-.06h-.06a.07.07,0,0,0-.07.07v2.51a.07.07,0,0,0,.07.07h.44a.07.07,0,0,0,.07-.07v-1.39h0l1.45,1.46a.12.12,0,0,0,.09,0h0a.07.07,0,0,0,.07-.07v-2.51a.07.07,0,0,0-.07-.07"/><path class="cls-28" d="M231.87,111.38h-1.66a.07.07,0,0,0-.07.07v.41a.07.07,0,0,0,.07.07h.53v2a.07.07,0,0,0,.07.07h.45a.07.07,0,0,0,.07-.07v-2h.53a.07.07,0,0,0,.07-.07v-.41a.07.07,0,0,0-.07-.07"/><path class="cls-28" d="M178.39,85.46a1.06,1.06,0,0,0,1-1.06,1,1,0,0,0-1-1h-1.7v2.08Zm-3.07-3.13a.2.2,0,0,1,.2-.2h3a2.26,2.26,0,0,1,2.27,2.24,2.3,2.3,0,0,1-1.54,2.11l1.43,2.65a.2.2,0,0,1-.18.3h-1.1a.18.18,0,0,1-.17-.09l-1.39-2.76h-1.16v2.66a.2.2,0,0,1-.2.2h-1a.2.2,0,0,1-.2-.2Z"/><path class="cls-28" d="M191.09,82.32a.2.2,0,0,1,.2-.2h4.25a.2.2,0,0,1,.2.2v.86a.2.2,0,0,1-.2.2h-3.09v1.71H195a.2.2,0,0,1,.2.2v.87a.2.2,0,0,1-.2.2h-2.58v1.82h3.09a.2.2,0,0,1,.2.2v.85a.2.2,0,0,1-.2.2h-4.25a.2.2,0,0,1-.2-.2Z"/><path class="cls-28" d="M209.18,82a3.53,3.53,0,0,1,2.52,1,.19.19,0,0,1,0,.29l-.64.66a.17.17,0,0,1-.26,0,2.47,2.47,0,0,0-1.61-.62,2.42,2.42,0,0,0,0,4.84,2.5,2.5,0,0,0,1.6-.6.19.19,0,0,1,.26,0l.65.67a.2.2,0,0,1,0,.28,3.58,3.58,0,0,1-2.53,1,3.76,3.76,0,1,1,0-7.51"/><path class="cls-28" d="M178.39,100.79a1.06,1.06,0,0,0,1-1.06,1,1,0,0,0-1-1h-1.7v2.08Zm-3.07-3.13a.2.2,0,0,1,.2-.2h3a2.26,2.26,0,0,1,2.27,2.24,2.3,2.3,0,0,1-1.54,2.11l1.43,2.65a.2.2,0,0,1-.18.3h-1.1a.18.18,0,0,1-.17-.09l-1.39-2.76h-1.16v2.66a.2.2,0,0,1-.2.2h-1a.2.2,0,0,1-.2-.2Z"/><path class="cls-28" d="M193.21,103.51a2.4,2.4,0,1,0-2.39-2.39,2.4,2.4,0,0,0,2.39,2.39m0-6.16a3.76,3.76,0,1,1-3.75,3.77,3.75,3.75,0,0,1,3.75-3.77"/><path class="cls-28" d="M208.54,103.51a2.4,2.4,0,1,0-2.39-2.39,2.4,2.4,0,0,0,2.39,2.39m0-6.16a3.76,3.76,0,1,1-3.75,3.77,3.75,3.75,0,0,1,3.75-3.77"/></g><path class="cls-28" d="M170.54,92.88h14.69V78.18H170.54Zm15.33.64h-16v-16h16Z"/><path class="cls-28" d="M201.2,77.55h14.69V62.85H201.2Zm15.33.64h-16v-16h16Z"/><path class="cls-28" d="M185.87,92.88h14.69V78.18H185.87Zm15.33.64h-16v-16h16Z"/><path class="cls-28" d="M201.2,92.88h14.69V78.18H201.2Zm15.33.64h-16v-16h16Z"/><path class="cls-28" d="M170.54,108.21h14.69V93.51H170.54Zm15.33.64h-16v-16h16Z"/><path class="cls-28" d="M185.87,108.21h14.69V93.51H185.87Zm15.33.64h-16v-16h16Z"/><path class="cls-28" d="M201.2,108.21h14.69V93.51H201.2Zm15.33.64h-16v-16h16Z"/><path class="cls-28" d="M216.53,108.21h14.69V93.51H216.53Zm15.33.64h-16v-16h16Z"/><g class="cls-2"><path class="cls-28" d="M221,97.51a.18.18,0,0,1,.19-.16h.17a.19.19,0,0,1,.18.11l2.29,4.92h0l2.3-4.92a.18.18,0,0,1,.18-.11h.17a.18.18,0,0,1,.19.16l1.23,7a.18.18,0,0,1-.19.24h-.95a.23.23,0,0,1-.2-.16l-.62-4h0l-1.82,4.1a.18.18,0,0,1-.18.12h-.19a.19.19,0,0,1-.18-.12l-1.85-4.1h0l-.6,4a.2.2,0,0,1-.19.16H220a.19.19,0,0,1-.2-.24Z"/><path class="cls-28" d="M206,69.71h-.49a.06.06,0,0,1-.06-.06v-.37a.06.06,0,0,1,.06-.07h1.51a.07.07,0,0,1,.07.07v.37a.07.07,0,0,1-.07.06h-.49v1.82a.07.07,0,0,1-.06.07h-.41a.07.07,0,0,1-.06-.07Z"/><path class="cls-28" d="M207.42,69.27a.07.07,0,0,1,.06-.06h.4a.06.06,0,0,1,.07.06v.86h1v-.86a.06.06,0,0,1,.07-.06h.4a.07.07,0,0,1,.07.06v2.26a.07.07,0,0,1-.07.07H209a.06.06,0,0,1-.07-.07v-.9h-1v.9a.06.06,0,0,1-.07.07h-.4a.07.07,0,0,1-.06-.07Z"/><path class="cls-28" d="M210,69.27a.06.06,0,0,1,.06-.06h1.41a.07.07,0,0,1,.06.06v.37a.06.06,0,0,1-.06.06h-.94v.42h.78a.07.07,0,0,1,.07.07v.37a.06.06,0,0,1-.07.06h-.78v.46h.94a.07.07,0,0,1,.06.07v.37a.07.07,0,0,1-.06.07h-1.41a.06.06,0,0,1-.06-.07Z"/><path class="cls-28" d="M233.77,93.56a.68.68,0,0,0-1.16-.48.68.68,0,1,0,1.16.48m-.1,0a.58.58,0,0,1-.17.42.57.57,0,0,1-.42.17.56.56,0,0,1-.42-.17.59.59,0,1,1,1-.42"/><path class="cls-28" d="M233.12,93.56a.13.13,0,0,0,.13-.13.13.13,0,0,0-.13-.13h-.19v.26Zm-.3-.34a0,0,0,0,1,0,0h.29a.23.23,0,0,1,.23.23.24.24,0,0,1-.16.22l.15.27a0,0,0,0,1,0,0h-.1l-.14-.28h-.16v.27a0,0,0,0,1,0,0h-.07a0,0,0,0,1,0,0Z"/><g class="cls-38"><g class="cls-39"><text class="cls-40" transform="translate(175.28 124.93)"><tspan class="cls-41">A </tspan><tspan class="cls-42" x="5.59" y="0">C</tspan><tspan class="cls-41" x="9.99" y="0">ine</tspan><tspan class="cls-42" x="18.04" y="0">pl</tspan><tspan class="cls-43" x="22.91" y="0">e</tspan><tspan class="cls-44" x="26.18" y="0">x</tspan><tspan class="cls-41" x="29.08" y="0" xml:space="preserve"> b</tspan><tspan class="cls-42" x="34.06" y="0">u</tspan><tspan class="cls-41" x="37.34" y="0">si</tspan><tspan class="cls-44" x="41.33" y="0">n</tspan><tspan class="cls-41" x="44.69" y="0">es</tspan><tspan x="50.58" y="0">s</tspan></text></g></g><path class="cls-31" d="M728.55,88.91h-1.16a.05.05,0,0,0-.05.05v1.86a.05.05,0,0,0,.05.05h1.16a.05.05,0,0,0,.05-.05v-.31a.05.05,0,0,0-.05-.05h-.78v-.38h.64a.05.05,0,0,0,.05-.05v-.3a.06.06,0,0,0-.05-.05h-.64v-.35h.78a.05.05,0,0,0,.05-.05V89a.05.05,0,0,0-.05-.05"/><path class="cls-31" d="M729.71,90.2l.21-.46h0l.21.46Zm.28-1.29a.06.06,0,0,0,0,0h0a.06.06,0,0,0,0,0L729,90.8a0,0,0,0,0,0,.07h.31a.11.11,0,0,0,.1-.07l.1-.23h.76l.1.22c0,.05,0,.07.1.07h.31a0,0,0,0,0,0-.07Z"/><path class="cls-31" d="M732.29,88.91H731A.05.05,0,0,0,731,89v.31a.05.05,0,0,0,.05.05h.4v1.5a.05.05,0,0,0,.05.05h.34a.06.06,0,0,0,.05-.05v-1.5h.4a.05.05,0,0,0,.05-.05V89a.05.05,0,0,0-.05-.05"/><path class="cls-31" d="M733.51,89.68c-.2-.09-.31-.17-.31-.26a.15.15,0,0,1,.17-.15.76.76,0,0,1,.38.15.09.09,0,0,0,.12,0l.14-.22s0-.07,0-.09a1,1,0,0,0-.6-.21.58.58,0,0,0-.65.56c0,.34.27.49.54.62s.29.16.29.28a.18.18,0,0,1-.19.17.72.72,0,0,1-.4-.15.07.07,0,0,0-.1,0l-.13.23a.06.06,0,0,0,0,.08.89.89,0,0,0,.63.22.62.62,0,0,0,.66-.58c0-.38-.32-.52-.57-.64"/><path class="cls-31" d="M735.65,90.55a.25.25,0,0,1-.26-.24.31.31,0,0,1,.2-.29l.37.39a.35.35,0,0,1-.3.14m0-1.36a.18.18,0,0,1,.19.18c0,.16-.18.24-.18.24l-.11-.11a.2.2,0,0,1-.08-.15.16.16,0,0,1,.18-.15m1,1.39-.24-.22a1.66,1.66,0,0,0,.18-.35s0-.11,0-.13l-.21-.07c-.08,0-.09,0-.11.08a1,1,0,0,1-.09.22l-.25-.26s.3-.19.3-.5a.5.5,0,0,0-.55-.47.51.51,0,0,0-.56.46.56.56,0,0,0,.18.4l.06.06h0a.65.65,0,0,0-.38.56.57.57,0,0,0,.62.53.83.83,0,0,0,.61-.22l.18.18a.09.09,0,0,0,.13,0l.16-.16c.07-.07,0-.1,0-.13"/><path class="cls-31" d="M738.85,88.91h-1.16a.05.05,0,0,0-.05.05v1.86a.05.05,0,0,0,.05.05h1.16a.05.05,0,0,0,.05-.05v-.31a.05.05,0,0,0-.05-.05h-.78v-.38h.64a.05.05,0,0,0,.05-.05v-.3a.06.06,0,0,0-.05-.05h-.64v-.35h.78a.05.05,0,0,0,.05-.05V89a.05.05,0,0,0-.05-.05"/><path class="cls-31" d="M741.12,88.91h-.34a.05.05,0,0,0-.05.05v1h0l-1.08-1s0,0-.07,0h0a.05.05,0,0,0-.05.05v1.89a.05.05,0,0,0,.05.05h.33a.05.05,0,0,0,.05-.05v-1h0l1.09,1.1a.09.09,0,0,0,.07,0h0a0,0,0,0,0,.05-.05V89a.05.05,0,0,0-.05-.05"/><path class="cls-31" d="M742.94,88.91h-1.25a.05.05,0,0,0-.05.05v.31a.05.05,0,0,0,.05.05h.4v1.5a.05.05,0,0,0,.05.05h.34a.06.06,0,0,0,.05-.05v-1.5h.4a.05.05,0,0,0,.05-.05V89a.05.05,0,0,0-.05-.05"/><path class="cls-31" d="M744.67,88.91h-1.16a.05.05,0,0,0-.05.05v1.86a.05.05,0,0,0,.05.05h1.16a.05.05,0,0,0,.05-.05v-.31a.05.05,0,0,0-.05-.05h-.78v-.38h.64a.05.05,0,0,0,.05-.05v-.3a.06.06,0,0,0-.05-.05h-.64v-.35h.78a.05.05,0,0,0,.05-.05V89a.05.05,0,0,0-.05-.05"/><path class="cls-31" d="M746.17,89.75h-.42v-.44h.42a.21.21,0,0,1,.21.21.22.22,0,0,1-.21.22m.65-.23a.6.6,0,0,0-.61-.61h-.84a.05.05,0,0,0-.05.05v1.86a.05.05,0,0,0,.05.05h.33a.06.06,0,0,0,.05-.05v-.72h.19l.37.74a.05.05,0,0,0,0,0h.37a.05.05,0,0,0,0-.08l-.38-.71a.59.59,0,0,0,.42-.56"/><path class="cls-31" d="M748.52,88.91h-1.25a.05.05,0,0,0-.05.05v.31a.05.05,0,0,0,.05.05h.4v1.5a.05.05,0,0,0,.05.05h.34a.06.06,0,0,0,.05-.05v-1.5h.4a.05.05,0,0,0,.05-.05V89a.05.05,0,0,0-.05-.05"/><path class="cls-31" d="M749.43,90.2l.21-.46h0l.21.46Zm.28-1.29a.06.06,0,0,0,0,0h0a.06.06,0,0,0,0,0l-.88,1.89a0,0,0,0,0,0,.07h.31a.11.11,0,0,0,.1-.07l.1-.23H750l.1.22c0,.05,0,.07.1.07h.31a0,0,0,0,0,0-.07Z"/><path class="cls-31" d="M751.4,88.91h-.34A.05.05,0,0,0,751,89v1.86a.05.05,0,0,0,.05.05h.34a.05.05,0,0,0,.05-.05V89a.05.05,0,0,0-.05-.05"/><path class="cls-31" d="M753.74,88.91h-.34a.05.05,0,0,0-.05.05v1h0l-1.08-1s0,0-.07,0h0a.05.05,0,0,0-.05.05v1.89a.05.05,0,0,0,.05.05h.33a.05.05,0,0,0,.05-.05v-1h0l1.09,1.1a.09.09,0,0,0,.07,0h0a0,0,0,0,0,.05-.05V89a.05.05,0,0,0-.05-.05"/><path class="cls-31" d="M756.2,88.88h0a.06.06,0,0,0,0,0l-.65,1.21h0l-.65-1.21a.06.06,0,0,0,0,0h0a.05.05,0,0,0,0,0l-.32,1.88a.05.05,0,0,0,.05.06h.33a.06.06,0,0,0,.05,0l.12-.87h0l.47.91a.06.06,0,0,0,0,0h.05a.06.06,0,0,0,0,0L756,90h0l.13.87a.06.06,0,0,0,.05,0h.33a.05.05,0,0,0,.05-.06l-.32-1.88a.05.05,0,0,0,0,0"/><path class="cls-31" d="M758.32,88.91h-1.16a.05.05,0,0,0-.05.05v1.86a.05.05,0,0,0,.05.05h1.16a.05.05,0,0,0,.05-.05v-.31a.05.05,0,0,0-.05-.05h-.78v-.38h.64a.05.05,0,0,0,.05-.05v-.3a.06.06,0,0,0-.05-.05h-.64v-.35h.78a.05.05,0,0,0,.05-.05V89a.05.05,0,0,0-.05-.05"/><path class="cls-31" d="M760.59,88.91h-.34a.05.05,0,0,0-.05.05v1h0l-1.08-1s0,0-.07,0h0a.05.05,0,0,0-.05.05v1.89a.05.05,0,0,0,.05.05h.33a.05.05,0,0,0,.05-.05v-1h0l1.09,1.1a.09.09,0,0,0,.07,0h0a0,0,0,0,0,.05-.05V89a.05.05,0,0,0-.05-.05"/><path class="cls-31" d="M762.41,88.91h-1.25a.05.05,0,0,0-.05.05v.31a.05.05,0,0,0,.05.05h.4v1.5a.05.05,0,0,0,.05.05H762a.06.06,0,0,0,.05-.05v-1.5h.4a.05.05,0,0,0,.05-.05V89a.05.05,0,0,0-.05-.05"/><path class="cls-31" d="M722.2,69.42a.8.8,0,0,0,.78-.8.78.78,0,0,0-.78-.76h-1.28v1.56Zm-2.31-2.35a.15.15,0,0,1,.15-.15h2.24A1.7,1.7,0,0,1,724,68.6a1.73,1.73,0,0,1-1.16,1.58l1.08,2a.15.15,0,0,1-.13.23h-.82a.13.13,0,0,1-.12-.07l-1-2.08h-.87v2a.15.15,0,0,1-.15.15H720a.15.15,0,0,1-.15-.15Z"/><path class="cls-31" d="M731.75,67.06a.15.15,0,0,1,.15-.15h3.19a.15.15,0,0,1,.15.15v.64a.15.15,0,0,1-.15.15h-2.32v1.29h1.94a.15.15,0,0,1,.15.15v.65a.15.15,0,0,1-.15.15h-1.94v1.37h2.32a.15.15,0,0,1,.15.15v.64a.15.15,0,0,1-.15.15H731.9a.15.15,0,0,1-.15-.15Z"/><path class="cls-31" d="M745.35,66.84a2.65,2.65,0,0,1,1.9.73.14.14,0,0,1,0,.22l-.48.49a.13.13,0,0,1-.2,0,1.86,1.86,0,0,0-1.21-.46,1.82,1.82,0,0,0,0,3.64,1.88,1.88,0,0,0,1.2-.45.14.14,0,0,1,.2,0l.49.5a.15.15,0,0,1,0,.21,2.69,2.69,0,0,1-1.91.76,2.82,2.82,0,1,1,0-5.65"/><path class="cls-31" d="M722.2,80.94a.8.8,0,0,0,.78-.8.78.78,0,0,0-.78-.76h-1.28v1.56Zm-2.31-2.35a.15.15,0,0,1,.15-.15h2.24A1.7,1.7,0,0,1,724,80.13a1.73,1.73,0,0,1-1.16,1.59l1.08,2a.15.15,0,0,1-.13.23h-.82a.13.13,0,0,1-.12-.07l-1-2.08h-.87v2a.15.15,0,0,1-.15.15H720a.15.15,0,0,1-.15-.15Z"/><path class="cls-31" d="M733.34,83a1.8,1.8,0,1,0-1.8-1.8,1.81,1.81,0,0,0,1.8,1.8m0-4.63a2.82,2.82,0,1,1-2.82,2.83,2.82,2.82,0,0,1,2.82-2.83"/><path class="cls-31" d="M744.86,83a1.8,1.8,0,1,0-1.8-1.8,1.81,1.81,0,0,0,1.8,1.8m0-4.63A2.82,2.82,0,1,1,742,81.2a2.82,2.82,0,0,1,2.82-2.83"/></g><path class="cls-31" d="M716.29,75h11v-11h-11Zm11.53.48h-12v-12h12Z"/><path class="cls-31" d="M739.34,63.47h11v-11h-11Zm11.53.48h-12v-12h12Z"/><path class="cls-31" d="M727.82,75h11v-11h-11Zm11.53.48h-12v-12h12Z"/><path class="cls-31" d="M739.34,75h11v-11h-11Zm11.53.48h-12v-12h12Z"/><path class="cls-31" d="M716.29,86.52h11v-11h-11Zm11.53.48h-12V75h12Z"/><path class="cls-31" d="M727.82,86.52h11v-11h-11Zm11.53.48h-12V75h12Z"/><path class="cls-31" d="M739.34,86.52h11v-11h-11Zm11.53.48h-12V75h12Z"/><path class="cls-31" d="M750.87,86.52h11v-11h-11ZM762.4,87h-12V75h12Z"/><g class="cls-2"><path class="cls-31" d="M754.26,78.48a.13.13,0,0,1,.14-.12h.13a.14.14,0,0,1,.13.08l1.73,3.7h0l1.73-3.7a.14.14,0,0,1,.13-.08h.13a.13.13,0,0,1,.14.12l.93,5.27a.14.14,0,0,1-.14.18h-.71a.17.17,0,0,1-.15-.12l-.46-3h0l-1.37,3.08a.13.13,0,0,1-.13.09h-.14a.14.14,0,0,1-.13-.09l-1.39-3.08h0l-.45,3a.15.15,0,0,1-.14.12h-.71a.14.14,0,0,1-.15-.18Z"/><path class="cls-31" d="M743,57.58h-.37a0,0,0,0,1,0,0v-.28a0,0,0,0,1,0,0h1.14a0,0,0,0,1,0,0v.28a0,0,0,0,1,0,0h-.37v1.37a.05.05,0,0,1,0,0H743a.05.05,0,0,1,0,0Z"/><path class="cls-31" d="M744,57.25a.05.05,0,0,1,0,0h.3a0,0,0,0,1,0,0v.65h.73v-.65a0,0,0,0,1,0,0h.3a.05.05,0,0,1,0,0v1.7a.05.05,0,0,1,0,0h-.3a0,0,0,0,1,0,0v-.67h-.73v.67a0,0,0,0,1,0,0h-.3a.05.05,0,0,1,0,0Z"/><path class="cls-31" d="M746,57.25a0,0,0,0,1,0,0h1.06a0,0,0,0,1,0,0v.28a0,0,0,0,1,0,0h-.71v.32h.58a.05.05,0,0,1,0,0v.28a0,0,0,0,1,0,0h-.58v.35h.71a0,0,0,0,1,0,0v.28a0,0,0,0,1,0,0H746a0,0,0,0,1,0,0Z"/><path class="cls-31" d="M763.83,75.51a.51.51,0,0,0-1,0,.5.5,0,0,0,.15.37.51.51,0,0,0,.73,0,.5.5,0,0,0,.15-.37m-.07,0a.43.43,0,0,1-.13.31.43.43,0,0,1-.31.13.42.42,0,0,1-.31-.13.42.42,0,0,1-.13-.31.43.43,0,0,1,.13-.31.44.44,0,0,1,.63,0,.43.43,0,0,1,.13.31"/><path class="cls-31" d="M763.35,75.51a.1.1,0,0,0,.1-.1.1.1,0,0,0-.1-.1h-.14v.2Zm-.23-.26h.23a.17.17,0,0,1,.18.17.18.18,0,0,1-.12.16l.11.21a0,0,0,0,1,0,0h-.08l-.11-.21h-.12v.21h-.08Z"/></g></g></svg>